<svg width="256" height="219" viewBox="0 0 256 219" fill="none" xmlns="http://www.w3.org/2000/svg">
<path d="M122.559 0C108.318 0 95.2971 8.25064 89.1763 21.0993L64.7003 72.6588C54.6015 61.237 38.1069 56.8362 23.1442 62.8534L23.1307 62.8601L23.1172 62.8668C4.06734 70.5787 -4.87957 92.1921 2.67793 110.985L2.68466 110.992V110.999C8.29924 124.92 17.4998 137.709 28.5713 148.494L20.9016 164.605C12.462 182.334 18.8136 204.4 36.5863 213.848H36.593C55.127 223.693 78.2353 216.209 87.3512 197.106H87.3579L93.5335 184.122C102.504 186.233 111.755 187.409 120.936 187.409C131.252 187.409 141.483 186.072 151.338 183.616L157.72 197.059C160.997 203.962 166.206 209.552 172.545 213.211C178.216 216.484 184.365 218.177 191.198 218.243C194.506 218.242 197.952 217.738 201.165 216.838C209.379 214.569 216.133 209.423 220.592 203.284C223.956 198.654 226.225 193.299 227.225 187.751C228.597 180.139 227.701 172.009 224.136 164.511V164.504L215.836 147.039C235.326 127.871 249.742 103.078 255.27 75.4739H255.277V75.4672C259.297 55.3157 246.137 35.8629 226.258 31.9149H226.251C206.165 27.9378 186.723 40.9879 182.732 60.9744C182.073 64.269 180.933 68.0312 179.702 71.0897L155.942 21.106C149.828 8.24998 136.803 0.01 122.566 0H122.559Z" fill="white"/>
<path d="M43.0463 145.632L31.5987 169.7C25.7714 181.94 30.1505 197.008 42.1498 203.387C54.8732 210.146 70.5275 204.87 76.6651 192.009L87.1128 170.044C79.2408 148.14 61.5797 141.465 43.0463 145.632Z" fill="#1A007F"/>
<path d="M223.933 43.5688C220.695 42.9205 217.361 42.9165 214.122 43.5569C210.883 44.1974 207.802 45.4697 205.054 47.3013C202.307 49.1328 199.947 51.4877 198.11 54.2314C196.273 56.9751 194.995 60.0539 194.348 63.2918C191.934 75.3601 186.28 86.6008 178.487 96.152L201.348 144.287C222.45 125.978 238.035 101.048 243.621 73.1533C246.345 59.4989 237.518 46.2583 223.933 43.5688Z" fill="#FF9396"/>
<path d="M213.416 169.596L201.348 144.218L178.487 96.1178L178.452 96.1522C178.452 96.1522 178.452 96.1178 178.487 96.1178L145.247 26.1907C141.083 17.4347 132.255 11.8535 122.559 11.8467C112.87 11.8467 104.043 17.4326 99.8707 26.1907L65.9761 97.497C62.7761 115.4 95.0939 131.987 109.043 123.978L120.007 100.945C121.042 98.7728 124.145 98.7728 125.18 100.945L135.903 123.496L157.729 169.424L168.453 191.974C172.615 200.749 181.465 206.335 191.176 206.318C193.417 206.318 195.658 206.008 197.865 205.387C213.002 201.215 220.174 183.802 213.416 169.596Z" fill="#FF536A"/>
<path d="M135.972 123.495C131.076 124.668 125.973 125.288 120.973 125.288C117.077 125.288 113.042 124.84 109.008 123.978C92.285 120.427 75.4583 110.082 65.9416 97.4969C63.5624 94.3591 61.6315 91.0834 60.2868 87.7388C55.0802 74.8775 40.4258 68.6709 27.5645 73.843C14.7031 79.0496 8.4966 93.704 13.6687 106.565C19.5649 121.185 29.9781 134.598 43.0464 145.632C55.9996 156.551 70.9553 164.843 87.0784 170.044C98.1467 173.596 109.629 175.561 120.938 175.561C133.49 175.561 145.937 173.389 157.73 169.424L135.972 123.495Z" fill="#002DC8"/>
</svg>
