<svg width="219" height="256" viewBox="0 0 219 256" fill="none" xmlns="http://www.w3.org/2000/svg">
<path fill-rule="evenodd" clip-rule="evenodd" d="M210.532 61.4112L216.528 46.6745C216.528 46.6745 208.896 38.4874 199.629 29.2088C190.362 19.9301 170.738 25.3881 170.738 25.3881L148.388 0H109.139H69.89L47.54 25.3881C47.54 25.3881 27.9155 19.9301 18.6485 29.2088C9.38138 38.4874 1.74966 46.6745 1.74966 46.6745L7.74601 61.4112L0.114288 83.2434C0.114288 83.2434 22.5597 168.364 25.1899 178.759C30.3686 199.227 33.9119 207.141 48.6302 217.511C63.3485 227.882 90.0595 245.893 94.4205 248.622C98.7815 251.351 104.233 256 109.139 256C114.045 256 119.496 251.351 123.857 248.622C128.218 245.893 154.929 227.882 169.647 217.511C184.366 207.141 187.909 199.227 193.088 178.759C195.717 168.364 218.163 83.2434 218.163 83.2434L210.532 61.4112Z" fill="url(#paint0_linear_306_13)"/>
<path fill-rule="evenodd" clip-rule="evenodd" d="M164.469 41.4895C164.469 41.4895 193.217 76.2846 193.217 83.7212C193.217 91.1578 189.6 93.1205 185.964 96.9864C182.328 100.852 166.448 117.736 164.409 119.904C162.37 122.073 158.124 125.36 160.621 131.277C163.119 137.194 166.803 144.724 162.706 152.361C158.609 159.997 151.59 165.095 147.093 164.252C142.596 163.409 132.034 157.882 128.15 155.358C124.266 152.834 111.956 142.669 111.956 138.779C111.956 134.89 124.681 127.907 127.032 126.321C129.383 124.735 140.106 118.594 140.325 116.183C140.545 113.773 140.461 113.066 137.297 107.11C134.132 101.154 128.434 93.2056 129.382 87.9173C130.331 82.6296 139.521 79.8798 146.08 77.3997C152.638 74.9201 165.266 70.2365 166.843 69.5084C168.421 68.7798 168.013 68.0861 163.234 67.6325C158.456 67.1789 144.896 65.3767 138.782 67.0829C132.669 68.7891 122.224 71.3849 121.378 72.7614C120.532 74.1379 119.786 74.1843 120.655 78.9328C121.523 83.6813 125.996 106.467 126.43 110.514C126.865 114.561 127.714 117.236 123.356 118.234C118.997 119.232 111.66 120.964 109.139 120.964C106.618 120.964 99.2804 119.232 94.9221 118.234C90.5633 117.236 91.4127 114.561 91.8471 110.514C92.2816 106.467 96.7543 83.6813 97.6232 78.9328C98.4916 74.1843 97.7453 74.1379 96.8999 72.7614C96.0538 71.3849 85.6087 68.7891 79.4952 67.0829C73.3816 65.3767 59.8217 67.1789 55.0432 67.6325C50.2646 68.0861 49.8569 68.7798 51.4344 69.5084C53.012 70.2365 65.6398 74.9201 72.1976 77.3997C78.756 79.8798 87.9473 82.6296 88.8958 87.9173C89.8443 93.2056 84.1451 101.154 80.9812 107.11C77.8167 113.066 77.7328 113.773 77.9525 116.183C78.1716 118.594 88.8947 124.735 91.2458 126.321C93.597 127.907 106.321 134.89 106.321 138.779C106.321 142.669 94.0118 152.834 90.1278 155.358C86.2438 157.882 75.682 163.409 71.1848 164.252C66.6875 165.095 59.6691 159.997 55.5719 152.361C51.4753 144.724 55.1593 137.194 57.6559 131.277C60.1531 125.36 55.9083 122.073 53.8684 119.904C51.8297 117.736 35.9491 100.852 32.3132 96.9864C28.6772 93.1205 25.0614 91.1578 25.0614 83.7212C25.0614 76.2846 53.809 41.4895 53.809 41.4895C53.809 41.4895 78.067 46.1289 81.3377 46.1289C84.6084 46.1289 91.695 43.3998 98.2365 41.2166C104.778 39.0334 109.139 39.0176 109.139 39.0176C109.139 39.0176 113.5 39.0334 120.041 41.2166C126.583 43.3998 133.669 46.1289 136.94 46.1289C140.211 46.1289 164.469 41.4895 164.469 41.4895ZM142.918 174.588C144.697 175.703 143.612 177.806 141.991 178.953C140.37 180.101 118.586 196.99 116.472 198.857C114.358 200.724 111.251 203.807 109.139 203.807C107.026 203.807 103.919 200.724 101.805 198.857C99.6908 196.99 77.9077 180.101 76.2865 178.953C74.6653 177.806 73.5805 175.703 75.3598 174.588C77.1396 173.472 82.7069 170.658 90.3893 166.677C98.0707 162.697 107.645 159.313 109.139 159.313C110.633 159.313 120.206 162.697 127.889 166.677C135.571 170.658 141.138 173.472 142.918 174.588Z" fill="white"/>
<path d="M170.738 25.3881L148.388 0H109.139H69.8901L47.5401 25.3881C47.5401 25.3881 27.9157 19.9301 18.6486 29.2088C18.6486 29.2088 44.8145 26.8438 53.809 41.4894C53.809 41.4894 78.067 46.1287 81.3377 46.1287C84.6084 46.1287 91.695 43.3997 98.2365 41.2165C104.778 39.0332 109.139 39.0174 109.139 39.0174C109.139 39.0174 113.5 39.0332 120.041 41.2165C126.583 43.3997 133.669 46.1287 136.94 46.1287C140.211 46.1287 164.469 41.4894 164.469 41.4894C173.463 26.8438 199.629 29.2088 199.629 29.2088C190.362 19.9301 170.738 25.3881 170.738 25.3881Z" fill="url(#paint1_linear_306_13)"/>
<defs>
<linearGradient id="paint0_linear_306_13" x1="0.114288" y1="12980.6" x2="21805" y2="12980.6" gradientUnits="userSpaceOnUse">
<stop stop-color="#FF5500"/>
<stop offset="0.409877" stop-color="#FF5500"/>
<stop offset="0.581981" stop-color="#FF2000"/>
<stop offset="1" stop-color="#FF2000"/>
</linearGradient>
<linearGradient id="paint1_linear_306_13" x1="407.474" y1="2338.98" x2="18116.7" y2="2338.98" gradientUnits="userSpaceOnUse">
<stop stop-color="#FF452A"/>
<stop offset="1" stop-color="#FF2000"/>
</linearGradient>
</defs>
</svg>
