<svg width="256" height="252" viewBox="0 0 256 252" fill="none" xmlns="http://www.w3.org/2000/svg">
<path d="M255.996 131.588C255.996 111.351 250.764 92.3385 241.588 75.8175C280.698 -12.6946 199.683 0.269802 195.172 1.15238C178.008 4.51096 162.129 9.90304 147.481 16.7383C145.322 16.6166 143.148 16.5498 140.959 16.5498C86.2948 16.5498 40.5378 54.6773 28.8269 105.789C57.6384 73.4667 77.8018 60.4248 89.8764 55.2057C87.949 56.9279 86.0622 58.6692 84.2064 60.4237C83.5886 61.0069 82.9935 61.5984 82.384 62.1852C81.1603 63.3624 79.939 64.5407 78.7464 65.7298C78.0367 66.4371 77.3461 67.1503 76.6472 67.8624C75.5893 68.9394 74.5338 70.0151 73.501 71.0981C72.7675 71.8674 72.0519 72.639 71.3315 73.4095C70.3666 74.4424 69.4077 75.4764 68.4667 76.514C67.7355 77.3203 67.0164 78.1265 66.2984 78.9352C65.4063 79.9394 64.5225 80.9436 63.6506 81.9502C62.9279 82.7851 62.2111 83.62 61.5026 84.4561C60.6761 85.4317 59.8603 86.4073 59.0529 87.3829C58.3385 88.2464 57.6264 89.1087 56.9275 89.971C56.1714 90.9037 55.4319 91.8351 54.6936 92.7654C53.978 93.6671 53.2624 94.5676 52.5635 95.4681C51.898 96.3256 51.2516 97.1795 50.6004 98.0347C49.8657 99.0007 49.125 99.9668 48.4094 100.928C47.8978 101.616 47.4064 102.297 46.9043 102.983C42.359 109.185 38.2061 115.268 34.4551 121.111C34.4456 121.125 34.436 121.139 34.4277 121.154C33.4402 122.692 32.4872 124.208 31.5533 125.711C31.5033 125.792 31.4507 125.874 31.4007 125.956C30.4656 127.465 29.5628 128.948 28.6826 130.415C28.6515 130.466 28.6193 130.518 28.5883 130.57C26.2221 134.519 24.0275 138.326 22.0513 141.907C11.6905 160.684 6.64667 173.802 6.42841 174.581C-26.2891 291.549 75.8231 242.154 90.072 234.781C105.415 242.36 122.687 246.627 140.959 246.627C190.98 246.627 233.538 214.698 249.379 170.109H188.934C179.99 185.219 162.772 195.454 142.99 195.454C114.007 195.454 90.5121 173.494 90.5121 146.405H255.054C255.678 141.553 256.001 136.608 256.001 131.588H255.996ZM234.506 18.3842C244.413 25.0703 252.358 35.5706 238.713 70.9323C225.626 49.8851 205.936 33.3749 182.533 24.2998C193.179 19.1582 219.543 8.28339 234.506 18.3842ZM23.9751 234.545C15.9066 226.27 14.4802 206.116 32.2845 169.391C41.2701 195.226 59.2008 216.873 82.3769 230.611C70.8508 236.955 40.2515 251.239 23.9751 234.545ZM90.2533 114.943C91.1728 88.6149 114.087 67.5344 142.24 67.5344C170.392 67.5344 193.307 88.6149 194.226 114.943H90.2533Z" fill="#1EBBEE"/>
</svg>
