<svg width="256" height="256" viewBox="0 0 256 256" fill="none" xmlns="http://www.w3.org/2000/svg">
<path d="M85.8624 200.141C71.7056 183.424 62.5408 158.746 61.9264 131.021C61.9264 130.944 61.9264 125.056 61.9264 124.979C62.5408 97.2544 71.7056 72.576 85.8624 55.8592C104.243 32.0256 131.533 16.896 161.997 16.896C180.736 16.896 198.298 22.6304 213.299 32.5888C190.771 12.416 161.075 0.128 128.486 0C128.333 0 128.154 0 128 0C57.3184 0 0 57.3184 0 128C0 196.659 54.0416 252.672 121.907 255.846C123.93 255.949 125.952 256 128 256C160.768 256 190.669 243.686 213.299 223.437C198.298 233.37 180.762 239.104 161.997 239.104C131.533 239.104 104.243 223.974 85.8624 200.141Z" fill="url(#paint0_linear_306_41)"/>
<path d="M85.8623 55.8592C97.6127 41.984 112.768 33.6384 129.357 33.6384C166.63 33.6384 196.813 75.8784 196.813 128C196.813 180.122 166.605 222.362 129.357 222.362C112.794 222.362 97.6127 213.99 85.8623 200.141C104.243 223.974 131.533 239.104 161.997 239.104C180.736 239.104 198.298 233.37 213.299 223.437C239.513 199.987 256 165.914 256 128C256 90.0864 239.513 56.0128 213.299 32.5888C198.298 22.6304 180.761 16.896 161.997 16.896C131.533 16.896 104.243 32.0256 85.8623 55.8592Z" fill="url(#paint1_linear_306_41)"/>
<defs>
<linearGradient id="paint0_linear_306_41" x1="106.655" y1="4.17382" x2="106.655" y2="252.274" gradientUnits="userSpaceOnUse">
<stop offset="0.3" stop-color="#FF1B2D"/>
<stop offset="0.4381" stop-color="#FA1A2C"/>
<stop offset="0.5939" stop-color="#ED1528"/>
<stop offset="0.7581" stop-color="#D60E21"/>
<stop offset="0.9272" stop-color="#B70519"/>
<stop offset="1" stop-color="#A70014"/>
</linearGradient>
<linearGradient id="paint1_linear_306_41" x1="170.933" y1="18.797" x2="170.933" y2="238.23" gradientUnits="userSpaceOnUse">
<stop stop-color="#9C0000"/>
<stop offset="0.7" stop-color="#FF4B4B"/>
</linearGradient>
</defs>
</svg>
