<svg width="257" height="265" viewBox="0 0 257 265" fill="none" xmlns="http://www.w3.org/2000/svg">
<g opacity="0.53" filter="url(#filter0_d_121_82)">
<path d="M251.955 137.476C251.955 153.069 248.766 168.509 242.569 182.914C236.372 197.32 227.29 210.409 215.84 221.435C204.39 232.461 190.797 241.207 175.836 247.174C160.876 253.141 144.842 256.212 128.649 256.212C112.457 256.212 96.422 253.141 81.4624 247.174C66.5022 241.207 52.9091 232.461 41.4591 221.435C30.0092 210.409 20.9265 197.32 14.7298 182.914C8.5332 168.509 5.34375 153.069 5.34375 137.476C5.34375 105.985 18.3348 75.7843 41.4591 53.517C64.5834 31.2497 95.9467 18.74 128.649 18.74C144.842 18.74 160.876 21.8112 175.836 27.7783C190.797 33.7453 204.39 42.4913 215.84 53.517C227.29 64.5427 236.372 77.632 242.569 92.0378C248.766 106.443 251.955 121.883 251.955 137.476Z" fill="black"/>
</g>
<path d="M256.644 128.214C256.644 145.023 253.333 161.667 246.9 177.197C240.468 192.727 231.039 206.837 219.153 218.723C207.267 230.609 193.157 240.038 177.627 246.47C162.097 252.903 145.453 256.214 128.643 256.214C94.6958 256.214 62.1385 242.728 38.1339 218.723C14.1292 194.719 0.643555 162.161 0.643555 128.214C0.643555 94.2659 14.1292 61.7086 38.1339 37.7039C62.1385 13.6993 94.6958 0.213571 128.643 0.213562C145.453 0.213561 162.097 3.52439 177.627 9.957C193.157 16.3896 207.267 25.818 219.153 37.7039C231.039 49.5898 240.468 63.7004 246.9 79.2301C253.333 94.7598 256.644 111.404 256.644 128.214Z" fill="url(#paint0_linear_121_82)" stroke="#CDCDCD" stroke-width="0.351543" stroke-linecap="round" stroke-linejoin="round"/>
<path d="M246.614 128.214C246.614 159.501 234.185 189.507 212.061 211.631C189.938 233.755 159.931 246.184 128.644 246.184C97.356 246.184 67.3501 233.755 45.2264 211.631C23.1028 189.507 10.6738 159.501 10.6738 128.214C10.6738 96.9261 23.1028 66.9199 45.2264 44.7962C67.3501 22.6725 97.356 10.2436 128.644 10.2436C159.931 10.2436 189.938 22.6725 212.061 44.7962C234.185 66.9199 246.614 96.9261 246.614 128.214Z" fill="url(#paint1_radial_121_82)"/>
<path d="M128.644 16.3956C127.691 16.3956 126.924 17.1627 126.924 18.1156V37.9546C126.924 38.9075 127.691 39.6746 128.644 39.6746C129.596 39.6746 130.363 38.9075 130.363 37.9546V18.1156C130.363 17.1627 129.596 16.3956 128.644 16.3956ZM117.392 17.1068C117.278 17.0945 117.16 17.0945 117.042 17.1082C116.094 17.2071 115.411 18.0497 115.51 18.9974L116.377 27.2972C116.476 28.245 117.318 28.9283 118.266 28.8294C119.214 28.7305 119.897 27.8879 119.798 26.9402L118.932 18.6404C118.845 17.8111 118.189 17.1842 117.392 17.1068ZM139.974 17.115C139.177 17.1918 138.52 17.8186 138.433 18.6478L137.56 26.9469C137.46 27.8946 138.144 28.7379 139.092 28.8376C140.039 28.9373 140.882 28.2546 140.981 27.3069L141.854 19.0071C141.954 18.0594 141.271 17.2168 140.323 17.1172C140.205 17.1049 140.088 17.1048 139.974 17.115ZM105.833 18.7829C105.719 18.7838 105.602 18.7952 105.486 18.8197C104.553 19.0171 103.962 19.9266 104.159 20.8588L108.268 40.2674C108.465 41.1996 109.375 41.7912 110.307 41.5939C111.239 41.3965 111.831 40.4877 111.634 39.5555L107.525 20.1462C107.352 19.3305 106.634 18.7767 105.833 18.7829ZM151.532 18.7993C150.731 18.7911 150.013 19.3466 149.84 20.1621L145.717 39.5684C145.519 40.5005 146.11 41.4103 147.042 41.6083C147.974 41.8065 148.884 41.2152 149.082 40.2832L153.204 20.8769C153.403 19.9449 152.811 19.0351 151.879 18.8371C151.763 18.8126 151.646 18.7993 151.532 18.7993ZM94.8022 21.8932C94.5795 21.8728 94.3496 21.8973 94.123 21.9725C93.2167 22.2671 92.724 23.2331 93.0184 24.1393L95.5972 32.0761C95.8918 32.9824 96.859 33.4751 97.765 33.1807C98.671 32.8861 99.163 31.9194 98.869 31.0131L96.29 23.0763C96.069 22.3966 95.4702 21.95 94.8022 21.8932ZM162.5 21.8973C161.832 21.9541 161.234 22.4009 161.013 23.0805L158.432 31.0166C158.138 31.9228 158.63 32.8896 159.536 33.1841C160.443 33.4788 161.409 32.9864 161.704 32.0804L164.284 24.1435C164.579 23.2373 164.086 22.2706 163.18 21.976C162.954 21.9024 162.723 21.8785 162.5 21.8973ZM83.8939 25.885C83.6704 25.8891 83.4443 25.9381 83.2266 26.0349C82.3563 26.4219 81.9666 27.4342 82.3536 28.3049L90.4114 46.4337C90.7984 47.3044 91.8107 47.6937 92.6814 47.3067C93.5517 46.9197 93.9422 45.9074 93.5551 45.0367L85.4965 26.9079C85.2064 26.2548 84.5642 25.872 83.8939 25.885ZM173.532 25.9459C172.862 25.9336 172.219 26.314 171.928 26.9666L163.845 45.0842C163.457 45.9544 163.845 46.9675 164.715 47.3557C165.586 47.7439 166.599 47.3559 166.987 46.4857L175.069 28.3681C175.457 27.4978 175.069 26.4848 174.199 26.0966C173.982 25.9997 173.755 25.9508 173.532 25.9459ZM73.7687 31.2423C73.4386 31.2178 73.0984 31.2913 72.7889 31.4703C71.9637 31.9467 71.683 32.9945 72.1594 33.8197L76.332 41.0469C76.8084 41.8721 77.8561 42.1528 78.6814 41.6764C79.5066 41.1999 79.7873 40.1522 79.3109 39.3269L75.1383 32.0998C74.8404 31.584 74.3191 31.2808 73.7687 31.2423ZM183.518 31.2423C182.968 31.2791 182.447 31.5839 182.149 32.0997L177.976 39.3268C177.5 40.152 177.781 41.1998 178.606 41.6762C179.432 42.1527 180.479 41.872 180.956 41.0468L185.128 33.8196C185.605 32.9944 185.324 31.9466 184.499 31.4702C184.19 31.2916 183.848 31.2194 183.518 31.2423ZM63.9368 37.3745C63.6059 37.3868 63.2744 37.493 62.9852 37.7026C62.2139 38.2622 62.0434 39.3335 62.6031 40.1048L74.2522 56.1632C74.8117 56.9345 75.8838 57.105 76.6551 56.5457C77.4264 55.9862 77.5969 54.9148 77.0371 54.1435L65.3873 38.0851C65.0375 37.603 64.4882 37.3557 63.9368 37.3745ZM193.473 37.462C192.922 37.4415 192.373 37.6887 192.022 38.1701L180.351 54.213C179.79 54.9835 179.959 56.0553 180.73 56.6159C181.501 57.1764 182.572 57.0077 183.133 56.2375L194.804 40.1946C195.364 39.4241 195.195 38.3523 194.424 37.7918C194.135 37.5817 193.804 37.4738 193.473 37.462ZM55.1486 44.7448C54.7095 44.7203 54.2615 44.867 53.9074 45.1857C53.1992 45.8232 53.1423 46.9064 53.7799 47.6146L59.3636 53.8173C60.0011 54.5256 61.0843 54.5825 61.7925 53.9448C62.5007 53.3073 62.5576 52.2234 61.92 51.5152L56.337 45.3132C56.0183 44.9589 55.5877 44.7679 55.1486 44.7448ZM202.151 44.757C201.712 44.7816 201.281 44.9716 200.963 45.3256L195.379 51.5269C194.741 52.2351 194.798 53.3189 195.506 53.9565C196.214 54.5941 197.297 54.537 197.935 53.829L203.519 47.6278C204.157 46.9196 204.1 45.8357 203.392 45.1982C203.038 44.8795 202.59 44.734 202.151 44.757ZM46.7256 52.8356C46.2865 52.8601 45.8566 53.0501 45.5378 53.4042C44.9003 54.1124 44.9573 55.1956 45.6653 55.8331L60.4099 69.1064C61.1181 69.7439 62.2012 69.6869 62.8387 68.9789C63.4763 68.2707 63.42 67.1875 62.7116 66.55L47.9664 53.2767C47.6121 52.958 47.1647 52.8125 46.7256 52.8356ZM210.615 52.8936C210.176 52.8691 209.727 53.0154 209.373 53.3338L194.62 66.5968C193.911 67.2338 193.853 68.3169 194.49 69.0256C195.127 69.7342 196.211 69.7918 196.919 69.1547L211.673 55.8918C212.382 55.2548 212.44 54.1716 211.803 53.463C211.484 53.1087 211.054 52.917 210.615 52.8936ZM39.7211 61.8423C39.1697 61.8218 38.6199 62.0703 38.2699 62.5519C37.7098 63.3228 37.8797 64.3939 38.6507 64.954L45.4021 69.8592C46.173 70.4194 47.2441 70.2503 47.8042 69.4792C48.3643 68.7083 48.1948 67.6364 47.4241 67.0764L40.6728 62.1712C40.3839 61.9611 40.0519 61.8541 39.7211 61.8423ZM217.613 61.9048C217.282 61.917 216.95 62.0229 216.661 62.2329L209.907 67.1337C209.135 67.6932 208.965 68.7652 209.524 69.5366C210.084 70.3078 211.155 70.4776 211.926 69.9182L218.682 65.0175C219.453 64.4579 219.623 63.3866 219.063 62.6153C218.713 62.1333 218.164 61.8859 217.613 61.9048ZM33.1754 71.4495C32.625 71.4862 32.1044 71.7911 31.8066 72.3068C31.3301 73.132 31.6108 74.1798 32.436 74.6562L49.6169 84.5757C50.4421 85.0522 51.4898 84.7715 51.9663 83.9463C52.4427 83.1211 52.162 82.0733 51.3368 81.5968L34.156 71.6773C33.8467 71.4987 33.5056 71.4266 33.1754 71.4495ZM224.112 71.4495C223.781 71.4249 223.44 71.4985 223.131 71.6775L205.95 81.597C205.125 82.0735 204.844 83.1212 205.321 83.9464C205.797 84.7716 206.845 85.0523 207.67 84.5759L224.852 74.6564C225.677 74.18 225.958 73.1322 225.481 72.307C225.183 71.7912 224.662 71.4879 224.112 71.4495ZM28.2264 81.6896C27.5561 81.6733 26.9134 82.057 26.6222 82.7095C26.234 83.5798 26.622 84.5929 27.4923 84.981L35.1143 88.3808C35.9845 88.769 36.9976 88.3811 37.3858 87.5109C37.774 86.6406 37.3853 85.6275 36.5151 85.2394L28.8937 81.8396C28.6763 81.7424 28.4498 81.6941 28.2264 81.6896ZM229.094 81.7603C228.871 81.7644 228.644 81.8134 228.426 81.9103L220.802 85.3041C219.932 85.6919 219.543 86.7043 219.93 87.5749C220.318 88.4454 221.331 88.8346 222.202 88.4471L229.825 85.0525C230.696 84.6651 231.084 83.6523 230.697 82.7817C230.406 82.1289 229.764 81.747 229.094 81.7603ZM23.8156 92.3925C23.1475 92.4485 22.5486 92.8947 22.3272 93.5743C22.0322 94.4802 22.5234 95.4473 23.4295 95.7425L42.2925 101.889C43.1984 102.184 44.1655 101.692 44.4608 100.787C44.7558 99.8806 44.2646 98.9135 43.3584 98.6183L24.4955 92.4719C24.2692 92.3979 24.0382 92.3737 23.8156 92.3925ZM233.497 92.4661C233.274 92.4456 233.044 92.4701 232.817 92.5453L213.95 98.6783C213.044 98.9729 212.552 99.9397 212.846 100.846C213.141 101.752 214.108 102.244 215.014 101.95L233.88 95.8167C234.787 95.5221 235.28 94.5554 234.985 93.6492C234.764 92.9695 234.165 92.5227 233.497 92.4661ZM21.0675 103.628C20.2662 103.619 19.5476 104.176 19.3743 104.991C19.1761 105.923 19.7674 106.833 20.6993 107.031L28.8626 108.766C29.7946 108.964 30.7043 108.373 30.9024 107.441C31.1006 106.509 30.5093 105.599 29.5774 105.401L21.4149 103.666C21.2984 103.642 21.1819 103.628 21.0675 103.628ZM236.223 103.644C236.109 103.645 235.993 103.66 235.877 103.681L227.713 105.415C226.781 105.613 226.191 106.522 226.388 107.454C226.587 108.386 227.496 108.978 228.428 108.78L236.591 107.046C237.523 106.847 238.115 105.938 237.917 105.006C237.743 104.19 237.024 103.637 236.223 103.644ZM18.9875 114.929C18.1899 115.005 17.5334 115.631 17.4458 116.46C17.3457 117.407 18.0273 118.251 18.9749 118.351L38.7041 120.437C39.6517 120.537 40.4954 119.855 40.5955 118.907C40.6957 117.96 40.0133 117.116 39.0656 117.016L19.3365 114.93C19.218 114.918 19.1016 114.918 18.9875 114.929ZM238.318 115.077C238.204 115.065 238.087 115.065 237.968 115.078L218.237 117.137C217.289 117.236 216.606 118.079 216.705 119.027C216.804 119.974 217.646 120.658 218.594 120.559L238.325 118.5C239.273 118.401 239.956 117.558 239.857 116.61C239.771 115.781 239.116 115.154 238.318 115.077ZM18.6535 126.497C17.7006 126.497 16.9336 127.264 16.9336 128.217C16.9336 129.169 17.7006 129.936 18.6535 129.936H26.9986C27.9515 129.936 28.7193 129.169 28.7193 128.217C28.7193 127.264 27.9515 126.497 26.9986 126.497H18.6535ZM230.288 126.497C229.336 126.497 228.568 127.264 228.568 128.217C228.568 129.169 229.336 129.936 230.288 129.936H238.634C239.586 129.936 240.353 129.169 240.353 128.217C240.353 127.264 239.586 126.497 238.634 126.497H230.288ZM39.0426 135.873C38.9286 135.86 38.8122 135.86 38.6937 135.874L18.9615 137.933C18.0137 138.032 17.3306 138.875 17.4294 139.823C17.5283 140.77 18.3708 141.454 19.3185 141.355L39.0507 139.295C39.9985 139.197 40.6816 138.354 40.5828 137.406C40.4962 136.577 39.8402 135.95 39.0426 135.873ZM218.234 135.995C217.436 136.071 216.78 136.697 216.692 137.526C216.592 138.473 217.274 139.317 218.221 139.417L237.951 141.503C238.898 141.603 239.742 140.921 239.842 139.973C239.942 139.026 239.26 138.182 238.312 138.082L218.584 135.996C218.465 135.984 218.348 135.984 218.234 135.995ZM29.207 147.614C29.0926 147.615 28.9761 147.626 28.8597 147.651L20.6964 149.385C19.7643 149.583 19.1735 150.493 19.3714 151.425C19.5696 152.357 20.4792 152.948 21.4113 152.75L29.5745 151.016C30.5066 150.818 31.0975 149.909 30.8995 148.976C30.7263 148.161 30.0082 147.607 29.207 147.614ZM228.078 147.63C227.277 147.622 226.559 148.178 226.385 148.993C226.187 149.925 226.778 150.835 227.71 151.033L235.873 152.768C236.805 152.966 237.715 152.376 237.913 151.444C238.111 150.511 237.52 149.601 236.588 149.403L228.425 147.668C228.309 147.644 228.192 147.63 228.078 147.63ZM42.9531 154.405C42.7304 154.384 42.5005 154.409 42.2739 154.484L23.4066 160.617C22.5003 160.911 22.0082 161.878 22.3027 162.784C22.5974 163.691 23.5641 164.183 24.4703 163.888L43.3369 157.755C44.2431 157.461 44.7361 156.494 44.4415 155.588C44.2204 154.908 43.6211 154.461 42.9531 154.405ZM214.315 154.466C213.647 154.521 213.048 154.968 212.827 155.647C212.532 156.553 213.023 157.52 213.929 157.816L232.792 163.962C233.698 164.257 234.665 163.765 234.961 162.86C235.256 161.954 234.764 160.987 233.858 160.691L214.995 154.545C214.769 154.471 214.538 154.447 214.315 154.466ZM35.7534 167.838C35.5299 167.842 35.3037 167.89 35.0861 167.987L27.4618 171.381C26.5913 171.769 26.2028 172.781 26.5903 173.652C26.9781 174.523 27.9906 174.911 28.861 174.523L36.4854 171.13C37.3559 170.742 37.7444 169.729 37.3568 168.859C37.0663 168.206 36.4237 167.824 35.7534 167.838ZM221.506 167.903C220.836 167.887 220.193 168.27 219.902 168.923C219.514 169.793 219.902 170.806 220.772 171.194L228.393 174.594C229.264 174.982 230.277 174.594 230.665 173.724C231.053 172.854 230.665 171.841 229.795 171.453L222.173 168.053C221.956 167.956 221.73 167.907 221.506 167.903ZM50.5975 171.63C50.2673 171.606 49.9264 171.679 49.6169 171.858L32.436 181.778C31.6108 182.254 31.3301 183.302 31.8066 184.127C32.283 184.952 33.3308 185.233 34.156 184.756L51.3368 174.838C52.162 174.361 52.4427 173.313 51.9663 172.488C51.6684 171.972 51.1478 171.669 50.5975 171.63ZM206.69 171.63C206.14 171.667 205.619 171.972 205.321 172.487C204.844 173.313 205.125 174.361 205.95 174.838L223.131 184.756C223.956 185.233 225.005 184.952 225.481 184.127C225.958 183.302 225.677 182.254 224.852 181.777L207.67 171.858C207.361 171.679 207.02 171.607 206.69 171.63ZM46.3121 186.187C45.9811 186.199 45.6497 186.306 45.3604 186.516L38.6061 191.416C37.8349 191.976 37.6643 193.047 38.2237 193.819C38.7833 194.59 39.8546 194.76 40.6258 194.201L47.3808 189.3C48.1522 188.74 48.3227 187.669 47.7633 186.898C47.4135 186.416 46.8635 186.168 46.3121 186.187ZM210.934 186.245C210.383 186.224 209.833 186.473 209.483 186.954C208.923 187.725 209.093 188.797 209.864 189.357L216.615 194.263C217.386 194.823 218.457 194.653 219.017 193.882C219.577 193.111 219.408 192.04 218.637 191.48L211.886 186.574C211.597 186.364 211.265 186.257 210.934 186.245ZM61.6096 186.839C61.1707 186.814 60.7229 186.96 60.3685 187.279L45.6143 200.542C44.9057 201.179 44.8481 202.262 45.4852 202.971C46.1222 203.679 47.2054 203.737 47.914 203.1L62.6683 189.837C63.3769 189.2 63.4345 188.117 62.7974 187.408C62.4791 187.054 62.0487 186.862 61.6096 186.839ZM195.637 186.886C195.197 186.911 194.767 187.101 194.448 187.455C193.811 188.163 193.868 189.246 194.576 189.884L209.32 203.157C210.028 203.794 211.112 203.737 211.75 203.029C212.387 202.321 212.33 201.238 211.622 200.6L196.877 187.327C196.523 187.008 196.076 186.863 195.637 186.886ZM75.6067 199.486C75.0554 199.466 74.5051 199.712 74.1548 200.194L62.4841 216.237C61.9236 217.008 62.0923 218.079 62.8625 218.64C63.633 219.201 64.7048 219.032 65.2654 218.261L76.936 202.218C77.4966 201.448 77.3279 200.376 76.5576 199.815C76.2687 199.605 75.9376 199.498 75.6067 199.486ZM181.585 199.558C181.254 199.57 180.922 199.676 180.633 199.886C179.862 200.446 179.691 201.517 180.25 202.288L191.899 218.347C192.459 219.118 193.53 219.289 194.302 218.729C195.073 218.17 195.243 217.098 194.684 216.327L183.035 200.269C182.685 199.787 182.136 199.539 181.585 199.558ZM60.5407 202.036C60.1017 202.06 59.6711 202.25 59.3523 202.604L53.7686 208.806C53.131 209.514 53.1874 210.598 53.8957 211.235C54.6038 211.873 55.687 211.816 56.3245 211.107L61.9089 204.906C62.5466 204.198 62.4894 203.114 61.7814 202.477C61.4272 202.158 60.9798 202.013 60.5407 202.036ZM196.736 202.044C196.297 202.02 195.85 202.166 195.495 202.485C194.787 203.122 194.73 204.206 195.368 204.914L200.951 211.117C201.588 211.825 202.671 211.882 203.379 211.244C204.088 210.607 204.145 209.523 203.507 208.814L197.924 202.612C197.605 202.258 197.175 202.067 196.736 202.044ZM91.9042 208.924C91.234 208.907 90.592 209.291 90.3009 209.944L82.2178 228.061C81.8296 228.932 82.2176 229.945 83.0878 230.333C83.958 230.721 84.9711 230.333 85.3592 229.463L93.4423 211.345C93.8305 210.475 93.4425 209.462 92.5723 209.074C92.3549 208.976 92.1276 208.928 91.9042 208.924ZM165.274 208.974C165.05 208.978 164.823 209.026 164.606 209.123C163.735 209.51 163.346 210.522 163.733 211.393L171.79 229.522C172.177 230.392 173.19 230.782 174.061 230.395C174.931 230.008 175.321 228.995 174.934 228.125L166.876 209.996C166.586 209.343 165.944 208.961 165.274 208.974ZM77.7008 214.525C77.1505 214.562 76.6297 214.867 76.332 215.383L72.1594 222.61C71.683 223.435 71.9637 224.483 72.7889 224.959C73.6141 225.436 74.6619 225.155 75.1383 224.33L79.3109 217.103C79.7873 216.277 79.5066 215.23 78.6814 214.753C78.3721 214.575 78.031 214.503 77.7008 214.525ZM179.586 214.525C179.256 214.501 178.916 214.575 178.606 214.753C177.781 215.23 177.5 216.278 177.977 217.103L182.149 224.33C182.626 225.155 183.674 225.436 184.499 224.959C185.324 224.483 185.605 223.435 185.128 222.61L180.956 215.383C180.658 214.867 180.137 214.564 179.586 214.525ZM109.899 214.784C109.097 214.776 108.379 215.332 108.206 216.147L104.083 235.554C103.885 236.486 104.476 237.396 105.408 237.593C106.34 237.792 107.25 237.2 107.448 236.268L111.571 216.862C111.769 215.93 111.178 215.02 110.246 214.822C110.13 214.798 110.013 214.784 109.899 214.784ZM147.328 214.797C147.213 214.798 147.097 214.809 146.981 214.833C146.049 215.031 145.457 215.94 145.654 216.872L149.763 236.281C149.961 237.213 150.87 237.805 151.802 237.608C152.735 237.41 153.326 236.501 153.129 235.569L149.019 216.161C148.847 215.345 148.129 214.79 147.328 214.797ZM128.644 216.754C127.691 216.754 126.924 217.521 126.924 218.474V238.313C126.924 239.266 127.691 240.033 128.644 240.033C129.596 240.033 130.363 239.266 130.363 238.313V218.474C130.363 217.521 129.596 216.754 128.644 216.754ZM97.071 223.165C96.403 223.222 95.804 223.668 95.5831 224.348L93.0036 232.285C92.709 233.191 93.2013 234.158 94.1074 234.452C95.0136 234.747 95.9803 234.254 96.275 233.348L98.854 225.412C99.149 224.506 98.657 223.539 97.751 223.244C97.524 223.171 97.294 223.146 97.071 223.165ZM160.202 223.169C159.98 223.148 159.75 223.173 159.523 223.248C158.617 223.542 158.124 224.509 158.418 225.415L160.997 233.352C161.292 234.258 162.259 234.75 163.165 234.456C164.071 234.161 164.564 233.195 164.269 232.289L161.69 224.352C161.469 223.673 160.87 223.226 160.202 223.169ZM117.847 227.589C117.05 227.666 116.393 228.292 116.306 229.122L115.433 237.421C115.334 238.369 116.016 239.212 116.964 239.311C117.912 239.411 118.755 238.728 118.855 237.781L119.727 229.481C119.827 228.534 119.144 227.691 118.196 227.591C118.078 227.579 117.961 227.579 117.847 227.589ZM139.371 227.598C139.257 227.585 139.139 227.585 139.021 227.599C138.073 227.698 137.39 228.54 137.489 229.488L138.356 237.789C138.455 238.736 139.297 239.419 140.245 239.32C141.193 239.221 141.876 238.379 141.777 237.431L140.911 229.131C140.824 228.302 140.168 227.675 139.371 227.598Z" fill="#F4F2F3"/>
<path opacity="0.409" d="M209.254 59.4156L115.153 114.089L55.6553 207.755L142.695 143.285L209.254 59.4156Z" fill="black"/>
<path d="M142.129 142.337L115.156 114.09L210.838 49.725L142.129 142.337Z" fill="#FF5150"/>
<path d="M142.13 142.337L115.158 114.09L46.4482 206.702L142.13 142.337Z" fill="#F1F1F1"/>
<path opacity="0.243" d="M46.4482 206.702L142.13 142.337L210.84 49.725L46.4482 206.702Z" fill="black"/>
<defs>
<filter id="filter0_d_121_82" x="1.34375" y="18.74" width="254.611" height="245.472" filterUnits="userSpaceOnUse" color-interpolation-filters="sRGB">
<feFlood flood-opacity="0" result="BackgroundImageFix"/>
<feColorMatrix in="SourceAlpha" type="matrix" values="0 0 0 0 0 0 0 0 0 0 0 0 0 0 0 0 0 0 127 0" result="hardAlpha"/>
<feOffset dy="4"/>
<feGaussianBlur stdDeviation="2"/>
<feComposite in2="hardAlpha" operator="out"/>
<feColorMatrix type="matrix" values="0 0 0 0 0 0 0 0 0 0 0 0 0 0 0 0 0 0 0.25 0"/>
<feBlend mode="normal" in2="BackgroundImageFix" result="effect1_dropShadow_121_82"/>
<feBlend mode="normal" in="SourceGraphic" in2="effect1_dropShadow_121_82" result="shape"/>
</filter>
<linearGradient id="paint0_linear_121_82" x1="128.639" y1="256.211" x2="128.639" y2="0.212891" gradientUnits="userSpaceOnUse">
<stop stop-color="#BDBDBD"/>
<stop offset="1" stop-color="white"/>
</linearGradient>
<radialGradient id="paint1_radial_121_82" cx="0" cy="0" r="1" gradientUnits="userSpaceOnUse" gradientTransform="translate(129.176 111.012) scale(128)">
<stop stop-color="#06C2E7"/>
<stop offset="0.25" stop-color="#0DB8EC"/>
<stop offset="0.5" stop-color="#12AEF1"/>
<stop offset="0.75" stop-color="#1F86F9"/>
<stop offset="1" stop-color="#107DDD"/>
</radialGradient>
</defs>
</svg>
