<svg width="163" height="256" viewBox="0 0 163 256" fill="none" xmlns="http://www.w3.org/2000/svg">
<path fill-rule="evenodd" clip-rule="evenodd" d="M-0.00164795 0L156.218 90.1944C160.394 92.605 162.966 97.0637 162.966 101.885C162.966 110.267 162.966 123.513 162.966 131.895C162.966 134.306 162.323 136.626 161.158 138.645C161.158 138.645 37.1412 67.0452 6.68927 49.4624C2.54781 47.0716 -0.00164795 42.6525 -0.00164795 37.8709C-0.00164795 24.8658 -0.00164795 0 -0.00164795 0Z" fill="#706BC8"/>
<path fill-rule="evenodd" clip-rule="evenodd" d="M156.275 206.54C160.416 208.931 162.966 213.348 162.966 218.129C162.966 231.137 162.966 256 162.966 256L6.74878 165.809C2.5705 163.395 -0.00164795 158.939 -0.00164795 154.118C-0.00164795 145.736 -0.00164795 132.487 -0.00164795 124.108C-0.00164795 121.694 0.641385 119.374 1.80564 117.357C1.80564 117.357 125.823 188.958 156.275 206.54Z" fill="#55C5E4"/>
<path fill-rule="evenodd" clip-rule="evenodd" d="M15.0294 153.233C13.5584 154.08 12.2845 155.312 11.3757 156.887C8.64299 161.618 10.2324 167.737 14.9152 170.521H14.9135L6.74817 165.808C2.57102 163.397 -0.00195312 158.941 -0.00195312 154.117C-0.00195312 145.735 -0.00195312 132.489 -0.00195312 124.107C-0.00195312 119.283 2.57102 114.827 6.74817 112.416L147.937 30.9098L148.005 30.8701C149.446 30.0251 150.696 28.8062 151.588 27.2567C154.322 22.5237 152.732 16.4073 148.05 13.6207H148.053L156.217 18.335C160.395 20.7465 162.967 25.2032 162.967 30.0265C162.967 38.408 162.967 51.6539 162.967 60.036C162.967 64.8601 160.395 69.316 156.217 71.7267L147.823 76.5735L147.937 76.4999L15.0294 153.233Z" fill="#84DDEA"/>
<path fill-rule="evenodd" clip-rule="evenodd" d="M15.0294 225.094C13.5584 225.941 12.2845 227.173 11.3757 228.745C8.64299 233.479 10.2324 239.595 14.9152 242.382H14.9135L6.74817 237.668C2.57102 235.258 -0.00195312 230.799 -0.00195312 225.978C-0.00195312 217.596 -0.00195312 204.35 -0.00195312 195.968C-0.00195312 191.144 2.57102 186.688 6.74817 184.277L147.937 102.771L148.005 102.731C149.446 101.884 150.696 100.666 151.588 99.1164C154.322 94.3829 152.732 88.267 148.05 85.4796H148.053L156.217 90.1961C160.395 92.6068 162.967 97.0627 162.967 101.887C162.967 110.269 162.967 123.515 162.967 131.897C162.967 136.718 160.395 141.177 156.217 143.588L147.823 148.432L147.937 148.361L15.0294 225.094Z" fill="#997BC8"/>
</svg>
