<svg width="256" height="256" viewBox="0 0 256 256" fill="none" xmlns="http://www.w3.org/2000/svg">
<path d="M129.079 13.3456L14.1821 128.24L128.6 242.655L243.497 127.761L129.079 13.3456Z" fill="#019833" stroke="black" stroke-width="0.668319"/>
<path d="M128.6 13.8243V3.77112L3.64987 128.718H14.1821L128.6 13.8243Z" fill="#66FE98" stroke="black" stroke-width="0.668319"/>
<path d="M128.313 13.8243V3.77112L253.263 128.718H242.731L128.313 13.8243Z" fill="#45FE02" stroke="black" stroke-width="0.668319"/>
<path d="M128.6 243.325V253.378L3.64987 128.431H14.1821L128.6 243.325Z" fill="#017D17" stroke="black" stroke-width="0.668319"/>
<path d="M26.8302 16.4604H107.398L112.306 21.3688V36.4324L108.413 41.1716H99.6116V115.982L175.44 41.1716H162.915L158.514 36.4324V20.5225L162.576 16.7989H244.159L248.221 20.861V35.7554L63.7287 224.982H42.7406L36.6655 221.475V40.4946H26.4917L22.768 36.771V20.861L26.8302 16.4604Z" stroke="black" stroke-width="13.3857"/>
<path d="M128.313 243.325V253.378L253.263 128.431H242.731L128.313 243.325Z" fill="#005D04" stroke="black" stroke-width="0.668319"/>
<path d="M128.263 2.84436L2.84277 128.261L127.74 253.156L253.161 127.739L128.263 2.84436Z" stroke="black" stroke-width="4.01476"/>
<path d="M108.254 24.1169L112.802 21.7233L108.134 17.0557H26.8686L22.7395 21.1847V36.8031L27.3174 41.3809L29.5017 36.8031L26.6292 33.9308V22.9201L28.7836 21.0052H106.339L108.254 24.1169Z" fill="#FEFEFE" stroke="black" stroke-width="0.668319"/>
<path d="M165.708 20.5231L162.839 23.3925V33.9274L165.352 36.4407H178.631V46.6196L90.7889 135.653V36.5664H105.387L108.383 33.5714V22.9108L105.618 20.7745H28.7925L26.2792 23.2878V34.1788L28.8344 36.734H42.1972V219.2L44.7105 221.713H59.8955L243.979 31.7702V23.3925L241.109 20.5231H165.708Z" stroke="black" stroke-width="0.668319"/>
<path d="M42.0636 36.4324V219.228L44.4332 221.936L42.5749 225.477L37.3243 220.243V41.1716L42.0636 36.4324Z" fill="#FEFEFE" stroke="black" stroke-width="0.668319"/>
<path d="M28.9345 36.4324L27.5805 40.8331H37.3975L42.8138 36.4324H28.9345Z" fill="#808080" stroke="black" stroke-width="0.668319"/>
<path d="M163.787 41.375L165.942 36.9468L162.83 34.0744V24.2606L166.42 20.6701H241.343L244.215 24.4999L248.284 21.6276L244.095 17.4387H163.548L159.539 21.448V37.1861L163.698 41.1057M98.6043 116.675L90.78 135.66L179.107 47.0957V36.5638L98.6043 116.675Z" fill="#FEFEFE"/>
<path d="M163.787 41.375L165.942 36.9468L162.83 34.0744V24.2606L166.42 20.6701H241.343L244.215 24.4999L248.284 21.6276L244.095 17.4387H163.548L159.539 21.448V37.1861L163.698 41.1057M98.6043 116.675L90.78 135.66L179.107 47.0957V36.5638L98.6043 116.675Z" stroke="black" stroke-width="0.668319"/>
<path d="M108.075 23.569L111.968 21.0302V36.4324L107.482 40.9176H98.7653V116.828L90.8102 135.616V36.4324H105.366L108.075 34.2321V23.569Z" fill="#808080" stroke="black" stroke-width="0.668319"/>
<path d="M165.708 20.5231L162.839 23.3925V33.9274L165.352 36.4407H178.631V46.6196L90.7889 135.653V36.5664H105.387L108.383 33.5714V22.9108L105.618 20.7745H28.7925L26.2792 23.2878V34.1788L28.8344 36.734H42.1972V219.2L44.7105 221.713H59.8955L243.979 31.7702V23.3925L241.109 20.5231H165.708Z" fill="#CCCCCC" stroke="black" stroke-width="0.668319"/>
<path d="M244.215 23.6382L248.304 21.2778V36.085L62.8672 225.568H43.1797L45.0606 221.83H60.1408L243.976 32.0159L244.215 23.6382Z" fill="#808080" stroke="black" stroke-width="0.668319"/>
<path d="M178.74 36.6863L174.593 41.0023H163.761L166.3 36.6863C166.384 36.6863 178.74 36.6863 178.74 36.6863Z" fill="#808080" stroke="black" stroke-width="0.668319"/>
<path d="M134.521 143.517C134.382 143.546 134.252 143.611 134.144 143.705L130.584 146.763C130.477 146.86 130.398 146.983 130.353 147.119L126.793 157.089C126.74 157.235 126.73 157.393 126.763 157.545C126.797 157.697 126.872 157.837 126.981 157.947L129.704 160.67C129.861 160.821 130.072 160.904 130.291 160.901H141.287C141.505 160.904 141.716 160.821 141.873 160.67L144.742 157.78C144.841 157.681 144.913 157.558 144.952 157.424L148.01 146.931C148.051 146.788 148.054 146.637 148.017 146.494C147.98 146.35 147.905 146.219 147.8 146.114L145.434 143.747C145.276 143.596 145.065 143.513 144.847 143.517H134.689C134.633 143.511 134.577 143.511 134.521 143.517ZM114.373 171.624C114.222 171.656 114.083 171.731 113.972 171.838C113.86 171.945 113.782 172.082 113.744 172.231L112.383 177.635C112.353 177.756 112.35 177.883 112.376 178.005C112.402 178.128 112.455 178.243 112.532 178.341C112.608 178.44 112.706 178.52 112.818 178.576C112.93 178.631 113.054 178.66 113.179 178.661H119.651L103.607 224.466C103.566 224.59 103.554 224.722 103.573 224.85C103.592 224.979 103.642 225.102 103.717 225.208C103.793 225.314 103.892 225.401 104.008 225.461C104.123 225.522 104.252 225.554 104.382 225.555H127.735C127.911 225.558 128.083 225.504 128.226 225.403C128.369 225.301 128.476 225.156 128.531 224.99L130.06 220.068C130.098 219.944 130.106 219.813 130.084 219.685C130.062 219.557 130.01 219.436 129.933 219.332C129.855 219.228 129.754 219.144 129.638 219.086C129.522 219.029 129.394 218.999 129.264 219H123.986L139.862 172.713C139.904 172.59 139.915 172.458 139.896 172.329C139.877 172.2 139.828 172.077 139.752 171.971C139.677 171.865 139.577 171.778 139.461 171.718C139.346 171.658 139.218 171.625 139.087 171.624H114.54C114.484 171.618 114.428 171.618 114.373 171.624ZM188.684 171.792C188.505 171.829 188.343 171.924 188.224 172.064L183.365 177.551H175.636L170.483 172.21C170.407 172.132 170.316 172.069 170.216 172.026C170.115 171.983 170.007 171.96 169.897 171.959H151.445C151.275 171.96 151.11 172.012 150.971 172.109C150.833 172.207 150.728 172.344 150.67 172.504L148.973 177.572C148.932 177.696 148.92 177.827 148.939 177.956C148.958 178.085 149.008 178.208 149.083 178.314C149.159 178.42 149.259 178.507 149.374 178.567C149.49 178.628 149.618 178.66 149.748 178.661H154.691L139.318 223.964C139.276 224.087 139.265 224.219 139.284 224.348C139.303 224.477 139.352 224.599 139.428 224.705C139.503 224.812 139.603 224.898 139.719 224.959C139.834 225.019 139.962 225.051 140.093 225.053H159.739C159.908 225.052 160.073 225 160.212 224.902C160.351 224.805 160.456 224.667 160.514 224.508L162.022 220.089C162.063 219.965 162.075 219.834 162.056 219.705C162.037 219.576 161.987 219.453 161.912 219.347C161.836 219.241 161.736 219.154 161.621 219.094C161.505 219.033 161.377 219.001 161.247 219H157.812L167.614 188.149H185.354L174.17 223.985C174.132 224.109 174.124 224.24 174.146 224.368C174.168 224.495 174.22 224.616 174.297 224.72C174.375 224.824 174.476 224.908 174.592 224.966C174.708 225.024 174.836 225.054 174.966 225.053H193.921C194.082 225.051 194.239 225.003 194.373 224.914C194.507 224.825 194.612 224.698 194.675 224.55L196.371 220.487C196.42 220.363 196.439 220.228 196.425 220.095C196.411 219.962 196.365 219.835 196.291 219.724C196.217 219.613 196.116 219.521 195.999 219.457C195.882 219.393 195.751 219.358 195.617 219.356H192.182L202.152 187.981H219.033L207.681 223.985C207.643 224.109 207.635 224.24 207.657 224.368C207.679 224.495 207.731 224.616 207.809 224.72C207.886 224.824 207.987 224.908 208.103 224.966C208.219 225.024 208.348 225.054 208.477 225.053H229.296C229.463 225.054 229.627 225.005 229.765 224.911C229.903 224.818 230.01 224.684 230.071 224.529L231.768 220.11C231.813 219.985 231.828 219.851 231.811 219.719C231.794 219.588 231.745 219.462 231.669 219.353C231.593 219.244 231.492 219.155 231.374 219.094C231.257 219.032 231.126 219 230.993 219H226.867L239.413 178.263C239.454 178.137 239.464 178.002 239.442 177.871C239.42 177.74 239.367 177.616 239.287 177.509L235.391 172.273C235.312 172.172 235.21 172.092 235.093 172.037C234.977 171.982 234.849 171.956 234.721 171.959H219.829C219.716 171.957 219.604 171.979 219.5 172.022C219.395 172.065 219.301 172.129 219.222 172.21L214.53 177.363H206.32L201.461 172.043C201.382 171.962 201.288 171.897 201.183 171.854C201.079 171.811 200.966 171.79 200.853 171.792H188.852C188.796 171.786 188.74 171.786 188.684 171.792Z" fill="#CCCCCC" stroke="black" stroke-width="5.35624" stroke-miterlimit="10"/>
<path d="M134.689 144.334L131.128 147.392L127.568 157.361L130.291 160.084H141.287L144.156 157.193L147.214 146.7L144.847 144.334H134.689ZM114.54 172.441L113.179 177.844H120.803L104.382 224.739H127.735L129.264 219.817H122.834L139.087 172.441H114.54ZM188.852 172.608L183.762 178.368H175.301L169.897 172.776H151.445L149.748 177.844H155.843L140.093 224.236H159.739L161.247 219.817H156.681L167.007 187.332H186.485L174.966 224.236H193.921L195.617 220.173H191.051L201.545 187.165H220.164L208.477 224.236H229.296L230.993 219.817H225.736L238.617 178.012L234.721 172.776H219.829L214.907 178.18H205.943L200.853 172.608H188.852Z" fill="#CCCCCC" stroke="black" stroke-width="0.668319" stroke-miterlimit="10"/>
</svg>
