<svg width="256" height="230" viewBox="0 0 256 230" fill="none" xmlns="http://www.w3.org/2000/svg">
<path d="M240.789 47.2981H15.2107L0 84.994H256L240.789 47.2981Z" fill="#F44336"/>
<path d="M204.587 35.1814H51.4136C48.5549 35.1814 45.6962 35.6934 43.0296 36.7174L15.1896 47.2987H240.79L212.95 36.7174C210.283 35.6934 207.446 35.1814 204.587 35.1814Z" fill="#FF7555"/>
<path d="M247.403 229.314H8.59733C3.84 229.314 0 225.474 0 220.717V84.9939H256V220.717C256 225.474 252.16 229.314 247.403 229.314Z" fill="#C62828"/>
<path d="M0 127.958H256" stroke="#A80707" stroke-width="4.52267" stroke-miterlimit="10"/>
<path d="M79.0397 117.675H43.7969C41.7916 117.675 40.1489 119.083 40.1489 120.811V141.526C40.1489 143.254 41.7703 144.662 43.7969 144.662H49.0236V155.456C49.0236 160.064 53.3543 163.798 58.7089 163.798H64.1489C69.4823 163.798 73.8343 160.064 73.8343 155.456V144.662H79.061C81.0663 144.662 82.709 143.254 82.709 141.526V120.811C82.6663 119.083 81.045 117.675 79.0397 117.675Z" fill="#A80707"/>
<path d="M76.5437 140.375H46.2717C44.9917 140.375 43.9677 139.351 43.9677 138.071V116.183C43.9677 114.903 44.9917 113.879 46.2717 113.879H76.5223C77.8023 113.879 78.8263 114.903 78.8263 116.183V138.071C78.8477 139.351 77.8023 140.375 76.5437 140.375Z" fill="#558EA0"/>
<path d="M51.2427 127.808H71.5733" stroke="#332424" stroke-width="6.05867" stroke-miterlimit="10"/>
<path d="M71.5728 124.803H51.2422V113.475C51.2422 111.851 51.8873 110.294 53.0354 109.145C54.1837 107.997 55.741 107.352 57.3648 107.352H65.4715C67.0953 107.352 68.6526 107.997 69.8009 109.145C70.9491 110.294 71.5942 111.851 71.5942 113.475V124.803H71.5728ZM51.2422 130.478H71.5728V153.048C71.5728 153.852 71.4144 154.648 71.1068 155.392C70.7991 156.134 70.3481 156.809 69.7795 157.377C69.2111 157.946 68.5361 158.397 67.7932 158.705C67.0504 159.012 66.2543 159.171 65.4502 159.171H57.3435C56.5395 159.171 55.7433 159.012 55.0005 158.705C54.2577 158.397 53.5827 157.946 53.0141 157.377C52.4456 156.809 51.9946 156.134 51.6869 155.392C51.3792 154.648 51.2208 153.852 51.2208 153.048V130.478H51.2422Z" fill="#82AEC0"/>
<path d="M67.9036 148.204C68.8209 148.204 69.9089 148.972 70.1649 150.338C70.2929 151.106 69.8663 152.684 69.2689 153.196C68.1809 154.114 66.7303 154.711 65.2156 155.074C62.8689 155.65 60.3089 155.756 57.9836 155.138C55.6583 154.54 53.2263 153.367 52.5223 151.426C51.4556 148.46 55.4449 148.247 67.9036 148.204Z" fill="#A1D5E5"/>
<path d="M212.203 117.675H176.96C174.955 117.675 173.312 119.083 173.312 120.811V141.526C173.312 143.254 174.934 144.662 176.96 144.662H182.187V155.456C182.187 160.064 186.518 163.798 191.873 163.798H197.312C202.646 163.798 206.998 160.064 206.998 155.456V144.662H212.225C214.23 144.662 215.873 143.254 215.873 141.526V120.811C215.851 119.083 214.23 117.675 212.203 117.675Z" fill="#A80707"/>
<path d="M209.728 140.375H179.456C178.176 140.375 177.152 139.351 177.152 138.071V116.183C177.152 114.903 178.176 113.879 179.456 113.879H209.707C210.987 113.879 212.011 114.903 212.011 116.183V138.071C212.011 139.351 210.987 140.375 209.728 140.375Z" fill="#558EA0"/>
<path d="M184.427 127.808H204.758" stroke="#332424" stroke-width="6.05867" stroke-miterlimit="10"/>
<path d="M204.757 124.803H184.427V113.475C184.427 111.851 185.072 110.294 186.219 109.145C187.368 107.997 188.925 107.352 190.549 107.352H198.656C200.28 107.352 201.837 107.997 202.985 109.145C204.133 110.294 204.779 111.851 204.779 113.475V124.803H204.757ZM184.427 130.478H204.757V153.048C204.757 153.852 204.599 154.648 204.291 155.392C203.983 156.134 203.533 156.809 202.964 157.377C202.395 157.946 201.72 158.397 200.978 158.705C200.235 159.012 199.438 159.171 198.635 159.171H190.528C189.724 159.171 188.928 159.012 188.185 158.705C187.442 158.397 186.767 157.946 186.198 157.377C185.63 156.809 185.179 156.134 184.871 155.392C184.563 154.648 184.405 153.852 184.405 153.048V130.478H184.427Z" fill="#82AEC0"/>
<path d="M201.706 148.205C202.346 148.227 203.52 148.419 203.946 149.677C204.373 150.936 203.52 152.259 202.432 153.176C201.344 154.093 199.893 154.691 198.378 155.053C196.032 155.629 193.472 155.736 191.146 155.117C188.821 154.52 186.73 153.197 185.685 151.405C184.021 148.568 189.589 147.693 201.706 148.205Z" fill="#A1D5E5"/>
<path d="M184.597 36.1201C183.595 34.7761 180.309 33.4108 179.349 32.8561C172.928 29.0374 173.589 18.5201 169.28 11.6934C165.44 5.5921 158.592 0.600098 151.381 0.600098H111.125C103.915 0.600098 97.0666 5.61343 93.2266 11.6934C88.9173 18.5201 89.5786 29.0374 83.1573 32.8561C82.2186 33.4108 78.912 34.7974 77.9093 36.1201C76.672 37.7841 77.9093 39.5334 77.9093 39.5334H89.5573C95.2533 39.5334 98.4533 29.9548 98.944 28.6534C100.885 23.3201 104.427 15.4481 111.125 15.4481H151.381C158.08 15.4481 161.621 23.3414 163.563 28.6534C164.032 29.9548 167.232 39.5334 172.949 39.5334H184.597C184.597 39.5334 185.835 37.7841 184.597 36.1201Z" fill="#424242"/>
<path d="M100.736 6.97834C103.787 4.43967 107.734 2.92501 111.702 2.96767C112.79 2.98901 113.92 3.11701 114.838 3.71434C115.755 4.31167 116.395 5.44234 116.118 6.50901C115.819 7.63967 114.646 8.30101 113.558 8.72767C109.611 10.2637 105.046 10.605 101.91 13.421C99.755 15.3623 98.6243 18.157 97.0883 20.6103C96.3416 21.805 95.339 23.021 93.931 23.1703C93.4403 23.213 92.907 23.1063 92.587 22.7437C92.0323 22.1037 92.3736 21.1223 92.7363 20.3757C93.9096 17.9437 94.5923 15.3837 95.851 13.0157C97.1736 10.5837 98.9016 8.91967 100.736 6.97834Z" fill="#616161"/>
<path d="M62.2934 113.773C59.5627 113.879 56.9174 115.309 55.5521 117.442C55.2321 117.933 54.784 118.53 54.1867 118.402C53.7173 118.295 53.5254 117.805 53.4187 117.378C52.9707 115.586 52.8214 113.517 53.8667 111.874C54.9547 110.146 57.0667 109.143 59.1147 108.887C63.2533 108.397 66.3253 108.205 67.0293 110.786C67.8613 113.837 64.4694 113.687 62.2934 113.773ZM195.371 113.773C192.64 113.879 189.995 115.309 188.629 117.442C188.309 117.933 187.861 118.53 187.264 118.402C186.795 118.295 186.603 117.805 186.496 117.378C186.048 115.586 185.899 113.517 186.944 111.874C188.032 110.146 190.144 109.143 192.192 108.887C196.331 108.397 199.403 108.205 200.107 110.786C200.96 113.837 197.547 113.687 195.371 113.773Z" fill="#A1D5E5"/>
</svg>
