<svg width="257" height="196" viewBox="0 0 257 196" fill="none" xmlns="http://www.w3.org/2000/svg">
<path d="M125.149 9.73365C136.778 9.56603 148.301 11.8708 158.861 16.0193C177.09 23.185 218.366 26.9774 226.558 41.8325C236.259 59.4323 220.943 102.824 221.802 109.948C222.619 116.842 222.808 125.6 221.949 132.325C220.44 144.059 215.81 155.457 207.806 165.723C199.718 176.074 187.105 184.957 169.589 190.112C132.65 200.944 83.517 194.03 64.241 178.064C57.0125 172.093 51.6487 165.786 47.8144 159.039C41.403 147.809 39.1821 135.384 39.5592 121.283C40.1669 98.7178 15.6737 65.1942 32.5402 46.2324C49.4068 27.2707 91.6255 17.2346 91.6255 17.2346C91.6255 17.2346 104.972 10.0479 125.149 9.73365Z" fill="#B0B0B0"/>
<path d="M189.64 34.6251C190.143 36.7413 195.464 43.6556 202.085 56.4995C208.434 68.7984 213.525 81.5793 214.531 81.7889C216.92 82.2708 241.622 74.5603 241.811 73.7641C242.02 72.9679 233.388 31.629 233.388 31.629L194.27 20.7966L189.64 34.6251ZM53.911 57.9033C60.5319 42.3356 65.8538 37.9356 66.4614 35.3375C67.069 32.7394 43.393 28.0042 43.393 28.0042L17.496 43.446L23.9074 74.3508C23.9074 74.3508 41.7587 89.1012 42.9739 88.8917C44.1892 88.7031 47.2901 73.4498 53.911 57.9033Z" fill="#FEBDBE"/>
<path d="M92.7357 17.1723C93.5319 9.73425 63.8427 2.12858 54.8122 7.34569C48.2123 11.159 55.2103 14.5742 52.4027 16.9837C50.538 18.5761 33.5457 10.5723 20.9115 20.1894C11.2944 27.5018 16.7001 28.2141 16.0924 30.6237C15.4848 33.0332 9.47153 36.8465 5.65821 42.6712C1.84492 48.4959 -0.166493 56.814 1.04874 58.113C2.53635 59.7264 6.8944 56.4997 7.46011 59.7264C8.06772 63.1416 0.69255 74.351 4.04489 84.5967C7.25058 94.4233 10.0582 87.0062 12.2791 90.0233C14.4791 93.0405 12.4887 97.4404 17.7058 106.869C21.1838 113.155 25.2486 115.124 26.7362 115.501C29.1457 116.109 28.7476 113.092 31.7438 112.903C34.7609 112.694 39.559 121.326 39.559 121.326C39.559 121.326 39.3495 114.098 40.6695 102.867C41.9894 91.5529 44.378 88.0119 44.1894 86.21C43.9799 84.4081 24.5362 72.5701 31.3457 52.3093C38.1552 32.0484 56.8236 35.6522 59.2332 36.2598C61.6427 36.8674 65.456 38.2712 71.0712 36.8674C76.6864 35.4217 91.9396 24.5894 92.7357 17.1723Z" fill="url(#paint0_linear_23_364)"/>
<path d="M157.94 16.1662C157.625 18.7015 165.399 24.6938 170.574 28.0043C177.802 32.6138 185.618 35.4214 188.635 35.4214C191.652 35.4214 213.505 22.9757 224.756 41.8328C235.987 60.6896 215.118 78.9599 214.532 81.7675C214.427 85.6856 216.061 87.9066 218.24 96.4132C220.252 104.228 221.153 107.141 221.655 110.263C222.41 111.562 231.021 104.71 235.798 97.4189C239.213 92.2018 239.402 86.7751 241.413 86.1885C243.425 85.5808 244.619 91.8037 247.238 91.4056C249.836 91.0075 254.551 77.3676 253.566 67.939C252.162 54.6972 244.242 50.2763 246.652 46.0649C249.061 41.8537 254.467 46.8611 256.29 43.467C258.091 40.0518 253.692 30.4346 247.05 25.8042C240.408 21.1737 233.808 21.7814 232.802 19.3928C231.796 16.9833 236.217 15.7891 236.217 13.1701C236.217 10.572 228.989 6.54915 216.355 5.94153C205.501 5.41773 195.696 11.1586 195.088 7.95295C194.48 4.74726 197.288 4.93582 197.099 3.53202C196.89 2.12822 189.389 -1.18232 178.242 1.91861C169.589 4.32812 158.338 13.0024 157.94 16.1662Z" fill="url(#paint1_linear_23_364)"/>
<path d="M172.585 85.8327C165.043 86.2098 163.702 94.7165 164.163 100.436C164.644 106.617 166.279 113.972 174.094 113.825C182.077 113.678 184.025 105.255 184.172 98.7812C184.34 92.3069 181.783 85.3927 172.585 85.8327ZM86.5135 85.3927C78.9707 85.7698 76.9803 91.846 77.1898 97.5869C77.4831 106.471 82.6163 113.238 88.022 113.385C96.0048 113.615 97.6601 106.156 97.8067 99.6821C97.9534 93.2079 95.6906 84.9318 86.5135 85.3927Z" fill="#2F2F2F"/>
<path d="M174.408 95.3245C173.109 98.3625 170.092 100.646 168.248 99.8711C166.404 99.0959 165.985 95.9949 167.284 92.9568C168.583 89.9188 171.119 88.0959 172.942 88.8921C174.785 89.6673 175.707 92.2864 174.408 95.3245ZM88.483 96.6654C86.9116 99.3892 83.0563 101.317 81.2544 100.269C79.4526 99.2425 79.8087 95.6597 81.3802 92.9359C82.9516 90.2121 85.6754 88.8293 87.4773 89.8769C89.2582 90.9035 90.0544 93.9416 88.483 96.6654Z" fill="#DFDFDF"/>
<path d="M136.777 159.731L121.126 159.438L108.178 155.08C108.178 155.08 107.926 163.251 108.324 168.175C108.785 173.601 114.044 185.041 131.204 184.727C147.903 184.434 153.476 174.23 153.623 168.028C153.77 161.868 153.476 157.049 153.476 157.049L136.777 159.731Z" fill="url(#paint2_radial_23_364)"/>
<path d="M130.911 156.42C126.092 156.567 119.471 155.226 116.915 154.304C114.359 153.403 110.587 150.7 108.178 153.55C105.768 156.399 109.225 160.171 114.799 161.973C120.372 163.774 124.583 164.822 130.597 164.675C138.119 164.487 145.033 163.167 147.442 162.413C149.852 161.658 155.509 159.207 153.917 155.331C152.115 150.973 148.951 153.822 144.886 154.87C140.842 155.959 136.023 156.253 130.911 156.42Z" fill="#2F2F2F"/>
<path d="M130.764 87.4879C115.72 87.1736 111.048 99.3678 109.854 107.351C108.659 115.333 107.465 123.568 109.602 133.331C111.718 142.969 119.324 148.459 130.617 148.27C140.549 148.124 146.29 144.625 149.286 138.8C152.596 132.326 152.45 125.851 151.842 111.855C151.234 97.8802 144.76 87.7812 130.764 87.4879Z" fill="#303030"/>
<path d="M133.698 141.439C133.698 142.885 135.856 143.723 138.286 143.011C140.842 142.256 144.823 139.931 146.038 137.207C146.688 135.761 146.185 133.603 144.614 134.274C143.042 134.944 141.764 136.453 139.564 137.815C137.385 139.176 133.698 140.308 133.698 141.439ZM122.027 137.668C118.675 135.635 117.585 133.98 116.077 134.504C114.568 135.028 115.406 138.045 116.978 139.386C118.549 140.727 121.336 142.843 124.206 143.451C126.448 143.912 127.978 142.173 127.223 141.188C126.469 140.224 124.52 139.176 122.027 137.668Z" fill="#AFAFAF"/>
<defs>
<linearGradient id="paint0_linear_23_364" x1="19.6732" y1="114.448" x2="58.7806" y2="0.869349" gradientUnits="userSpaceOnUse">
<stop offset="0.182" stop-color="#C9C7C8"/>
<stop offset="0.256" stop-color="#BDBCBD"/>
<stop offset="0.411" stop-color="#A8A8AA"/>
<stop offset="0.498" stop-color="#9E9EA1"/>
<stop offset="0.648" stop-color="#828487"/>
<stop offset="0.799" stop-color="#606468"/>
</linearGradient>
<linearGradient id="paint1_linear_23_364" x1="240.429" y1="102.349" x2="192.699" y2="-4.85525" gradientUnits="userSpaceOnUse">
<stop offset="0.164" stop-color="#C9C7C8"/>
<stop offset="0.244" stop-color="#BDBCBD"/>
<stop offset="0.411" stop-color="#A8A8AA"/>
<stop offset="0.486" stop-color="#96979A"/>
<stop offset="0.674" stop-color="#6F7276"/>
<stop offset="0.772" stop-color="#606468"/>
</linearGradient>
<radialGradient id="paint2_radial_23_364" cx="0" cy="0" r="1" gradientUnits="userSpaceOnUse" gradientTransform="translate(130.307 127.072) scale(50.6856 50.6856)">
<stop offset="0.784" stop-color="#FEBDBB"/>
<stop offset="0.821" stop-color="#F5BEBC"/>
<stop offset="0.88" stop-color="#DCC1C0"/>
<stop offset="0.922" stop-color="#C7C3C3"/>
</radialGradient>
</defs>
</svg>
