<svg width="257" height="251" viewBox="0 0 257 251" fill="none" xmlns="http://www.w3.org/2000/svg">
<path d="M26.7991 64.3674L17.7199 66.4561C17.7199 66.4561 5.12415 85.8932 2.37483 106.566C0.648487 119.546 0.58454 136.489 1.77807 144.929C2.99289 153.369 7.34066 171.335 14.182 183.995C20.7676 196.186 27.1827 200.981 34.1946 205.222C37.1996 207.034 39.885 213.236 44.5738 216.241C48.9642 219.054 54.7612 219.608 54.7612 219.608C54.7612 219.608 70.7883 244.779 105.464 249.148C146.15 254.263 166.056 235.891 166.056 235.891C166.056 235.891 182.339 235.849 197.705 229.263C214.947 221.868 224.154 206.48 224.154 206.48C224.154 206.48 245.744 187.895 252.585 165.645C258.084 147.785 258.233 113.834 254.013 97.8495C249.793 81.8651 241.63 68.3316 235.151 59.6573C229.994 52.752 172.407 22.1471 165.459 19.4191C158.532 16.7124 94.0191 12.4925 91.6107 14.3041C89.2024 16.137 26.7991 64.3674 26.7991 64.3674Z" fill="#AC5811"/>
<path d="M49.2627 30.2462C34.2373 42.4796 26.4582 48.8734 18.6578 64.1758C10.8573 79.4784 13.3722 99.7893 14.7789 107.291C16.1642 114.793 18.6791 129.265 20.0644 136.49C21.4497 143.736 25.1368 160.914 35.3455 171.549C49.6463 186.446 62.6044 191.583 62.6044 191.583C62.6044 191.583 73.1115 207.866 98.4947 217.179C131.87 229.413 146.896 211.617 159.683 206.885C172.471 202.154 187.773 201.877 200.859 192.691C213.924 183.505 228.395 172.38 237.858 149.021C247.321 125.663 245.36 115.369 245.637 109.529C245.914 103.69 245.083 75.5995 234.235 58.3575C223.387 41.1156 210.343 30.7577 205.314 27.4756C194.188 20.2506 154.462 2.9661 144.466 1.02665C134.449 -0.912799 98.7292 2.11359 84.5563 7.95325C70.3835 13.7929 49.2627 30.2462 49.2627 30.2462Z" fill="url(#paint0_radial_23_407)"/>
<path d="M112.667 140.454C110.301 139.709 107.808 136.192 107.211 128.669C106.38 117.948 114.287 114.986 114.287 114.986C114.287 114.986 123.707 112.492 130.335 110.127C136.495 107.931 140.928 105.118 140.928 105.118C140.928 105.118 141.524 93.6306 145.339 90.2419C149.176 86.8532 155.932 87.1516 163.455 88.0254C170.957 88.8992 183.041 93.9077 181.272 98.4686C179.504 103.03 177.436 107.59 170.233 111.725C163.029 115.838 157.871 119.675 154.184 122.914C150.497 126.175 143.741 130.267 132.552 134.402C121.363 138.536 116.077 141.52 112.667 140.454ZM49.3046 44.5692C42.2288 43.1199 32.2332 58.4437 30.379 63.5161C28.5035 68.5885 26.5853 80.9496 26.3722 86.5975C26.0951 93.6093 25.9673 100.195 28.9084 105.544C31.1675 109.679 36.6449 112.002 41.5681 107.74C46.4913 103.477 55.0377 91.7978 57.2968 90.1567C59.556 88.5156 66.1629 86.3417 63.5627 75.6002C62.4971 71.2099 51.6916 62.1308 51.1588 60.8946C50.6473 59.6798 53.3114 45.4004 49.3046 44.5692ZM99.3255 25.3239C99.6025 29.4372 102.97 36.0228 106.614 39.582C112.07 44.8889 137.091 62.8341 143.57 61.8111C150.049 60.7881 157.104 49.1514 159.171 45.9119C161.239 42.6723 165.352 38.1114 166.972 36.0441C168.591 33.9768 172.854 29.2667 169.337 24.5566C165.8 19.8465 156.976 16.7562 151.094 16.3086C145.212 15.8611 136.068 12.0461 128.268 12.3445C120.468 12.6429 98.6008 14.7102 99.3255 25.3239ZM202.308 80.2037C202.798 84.6793 209.085 85.6597 214.094 88.8992C219.102 92.1388 222.491 95.5275 225.432 94.6323C228.373 93.7585 232.38 89.0484 231.464 80.8004C230.291 70.2082 223.663 56.6534 214.392 57.101C208.787 57.378 209.554 67.1179 209.554 67.1179C209.554 67.1179 202.01 77.5609 202.308 80.2037Z" fill="#FFC86E"/>
<path d="M81.1037 52.5808C81.1037 52.5808 61.0057 52.453 61.368 54.4563C61.7516 56.4597 63.4993 63.0666 68.7422 63.3224C73.9851 63.5781 80.7413 64.0683 83.9809 63.0666C87.2204 62.065 96.2143 54.8187 96.2143 51.5791C96.2143 48.3396 92.5912 43.5869 92.5912 43.5869L81.1037 52.5808ZM109.812 89.4304C109.812 89.4304 109.577 89.5795 109.236 89.8566C108.235 90.6878 106.316 92.6272 107.062 94.8011C108.064 97.6783 113.925 103.049 119.679 103.049C125.434 103.049 128.546 97.6783 129.547 94.1831C130.549 90.6878 130.037 88.5565 130.037 88.5565L109.812 89.4304ZM64.9912 105.798C64.9912 105.798 61.4959 107.056 61.6238 109.294C61.7516 111.532 62.6255 115.666 67.1224 120.035C71.662 124.447 78.2478 125.662 84.2366 124.042C90.2255 122.422 94.5945 117.925 94.1044 111.936C93.6142 105.948 87.8598 101.323 87.8598 101.323L64.9912 105.798ZM39.139 138.897C39.139 138.897 35.3879 139.771 35.7716 142.264C36.1552 144.758 40.3964 152.622 47.1312 151.748C53.866 150.875 64.501 143.138 64.501 140.133C64.501 137.128 59.1302 133.143 59.1302 133.143L39.139 138.897ZM85.0891 170.12C85.0891 170.12 83.7038 178.176 94.5732 181.117C112.689 185.998 114.564 175 114.564 175L85.0891 170.12ZM156.252 173.85C156.252 173.85 151.393 178.709 156.913 182.524C162.433 186.339 168.72 187.639 174.645 186.978C180.57 186.317 184.619 181.586 184.619 181.586L156.252 173.85ZM201.605 119.886C201.605 119.886 192.441 124.511 199.538 132.503C204.93 138.599 217.27 137.362 222.321 133.931C225.625 131.693 226.605 127.729 225.369 125.726C224.111 123.722 201.605 119.886 201.605 119.886ZM166.141 66.9455C166.141 66.9455 165.651 77.41 179.76 77.069C199.495 76.5788 197.002 64.3241 197.002 64.3241L166.141 66.9455Z" fill="#CF701E"/>
<path d="M175.262 53.8401C175.262 53.8401 166.013 59.5945 165.011 61.9602C164.009 64.3259 161.878 71.828 172.62 71.3378C183.361 70.8476 194.103 70.464 197.726 66.0949C201.349 61.7258 200.475 57.719 198.983 54.4795C197.491 51.24 189.094 38.9852 182.423 39.1344C178.054 39.2197 175.262 53.8401 175.262 53.8401Z" fill="#593329"/>
<path d="M182.381 39.0914C182.381 39.0914 176.52 38.3455 171.384 47.4673C166.269 56.5891 164.948 62.0238 164.948 62.0238C164.948 62.0238 175.369 62.0664 181.614 61.3205C187.859 60.5745 192.1 56.6956 192.1 56.6956C192.1 56.6956 187.006 40.221 182.381 39.0914Z" fill="#925849"/>
<path d="M111.452 81.6952C111.452 81.6952 106.337 81.3542 105.954 83.3363C105.57 85.3397 106.7 90.4334 108.447 92.6712C110.195 94.909 115.438 99.9175 120.681 98.9158C125.924 97.9141 129.035 92.7778 129.909 91.0088C130.698 89.3464 131.55 87.5562 130.058 85.3183C128.545 83.0592 111.452 81.6952 111.452 81.6952Z" fill="#593329"/>
<path d="M119.061 73.7016C114.714 73.2328 104.228 81.566 106.103 84.4219C108.192 87.5548 108.554 85.5728 114.309 88.45C119.061 90.8157 121.129 93.0109 124.113 92.6272C127.096 92.2436 130.656 87.3204 130.037 85.317C129.419 83.3136 124.944 74.3197 119.061 73.7016Z" fill="#925849"/>
<path d="M69.8507 39.9633L59.6206 47.039C59.6206 47.039 59.237 51.8344 61.3683 54.4558C63.4995 57.0773 64.1176 58.697 74.1132 58.697C84.1087 58.697 93.465 57.333 95.2126 50.2146C96.9602 43.0962 93.8912 38.5353 92.0157 35.9139C90.1402 33.2924 69.8507 39.9633 69.8507 39.9633Z" fill="#593329"/>
<path d="M69.9785 28.8617C67.6768 29.8421 62.2421 37.2375 60.9846 40.4771C59.7272 43.7166 59.4501 47.1692 59.6206 47.2119C61.6879 47.7234 73.8574 48.8529 79.2281 47.9791C84.5989 47.1053 88.968 44.7396 90.7156 41.6066C92.101 39.1131 91.9944 35.8096 91.9944 35.8096C91.9944 35.8096 88.3499 29.2453 83.3415 27.2419C78.3543 25.2385 70.8524 28.4781 69.9785 28.8617Z" fill="#925949"/>
<path d="M61.4112 106.268C61.4112 106.268 60.5587 107.568 62.1785 110.062C63.7982 112.555 66.9738 115.539 71.7265 116.924C76.4792 118.288 79.8467 120.164 82.9583 119.802C86.0913 119.418 92.208 116.924 92.4425 108.314C92.6982 99.7037 90.9506 95.697 87.1996 91.9459C83.4485 88.1949 80.7418 88.8343 80.7418 88.8343L61.4112 106.268Z" fill="#593329"/>
<path d="M62.4971 98.2962C61.1757 100.513 60.1953 107.716 61.8151 109.336C63.4348 110.956 73.1747 111.062 75.7322 110.785C78.3112 110.508 86.7297 106.544 86.8576 103.539C86.9854 100.534 85.3657 96.5485 85.3657 95.0566C85.3657 93.5648 87.2412 90.0695 82.1262 88.812C77.011 87.5546 65.2251 93.6713 62.4971 98.2962Z" fill="#925849"/>
<path d="M45.6179 130.65C45.6179 130.65 37.583 132.632 37.0715 135.381C36.5813 138.13 37.7322 140.901 40.4815 143.522C43.2309 146.144 45.2342 148.893 47.3442 148.637C49.4755 148.382 55.0807 143.394 56.8283 141.775C58.5759 140.155 61.0695 137.278 60.8351 134.912C60.6006 132.546 59.5776 130.159 57.3398 128.284C55.1233 126.408 45.6179 130.65 45.6179 130.65Z" fill="#593329"/>
<path d="M47.6214 123.531C43.8704 123.616 40.9932 128.155 39.757 129.775C38.4996 131.395 36.3896 135.274 37.2635 135.892C38.1373 136.51 41.7604 136.894 43.5081 138.023C45.2557 139.153 47.8771 140.9 49.8805 139.281C51.8839 137.661 53.6315 133.164 54.6332 131.672C55.6349 130.18 57.3826 128.305 57.3826 128.305C57.3826 128.305 53.6102 123.403 47.6214 123.531Z" fill="#925849"/>
<path d="M93.4649 153.625C92.7189 154.499 82.1052 163.109 82.1052 163.109C82.1052 163.109 82.4889 170.611 84.8546 172.359C87.2203 174.106 94.5944 176.6 99.3471 177.601C104.1 178.603 112.582 179.733 114.714 178.859C116.845 177.985 119.083 173.36 119.21 167.371C119.338 161.383 117.207 156.907 114.841 154.158C112.476 151.408 110.579 150.385 110.579 150.385L93.4649 153.625Z" fill="#593329"/>
<path d="M107.574 164.855C108.96 163.299 110.579 150.363 110.579 150.363C110.579 150.363 100.967 142.988 96.9605 142.498C92.9537 142.008 88.2223 142.37 86.837 143.862C85.473 145.354 80.1022 150.725 80.5924 154.22C81.0826 157.715 82.0843 163.086 82.0843 163.086C82.0843 163.086 104.697 168.116 107.574 164.855Z" fill="#925849"/>
<path d="M154.163 171.015C154.163 171.015 152.948 179.114 161.857 180.649C170.765 182.162 178.161 184.187 182.018 183.377C185.876 182.567 189.712 177.409 190.117 173.658C190.522 169.907 190.735 164.494 190.117 163.023C188.497 159.123 180.995 148.445 177.351 147.316C175.305 146.698 173.366 147.039 173.366 147.039L154.163 171.015Z" fill="#593329"/>
<path d="M159.94 156.822C155.954 161.234 153.908 167.606 154.121 170.974C154.334 174.149 169.445 172.764 171.235 171.677C173.025 170.59 176.926 165.731 177.054 164.111C177.181 162.491 175.945 157.419 175.732 154.286C175.519 151.153 175.434 146.89 173.707 146.997C171.981 147.103 165.609 150.556 159.94 156.822Z" fill="#925849"/>
<path d="M211.046 101.834C211.046 101.834 214.563 102.346 218.889 104.946C223.94 107.973 229.226 115.688 228.821 121.975C228.416 128.262 222.939 131.097 216.268 131.203C209.597 131.31 203.075 130.947 201.861 127.495C200.646 124.042 211.046 101.834 211.046 101.834Z" fill="#593329"/>
<path d="M205.718 103.944C204.674 105.394 201.967 109.827 201.051 115.496C200.134 121.165 200.752 127.644 202.777 128.774C204.802 129.882 215.948 120.27 216.545 119.247C217.163 118.224 212.986 102.729 211.664 102.026C210.343 101.323 207.04 102.133 205.718 103.944Z" fill="#925849"/>
<defs>
<radialGradient id="paint0_radial_23_407" cx="0" cy="0" r="1" gradientUnits="userSpaceOnUse" gradientTransform="translate(129.47 110.906) scale(113.387 113.387)">
<stop offset="0.507" stop-color="#F29F58"/>
<stop offset="0.715" stop-color="#F09D56"/>
<stop offset="0.826" stop-color="#EB9550"/>
<stop offset="0.914" stop-color="#E18745"/>
<stop offset="0.99" stop-color="#D47436"/>
<stop offset="1" stop-color="#D27133"/>
</radialGradient>
</defs>
</svg>
