<svg width="209" height="256" viewBox="0 0 209 256" fill="none" xmlns="http://www.w3.org/2000/svg">
<path d="M195.567 256H32.8374C29.424 256 23.1307 256 15.0028 248.555C8.45346 242.56 0.944152 236.95 1.09349 229.995L176.623 22.2729C186.181 22.2729 190.511 25.0676 196.57 28.6943C208.026 35.5636 208.41 39.0409 208.41 42.9235V243.179C208.402 246.58 207.045 249.84 204.638 252.244C202.231 254.647 198.969 255.998 195.567 256Z" fill="#B9E4EA"/>
<path d="M115.653 178.389V240.255H177.199C180.447 240.255 183.562 238.965 185.858 236.669C188.154 234.372 189.445 231.258 189.445 228.01V178.389H115.653Z" fill="#82AEC0"/>
<path d="M128.325 240.256C117.21 240.256 137.391 194.816 137.391 194.816C137.391 194.816 189.445 147.03 189.445 180.203C189.445 213.376 139.418 240.256 128.325 240.256Z" fill="#B9E4EA"/>
<path d="M149.679 197.206C149.679 197.206 189.445 194.667 189.445 178.966V35.0942C189.445 28.0116 184.431 22.2729 176.623 22.2729H13.6588C5.23217 22.2729 0.837517 28.0116 0.837517 35.0942V227.435C0.837517 234.518 6.57616 240.256 13.6588 240.256H126.341C150.938 234.454 149.679 197.206 149.679 197.206Z" fill="#F5F5F5"/>
<path d="M28.1012 42.6446C31.7655 42.6446 34.7359 39.3304 34.7359 35.242C34.7359 31.1537 31.7655 27.8394 28.1012 27.8394C24.437 27.8394 21.4666 31.1537 21.4666 35.242C21.4666 39.3304 24.437 42.6446 28.1012 42.6446Z" fill="#2F7889"/>
<path d="M31.1731 29.1626C30.1567 27.0003 29.6322 24.6397 29.6371 22.2506C29.6371 16.2559 32.7518 11.2 36.4424 11.2C40.1331 11.2 43.2691 16.2559 43.2691 22.2506H53.2957C53.2957 9.98396 45.7437 0 36.4638 0C27.1838 0 19.6105 9.98396 19.6105 22.2506C19.6105 26.6239 20.5705 30.6985 22.2131 34.1332C23.7065 37.2479 26.9278 38.6345 29.7651 37.1199C32.1758 35.8612 32.4744 31.8505 31.1731 29.1626Z" fill="#94D1E0"/>
<path d="M46.1493 4.07495C46.192 4.20295 47.4293 7.40294 45.68 10.4749C43.9093 13.6109 40.24 13.1203 40.24 13.1203C42.0534 15.1256 43.2694 18.4962 43.2694 22.2509H53.3386C53.3386 14.7416 50.4587 8.10694 46.1493 4.07495Z" fill="#2F7889"/>
<path d="M72.8798 42.6446C76.544 42.6446 79.5144 39.3304 79.5144 35.242C79.5144 31.1537 76.544 27.8394 72.8798 27.8394C69.2156 27.8394 66.2451 31.1537 66.2451 35.242C66.2451 39.3304 69.2156 42.6446 72.8798 42.6446Z" fill="#2F7889"/>
<path d="M75.9518 29.1626C74.9354 27.0003 74.4106 24.6397 74.4158 22.2506C74.4158 16.2559 77.5304 11.2 81.2211 11.2C84.9117 11.2 88.0477 16.2559 88.0477 22.2506H98.0743C98.0743 9.98396 90.5224 0 81.2211 0C71.9411 0 64.3678 9.98396 64.3678 22.2506C64.3678 26.6239 65.3278 30.6985 66.9704 34.1332C68.4638 37.2479 71.6851 38.6345 74.5224 37.1199C76.9544 35.8612 77.2531 31.8505 75.9518 29.1626Z" fill="#94D1E0"/>
<path d="M90.9277 4.07495C90.9703 4.20295 92.2077 7.40294 90.4583 10.4749C88.6877 13.6109 85.0184 13.1203 85.0184 13.1203C86.8317 15.1256 88.0477 18.4962 88.0477 22.2509H98.1597C98.1597 14.7416 95.237 8.10694 90.9277 4.07495Z" fill="#2F7889"/>
<path d="M117.658 42.6446C121.322 42.6446 124.293 39.3304 124.293 35.242C124.293 31.1537 121.322 27.8394 117.658 27.8394C113.994 27.8394 111.024 31.1537 111.024 35.242C111.024 39.3304 113.994 42.6446 117.658 42.6446Z" fill="#2F7889"/>
<path d="M120.73 29.1626C119.714 27.0003 119.19 24.6397 119.194 22.2506C119.194 16.2559 122.309 11.2 126 11.2C129.69 11.2 132.826 16.2559 132.826 22.2506H142.853C142.853 9.98396 135.301 0 126 0C116.72 0 109.146 9.98396 109.146 22.2506C109.146 26.6239 110.106 30.6985 111.749 34.1332C113.242 37.2479 116.464 38.6345 119.301 37.1199C121.712 35.8612 122.032 31.8505 120.73 29.1626Z" fill="#94D1E0"/>
<path d="M135.706 4.07495C135.749 4.20295 136.986 7.40294 135.237 10.4749C133.466 13.6109 129.797 13.1203 129.797 13.1203C131.61 15.1256 132.826 18.4962 132.826 22.2509H142.959C142.959 14.7416 140.015 8.10694 135.706 4.07495Z" fill="#2F7889"/>
<path d="M162.394 42.6446C166.058 42.6446 169.029 39.3304 169.029 35.242C169.029 31.1537 166.058 27.8394 162.394 27.8394C158.73 27.8394 155.759 31.1537 155.759 35.242C155.759 39.3304 158.73 42.6446 162.394 42.6446Z" fill="#2F7889"/>
<path d="M165.487 29.1626C164.471 27.0003 163.946 24.6397 163.951 22.2506C163.951 16.2559 167.066 11.2 170.757 11.2C174.447 11.2 177.583 16.2559 177.583 22.2506H187.61C187.61 9.98396 180.037 0 170.757 0C161.477 0 153.903 9.98396 153.903 22.2506C153.903 26.6239 154.863 30.6985 156.506 34.1332C157.999 37.2479 161.221 38.6345 164.058 37.1199C166.469 35.8612 166.767 31.8505 165.487 29.1626Z" fill="#94D1E0"/>
<path d="M180.442 4.07495C180.485 4.20295 181.722 7.40294 179.973 10.4749C178.202 13.6109 174.533 13.1202 174.533 13.1202C176.346 15.1256 177.562 18.4962 177.562 22.2509L180.997 22.4855C180.997 22.4855 184.41 22.7629 187.738 24.0429C187.738 24.0429 188.89 11.1363 180.442 4.07495Z" fill="#2F7889"/>
<path d="M148.015 213.396H1.09331V209.108H148.826C148.634 211.434 148.015 213.396 148.015 213.396ZM183.599 188.202H1.09331V183.914H188.122C186.223 186.858 183.599 188.202 183.599 188.202Z" fill="#4FC3F7"/>
<path d="M189.445 160.874H1.09331M189.445 135.659H1.09331M189.445 110.464H1.09331M189.445 85.2694H1.09331M189.445 60.0747H1.09331" stroke="#4FC3F7" stroke-width="4.26667" stroke-miterlimit="10"/>
<path opacity="0.75" d="M208.325 72.8096L189.445 62.207V57.8977L208.41 68.543L208.325 72.8096ZM208.325 98.0045L189.445 87.4232V83.1139L208.41 93.7592L208.325 98.0045ZM208.325 123.22L189.445 112.618V108.308L208.41 118.954L208.325 123.22ZM208.325 148.415L189.445 137.812V133.503L208.41 144.17L208.325 148.415ZM208.325 173.631L189.445 163.028V158.719L208.41 169.364L208.325 173.631ZM208.325 198.825L189.445 188.223V183.913L208.41 194.559L208.325 198.825ZM208.325 224.02L189.445 213.417V209.108L208.41 219.775L208.325 224.02Z" fill="#2F7889"/>
</svg>
