<svg width="256" height="257" viewBox="0 0 256 257" fill="none" xmlns="http://www.w3.org/2000/svg">
<path d="M99.2729 150.738L88.6129 161.394C86.5448 163.461 83.1976 163.461 81.1509 161.394L1.54166 81.816C-0.526421 79.7488 -0.526421 76.4026 1.54166 74.3567L12.2017 63.7008C14.2698 61.6335 17.617 61.6335 19.6638 63.7008L99.2729 143.279C101.341 145.346 101.341 148.671 99.2729 150.738ZM160.462 89.5735L149.802 100.229C147.734 102.297 144.386 102.297 142.34 100.229L62.7304 20.651C60.6623 18.5838 60.6623 15.2378 62.7304 13.1919L73.3904 2.53602C75.4585 0.468788 78.8056 0.468788 80.8524 2.53602L160.462 82.1144C162.53 84.1603 162.53 87.5063 160.462 89.5735Z" fill="#C9C9C9"/>
<path d="M50.2927 130.544L68.4148 112.429L78.4565 122.467L60.3345 140.582L50.2927 130.544ZM111.501 69.3555L129.606 51.2554L139.648 61.2932L121.54 79.3912L111.501 69.3555Z" fill="#9E9E9E"/>
<path d="M179.906 70.6286L69.6808 180.81C69.0448 181.449 68.289 181.956 67.4567 182.301C66.6243 182.647 65.7318 182.825 64.8305 182.825C63.9291 182.825 63.0366 182.647 62.2043 182.301C61.3719 181.956 60.6161 181.449 59.9801 180.81L42.3697 163.207C41.7309 162.572 41.224 161.815 40.8781 160.983C40.5322 160.151 40.3541 159.26 40.3541 158.359C40.3541 157.458 40.5322 156.565 40.8781 155.733C41.224 154.901 41.7309 154.146 42.3697 153.51L152.595 43.3282C153.231 42.6896 153.986 42.1829 154.819 41.8371C155.651 41.4915 156.544 41.3135 157.445 41.3135C158.347 41.3135 159.239 41.4915 160.071 41.8371C160.903 42.1829 161.659 42.6896 162.295 43.3282L179.906 60.9317C181.186 62.2211 181.904 63.9639 181.904 65.7801C181.904 67.5965 181.186 69.3392 179.906 70.6286Z" fill="#616161"/>
<path d="M119.313 118.941L71.4286 169.62C71.4286 169.62 97.2684 193.362 108.27 199.222C118.418 204.636 129.249 207.491 140.591 208.898C144.898 209.431 151.208 208.685 155.195 210.624C159.95 212.926 159.139 216.08 161.698 220.385C166.644 228.697 175.62 230.636 185.96 226.587C195.192 222.964 223.377 194.811 227.001 185.562C231.052 175.225 229.794 167.127 220.797 161.309C216.597 158.602 213.356 159.561 211.032 154.809C209.092 150.845 209.839 144.515 209.306 140.21C207.898 128.872 205.042 118.046 199.626 107.902C193.742 96.926 169.991 71.0959 169.991 71.0959L119.313 118.941Z" fill="#616161"/>
<path d="M187.538 153.998C187.495 154.723 187.495 155.554 188.028 156.044C188.476 156.449 189.158 156.449 189.755 156.364C194.254 155.788 197.921 152.101 199.52 147.86C201.119 143.619 200.991 138.931 200.373 134.434C198.497 120.773 192.143 107.752 182.506 97.8629C181.419 96.7547 180.076 95.5826 178.52 95.7957C175.066 96.2432 170.653 107.006 170.269 110.096C169.587 115.722 174.917 118.727 178.008 122.947C184.532 131.834 188.092 142.959 187.538 153.998ZM145.004 61.0578C143.789 65.0005 149.887 75.6137 154.726 79.4922C158.372 82.4119 161.336 81.6873 163.596 80.4725C169.309 77.4039 174.917 70.6055 175.364 70.1579C177.368 68.0694 176.537 64.8939 174.447 61.9742C169.459 55.0266 164.406 50.2527 162.53 48.2068C158.948 44.3067 154.407 46.8641 152.488 48.7183C148.352 52.7462 146.198 57.1364 145.004 61.0578Z" fill="#808080"/>
<path d="M253.482 238.458L237.577 254.356C234.272 257.659 230.392 257.936 225.467 254.697L180.716 225.415C179.822 224.613 179.099 223.638 178.594 222.549C178.089 221.459 177.811 220.279 177.777 219.077C177.742 217.877 177.954 216.683 178.397 215.566C178.84 214.45 179.506 213.436 180.354 212.585L211.716 181.235C215.297 177.655 221.16 177.826 224.55 181.598L253.844 226.331C256.744 231.723 256.786 235.154 253.482 238.458Z" fill="#616161"/>
<path d="M233.973 198.967L218.751 214.183C217.86 215.078 217.361 216.288 217.361 217.551C217.361 218.812 217.86 220.023 218.751 220.918C220.605 222.772 223.633 222.772 225.488 220.918L240.454 205.957L235.274 198.05C234.826 198.285 234.378 198.583 233.973 198.967ZM226.127 232.384C225.233 231.494 224.022 230.993 222.759 230.993C221.497 230.993 220.286 231.494 219.39 232.384L208.304 243.466L216.469 248.794L226.149 239.118C228.004 237.264 228.004 234.238 226.127 232.384ZM250.027 220.577L237.576 233.023C236.686 233.917 236.186 235.128 236.186 236.39C236.186 237.652 236.686 238.862 237.576 239.758C239.431 241.612 242.459 241.612 244.313 239.758L255.037 229.102L253.78 226.352L250.027 220.577ZM184.596 226.608C184.596 226.608 194.446 218.062 205.788 206.703C217.13 195.344 225.701 185.519 225.701 185.519C229.219 189.036 222.865 201.077 211.502 212.415C200.138 223.752 188.114 230.103 184.596 226.608ZM174.469 76.0618L76.3964 174.096C78.4004 175.886 80.9161 178.081 83.6451 180.447C97.7164 177.08 119.868 161.82 139.61 139.571C163.169 112.995 176.046 77.8306 174.469 76.0618ZM161.911 203.528C160.398 211.605 173.04 213.352 190.096 195.578C200.138 185.114 205.148 172.306 204.722 167.34C204.36 163.227 200.756 163.419 197.857 166.317C194.659 169.514 190.118 174.906 186.792 177.996C169.288 194.278 162.935 198.093 161.911 203.528Z" fill="#424242"/>
<path d="M208.88 191.593C214.764 193.191 222.482 183.239 223.761 178.252C224.55 175.183 224.209 170.686 221.565 168.598C217.28 165.23 213.868 167.148 211.502 169.919C208.304 173.691 203.016 190.016 208.88 191.593Z" fill="#808080"/>
</svg>
