<svg width="256" height="256" viewBox="0 0 256 256" fill="none" xmlns="http://www.w3.org/2000/svg">
<path d="M238.933 0H17.0667C7.63733 0 0 7.63733 0 17.0667V238.933C0 248.363 7.63733 256 17.0667 256H238.933C248.363 256 256 248.363 256 238.933V17.0667C256 7.63733 248.363 0 238.933 0Z" fill="#F77E00"/>
<path d="M225.493 0H16C11.7661 0.03072 7.71418 1.72629 4.72026 4.72021C1.72626 7.71422 0.0306825 11.766 4.77893e-05 16V224.853C-0.0213197 233.685 7.12538 240.832 15.9574 240.853H225.28C234.112 240.875 241.259 233.728 241.28 224.896V16C241.472 7.36 234.603 0.192 225.963 0H225.493Z" fill="#FF9800"/>
<path d="M227.413 61.6529L193.28 27.5195C192.018 26.4978 190.495 25.8523 188.883 25.6567C187.271 25.4611 185.637 25.7234 184.167 26.4136C182.698 27.1038 181.453 28.1939 180.574 29.5592C179.696 30.9244 179.22 32.5095 179.2 34.1329V48.2129C179.243 50.2822 177.813 52.0742 175.787 52.4795C150.8 57.18 128.66 71.5063 114.133 92.3728C109.096 99.7951 104.467 107.487 100.267 115.413C84.6934 143.146 67.2001 174.506 33.0668 178.773C30.992 179.031 29.0847 180.043 27.7079 181.617C26.3311 183.19 25.5809 185.215 25.6001 187.306V204.586C25.622 206.876 26.5502 209.064 28.1814 210.671C29.8127 212.278 32.0141 213.174 34.3041 213.162C34.5388 213.162 34.7521 213.141 34.9868 213.119C87.4668 207.999 113.067 162.773 130.133 132.266C133.781 125.461 137.771 118.826 142.08 112.426C149.655 101.126 160.757 92.6501 173.653 88.3194C174.291 88.1189 174.967 88.0711 175.626 88.1795C176.286 88.2879 176.911 88.5507 177.451 88.9449C177.991 89.3392 178.43 89.8546 178.734 90.4502C179.038 91.0458 179.198 91.7046 179.2 92.3728V102.613C179.213 103.748 179.449 104.869 179.896 105.913C180.343 106.956 180.991 107.901 181.804 108.694C182.616 109.486 183.577 110.111 184.631 110.532C185.685 110.952 186.812 111.161 187.947 111.146C189.888 111.125 191.787 110.442 193.28 109.226L227.413 75.0929C228.369 74.2535 229.135 73.22 229.659 72.0611C230.184 70.9023 230.456 69.6448 230.456 68.3729C230.456 67.1008 230.184 65.8434 229.659 64.6846C229.135 63.5258 228.369 62.4921 227.413 61.6529Z" fill="#FAFAFA"/>
<path d="M193.28 146.986C192.018 145.965 190.495 145.319 188.883 145.123C187.271 144.928 185.637 145.19 184.167 145.88C182.698 146.571 181.453 147.661 180.574 149.026C179.696 150.391 179.22 151.976 179.2 153.599V163.839C179.2 166.186 177.28 168.106 174.912 168.085C174.485 168.085 174.059 168.021 173.653 167.893C160.804 163.367 149.691 154.938 141.867 143.786C141.013 142.506 140.16 141.226 139.093 139.733C138.901 139.426 138.633 139.172 138.316 138.997C137.999 138.821 137.643 138.729 137.28 138.729C136.917 138.729 136.561 138.821 136.244 138.997C135.927 139.172 135.66 139.426 135.467 139.733C130.773 148.266 125.227 157.653 118.827 167.039C118.4 167.829 118.4 168.81 118.827 169.599C133.228 187.115 153.303 199.039 175.573 203.306C177.621 203.733 179.115 205.482 179.2 207.573V221.866C179.213 223.001 179.449 224.122 179.896 225.166C180.343 226.21 180.991 227.154 181.804 227.947C182.616 228.74 183.577 229.364 184.631 229.785C185.685 230.206 186.812 230.415 187.947 230.399C189.888 230.378 191.787 229.695 193.28 228.479L227.413 194.346C228.367 193.529 229.133 192.514 229.658 191.372C230.183 190.23 230.454 188.99 230.454 187.733C230.454 186.477 230.183 185.235 229.658 184.093C229.133 182.952 228.367 181.938 227.413 181.119L193.28 146.986Z" fill="#FAFAFA"/>
<path opacity="0.65" d="M76.1599 18.9874C76.1599 14.0807 72.7466 12.5874 53.1199 13.2274C36.6933 13.8674 28.5866 15.7873 23.6799 21.7607C18.7733 27.734 17.4933 39.894 17.2799 54.4007C17.2799 64.6407 17.2799 74.2407 22.6133 74.2407C29.8666 74.2407 29.8666 57.3873 35.8399 48.0007C47.3599 29.4407 76.1599 25.3874 76.1599 18.9874Z" fill="#FFBD52"/>
<path d="M33.28 77.2273C57.6 80.2139 73.6 97.0673 86.1867 116.694C86.3795 117.001 86.6466 117.255 86.9641 117.43C87.2807 117.606 87.6373 117.698 88 117.698C88.3627 117.698 88.7194 117.606 89.036 117.43C89.3534 117.255 89.6205 117.001 89.8133 116.694C93.8667 109.654 103.68 93.2273 106.453 88.7473C106.923 88.0006 106.837 87.0406 106.24 86.4006C90.0267 65.2808 67.84 46.2942 34.7733 43.3075C33.6889 43.1915 32.5924 43.2906 31.5464 43.599C30.5003 43.9074 29.5253 44.419 28.6772 45.1046C27.8292 45.7902 27.1246 46.6363 26.6039 47.5945C26.0832 48.5527 25.7565 49.6043 25.6427 50.6889C25.6213 50.9875 25.6 51.3075 25.6 51.6275V68.9075C25.6 73.2595 28.9493 76.8859 33.28 77.2273Z" fill="#FAFAFA"/>
<path opacity="0.3" d="M76.1599 18.9874C76.1599 14.0807 72.7466 12.5874 53.1199 13.2274C36.6933 13.8674 28.5866 15.7873 23.6799 21.7607C18.7733 27.734 17.4933 39.894 17.2799 54.4007C17.2799 64.6407 17.2799 74.2407 22.6133 74.2407C29.8666 74.2407 29.8666 57.3873 35.8399 48.0007C47.3599 29.4407 76.1599 25.3874 76.1599 18.9874Z" fill="#FFBD52"/>
</svg>
