<svg width="209" height="256" viewBox="0 0 209 256" fill="none" xmlns="http://www.w3.org/2000/svg">
<path d="M34.7088 227.307C34.7088 218.133 47.5302 185.728 47.5302 185.728C59.8822 181.909 149.077 185.152 162.667 185.152C162.667 185.152 174.955 211.456 174.955 227.307C174.955 243.157 137.237 256 104.96 256C72.6823 256 34.7088 243.157 34.7088 227.307Z" fill="#8B5738"/>
<path d="M104.96 216.001C136.83 216.001 162.667 204.778 162.667 190.934C162.667 177.09 136.83 165.867 104.96 165.867C73.0893 165.867 47.2528 177.09 47.2528 190.934C47.2528 204.778 73.0893 216.001 104.96 216.001Z" fill="#FFB17A"/>
<path d="M50.7941 217.921C57.2368 221.59 67.4342 221.313 75.3489 222.742C85.4183 224.577 91.1143 232.257 110.528 231.916C117.461 231.788 133.632 230.998 132.736 231.02C132.181 229.889 129.024 228.801 122.88 227.841C117.248 226.945 113.194 227.03 106.666 227.03C101.674 227.03 94.8263 225.537 87.9143 221.74C84.7569 220.012 79.8502 218.091 75.0502 217.11C67.6689 215.595 62.5275 217.195 52.2234 212.31C47.2954 209.985 43.306 205.163 42.3674 199.553L39.9354 206.55C43.1354 212.417 46.058 215.233 50.7941 217.921ZM156.97 212.182C140.458 222.678 126.506 221.505 126.506 221.505C125.333 222.273 134.954 224.342 142.101 223.148C156.138 220.801 164.672 213.761 170.219 204.331C169.451 201.942 167.765 197.419 167.765 197.419C166.165 201.281 164.309 207.51 156.97 212.182Z" fill="#CC8552"/>
<path d="M127.253 241.963C118.122 243.627 109.376 240.79 100.394 238.678C88.0849 235.798 64.9595 236.203 64.9595 236.203C63.5729 236.886 75.8609 241.344 81.8343 241.856C87.2743 242.326 93.0343 241.856 98.197 243.968C105.472 246.934 112.512 248.427 119.552 248.427C132.928 248.427 150.4 240.363 154.56 229.888C154.56 229.888 146.922 234.368 140.992 237.376C136.682 239.574 132.032 241.11 127.253 241.963Z" fill="#A86D44"/>
<path d="M44.7143 229.292C46.5276 232.194 48.3836 234.882 50.8156 237.292C54.9329 241.388 60.1382 243.756 63.4876 243.159C63.4876 243.159 51.6263 233.58 52.885 231.084C53.525 229.804 78.1436 231.831 78.1436 231.831C78.1436 231.831 70.6769 227.905 63.4022 226.497C58.6876 225.58 50.069 227.415 42.2183 221.889C37.8876 218.839 37.2262 215.169 37.2262 215.169C37.2262 215.169 35.6689 220.481 35.3489 222.508C39.8929 227.265 44.1169 228.332 44.7143 229.292ZM169.472 218.753C165.163 222.615 158.357 230.423 158.357 234.455C158.357 234.455 165.995 227.052 171.136 223.66C172.416 222.828 173.333 221.761 174.336 220.631C174.336 220.631 173.824 216.812 173.013 214.103C172.693 215.916 171.392 217.047 169.472 218.753Z" fill="#A86D44"/>
<path d="M104.832 208.043C162.281 208.043 208.853 161.472 208.853 104.022C208.853 46.5721 162.281 0 104.832 0C47.3821 0 0.809998 46.5721 0.809998 104.022C0.809998 161.472 47.3821 208.043 104.832 208.043Z" fill="url(#paint0_radial_23_739)"/>
<path d="M104.832 208.043C162.281 208.043 208.853 161.472 208.853 104.022C208.853 46.5721 162.281 0 104.832 0C47.3821 0 0.809998 46.5721 0.809998 104.022C0.809998 161.472 47.3821 208.043 104.832 208.043Z" fill="url(#paint1_radial_23_739)"/>
<path opacity="0.7" d="M66.2396 39.1888C75.925 40.0208 95.765 47.2742 81.3223 65.8769C71.8289 78.1006 59.9676 89.4713 55.7649 99.306C43.6261 127.743 74.0476 139.349 83.4983 142.314C91.6903 144.895 107.477 150.655 111.914 158.015C129.045 186.389 76.949 194.133 76.949 194.133C76.949 194.133 115.285 208.106 146.858 186.752C158.805 178.666 169.323 159.85 159.04 142.911C154.048 134.698 140.288 127.295 136.917 124.65C122.496 113.258 113.6 101.482 120.768 88.2766C123.669 82.9433 129.728 80.1699 135.594 78.5486C152.021 74.0049 172.523 74.8156 177.877 54.5275C182.507 37.0341 148.715 -2.04862 96.2983 4.3087C74.5383 6.9327 54.9542 16.0421 38.9327 31.0181C9.36466 58.6875 11.9247 81.5779 11.9247 81.5779C11.9247 81.5779 31.1887 36.1381 66.2396 39.1888Z" fill="url(#paint2_linear_23_739)"/>
<path opacity="0.39" d="M181.141 43.137C173.717 32.3423 163.456 23.7663 152.64 16.3636C135.381 4.5662 113.066 3.6062 113.066 3.6062C140.458 16.7049 137.386 34.0703 128.448 46.4863C117.568 61.6117 95.7435 71.8304 90.0475 90.2412C86.7195 100.993 88.7675 112.3 99.2422 119.169C109.717 126.039 147.413 144.279 148.714 165.868C149.696 182.124 136.768 192.364 136.768 192.364C151.893 189.1 183.722 166.828 174.293 143.916C169.728 132.823 148.97 125.463 159.424 112.812C163.306 108.097 190.421 105.58 192.96 78.1452C194.133 65.3237 187.221 51.969 181.141 43.137Z" fill="url(#paint3_linear_23_739)"/>
<path opacity="0.85" d="M21.0126 123.009C21.0126 123.009 5.43926 81.708 37.418 43.4575C63.7649 11.9267 87.5516 24.684 83.8823 38.124C80.1916 51.5641 68.7355 55.7027 51.4767 69.2068C28.6713 87.0413 21.0126 123.009 21.0126 123.009Z" fill="url(#paint4_linear_23_739)"/>
<path d="M166.613 65.6437C162.453 63.5744 159.125 60.9717 157.674 56.5557L151.509 36.1396L145.344 56.5557C143.893 60.9504 140.544 63.5744 136.405 65.6437L126.101 70.1024L136.704 74.497C140.864 76.5664 143.893 79.4039 145.365 83.7985L151.53 104.044L157.696 83.7985C159.146 79.4039 162.197 76.5664 166.357 74.497L176.96 70.1024L166.613 65.6437Z" fill="url(#paint5_linear_23_739)"/>
<path d="M146.026 139.456C141.866 137.387 138.538 134.784 137.088 130.368L130.922 109.952L124.757 130.368C123.306 134.763 119.957 137.387 115.818 139.456L105.514 143.915L116.117 148.31C120.277 150.379 123.306 153.217 124.778 157.611L130.944 177.857L137.109 157.611C138.56 153.217 141.61 150.379 145.77 148.31L156.373 143.915L146.026 139.456Z" fill="url(#paint6_linear_23_739)"/>
<path d="M195.157 106.601C192.021 105.044 189.504 103.06 188.395 99.7534L183.744 84.3293L179.093 99.7534C177.984 103.081 175.467 105.044 172.331 106.601L164.565 109.972L172.565 113.3C175.701 114.857 178.005 116.991 179.093 120.319L183.744 135.594L188.395 120.319C189.504 116.991 191.787 114.857 194.923 113.3L202.923 109.972L195.157 106.601Z" fill="white"/>
<defs>
<radialGradient id="paint0_radial_23_739" cx="0" cy="0" r="1" gradientUnits="userSpaceOnUse" gradientTransform="translate(138.594 38.7397) rotate(-3.714) scale(162.526 162.526)">
<stop offset="0.104" stop-color="#CE93D8"/>
<stop offset="1" stop-color="#AB47BC"/>
</radialGradient>
<radialGradient id="paint1_radial_23_739" cx="0" cy="0" r="1" gradientUnits="userSpaceOnUse" gradientTransform="translate(82.109 89.8878) scale(148.031 148.03)">
<stop offset="0.28" stop-color="#81D4FA" stop-opacity="0"/>
<stop offset="0.964" stop-color="#81D4FA" stop-opacity="0.9"/>
</radialGradient>
<linearGradient id="paint2_linear_23_739" x1="127.637" y1="14.1882" x2="44.9744" y2="228.282" gradientUnits="userSpaceOnUse">
<stop stop-color="#673AB7"/>
<stop offset="0.937" stop-color="#673AB7" stop-opacity="0"/>
</linearGradient>
<linearGradient id="paint3_linear_23_739" x1="140.838" y1="44.6602" x2="140.838" y2="222.032" gradientUnits="userSpaceOnUse">
<stop offset="0.235" stop-color="#1D44B3"/>
<stop offset="0.884" stop-color="#2044B3" stop-opacity="0.074"/>
<stop offset="0.936" stop-color="#2144B3" stop-opacity="0"/>
</linearGradient>
<linearGradient id="paint4_linear_23_739" x1="38.5" y1="26.6305" x2="57.1208" y2="96.0423" gradientUnits="userSpaceOnUse">
<stop offset="0.227" stop-color="white"/>
<stop offset="1" stop-color="white" stop-opacity="0"/>
</linearGradient>
<linearGradient id="paint5_linear_23_739" x1="151.489" y1="53.249" x2="151.489" y2="103.226" gradientUnits="userSpaceOnUse">
<stop offset="0.261" stop-color="white"/>
<stop offset="1" stop-color="white" stop-opacity="0"/>
</linearGradient>
<linearGradient id="paint6_linear_23_739" x1="130.903" y1="115.544" x2="130.903" y2="173.294" gradientUnits="userSpaceOnUse">
<stop stop-color="white"/>
<stop offset="1" stop-color="white" stop-opacity="0"/>
</linearGradient>
</defs>
</svg>
