<svg width="257" height="257" viewBox="0 0 257 257" fill="none" xmlns="http://www.w3.org/2000/svg">
<path d="M256.553 245.733L243.384 210.595L234.328 186.409C232.282 180.166 231.899 177.587 228.425 174.114L203.238 148.927L148.986 203.179L174.195 228.388C176.262 230.454 180.225 232.223 186.468 234.269L210.654 243.325L245.792 256.494C252.419 258.646 258.705 252.36 256.553 245.733Z" fill="#FFECB3"/>
<path d="M245.792 256.495L216.684 245.585C216.684 245.585 228.702 244.903 236.821 236.784C244.94 228.666 245.643 216.626 245.643 216.626L256.553 245.734C258.705 252.361 252.419 258.647 245.792 256.495Z" fill="#616161"/>
<path d="M84.613 30.323L73.085 71.4275L30.3823 84.5539L6.26084 60.4535C-0.38751 53.8052 -3.5412 40.5512 14.0811 22.9289L24.7142 12.2958C39.9499 -2.93993 53.8645 -0.44681 60.5129 6.20151L84.613 30.323Z" fill="#EF5350"/>
<path d="M65.627 87.7082L87.7241 65.6111L216.067 193.954C216.067 193.954 218.688 204.864 212.018 211.533C205.348 218.203 193.969 216.051 193.969 216.051L65.627 87.7082Z" fill="#FFC107"/>
<path d="M49.5601 103.775L174.387 228.602C194.545 232.991 193.671 215.753 193.671 215.753L65.6268 87.7085L49.5601 103.775Z" fill="#FFA000"/>
<path d="M87.7451 65.588L215.789 193.632C215.789 193.632 238.845 193.632 228.297 174.007L103.812 49.5212L87.7451 65.588Z" fill="#FDD835"/>
<path d="M193.48 218.544L64.3274 89.3915L67.3319 86.387L197.315 216.37L193.97 216.029L193.48 218.544Z" fill="#D1762C"/>
<path d="M216.578 197.469L78.1562 59.0475L81.182 56.043L218.559 193.42L216.066 193.932L216.578 197.469Z" fill="#F19534"/>
<path opacity="0.2" d="M103.812 49.5212C103.812 49.5212 92.1562 66.76 82.5034 76.5194C64.0286 95.1433 49.5601 103.773 49.5601 103.773L53.2891 107.502C58.595 105.435 72.1686 99.2346 85.721 85.7036C99.3586 72.0659 105.794 58.7479 107.946 53.6551L103.812 49.5212Z" fill="#4E342E"/>
<path d="M42.6558 103.178C43.8491 104.371 45.5325 104.904 47.1946 104.627C47.1946 104.627 64.6464 99.2996 81.9917 81.9543C99.337 64.6092 105.069 47.7114 105.069 47.7114C105.346 46.0493 104.813 44.3446 103.62 43.1514L85.3372 24.8685C84.5701 24.1014 83.5046 23.6965 82.4392 23.8243C82.0769 23.867 81.7147 23.9096 81.3311 23.9735C79.8821 24.1866 78.7315 25.252 78.3266 26.6584C78.3266 26.6584 69.9736 42.853 56.2081 56.5972C42.4427 70.3413 25.6514 78.3531 25.6514 78.3531C24.245 78.7367 23.1583 79.866 22.9452 81.315V81.3577C22.7747 82.5083 23.1583 83.659 23.968 84.4687L42.6558 103.178Z" fill="#94D1E0"/>
<path d="M31.3709 31.3466C43.878 18.839 51.015 5.69777 47.3118 1.99474C43.6087 -1.70832 30.4676 5.42919 17.9606 17.9367C5.45347 30.4443 -1.68357 43.5855 2.01961 47.2886C5.72273 50.9916 18.8638 43.8541 31.3709 31.3466Z" fill="#FF8383"/>
<path d="M81.2675 38.9106C74.2569 52.3351 62.7289 63.3517 49.0061 69.723C48.1111 70.1279 46.8539 70.4262 46.3212 69.6165C45.9163 68.9772 46.2786 68.1675 46.6834 67.5282C48.4734 64.7581 50.9452 62.5207 53.3318 60.2406C59.5539 54.2742 65.2646 47.7963 70.4 40.8923C73.021 37.3764 75.4715 33.7539 77.7729 30.0249C79.0514 27.9792 81.3314 23.6536 84.2507 26.7007C86.7865 29.3217 82.6099 36.3323 81.2675 38.9106ZM73.3193 63.9058C72.7653 64.4811 72.19 65.0564 71.913 65.8022C71.636 66.548 71.7425 67.5069 72.3818 67.9757C72.9145 68.3806 73.639 68.338 74.2995 68.2314C77.986 67.6561 81.2462 65.5678 84.1229 63.2239C90.4089 58.1311 95.7361 51.0566 96.2475 42.9806C96.3115 42.0217 96.2901 41.0202 95.864 40.1678C93.1578 34.8193 87.4257 46.7735 86.2964 48.4569C82.5247 54.0611 78.0286 59.09 73.3193 63.9058Z" fill="#B9E4EA"/>
</svg>
