<svg width="170" height="257" viewBox="0 0 170 257" fill="none" xmlns="http://www.w3.org/2000/svg">
<path d="M63.1061 3.29105C116.813 -10.7011 181.223 34.9133 167.837 110.821C157.11 171.57 129.452 190.436 100.372 214.363C86.916 225.44 71.548 259.907 41.7681 256.549C5.99485 252.538 -0.534817 223.551 0.537913 202.959C2.24029 170.404 6.99761 151.608 4.82883 128.404C-1.16446 64.1334 7.76718 17.703 63.1061 3.29105Z" fill="#FFCA28"/>
<path d="M105.852 157.159C100.931 177.074 87.1958 178.357 73.9732 184.816C63.759 189.807 60.1443 193.771 52.4953 202.237C45.849 209.582 30.6676 208.556 22.2955 196.197C19.4271 191.976 18.471 181.155 23.4615 173.18C34.4688 155.55 23.6248 146.105 25.3506 137.243C27.2162 127.775 36.5443 126.842 42.281 130.667C51.1427 136.544 56.0633 143.726 59.0716 148.46C61.6368 152.471 66.1143 153.917 66.1609 144.962C66.2542 123.111 26.1201 94.8003 42.0712 57.5811C53.9878 29.7601 79.6633 21.7379 106.482 33.981C132.903 46.0376 151.816 71.3402 149.694 101.587C148.668 115.975 142.301 129.944 132.087 140.135C134.279 137.943 132.903 90.4628 111.006 79.8754C101.165 75.1414 87.1258 78.8726 83.861 89.2268C81.8321 95.6865 84.2574 102.776 87.8954 108.489C91.5333 114.203 96.3606 119.1 99.8587 124.93C106.295 135.634 108.301 147.178 105.852 157.159Z" fill="#FFB300"/>
<path d="M26.9369 133.068C26.214 134.211 25.6543 135.586 25.3278 137.242C23.6021 146.081 34.4227 155.525 23.4389 173.179C19.8942 178.869 19.3811 185.958 20.3839 191.112C25.8408 193.234 33.3733 193.397 42.235 185.305C47.8785 180.175 49.6741 171.756 48.4848 164.41C45.4065 145.568 36.0551 144.308 26.9369 133.068Z" fill="#F09300"/>
<path d="M114.504 183.51C145.823 141.487 159.162 111.124 146.103 67.7489C140.343 48.5796 119.984 30.9029 102.051 25.3061C85.9599 20.2689 67.7235 23.2539 54.4543 33.0717C46.1523 39.2049 29.9214 59.7267 32.7198 84.0031C34.9586 103.569 43.1673 112.687 49.9302 119.38C61.3104 130.667 65.2282 138.806 65.2282 138.806C64.7851 133.698 64.9484 130.13 56.5531 117.794C51.5859 110.495 43.1673 99.8608 41.2317 83.0236C40.8586 79.7355 40.9519 76.6572 41.3483 73.6955C45.8025 81.7643 57.999 94.0308 80.9927 111.078C117.092 137.826 100.372 169.448 87.6623 174.719C78.4275 178.543 68.8662 181.202 61.427 188.268C58.2322 191.299 55.7602 195.264 55.2005 199.625C65.7646 186.029 79.7334 187.008 93.4923 180.129C105.292 174.229 109.816 168.609 111.752 151.585C113.315 137.849 108.441 124.627 99.1125 114.506C92.8394 107.72 63.4559 85.1457 58.8851 77.6133C53.4282 68.6117 50.4432 54.8061 60.2377 43.5891C71.3614 35.3571 86.6595 32.8851 100.185 37.1061C115.39 41.8634 134.256 58.654 139.223 75.0714C148.272 105.131 137.684 128.311 123.156 156.832C114.574 173.786 114.504 183.51 114.504 183.51Z" fill="#F09300"/>
</svg>
