<svg width="242" height="257" viewBox="0 0 242 257" fill="none" xmlns="http://www.w3.org/2000/svg">
<path d="M93.8687 42.3116C93.8687 42.3116 69.9486 36.8436 50.5163 45.013C32.3039 52.6813 29.7115 67.2991 31.3454 75.6859C32.9793 84.0732 38.2513 91.4147 48.817 92.0901C56.0279 92.5476 58.4678 88.4084 57.4657 86.6656C56.9429 85.7724 49.2963 80.9361 52.8037 74.9021C55.7447 69.8697 65.6569 74.51 68.489 78.8883C71.1468 82.9839 74.6324 88.9095 74.6324 88.9095C74.6324 88.9095 104.696 76.0345 104.064 75.2071C103.432 74.3792 93.8687 42.3116 93.8687 42.3116Z" fill="#E74B8C"/>
<path d="M92.4318 59.085L83.0207 50.6978L67.5969 69.4111L76.3762 83.0918L98.7713 73.2889L92.4318 59.085Z" fill="#FCD817"/>
<path d="M45.4189 67.2526C44.2426 70.7165 45.2882 76.272 40.9312 76.7513C36.4435 77.2523 33.1975 71.8275 35.9207 63.157C38.2734 55.6848 47.5539 51.2406 51.1484 57.3404C53.7844 61.8282 47.5539 60.9132 45.4189 67.2526Z" fill="#EF7FAD"/>
<path d="M67.1827 34.0312C66.5728 35.0551 55.9417 50.6968 55.9417 50.6968L66.1588 66.9485L78.4238 60.718L80.9727 48.344L67.1827 34.0312Z" fill="#BBD047"/>
<path d="M55.5267 22.0708L46.2245 33.813L55.3307 49.6725L63.805 45.468L67.7046 34.3358L55.5267 22.0708Z" fill="#62A5A8"/>
<path d="M42.8479 9.28491L36.4213 16.0383L45.9196 33.1178L51.344 29.1311L55.1129 21.5499L42.8479 9.28491Z" fill="#38B2E8"/>
<path d="M30.5839 0.809338C28.3836 3.00963 36.4005 15.95 36.4005 15.95C36.4005 15.95 42.3261 9.19659 42.3261 8.80446C42.3478 8.36876 33.1328 -1.7613 30.5839 0.809338Z" fill="#A37BCB"/>
<path d="M80.9937 47.5167C83.9565 46.6889 86.0043 52.2223 83.3465 57.8428C80.9719 62.8534 77.5299 66.7311 72.9114 69.3018C70.624 70.5653 67.182 71.9596 65.8531 69.4978C64.4153 66.8619 66.0491 65.5112 68.9248 63.4634C71.5608 61.5681 74.2403 58.7578 75.7653 56.1C77.2902 53.4422 78.7716 48.1267 80.9937 47.5167ZM66.877 32.7028C69.2733 32.0057 71.0597 36.7984 68.903 41.6129C66.9859 45.9046 64.6113 49.3249 60.9079 51.5252C59.0779 52.6144 56.2894 53.8126 55.222 51.6994C54.0673 49.4338 55.1566 47.8435 57.4658 46.0789C59.6008 44.4668 61.4525 41.504 62.6725 39.2384C63.9142 36.9727 65.0906 33.2257 66.877 32.7028ZM54.6556 19.6318C56.638 20.1764 58.0322 23.6838 56.2459 27.2784C54.6555 30.4808 53.1088 32.18 50.0153 33.8139C48.4686 34.6199 46.6822 35.6438 45.7019 34.4239C44.4601 32.8989 44.0026 30.7204 45.9415 29.4133C47.7279 28.2151 49.7321 26.7555 51.061 24.2067C51.9542 22.4421 52.8256 19.1307 54.6556 19.6318ZM41.5409 7.5193C42.8916 7.19253 44.5473 10.0246 43.3491 12.2902C42.2816 14.3162 40.9092 15.6016 38.8178 16.6472C37.7939 17.1701 36.6393 17.4751 36.0293 16.4948C35.3758 15.4273 34.7658 14.6866 36.0729 13.8588C37.2711 13.0963 38.9485 11.3753 39.6456 10.286C40.3428 9.21854 40.5388 7.78072 41.5409 7.5193Z" fill="#A364B2"/>
<path d="M92.1044 249.464C89.9041 248.005 100.818 210.055 105.11 199.947C109.402 189.817 111.951 181.342 111.951 181.342C111.951 181.342 91.4073 184.501 78.1184 184.61C67.9883 184.697 53.2834 183.39 53.2834 183.39L23.83 144.743C23.83 144.743 32.1083 129.712 37.0099 123.59C41.9116 117.447 56.6383 97.5134 64.0016 90.4768C71.365 83.4185 81.4733 76.0551 85.7867 74.2253C90.0784 72.3953 92.8451 71.1536 92.8451 71.1536C92.8451 71.1536 90.6884 57.9736 91.6251 49.6953C92.5401 41.4169 104.282 18.303 106.134 18.303C108.596 18.303 119.227 34.0536 121.362 44.7718C123.518 55.4901 146.828 85.5534 146.828 85.5534L214.907 214.369C214.907 214.369 216.127 248.724 215.822 249.944C215.517 251.164 177.785 256.392 154.78 256.392C131.775 256.392 93.9561 250.706 92.1044 249.464Z" fill="#DFDFDF"/>
<path d="M138.485 139.407C136.219 139.298 129.749 152.261 123.257 161.803C117.789 169.82 111.384 173.675 104.544 177.247C97.4856 180.929 87.007 183.326 90.5797 184.045C94.1525 184.764 115.48 182.39 122.626 179.383C126.656 177.706 132.276 169.406 135.152 163.894C138.028 158.382 143.191 139.603 138.485 139.407Z" fill="#B0B0B0"/>
<path d="M99.7505 114.484C100.208 121.238 97.7463 127.054 90.7097 127.512C85.7427 127.838 82.0175 122.806 81.3857 116.663C80.8847 111.87 82.8889 105.683 89.4462 104.768C95.6114 103.897 99.3148 108.319 99.7505 114.484Z" fill="#303030"/>
<path d="M121.057 44.8579C121.057 44.8579 139.552 53.1798 146.676 51.6113C152.188 50.3914 154.105 46.4047 154.345 42.418C154.65 37.0589 149.9 37.6689 149.138 35.5121C148.375 33.3554 154.04 29.5213 160.64 30.763C167.241 31.983 175.106 38.0828 174.953 47.8861C174.801 57.6894 168.766 62.9613 168.766 62.9613C168.766 62.9613 184.669 62.1989 195.3 73.0914C207.26 85.3564 204.646 105.442 204.646 105.442C204.646 105.442 210.942 106.357 213.23 103.133C215.517 99.9088 214.907 96.2272 213.382 94.0922C211.857 91.9355 216.301 90.563 219.199 91.783C222.118 93.003 235.581 102.654 228.261 118.23C223.73 127.903 212.293 129.362 212.293 129.362C212.293 129.362 231.464 137.837 238.479 159.208C246.19 182.736 237.76 198.377 229.024 213.387C220.288 228.419 221.072 229.312 220.593 234.236C219.983 240.379 218.131 248.047 215.844 247.873C213.535 247.721 210.79 241.272 209.395 234.236C208.023 227.177 199.418 220.271 192.534 213.997C185.65 207.723 168.352 191.145 163.385 175.982C157.089 156.811 160.314 130.125 160.314 130.125C160.314 130.125 141.295 121.389 130.708 103.896C119.249 84.9643 120.273 71.0872 120.273 71.0872C120.273 71.0872 123.192 62.8088 123.344 57.1229C123.497 51.437 121.057 44.8579 121.057 44.8579Z" fill="#E74B8C"/>
<path d="M150.968 58.0619C152.297 63.7696 162.775 60.8286 164.779 51.1561C166.784 41.4835 161.25 37.1918 158.026 39.0436C154.802 40.8735 158.789 45.7969 156.654 49.9361C154.519 54.0753 149.878 53.4435 150.968 58.0619ZM204.123 113.744C202.293 119.321 211.857 121.26 219.351 115.248C227.041 109.061 224.863 99.9109 220.419 100.368C214.776 100.957 217.173 107.34 213.186 109.758C209.199 112.198 205.605 109.278 204.123 113.744ZM138.855 65.251C131.492 64.336 130.468 78.6922 135.021 88.5609C142.232 104.203 154.192 101.283 162.47 111.413C168.875 119.256 167.372 129.364 173.973 129.212C180.574 129.059 182.251 118.014 172.143 104.529C162.013 91.0444 149.29 91.0444 145.456 82.9185C141.6 74.7711 147.439 66.3403 138.855 65.251ZM176.26 134.723C167.829 139.538 173.842 150.452 178.417 151.433C184.865 152.805 187.763 148.513 188.547 144.222C189.331 139.93 184.844 129.822 176.26 134.723ZM182.709 160.648C176.042 161.737 176.783 168.425 177.959 175.222C179.964 186.877 186.085 198.074 193.296 204.044C200.267 209.817 204.189 208.03 206.171 205.721C208.524 203.02 206.324 198.205 203.557 194.981C200.79 191.757 197.217 187.618 194.821 184.088C191.902 179.797 191.553 174.22 190.987 171.061C189.919 164.939 189.288 159.558 182.709 160.648Z" fill="#F081AF"/>
<path d="M7.27333 191.471C14.0267 204.215 29.8209 200.969 29.8209 200.969C29.8209 200.969 44.7001 194.216 44.7001 193.758C44.7001 193.301 54.5034 180.884 54.5034 180.884C54.5034 180.884 51.8892 169.686 41.7809 157.421C33.7858 147.748 25.3767 142.999 25.3767 142.999L6.96833 159.556C6.96833 159.556 -2.22497 173.52 7.27333 191.471Z" fill="white"/>
<path d="M19.3863 157.88C18.3189 161.866 21.848 163.391 23.068 164.786C24.288 166.158 21.3906 171.996 25.5297 173.521C29.6689 175.046 34.418 168.162 32.8931 162.171C31.2374 155.767 20.9984 151.911 19.3863 157.88Z" fill="#90909B"/>
<path d="M27.2063 142.499C26.1389 140.451 23.7861 141.475 21.4768 143.632C19.1676 145.788 6.14015 155.287 2.45848 163.979C-0.242873 170.362 -2.18174 182.671 4.83305 192.692C12.1093 203.105 18.6448 204.107 28.6006 203.279C43.1748 202.059 51.2353 190.099 52.782 188.095C54.3287 186.091 57.6836 181.756 55.8537 179.621C54.0238 177.464 52.3027 180.579 49.9282 183.803C46.8565 187.943 44.4165 190.448 41.3448 193.215C39.5585 194.827 34.439 197.615 32.304 198.073C30.1473 198.53 36.5521 194.848 39.0574 190.557C40.7566 187.659 44.264 180.753 44.264 180.753L38.2731 178.924C38.2731 178.924 35.3539 185.263 33.0665 188.03C30.7573 190.796 23.5682 197.027 21.4115 197.484C19.2548 197.942 11.1289 194.326 7.51261 187.834C4.027 181.603 3.48238 172.649 7.01156 165.591C10.5407 158.533 19.4291 151.322 22.1958 149.187C24.9189 146.987 28.5788 145.113 27.2063 142.499Z" fill="#AFAFAF"/>
<path d="M44.6998 174.807C43.0442 173.369 40.2992 174.393 38.8832 176.332C37.4454 178.271 36.9443 180.515 39.7982 182.062C42.652 183.587 44.5038 181.953 45.8326 180.123C47.1397 178.271 46.2248 176.136 44.6998 174.807Z" fill="#90909B"/>
</svg>
