<svg width="257" height="219" viewBox="0 0 257 219" fill="none" xmlns="http://www.w3.org/2000/svg">
<path d="M93.9294 116.484L5.00705 119.699C5.00705 119.699 -0.630992 114.061 0.183629 112.046C0.998251 110.031 74.6358 52.4932 77.4441 52.9005C80.2524 53.3078 86.705 60.1462 91.9358 57.7238C97.1665 55.3015 91.9358 41.2171 93.5436 39.2234C95.1514 37.2083 152.689 6.23123 156.312 4.62343C159.935 3.01562 163.151 -0.607303 170.397 1.0005C177.643 2.60831 195.757 5.82392 215.458 19.1151C235.159 32.4063 255.696 47.6912 254.088 56.1374C252.481 64.5838 93.9294 116.484 93.9294 116.484Z" fill="#FFE265"/>
<path d="M32.3607 217.498C52.0831 215.076 235.973 175.652 243.627 174.452C251.28 173.251 256.103 166.005 256.103 157.945C256.103 149.884 254.088 56.1387 254.088 56.1387C254.088 56.1387 245.234 58.947 234.773 61.3694C224.311 63.7704 138.583 84.6933 104.798 92.3465C71.0124 99.9996 17.0759 114.084 11.0305 114.084C4.98516 114.084 0.161743 112.069 0.161743 112.069C0.161743 112.069 1.76955 195.761 2.17686 201.806C2.58417 207.851 5.39247 215.076 12.231 217.091C19.0695 219.106 23.5285 218.57 32.3607 217.498Z" fill="#FEB502"/>
<path d="M151.36 24.5402C151.36 29.6852 156.591 33.0937 165.252 32.8365C174.706 32.5578 177.321 26.9412 177.021 23.3397C176.721 19.7168 172.369 16.544 163.751 16.6941C155.755 16.8441 151.36 20.0169 151.36 24.5402Z" fill="#FF8B0D"/>
<path d="M54.7845 88.6791C40.8501 93.3739 42.4151 105.572 46.4882 108.294C50.5613 111.017 55.985 110.867 62.3304 108.594C68.6759 106.322 72.7061 103.728 73.3493 99.4836C73.9495 95.4533 68.6759 83.9843 54.7845 88.6791ZM181.394 53.8218C172.047 54.2505 161.714 60.9605 157.855 67.4132C153.782 74.2089 153.482 82.205 162.829 87.1785C172.176 92.152 205.232 79.4825 203.581 67.8634C201.931 56.2229 191.212 53.3716 181.394 53.8218ZM148.959 147.825C148.959 147.825 162.229 138.007 162.229 131.082C162.229 124.137 156.505 107.737 132.195 106.494C109.407 105.315 95.3654 136.377 110.307 152.37C125.249 168.362 134.296 161.116 139.891 159.616C145.486 158.093 148.959 147.825 148.959 147.825ZM83.3176 175.736C83.3176 175.736 96.5016 167.483 86.3831 158.436C79.2659 152.07 69.7478 154.942 64.9029 159.894C58.7075 166.24 60.3796 176.337 66.1034 180.86C71.8486 185.405 83.3176 175.736 83.3176 175.736ZM38.6421 138.628C38.6421 138.628 37.1415 133.891 31.7607 131.983C25.7153 129.839 16.6902 137.363 20.5489 145.403C24.0218 152.648 31.7178 150.526 31.7178 150.526L38.6421 138.628ZM231.643 145.553C232.951 144.138 241.504 137.964 241.504 133.269C241.504 128.596 228.62 114.147 212.178 125.016C195.735 135.884 204.332 152.327 208.855 155.049C213.378 157.772 225.919 151.748 231.643 145.553Z" fill="#ED6B31"/>
<path d="M56.7993 96.0743C47.6455 99.247 44.1941 105.721 46.4879 108.294C48.9103 111.016 54.1839 112.817 63.3805 109.494C70.4978 106.922 74.0993 102.613 73.499 98.7754C73.0703 95.9885 65.0955 93.2017 56.7993 96.0743ZM26.2724 138.306C22.2636 143.322 25.5221 149.025 29.2951 150.375C33.068 151.726 39.7136 147.653 39.2635 140.878C38.7918 134.083 29.8953 133.783 26.2724 138.306ZM72.8988 165.639C64.2809 172.627 64.0451 179.466 67.3679 181.781C69.6831 183.41 78.2152 186.797 86.0185 181.031C91.8066 176.765 91.9137 167.804 90.0916 163.516C88.5695 159.872 80.1446 159.743 72.8988 165.639ZM125.206 127.544C113.673 138.756 110.929 156.957 122.248 161.244C132.216 165.017 146.536 162.745 154.983 152.348C163.858 141.414 164.801 129.345 159.099 122.228C152.281 113.674 134.124 118.905 125.206 127.544ZM177.621 64.99C162.529 70.1136 153.632 80.9824 161.328 86.4275C169.024 91.8511 177.02 91.0579 185.767 88.0781C195.692 84.7125 203.281 76.9092 203.581 69.5133C203.817 63.4465 190.912 60.4667 177.621 64.99ZM217.923 134.383C207.654 142.744 204.653 151.126 208.876 155.049C213.099 158.972 223.218 160.772 232.565 154.298C242.276 147.567 242.983 139.935 241.911 133.783C240.711 126.858 228.47 125.787 217.923 134.383Z" fill="#FF8B0D"/>
</svg>
