<svg width="257" height="240" viewBox="0 0 257 240" fill="none" xmlns="http://www.w3.org/2000/svg">
<path d="M83.2989 14.8061V10.4032C83.2989 1.62274 78.0357 -0.199144 72.2664 0.838319L23.9358 9.56819C18.1412 10.6057 13.8902 15.8183 13.8902 21.8912V33.1262C13.8902 37.2254 11.0308 40.7427 7.1087 41.4512L6.24837 41.603C2.85763 42.2103 0.352539 45.2468 0.352539 48.8146L3.08537 236.14C3.08537 236.14 2.88294 239.126 5.69168 239.328C8.60164 239.531 10.8031 237.304 13.713 236.621L240.538 182.571C243.929 181.964 246.434 178.928 246.434 175.36V8.27769C246.434 3.74828 242.486 0.306936 238.159 1.06606L95.6725 25.5856C89.22 26.7243 83.2989 24.2951 83.2989 14.8061Z" fill="#F3AB47"/>
<path d="M251.241 176.04L256.352 25.1021C256.352 20.5727 252.405 17.1313 248.078 17.8905L105.693 42.2329C102.474 42.7824 99.5346 44.4037 97.3524 46.8332C95.1712 49.2634 93.8746 52.3596 93.6732 55.6187L93.0912 65.1583C92.8665 68.8709 91.3908 72.3983 88.9049 75.1645C86.4191 77.9307 83.0698 79.7729 79.4018 80.3913L22.0883 90.0321C19.3375 90.4977 16.8404 91.9228 15.0389 94.0524C13.2373 96.183 12.2476 98.8824 12.245 101.672L5.69128 239.275C5.69128 239.275 6.52631 239.629 15.9141 237.251L241.626 183.834C245.042 183.277 248.938 180.089 251.241 176.04Z" fill="#FFE36C"/>
<path d="M21.1517 92.7405L78.7436 82.8972C93.1669 79.6836 95.4695 74.218 95.4442 62.73L95.4695 59.7694C95.925 51.1154 100.125 46.004 108.653 44.5365L249.52 20.1182" stroke="#FFF9C4" stroke-width="5.06129" stroke-miterlimit="10" stroke-linecap="round"/>
</svg>
