<svg width="256" height="179" viewBox="0 0 256 179" fill="none" xmlns="http://www.w3.org/2000/svg">
<path d="M215.912 121.067C210.259 112.277 182.419 82.2191 176.446 74.4538C170.472 66.6886 155.113 22.4012 140.329 17.9852C125.545 13.5479 110.953 14.6999 95.5078 19.2652C80.0627 23.8305 65.6202 23.4038 48.4683 18.5399C31.3165 13.6759 13.0127 2.19873 13.0127 2.19873C5.05546 8.27867 0.959499 25.2598 0.106175 49.2807C-0.747107 73.3018 3.77547 86.3577 5.35412 90.3257C6.93277 94.2936 18.794 100.16 32.1485 110.485C33.3005 111.36 128.105 176.127 130.11 177.045C144.595 183.637 153.811 170.303 153.811 170.303C153.811 170.303 161.491 174.698 168.915 170.303C177.982 164.928 176.915 158.25 176.915 158.25C176.915 158.25 185.704 159.68 191.016 156.202C201.149 149.568 197.885 141.909 197.885 141.909C197.885 141.909 206.931 144.81 212.264 140.032C217.597 135.253 221.544 129.856 215.912 121.067Z" fill="#FFCA28"/>
<path d="M116.052 157.674C115.924 157.333 115.796 156.992 115.604 156.65C111.466 148.65 103.594 148.97 103.252 148.693C102.804 148.352 102.89 142.378 102.399 140.053C99.7963 127.872 85.7164 128.192 85.3538 127.936C84.8631 127.616 87.4444 119.296 79.2952 112.277C77.3539 110.592 74.4098 110.763 71.8497 111.061C64.6605 111.936 61.3752 115.307 60.8632 115.2C59.6472 114.965 61.0125 106.048 52.1806 105.75C45.7594 105.536 41.5567 108.672 38.0154 113.536C34.3888 118.528 32.1275 123.584 36.2448 129.493C41.4287 136.939 47.1033 134.933 47.1033 134.933C47.1033 134.933 45.3967 144.042 50.6233 148.906C55.8499 153.77 66.3885 153.472 66.3885 153.472C66.3885 153.472 65.5138 164.224 73.1084 169.344C80.7032 174.463 89.8124 169.813 89.8124 169.813C89.8124 169.813 93.3537 178.986 103.7 177.642C112.767 176.49 119.487 166.698 116.052 157.674Z" fill="#FFCA28"/>
<path d="M217.342 123.839C216.958 123.242 216.638 122.751 216.595 122.026C216.553 121.215 194.921 92.5222 185.812 80.981C187.646 86.2502 190.292 91.2635 193.662 95.7221C199.102 102.933 206.74 109.695 206.889 118.719C206.953 123.157 204.99 127.594 201.641 130.516C198.292 133.439 193.641 134.804 189.246 134.122C187.838 133.908 185.812 133.908 185.641 135.316C185.577 135.722 185.748 136.127 185.876 136.532C187.284 140.884 185.556 145.962 181.993 148.82C178.431 151.7 173.353 152.362 169.023 150.868C167.892 150.484 166.399 150.036 165.695 150.996C165.14 151.743 165.503 152.767 165.759 153.642C167.103 158.42 163.924 163.711 159.359 165.673C154.815 167.636 149.375 166.697 145.108 164.18C144.17 163.625 142.676 163.135 142.207 164.137C142.058 164.436 142.1 164.799 142.122 165.119C142.292 168.425 140.735 171.796 138.09 173.801C135.444 175.807 131.796 176.404 128.639 175.337L127.85 175.828C128.788 176.383 129.578 176.788 130.09 177.023C144.575 183.615 153.791 170.281 153.791 170.281C153.791 170.281 161.471 174.676 168.895 170.281C177.961 164.905 176.895 158.228 176.895 158.228C176.895 158.228 185.684 159.657 190.996 156.18C201.129 149.546 197.865 141.887 197.865 141.887C197.865 141.887 206.91 144.788 212.244 140.01C213.566 138.836 214.825 137.599 215.913 136.212C218.046 133.482 219.134 130.239 218.409 126.783C218.195 125.759 217.897 124.714 217.342 123.839Z" fill="#FFB300"/>
<path d="M148.521 165.954C154.964 169.965 157.567 171.714 157.567 171.714C155.241 171.991 150.164 172.951 138.025 163.565C134.676 160.984 121.322 150.658 127.508 148.12C132.073 146.242 139.455 160.322 148.521 165.954ZM176.724 159.085C172.713 158.744 156.969 149.592 144.767 137.005C143.487 135.682 142.292 134.552 141.289 133.592C140.073 132.418 140.031 130.477 141.204 129.24C141.484 128.948 141.818 128.714 142.189 128.551C142.559 128.389 142.958 128.301 143.362 128.294C143.767 128.286 144.169 128.358 144.545 128.505C144.921 128.653 145.265 128.874 145.556 129.155C146.58 130.136 147.775 131.309 149.097 132.632C151.871 135.384 158.953 143.341 172.926 152.941C176.062 155.096 180.009 157.272 183.636 158.445C184.041 158.573 180.713 159.426 176.724 159.085ZM193.044 140.354C184.553 136.621 176.276 128.941 162.025 110.659C160.98 109.315 161.151 107.395 162.473 106.328C163.796 105.261 165.737 105.453 166.804 106.776C171.369 112.365 176.062 117.869 181.097 123.053C183.081 125.101 192.318 133.037 193.492 133.869C204.563 141.549 209.107 142.061 209.107 142.061C207.806 142.594 202.771 144.621 193.044 140.354ZM9.83477 95.2349C8.87478 94.5309 9.74944 93.0376 10.8161 93.5282C17.0667 96.3442 25.8559 100.461 32.5119 103.853C38.6345 106.968 42.3891 108.824 42.3891 108.824L36.2238 114.819L9.83477 95.2349Z" fill="#D69513"/>
<path d="M254.525 39.8514C251.368 18.8381 247.208 4.54493 244.114 1.08896C240.573 -2.83633 234.493 4.97159 221.629 9.53688C208.765 14.1022 185.598 15.8301 185.598 15.8301C185.598 15.8301 145.086 15.7448 130.899 19.7128C119.7 22.8487 105.833 31.7235 94.1852 38.7634C84.884 44.3954 76.5 48.086 75.796 52.1606C75.1347 56.0432 79.444 64.7258 90.1532 65.6005C107.54 67.0298 125.929 56.0432 125.929 56.0432C131.881 52.6726 134.099 52.2673 145.982 52.2673C157.865 52.2673 170.11 61.3338 170.984 62.7845C179.859 77.3977 187.838 84.8216 195.987 94.7202C201.939 101.952 215.933 121.088 215.933 121.088C215.933 121.088 231.656 102.507 235.666 98.2188C239.677 93.9308 254.546 83.0723 254.546 83.0723C254.546 83.0723 257.831 61.8458 254.525 39.8514Z" fill="#FFCA28"/>
<path d="M216.553 104.213C215.251 96.4053 211.475 88.7467 213.267 81.0881C213.545 79.9574 213.801 78.8268 213.929 77.6748C214.526 71.5735 208.766 74.2402 207.913 74.3255C205.716 74.5602 180.457 73.6215 183.273 76.4801L215.913 120.64C215.913 120.64 217.193 120.234 217.491 117.077C217.811 113.877 216.659 104.875 216.553 104.213Z" fill="#FFB300"/>
<path d="M195.987 76.9732L169.769 67.8853C173.225 71.2986 176.105 74.9892 179.39 78.3811C189.374 90.0077 204.457 109.762 215.678 121.026C216.147 121.495 216.894 120.898 216.553 120.343C210.323 110.509 194.323 85.1011 193.491 82.6051C191.913 77.7625 195.987 76.9732 195.987 76.9732Z" fill="#D69513"/>
<path d="M148.115 56.683C157.822 58.4109 160.723 60.7362 168.681 66.8162C188.222 81.7067 206.035 76.0534 208.318 75.3494C220.861 71.6588 198.056 71.6588 194.472 70.2721C165.651 63.5309 163.817 42.4538 128.894 51.9897C117.097 56.299 97.8547 71.8081 82.7722 61.0776C80.6175 59.5416 77.1615 56.4483 77.5455 53.0137C78.2709 46.3577 95.892 42.3684 103.508 35.5205C113.897 27.4779 126.91 21.2915 139.646 18.0062C133.396 17.3022 126.292 18.6462 121.108 20.3315C107.22 24.8755 97.5987 35.3499 82.8148 41.1951C70.5909 46.0164 71.6363 50.1124 71.6576 52.9497C71.6789 55.787 73.9189 63.2109 80.6815 66.8589C106.196 80.576 124.393 52.4377 148.115 56.683ZM117.481 168.063C116.713 169.983 113.471 173.29 111.785 173.844C111.785 173.844 116.884 162.709 114.132 157.695C112.447 153.471 107.412 151.914 103.252 152.853C96.5534 155.007 92.3721 165.247 91.2627 171.562C90.9641 173.204 89.1721 170.239 89.4281 166.932C90.3027 155.754 98.8787 151.423 99.8173 141.589C100.415 135.509 94.5907 131.114 88.6174 132.373C80.8308 133.247 77.2255 140.714 73.4923 146.773C71.8496 149.674 68.5216 155.221 68.1803 158.527C67.8816 161.407 67.1776 162.005 66.495 158.421C63.5297 143.21 82.6442 130.09 81.4708 121.834C80.2335 113.088 73.8122 111.509 68.2656 114.048C59.9884 117.866 51.8818 131.328 48.7458 137.685C47.8499 138.965 47.1459 142.442 47.1459 142.442C44.1592 135.103 50.5805 125.354 53.7805 120.725C55.1671 118.378 58.1751 115.562 56.9164 112.704C54.9751 108.266 51.6685 108.373 48.9805 108.906C42.0472 110.293 34.2393 120.213 34.2393 120.213C33.9833 117.696 37.1193 112.704 39.5513 109.845C45.6099 102.549 58.6657 101.227 63.231 112.341C75.6469 103.85 88.8308 108.928 88.3401 124.821C88.8308 126.272 94.2707 124.544 100.863 129.6C107.476 134.655 105.428 146.133 105.428 146.133C105.428 146.133 112.041 146.837 115.689 151.423C119.06 155.669 119.593 163.605 117.481 168.063ZM212.755 114.261C212.755 114.261 228.371 98.6239 233.981 95.0186C239.592 91.4133 247.784 86.4853 248.061 87.872C248.338 89.2586 235.005 98.6452 229.992 104.533C225 110.442 216.595 120.32 216.595 120.32L212.755 114.261Z" fill="#D69513"/>
</svg>
