<svg width="256" height="256" viewBox="0 0 256 256" fill="none" xmlns="http://www.w3.org/2000/svg">
<path fill-rule="evenodd" clip-rule="evenodd" d="M225.378 44.9273C179.5 -8.85197 98.7114 -15.2568 44.9322 30.6216C-8.84708 76.5001 -15.252 157.288 30.6265 211.068C76.5049 264.847 157.293 271.252 211.073 225.374C264.852 179.495 271.257 98.7066 225.378 44.9273ZM161.611 112.108C166.544 112.108 169.693 117.453 167.218 121.719L166.506 122.946L118.202 202.42C117.304 203.898 115.701 204.798 113.973 204.798H109.362C106.202 204.798 103.892 201.815 104.684 198.756L117.791 148.08C118.839 144.028 115.78 140.078 111.596 140.078H91.4621C87.2774 140.078 84.2191 136.128 85.2663 132.076L105.045 55.5683C105.764 52.9936 108.095 51.181 110.769 51.2113C111.092 51.2151 111.386 51.2204 111.63 51.2281L131.905 51.2278C135.784 51.2259 138.773 54.6472 138.251 58.4905L138.126 59.4055L130.393 104.63C129.725 108.538 132.736 112.108 136.702 112.108H161.611Z" fill="url(#paint0_radial_23_1967)"/>
<path fill-rule="evenodd" clip-rule="evenodd" d="M225.378 44.9273C179.5 -8.85197 98.7114 -15.2568 44.9322 30.6216C-8.84708 76.5001 -15.252 157.288 30.6265 211.068C76.5049 264.847 157.293 271.252 211.073 225.374C264.852 179.495 271.257 98.7066 225.378 44.9273ZM161.611 112.108C166.544 112.108 169.693 117.453 167.218 121.719L166.506 122.946L118.202 202.42C117.304 203.898 115.701 204.798 113.973 204.798H109.362C106.202 204.798 103.892 201.815 104.684 198.756L117.791 148.08C118.839 144.028 115.78 140.078 111.596 140.078H91.4621C87.2774 140.078 84.2191 136.128 85.2663 132.076L105.045 55.5683C105.764 52.9936 108.095 51.181 110.769 51.2113C111.092 51.2151 111.386 51.2204 111.63 51.2281L131.905 51.2278C135.784 51.2259 138.773 54.6472 138.251 58.4905L138.126 59.4055L130.393 104.63C129.725 108.538 132.736 112.108 136.702 112.108H161.611Z" fill="url(#paint1_radial_23_1967)"/>
<mask id="mask0_23_1967" style="mask-type:alpha" maskUnits="userSpaceOnUse" x="0" y="0" width="256" height="256">
<path d="M127.995 255.998C198.685 255.998 255.99 198.692 255.99 128.003C255.99 57.3131 198.685 0.0078125 127.995 0.0078125C57.3053 0.0078125 0 57.3131 0 128.003C0 198.692 57.3053 255.998 127.995 255.998Z" fill="url(#paint2_radial_23_1967)"/>
</mask>
<g mask="url(#mask0_23_1967)">
<g filter="url(#filter0_f_23_1967)">
<path d="M7.11302 85.9268C0.450032 105.07 -1.57127 125.522 1.21548 145.598C4.00223 165.676 11.5173 184.804 23.1422 201.409C34.767 218.013 50.1693 231.619 68.0812 241.108C85.9927 250.596 105.901 255.694 126.169 255.983C146.437 256.272 166.482 251.744 184.658 242.771C202.833 233.798 218.617 220.636 230.711 204.37C242.805 188.104 250.862 169.198 254.221 149.208C257.579 129.219 256.142 108.718 250.028 89.3922L212.813 101.167C217.062 114.598 218.06 128.847 215.726 142.741C213.392 156.634 207.792 169.774 199.386 181.08C190.98 192.386 180.01 201.533 167.377 207.769C154.745 214.007 140.812 217.154 126.726 216.952C112.64 216.751 98.8018 213.208 86.3534 206.613C73.9037 200.019 63.1987 190.563 55.1191 179.022C47.0394 167.48 41.8162 154.187 39.8793 140.232C37.9424 126.277 39.3473 112.063 43.9783 98.7583L7.11302 85.9268Z" fill="white"/>
</g>
</g>
<defs>
<filter id="filter0_f_23_1967" x="-80" y="5.92676" width="415.99" height="330.069" filterUnits="userSpaceOnUse" color-interpolation-filters="sRGB">
<feFlood flood-opacity="0" result="BackgroundImageFix"/>
<feBlend mode="normal" in="SourceGraphic" in2="BackgroundImageFix" result="shape"/>
<feGaussianBlur stdDeviation="40" result="effect1_foregroundBlur_23_1967"/>
</filter>
<radialGradient id="paint0_radial_23_1967" cx="0" cy="0" r="1" gradientUnits="userSpaceOnUse" gradientTransform="translate(25.6044 127.997) scale(249.595 2545.25)">
<stop stop-color="#31B2F3"/>
<stop offset="0.473958" stop-color="#F27CEC"/>
<stop offset="1" stop-color="#FD6641"/>
</radialGradient>
<radialGradient id="paint1_radial_23_1967" cx="0" cy="0" r="1" gradientUnits="userSpaceOnUse" gradientTransform="translate(25.6044 127.997) scale(249.595 2545.25)">
<stop stop-color="#31B2F3"/>
<stop offset="0.473958" stop-color="#F27CEC"/>
<stop offset="1" stop-color="#FD6641"/>
</radialGradient>
<radialGradient id="paint2_radial_23_1967" cx="0" cy="0" r="1" gradientUnits="userSpaceOnUse" gradientTransform="translate(25.599 128.004) scale(249.59 2545.2)">
<stop stop-color="#F27CEC"/>
<stop offset="0.484375" stop-color="#31B2F3"/>
<stop offset="1" stop-color="#7D7573"/>
</radialGradient>
</defs>
</svg>
