<svg width="229" height="257" viewBox="0 0 229 257" fill="none" xmlns="http://www.w3.org/2000/svg">
<path d="M40.1072 232.054L27.8487 256.698C27.8487 256.698 4.13621 257.227 2.78121 256.338C1.42621 255.449 -14.114 158.418 56.4307 80.654C131.04 -1.64088 224.79 -1.04808 227.034 1.66192C229.278 4.35077 228.728 37.2519 228.728 37.2519L40.1072 232.054Z" fill="#FF5117"/>
<path d="M129.875 53.3426C83.5508 79.5323 48.5748 119.166 32.3783 181.178C24.6718 210.671 27.5723 256.656 27.5723 256.656H54.9264L136.29 137.205L228.726 50.5691V25.2476C228.726 25.2476 173.425 28.6986 129.875 53.3426Z" fill="#FF8E00"/>
<path d="M73.2196 152.238C50.8834 195.259 54.8849 256.658 54.8849 256.658L81.5825 256.637L172.77 135.491L228.748 77.9249L228.706 50.592C228.706 50.592 196.8 50.2956 147.131 74.3468C107.243 93.6344 85.3723 128.843 73.2196 152.238Z" fill="#F9D81E"/>
<path d="M118.633 130.662C72.3302 188.525 81.0954 256.635 81.0954 256.635H110.8L161.527 164.601L228.748 108.855L228.727 77.6479C228.727 77.6479 160.003 78.9395 118.633 130.662Z" fill="#97CC37"/>
<path d="M142.897 143.686C96.7 188.041 106.968 256.638 106.968 256.638H130.808L166.334 167.589L228.749 134.921L228.728 104.116C228.728 104.116 187.887 100.517 142.897 143.686Z" fill="#00C0E9"/>
<path d="M227.796 151.812C229.214 149.589 228.748 126.406 228.748 126.406C228.748 126.406 190.11 125.708 157.547 162.398C125.049 199.026 129.728 256.634 129.728 256.634C129.728 256.634 152 257.312 152.911 255.512C154.732 251.913 146.75 209.506 173.32 179.59C200.844 148.615 227.012 152.998 227.796 151.812Z" fill="#8177FA"/>
</svg>
