<svg width="250" height="257" viewBox="0 0 250 257" fill="none" xmlns="http://www.w3.org/2000/svg">
<path d="M6.99655 186.2C5.81617 183.416 4.68033 180.632 3.56677 177.848C-4.8295 156.668 5.70481 137.559 15.1033 118.851L28.7334 91.7693C31.4727 86.3128 35.682 81.7249 40.849 78.5179L80.0465 54.1976L118.776 14.1537C121.181 11.659 124.249 9.90464 127.618 9.09815L153.987 2.72855C166.749 -0.32262 172.228 0.16735 176.348 6.02471C190.624 26.2916 200.178 42.9728 212.895 63.1729C219.821 74.175 235.812 99.4529 236.814 101.123C239.888 106.29 238.641 110.611 238.529 116.535C238.262 130.187 240.667 143.906 245.656 156.623C247.148 160.41 248.863 164.151 249.643 168.138C250.355 171.723 249.398 194.507 248.663 202.213C248.061 208.471 233.273 231.834 227.973 234.662C222.138 237.78 178.887 253.682 169.332 256.399C159.778 259.116 118.353 249.651 96.8391 246.355C83.5431 244.328 70.2249 242.279 56.9289 240.252C45.3923 238.493 33.9226 239.829 27.4639 228.181C19.8694 214.551 13.0544 200.542 6.99655 186.2Z" fill="url(#paint0_linear_23_1262)"/>
<path d="M56.9067 240.229C70.2026 242.256 83.5209 244.305 96.8169 246.331C103.743 247.4 112.741 249.093 122.073 250.83C115.792 243.391 106.416 234.572 100.135 227.133C98.7768 225.53 97.3959 223.859 96.906 221.811C96.3937 219.628 96.9728 217.379 97.5741 215.218C99.4894 208.136 99.9794 200.452 101.895 193.37C90.0241 196.132 62.6749 201.388 60.4255 200.742C57.9311 200.029 55.9044 198.225 53.9668 196.466C39.8691 183.593 28.8448 170.609 18.0655 154.907C16.796 153.059 15.5043 151.144 15.0366 148.939C14.5911 146.868 14.9252 144.729 15.2593 142.658C16.061 137.491 17.8427 123.171 19.2681 110.543L15.0811 118.85C5.70487 137.558 -4.8295 156.667 3.58909 177.847C4.70266 180.653 5.8385 183.437 7.01888 186.199C13.0603 200.538 19.878 214.538 27.4417 228.136C33.8781 239.806 45.3701 238.469 56.9067 240.229Z" fill="url(#paint1_linear_23_1262)"/>
<path d="M176.525 6.26899C173.786 3.03965 168.441 3.66325 162.829 8.78565L142.651 28.9635C141.403 30.2107 140.735 31.9256 140.847 33.685L143.007 74.8869C143.074 76.2677 143.586 77.5594 144.477 78.6062C151.648 86.9802 176.993 127.224 184.343 127.224C191.67 127.224 204.476 98.6726 211.001 98.8285C212.115 98.8508 217.928 99.2071 223.607 100.944C228.908 102.548 230.979 95.2651 229.887 90.0982C224.409 81.4124 217.037 69.7645 212.894 63.1722C200.222 43.0612 190.69 26.4245 176.525 6.26899Z" fill="url(#paint2_linear_23_1262)"/>
<path d="M82.6304 87.3819C90.0467 86.2683 114.79 82.0591 119.445 80.2328C128.532 76.6471 136.549 61.369 141.85 53.1509C141.85 53.1509 143.676 79.9433 141.85 90.4108C140.58 97.6935 135.792 135.777 130.981 144.909L101.895 193.371L59.1565 150.632C55.5263 147.002 53.21 145.087 51.896 139.942C48.8894 128.183 43.4329 110.834 43.4107 100.611C43.3884 90.3885 70.938 89.1191 82.6304 87.3819Z" fill="url(#paint3_linear_23_1262)"/>
<path d="M136.684 30.2989C133.833 26.8914 133.031 22.0585 134.011 17.7378C134.835 14.1299 142.318 7.15896 144.746 4.9541L127.619 9.09657C124.254 9.91215 121.187 11.6651 118.777 14.1522L80.0476 54.196C80.0476 54.196 117.553 38.5615 136.684 30.2989Z" fill="url(#paint4_linear_23_1262)"/>
<path d="M245.633 156.624C241.895 147.077 239.597 137.026 238.818 126.803C226.035 135.555 218.886 146.914 198.307 149.698C192.85 150.433 184.41 151.457 179.087 152.86C172.494 154.597 166.392 159.475 156.504 160.388C149.466 161.056 131.716 160.544 134.388 164.508C137.061 168.472 152.985 176.468 156.949 179.697C162.584 184.218 167.483 189.541 172.183 195.02C174.632 197.893 178.307 204.864 182.583 206.757C183.675 207.247 184.833 207.38 185.991 207.024C188.018 206.423 189.643 204.953 191.225 203.55C206.556 189.967 223.791 178.698 242.382 170.098C244.364 169.185 246.502 168.161 247.482 166.201C247.905 165.332 248.083 164.152 248.106 162.882C247.326 160.789 246.458 158.718 245.633 156.624Z" fill="url(#paint5_linear_23_1262)"/>
<path d="M249.621 168.14C249.331 166.692 248.908 165.267 248.418 163.864C248.039 165.178 247.215 166.625 245.434 167.984C240.311 171.904 220.556 177.939 198.82 196.981C184.633 209.409 184.611 211.079 181.559 224.776C176.571 247.203 168.642 255.354 167.128 256.735C167.952 256.646 168.687 256.535 169.288 256.357C178.865 253.662 222.093 237.738 227.928 234.62C233.229 231.791 248.017 208.429 248.618 202.17C249.376 194.509 250.333 171.726 249.621 168.14Z" fill="url(#paint6_linear_23_1262)"/>
<defs>
<linearGradient id="paint0_linear_23_1262" x1="182.241" y1="30.9686" x2="79.6412" y2="291.641" gradientUnits="userSpaceOnUse">
<stop stop-color="#9E958E"/>
<stop offset="0.46" stop-color="#8E8884"/>
<stop offset="1" stop-color="#757575"/>
</linearGradient>
<linearGradient id="paint1_linear_23_1262" x1="6.83848" y1="251.67" x2="92.1639" y2="156.792" gradientUnits="userSpaceOnUse">
<stop stop-color="#37474F"/>
<stop offset="0.612" stop-color="#42565F" stop-opacity="0.192"/>
<stop offset="0.757" stop-color="#455A64" stop-opacity="0"/>
</linearGradient>
<linearGradient id="paint2_linear_23_1262" x1="208.826" y1="132.663" x2="153.648" y2="10.2667" gradientUnits="userSpaceOnUse">
<stop stop-color="#9E958E"/>
<stop offset="0.442" stop-color="#AEA298"/>
<stop offset="1" stop-color="#C9B8A9"/>
</linearGradient>
<linearGradient id="paint3_linear_23_1262" x1="70.6307" y1="216.945" x2="92.9019" y2="96.123" gradientUnits="userSpaceOnUse">
<stop stop-color="#4C5C64"/>
<stop offset="1" stop-color="#455A64" stop-opacity="0"/>
</linearGradient>
<linearGradient id="paint4_linear_23_1262" x1="80.0521" y1="29.5773" x2="144.75" y2="29.5773" gradientUnits="userSpaceOnUse">
<stop stop-color="#4C5C64"/>
<stop offset="1" stop-color="#455A64" stop-opacity="0"/>
</linearGradient>
<linearGradient id="paint5_linear_23_1262" x1="181.449" y1="154.725" x2="257.963" y2="186.261" gradientUnits="userSpaceOnUse">
<stop stop-color="#9E958E"/>
<stop offset="0.25" stop-color="#AEA298"/>
<stop offset="0.566" stop-color="#C9B8A9"/>
</linearGradient>
<linearGradient id="paint6_linear_23_1262" x1="220.169" y1="258.844" x2="204.49" y2="196.996" gradientUnits="userSpaceOnUse">
<stop stop-color="#37474F"/>
<stop offset="0.808" stop-color="#42565F" stop-opacity="0.192"/>
<stop offset="1" stop-color="#455A64" stop-opacity="0"/>
</linearGradient>
</defs>
</svg>
