<svg width="257" height="247" viewBox="0 0 257 247" fill="none" xmlns="http://www.w3.org/2000/svg">
<path d="M61.2248 127.794L95.8884 122.095C95.8884 122.095 82.7461 107.698 65.1803 103.891C47.6146 100.085 40.0226 100.723 40.0226 100.723C40.0226 100.723 27.0504 92.4926 18.1824 89.7918C9.31453 87.091 1.06334 88.1543 1.06334 88.1543L0.978271 125.157L61.2248 127.794ZM193.903 131.431L162.855 121.265C162.855 121.265 182.696 106.975 193.521 104.083C204.94 101.042 217.53 102.232 217.53 102.232C217.53 102.232 226.951 93.9599 237.839 89.7067C248.727 85.4535 256.914 85.3047 256.914 85.3047L256.893 122.605C256.893 122.605 246.111 135.173 245.899 134.876C245.729 134.557 193.903 131.431 193.903 131.431Z" fill="#A1D1DA"/>
<path d="M203.686 120.842C203.686 120.842 209.215 112.357 215.616 111.847C224.059 111.187 226.993 113.335 226.993 113.335C226.993 113.335 231.034 110.379 234.777 110.486C240.157 110.634 243.304 115.866 243.304 115.866C243.304 115.866 245.856 108.444 248.834 108.529C253.916 108.678 254.661 121.416 254.661 121.416L237.371 128.03L203.686 120.842ZM2.91382 122.671C2.91382 122.671 7.46474 109.018 10.6121 109.167C13.7595 109.316 16.1413 115.313 16.1413 115.313C16.1413 115.313 19.161 99.7676 23.797 99.7676C28.1353 99.7676 30.9424 121.459 30.9424 121.459L37.2371 124.16L44.5526 122.352C44.5526 122.352 47.9977 113.08 50.4008 113.229C52.655 113.378 54.1436 118.014 54.1436 118.014C54.1436 118.014 55.7811 109.188 59.2261 109.188C63.1178 109.188 65.5209 121.905 65.5209 121.905L31.8568 133.389L2.91382 122.671Z" fill="#518E2C"/>
<path d="M256.936 120.161L256.958 230.723C256.958 239.548 249.791 246.715 240.966 246.715H17.0133C8.18796 246.715 1.02132 239.548 1.02132 230.723L0.95752 121.671L256.936 120.161Z" fill="#7DB240"/>
<path d="M95.9305 121.139C95.9305 121.139 109.392 120.841 131.721 120.82C153.391 120.798 165.045 120.713 165.045 120.713L236.881 246.736H19.0752L95.9305 121.139Z" fill="#5E6367"/>
<path d="M31.9634 246.737L100.121 121.055L102.354 120.991H104.969L40.0657 246.758L36.2378 246.822L31.9634 246.737ZM161.856 120.714L159.049 120.672L155.901 120.736L218.53 246.737H225.25L161.856 120.714ZM89.8493 237.954L99.0787 238.166L105.331 209.308L96.7395 209.202L89.8493 237.954ZM152.456 209.946L160.793 209.798L167.066 238.06H156.454L152.456 209.946ZM150.415 198.038L158.687 197.825L153.477 174.794H146.566L150.415 198.038ZM112.455 174.283H105.331L99.823 198.165H107.458L112.455 174.283ZM111.711 147.977L117.857 148.084L114.582 164.203L107.458 164.31L111.711 147.977ZM115.858 131.624C115.645 132.156 113.412 141.172 113.412 141.172H119.452L121.047 131.624H115.858ZM117.219 126.86H122.322L123.343 120.842C123.343 120.842 121.472 120.821 120.813 120.821C120.153 120.821 118.643 120.863 118.643 120.863L117.219 126.86ZM139.186 126.839H144.822L143.588 120.778L140.994 120.736L138.485 120.799L139.186 126.839ZM140.547 132.177L145.502 132.07L147.48 141.279L141.653 141.385L140.547 132.177ZM142.929 148.105L148.671 147.914L151.925 164.714L144.801 164.82L142.929 148.105Z" fill="white"/>
<path d="M29.9636 25.5944V153.233H42.1065V23.2764L29.9636 25.5944ZM215.02 158.443L215.871 24.7863L228.056 25.6369L227.418 158.443H215.02Z" fill="#9A9A9A"/>
<path d="M233.395 28.0362H22.5432C20.204 28.0362 18.29 26.1222 18.29 23.783C18.29 21.4437 20.204 19.5298 22.5432 19.5298H233.374C235.713 19.5298 237.627 21.4437 237.627 23.783C237.627 26.1222 235.735 28.0362 233.395 28.0362ZM22.7984 69.6322C21.6704 69.6322 20.5886 69.1839 19.7909 68.3869C18.9933 67.589 18.5452 66.5072 18.5452 65.3792C18.5452 64.2512 18.9933 63.1694 19.7909 62.3717C20.5886 61.5742 21.6704 61.126 22.7984 61.126L234.14 60.8709C235.268 60.8709 236.35 61.319 237.147 62.1165C237.945 62.9142 238.393 63.996 238.393 65.1241C238.393 66.252 237.945 67.3338 237.147 68.1317C236.35 68.9287 235.268 69.377 234.14 69.377L22.7984 69.6322Z" fill="#C8C8C8"/>
<path d="M179.058 59.7282L217.643 21.1411L222.906 26.4044L184.321 64.9916L179.058 59.7282ZM35.9529 27.6017L41.2162 22.3384L79.7293 60.8511L74.4656 66.1123L35.9529 27.6017Z" fill="#C8C8C8"/>
<path d="M185.886 85.9857H71.2628C69.2098 85.9857 67.2409 85.17 65.7892 83.7188C64.3375 82.2667 63.522 80.2975 63.522 78.2449V7.79062C63.522 5.73761 64.3375 3.76872 65.7892 2.31701C67.2409 0.865313 69.2098 0.0498047 71.2628 0.0498047H185.886C187.939 0.0498047 189.908 0.865313 191.36 2.31701C192.811 3.76872 193.627 5.73761 193.627 7.79062V78.2449C193.627 80.2975 192.811 82.2667 191.36 83.7188C189.908 85.17 187.939 85.9857 185.886 85.9857Z" fill="#DFE1E0"/>
<path d="M70.1987 79.2907L70.8154 5.73193L186.736 6.13599V79.0993L70.1987 79.2907Z" fill="#1B9372"/>
<path d="M141.271 36.8189L141.611 18.5302H173.234V36.9891C173.234 36.9891 141.441 36.6488 141.271 36.8189ZM88.7441 27.228C88.7441 34.7561 94.7199 39.541 101.397 39.541C108.054 39.541 113.54 34.7561 113.54 27.0578C113.54 19.3596 106.544 14.5747 101.397 14.5747C94.7199 14.5747 88.7441 19.1894 88.7441 27.228Z" fill="#85D59E"/>
<path d="M96.2084 44.667H106.969V55.7678C106.969 55.7678 119.622 51.1531 120.643 52.344C121.664 53.5349 104.056 71.9939 102.014 71.9939C99.9725 71.9939 81.1521 53.8752 81.8539 52.5141C82.5344 51.1531 96.2084 55.0873 96.2084 55.0873V44.667ZM152.627 45.3475H163.388V56.4483C163.388 56.4483 176.041 51.8336 177.062 53.0245C178.082 54.2154 160.474 72.6745 158.433 72.6745C156.391 72.6745 137.571 54.5557 138.273 53.1946C138.953 51.8336 152.627 55.7678 152.627 55.7678V45.3475Z" fill="#FEFFFE"/>
</svg>
