<svg width="230" height="257" viewBox="0 0 230 257" fill="none" xmlns="http://www.w3.org/2000/svg">
<path d="M48.4299 46.2867C48.4299 46.2867 53.5744 30.8319 65.7054 21.1357C77.8363 11.4394 190.296 52.9767 190.296 52.9767C190.296 52.9767 209.943 59.9844 221.566 78.5513C229.378 91.0422 233.739 109.503 225.461 131.796C205.73 184.893 154.539 178.753 141.201 175.726C134.934 174.307 119.67 170.264 119.67 170.264C119.67 170.264 84.8016 199.056 42.8407 176.975C10.8938 160.165 14.8528 135.035 14.8528 135.035C14.8528 135.035 -6.65685 113.526 2.65836 83.5688C13.8789 47.4935 48.4299 46.2867 48.4299 46.2867Z" fill="#5B9821"/>
<path d="M121.193 110.543C150.303 105.694 159.385 93.2672 167.282 81.7502C175.983 69.0478 173.654 58.3989 179.709 58.1025C185.764 57.8061 190.591 68.7303 183.943 87.8051C174.543 114.777 155.214 118.736 154.833 125.997C154.537 131.756 175.411 132.158 194.253 122.97C221.543 109.632 221.543 78.4054 221.543 78.4054C221.543 78.4054 216.695 68.3915 207.295 61.4263C197.895 54.4611 190.908 50.8197 190.908 50.8197C190.908 50.8197 179.688 8.68956 128.772 1.70318C77.8557 -5.28322 56.9176 30.2204 56.9176 30.2204C56.9176 30.2204 58.7383 41.7373 67.5243 55.075C74.5319 65.724 81.7723 65.3853 81.1584 71.4401C80.7561 75.3779 68.1171 76.5847 54.7793 70.8262C42.6272 65.5758 39.621 58.3989 36.2971 58.3989C32.9733 58.3989 5.40876 73.7478 16.9046 106.287C26.0081 132.052 56.0919 136.879 61.4693 137.811C77.2417 140.542 86.3241 130.232 75.1035 122.038C63.8828 113.845 51.4555 108.997 54.1865 100.825C57.1293 91.9757 67.6301 101.206 80.248 106.668C92.7177 112.067 107.813 112.787 121.193 110.543Z" fill="#8BC02B"/>
<path d="M63.3127 144.332C63.3127 144.332 70.2991 143.929 73.1783 143.104C76.0575 142.278 79.953 139.822 79.953 139.822C79.953 139.822 106.946 168.064 109.74 170.435C112.472 172.743 115.689 137.557 115.689 137.557C115.689 137.557 121.85 138.51 127.609 137.599C135.188 136.392 140.354 133.979 140.354 133.979C140.354 133.979 136.67 155.637 135.23 163.851C134.32 169.123 134.002 183.773 134.002 183.773L114.271 200.202L99.2609 190.124C99.2609 190.124 99.2185 186.165 96.9956 183.477C90.0939 175.135 63.3127 144.332 63.3127 144.332ZM132.139 192.622L147.149 174.542C147.149 174.542 152.485 174.945 156.401 174.945C160.297 174.945 167.092 174.119 167.092 174.119C167.092 174.119 154.771 190.759 148.187 198.974C141.603 207.188 132.986 217.477 132.986 217.477L124.772 193.639L132.139 192.622Z" fill="#6D4B41"/>
<path d="M121.47 178.225C115.33 178.775 99.2824 190.144 99.2824 190.144C99.2824 190.144 100.108 209.452 99.4942 220.355C98.8802 231.258 94.5825 249.063 98.5415 253.572C101.971 257.467 130.806 258.208 135.104 253.678C139.422 249.147 135.231 230.432 135.231 218.301C135.231 206.17 134.003 183.771 134.003 183.771C134.003 183.771 128.456 177.611 121.47 178.225Z" fill="#865B50"/>
</svg>
