<svg width="257" height="159" viewBox="0 0 257 159" fill="none" xmlns="http://www.w3.org/2000/svg">
<path d="M128.718 22.6652C123.707 40.3549 133.38 54.9292 163.269 67.0418C177.756 72.902 195.467 79.5465 203.419 93.7505C209.846 105.275 201.306 127.147 171.874 122.551C141.549 117.823 113.337 81.5725 71.9451 65.0157C34.2784 49.9621 2.12346 57.8266 2.38488 83.5768C2.58095 103.053 18.2444 108.39 26.4793 107.519C32.0127 106.931 37.4373 104.098 47.9378 102.748C61.0307 101.07 97.1289 126.668 120.94 141.852C149.762 160.261 205.728 168.779 227.361 136.972C246.99 108.107 239.779 79.895 215.096 61.1815C192.723 44.2326 160.393 39.832 163.269 30.0287C166.798 17.9378 201.415 28.9612 226.141 27.7412C251.281 26.5212 256.183 17.3278 256.205 13.0143C256.226 6.71837 243.482 13.3193 225.989 11.0101C195.25 6.95801 179.216 -2.62749 153.248 1.01064C142.377 2.60097 132.225 10.2694 128.718 22.6652Z" fill="#EC7FAC"/>
<path d="M211.09 16.1103C210.851 19.7702 210.981 23.8005 211.265 27.3731C216.384 27.787 221.438 28.0049 226.144 27.7652C228.105 27.6781 229.891 27.5038 231.612 27.3295C231.329 24.846 231.067 21.9705 231.046 19.9009C231.024 16.9817 231.176 13.8882 231.329 11.4919C229.608 11.4265 227.821 11.2958 225.991 11.0561C221.245 10.421 216.522 9.62171 211.831 8.65977C211.548 10.7729 211.286 13.2782 211.09 16.1103ZM146.083 10.0976C161.333 11.9275 165.908 20.3149 166.256 26.371C169.546 24.4758 175.82 24.1709 181.375 24.4541C180.678 21.2516 180.003 17.3956 179.741 13.6704C179.545 10.9472 179.589 5.39199 179.654 1.57957C171.398 0.207101 163.032 -0.293963 153.251 1.07851C146.802 1.99349 139.286 4.99985 133.796 12.4504C136.672 10.8383 141.639 9.55296 146.083 10.0976ZM220.719 80.8341C227.582 80.8341 231.874 82.7076 234.51 84.69C230.588 75.9106 223.987 67.9372 215.099 61.2056C212.768 59.441 210.306 57.8071 207.823 56.2821C204.816 56.9357 200.067 58.6131 196.298 63.0355C192.159 67.8719 191.44 76.3463 191.353 80.8123C196.124 84.2326 200.263 88.2846 203.161 93.317C204.86 89.461 209.849 80.8341 220.719 80.8341Z" fill="#FEA8A7"/>
<path d="M154.729 63.2303C154.054 59.1347 153.705 51.8366 157.735 44.7564C160.437 39.9855 165.033 38.1119 168.04 37.3712C164.38 35.1056 162.463 32.7963 163.247 30.0732C163.378 29.6375 163.051 30.4435 163.247 30.0732C161.461 25.0408 157.714 17.8084 145.405 16.0874C137.824 15.0199 131.92 18.5927 128.565 23.1676C124.382 38.8091 131.833 52.0109 154.729 63.2303ZM190.348 60.8121C194.204 55.8451 198.561 53.7319 201.589 52.817C191.481 47.5231 181.154 43.7979 173.726 40.3558C170.654 41.1401 165.861 43.1661 162.942 48.4163C159.282 54.9955 160.132 62.4678 160.872 66.0406C161.657 66.3674 162.419 66.7159 163.247 67.0645C170.458 69.9837 178.453 73.099 185.664 77.2382C185.838 73.2297 186.644 65.5831 190.348 60.8121ZM205.489 17.4599C205.641 14.2357 206.12 10.6411 206.6 7.56938C198.779 5.82656 191.786 3.99661 184.945 2.58057C184.814 5.95728 184.793 10.554 185.228 14.7367C185.577 18.0263 186.514 21.8169 187.407 24.8883C193.093 25.4111 199.302 26.2172 205.576 26.849C205.401 23.9737 205.314 20.7277 205.489 17.4599ZM236.424 11.5343C236.402 14.1703 236.402 17.5035 236.467 19.8127C236.511 21.7734 236.729 24.3222 236.946 26.5658C252.741 23.6469 256.205 16.6538 256.205 13.0593C256.205 8.11401 248.297 11.1204 236.424 11.5343ZM221.261 86.4534C212.874 87.303 207.58 94.8625 205.227 99.372C205.815 103.664 204.879 108.435 202.199 112.574C205.314 112.988 211.981 114.404 217.035 119.262C223.875 125.841 225.073 134.577 225.052 140.045C225.858 139.065 226.62 138.041 227.361 136.973C237.731 121.724 240.606 106.648 237.36 93.0543C234.332 89.8518 228.886 85.6909 221.261 86.4534ZM211.915 125.013C208.255 120.569 201.132 118.478 197.581 117.672C193.681 120.743 188.278 122.856 181.198 123.14C182.527 125.645 184.4 130.699 184.4 139.326C184.4 147.888 181.699 154.685 179.869 158.279C193.986 158.149 207.471 154.881 217.688 147.125C217.884 142.224 217.47 131.767 211.915 125.013ZM77.1736 89.329C79.4174 83.2074 79.6353 73.2733 79.5917 68.3716C77.0864 67.1952 74.5375 66.0624 71.9233 65.0167C34.2784 49.9413 -0.0768793 58.3068 0.206329 84.057C0.402396 103.533 18.2445 108.391 26.4793 107.52C32.0128 106.931 37.4373 104.099 47.9378 102.749C51.7284 102.269 57.4797 104.078 64.2767 107.258C67.6316 104.492 73.8622 98.3699 77.1736 89.329ZM176.645 139.631C176.231 131.876 174.706 125.776 173.639 122.791C173.05 122.726 172.44 122.66 171.83 122.551C145.601 118.456 120.94 90.7668 87.9572 72.6633C88.4147 76.7589 88.0444 84.4273 82.9902 96.6924C80.6374 102.378 74.9732 108.522 72.2065 111.31C87.7612 119.785 106.562 132.703 120.918 141.875C133.968 150.197 152.572 156.493 171.024 157.952C173.138 154.38 177.037 146.646 176.645 139.631Z" fill="#FEA8A7"/>
<path d="M35.2217 81.0965C35.5371 78.2383 33.6988 75.6894 31.1156 75.4045C28.5325 75.1195 26.1827 77.2057 25.8673 80.0639C25.5518 82.9221 27.3901 85.4701 29.9732 85.7551C32.5565 86.04 34.9062 83.9547 35.2217 81.0965Z" fill="black"/>
<path d="M11.7475 85.7482C14.3337 85.492 16.2004 82.9649 15.9168 80.1032C15.6332 77.2415 13.3069 75.1301 10.7207 75.3863C8.13451 75.6425 6.26786 78.1696 6.55142 81.0313C6.83498 83.893 9.16138 86.0053 11.7475 85.7482Z" fill="black"/>
<path d="M21.2287 91.9192C25.0193 91.9192 27.1325 88.9782 29.1367 91.2439C31.6203 94.076 25.9779 97.4091 21.1633 97.4091C15.4338 97.4091 11.0986 93.2917 13.691 90.9607C15.7388 89.1307 16.937 91.9192 21.2287 91.9192Z" fill="black"/>
<path d="M100.706 103.033C94.1484 113.163 86.4364 116.235 86.3928 120.831C86.3492 124.513 92.253 128.5 109.812 139.218C128.504 150.633 133.863 151.178 137.24 149.326C139.527 148.085 144.821 144.773 149.875 136.56C155.496 127.454 157.543 117.585 151.4 113.141C147.566 110.374 144.32 108.109 134.124 101.072C120.639 91.748 112.753 84.7549 109.485 84.8203C105.695 84.9074 106.762 93.6869 100.706 103.033Z" fill="#EC7FAC"/>
</svg>
