<svg width="257" height="192" viewBox="0 0 257 192" fill="none" xmlns="http://www.w3.org/2000/svg">
<path d="M70.2852 158.465L50.99 148.365L43.0363 129.659L28.1598 115.329C28.1598 115.329 26.729 112.152 26.1819 109.669C25.719 107.523 25.719 102.831 25.719 102.831L12.1682 87.0705L7.47594 75.8974L5.05615 64.0089C5.05615 64.0089 11.6843 67.9437 16.3765 71.3524C21.0688 74.7612 26.9605 78.0226 26.9605 78.0226L28.8542 62.2835L33.5465 43.6617L41.8159 39.4534C41.8159 39.4534 42.6154 33.9405 47.6444 29.0798C52.6733 24.2192 59.3014 22.1152 59.3014 22.1152L86.3609 20.4949L109.528 18.7063L132.211 4.12448C132.211 4.12448 142.247 2.81991 152.789 5.42907C163.331 8.03823 189.233 21.4629 189.233 21.4629L224.541 23.567L232.327 32.1519C232.327 32.1519 241.29 35.6448 247.876 40.4213C253.852 44.7348 254.378 47.344 254.378 47.344L248.045 77.202L223.426 115.435L191.422 129.006L119.901 159.98L113.631 170.711L86.4871 165.03L70.2852 158.465Z" fill="#B7885A"/>
<path d="M61.6581 87.3257C61.6581 87.3257 55.2404 89.472 51.6212 87.3257C47.8338 85.0953 45.0352 81.7497 44.1936 73.1437C43.1204 62.0758 47.1604 53.8275 47.1604 53.8275L57.4919 47.3467L66.4135 48.9669L88.907 31.7546H116.45L127.792 30.1344L158.976 28.5142L202.721 41.076L217.913 59.2983L212.442 76.321L208.592 79.351C208.592 79.351 206.361 83.8539 196.998 89.0511C192.032 91.8076 187.529 94.3326 187.529 94.3326C187.529 94.3326 178.776 99.3615 161.059 100.582C149.865 101.36 137.745 99.2984 133.01 99.8455C128.213 100.393 118.47 108.746 94.6303 104.769C84.2989 103.044 111.611 100.582 101.511 97.6361C91.432 94.7113 61.6581 87.3257 61.6581 87.3257Z" fill="#8C6238"/>
<path d="M217.386 105.418C217.386 105.418 214.208 103.44 215.597 99.4636C216.986 95.4868 219.869 94.3926 226.118 90.542C232.346 86.6703 237.565 82.6935 241.941 75.1816C247.833 65.0606 254.335 47.2173 254.335 47.2173C254.335 47.2173 257.975 55.5287 255.892 69.9002C254.566 79.0953 251.536 84.5872 251.536 84.5872C251.536 84.5872 251.136 97.2753 249.748 102.241C248.359 107.207 243.393 116.528 243.393 116.528L229.232 134.077C229.232 134.077 228.98 142.936 222.099 149.816C218.164 153.751 210 158.065 205.623 159.159C196.365 161.494 186.707 166.166 179.553 169.995C175.471 172.162 157.249 182.957 146.833 185.987C128.548 191.289 118.932 183.104 114.871 181.189C112.767 180.2 105.36 177.023 101.783 174.645C98.2059 172.268 95.0287 169.49 95.0287 169.49C95.0287 169.49 81.3516 169.301 77.9638 166.713C74.5972 164.125 81.7303 158.191 81.7303 158.191C81.7303 158.191 88.2743 162.757 96.6068 164.945C104.939 167.133 111.483 168.122 111.883 165.534C112.283 162.946 105.129 162.168 98.5847 158.99C92.0407 155.813 85.6862 152.236 83.5189 150.258C81.3306 148.28 81.3306 145.103 82.5299 143.125C83.7293 141.147 86.107 139.758 90.2732 141.336C94.4395 142.915 101.594 147.018 108.327 149.48C114.871 151.857 121.815 154.445 123.203 149.669C124.592 144.892 118.448 143.925 113.482 141.147C108.516 138.37 103.761 135.403 101.972 133.614C100.184 131.826 99.7841 128.459 102.372 126.081C104.96 123.704 109.505 124.882 109.505 124.882L133.114 132.415L156.512 132.815L175.955 123.304L182.499 121.726L189.842 118.149L217.386 105.418ZM28.011 114.992C28.011 114.992 29.5471 113.351 31.1252 114.929C32.7033 116.507 38.6581 124.861 46.191 126.839C53.7239 128.817 58.3741 128.228 58.9001 132.73C59.4893 137.822 51.3462 137.486 45.202 135.15C37.5218 132.225 33.8606 125.892 31.8827 122.715C29.9048 119.558 28.011 114.992 28.011 114.992ZM20.1625 82.5462C17.9742 84.6503 19.2367 87.6593 22.6033 91.2153C25.97 94.7713 29.3366 97.4436 31.4829 98.7692C33.6291 100.095 36.1752 99.6951 37.3114 97.9486C38.1741 96.602 38.0268 94.2663 35.9858 92.4357C34.3235 90.9418 31.9037 88.3537 28.2214 85.1974C26.4119 83.6403 23.4239 79.3689 20.1625 82.5462Z" fill="#A2764A"/>
<path d="M159.961 146.388C159.856 149.817 163.496 151.122 173.533 149.649C184.643 148.008 185.464 145.735 184.98 141.8C184.496 137.866 178.604 139.36 172.565 140.328C166.484 141.338 160.13 141.169 159.961 146.388ZM244.275 110.112C242.318 110.112 235.774 116.656 228.599 121.558C221.424 126.461 213.575 131.196 211.282 132.5C208.988 133.805 207.515 136.414 208.504 138.876C209.493 141.317 213.723 142.305 218.31 140.517C222.876 138.728 228.788 135.446 233.186 132.184C238.909 127.934 243.812 123.852 245.601 116.992C246.505 113.457 246.232 110.112 244.275 110.112Z" fill="#B7885A"/>
<path d="M147.863 112.616C148.789 114.026 150.557 115.183 154.639 112.826C163.308 107.819 173.176 100.496 180.836 94.878C189.505 88.5234 199.1 79.5386 200.762 77.7711C202.424 76.0036 205.854 71.6691 203.476 69.5228C200.236 66.598 197.69 70.112 193.145 74.2151C187.506 79.3282 179.468 86.314 174.355 90.3961C169.242 94.4571 154.639 104.284 152.85 105.42C151.104 106.577 145.675 109.291 147.863 112.616ZM54.1651 76.172C51.8716 77.9605 52.608 81.8532 56.4376 85.5565C60.2672 89.2598 64.5386 94.0784 78.4682 98.0552C80.2146 98.5602 81.9189 98.96 83.5602 99.2967C95.1331 101.632 104.37 100.201 107.737 99.3388C111.567 98.3498 115.123 94.0784 112.008 91.0905C109.673 88.8601 96.2062 93.2998 80.7617 88.5234C61.8243 82.7159 59.9937 71.627 54.1651 76.172ZM58.8574 96.4982C57.4476 99.5702 58.7101 101.611 63.697 103.463C68.6838 105.315 77.2057 107.966 80.0253 109.565C84.0231 111.838 86.9479 110.491 87.8316 108.429C89.1152 105.441 86.8427 103.379 84.4229 102.179C81.2877 100.622 70.3672 96.0773 66.8111 95.0673C63.8232 94.2467 60.4145 93.0894 58.8574 96.4982ZM180.457 112.742C179.531 115.667 180.815 119.854 193.061 120.444C202.887 120.906 210.778 117.498 215.575 114.489C220.583 111.332 223.045 106.198 220.941 103.863C218.837 101.527 215.681 103.631 211.136 106.198C206.086 109.039 200.867 111.69 190.83 110.638C186.454 110.196 181.446 109.712 180.457 112.742ZM160.594 126.63C160.594 126.63 155.249 125.22 153.986 122.842C152.724 120.465 153.713 118.066 156.091 117.498C158.468 116.93 161.709 118.613 167.474 119.328C173.24 120.023 178.563 119.749 180.962 119.749C185.738 119.749 185.886 125.515 181.53 127.324C177.174 129.155 172.272 128.439 172.272 128.439C172.272 128.439 166.38 138.266 147.274 137.571C128.168 136.877 111.861 127.366 109.231 125.914C104.602 123.389 107.4 118.76 110.346 119.455C113.292 120.149 133.513 129.428 144.896 129.555C156.238 129.723 160.594 126.63 160.594 126.63ZM57.4687 122.211C55.9747 126.083 52.7974 126.041 46.9268 123.179C41.0562 120.296 24.3071 106.051 16.7531 98.1604C9.22024 90.2488 8.25232 87.5134 7.89461 85.3461C7.6842 83.9784 6.94774 81.3692 6.94774 81.3692C6.94774 81.3692 0.971895 74.8884 0.593146 70.4697C0.13023 64.7253 2.52897 62.9368 5.39066 64.1361C8.27336 65.3355 6.94774 67.8395 8.02086 71.3113C8.50482 72.8474 13.1761 77.0557 13.8915 79.9384C14.4596 82.1899 14.8594 83.4103 15.0908 84.7359C15.3223 86.0615 19.6358 92.5213 31.861 102.221C42.4029 110.596 49.4518 113.963 52.3345 115.267C55.2172 116.572 58.9205 118.487 57.4687 122.211ZM26.2008 77.4765C26.2008 77.4765 15.7011 63.3787 22.2871 48.2918C26.8742 37.7499 34.8489 37.7499 38.0893 37.8972C40.1093 37.9813 42.9499 39.1176 42.5502 42.6315C41.961 47.6606 38.2998 45.5354 35.1225 48.5864C32.0083 51.5533 30.8089 57.7816 32.8289 67.103C34.8489 76.4245 39.415 82.5055 39.9831 85.1988C40.5302 87.7659 38.6364 88.9863 36.5954 87.8921C34.5543 86.798 29.5675 81.9794 26.2008 77.4765Z" fill="#D29B64"/>
<path d="M43.919 149.565C43.919 149.565 37.5644 156.361 33.2509 167.808C28.9374 179.255 27.6538 188.723 29.6528 190.701C31.6517 192.679 51.8938 186.051 62.6671 177.761C78.1327 165.851 73.777 154.867 73.777 154.867C73.777 154.867 70.5156 151.185 64.8764 148.534C59.9737 146.219 55.029 144.746 55.029 144.746C55.029 144.746 53.535 139.928 49.0531 136.456C44.5713 132.984 38.7638 130.985 31.9674 131.322C25.1709 131.659 15.2603 137.024 10.7784 141.843C6.29658 146.661 2.82472 151.438 3.58222 153.226C4.65533 155.751 16.9226 151.017 26.2019 150.849C35.5023 150.68 43.919 149.565 43.919 149.565Z" fill="#6E9921"/>
<path d="M40.0463 178.013C41.7717 179.002 51.0931 167.639 56.9637 162.168C62.7081 156.803 68.705 150.658 68.705 150.658C68.705 150.658 66.8743 149.522 65.1279 148.533C64.0337 147.923 62.0768 147.313 62.0768 147.313C62.0768 147.313 57.4266 149.754 50.8827 158.675C45.5171 165.914 38.4471 177.108 40.0463 178.013ZM17.1109 142.957C18.184 145.629 22.8974 141.042 32.5134 139.906C41.8559 138.791 52.8606 140.748 52.8606 140.748C52.8606 140.748 51.7244 138.454 49.6623 136.708C47.6844 135.025 45.6223 134.036 45.6223 134.036C45.6223 134.036 35.9432 132.815 29.3151 135.256C23.4444 137.423 15.9957 140.201 17.1109 142.957Z" fill="#2F7C31"/>
<path d="M225.021 44.1878C222.917 43.3464 219.782 42.3364 217.993 45.2188C217.614 45.829 217.404 46.4182 217.299 46.9442C213.764 42.8835 209.555 41.9576 208.861 41.8314C209.913 42.0208 221.781 43.9776 221.781 39.2643C221.781 34.3406 215.51 33.2885 208.756 32.1522C202.001 31.037 190.976 31.1633 190.976 31.1633C190.976 31.1633 197.646 28.0491 204.758 27.3127C211.049 26.6604 214.353 26.8708 218.835 28.9749C223.338 31.0791 224.895 35.3085 227.294 35.4558C229.692 35.6031 233.29 33.3726 233.143 30.9739C232.996 28.5752 230.26 24.1985 226.178 20.9581C226.11 20.9157 226.047 20.8664 225.989 20.8108C224.116 19.2958 221.023 17.7387 216.036 16.8339C215.195 16.6656 214.669 16.5814 214.669 16.5814C214.669 16.5814 209.534 11.0265 205.452 7.21792C201.37 3.40939 198.151 1.03168 195.752 0.884391C193.353 0.7371 192.996 2.67293 193.374 4.16688C193.711 5.45042 201.602 13.6777 203.937 16.0764C187.314 16.6866 176.773 23.3779 176.773 23.3779C176.773 23.3779 168.44 17.865 155.731 15.5925C145.357 13.7198 137.004 15.6977 137.004 15.6977C137.004 15.6977 141.528 13.0254 140.728 8.0175C140.076 3.85126 130.081 0.779181 116.236 6.94438C105.168 11.8681 100.223 16.7919 100.223 16.7919C100.223 16.7919 89.5341 12.2889 84.9049 10.4583C80.2757 8.6277 75.8991 5.95542 74.363 5.95542C72.827 5.95542 70.4283 9.61666 70.7018 10.5846C70.9754 11.5525 75.6255 15.6346 75.6255 15.6346C75.6255 15.6346 64.8101 15.361 55.3835 14.9402C45.9569 14.5404 42.3167 14.2669 39.4971 14.5404C36.6775 14.8139 32.3219 17.6335 32.7427 20.3058C33.1636 22.9781 43.979 22.5573 50.586 22.9781C57.1931 23.3989 65.4835 23.2516 65.4835 23.2516C65.4835 23.2516 58.3083 27.4599 54.6681 30.8476C51.0069 34.2143 48.7554 37.4547 51.3014 40.5478C53.8264 43.641 57.9085 39.9797 61.4225 36.7603C64.9364 33.5199 68.5976 30.4268 73.0795 29.3116C77.5824 28.1964 81.6434 28.6172 81.6434 28.6172C81.6434 28.6172 74.7839 32.8677 71.9433 35.4979C67.9664 39.2012 66.1779 43.2201 66.1779 43.2201C66.1779 43.2201 57.3193 41.6841 52.8164 44.0615C48.3135 46.4392 41.0962 49.5955 40.5913 59.948C40.0863 70.2584 43.8317 69.9217 45.0942 70.069C46.3567 70.2163 47.7664 67.544 48.1873 64.5771C48.6081 61.6102 49.0289 57.1284 53.5318 53.6144C58.0348 50.1005 62.5377 51.363 62.5377 51.363C62.5377 51.363 60.2862 56.5603 63.1058 58.2436C65.9254 59.9269 67.7349 56.2657 70.5545 53.1936C73.3741 50.1005 77.7928 45.0295 91.007 39.4747C104.221 33.9197 107.967 33.7724 111.228 33.4358C114.489 33.0991 117.267 32.4468 117.267 29.6904C117.267 26.9129 111.06 26.4289 111.06 26.4289C111.06 26.4289 113.185 21.8629 119.708 18.1175C126.231 14.3721 131.281 14.6035 131.849 16.0554C133.048 19.2327 123.958 19.906 123.474 26.5972C122.99 33.2885 131.659 31.2474 135.594 31.0791C139.508 30.9108 145.778 30.8897 152.491 32.0681C158.53 33.1201 166.062 35.2243 171.47 37.2233C179.15 40.0849 183.022 44.4192 185.294 45.2399C187.567 46.0605 196.699 45.3451 205.158 50.6265C212.775 55.3819 214.164 64.3667 211.575 70.3215C209.934 74.0669 208.125 76.8654 208.146 78.6329C208.167 80.4004 209.787 80.7581 212.059 78.9696C218.498 73.9196 222.454 65.8817 222.727 62.1363C222.749 61.9048 222.727 61.7365 222.727 61.505C222.77 61.0421 222.77 60.5371 222.749 60.0321C222.749 59.9059 222.749 59.7586 222.727 59.6323C222.706 59.2536 222.643 58.8538 222.58 58.454C222.538 58.1291 222.482 57.8068 222.412 57.4861C222.349 57.2125 222.265 56.939 222.201 56.6655C222.138 56.4761 222.096 56.2867 222.054 56.1184C221.781 55.1925 221.444 54.2246 220.981 53.1726C223.401 54.1826 229.861 57.0442 229.945 59.1063C230.176 63.6723 223.338 72.8675 217.151 77.9175C210.965 82.9675 195.016 89.5114 192.912 90.3531C190.807 91.1948 187.798 92.857 188.493 95.6345C189.145 98.2437 193.522 98.6856 196.215 97.886C201.454 96.35 213.343 92.1627 222.622 84.4404C231.902 76.7181 237.962 66.555 238.677 59.1063C239.371 51.6365 227.125 45.0295 225.021 44.1878Z" fill="#D29B64"/>
</svg>
