<svg width="245" height="257" viewBox="0 0 245 257" fill="none" xmlns="http://www.w3.org/2000/svg">
<path d="M155.248 102.148L115.088 67.3332L129.996 56.2499C129.996 56.2499 173.264 32.0188 214.533 61.2265C255.085 89.9126 251.26 175.21 219.879 214.219C188.498 253.228 166.701 255.531 154.857 255.14C142.992 254.749 141.079 249.012 129.605 250.164C118.13 251.315 114.306 257.813 93.2691 256.292C74.1885 254.901 58.4545 247.491 50.8049 239.08C43.5681 231.083 155.248 102.148 155.248 102.148Z" fill="#6EA517"/>
<path d="M201.996 62.0537C201.996 62.0537 184.762 69.486 167.551 70.8334C150.317 72.1807 119.588 69.812 119.588 69.812C119.588 69.812 116.22 51.9049 115.198 51.9049C114.177 51.9049 68.9529 36.171 35.8335 61.0323C0.932093 87.2194 -2.50155 138.072 3.06182 162.347C15.8619 218.132 56.9135 244.406 56.9135 244.406C56.9135 244.406 93.5752 248.47 139.516 228.216C185.458 207.962 225.227 172.495 224.293 124.881C223.271 74.2018 201.996 62.0537 201.996 62.0537Z" fill="#87C244"/>
<path d="M66.1467 71.8331C60.2573 65.031 44.0888 66.5522 31.5278 84.5244C18.4451 103.214 17.8584 137.463 28.6374 138.398C37.4823 139.158 39.7424 124.185 45.1754 113.58C55.3894 93.6735 79.6205 87.4148 66.1467 71.8331Z" fill="#E5DD9F"/>
<path d="M80.3843 64.1393C77.7982 69.5288 86.3171 82.785 118.133 83.7629C151.6 84.7843 162.574 66.1386 158.75 61.7922C154.925 57.4458 142.407 64.5956 118.654 64.3566C94.9012 64.1175 84.7958 54.9901 80.3843 64.1393Z" fill="#59702C"/>
<path d="M96.9194 27.8052C94.355 27.2837 83.902 25.5017 82.8589 21.4161C82.3807 19.4819 84.9016 13.2449 91.5516 8.6377C98.2016 4.03053 104.83 2.77008 106.373 6.33411C107.916 9.91988 107.394 12.2017 107.394 12.9841C107.394 13.7447 112.653 19.8948 116.326 27.8052C121.433 38.7798 124.236 49.5154 123.737 60.5117C123.367 68.4656 123.215 79.6795 118.63 78.8971C113.849 78.093 114.848 66.8792 112.501 58.9688C106.894 40.0838 98.4624 28.1312 96.9194 27.8052Z" fill="#513532"/>
<path d="M163.702 40.2348C164.223 39.4742 217.097 6.26787 217.336 4.22507C217.575 2.18227 190.019 -2.68568 172.655 3.7035C155.292 10.0927 137.298 20.3719 128.713 38.192C121.824 52.4916 121.824 62.2058 123.606 64.5094C124.454 65.596 163.702 40.2348 163.702 40.2348Z" fill="#2F7C31"/>
<path d="M157.837 38.194C181.177 23.2859 217.36 4.22705 217.36 4.22705C217.36 4.22705 218.447 7.07393 211.493 19.0482C202.3 34.8908 180.829 55.3188 159.119 61.7079C135.561 68.6404 123.609 64.5113 123.609 64.5113C123.609 64.5113 139.451 49.951 157.837 38.194Z" fill="#4C8C19"/>
</svg>
