<svg width="238" height="257" viewBox="0 0 238 257" fill="none" xmlns="http://www.w3.org/2000/svg">
<path d="M115.519 0.857972L3.38766 58.6651C0.93693 60.1054 0.227509 62.2552 0.249006 65.3724L0.463983 69.2634L118.851 129.973L236.959 70.2308C236.959 70.2308 237.088 69.6289 237.088 67.5221C237.088 67.5221 236.981 64.7489 236.357 63.4591C235.67 61.9972 234.208 60.6859 233.262 59.8905C230.747 57.8052 228.231 55.9564 223.953 53.5487C162.621 18.873 122.291 1.00845 122.291 1.00845C119.69 0.0410617 117.54 -0.3029 115.519 0.857972Z" fill="#DEA66C"/>
<path d="M2.01184 197.173C8.54712 201.494 20.4783 207.17 32.5385 213.705C60.5714 228.882 95.9994 247.327 113.627 254.572C116.014 255.561 117.433 256.034 119.088 256.12C120.313 256.184 122.334 255.367 122.334 255.367C122.334 255.367 119.045 136.722 118.851 129.95C118.658 123.329 115.885 121.136 113.434 119.545C109.607 117.095 101.309 113.268 101.309 113.268C101.309 113.268 72.2445 98.8218 43.2228 83.6014C29.4213 76.3569 17.7696 68.9402 5.23649 62.8349C2.93624 61.7385 0.227539 63.1144 0.227539 65.6941V194.25C0.227539 195.475 0.979956 196.507 2.01184 197.173Z" fill="#B38251"/>
<path d="M233.842 197.928L122.57 255.305C120.786 256.229 118.657 254.939 118.657 252.918L118.851 129.995C118.851 128.813 118.485 126.211 118.12 125.18C117.109 122.17 119.302 120.966 120.291 120.472L230.66 63.6318C233.584 62.127 237.088 64.2552 237.088 67.5444V192.639C237.088 194.853 235.841 196.896 233.842 197.928Z" fill="#966239"/>
<path opacity="0.5" d="M184.139 92.7608C184.139 92.7608 123.151 123.954 122.162 126.598C121.173 129.221 170.016 105.745 175.734 102.8C182.205 99.4681 233.025 72.2953 233.025 69.3071C233.047 66.8564 184.139 92.7608 184.139 92.7608Z" fill="#212121"/>
<path d="M8.6123 190.059C16.5449 194.058 24.4131 198.186 34.216 203.195V199.368C24.4561 194.381 16.5664 190.274 8.6123 186.233V190.059ZM25.316 191.801C27.5517 192.94 28.6696 193.521 30.7764 194.595C30.7979 187.931 30.7979 184.599 30.8194 177.935C28.7126 176.86 27.6162 176.301 25.402 175.162C25.359 181.826 25.3375 185.137 25.316 191.801ZM11.4285 184.664C13.2773 185.609 14.3092 186.147 16.4159 187.222L16.5234 170.626C14.3952 169.529 13.3633 169.013 11.493 168.024C11.4715 174.689 11.45 178.021 11.4285 184.664Z" fill="#212121"/>
<path d="M21.8118 175.314C26.9068 177.915 29.6155 179.312 34.1085 181.591C31.8727 177.528 30.6474 175.464 28.1966 171.294C25.6814 172.927 24.3701 173.723 21.8118 175.314ZM8.6123 168.542C12.4174 170.52 14.9756 171.831 20.006 174.411C17.5123 170.219 16.2655 168.133 13.9652 164.027C11.622 165.726 10.5256 166.607 8.6123 168.542Z" fill="#212121"/>
<path d="M49.4571 208.441C51.2414 209.365 52.1658 209.86 53.9501 210.784C53.8211 202.873 53.7567 198.917 53.6062 191.006C51.8864 190.103 51.0265 189.652 49.3066 188.771C49.3711 196.639 49.3926 200.573 49.4571 208.441Z" fill="#212121"/>
<path d="M42.8988 207.043C49.4341 210.482 54.5076 213.062 60.7849 216.416C60.7419 214.159 59.0006 211.428 56.6359 210.16C52.9383 208.204 50.8314 207.129 47.0908 205.172C44.6831 203.947 42.8988 204.829 42.8988 207.043ZM55.3459 184.707L58.0977 190.533C57.2378 192.36 56.7863 193.284 55.8834 195.09C56.6573 195.026 57.0443 195.004 57.8181 194.94C58.85 193.564 59.3661 192.876 60.3549 191.5C59.452 189.372 58.979 188.297 58.0331 186.169C60.6558 187.609 61.9457 188.34 64.3319 189.737C64.3319 197.433 59.3015 200.83 51.7343 196.874C44.1671 192.94 39.1582 184.148 39.1582 176.43C44.7906 179.246 48.5742 181.095 55.3459 184.707Z" fill="#212121"/>
<path d="M197.641 79.6488C196.566 78.8534 81.1456 18.5527 81.1456 18.5527L45.3306 37.0622L163.675 98.0938L163.739 98.1583L198.372 80.4227C198.372 80.4227 198.308 80.2507 198.114 80.0358C197.964 79.9068 197.706 79.7133 197.641 79.6488Z" fill="#FFE0B2"/>
<path d="M198.198 80.1611C178.593 89.8136 163.673 98.0902 163.673 98.0902C164.168 98.5846 164.189 99.2295 164.189 99.552C164.125 102.046 164.082 104.024 164.017 106.496C163.716 119.287 163.544 132.099 163.114 144.89C164.555 144.031 166.296 145.922 167.607 144.89C169.628 143.3 173.928 136.291 174.572 136.076C175.432 135.797 176.357 136.012 177.238 135.969C181.108 135.754 189.771 127.864 191.62 127.499C193.404 127.155 199.295 128.294 199.295 128.294C199.295 128.294 198.886 89.2761 198.736 82.7193C198.693 80.3976 198.198 80.1611 198.198 80.1611Z" fill="#BF9F85"/>
</svg>
