<svg width="141" height="257" viewBox="0 0 141 257" fill="none" xmlns="http://www.w3.org/2000/svg">
<path d="M106.327 158.162L9.89552 157.31C9.89552 157.31 9.00106 161.889 10.8539 166.51C12.5576 170.769 19.4364 176.903 19.4364 176.903L27.5078 194.686L34.1524 236.15L35.4302 248.14C35.4302 248.14 40.1581 256.979 66.8855 256.979C93.6129 256.979 98.2768 247.821 98.2768 247.821L99.1926 240.112L106.625 197.284L121.49 171.621C121.49 171.621 124.749 169.343 126.644 164.487C127.964 161.101 127.262 156.33 127.262 156.884C127.262 157.438 106.327 158.162 106.327 158.162Z" fill="#E27F13"/>
<path d="M68.5896 203.098C90.2484 203.226 100.705 201.863 107.073 197.39C111.865 194.026 114.207 190.213 117.466 184.783C121.98 177.265 121.789 171.494 121.789 171.494C121.789 171.494 103.729 180.8 68.0146 180.332C32.9602 179.885 14.1553 171.536 14.1553 171.536C14.1553 171.536 15.8589 179.799 18.6914 185.166C21.9711 191.342 27.9555 195.261 27.9555 195.261C27.9555 195.261 39.3066 202.928 68.5896 203.098ZM31.6824 204.908C33.8334 205.696 36.0695 206.442 36.0695 206.442L39.264 244.499C39.264 244.499 33.5352 242.561 32.875 240.516C32.4917 239.345 30.7027 226.716 29.4249 216.451C28.7434 210.956 28.1258 207.251 27.9555 205.292C27.7638 203.162 29.6592 204.163 31.6824 204.908ZM54.7041 210.275C47.4633 209.359 41.6918 208.145 41.6918 208.145C41.7983 208.933 44.4178 245.713 44.4178 245.713C44.4178 245.713 47.229 247.502 55.1301 248.481L54.7041 210.275ZM73.6369 210.893C68.2489 211.191 62.2432 210.807 60.2413 210.744L60.0709 248.929C62.158 249.056 64.458 249.12 67.035 249.099C69.2498 249.078 71.3369 248.95 73.3601 248.779L73.6369 210.893ZM98.4263 208.422C97.4041 217.111 95.2531 235.938 94.4012 243.711C98.4263 242.241 100.024 241.475 100.556 239.451C101.088 237.428 105.284 208.507 105.39 206.931C105.476 205.93 105.007 205.76 102.409 206.846C100.769 207.57 99.981 207.868 98.4263 208.422ZM93.3364 209.21C89.6308 209.828 84.7538 210.445 79.0037 210.914L78.3009 248.162C82.9436 247.395 86.9048 246.266 90.1419 245.074C91.0151 236.087 92.7614 216.302 93.3364 209.21Z" fill="#F5B03E"/>
<path d="M53.2351 25.9958C55.6629 25.7829 52.937 15.5817 59.0491 15.4539C67.4187 15.2623 65.0335 28.1255 61.2214 32.0015C51.1267 42.2878 35.3459 40.3072 31.5976 57.089C29.1485 68.0142 40.2228 71.9328 40.2228 71.9328C40.2228 71.9328 21.9502 70.8893 13.4313 88.7144C6.46726 103.303 14.8795 113.44 14.8795 113.44C14.8795 113.44 5.23205 115.271 1.24956 129.072C-3.84036 146.705 10.8757 158.333 10.8757 158.333L74.1485 163.423L136.143 134.886L135.781 120.894C135.781 120.894 132.927 116.783 130.116 114.313C126.986 111.566 123.599 109.308 123.599 109.308L127.582 90.7163C127.582 90.7163 128.221 79.3651 112.696 67.6309C105.732 62.3493 98.1712 60.8798 98.1712 60.8798C98.1712 60.8798 93.7415 34.3654 92.847 32.5552C91.9313 30.745 81.9431 14.7299 80.1116 13.6437C78.3014 12.5576 65.7789 1.56848 65.7789 1.56848C65.7789 1.56848 56.8343 -1.4557 50.8286 6.18987C44.8229 13.8354 46.8674 26.5495 53.2351 25.9958Z" fill="#FFEBCA"/>
<path d="M79.6036 52.5495C66.8681 69.6295 40.1833 71.9082 40.1833 71.9082C40.1833 71.9082 48.702 77.8287 74.1303 75.8268C100.709 73.7397 106.863 61.8349 106.501 48.7374C106.139 35.6399 97.0669 21.7757 83.6712 10.7866C71.1275 0.521602 61.6504 1.05402 61.6504 1.05402C61.6504 1.05402 71.7025 4.09944 79.3267 14.4709C87.3769 25.3962 86.8444 42.8169 79.6036 52.5495ZM14.8831 113.416C14.8831 113.416 32.5165 123.297 74.1516 122.914C113.231 122.552 124.156 109.816 124.156 109.816C124.156 109.816 128.607 103.747 128.245 93.5671C127.883 82.9613 121.941 76.8278 121.941 76.8278C121.941 76.8278 110.888 91.0966 95.9807 99.4663C81.073 107.836 52.3225 111.669 39.0759 112.564C25.6164 113.437 14.8831 113.416 14.8831 113.416ZM135.784 120.891C135.784 120.891 141.62 127.429 139.596 137.971C137.232 150.344 127.415 158.692 127.415 158.692C127.415 158.692 117.043 169.085 65.8033 169.469C19.9727 169.809 10.0913 157.649 10.0913 157.649C10.0913 157.649 57.8383 159.672 89.3574 149.024C115.893 140.079 121.43 136.459 129.438 128.472C132.185 125.746 135.784 120.891 135.784 120.891Z" fill="#EAC084"/>
<path d="M12.1542 148.832C16.0517 148.385 13.858 137.417 18.6286 131.22C23.4204 125.023 25.6352 123.255 24.5917 120.827C23.5695 118.399 13.5385 118.101 9.19399 128.856C5.59485 137.822 9.08751 149.173 12.1542 148.832ZM46.0162 80.0013C46.2292 83.8986 39.1587 83.0254 31.2789 92.7367C24.8898 100.616 25.763 108.858 21.8444 109.242C17.9471 109.604 16.3712 95.8034 21.6314 87.9662C29.064 76.8493 45.718 74.9326 46.0162 80.0013ZM62.3934 40.6023C63.8841 41.5394 61.9461 45.7561 55.259 50.846C47.294 56.8943 44.3551 61.6648 41.4161 60.8555C39.2651 60.2592 37.2207 55.7017 41.5652 50.697C44.8875 46.8636 51.4043 45.0959 54.5349 43.6265C59.0711 41.4755 60.9878 39.7079 62.3934 40.6023Z" fill="white"/>
</svg>
