<svg width="213" height="256" viewBox="0 0 213 256" fill="none" xmlns="http://www.w3.org/2000/svg">
<path d="M157.614 4.6709H6.04102V250.964H207.897V52.9056L157.614 4.6709Z" fill="white"/>
<path d="M41.3242 79.0415H171.799M41.3242 110.252H171.799M41.3242 141.442H171.799M41.3242 172.652H171.799M41.3242 203.863H97.1108" stroke="#B0BEC5" stroke-width="8.27733" stroke-miterlimit="10" stroke-linecap="round"/>
<path d="M203.694 41.792L168.152 6.144C163.97 2.19606 158.436 -0.00225107 152.686 1.72977e-06H6.55229C3.24562 1.72977e-06 0.557617 2.688 0.557617 5.99467V250.005C0.557617 253.312 3.24562 256 6.55229 256H206.936C210.243 256 212.931 253.312 212.931 250.005V58.1973C212.91 51.9893 208.216 46.0587 203.694 41.792ZM204.376 247.467H9.09095V8.53334H147.032C151.555 8.53334 155.246 12.2027 155.246 16.7467V54.8907H192.238C198.936 54.8907 204.376 58.5813 204.376 67.0293V247.467Z" fill="#6FBFF0"/>
</svg>
