<svg width="257" height="257" viewBox="0 0 257 257" fill="none" xmlns="http://www.w3.org/2000/svg">
<path d="M256.957 52.2681V238.386C256.957 248.64 248.639 256.957 238.386 256.957H19.5284C9.2748 256.957 0.957031 248.64 0.957031 238.386V19.5289C0.957031 9.27528 9.2748 0.95752 19.5284 0.95752H210.22C217.793 0.95752 224.984 4.33994 229.813 10.19L251.171 36.1219C254.915 40.6743 256.957 46.3755 256.957 52.2681Z" fill="#616161"/>
<path d="M213.926 256.959H43.8691V144.382C43.8691 140.531 46.9963 137.404 50.8467 137.404H206.97C210.82 137.404 213.947 140.531 213.947 144.382V256.959H213.926Z" fill="white"/>
<path d="M43.8691 230.897H213.926V256.957H43.8691V230.897Z" fill="#039BE5"/>
<path d="M28.4463 0.95752V102.536C28.4463 106.323 31.7862 109.28 36.211 109.28H199.269C203.694 109.28 207.119 106.344 207.119 102.536V0.95752H28.4463Z" fill="#424242"/>
<path d="M67.2695 0.95752V96.7286C67.2695 100.303 69.7798 103.068 73.0984 103.068H195.333C198.652 103.068 201.226 100.303 201.226 96.7286V0.95752H67.2695ZM175.698 91.772C175.698 93.3037 174.443 94.5588 172.912 94.5588H135.939C134.407 94.5588 133.152 93.3037 133.152 91.772V12.2535C133.152 10.7219 134.407 9.46674 135.939 9.46674H172.912C174.443 9.46674 175.698 10.7219 175.698 12.2535V91.772Z" fill="#E0E0E0"/>
</svg>
