<svg width="257" height="212" viewBox="0 0 257 212" fill="none" xmlns="http://www.w3.org/2000/svg">
<path d="M255.027 2.70563C254.576 2.14162 254.006 1.68506 253.357 1.36926C252.707 1.05339 251.996 0.886223 251.275 0.879883H201.538C199.251 0.879883 197.285 2.48494 196.863 4.73202L177.643 102.4L150.618 4.37088C150.457 3.78905 150.176 3.28747 149.835 2.82601C149.815 2.80595 149.815 2.74576 149.775 2.7257C149.715 2.64545 149.615 2.62538 149.554 2.54513C149.213 2.14386 148.812 1.82285 148.351 1.56203C148.19 1.48178 148.05 1.38146 147.889 1.32127C147.307 1.06045 146.685 0.879883 146.003 0.879883H110.07C109.408 0.879883 108.766 1.06045 108.184 1.32127C108.023 1.40152 107.883 1.48178 107.723 1.56203C107.261 1.82285 106.86 2.14386 106.519 2.54513C106.438 2.62538 106.358 2.64545 106.298 2.7257C106.278 2.76582 106.278 2.80595 106.238 2.82601C105.897 3.28747 105.616 3.80911 105.455 4.37088L78.4702 102.4L59.2296 4.73202C59.014 3.64941 58.4309 2.67458 57.579 1.9726C56.7271 1.27055 55.6587 0.884537 54.5549 0.879883H4.83827C3.37366 0.879883 1.96923 1.56203 1.08645 2.70563C0.163544 3.84924 -0.157467 5.37404 0.183607 6.77846L49.9203 208.313C49.9403 208.374 50.0005 208.434 50.0005 208.514C50.1209 208.895 50.2613 209.236 50.462 209.577C50.5222 209.678 50.5623 209.778 50.6425 209.878C50.6827 209.938 50.7027 209.999 50.7629 210.059C51.0037 210.38 51.2645 210.641 51.5855 210.902C51.6256 210.942 51.6858 210.962 51.746 211.002C52.067 211.243 52.4282 211.443 52.8094 211.584C52.9097 211.624 53.0301 211.664 53.1504 211.704C53.5918 211.845 54.0734 211.945 54.5549 211.945H94.2401C94.9021 211.945 95.504 211.784 96.0859 211.524C96.2464 211.443 96.3868 211.363 96.5473 211.283C96.9486 211.042 97.3298 210.761 97.6508 210.4C97.7311 210.32 97.8514 210.28 97.9317 210.199C97.9718 210.139 97.9718 210.079 98.0119 210.019C98.3931 209.517 98.6941 208.975 98.8546 208.354L128.047 94.7958L157.239 208.374C157.399 208.996 157.7 209.537 158.081 210.039C158.121 210.099 158.121 210.159 158.181 210.219C158.242 210.3 158.362 210.34 158.442 210.42C158.763 210.781 159.124 211.062 159.546 211.303C159.706 211.383 159.847 211.483 160.007 211.544C160.589 211.784 161.191 211.965 161.853 211.965H201.538C202.02 211.965 202.481 211.865 202.943 211.724C203.063 211.684 203.163 211.644 203.304 211.604C203.665 211.463 204.026 211.263 204.367 211.022C204.427 210.982 204.467 210.962 204.528 210.922C204.828 210.681 205.109 210.4 205.35 210.079C205.39 210.019 205.41 209.959 205.47 209.898C205.531 209.798 205.571 209.698 205.651 209.597C205.832 209.256 205.992 208.915 206.113 208.534C206.133 208.474 206.193 208.414 206.193 208.333L255.929 6.79853C256.25 5.37404 255.929 3.84924 255.027 2.70563Z" fill="#40C0E7"/>
</svg>
