<svg width="257" height="257" viewBox="0 0 257 257" fill="none" xmlns="http://www.w3.org/2000/svg">
<path d="M196.127 256.5L256.5 96.8735L208.5 85.9935L196.127 256.5Z" fill="#087CFA"/>
<path d="M255.753 205.833L196.127 256.5L111.033 234.58L255.753 205.833Z" fill="url(#paint0_linear_1_32)"/>
<path d="M32.3666 117.78L5.16663 39.9667L140.98 0.5L32.3666 117.78Z" fill="url(#paint1_linear_1_32)"/>
<path d="M223.86 148.713L185.753 83.6733L186.473 83.22L140.98 0.5L0.5 152.207V256.5L255.753 205.833L223.86 148.713Z" fill="url(#paint2_linear_1_32)"/>
<path d="M48.5 48.5H208.5V208.5H48.5V48.5Z" fill="black"/>
<path d="M68.4467 178.26H128.447V188.26H68.4467V178.26Z" fill="white"/>
<path d="M89.8332 68.5H101.833L127.38 128.58H113.673L108.34 115.247H83.0065L77.6732 128.58H64.3398L89.8332 68.5ZM103.647 103.62L95.6465 84.26L87.6465 103.62H103.647Z" fill="white"/>
<path d="M125.273 98.82V98.66C125.2 94.5095 125.968 90.387 127.53 86.5412C129.093 82.6953 131.418 79.2058 134.366 76.2829C137.314 73.36 140.823 71.0643 144.682 69.5343C148.541 68.0042 152.67 67.2714 156.82 67.38C161.229 67.159 165.636 67.8741 169.75 69.4781C173.863 71.0822 177.59 73.5389 180.686 76.6867L172.206 86.4734C168.147 82.2554 162.592 79.8033 156.74 79.6467C146.553 79.6467 139.193 88.1 139.193 98.4734V98.66C139.193 109.033 146.366 117.673 156.74 117.673C163.646 117.673 167.886 115.007 172.74 110.58L181.113 119.167C178.051 122.699 174.229 125.493 169.935 127.34C165.64 129.187 160.984 130.04 156.313 129.833C152.22 129.902 148.155 129.147 144.36 127.613C140.565 126.079 137.117 123.797 134.222 120.904C131.326 118.011 129.041 114.565 127.504 110.771C125.967 106.977 125.208 102.913 125.273 98.82Z" fill="white"/>
<defs>
<linearGradient id="paint0_linear_1_32" x1="111.033" y1="231.167" x2="255.753" y2="231.167" gradientUnits="userSpaceOnUse">
<stop offset="0.19" stop-color="#07C3F2"/>
<stop offset="0.9" stop-color="#087CFA"/>
</linearGradient>
<linearGradient id="paint1_linear_1_32" x1="5.16663" y1="59.14" x2="140.98" y2="59.14" gradientUnits="userSpaceOnUse">
<stop offset="0.19" stop-color="#07C3F2"/>
<stop offset="0.9" stop-color="#087CFA"/>
</linearGradient>
<linearGradient id="paint2_linear_1_32" x1="168.287" y1="264.633" x2="41.46" y2="87.62" gradientUnits="userSpaceOnUse">
<stop offset="0.09" stop-color="#21D789"/>
<stop offset="0.48" stop-color="#07C3F2"/>
<stop offset="0.9" stop-color="#087CFA"/>
</linearGradient>
</defs>
</svg>
