<svg width="256" height="256" viewBox="0 0 256 256" fill="none" xmlns="http://www.w3.org/2000/svg">
<path d="M121.001 91.9397L12.7187 65.4836L0 95.5668L39.0093 220.406L142.705 255.983L120.974 91.9131L121.001 91.9397Z" fill="url(#paint0_linear_1_55)"/>
<path d="M255.973 73.2443L229.949 22.279L97.1897 0.0100098L39.009 220.433L142.705 256.01L148.278 246.889L256 73.2176L255.973 73.2443Z" fill="url(#paint1_linear_1_55)"/>
<path d="M207.979 47.9883H47.9951V208.005H207.979V47.9883Z" fill="black"/>
<path d="M69.3255 186.669H133.319V176.002H69.3255V186.669ZM161.769 67.9638H149.451L127.906 127.703H139.585L144.144 113.702H167.555L172.462 127.703H183.927L161.743 67.9638H161.769ZM146.918 104.874L154.597 81.7785L155.503 78.0181L156.41 81.7785L164.596 104.874H146.944H146.918ZM81.5643 124.69C84.8173 126.583 88.3636 127.757 92.1498 128.317V129.09C92.1498 131.57 92.6831 133.731 93.723 135.571C94.7629 137.411 96.2561 138.851 98.1759 139.838C100.122 140.825 102.362 141.331 104.922 141.331H114.388V132.877H107.135C106.228 132.877 105.455 132.717 104.815 132.37C104.175 132.024 103.695 131.544 103.349 130.904C103.002 130.264 102.842 129.49 102.842 128.583V128.183C106.362 127.57 109.668 126.45 112.708 124.69C117.347 121.996 120.974 118.316 123.64 113.595C126.28 108.875 127.613 103.621 127.613 97.8335C127.613 92.0463 126.28 86.7657 123.64 82.0719C121 77.3514 117.347 73.671 112.708 70.9774C108.068 68.2838 102.869 66.9503 97.136 66.9503C91.4032 66.9503 86.2571 68.2838 81.6176 70.9774C76.9781 73.671 73.3251 77.3514 70.6854 82.0719C68.019 86.7924 66.6858 92.0463 66.6858 97.8335C66.6858 103.621 68.019 108.901 70.6854 113.595C73.3518 118.316 77.0047 121.996 81.6176 124.69H81.5643ZM80.7643 87.1124C82.3908 83.9387 84.6573 81.4318 87.5103 79.645C90.3634 77.8581 93.563 76.9514 97.136 76.9514C100.709 76.9514 103.909 77.8581 106.762 79.645C109.615 81.4318 111.854 83.9387 113.454 87.1124C115.054 90.2861 115.854 93.8598 115.854 97.8335C115.854 101.807 115.054 105.354 113.454 108.555C111.854 111.728 109.615 114.235 106.762 116.022C103.909 117.809 100.709 118.716 97.136 118.716C93.563 118.716 90.3634 117.809 87.5103 116.022C84.6573 114.235 82.4175 111.728 80.7643 108.555C79.1378 105.381 78.3113 101.807 78.3113 97.8335C78.3113 93.8598 79.1378 90.3127 80.7643 87.1124Z" fill="white"/>
<defs>
<linearGradient id="paint0_linear_1_55" x1="94.8969" y1="209.579" x2="59.3137" y2="89.8635" gradientUnits="userSpaceOnUse">
<stop stop-color="#087CFA"/>
<stop offset="1" stop-color="#6B57FF"/>
</linearGradient>
<linearGradient id="paint1_linear_1_55" x1="101.216" y1="161.867" x2="178.271" y2="33.8676" gradientUnits="userSpaceOnUse">
<stop stop-color="#087CFA"/>
<stop offset="1" stop-color="#3BEA62"/>
</linearGradient>
</defs>
</svg>
