<svg width="256" height="256" viewBox="0 0 256 256" fill="none" xmlns="http://www.w3.org/2000/svg">
<path d="M92.0264 100.107L97.5731 0L155.786 32.2667L92.0264 100.107Z" fill="url(#paint0_linear_1_70)"/>
<path d="M92.0268 100.107L97.5735 0L23.6534 46.5868L0 188.214L92.0268 100.107Z" fill="url(#paint1_linear_1_70)"/>
<path d="M250.907 76.7202L217.974 9.76013L155.787 32.2668L92.0269 100.107L0 188.214L83.0135 248.641L187.36 154.534L250.907 76.7202Z" fill="url(#paint2_linear_1_70)"/>
<path d="M208 146.774V208H107.466L151.653 242.187L215.653 256.001L256 164.667L208 146.774Z" fill="url(#paint3_linear_1_70)"/>
<path d="M208 48.0001H48.0001V208H208V48.0001Z" fill="black"/>
<path d="M69.3334 186.667H133.334V176H69.3334V186.667ZM144.8 117.413V67.9733H133.44V127.707H173.254V117.413H144.8ZM81.5201 124.667C86.1601 127.36 91.3068 128.693 97.0135 128.693C101.84 128.693 106.267 127.813 110.293 126.027C114.32 124.24 117.68 121.76 120.347 118.533C123.014 115.307 124.827 111.627 125.76 107.44H113.76C112.96 109.653 111.76 111.573 110.187 113.227C108.587 114.853 106.667 116.133 104.427 117.013C102.187 117.92 99.7335 118.347 97.0935 118.347C93.5468 118.347 90.3201 117.467 87.4401 115.68C84.5601 113.893 82.3201 111.467 80.6668 108.347C79.0401 105.227 78.2134 101.707 78.2134 97.7867C78.2134 93.8667 79.0401 90.3467 80.6668 87.2267C82.2934 84.1067 84.5601 81.68 87.4401 79.8934C90.3201 78.1067 93.5201 77.2267 97.0935 77.2267C99.7335 77.2267 102.187 77.68 104.427 78.56C106.667 79.4667 108.587 80.72 110.187 82.3467C111.787 83.9734 112.987 85.92 113.76 88.1334H125.76C124.827 83.9467 123.014 80.2667 120.347 77.04C117.68 73.8134 114.32 71.3333 110.293 69.5467C106.267 67.76 101.84 66.88 97.0135 66.88C91.3335 66.88 86.1601 68.2133 81.5201 70.9067C76.8801 73.6 73.2534 77.28 70.5867 82C67.9467 86.72 66.6134 91.9734 66.6134 97.7601C66.6134 103.547 67.9467 108.827 70.5867 113.52C73.2267 118.24 76.8801 121.92 81.5201 124.613V124.667Z" fill="white"/>
<defs>
<linearGradient id="paint0_linear_1_70" x1="92.0264" y1="50.0534" x2="165.36" y2="50.0534" gradientUnits="userSpaceOnUse">
<stop stop-color="#FF318C"/>
<stop offset="0.15" stop-color="#FB338B"/>
<stop offset="0.28" stop-color="#F03B8B"/>
<stop offset="0.42" stop-color="#DD498B"/>
<stop offset="0.54" stop-color="#C35D8B"/>
<stop offset="0.67" stop-color="#A1768A"/>
<stop offset="0.79" stop-color="#78958A"/>
<stop offset="0.91" stop-color="#48B989"/>
<stop offset="1" stop-color="#21D789"/>
</linearGradient>
<linearGradient id="paint1_linear_1_70" x1="62.6401" y1="32.4801" x2="24.9867" y2="285.121" gradientUnits="userSpaceOnUse">
<stop offset="0.09" stop-color="#21D789"/>
<stop offset="0.9" stop-color="#009AE5"/>
</linearGradient>
<linearGradient id="paint2_linear_1_70" x1="233.467" y1="23.7335" x2="-24.08" y2="295.734" gradientUnits="userSpaceOnUse">
<stop offset="0.09" stop-color="#21D789"/>
<stop offset="0.9" stop-color="#009AE5"/>
</linearGradient>
<linearGradient id="paint3_linear_1_70" x1="155.573" y1="193.387" x2="243.653" y2="205.92" gradientUnits="userSpaceOnUse">
<stop offset="0.09" stop-color="#21D789"/>
<stop offset="0.9" stop-color="#009AE5"/>
</linearGradient>
</defs>
</svg>
