<svg width="257" height="257" viewBox="0 0 257 257" fill="none" xmlns="http://www.w3.org/2000/svg">
<path d="M165.306 0.772705L170.373 104.773L40.7727 155.973L0.772736 52.5055L165.306 0.772705Z" fill="url(#paint0_linear_1_132)"/>
<path d="M256.773 61.5727L144.773 110.106L165.306 0.772705L256.773 61.5727Z" fill="#21D789"/>
<path d="M138.106 85.5725L256.773 61.5725V173.84L175.173 204.507L141.838 174.105L138.106 85.5725Z" fill="url(#paint1_linear_1_132)"/>
<path d="M88.7727 52.7725L170.646 65.4397L256.773 172.841L174.102 204.772L142.203 173.105L88.7727 52.7725Z" fill="url(#paint2_linear_1_132)"/>
<path d="M53.5728 0.772705L170.373 65.3055L130.106 256.773H62.1056L3.17276 195.973L53.5728 0.772705Z" fill="url(#paint3_linear_1_132)"/>
<path d="M206.773 50.7729H50.7727V206.773H206.773V50.7729Z" fill="url(#paint4_linear_1_132)"/>
<path d="M126.173 179.905H68.1055V189.44H126.173V179.905ZM68.7727 70.7726H91.5807C110.085 70.7726 122.566 83.2526 122.566 99.6046C122.566 115.958 110.086 128.869 91.5807 128.869L68.7727 129.301V70.7726ZM81.6831 82.8222V117.68H91.5807C101.909 117.68 109.225 110.795 109.225 100.467C109.225 90.1374 102.339 82.8222 91.5807 82.8222H81.6831ZM128.773 120.453L136.313 111.353C141.513 115.773 147.233 118.373 153.733 118.373C158.933 118.373 162.312 116.293 162.312 112.913V112.653C162.312 109.273 160.232 107.713 150.613 105.113C138.653 102.253 131.112 98.8734 131.112 87.1726V86.9134C131.112 76.2526 139.693 69.2334 151.653 69.2334C160.232 69.2334 167.512 71.8334 173.493 76.7726L166.733 86.3934C161.533 82.7534 156.333 80.6734 151.393 80.6734C146.453 80.6734 143.853 83.0126 143.853 85.8734V86.1326C143.853 90.0334 146.453 91.3326 156.593 93.9326C168.553 97.0526 175.312 101.213 175.312 111.613V111.873C175.312 123.573 166.473 130.073 153.733 130.073C144.893 129.813 135.793 126.693 128.773 120.453Z" fill="white"/>
<defs>
<linearGradient id="paint0_linear_1_132" x1="190.632" y1="78.4319" x2="20.9439" y2="78.4319" gradientUnits="userSpaceOnUse">
<stop stop-color="#21D789"/>
<stop offset="0.917" stop-color="#FCF84A"/>
</linearGradient>
<linearGradient id="paint1_linear_1_132" x1="197.4" y1="74.6765" x2="197.4" y2="286.454" gradientUnits="userSpaceOnUse">
<stop stop-color="#21D789"/>
<stop offset="1" stop-color="#087CFA"/>
</linearGradient>
<linearGradient id="paint2_linear_1_132" x1="337.482" y1="267.641" x2="87.1519" y2="63.6428" gradientUnits="userSpaceOnUse">
<stop offset="0.105" stop-color="#21D789"/>
<stop offset="0.967" stop-color="#087CFA"/>
</linearGradient>
<linearGradient id="paint3_linear_1_132" x1="222.107" y1="-18.9329" x2="45.6624" y2="181.038" gradientUnits="userSpaceOnUse">
<stop offset="0.235" stop-color="#21D789"/>
<stop offset="0.74" stop-color="#087CFA"/>
</linearGradient>
<linearGradient id="paint4_linear_1_132" x1="128.565" y1="12.8577" x2="128.565" y2="152.759" gradientUnits="userSpaceOnUse">
<stop offset="0.084" stop-color="#878585"/>
<stop offset="0.538"/>
</linearGradient>
</defs>
</svg>
