<svg width="256" height="256" viewBox="0 0 256 256" fill="none" xmlns="http://www.w3.org/2000/svg">
<path d="M239.68 39.7869L256 144.587L225.84 162.134L239.68 39.7869Z" fill="url(#paint0_linear_1_91)"/>
<path d="M239.68 39.7867L148.027 0L122.453 21.2267L239.68 39.7867Z" fill="url(#paint1_linear_1_91)"/>
<path d="M172.987 256L30.7737 142.667L2.21356 228.587L172.987 256Z" fill="url(#paint2_linear_1_91)"/>
<path d="M192.8 184.4L0 118.16L172.987 256L192.8 184.4Z" fill="url(#paint3_linear_1_91)"/>
<path d="M0 1.81348V118.16L222.16 194.507L239.68 39.7869L0 1.81348Z" fill="url(#paint4_linear_1_91)"/>
<path d="M208 48H48.0001V208H208V48Z" fill="black"/>
<path d="M69.3334 186.667H133.334V176H69.3334V186.667ZM161.547 96.1334V105.147H175.494C175.227 107.44 174.427 109.547 173.094 111.413C171.52 113.6 169.387 115.307 166.72 116.56C164.054 117.813 161.04 118.427 157.707 118.427C154.16 118.427 150.934 117.547 148.054 115.76C145.174 113.973 142.934 111.547 141.28 108.427C139.654 105.307 138.827 101.787 138.827 97.8667C138.827 93.9467 139.654 90.4267 141.28 87.3067C142.907 84.1867 145.174 81.76 148.054 79.9734C150.934 78.1867 154.134 77.3067 157.707 77.3067C160.134 77.3067 162.374 77.68 164.48 78.4267C166.587 79.1734 168.4 80.2667 169.974 81.6534C171.547 83.04 172.8 84.6934 173.707 86.6134H185.92C184.827 82.7467 182.96 79.3334 180.267 76.3734C177.574 73.4134 174.294 71.12 170.4 69.4667C166.507 67.8134 162.24 66.9867 157.654 66.9867C151.974 66.9867 146.8 68.32 142.16 71.0134C137.52 73.7067 133.894 77.3867 131.227 82.1067C128.587 86.8267 127.254 92.0801 127.254 97.8667C127.254 103.653 128.587 108.933 131.227 113.627C133.867 118.347 137.52 122.027 142.16 124.72C146.8 127.413 151.947 128.747 157.654 128.747C163.36 128.747 168.054 127.52 172.48 125.093C176.907 122.667 180.374 119.307 182.907 115.067C185.44 110.827 186.694 106.08 186.694 100.827V96.1334H161.574H161.547ZM107.733 123.867C112.213 121.307 115.707 117.76 118.24 113.227C120.747 108.693 122.027 103.573 122.027 97.8401C122.027 92.1067 120.774 86.9867 118.24 82.4534C115.733 77.92 112.213 74.3734 107.733 71.8134C103.253 69.2534 98.1868 67.9734 92.5601 67.9734H69.8668V127.707H92.5601C98.1868 127.707 103.253 126.427 107.733 123.867ZM81.2534 117.84V77.8134H92.4268C96.0001 77.8134 99.1468 78.6134 101.867 80.24C104.56 81.8667 106.64 84.16 108.107 87.1734C109.573 90.1867 110.293 93.7334 110.293 97.8134C110.293 101.893 109.573 105.467 108.107 108.453C106.64 111.467 104.56 113.76 101.867 115.387C99.1735 117.013 96.0268 117.813 92.4268 117.813H81.2534V117.84Z" fill="white"/>
<defs>
<linearGradient id="paint0_linear_1_91" x1="234.373" y1="96.3203" x2="241.84" y2="161.494" gradientUnits="userSpaceOnUse">
<stop offset="0.16" stop-color="#21D789"/>
<stop offset="0.54" stop-color="#419FBC"/>
<stop offset="1" stop-color="#6B57FF"/>
</linearGradient>
<linearGradient id="paint1_linear_1_91" x1="166.267" y1="68.3201" x2="185.2" y2="19.8934" gradientUnits="userSpaceOnUse">
<stop stop-color="#6B57FF"/>
<stop offset="0.95" stop-color="#21D789"/>
</linearGradient>
<linearGradient id="paint2_linear_1_91" x1="61.6537" y1="129.254" x2="80.0537" y2="209.36" gradientUnits="userSpaceOnUse">
<stop stop-color="#6B57FF"/>
<stop offset="0.02" stop-color="#685BFA"/>
<stop offset="0.28" stop-color="#4990C9"/>
<stop offset="0.51" stop-color="#33B6A6"/>
<stop offset="0.69" stop-color="#25CE90"/>
<stop offset="0.8" stop-color="#21D789"/>
</linearGradient>
<linearGradient id="paint3_linear_1_91" x1="15.9467" y1="128.027" x2="240.267" y2="251.894" gradientUnits="userSpaceOnUse">
<stop offset="0.08" stop-color="#21D789"/>
<stop offset="0.89" stop-color="#6B57FF"/>
</linearGradient>
<linearGradient id="paint4_linear_1_91" x1="17.3067" y1="98.1603" x2="242.774" y2="98.1603" gradientUnits="userSpaceOnUse">
<stop offset="0.31" stop-color="#21D789"/>
<stop offset="0.49" stop-color="#58A2B1"/>
<stop offset="0.77" stop-color="#B74AF7"/>
<stop offset="1" stop-color="#FF45ED"/>
</linearGradient>
</defs>
</svg>
