<svg width="257" height="257" viewBox="0 0 257 257" fill="none" xmlns="http://www.w3.org/2000/svg">
<path d="M238.162 30.7643C234.971 29.0861 231.521 27.9532 227.956 27.4125C225.718 27.1617 89.5719 1.01769 82.3662 0.591421C78.8303 0.382077 75.2821 0.539352 71.7786 1.06073C8.4635 10.4883 -7.45987 87.5625 44.7662 119.759C57.071 127.33 71.8387 129.818 85.9449 126.695C110.68 121.311 222.16 93.7874 229.43 92.2073C260.366 85.4828 266.811 45.8559 238.162 30.7643Z" fill="url(#paint0_linear_1_106)"/>
<path d="M239.49 149.35C234.136 143.347 137.689 33.7317 117.075 15.8563C112.776 12.151 108.064 8.95299 103.033 6.32564C93.4365 1.30227 82.4915 -0.541356 71.7786 1.06097C14.6298 9.57028 -3.90878 73.1917 31.4272 109.179C35.2399 113.062 141.411 231.101 142.324 232.255C147.374 238.579 153.495 243.967 160.409 248.173C172.824 255.813 187.725 258.323 201.958 255.171C254.252 243.784 271.13 184.829 239.49 149.35Z" fill="url(#paint1_linear_1_106)"/>
<path d="M219.197 133.7C217.073 132.583 214.872 131.617 212.61 130.812C210.823 130.175 67.3621 84.8916 64.1965 84.0983C58.8753 82.7667 53.3438 82.4967 47.9182 83.3037C-3.56772 90.9707 -16.5151 153.646 25.9542 179.827C35.9344 185.979 166.751 251.669 170.105 252.928C180.284 256.731 191.346 257.51 201.958 255.171C263.1 241.857 275.827 163.515 219.197 133.7Z" fill="url(#paint2_linear_1_106)"/>
<path d="M238.162 30.7644C233.263 28.1986 227.676 27.2558 222.207 28.0723C219.402 28.4809 216.65 29.1926 213.999 30.1951C201.177 35.0817 37.1031 85.6427 32.4111 87.6818C23.5427 91.3484 15.8726 97.4155 10.2627 105.201C4.65285 112.987 1.32557 122.183 0.654786 131.755C-0.0160014 141.328 1.99628 150.898 6.4655 159.39C10.9347 167.882 17.6838 174.959 25.9542 179.827C35.9602 185.984 47.969 188.007 59.44 185.467C63.8858 184.512 68.2077 183.051 72.3214 181.113C92.6222 171.494 236.781 90.0118 239.862 88.2555C245.048 85.3685 249.341 81.1125 252.272 75.9522C255.204 70.7918 256.661 64.9254 256.486 58.9932C256.31 53.0609 254.509 47.2909 251.277 42.3128C248.046 37.3347 243.509 33.3399 238.162 30.7644Z" fill="url(#paint3_linear_1_106)"/>
<path d="M208.499 48.5H48.5006V208.49H208.499V48.5Z" fill="black"/>
<path d="M128.443 178.261H68.4436V188.26H128.443V178.261Z" fill="white"/>
<path d="M68.4436 68.2887H91.9156C110.831 68.2887 123.899 81.2709 123.899 98.207V98.3795C123.899 115.316 110.831 128.47 91.9156 128.47H68.4436V68.2887ZM81.6842 80.2395V116.52H91.9155C94.3203 116.662 96.7281 116.296 98.982 115.446C101.236 114.595 103.285 113.28 104.997 111.585C106.708 109.889 108.044 107.853 108.915 105.607C109.787 103.361 110.176 100.957 110.057 98.5514V98.3796C110.18 95.965 109.795 93.5514 108.926 91.2949C108.058 89.0383 106.726 86.989 105.016 85.2794C103.307 83.5698 101.257 82.2379 99.0007 81.3697C96.744 80.5016 94.3303 80.1165 91.9155 80.2395H81.6842Z" fill="white"/>
<path d="M132.471 68.342H145.739V117.368H172.057V128.498H132.471V68.342Z" fill="white"/>
<defs>
<linearGradient id="paint0_linear_1_106" x1="78.764" y1="63.8432" x2="234.124" y2="94.8082" gradientUnits="userSpaceOnUse">
<stop offset="0.24211" stop-color="#3BEA62"/>
<stop offset="0.85664" stop-color="#FCF84A"/>
</linearGradient>
<linearGradient id="paint1_linear_1_106" x1="62.128" y1="18.2163" x2="211.287" y2="245.096" gradientUnits="userSpaceOnUse">
<stop offset="0.0176" stop-color="#3BEA62"/>
<stop offset="0.78604" stop-color="#087CFA"/>
</linearGradient>
<linearGradient id="paint2_linear_1_106" x1="60.0549" y1="144.451" x2="248.986" y2="212.692" gradientUnits="userSpaceOnUse">
<stop offset="0.12092" stop-color="#1FAEB5"/>
<stop offset="0.97461" stop-color="#087CFA"/>
</linearGradient>
<linearGradient id="paint3_linear_1_106" x1="5.70545" y1="155.086" x2="249.74" y2="46.9223" gradientUnits="userSpaceOnUse">
<stop offset="0.12092" stop-color="#1FAEB5"/>
<stop offset="0.8556" stop-color="#FCF84A"/>
</linearGradient>
</defs>
</svg>
