<svg width="257" height="257" viewBox="0 0 257 257" fill="none" xmlns="http://www.w3.org/2000/svg">
<path d="M157.033 0.5L0.5 18.1267V98.6067L39.7533 229.273L236.58 179.38L157.033 0.5Z" fill="url(#paint0_linear_6_40)"/>
<path d="M241.673 81.7267L179.993 52.18L93.46 207.967L116.98 239.86L176.927 256.5L234.633 220.1L256.5 151.567L241.673 81.7267Z" fill="url(#paint1_linear_6_40)"/>
<path d="M48.5 48.5H208.5V208.5H48.5V48.5Z" fill="black"/>
<path d="M68.4467 178.26H128.447V188.26H68.4467V178.26Z" fill="white"/>
<path d="M68.5 68.2866H91.9667C110.873 68.2866 123.967 81.2733 123.967 98.2066V98.3933C123.967 115.327 110.9 128.473 91.9667 128.473H68.5V68.2866ZM81.8333 80.2333V116.5H92.0733C94.478 116.642 96.8854 116.275 99.1389 115.424C101.392 114.573 103.441 113.257 105.152 111.561C106.863 109.865 108.197 107.828 109.068 105.582C109.939 103.337 110.327 100.932 110.207 98.5266V98.3666C110.329 95.9518 109.944 93.5383 109.076 91.2815C108.208 89.0247 106.877 86.9747 105.169 85.2638C103.46 83.5529 101.412 82.2189 99.1568 81.3478C96.9013 80.4768 94.4883 80.088 92.0733 80.2066L81.8333 80.2333Z" fill="white"/>
<path d="M130.233 98.82V98.66C130.16 94.5048 130.929 90.3778 132.495 86.5283C134.061 82.6788 136.391 79.1868 139.345 76.2632C142.298 73.3395 145.814 71.045 149.679 69.5182C153.544 67.9914 157.679 67.264 161.833 67.38C166.239 67.1611 170.641 67.8772 174.75 69.4813C178.859 71.0853 182.581 73.5409 185.673 76.6867L177.193 86.4733C173.134 82.2553 167.579 79.8033 161.727 79.6467C151.54 79.6467 144.207 88.1 144.207 98.4733V98.66C144.207 109.033 151.353 117.673 161.727 117.673C168.66 117.673 172.873 115.007 177.727 110.58L186.047 119.167C182.988 122.703 179.167 125.501 174.872 127.348C170.576 129.196 165.918 130.045 161.247 129.833C157.156 129.898 153.094 129.14 149.302 127.605C145.51 126.069 142.065 123.787 139.173 120.894C136.28 118.001 133.998 114.557 132.462 110.765C130.926 106.973 130.169 102.911 130.233 98.82Z" fill="white"/>
<defs>
<linearGradient id="paint0_linear_6_40" x1="135.993" y1="203.967" x2="86.66" y2="20.34" gradientUnits="userSpaceOnUse">
<stop offset="0.05" stop-color="#6B57FF"/>
<stop offset="0.12" stop-color="#7556FE"/>
<stop offset="0.24" stop-color="#8F53FB"/>
<stop offset="0.4" stop-color="#BA4DF5"/>
<stop offset="0.58" stop-color="#F446EE"/>
<stop offset="0.61" stop-color="#FF45ED"/>
<stop offset="0.69" stop-color="#FF3BBE"/>
<stop offset="0.77" stop-color="#FF318C"/>
<stop offset="0.99" stop-color="#FC801D"/>
</linearGradient>
<linearGradient id="paint1_linear_6_40" x1="248.527" y1="178.953" x2="152.233" y2="147.247" gradientUnits="userSpaceOnUse">
<stop offset="0.03" stop-color="#6B57FF"/>
<stop offset="0.39" stop-color="#FF45ED"/>
<stop offset="0.49" stop-color="#FF4DD1"/>
<stop offset="0.7" stop-color="#FE6189"/>
<stop offset="1" stop-color="#FC801D"/>
</linearGradient>
</defs>
</svg>
