<svg width="257" height="257" viewBox="0 0 257 257" fill="none" xmlns="http://www.w3.org/2000/svg">
<path d="M174.927 184.487L0.5 149.607L52.02 256.38L180.687 233.953L174.927 184.487Z" fill="url(#paint0_linear_6_93)"/>
<path d="M256.5 114.94L185.833 42.0867L0.5 81.1534V149.607L229.46 195.367L256.5 114.94Z" fill="url(#paint1_linear_6_93)"/>
<path d="M256.5 114.94L145.38 0.380005L58.3133 26.7267L86.82 113.447L229.46 195.367L256.5 114.94Z" fill="url(#paint2_linear_6_93)"/>
<path d="M236.527 71.9533L226.447 0.380005H188.26H145.38L58.3133 26.7267L86.82 113.447L236.527 71.9533Z" fill="url(#paint3_linear_6_93)"/>
<path d="M48.5 48.7H208.5V208.7H48.5V48.7Z" fill="black"/>
<path d="M68.4467 178.46H128.447V188.46H68.4467V178.46Z" fill="white"/>
<path d="M68.5 68.4866H91.9667C110.873 68.4866 123.967 81.4733 123.967 98.4066V98.5933C123.967 115.527 110.9 128.673 91.9667 128.673H68.5V68.4866ZM81.8333 80.4333V116.7H92.0733C94.478 116.842 96.8854 116.475 99.1389 115.624C101.392 114.773 103.441 113.457 105.152 111.761C106.863 110.065 108.197 108.028 109.068 105.782C109.939 103.537 110.327 101.132 110.207 98.7266V98.5666C110.329 96.1519 109.944 93.7383 109.076 91.4815C108.208 89.2247 106.877 87.1748 105.169 85.4638C103.46 83.7529 101.412 82.4189 99.1568 81.5478C96.9013 80.6768 94.4883 80.2881 92.0733 80.4066L81.8333 80.4333Z" fill="white"/>
<path d="M133.62 68.4866H158.287C172.687 68.4866 181.38 77.02 181.38 89.3666V89.5266C181.38 103.5 170.527 110.86 156.98 110.86H146.9V128.967H133.567L133.62 68.4866ZM157.407 98.94C164.047 98.94 168.073 94.9666 168.073 89.7933V89.6066C168.073 83.66 163.94 80.4866 157.407 80.4866H146.9V98.94H157.407Z" fill="white"/>
<defs>
<linearGradient id="paint0_linear_6_93" x1="26.26" y1="131.393" x2="149.193" y2="256.887" gradientUnits="userSpaceOnUse">
<stop offset="0.1" stop-color="#FF45ED"/>
<stop offset="0.11" stop-color="#F846EE"/>
<stop offset="0.28" stop-color="#AC4FF7"/>
<stop offset="0.41" stop-color="#7D55FD"/>
<stop offset="0.47" stop-color="#6B57FF"/>
<stop offset="0.48" stop-color="#655DFE"/>
<stop offset="0.57" stop-color="#4482FA"/>
<stop offset="0.66" stop-color="#299EF6"/>
<stop offset="0.76" stop-color="#16B3F4"/>
<stop offset="0.85" stop-color="#0BBFF2"/>
<stop offset="0.94" stop-color="#07C3F2"/>
</linearGradient>
<linearGradient id="paint1_linear_6_93" x1="35.4867" y1="204.54" x2="125.247" y2="129.74" gradientUnits="userSpaceOnUse">
<stop offset="0.04" stop-color="#FF45ED"/>
<stop offset="0.05" stop-color="#FE45ED"/>
<stop offset="0.2" stop-color="#D14BF3"/>
<stop offset="0.36" stop-color="#AC4FF7"/>
<stop offset="0.51" stop-color="#9053FB"/>
<stop offset="0.67" stop-color="#7B55FD"/>
<stop offset="0.82" stop-color="#6F57FF"/>
<stop offset="0.97" stop-color="#6B57FF"/>
</linearGradient>
<linearGradient id="paint2_linear_6_93" x1="146.26" y1="62.2733" x2="206.607" y2="185.607" gradientUnits="userSpaceOnUse">
<stop offset="0.2" stop-color="#FF45ED"/>
<stop offset="0.29" stop-color="#F646EE"/>
<stop offset="0.43" stop-color="#DD49F1"/>
<stop offset="0.61" stop-color="#B64EF6"/>
<stop offset="0.82" stop-color="#7F55FD"/>
<stop offset="0.89" stop-color="#6B57FF"/>
</linearGradient>
<linearGradient id="paint3_linear_6_93" x1="73.1933" y1="67.3133" x2="224.793" y2="30.5667" gradientUnits="userSpaceOnUse">
<stop offset="0.1" stop-color="#FF45ED"/>
<stop offset="0.17" stop-color="#F64AED"/>
<stop offset="0.29" stop-color="#DD56EE"/>
<stop offset="0.44" stop-color="#B56AEE"/>
<stop offset="0.62" stop-color="#7E87F0"/>
<stop offset="0.81" stop-color="#38AAF1"/>
<stop offset="0.94" stop-color="#07C3F2"/>
</linearGradient>
</defs>
</svg>
