<svg width="257" height="257" viewBox="0 0 257 257" fill="none" xmlns="http://www.w3.org/2000/svg">
<path d="M246.66 59.1133L160.5 0.5L0.5 114.127L41.0333 256.5L215.913 221.033L246.66 59.1133Z" fill="url(#paint0_linear_6_109)"/>
<path d="M246.66 59.1133L160.5 0.5L139.3 57.9933V175.193H256.5L246.66 59.1133Z" fill="url(#paint1_linear_6_109)"/>
<path d="M48.5 48.5H208.5V208.5H48.5V48.5Z" fill="black"/>
<path d="M68.4467 178.26H128.447V188.26H68.4467V178.26Z" fill="white"/>
<path d="M68.5 68.2868H91.9667C110.873 68.2868 123.967 81.2735 123.967 98.2068V98.3935C123.967 115.327 110.9 128.473 91.9667 128.473H68.5V68.2868ZM81.8333 80.2335V116.5H92.0733C94.478 116.642 96.8855 116.275 99.1389 115.424C101.392 114.573 103.441 113.257 105.152 111.561C106.863 109.866 108.197 107.828 109.068 105.583C109.939 103.337 110.327 100.933 110.207 98.5268V98.3668C110.329 95.952 109.944 93.5385 109.076 91.2817C108.208 89.0249 106.877 86.9749 105.169 85.264C103.46 83.553 101.412 82.2191 99.1568 81.348C96.9013 80.477 94.4883 80.0882 92.0733 80.2068L81.8333 80.2335Z" fill="white"/>
<path d="M148.74 80.4201H130.42V68.2067H180.313V80.4467L161.993 80.4201V128.447H148.74V80.4201Z" fill="white"/>
<defs>
<linearGradient id="paint0_linear_6_109" x1="-4.38" y1="160.447" x2="245.673" y2="95.94" gradientUnits="userSpaceOnUse">
<stop offset="0.12" stop-color="#6B57FF"/>
<stop offset="0.54" stop-color="#FF45ED"/>
<stop offset="0.85" stop-color="#DD1265"/>
</linearGradient>
<linearGradient id="paint1_linear_6_109" x1="168.42" y1="142.793" x2="247.94" y2="33.78" gradientUnits="userSpaceOnUse">
<stop offset="0.19" stop-color="#DD1265"/>
<stop offset="0.29" stop-color="#DE146A"/>
<stop offset="0.41" stop-color="#E21977"/>
<stop offset="0.53" stop-color="#E7218E"/>
<stop offset="0.66" stop-color="#EF2DAD"/>
<stop offset="0.79" stop-color="#F93CD5"/>
<stop offset="0.85" stop-color="#FF45ED"/>
</linearGradient>
</defs>
</svg>
