<svg width="256" height="256" viewBox="0 0 256 256" fill="none" xmlns="http://www.w3.org/2000/svg">
<path d="M225.493 99.013L256 166.773L203.786 256L171.626 177.92L225.52 99.013H225.493Z" fill="url(#paint0_linear_6_148)"/>
<path d="M171.627 177.92L203.787 256L122.88 228.187L171.627 177.92Z" fill="#B74AF7"/>
<path d="M180.347 72.3203L163.76 0H71.7867L0 109.813L20.7733 160.267L0 206.32L148.667 79.8131L180.347 72.3203Z" fill="url(#paint1_linear_6_148)"/>
<path d="M256 54.3464L148.667 79.813L0 206.32L95.8933 256L171.627 177.92L256 54.3464Z" fill="url(#paint2_linear_6_148)"/>
<path d="M208 48H48V208H208V48Z" fill="black"/>
<path d="M66.6669 186.667H130.667V176H66.6669V186.667ZM77.0402 124.693C81.6802 127.387 86.8269 128.72 92.5336 128.72C98.2402 128.72 102.934 127.493 107.36 125.066C111.787 122.64 115.254 119.28 117.787 115.04C120.32 110.8 121.574 106.053 121.574 100.8V96.1067H96.4536V105.12H110.4C110.134 107.413 109.334 109.52 108 111.387C106.427 113.573 104.294 115.28 101.627 116.533C98.9602 117.76 95.9469 118.4 92.6136 118.4C89.0669 118.4 85.8402 117.52 82.9602 115.733C80.0802 113.946 77.8402 111.52 76.1869 108.4C74.5336 105.28 73.7336 101.76 73.7336 97.8397C73.7336 93.9197 74.5602 90.4 76.1869 87.28C77.8136 84.16 80.0802 81.7333 82.9602 79.9467C85.8402 78.16 89.0402 77.28 92.6136 77.28C95.0402 77.28 97.2802 77.6531 99.3869 78.3997C101.467 79.1464 103.307 80.2403 104.88 81.6269C106.454 83.0136 107.707 84.6667 108.614 86.5867H120.827C119.734 82.72 117.867 79.3064 115.174 76.3464C112.48 73.3864 109.2 71.0933 105.307 69.44C101.414 67.7867 97.1469 66.9603 92.5602 66.9603C86.8802 66.9603 81.7069 68.2936 77.0669 70.9869C72.4269 73.6803 68.8002 77.3867 66.1336 82.08C63.4936 86.8 62.1602 92.0531 62.1602 97.8397C62.1602 103.626 63.4936 108.907 66.1336 113.6C68.7736 118.294 72.4269 122 77.0669 124.693H77.0402ZM183.787 82.0533C181.147 77.36 177.494 73.6536 172.854 70.9603C168.214 68.2669 163.014 66.9336 157.28 66.9336C151.547 66.9336 146.4 68.2669 141.76 70.9603C137.12 73.6536 133.467 77.36 130.827 82.0533C128.16 86.7733 126.827 92.0264 126.827 97.8131C126.827 103.6 128.16 108.88 130.827 113.574C133.494 118.267 137.147 121.973 141.76 124.667C146.4 127.36 151.574 128.693 157.28 128.693C162.987 128.693 168.214 127.36 172.854 124.667C177.494 121.973 181.12 118.294 183.787 113.574C186.454 108.854 187.76 103.6 187.76 97.8131C187.76 92.0264 186.427 86.7467 183.787 82.0533ZM173.654 108.533C172.054 111.707 169.813 114.213 166.96 116C164.107 117.787 160.907 118.693 157.334 118.693C153.76 118.693 150.56 117.787 147.707 116C144.854 114.213 142.613 111.707 140.96 108.533C139.333 105.333 138.507 101.786 138.507 97.8131C138.507 93.8397 139.333 90.2931 140.96 87.0931C142.587 83.9197 144.854 81.4136 147.707 79.6269C150.56 77.8403 153.76 76.9336 157.334 76.9336C160.907 76.9336 164.107 77.8403 166.96 79.6269C169.813 81.4136 172.054 83.9197 173.654 87.0931C175.254 90.2664 176.054 93.8397 176.054 97.8131C176.054 101.786 175.254 105.333 173.654 108.533Z" fill="white"/>
<defs>
<linearGradient id="paint0_linear_6_148" x1="252.08" y1="145.813" x2="152.106" y2="230.426" gradientUnits="userSpaceOnUse">
<stop stop-color="#087CFA"/>
<stop offset="0.02" stop-color="#0C7AF9"/>
<stop offset="0.37" stop-color="#5565F8"/>
<stop offset="0.66" stop-color="#8A56F7"/>
<stop offset="0.88" stop-color="#AA4DF7"/>
<stop offset="1" stop-color="#B74AF7"/>
</linearGradient>
<linearGradient id="paint1_linear_6_148" x1="88.1067" y1="79.36" x2="148.88" y2="10.2134" gradientUnits="userSpaceOnUse">
<stop stop-color="#087CFA"/>
<stop offset="0.02" stop-color="#0C7AF9"/>
<stop offset="0.37" stop-color="#5565F8"/>
<stop offset="0.66" stop-color="#8A56F7"/>
<stop offset="0.88" stop-color="#AA4DF7"/>
<stop offset="1" stop-color="#B74AF7"/>
</linearGradient>
<linearGradient id="paint2_linear_6_148" x1="35.5733" y1="223.627" x2="220.24" y2="104.96" gradientUnits="userSpaceOnUse">
<stop stop-color="#087CFA"/>
<stop offset="0.1" stop-color="#1598D2"/>
<stop offset="0.22" stop-color="#22B5AA"/>
<stop offset="0.35" stop-color="#2DCC8A"/>
<stop offset="0.46" stop-color="#34DC74"/>
<stop offset="0.57" stop-color="#39E666"/>
<stop offset="0.67" stop-color="#3BEA62"/>
</linearGradient>
</defs>
</svg>
