<svg width="257" height="257" viewBox="0 0 257 257" fill="none" xmlns="http://www.w3.org/2000/svg">
<path d="M0.5 0.5H256.5V256.5H0.5V0.5Z" fill="black"/>
<path d="M28.3613 208.5H124.361V224.5H28.3613V208.5Z" fill="white"/>
<path d="M24.3506 66.6333L31.476 59.892C32.154 60.962 33.0759 61.8563 34.1661 62.5015C35.2562 63.1467 36.4837 63.5245 37.748 63.604C40.4786 63.604 42.2707 61.7267 42.2707 58.0147V32.5H53.2786V58.1C53.4433 60.1041 53.1992 62.1207 52.5611 64.0276C51.9231 65.9345 50.9043 67.692 49.5666 69.1933C48.0972 70.5597 46.3716 71.6215 44.4895 72.3172C42.6075 73.0129 40.6062 73.3288 38.6013 73.2467C35.8621 73.4264 33.1216 72.915 30.6316 71.7595C28.1416 70.6039 25.9818 68.8412 24.3506 66.6333Z" fill="white"/>
<path d="M58.1 32.5H90.228V41.844H68.8947V47.988H88.052V56.5213H69.1933V62.8787H90.5267V72.308H58.1V32.5Z" fill="white"/>
<path d="M106.015 42.2707H94.068V32.5H129.097V42.1853H117.108V72.4787H106.015V42.2707Z" fill="white"/>
<path d="M28.788 88.3079H47.6467C51.598 88.0112 55.507 89.2836 58.5266 91.8493C59.3723 92.7079 60.0352 93.7291 60.4752 94.8511C60.9152 95.9731 61.1232 97.1726 61.0867 98.3773C61.1347 100.322 60.5662 102.232 59.4625 103.834C58.3589 105.435 56.7768 106.647 54.9426 107.295C57.2126 107.711 59.2594 108.924 60.7143 110.715C62.1693 112.506 62.9368 114.758 62.8787 117.065C62.8787 123.935 57.2893 128.116 47.732 128.116H28.788V88.3079ZM50.1213 100.639C50.1213 98.4199 48.3293 97.2253 45.0867 97.2253H39.5827V104.223H44.8733C48.244 104.223 50.2067 103.113 50.2067 100.767L50.1213 100.639ZM46.2813 111.988H39.5827V119.369H46.4947C49.908 119.369 51.7853 118.047 51.7853 115.7C51.7853 113.567 50.0787 111.988 46.3667 111.988H46.2813Z" fill="white"/>
<path d="M66.6333 88.3081H84.1267C88.7868 88.0038 93.3811 89.5352 96.9267 92.5747C98.1816 93.7793 99.1713 95.2326 99.8325 96.8416C100.494 98.4505 100.812 100.18 100.767 101.919C100.844 104.574 100.092 107.188 98.6166 109.398C97.1411 111.607 95.0146 113.303 92.532 114.249L102.089 128.201H89.2893L81.268 116.084H77.556V128.201H66.6333V88.3081ZM83.7 107.508C87.412 107.508 89.6307 105.673 89.6307 102.772C89.6307 99.5721 87.3267 97.9934 83.6573 97.9934H77.5133V107.636L83.7 107.508Z" fill="white"/>
<path d="M116.084 87.9667H126.751L143.817 128.244H131.913L129.055 121.033H113.567L110.708 128.244H99.1453L116.084 87.9667ZM125.769 112.415L121.503 101.108L116.98 112.415H125.769Z" fill="white"/>
<path d="M145.396 88.1799H156.489V128.159H145.396V88.1799Z" fill="white"/>
<path d="M160.756 88.1799H171.081L185.46 109.513V88.1799H196.425V128.159H186.783L171.721 106.228V128.159H160.756V88.1799Z" fill="white"/>
<path d="M198.303 122.1L204.489 114.719C208.084 117.733 212.599 119.434 217.289 119.54C220.319 119.54 221.897 118.516 221.897 116.767C221.897 115.06 220.575 114.207 215.113 112.884C206.58 110.921 200.052 108.617 200.052 100.383C200.052 92.9586 205.897 87.5826 215.497 87.5826C221.445 87.3538 227.282 89.2438 231.967 92.916L226.591 100.767C223.354 98.3453 219.452 96.9752 215.412 96.8413C212.724 96.8413 211.401 97.908 211.401 99.4013C211.401 101.193 212.767 102.004 218.356 103.284C227.487 105.247 233.033 108.233 233.033 115.7C233.033 123.849 226.591 128.5 216.863 128.5C210.107 128.67 203.518 126.397 198.303 122.1Z" fill="white"/>
</svg>
