<svg width="256" height="256" viewBox="0 0 256 256" fill="none" xmlns="http://www.w3.org/2000/svg">
<path d="M141.306 45.0131L132.773 19.1999L93.1461 38.3464L40.6928 42.987L47.8928 132.987L122.293 120.533L141.306 45.0131Z" fill="url(#paint0_linear_6_209)"/>
<path d="M70.6133 67.9734L0 49.4134L24.4 195.973L155.893 194.693L70.6133 67.9734Z" fill="url(#paint1_linear_6_209)"/>
<path d="M167.733 130.4L137.387 78.4531L170.293 48.64L222.693 27.2L256 109.973L208.027 157.627L167.733 130.4Z" fill="url(#paint2_linear_6_209)"/>
<path d="M208.053 108.88L191.386 74.8537L60.6928 101.12L74.1061 225.92L160.399 256L256 198.773L208.053 108.88Z" fill="url(#paint3_linear_6_209)"/>
<path d="M140.453 114.987L60.6928 101.12L158.053 15.1999L222.693 27.2L182.639 67.1464L191.893 75.3867L140.453 114.987Z" fill="url(#paint4_linear_6_209)"/>
<path d="M132.773 19.1999L43.68 0L0 49.4133L70.7467 68.2136L132.773 19.1999Z" fill="url(#paint5_linear_6_209)"/>
<path d="M208 48H48V208H208V48Z" fill="black"/>
<path d="M69.3333 186.667H133.333V176H69.3333V186.667ZM81.28 105.013H95.1467C99.3867 105.013 103.093 104.24 106.293 102.693C109.493 101.147 111.973 98.9601 113.707 96.1334C115.467 93.3067 116.32 90.0531 116.32 86.3731C116.32 82.6931 115.467 79.5201 113.733 76.7201C112 73.9467 109.573 71.787 106.427 70.267C103.28 68.747 99.6 67.9734 95.4667 67.9734H69.8667V127.706H81.2533V105.013H81.28ZM81.28 77.4937H94.72C96.72 77.4937 98.4533 77.8667 99.9467 78.5867C101.44 79.3067 102.587 80.3465 103.387 81.7065C104.187 83.0665 104.587 84.6398 104.587 86.4531C104.587 88.2665 104.187 89.8667 103.387 91.2267C102.587 92.5867 101.44 93.6531 99.9467 94.3731C98.4533 95.0931 96.72 95.4937 94.72 95.4937H81.28V77.4937ZM162.613 102.4C161.333 99.9731 159.547 97.947 157.253 96.267C154.96 94.6137 152.347 93.467 149.413 92.827L139.307 90.6134C137.413 90.1334 135.893 89.3337 134.8 88.2403C133.707 87.147 133.147 85.7601 133.147 84.0801C133.147 82.6134 133.547 81.307 134.32 80.187C135.093 79.067 136.213 78.187 137.627 77.5737C139.04 76.9603 140.667 76.6667 142.48 76.6667C144.293 76.6667 146 76.987 147.44 77.627C148.853 78.267 149.973 79.1731 150.747 80.3465C151.52 81.5198 151.92 82.8531 151.92 84.3465H163.307C163.28 80.9598 162.373 77.9467 160.587 75.3334C158.8 72.6934 156.347 70.6398 153.173 69.1731C150.027 67.7065 146.4 66.9603 142.347 66.9603C138.293 66.9603 134.8 67.7334 131.653 69.2534C128.507 70.7734 126.053 72.8803 124.293 75.5737C122.533 78.267 121.653 81.3067 121.653 84.7201C121.653 87.5201 122.24 90.027 123.413 92.267C124.587 94.507 126.213 96.4001 128.347 97.9201C130.453 99.4401 132.933 100.506 135.76 101.146L146.267 103.494C148.347 103.974 149.973 104.853 151.147 106.133C152.32 107.413 152.907 109.014 152.907 110.96C152.907 112.56 152.48 113.973 151.627 115.173C150.773 116.4 149.573 117.333 148.027 118C146.48 118.667 144.667 119.013 142.587 119.013C140.507 119.013 138.587 118.64 136.933 117.893C135.28 117.147 133.973 116.107 133.067 114.773C132.16 113.44 131.68 111.893 131.653 110.133H120.267C120.293 113.813 121.253 117.04 123.12 119.84C124.987 122.64 127.6 124.826 130.96 126.4C134.293 127.973 138.133 128.747 142.453 128.747C146.773 128.747 150.56 127.946 153.92 126.346C157.253 124.746 159.867 122.56 161.733 119.786C163.6 116.986 164.533 113.866 164.533 110.346C164.533 107.466 163.893 104.826 162.613 102.4Z" fill="white"/>
<defs>
<linearGradient id="paint0_linear_6_209" x1="47.1995" y1="147.6" x2="119.493" y2="8.80008" gradientUnits="userSpaceOnUse">
<stop stop-color="#AF1DF5"/>
<stop offset="0.21" stop-color="#BB20E4"/>
<stop offset="0.63" stop-color="#DD28B8"/>
<stop offset="1" stop-color="#FF318C"/>
</linearGradient>
<linearGradient id="paint1_linear_6_209" x1="26.4533" y1="190.08" x2="114.08" y2="74.3467" gradientUnits="userSpaceOnUse">
<stop offset="0.02" stop-color="#6B57FF"/>
<stop offset="0.42" stop-color="#B74AF7"/>
<stop offset="0.75" stop-color="#FF318C"/>
</linearGradient>
<linearGradient id="paint2_linear_6_209" x1="224.693" y1="158.827" x2="176.133" y2="43.6" gradientUnits="userSpaceOnUse">
<stop stop-color="#293896"/>
<stop offset="0.08" stop-color="#3A3AA2"/>
<stop offset="0.29" stop-color="#663FC0"/>
<stop offset="0.49" stop-color="#8944D8"/>
<stop offset="0.68" stop-color="#A247E9"/>
<stop offset="0.86" stop-color="#B149F3"/>
<stop offset="1" stop-color="#B74AF7"/>
</linearGradient>
<linearGradient id="paint3_linear_6_209" x1="184.906" y1="226.853" x2="104.186" y2="108.533" gradientUnits="userSpaceOnUse">
<stop offset="0.02" stop-color="#6B57FF"/>
<stop offset="0.78" stop-color="#B74AF7"/>
</linearGradient>
<linearGradient id="paint4_linear_6_209" x1="160.453" y1="163.334" x2="133.706" y2="21.8933" gradientUnits="userSpaceOnUse">
<stop offset="0.02" stop-color="#6B57FF"/>
<stop offset="0.64" stop-color="#B74AF7"/>
</linearGradient>
<linearGradient id="paint5_linear_6_209" x1="29.12" y1="101.92" x2="70.7736" y2="26.3202" gradientUnits="userSpaceOnUse">
<stop stop-color="#AF1DF5"/>
<stop offset="0.21" stop-color="#BB20E4"/>
<stop offset="0.63" stop-color="#DD28B8"/>
<stop offset="1" stop-color="#FF318C"/>
</linearGradient>
</defs>
</svg>
