<svg width="256" height="256" viewBox="0 0 256 256" fill="none" xmlns="http://www.w3.org/2000/svg">
<path d="M251.941 195.339L256 84.256L185.424 68.312L125.416 108.475L153.307 190.96L251.947 195.339H251.941Z" fill="url(#paint0_linear_6_228)"/>
<path d="M236.309 135.856L256 84.256L186.563 53.7173L125.416 108.477L236.309 135.856Z" fill="url(#paint1_linear_6_228)"/>
<path d="M163.773 256L251.941 195.339L39.896 101.165L0 214.701L163.773 256Z" fill="url(#paint2_linear_6_228)"/>
<path d="M0 97.8613L141.109 205.397L236.309 135.856L128.136 15.8907L33.9973 0L0 97.8613Z" fill="url(#paint3_linear_6_228)"/>
<path d="M208 48H48V208H208V48Z" fill="black"/>
<path d="M66.48 67.7707H91.152C105.557 67.7707 114.269 76.312 114.269 88.648V88.8187C114.269 102.792 103.4 110.043 89.856 110.043H79.7626V128.157H66.48V67.7707ZM90.288 98.224C96.928 98.224 100.813 94.2534 100.813 89.0774V88.9067C100.813 82.952 96.672 79.76 90.0293 79.76H79.7626V98.224H90.288Z" fill="white"/>
<path d="M106.84 119.96L115.208 110.645C118.659 114.44 122.021 116.683 126.248 116.683C131.251 116.683 134.355 113.664 134.355 106.677V67.7707H147.987V107.28C147.987 114.44 145.917 119.787 142.293 123.413C140.179 125.342 137.702 126.831 135.007 127.794C132.312 128.756 129.452 129.172 126.595 129.019C122.829 129.116 119.091 128.35 115.667 126.78C112.243 125.21 109.224 122.877 106.84 119.96Z" fill="white"/>
<path d="M128 178H68V188H128V178Z" fill="white"/>
<defs>
<linearGradient id="paint0_linear_6_228" x1="218.627" y1="177.979" x2="181.536" y2="70.832" gradientUnits="userSpaceOnUse">
<stop offset="0.001" stop-color="#FF318C"/>
<stop offset="1" stop-color="#FC801D"/>
</linearGradient>
<linearGradient id="paint1_linear_6_228" x1="228.275" y1="61.952" x2="195.728" y2="103.285" gradientUnits="userSpaceOnUse">
<stop stop-color="#FF318C"/>
<stop offset="0.781" stop-color="#FC801D"/>
</linearGradient>
<linearGradient id="paint2_linear_6_228" x1="214.803" y1="228.24" x2="28.0187" y2="160.843" gradientUnits="userSpaceOnUse">
<stop offset="0.017" stop-color="#FF318C"/>
<stop offset="0.811" stop-color="#6B57FF"/>
</linearGradient>
<linearGradient id="paint3_linear_6_228" x1="72.4827" y1="178.616" x2="151.92" y2="38.3147" gradientUnits="userSpaceOnUse">
<stop offset="0.33" stop-color="#FF318C"/>
<stop offset="0.942" stop-color="#FDB60D"/>
</linearGradient>
</defs>
</svg>
