<svg width="257" height="256" viewBox="0 0 257 256" fill="none" xmlns="http://www.w3.org/2000/svg">
<path d="M172.994 111.457L49.548 137.336C46.3254 137.833 43.1389 138.542 40.009 139.456C30.2019 142.357 21.5638 148.286 15.3317 156.396C-21.5243 204.274 18.0114 266.852 74.5252 254.393L209.95 234.773C224.237 231.586 236.731 222.984 244.807 210.774C279.723 158.635 234.508 93.4173 172.994 111.457Z" fill="url(#paint0_linear_6_260)"/>
<path d="M105.142 16.2996C89.9236 2.29998 67.566 -4.19984 42.4688 3.13995C32.0448 6.22454 22.862 12.5242 16.2316 21.1394C-8.98562 53.9985 -0.546541 93.2374 24.7507 113.497L159.476 225.994C166.853 230.807 175.135 234.061 183.815 235.557C192.494 237.053 201.388 236.759 209.95 234.693C224.237 231.506 236.731 222.904 244.807 210.694C265.604 179.755 257.985 143.996 235.408 123.997L105.142 16.2996Z" fill="url(#paint1_linear_6_260)"/>
<path d="M59.6869 0.299992C53.8668 0.666525 48.0983 1.61796 42.4688 3.13991C32.0448 6.22449 22.862 12.5242 16.2316 21.1394C-22.9841 71.998 19.0113 138.596 79.1648 125.336L240.607 64.4382C245.29 63.4013 249.389 60.5917 252.046 56.5984C262.045 41.5188 251.826 23.1393 235.408 23.0393L66.3862 0C63.9864 0 61.7467 0.139996 59.6869 0.299992Z" fill="url(#paint2_linear_6_260)"/>
<path d="M49.0081 47.9987H208.991V207.994H49.0081V47.9987Z" fill="black"/>
<path d="M69.0059 177.995H128.999V187.995H69.0059V177.995Z" fill="white"/>
<path d="M121 129.616L114.401 123.617C109.093 127.002 102.919 128.78 96.6229 128.736C78.1649 128.836 65.0063 115.077 65.0063 97.9973C65.0063 80.9778 78.4249 67.0381 97.0028 67.0381C115.581 67.0381 128.719 80.7978 128.719 97.8173V97.9973C128.699 104.123 126.854 110.104 123.42 115.177L129.579 120.397L121 129.616ZM104.662 115.077L95.003 106.777L103.382 97.3773L113.201 106.277C114.281 103.653 114.812 100.835 114.761 97.9973C114.844 95.5607 114.437 93.1322 113.563 90.8561C112.69 88.5799 111.368 86.5025 109.676 84.7471C107.984 82.9918 105.957 81.5943 103.715 80.6375C101.472 79.6808 99.0607 79.1844 96.6229 79.1778C86.024 79.1778 78.6248 87.5576 78.6248 97.8173V97.9973C78.5418 100.431 78.9486 102.857 79.8211 105.131C80.6936 107.405 82.014 109.48 83.7039 111.233C85.3939 112.987 87.4189 114.383 89.6588 115.339C91.8986 116.294 94.3077 116.79 96.7428 116.797C99.4795 116.839 102.189 116.25 104.662 115.077Z" fill="white"/>
<path d="M138.738 67.998H161.296C180.094 67.998 193.092 80.9177 193.092 97.7572V97.9972C193.092 114.837 180.094 127.996 161.296 127.996H138.738V67.998ZM151.897 79.9977V115.997H161.296C172.055 115.997 179.294 108.717 179.294 98.1172V97.9972C179.408 95.6032 179.021 93.2118 178.157 90.9763C177.292 88.7407 175.971 86.7105 174.276 85.0158C172.582 83.3211 170.551 81.9992 168.316 81.1351C166.081 80.2709 163.69 79.8835 161.296 79.9977H151.897Z" fill="white"/>
<defs>
<linearGradient id="paint0_linear_6_260" x1="-4.20615" y1="201.014" x2="204.692" y2="170.98" gradientUnits="userSpaceOnUse">
<stop offset="0.18" stop-color="#FC801D"/>
<stop offset="0.63" stop-color="#FF318C"/>
</linearGradient>
<linearGradient id="paint1_linear_6_260" x1="-34.6828" y1="-3.13986" x2="262.422" y2="217.651" gradientUnits="userSpaceOnUse">
<stop stop-color="#FF318C"/>
<stop offset="0.4" stop-color="#B74AF7"/>
<stop offset="0.87" stop-color="#FF318C"/>
</linearGradient>
<linearGradient id="paint2_linear_6_260" x1="-69.199" y1="94.6973" x2="260.268" y2="17.4314" gradientUnits="userSpaceOnUse">
<stop stop-color="#FF318C"/>
<stop offset="0.2" stop-color="#D73BAB"/>
<stop offset="0.51" stop-color="#9D4AD8"/>
<stop offset="0.75" stop-color="#7953F4"/>
<stop offset="0.87" stop-color="#6B57FF"/>
</linearGradient>
</defs>
</svg>
