<svg width="257" height="257" viewBox="0 0 257 257" fill="none" xmlns="http://www.w3.org/2000/svg">
<path d="M187.727 57.8533L96.98 172.52L76.5 256.36H214.26L256.5 84.7067L187.727 57.8533Z" fill="url(#paint0_linear_6_278)"/>
<path d="M179.647 0.359985H42.98L0.5 172.52H203.86L179.647 0.359985Z" fill="url(#paint1_linear_6_278)"/>
<path d="M186.767 49.0533L179.647 0.359985L164.287 49.0533H186.767Z" fill="url(#paint2_linear_6_278)"/>
<path d="M48.5 48.7333H208.5V208.733H48.5V48.7333Z" fill="black"/>
<path d="M68.4467 178.493H128.447V188.493H68.4467V178.493Z" fill="white"/>
<path d="M133.94 115.88H127.407V104.893H135.833L137.967 92.1467H130.42V81.1334H139.86L142.02 68.5734H153.38L151.167 81.1334H163.7L165.86 68.6H177.193L175.06 81.1334H181.593V92.1467H173.167L171.007 104.893H178.58V115.88H169.113L166.873 128.787H155.54L157.753 115.88H145.3L143.167 128.787H131.7L133.94 115.88ZM159.647 104.893L161.833 92.1467H149.327L147.193 104.893H159.647Z" fill="white"/>
<path d="M68.5 68.5733H96.0733C99.2579 68.3649 102.452 68.798 105.466 69.847C108.48 70.896 111.253 72.5394 113.62 74.6799C115.364 76.5062 116.719 78.6672 117.604 81.0324C118.489 83.3975 118.884 85.9175 118.767 88.4399V88.6C118.974 92.865 117.713 97.0723 115.193 100.52C112.778 103.613 109.531 105.953 105.833 107.267L120.527 128.76H105.06L92.6067 110.28H81.8333V128.76H68.5V68.5733ZM95.1667 97.9066C97.9153 98.0442 100.616 97.1503 102.74 95.4C103.608 94.6247 104.296 93.6695 104.756 92.601C105.217 91.5325 105.439 90.3764 105.407 89.2133V89.0533C105.506 87.8432 105.316 86.6269 104.852 85.5048C104.388 84.3827 103.665 83.387 102.74 82.6C100.505 81.0387 97.8082 80.2777 95.0867 80.4399H81.8333V97.8L95.1667 97.9066Z" fill="white"/>
<defs>
<linearGradient id="paint0_linear_6_278" x1="126.473" y1="256.893" x2="236.873" y2="96.0133" gradientUnits="userSpaceOnUse">
<stop offset="0.02" stop-color="#FF45ED"/>
<stop offset="0.4" stop-color="#DD1265"/>
<stop offset="1" stop-color="#FDB60D"/>
</linearGradient>
<linearGradient id="paint1_linear_6_278" x1="7.19334" y1="195.747" x2="179.06" y2="34.0933" gradientUnits="userSpaceOnUse">
<stop offset="0.02" stop-color="#FF45ED"/>
<stop offset="0.66" stop-color="#DD1265"/>
</linearGradient>
<linearGradient id="paint2_linear_6_278" x1="174.58" y1="-5.69335" x2="176.34" y2="95.88" gradientUnits="userSpaceOnUse">
<stop stop-color="#DD1265"/>
<stop offset="0.06" stop-color="#DF1961"/>
<stop offset="0.7" stop-color="#F46330"/>
<stop offset="1" stop-color="#FC801D"/>
</linearGradient>
</defs>
</svg>
