<svg width="257" height="257" viewBox="0 0 257 257" fill="none" xmlns="http://www.w3.org/2000/svg">
<path d="M69.5933 57.74L62.0733 191.74L42.74 256.38L0.5 84.7267L69.5933 57.74Z" fill="url(#paint0_linear_6_297)"/>
<path d="M69.5933 57.74L77.3533 0.380005L180.5 256.38H42.74L62.0733 191.74L69.5933 57.74Z" fill="url(#paint1_linear_6_297)"/>
<path d="M129.433 172.513H256.5L214.02 0.380005H77.3534L129.433 172.513Z" fill="url(#paint2_linear_6_297)"/>
<path d="M48.5 48.7H208.5V208.7H48.5V48.7Z" fill="black"/>
<path d="M68.4467 178.46H128.447V188.46H68.4467V178.46Z" fill="white"/>
<path d="M68.5 68.5401H95.9133C99.0939 68.3307 102.284 68.7635 105.294 69.8126C108.304 70.8617 111.072 72.5057 113.433 74.6467C115.182 76.4707 116.542 78.6308 117.432 80.996C118.321 83.3613 118.721 85.8824 118.607 88.4067V88.5934C118.789 92.8471 117.53 97.0377 115.033 100.487C112.659 103.553 109.472 105.891 105.833 107.233L120.527 128.727H105.06L92.5 110.247H81.5667V128.727H68.5V68.5401ZM95.1667 97.8734C97.8606 97.9686 100.497 97.0773 102.58 95.3667C103.448 94.5915 104.136 93.6363 104.596 92.5678C105.057 91.4993 105.279 90.3432 105.247 89.1801V89.0201C105.339 87.8106 105.146 86.5963 104.683 85.4753C104.22 84.3543 103.499 83.3579 102.58 82.5667C100.341 81.0169 97.6449 80.2654 94.9267 80.4334H81.62V97.7667L95.1667 97.8734Z" fill="white"/>
<path d="M162.26 88.4066H148.5V76.2733H162.153V62.7266H174.633V76.2733H188.5V88.4066H174.74V101.953H162.26V88.4066Z" fill="white"/>
<path d="M136.153 121.233H122.527V109.1H136.153V95.5533H148.633V109.1H162.26V121.233H148.633V134.78H136.153V121.233Z" fill="white"/>
<defs>
<linearGradient id="paint0_linear_6_297" x1="19.2467" y1="63.66" x2="96.7666" y2="259.74" gradientUnits="userSpaceOnUse">
<stop offset="0.22" stop-color="#DD1265"/>
<stop offset="0.74" stop-color="#FF45ED"/>
<stop offset="1" stop-color="#FDB60D"/>
</linearGradient>
<linearGradient id="paint1_linear_6_297" x1="191.7" y1="268.407" x2="2.12663" y2="66.7533" gradientUnits="userSpaceOnUse">
<stop offset="0.11" stop-color="#FDB60D"/>
<stop offset="0.51" stop-color="#FF45ED"/>
<stop offset="0.76" stop-color="#FF45ED"/>
<stop offset="1" stop-color="#FDB60D"/>
</linearGradient>
<linearGradient id="paint2_linear_6_297" x1="93.7534" y1="-6.68667" x2="256.367" y2="187.5" gradientUnits="userSpaceOnUse">
<stop offset="0.18" stop-color="#FDB60D"/>
<stop offset="0.49" stop-color="#FF45ED"/>
<stop offset="0.82" stop-color="#DD1265"/>
</linearGradient>
</defs>
</svg>
