<svg width="256" height="256" viewBox="0 0 256 256" fill="none" xmlns="http://www.w3.org/2000/svg">
<path d="M256 99.6001L76.5337 0L196.693 178.56L221.387 162.373L256 99.6001Z" fill="url(#paint0_linear_6_314)"/>
<path d="M184.399 58.9868L161.892 4.05341L112.186 52.9869L132.533 230.666L180.692 255.999L255.999 212.053L184.399 58.9868Z" fill="url(#paint1_linear_6_314)"/>
<path d="M76.5332 0L0 51.5468L28.4533 227.36L101.84 255.6L196.693 178.56L76.5332 0Z" fill="url(#paint2_linear_6_314)"/>
<path d="M208 47.9999H47.9999V208H208V47.9999Z" fill="black"/>
<path d="M69.3332 186.666H133.333V176H69.3332V186.666ZM81.2532 104.987H91.5731L104.56 127.679H117.626L103.386 103.786C104.4 103.466 105.386 103.093 106.32 102.666C109.52 101.12 112 98.9331 113.733 96.1064C115.493 93.2798 116.346 90.0262 116.346 86.3462C116.346 82.6662 115.493 79.4931 113.76 76.6931C112.026 73.9198 109.6 71.7601 106.453 70.2401C103.306 68.7201 99.6265 67.9465 95.4931 67.9465H69.8932V127.679H81.2798V104.987H81.2532ZM81.2532 77.4665H94.6931C96.6931 77.4665 98.4265 77.8398 99.9198 78.5598C101.413 79.2798 102.56 80.3195 103.36 81.6795C104.16 83.0395 104.56 84.6128 104.56 86.4262C104.56 88.2395 104.16 89.8664 103.36 91.2264C102.56 92.5864 101.413 93.6262 99.9198 94.3728C98.4265 95.1195 96.6931 95.4934 94.6931 95.4934H81.2532V77.4934V77.4665ZM173.626 82.4528C171.12 77.9195 167.6 74.3729 163.12 71.8129C158.64 69.2529 153.573 67.9731 147.946 67.9731H125.253V127.706H147.946C153.573 127.706 158.64 126.426 163.12 123.866C167.6 121.306 171.093 117.76 173.626 113.226C176.133 108.693 177.413 103.573 177.413 97.8395C177.413 92.1062 176.16 86.9862 173.626 82.4528ZM163.52 108.479C162.053 111.493 159.973 113.786 157.28 115.413C154.586 117.04 151.44 117.839 147.84 117.839H136.666V77.8129H147.84C151.413 77.8129 154.56 78.6134 157.28 80.24C159.973 81.8667 162.053 84.1595 163.52 87.1728C164.986 90.1862 165.706 93.7328 165.706 97.8128C165.706 101.893 164.986 105.466 163.52 108.453V108.479Z" fill="white"/>
<defs>
<linearGradient id="paint0_linear_6_314" x1="239.547" y1="146.666" x2="42.2138" y2="33.4133" gradientUnits="userSpaceOnUse">
<stop stop-color="#DD1265"/>
<stop offset="0.48" stop-color="#DD1265"/>
<stop offset="0.94" stop-color="#FDB60D"/>
</linearGradient>
<linearGradient id="paint1_linear_6_314" x1="122.213" y1="22.3467" x2="200.426" y2="238.346" gradientUnits="userSpaceOnUse">
<stop offset="0.14" stop-color="#087CFA"/>
<stop offset="0.48" stop-color="#DD1265"/>
<stop offset="0.96" stop-color="#087CFA"/>
</linearGradient>
<linearGradient id="paint2_linear_6_314" x1="63.6265" y1="29.0133" x2="121.386" y2="234.346" gradientUnits="userSpaceOnUse">
<stop offset="0.28" stop-color="#DD1265"/>
<stop offset="0.97" stop-color="#FDB60D"/>
</linearGradient>
</defs>
</svg>
