<svg width="256" height="256" viewBox="0 0 256 256" fill="none" xmlns="http://www.w3.org/2000/svg">
<path d="M176 0L250.666 53.3334L118.933 225.52L60.0262 256L4.90625 168.453L176 0Z" fill="url(#paint0_linear_1_2)"/>
<path d="M256 154.667L188.347 114.346L19.6797 191.893L60.0264 256L256 154.667Z" fill="url(#paint1_linear_1_2)"/>
<path d="M53.3334 0L190.507 34.1328L60.0267 256L0 160L53.3334 0Z" fill="url(#paint2_linear_1_2)"/>
<path d="M208 48.0001H48V208H208V48.0001Z" fill="black"/>
<path d="M69.3334 186.667H133.333V176H69.3334V186.667ZM158.773 103.814C159.787 103.494 160.773 103.119 161.707 102.693C164.907 101.146 167.387 98.9595 169.12 96.1328C170.88 93.3062 171.733 90.0536 171.733 86.3736C171.733 82.6936 170.88 79.52 169.147 76.72C167.413 73.9467 164.987 71.7869 161.84 70.2669C158.693 68.7469 155.013 67.9739 150.88 67.9739H125.28V127.707H136.667V105.013H146.987L159.973 127.707H173.04L158.8 103.814H158.773ZM155.333 94.3736C153.84 95.1203 152.107 95.4936 150.107 95.4936H136.667V77.4936H150.107C152.107 77.4936 153.84 77.8672 155.333 78.5872C156.827 79.3072 157.973 80.3469 158.773 81.7069C159.573 83.0669 159.973 84.6397 159.973 86.4531C159.973 88.2664 159.573 89.8939 158.773 91.2539C157.973 92.6139 156.827 93.6531 155.333 94.3997V94.3736ZM81.2534 104.987H91.5734L104.56 127.68H117.627L103.387 103.786C104.4 103.466 105.387 103.093 106.32 102.667C109.52 101.12 112 98.9334 113.733 96.1067C115.493 93.28 116.347 90.0264 116.347 86.3464C116.347 82.6664 115.493 79.4928 113.76 76.6928C112.027 73.9195 109.6 71.7595 106.453 70.2395C103.307 68.7195 99.6267 67.9467 95.4934 67.9467H69.8934V127.68H81.2801V104.987H81.2534ZM81.2534 77.4661H94.6934C96.6934 77.4661 98.4267 77.84 99.9201 78.56C101.413 79.28 102.56 80.3197 103.36 81.6797C104.16 83.0397 104.56 84.6139 104.56 86.4272C104.56 88.2405 104.16 89.8667 103.36 91.2267C102.56 92.5867 101.413 93.6269 99.9201 94.3736C98.4267 95.1203 96.6934 95.4936 94.6934 95.4936H81.2534V77.4936V77.4661Z" fill="white"/>
<defs>
<linearGradient id="paint0_linear_1_2" x1="215.813" y1="43.0934" x2="-305.787" y2="564.694" gradientUnits="userSpaceOnUse">
<stop stop-color="#21D789"/>
<stop offset="1" stop-color="#FDB60D"/>
</linearGradient>
<linearGradient id="paint1_linear_1_2" x1="238.347" y1="28.8527" x2="96.7726" y2="232.32" gradientUnits="userSpaceOnUse">
<stop stop-color="#21D789"/>
<stop offset="1" stop-color="#FDB60D"/>
</linearGradient>
<linearGradient id="paint2_linear_1_2" x1="121.467" y1="14.1333" x2="56.9334" y2="218.347" gradientUnits="userSpaceOnUse">
<stop stop-color="#DD1265"/>
<stop offset="1" stop-color="#FDB60D"/>
</linearGradient>
</defs>
</svg>
