<svg width="257" height="257" viewBox="0 0 257 257" fill="none" xmlns="http://www.w3.org/2000/svg">
<path d="M65.6994 221.87L12.0467 80.7914C8.69214 71.9821 7.49602 62.4977 8.55842 53.1315C9.62083 43.7653 12.9109 34.7896 18.1533 26.9553C23.3958 19.121 30.4383 12.6559 38.6916 8.10082C46.9449 3.5457 56.1692 1.03302 65.5927 0.772957C78.2883 0.4473 90.7502 4.22554 101.127 11.5464C111.504 18.8672 119.242 29.3399 123.192 41.4088L170.151 184.834C179.618 213.764 76.3125 249.814 65.6994 221.87Z" fill="url(#paint0_linear_6_375)"/>
<path d="M226.684 177.102L95.1923 248.214C87.5005 252.374 79.0334 254.903 70.32 255.644C61.6066 256.384 52.8341 255.32 44.5506 252.517C36.2671 249.714 28.6507 245.234 22.1771 239.355C15.7036 233.476 10.512 226.326 6.92681 218.351C3.39263 210.525 1.47664 202.065 1.29389 193.48C1.11114 184.896 2.6654 176.362 5.86334 168.393C9.06128 160.424 13.8369 153.183 19.9035 147.105C25.9701 141.028 33.2025 136.239 41.1664 133.026L179.831 77.0319C191.293 72.4067 203.976 71.7638 215.847 75.2063C227.718 78.6487 238.089 85.9772 245.297 96.0166C249.902 102.404 253.092 109.7 254.653 117.418C256.213 125.136 256.109 133.098 254.348 140.772C252.586 148.447 249.207 155.657 244.437 161.922C239.666 168.187 233.614 173.362 226.684 177.102Z" fill="url(#paint1_linear_6_375)"/>
<path d="M177.005 178.328L41.2197 112.708C32.7348 108.598 25.3567 102.517 19.7016 94.9738C14.0465 87.4305 10.2785 78.6438 8.71245 69.3474C7.14638 60.051 7.82765 50.5148 10.6994 41.5354C13.5711 32.556 18.5499 24.394 25.2199 17.7312C34.2042 8.75146 45.8521 2.91795 58.4245 1.10144C70.997 -0.715063 83.8199 1.58286 94.979 7.65219L227.511 79.6448C240.332 86.6243 249.889 98.3724 254.111 112.346C258.333 126.319 256.882 141.393 250.07 154.304C243.379 166.996 232.022 176.594 218.391 181.076C204.761 185.557 189.923 184.572 177.005 178.328Z" fill="url(#paint2_linear_6_375)"/>
<path d="M38.0731 250.694C29.1031 246.602 21.1951 240.5 14.961 232.863C8.7269 225.225 4.33392 216.255 2.12199 206.648C-0.0899278 197.041 -0.061467 187.053 2.20517 177.459C4.47181 167.864 8.91585 158.92 15.1934 151.317L130.072 12.5051C134.54 7.09113 140.666 3.29679 147.503 1.70674C154.341 0.116695 161.512 0.819193 167.911 3.70598C175.256 7.01627 181.089 12.9645 184.255 20.3722C187.421 27.7799 187.688 36.1064 185.004 43.7019L125.112 213.631C122.172 222.035 117.511 229.733 111.427 236.233C105.343 242.732 97.9688 247.891 89.777 251.38C81.5852 254.868 72.7556 256.609 63.8527 256.491C54.9498 256.372 46.1695 254.398 38.0731 250.694Z" fill="url(#paint3_linear_6_375)"/>
<path d="M48.5263 48.5013H208.524V208.485H48.5263V48.5013Z" fill="black"/>
<path d="M68.4726 178.248H128.472V188.247H68.4726V178.248Z" fill="white"/>
<path d="M84.6058 80.4714H66.286V68.2593H116.152V80.4714H97.8323V128.44H84.6058V80.4714Z" fill="white"/>
<path d="M121.139 98.5229V98.3629C121.061 94.2328 121.822 90.1298 123.376 86.3021C124.929 82.4743 127.243 79.0012 130.176 76.0927C133.11 73.1842 136.603 70.9007 140.444 69.3802C144.285 67.8596 148.395 67.1337 152.525 67.2461C156.91 67.0221 161.293 67.7309 165.384 69.3258C169.475 70.9207 173.182 73.3655 176.258 76.4985L167.831 86.2042C163.784 82.0044 158.249 79.5626 152.418 79.4049C142.285 79.4049 134.978 87.8307 134.978 98.0696V98.2563C134.978 108.575 142.125 117.161 152.418 117.161C159.298 117.161 163.511 114.495 168.258 110.122L176.685 118.628C173.643 122.157 169.841 124.951 165.564 126.798C161.287 128.646 156.646 129.499 151.992 129.293C147.929 129.358 143.894 128.606 140.127 127.084C136.36 125.562 132.937 123.299 130.06 120.43C127.183 117.56 124.911 114.143 123.379 110.38C121.846 106.617 121.085 102.585 121.139 98.5229Z" fill="white"/>
<defs>
<linearGradient id="paint0_linear_6_375" x1="99.8056" y1="156.41" x2="77.916" y2="91.6158" gradientUnits="userSpaceOnUse">
<stop stop-color="#07C3F2"/>
<stop offset="1" stop-color="#6B57FF"/>
</linearGradient>
<linearGradient id="paint1_linear_6_375" x1="92.339" y1="178.381" x2="170.788" y2="138.993" gradientUnits="userSpaceOnUse">
<stop stop-color="#07C3F2"/>
<stop offset="1" stop-color="#009AE5"/>
</linearGradient>
<linearGradient id="paint2_linear_6_375" x1="191.804" y1="139.852" x2="62.0012" y2="41.8508" gradientUnits="userSpaceOnUse">
<stop stop-color="#009AE5"/>
<stop offset="1" stop-color="#6B57FF"/>
</linearGradient>
<linearGradient id="paint3_linear_6_375" x1="57.2995" y1="207.232" x2="145.712" y2="27.164" gradientUnits="userSpaceOnUse">
<stop offset="0.3" stop-color="#07C3F2"/>
<stop offset="0.6" stop-color="#3BEA62"/>
</linearGradient>
</defs>
</svg>
