<svg width="257" height="257" viewBox="0 0 257 257" fill="none" xmlns="http://www.w3.org/2000/svg">
<path d="M216.467 89.5428L45.1784 107.925C34.9938 109.012 24.7751 106.205 16.5741 100.067C8.37299 93.9299 2.79669 84.9166 0.964705 74.837C0.00153668 69.5137 0.11308 64.0515 1.29277 58.772C2.47245 53.4925 4.69642 48.5025 7.8337 44.0959C10.971 39.6893 14.9581 35.9551 19.5603 33.1134C24.1625 30.2717 29.2867 28.3798 34.6311 27.5493L204.881 1.09482C211.467 0.0705879 218.199 0.536516 224.582 2.45832C230.965 4.38012 236.836 7.70889 241.762 12.1997C246.689 16.6905 250.546 22.2291 253.051 28.4078C255.555 34.5866 256.642 41.2484 256.232 47.903C255.599 58.4267 251.256 68.3849 243.975 76.0085C236.695 83.6322 226.948 88.4276 216.467 89.5428Z" fill="url(#paint0_linear_6_404)"/>
<path d="M153.156 238.599L12.178 96.1232C8.17053 92.0716 5.06076 87.2215 3.05103 81.8884C1.0413 76.5553 0.176637 70.8588 0.513298 65.1694C0.84996 59.48 2.3804 53.9253 5.00505 48.8665C7.6297 43.8078 11.2897 39.3585 15.7471 35.808C22.5023 30.4378 30.7946 27.3637 39.4173 27.0331C48.04 26.7025 56.5432 29.1326 63.6897 33.9698L229.651 146.501C237.35 151.728 243.731 158.669 248.295 166.779C252.859 174.889 255.48 183.947 255.952 193.242C256.424 202.536 254.735 211.813 251.017 220.345C247.299 228.876 241.654 236.428 234.525 242.409C222.957 252.099 208.17 257.087 193.098 256.381C178.025 255.675 163.768 249.328 153.156 238.599Z" fill="url(#paint1_linear_6_404)"/>
<path d="M185.011 9.3269L20.3015 132.461C16.8236 135.057 13.92 138.343 11.7735 142.115C9.62691 145.887 8.28376 150.063 7.82848 154.379C7.3732 158.695 7.81562 163.059 9.12794 167.196C10.4403 171.332 12.5941 175.153 15.454 178.417C20.2188 183.838 26.7033 187.453 33.8184 188.656C40.9335 189.859 48.2458 188.577 54.5272 185.024L233.566 83.7884C239.346 80.5251 244.325 76.0116 248.138 70.5774C251.95 65.1432 254.501 58.9257 255.604 52.3791C256.707 45.8325 256.334 39.1221 254.511 32.7383C252.689 26.3545 249.464 20.4585 245.072 15.481C237.66 7.10269 227.369 1.81893 216.243 0.678855C205.116 -0.461215 193.967 2.62579 185.011 9.3269Z" fill="url(#paint2_linear_6_404)"/>
<path d="M171.267 251.2L26.1079 185.983C21.8032 184.065 17.9881 181.198 14.9482 177.596C11.9083 173.994 9.72237 169.751 8.55411 165.185C7.38585 160.618 7.26552 155.846 8.20211 151.227C9.13871 146.607 11.108 142.259 13.9625 138.509C17.0684 134.454 21.1199 131.222 25.7629 129.095C30.4059 126.968 35.499 126.011 40.5972 126.307L199.527 136.085C208.988 136.662 218.18 139.466 226.353 144.267C234.527 149.068 241.452 155.731 246.565 163.714C251.679 171.698 254.836 180.776 255.78 190.209C256.723 199.643 255.428 209.167 251.997 218.005C249.038 225.613 244.564 232.541 238.848 238.368C233.132 244.195 226.292 248.8 218.743 251.904C211.194 255.007 203.094 256.546 194.933 256.425C186.772 256.304 178.721 254.526 171.267 251.2Z" fill="url(#paint3_linear_6_404)"/>
<path d="M48.7475 48.5424H208.556V208.388H48.7475V48.5424Z" fill="black"/>
<path d="M68.6703 178.177H128.599V188.168H68.6703V178.177Z" fill="white"/>
<path d="M68.7236 102.703V68.2833H82.041V102.357C82.041 112.161 86.9418 117.223 95.0387 117.223C103.136 117.223 108.01 112.321 108.01 102.783V68.2833H121.327V102.25C121.327 120.5 111.1 129.451 94.9322 129.451C78.7649 129.451 68.7236 120.42 68.7236 102.703Z" fill="white"/>
<path d="M133.34 68.2833H157.95C172.306 68.2833 180.989 76.8084 180.989 89.1165V89.2763C180.989 103.21 170.149 110.429 156.645 110.429H146.577V128.492H133.26L133.34 68.2833ZM157.071 98.654C163.703 98.654 167.565 94.6845 167.565 89.5427V89.3563C167.565 83.442 163.437 80.2451 156.911 80.2451H146.577V98.654H157.071Z" fill="white"/>
<defs>
<linearGradient id="paint0_linear_6_404" x1="246.99" y1="40.4968" x2="66.6446" y2="64.516" gradientUnits="userSpaceOnUse">
<stop stop-color="#FC801D"/>
<stop offset="1" stop-color="#6B57FF"/>
</linearGradient>
<linearGradient id="paint1_linear_6_404" x1="127.134" y1="137.736" x2="142.535" y2="72.6274" gradientUnits="userSpaceOnUse">
<stop stop-color="#07C3F2"/>
<stop offset="1" stop-color="#6B57FF"/>
</linearGradient>
<linearGradient id="paint2_linear_6_404" x1="216.493" y1="41.9621" x2="29.3855" y2="161.301" gradientUnits="userSpaceOnUse">
<stop stop-color="#FC801D"/>
<stop offset="0.92" stop-color="#6B57FF"/>
</linearGradient>
<linearGradient id="paint3_linear_6_404" x1="238.787" y1="211.692" x2="39.095" y2="139.551" gradientUnits="userSpaceOnUse">
<stop stop-color="#07C3F2"/>
<stop offset="1" stop-color="#6B57FF"/>
</linearGradient>
</defs>
</svg>
