<svg width="256" height="256" viewBox="0 0 256 256" fill="none" xmlns="http://www.w3.org/2000/svg">
<path d="M34.5067 231.359L0 26.827L63.8133 0.346375L104.56 24.5599L141.893 4.39975L219.68 34.2931L176.027 256L34.5067 231.359Z" fill="url(#paint0_linear_6_420)"/>
<path d="M256.001 86.6928L222.987 5.0664L163.014 0L70.4805 88.9061L95.3872 203.494L141.894 236.107L256.001 168.4L228.001 115.893L256.001 86.6928Z" fill="url(#paint1_linear_6_420)"/>
<path d="M204.72 74.5064L228 115.893L256 86.6928L235.44 35.8672L204.72 74.5064Z" fill="url(#paint2_linear_6_420)"/>
<path d="M208 48H48V208H208V48Z" fill="black"/>
<path d="M69.3325 186.667H133.333V176H69.3325V186.667ZM122.959 113.44L109.679 67.9467H97.3859L84.4259 113.44L70.9325 67.9467H59.1459L77.3325 127.68H90.1325L103.413 82.2395L116.506 127.68H129.386L147.519 67.9467H135.946L122.933 113.44H122.959ZM191.679 102.4C190.399 99.973 188.613 97.9469 186.319 96.2669C184.026 94.5869 181.413 93.4669 178.479 92.8269L168.373 90.6133C166.479 90.1333 164.959 89.3328 163.866 88.2395C162.773 87.1461 162.213 85.7595 162.213 84.0795C162.213 82.6128 162.613 81.3061 163.386 80.1861C164.159 79.0661 165.279 78.1861 166.693 77.5728C168.106 76.9595 169.733 76.6667 171.546 76.6667C173.359 76.6667 175.066 76.9864 176.506 77.6264C177.919 78.2664 179.039 79.1731 179.813 80.3464C180.586 81.5197 180.986 82.8531 180.986 84.3464H192.373C192.346 80.9597 191.439 77.9467 189.653 75.3333C187.866 72.6933 185.413 70.6397 182.239 69.173C179.066 67.7064 175.466 66.9597 171.413 66.9597C167.359 66.9597 163.866 67.7339 160.719 69.2539C157.573 70.7739 155.119 72.8795 153.359 75.5728C151.599 78.2661 150.719 81.3067 150.719 84.72C150.719 87.52 151.306 90.0269 152.479 92.2669C153.653 94.5069 155.279 96.4005 157.413 97.9205C159.546 99.4405 161.999 100.507 164.826 101.147L175.333 103.494C177.413 103.974 179.039 104.853 180.213 106.133C181.386 107.413 181.973 109.013 181.973 110.96C181.973 112.56 181.546 113.973 180.693 115.173C179.839 116.4 178.639 117.333 177.093 118C175.546 118.667 173.733 119.013 171.653 119.013C169.573 119.013 167.653 118.64 165.999 117.893C164.346 117.147 163.039 116.107 162.133 114.773C161.226 113.44 160.746 111.893 160.719 110.133H149.333C149.333 113.813 150.319 117.04 152.186 119.84C154.053 122.64 156.666 124.826 160.026 126.4C163.359 127.973 167.199 128.746 171.519 128.746C175.839 128.746 179.626 127.946 182.986 126.346C186.319 124.746 188.933 122.56 190.799 119.786C192.666 116.986 193.599 113.866 193.599 110.346C193.599 107.466 192.959 104.826 191.679 102.4Z" fill="white"/>
<defs>
<linearGradient id="paint0_linear_6_420" x1="91.68" y1="5.33303" x2="157.92" y2="243.84" gradientUnits="userSpaceOnUse">
<stop offset="0.28" stop-color="#07C3F2"/>
<stop offset="0.94" stop-color="#087CFA"/>
</linearGradient>
<linearGradient id="paint1_linear_6_420" x1="112.347" y1="35.6" x2="224.427" y2="199.947" gradientUnits="userSpaceOnUse">
<stop offset="0.14" stop-color="#FCF84A"/>
<stop offset="0.37" stop-color="#07C3F2"/>
</linearGradient>
<linearGradient id="paint2_linear_6_420" x1="223.387" y1="55.9203" x2="238.106" y2="108.053" gradientUnits="userSpaceOnUse">
<stop offset="0.28" stop-color="#07C3F2"/>
<stop offset="0.94" stop-color="#087CFA"/>
</linearGradient>
</defs>
</svg>
