<svg width="257" height="257" viewBox="0 0 257 257" fill="none" xmlns="http://www.w3.org/2000/svg">
<path d="M65.8851 255.547L231.234 227.202C237.251 226.179 242.813 223.338 247.173 219.061C251.534 214.784 254.485 209.275 255.633 203.272C256.404 199.283 256.359 195.178 255.5 191.208C254.64 187.237 252.985 183.482 250.635 180.171C248.284 176.859 245.287 174.06 241.824 171.943C238.361 169.826 234.506 168.435 230.491 167.854L64.239 144.482C56.8133 143.436 49.2536 143.891 42.0065 145.82C34.7593 147.749 27.9716 151.113 22.0443 155.714C16.117 160.314 11.1703 166.057 7.4963 172.604C3.8223 179.151 1.49553 186.37 0.65341 193.832C-0.329078 202.496 0.715141 211.269 3.70343 219.458C6.69173 227.648 11.5421 235.028 17.8706 241.015C24.1992 247.003 31.8323 251.433 40.1659 253.955C48.4995 256.477 57.3048 257.022 65.8851 255.547Z" fill="url(#paint0_linear_6_435)"/>
<path d="M176.808 12.9151L18.6804 158.946C12.7238 164.448 8.02987 171.178 4.92229 178.673C1.81471 186.167 0.36748 194.248 0.680446 202.357C0.993412 210.466 3.05912 218.411 6.73507 225.642C10.411 232.874 15.6097 239.222 21.9725 244.246C33.0434 252.969 46.9893 257.195 61.0316 256.081C75.074 254.968 88.182 248.596 97.7442 238.237L243.765 79.9746C248.116 75.2428 251.461 69.6745 253.597 63.6082C255.733 57.5418 256.616 51.1038 256.191 44.6853C255.767 38.2668 254.044 32.0018 251.127 26.2707C248.211 20.5395 244.162 15.462 239.225 11.3463C230.4 3.98357 219.204 0.0834619 207.722 0.37206C196.24 0.660657 185.253 5.1183 176.808 12.9151Z" fill="url(#paint1_linear_6_435)"/>
<path d="M208.402 221.672L20.9902 86.7285C15.2296 82.5732 10.4712 77.1788 7.06406 70.9413C3.65693 64.7037 1.6876 57.7812 1.30058 50.6818C0.913556 43.5824 2.11868 36.4863 4.82749 29.9143C7.53631 23.3423 11.6801 17.4612 16.9547 12.7025C25.9361 4.60207 37.6618 0.233309 49.7456 0.485234C61.8295 0.737159 73.3635 5.59084 82.0005 14.0586L247.031 175.618C249.92 178.448 252.21 181.831 253.765 185.566C255.321 189.301 256.11 193.312 256.085 197.359C256.06 201.405 255.222 205.406 253.621 209.121C252.02 212.837 249.689 216.192 246.765 218.986C241.685 223.84 235.071 226.765 228.067 227.255C221.063 227.745 214.107 225.771 208.402 221.672Z" fill="url(#paint2_linear_6_435)"/>
<path d="M48.628 48.5987H207.924V208.137H48.628V48.5987Z" fill="black"/>
<path d="M68.4869 177.985H128.223V187.956H68.4869V177.985Z" fill="white"/>
<path d="M85.7439 104.65L62.7257 68.3016H78.1508L92.4344 92.392L106.983 68.3016H121.957L98.9389 104.411V128.315H85.7439V104.65Z" fill="white"/>
<path d="M148.321 80.4798H130.108V68.3016H179.729V80.4798H161.516V128.315H148.321V80.4798Z" fill="white"/>
<defs>
<linearGradient id="paint0_linear_6_435" x1="209.119" y1="172.746" x2="57.1079" y2="201.353" gradientUnits="userSpaceOnUse">
<stop stop-color="#07C3F2"/>
<stop offset="1" stop-color="#6B57FF"/>
</linearGradient>
<linearGradient id="paint1_linear_6_435" x1="203.915" y1="54.2889" x2="44.379" y2="211.83" gradientUnits="userSpaceOnUse">
<stop stop-color="#07C3F2"/>
<stop offset="1" stop-color="#6B57FF"/>
</linearGradient>
<linearGradient id="paint2_linear_6_435" x1="224.278" y1="209.68" x2="53.6469" y2="53.0324" gradientUnits="userSpaceOnUse">
<stop offset="0.15" stop-color="#07C3F2"/>
<stop offset="0.53" stop-color="#6B57FF"/>
<stop offset="1" stop-color="#FF318C"/>
</linearGradient>
</defs>
</svg>
