<svg width="187" height="257" viewBox="0 0 187 257" fill="none" xmlns="http://www.w3.org/2000/svg">
<mask id="mask0_21_4" style="mask-type:luminance" maskUnits="userSpaceOnUse" x="0" y="0" width="187" height="257">
<path d="M162.235 57.9453C161.985 56.4168 161.141 55.049 159.886 54.1401C158.632 53.2312 157.069 52.8548 155.539 53.0928C154.336 53.2526 153.224 53.8174 152.385 54.6941L122.105 84.9256L98.4243 39.6997C98.0711 39.0206 97.5874 38.4179 97.001 37.9258C96.4146 37.4338 95.737 37.0623 95.0068 36.8324C94.2767 36.6026 93.5084 36.5189 92.7459 36.5863C91.9834 36.6536 91.2417 36.8706 90.5631 37.2249C89.5348 37.8177 88.6811 38.6714 88.0883 39.6997L75.1805 64.4478L42.6199 3.69375C42.2547 3.02654 41.7614 2.43804 41.1682 1.96203C40.575 1.48602 39.8936 1.13189 39.1632 0.919971C38.4327 0.70805 37.6676 0.642516 36.9118 0.727132C36.1559 0.811749 35.4242 1.04485 34.7587 1.41305C33.9687 1.83476 33.2837 2.42882 32.7545 3.15123C32.2253 3.87363 31.8655 4.70586 31.7016 5.58624L0.159973 207.064L84.3519 254.523C86.9474 255.945 89.8596 256.691 92.8196 256.691C95.7795 256.691 98.6918 255.945 101.287 254.523L186.207 207.259L162.235 57.9453Z" fill="white"/>
</mask>
<g mask="url(#mask0_21_4)">
<path d="M0.159973 207.065L31.7016 5.58648C31.9406 4.09716 32.7576 2.76229 33.9751 1.87187C35.1926 0.981446 36.7123 0.607395 38.204 0.830975C39.0852 0.992565 39.92 1.3458 40.6495 1.86569C41.3791 2.38558 41.9854 3.05943 42.4258 3.83956L74.9864 64.6421L87.8942 39.8941C88.2475 39.215 88.7311 38.6122 89.3175 38.1202C89.9039 37.6282 90.5816 37.2566 91.3117 37.0268C92.0418 36.7969 92.8101 36.7133 93.5726 36.7806C94.3351 36.848 95.0768 37.065 95.7554 37.4193C96.7837 38.0121 97.6374 38.8658 98.2302 39.8941L186.062 207.065H0.159973Z" fill="#FFA000"/>
<path opacity="0.12" d="M107.741 2.1895L-46.3762 -10.9609V268.158L0.159813 207.065L107.741 2.1895Z" fill="url(#paint0_linear_21_4)"/>
<path d="M109.051 128.599L75.0835 64.4966L0.159973 207.065L109.051 128.599Z" fill="#F57C00"/>
<path opacity="0.2" d="M-46.3762 -10.9609H232.743V268.158H-46.3762V-10.9609Z" fill="url(#paint1_linear_21_4)"/>
<path d="M186.256 207.065L161.993 57.7999C161.742 56.2713 160.898 54.9036 159.644 53.9947C158.389 53.0858 156.827 52.7093 155.296 52.9473C154.097 53.118 152.988 53.6811 152.142 54.5487L0.159973 207.065L84.3519 254.523C86.9474 255.946 89.8596 256.691 92.8196 256.691C95.7795 256.691 98.6918 255.946 101.287 254.523L186.256 207.065Z" fill="#FFCA28"/>
<path d="M162.235 57.9453C161.985 56.4167 161.141 55.049 159.886 54.1401C158.632 53.2312 157.069 52.8548 155.539 53.0928C154.336 53.2525 153.224 53.8174 152.385 54.6941L122.105 84.9256L98.4243 39.6997C98.0711 39.0206 97.5874 38.4178 97.001 37.9258C96.4146 37.4338 95.737 37.0623 95.0068 36.8324C94.2767 36.6026 93.5084 36.5189 92.7459 36.5863C91.9834 36.6536 91.2417 36.8706 90.5631 37.2249C89.5348 37.8177 88.6812 38.6714 88.0883 39.6997L75.1805 64.4478L42.6199 3.69375C42.2547 3.02654 41.7614 2.43804 41.1682 1.96203C40.575 1.48602 39.8936 1.13189 39.1632 0.919971C38.4327 0.70805 37.6676 0.642516 36.9118 0.727132C36.1559 0.811749 35.4242 1.04485 34.7587 1.41305C33.9687 1.83476 33.2837 2.42882 32.7545 3.15123C32.2253 3.87363 31.8655 4.70586 31.7016 5.58624L0.159973 207.064L1.03343 207.501L122.347 86.1872L152.627 55.9558C153.162 55.401 153.802 54.9597 154.511 54.6583C155.22 54.3568 155.982 54.2015 156.752 54.2015C157.522 54.2015 158.284 54.3568 158.993 54.6583C159.702 54.9597 160.343 55.401 160.877 55.9558C161.773 56.7997 162.341 57.9348 162.478 59.1585L186.353 206.967H186.644L162.235 57.9453ZM0.451127 206.773L31.7016 7.04201C31.8024 6.29309 32.0516 5.57182 32.4347 4.92048C32.8179 4.26914 33.3272 3.70084 33.9328 3.24889C34.5384 2.79693 35.2281 2.47043 35.9616 2.28851C36.695 2.10658 37.4574 2.07291 38.204 2.18945C39.0887 2.34124 39.9277 2.69058 40.6586 3.21147C41.3895 3.73237 41.9936 4.4114 42.4258 5.19804L74.9864 66.0006L87.8942 41.2525C88.2425 40.5689 88.7236 39.9614 89.3093 39.4658C89.895 38.9701 90.5737 38.5962 91.3055 38.3657C92.0374 38.1353 92.8079 38.0531 93.5719 38.1238C94.336 38.1946 95.0782 38.4169 95.7554 38.7777C96.7837 39.3706 97.6374 40.2242 98.2302 41.2525L121.474 85.4594L0.451127 206.773Z" fill="white" fill-opacity="0.2"/>
<path opacity="0.2" d="M101.287 252.872C98.6857 254.304 95.7645 255.055 92.7952 255.055C89.8258 255.055 86.9047 254.304 84.3032 252.872L0.30542 205.997V207.307L84.3517 254.522C86.9473 255.945 89.8595 256.691 92.8194 256.691C95.7794 256.691 98.6916 255.945 101.287 254.522L186.207 207.258V205.948L101.287 252.872Z" fill="#A52714"/>
<path d="M162.235 57.9453C161.985 56.4168 161.141 55.049 159.886 54.1401C158.632 53.2312 157.069 52.8548 155.539 53.0928C154.336 53.2526 153.224 53.8174 152.385 54.6941L122.105 84.9256L98.4243 39.6997C98.0711 39.0206 97.5874 38.4179 97.001 37.9258C96.4146 37.4338 95.737 37.0623 95.0068 36.8324C94.2767 36.6026 93.5084 36.5189 92.7459 36.5863C91.9834 36.6536 91.2417 36.8706 90.5631 37.2249C89.5348 37.8177 88.6811 38.6714 88.0883 39.6997L75.1805 64.4478L42.6199 3.69375C42.2547 3.02654 41.7614 2.43804 41.1682 1.96203C40.575 1.48602 39.8936 1.13189 39.1632 0.919971C38.4327 0.70805 37.6676 0.642516 36.9118 0.727132C36.1559 0.811749 35.4242 1.04485 34.7587 1.41305C33.9687 1.83476 33.2837 2.42882 32.7545 3.15123C32.2253 3.87363 31.8655 4.70586 31.7016 5.58624L0.159973 207.064L84.3519 254.523C86.9474 255.945 89.8596 256.691 92.8196 256.691C95.7795 256.691 98.6918 255.945 101.287 254.523L186.207 207.259L162.235 57.9453Z" fill="url(#paint2_linear_21_4)"/>
</g>
<defs>
<linearGradient id="paint0_linear_21_4" x1="36.4084" y1="138.11" x2="24.8108" y2="132.044" gradientUnits="userSpaceOnUse">
<stop stop-color="#A52714"/>
<stop offset="0.4" stop-color="#A52714" stop-opacity="0.5"/>
<stop offset="0.8" stop-color="#A52714" stop-opacity="0"/>
</linearGradient>
<linearGradient id="paint1_linear_21_4" x1="85.8075" y1="121.174" x2="80.6152" y2="115.982" gradientUnits="userSpaceOnUse">
<stop stop-color="#A52714" stop-opacity="0.8"/>
<stop offset="0.5" stop-color="#A52714" stop-opacity="0.21"/>
<stop offset="1" stop-color="#A52714" stop-opacity="0"/>
</linearGradient>
<linearGradient id="paint2_linear_21_4" x1="-4.79837" y1="45.697" x2="189.417" y2="240.042" gradientUnits="userSpaceOnUse">
<stop stop-color="white" stop-opacity="0.1"/>
<stop offset="1" stop-color="white" stop-opacity="0"/>
</linearGradient>
</defs>
</svg>
