<svg width="205" height="257" viewBox="0 0 205 257" fill="none" xmlns="http://www.w3.org/2000/svg">
<path d="M64.3417 248.977C75.0534 253.288 86.6743 255.847 98.8762 256.272C115.39 256.849 131.093 253.434 145.132 246.949C128.297 240.335 113.051 230.663 100.039 218.637C91.604 232.142 79.1286 242.809 64.3417 248.977Z" fill="#FF9100"/>
<path d="M100.036 218.641C70.3334 191.17 52.3143 151.409 53.8372 107.799C53.8867 106.383 53.9614 104.967 54.0488 103.552C48.7291 102.177 43.1754 101.337 37.4601 101.137C29.2792 100.852 21.3566 101.866 13.8771 103.973C5.948 117.862 1.16309 133.799 0.567002 150.868C-0.971371 194.922 25.688 233.415 64.3394 248.981C79.1263 242.813 91.6013 232.158 100.036 218.641Z" fill="#FFC400"/>
<path d="M100.037 218.639C106.943 207.588 111.13 194.631 111.618 180.672C112.9 143.953 88.215 112.365 54.0501 103.551C53.9627 104.966 53.8878 106.381 53.8385 107.797C52.3155 151.408 70.3345 191.168 100.037 218.639Z" fill="#FF9100"/>
<path d="M107.797 0.335205C88.3389 15.9237 72.9737 36.4784 63.6774 60.1569C58.3551 73.7197 55.0106 88.2883 54.0341 103.56C88.1991 112.374 112.884 143.962 111.602 180.682C111.114 194.64 106.915 207.584 100.022 218.649C113.033 230.687 128.28 240.347 145.115 246.961C178.905 231.342 202.879 197.731 204.268 157.977C205.167 132.22 195.271 109.264 181.287 89.8874C166.52 69.3946 107.797 0.335205 107.797 0.335205Z" fill="#DD2C00"/>
</svg>
