<svg width="257" height="257" viewBox="0 0 257 257" fill="none" xmlns="http://www.w3.org/2000/svg">
<path d="M128.145 192.84C163.491 192.84 192.15 164.186 192.15 128.835C192.15 93.4839 163.496 64.83 128.145 64.83C92.7935 64.83 64.1396 93.4839 64.1396 128.835C64.1396 164.186 92.7935 192.84 128.145 192.84Z" fill="white"/>
<path d="M72.7121 160.848L17.2948 64.8601C6.05746 84.318 0.139648 106.39 0.139648 128.86C0.139648 151.33 6.05244 173.402 17.2898 192.86C28.5271 212.318 44.6867 228.473 64.1496 239.705C83.6125 250.937 105.685 256.845 128.155 256.84L183.572 160.848V160.832C177.961 170.566 169.881 178.651 160.152 184.272C150.423 189.894 139.387 192.855 128.15 192.855C116.912 192.855 105.876 189.899 96.142 184.283C86.408 178.666 78.3282 170.581 72.7121 160.848Z" fill="url(#paint0_linear_124_1593)"/>
<path d="M183.567 160.847L128.15 256.835C150.62 256.84 172.692 250.927 192.15 239.69C211.608 228.458 227.768 212.298 239 192.84C250.232 173.382 256.145 151.305 256.14 128.835C256.135 106.365 250.217 84.2929 238.975 64.84H128.14L128.125 64.85C139.362 64.845 150.404 67.7964 160.132 73.4125C169.866 79.0287 177.946 87.1085 183.567 96.8374C189.189 106.566 192.145 117.608 192.145 128.845C192.15 140.077 189.189 151.113 183.567 160.847Z" fill="url(#paint1_linear_124_1593)"/>
<path d="M128.145 179.516C156.13 179.516 178.816 156.83 178.816 128.845C178.816 100.86 156.13 78.174 128.145 78.174C100.159 78.174 77.4736 100.86 77.4736 128.845C77.4736 156.83 100.159 179.516 128.145 179.516Z" fill="#1A73E8"/>
<path d="M128.145 64.845H238.984C227.752 45.382 211.592 29.2224 192.134 17.9901C172.677 6.75276 150.604 0.839966 128.135 0.839966C105.665 0.839966 83.5926 6.75779 64.1347 17.9951C44.6768 29.2325 28.5222 45.3971 17.2949 64.855L72.7122 160.847L72.7273 160.858C67.1061 151.129 64.1397 140.092 64.1397 128.855C64.1397 117.618 67.0911 106.576 72.7072 96.8475C78.3234 87.1135 86.4032 79.0337 96.1371 73.4175C105.866 67.7964 116.907 64.84 128.145 64.845Z" fill="url(#paint2_linear_124_1593)"/>
<defs>
<linearGradient id="paint0_linear_124_1593" x1="141.999" y1="248.845" x2="31.1546" y2="56.8572" gradientUnits="userSpaceOnUse">
<stop stop-color="#1E8E3E"/>
<stop offset="1" stop-color="#34A853"/>
</linearGradient>
<linearGradient id="paint1_linear_124_1593" x1="109.472" y1="257.175" x2="220.316" y2="65.1872" gradientUnits="userSpaceOnUse">
<stop stop-color="#FCC934"/>
<stop offset="1" stop-color="#FBBC04"/>
</linearGradient>
<linearGradient id="paint2_linear_124_1593" x1="17.2943" y1="80.8486" x2="238.983" y2="80.8486" gradientUnits="userSpaceOnUse">
<stop stop-color="#D93025"/>
<stop offset="1" stop-color="#EA4335"/>
</linearGradient>
</defs>
</svg>
