<svg width="203" height="256" viewBox="0 0 203 256" fill="none" xmlns="http://www.w3.org/2000/svg">
<path d="M0.193494 42.017C-1.31541 31.1443 6.16491 21.0915 16.9013 19.5635L152.98 0.195948C163.717 -1.33211 173.643 6.2432 175.152 17.1159L202.473 213.983C203.982 224.855 196.502 234.908 185.765 236.437L49.6864 255.804C38.9499 257.332 29.0235 249.757 27.5147 238.884L0.193494 42.017Z" fill="url(#paint0_linear_6_26)"/>
<path d="M9.91348 40.6337C9.15903 35.1973 12.8992 30.1709 18.2674 29.4069L154.346 10.0394C159.715 9.27533 164.678 13.063 165.433 18.4993L192.753 215.366C193.508 220.803 189.768 225.829 184.4 226.593L48.3206 245.961C42.952 246.725 37.9888 242.937 37.2342 237.501L9.91348 40.6337Z" fill="white"/>
<path d="M150.324 79.5712L111.203 182.174C110.395 184.292 107.607 184.694 106.228 182.891L39.1163 95.1147C37.6139 93.1499 39.0491 90.3147 41.4966 90.4133L95.495 92.5909C95.839 92.6048 96.1835 92.5557 96.5099 92.4469L146.714 75.7296C149.03 74.9584 151.202 77.2688 150.324 79.5712Z" fill="url(#paint1_linear_6_26)"/>
<path d="M117.467 67.0704L79.6544 80.2283C79.033 80.4443 78.6368 81.0597 78.6912 81.7237L82.0885 123.003C82.1685 123.975 83.1488 124.602 84.0469 124.255L94.5205 120.21C95.5008 119.831 96.5445 120.607 96.4826 121.669L95.521 138.082C95.457 139.187 96.5829 139.966 97.5733 139.503L103.972 136.509C104.964 136.045 106.091 136.827 106.024 137.933L104.456 163.723C104.358 165.336 106.538 165.903 107.207 164.438L107.653 163.46L130.292 94.9413C130.671 93.7941 129.583 92.6987 128.452 93.0885L117.61 96.8256C116.591 97.1765 115.56 96.3131 115.709 95.2331L119.372 68.6613C119.522 67.5803 118.487 66.7157 117.467 67.0704Z" fill="url(#paint2_linear_6_26)"/>
<defs>
<linearGradient id="paint0_linear_6_26" x1="7.90203" y1="10.5381" x2="181.6" y2="257.101" gradientUnits="userSpaceOnUse">
<stop stop-color="#49C7FF"/>
<stop offset="1" stop-color="#BD36FF"/>
</linearGradient>
<linearGradient id="paint1_linear_6_26" x1="36.719" y1="87.609" x2="115.865" y2="167.562" gradientUnits="userSpaceOnUse">
<stop stop-color="#41D1FF"/>
<stop offset="1" stop-color="#BD34FE"/>
</linearGradient>
<linearGradient id="paint2_linear_6_26" x1="89.6736" y1="73.0917" x2="113.314" y2="153.637" gradientUnits="userSpaceOnUse">
<stop stop-color="#FFEA83"/>
<stop offset="0.0833333" stop-color="#FFDD35"/>
<stop offset="1" stop-color="#FFA800"/>
</linearGradient>
</defs>
</svg>
