<svg width="256" height="234" viewBox="0 0 256 234" fill="none" xmlns="http://www.w3.org/2000/svg">
<path d="M192.114 70.8079L130.914 159.296C130.266 160.234 129.328 160.936 128.241 161.297C127.155 161.658 125.982 161.655 124.9 161.293C123.816 160.928 122.882 160.222 122.238 159.282C121.596 158.341 121.279 157.216 121.336 156.079L123.785 107.225L84.2428 98.8391C83.3977 98.6602 82.6103 98.2763 81.9503 97.7217C81.2905 97.1672 80.7782 96.459 80.459 95.6598C80.1401 94.8606 80.024 93.9952 80.1213 93.1402C80.2184 92.2853 80.5259 91.4669 81.0163 90.758L142.218 2.27034C142.867 1.33162 143.805 0.628979 144.891 0.268769C145.975 -0.0914425 147.149 -0.0895801 148.233 0.274356C149.317 0.638124 150.25 1.34398 150.893 2.2849C151.537 3.22564 151.853 4.34998 151.796 5.48734L149.347 54.3421L188.888 62.7273C189.734 62.9064 190.521 63.2903 191.181 63.8448C191.841 64.3993 192.353 65.1076 192.671 65.9067C192.991 66.7058 193.106 67.5712 193.01 68.4262C192.914 69.2813 192.606 70.0989 192.114 70.8079Z" fill="#FCC72B"/>
<path d="M128.025 233.536C126.396 233.538 124.784 233.219 123.281 232.596C121.777 231.974 120.411 231.059 119.261 229.907L61.4339 172.084C59.1206 169.758 57.8238 166.611 57.8281 163.33C57.8325 160.049 59.1374 156.902 61.4573 154.584C63.7769 152.264 66.9219 150.959 70.2025 150.954C73.4831 150.95 76.6318 152.245 78.9578 154.559L128.025 203.62L234.916 96.7331C237.247 94.4406 240.388 93.1615 243.657 93.1749C246.926 93.1882 250.059 94.4926 252.367 96.8041C254.679 99.1158 255.985 102.247 255.999 105.516C256.012 108.785 254.732 111.927 252.439 114.257L136.785 229.907C135.636 231.06 134.27 231.974 132.766 232.596C131.263 233.219 129.652 233.538 128.025 233.536Z" fill="#729B1B"/>
<path d="M127.974 233.536C129.602 233.538 131.214 233.219 132.718 232.596C134.221 231.974 135.587 231.059 136.737 229.907L194.564 172.084C196.878 169.758 198.175 166.611 198.17 163.33C198.166 160.049 196.861 156.902 194.54 154.584C192.22 152.264 189.076 150.959 185.796 150.954C182.516 150.95 179.366 152.245 177.039 154.559L127.974 203.62L21.0822 96.7331C18.7518 94.4406 15.61 93.1615 12.3412 93.1749C9.07218 93.1882 5.94087 94.4926 3.62941 96.8041C1.3179 99.1158 0.013414 102.247 0.000102872 105.516C-0.0132082 108.785 1.26573 111.927 3.55835 114.257L119.214 229.907C120.362 231.06 121.728 231.974 123.232 232.596C124.734 233.219 126.346 233.538 127.974 233.536Z" fill="#729B1B" fill-opacity="0.5"/>
</svg>
