<svg width="257" height="139" viewBox="0 0 257 139" fill="none" xmlns="http://www.w3.org/2000/svg">
<path d="M80.0571 110.369C75.8914 103.203 71.559 95.8718 67.3933 88.7067C67.0601 88.2069 66.8934 87.707 67.0599 86.8738C71.2256 74.21 75.3913 61.3797 79.5571 48.7159C79.5571 48.5494 79.7237 48.216 79.8904 47.7162C84.7226 57.214 89.3882 66.5451 94.2204 76.043C94.5536 75.3764 94.7202 74.8765 94.8869 74.3767C101.386 54.3813 107.884 34.5525 114.383 14.5571C114.716 13.7239 115.049 13.3908 115.882 13.5573C121.714 13.5573 127.546 13.5573 133.545 13.5573C134.544 13.5573 134.878 13.8906 135.211 14.7238C141.21 34.5525 147.208 54.2146 153.207 74.0433C153.373 74.5434 153.54 75.2099 153.873 76.043C154.706 74.3767 155.373 72.7103 155.873 71.2108C164.038 52.2151 172.035 33.3862 180.2 14.3904C180.367 13.8906 180.534 13.5573 181.2 13.5573C189.532 13.5573 197.864 13.5573 206.028 13.5573C206.028 13.5573 206.196 13.5573 206.361 13.5573C205.362 15.8901 204.529 18.0563 203.695 20.389C191.698 49.8824 179.867 79.5421 167.87 109.035C167.703 109.369 167.37 109.703 167.537 110.202C158.872 110.202 150.208 110.202 141.543 110.202C141.709 109.868 141.543 109.369 141.376 109.035C140.71 106.869 140.043 104.703 139.377 102.536C134.378 86.7072 129.546 71.0442 124.547 55.2145C124.547 54.8811 124.547 54.5479 124.047 54.3813C117.882 72.877 111.883 91.5394 105.718 110.035C97.0531 110.369 88.555 110.369 80.0571 110.369Z" fill="#35849A"/>
<path d="M0.741943 110.369C0.741943 78.5424 0.741943 46.7163 0.741943 14.8903C0.741943 13.8906 0.908579 13.5573 2.07498 13.5573C15.5718 13.5573 29.0688 13.5573 42.5656 13.5573C50.0639 13.5573 57.0623 15.2236 63.0609 19.8892C65.5604 21.722 67.7264 24.0549 69.5595 26.7209C69.8926 27.2208 69.8926 27.5541 69.7261 28.0539C64.7272 43.5505 59.5617 59.2135 54.5629 74.7098C54.3963 75.3763 54.0629 75.543 53.3964 75.7097C49.8972 76.5429 46.2315 77.0427 42.5656 77.0427C37.0669 77.0427 31.7348 77.0427 26.2361 77.0427C25.5696 77.0427 25.4029 77.0427 25.4029 77.8759C25.4029 88.54 25.4029 99.3708 25.4029 110.035V110.202C17.2381 110.369 8.90671 110.369 0.741943 110.369ZM25.4029 45.2166C25.4029 49.2157 25.4029 53.2149 25.4029 57.3806C25.4029 58.2136 25.5696 58.3803 26.4028 58.3803C28.4023 58.3803 30.5685 58.3803 32.568 58.3803C35.4007 58.3803 38.2332 58.3803 41.0659 57.7138C43.5655 57.0473 45.8982 56.2141 47.3978 54.0479C50.5639 49.549 50.8971 44.5501 48.8975 39.5514C47.2312 35.0523 43.3988 33.2195 38.8997 32.7195C34.7342 32.2196 30.5685 32.553 26.4028 32.3863C25.5696 32.3863 25.4029 32.7195 25.4029 33.386C25.4029 37.3852 25.4029 41.3843 25.4029 45.2166Z" fill="#3E3E3E"/>
<path d="M220.733 88.6155H195.011L231.02 0.806458V50.9832H256.742L220.733 138.792V88.6155Z" fill="#EFCD0A"/>
</svg>
