<svg width="256" height="256" viewBox="0 0 256 256" fill="none" xmlns="http://www.w3.org/2000/svg">
<path d="M254.829 37.8894L134.726 252.655C132.246 257.09 125.875 257.116 123.358 252.703L0.873323 37.9101C-1.86874 33.1016 2.2431 27.2771 7.69214 28.251L127.924 49.7418C128.691 49.8789 129.476 49.8776 130.243 49.7379L247.961 28.2818C253.392 27.292 257.523 33.0714 254.829 37.8894Z" fill="url(#paint0_linear_6_20)"/>
<path d="M185.197 0.0630239L96.317 17.4787C94.8562 17.765 93.7746 19.003 93.6865 20.4887L88.2191 112.828C88.0905 115.003 90.0879 116.691 92.2106 116.202L116.956 110.491C119.271 109.957 121.363 111.996 120.888 114.324L113.536 150.325C113.041 152.748 115.316 154.82 117.682 154.101L132.966 149.458C135.335 148.738 137.612 150.816 137.111 153.241L125.427 209.79C124.696 213.327 129.401 215.256 131.364 212.223L132.674 210.198L205.099 65.6622C206.312 63.2422 204.22 60.4827 201.562 60.9956L176.091 65.9116C173.697 66.373 171.661 64.1439 172.336 61.8021L188.961 4.17041C189.637 1.82461 187.593 -0.406442 185.197 0.0630239Z" fill="url(#paint1_linear_6_20)"/>
<defs>
<linearGradient id="paint0_linear_6_20" x1="-2.11724" y1="20.5756" x2="147.361" y2="223.579" gradientUnits="userSpaceOnUse">
<stop stop-color="#41D1FF"/>
<stop offset="1" stop-color="#BD34FE"/>
</linearGradient>
<linearGradient id="paint1_linear_6_20" x1="121.023" y1="4.79136" x2="148.063" y2="190.282" gradientUnits="userSpaceOnUse">
<stop stop-color="#FFEA83"/>
<stop offset="0.0833333" stop-color="#FFDD35"/>
<stop offset="1" stop-color="#FFA800"/>
</linearGradient>
</defs>
</svg>
