<svg width="256" height="232" viewBox="0 0 256 232" fill="none" xmlns="http://www.w3.org/2000/svg">
<path d="M54.238 23.6503C54.1152 23.8368 54.0066 24.0324 53.9131 24.2352L5.52911 80.6508C4.83589 81.459 4.45501 82.4887 4.45546 83.5535C4.45591 84.6183 4.83764 85.6477 5.53154 86.4554L124.62 225.057C125.039 225.543 125.557 225.934 126.141 226.202C126.724 226.469 127.358 226.608 128 226.608C128.642 226.608 129.276 226.469 129.859 226.202C130.443 225.934 130.961 225.543 131.38 225.057L250.468 86.457C251.162 85.6494 251.544 84.6199 251.545 83.5551C251.545 82.4904 251.164 81.4606 250.471 80.6524L202.088 24.2376C201.731 23.4641 201.161 22.809 200.443 22.3498C199.726 21.8907 198.892 21.6467 198.04 21.6469H57.9589C57.2214 21.6469 56.4955 21.8299 55.8463 22.1796C55.197 22.5292 54.6438 23.0346 54.238 23.6503Z" fill="url(#paint0_linear_193_6)" stroke="url(#paint1_linear_193_6)" stroke-width="8.91139" stroke-linecap="round" stroke-linejoin="round"/>
<path d="M195.125 0.991888L101.025 5.52698C100.254 5.64989 99.5452 6.02583 99.011 6.59561C98.4767 7.16538 98.147 7.89665 98.0739 8.67432V97.0761C97.8576 99.4134 99.9583 101.303 102.272 100.851L119.135 97.0761C121.657 96.5836 123.849 98.8536 123.252 101.344L116.763 138.142C116.141 140.734 118.529 143.045 121.114 142.356L135.074 139.605C137.662 138.915 140.051 141.234 139.424 143.827L124.785 204.305C123.87 208.089 128.891 210.333 131.121 207.137L132.61 205.002L216.063 51.9351C217.461 49.3726 215.296 46.3266 212.403 46.7851L184.677 51.1736C182.071 51.5851 179.947 49.1126 180.761 46.615L199.051 5.54885C199.865 3.04718 197.733 0.571432 195.125 0.991888Z" fill="url(#paint2_linear_193_6)"/>
<defs>
<linearGradient id="paint0_linear_193_6" x1="2.83544" y1="13.1405" x2="179.326" y2="143.107" gradientUnits="userSpaceOnUse">
<stop stop-color="#FF006B"/>
<stop offset="0.364" stop-color="#CC0000"/>
<stop offset="1" stop-color="#980D03"/>
</linearGradient>
<linearGradient id="paint1_linear_193_6" x1="2.83544" y1="13.1405" x2="179.326" y2="143.107" gradientUnits="userSpaceOnUse">
<stop stop-color="#FF006B"/>
<stop offset="0.364" stop-color="#CC0000"/>
<stop offset="1" stop-color="#980D03"/>
</linearGradient>
<linearGradient id="paint2_linear_193_6" x1="128.54" y1="-18.8586" x2="150.969" y2="181.872" gradientUnits="userSpaceOnUse">
<stop stop-color="#FFDD35"/>
<stop offset="0.083" stop-color="#FFD233"/>
<stop offset="0.594" stop-color="#FFA800"/>
<stop offset="0.839" stop-color="#FF9900"/>
</linearGradient>
</defs>
</svg>
