<svg width="256" height="168" viewBox="0 0 256 168" fill="none" xmlns="http://www.w3.org/2000/svg">
<path d="M45.206 52.9024C43.7339 52.9024 42.2405 52.8811 40.6831 52.7958C32.4053 52.4544 25.9196 49.6596 21.3967 44.5393C13.2683 35.3228 13.759 21.1781 13.8657 19.2153L13.9297 19.0233C14.4204 17.3379 15.8711 12.1749 20.1167 9.93479C22.8901 8.46271 25.3863 7.75867 27.7331 7.75867C30.7839 7.75867 33.6001 8.95339 36.3522 11.4282C43.3713 17.7432 51.2437 21.6688 56.876 21.6688C60.9082 21.6688 71.6821 21.0501 76.077 20.7727L82.7335 42.7259C79.3626 45.35 67.7566 52.9024 45.206 52.9024Z" fill="#37474F"/>
<path d="M27.7114 10.1266C30.1436 10.1266 32.4477 11.1293 34.7305 13.1774C42.2829 19.9831 50.5607 24.0367 56.8544 24.0367C60.4386 24.0367 69.2284 23.546 74.3273 23.2473L79.9383 41.8083C75.6714 44.7098 64.7481 50.4915 45.2057 50.4915C43.755 50.4915 42.2616 50.4701 40.7895 50.4061C33.1944 50.0861 27.2848 47.59 23.2099 42.9817C15.9561 34.7679 16.1268 22.0526 16.2335 19.5991C16.6602 18.0844 17.9189 13.7535 21.2258 12.0254C23.6152 10.7453 25.7487 10.1266 27.7114 10.1266ZM27.7114 5.36902C24.6393 5.36902 21.6951 6.39308 18.9643 7.82249C13.3107 10.8093 11.8173 17.7857 11.4972 18.7884C11.4972 18.7884 8.48907 53.8196 40.5761 55.1637C42.1762 55.2277 43.7123 55.2704 45.2057 55.2704C73.8793 55.2704 85.4426 43.5364 85.4426 43.5364L77.8048 18.2764C77.8048 18.2764 61.8466 19.2791 56.8757 19.2791C51.9048 19.2791 44.587 15.6309 37.9307 9.63592C34.4531 6.54242 31.0183 5.36902 27.7114 5.36902Z" fill="#90A4AE"/>
<path d="M5.58769 88.7871C2.36618 99.4971 2.68629 118.399 2.68629 118.399C2.68629 121.408 4.58506 126.656 8.97996 128.32C32.0638 137.003 58.3693 134.72 72.1087 141.014C88.0669 148.332 139.782 170.84 183.048 166.082C234.55 160.428 250.892 137.174 253.687 130.688C255.671 126.037 257.015 108.415 255.009 107.753C233.12 100.457 151.473 132.843 136.539 121.557C123.717 111.871 8.8092 78.0772 5.58769 88.7871Z" fill="#E0E0E0"/>
<path d="M17.9834 7.99382C17.9834 7.99382 5.84407 17.445 2.7079 37.2434C-0.641616 58.1725 -3.60711 88.7875 11.4977 100.778C22.6556 109.631 57.1109 105.343 73.0691 112.661C89.0273 119.979 137.414 156.439 180.68 151.703C232.182 146.049 250.337 123.648 253.111 117.141C255.095 112.49 260.599 104.234 231.52 92.5211C210.1 83.9019 193.758 71.1226 178.803 59.8153C165.981 50.1294 119.664 21.9252 119.664 21.9252C119.664 21.9252 111.919 3.5349 99.0545 0.654746C90.606 -1.24402 71.8103 8.71918 68.4821 17.8077C64.7913 27.8989 69.3782 37.2007 69.3782 37.2007C49.4518 47.612 42.5821 49.1694 29.056 40.5289C15.5299 31.8884 17.9834 7.99382 17.9834 7.99382Z" fill="#0277BD"/>
<path d="M17.9834 7.99382C17.9834 7.99382 5.84407 17.445 2.7079 37.2434C-0.641616 58.1725 -3.60711 88.7875 11.4977 100.778C22.6556 109.631 57.1109 105.343 73.0691 112.661C89.0273 119.979 137.414 156.439 180.68 151.703C232.182 146.049 250.337 123.648 253.111 117.141C255.095 112.49 260.599 104.234 231.52 92.5211C210.1 83.9019 193.758 71.1226 178.803 59.8153C165.981 50.1294 119.664 21.9252 119.664 21.9252C119.664 21.9252 111.919 3.5349 99.0545 0.654746C90.606 -1.24402 71.8103 8.71918 68.4821 17.8077C64.7913 27.8989 69.3782 37.2007 69.3782 37.2007C49.4518 47.612 42.5821 49.1694 29.056 40.5289C15.5299 31.8884 17.9834 7.99382 17.9834 7.99382Z" fill="#0277BD"/>
<path d="M71.0204 37.0726C76.1407 36.2192 80.3223 36.1126 85.3999 36.7526C85.6132 31.611 83.1384 25.7653 80.4929 21.4558C79.8529 20.4104 79.1275 19.3863 78.7222 18.2343C76.5887 12.2179 87.9813 6.03094 92.5256 4.7082C97.5179 3.23612 102.958 3.4708 107.822 5.3269C105.262 3.15078 102.339 1.44402 99.0966 0.697311C91.2455 -1.07345 81.261 4.32417 75.1806 8.76174C65.7508 15.6101 63.9587 25.872 69.1003 36.4112C69.2283 36.6886 69.399 36.9873 69.655 37.1153C69.9324 37.2646 70.2737 37.222 70.5937 37.158C70.7004 37.1153 70.8497 37.0939 71.0204 37.0726Z" fill="#BDBDBD"/>
<path d="M187.848 66.6421C185.544 64.9353 182.579 64.2739 179.848 65.1273C179.251 65.3193 178.653 65.5327 178.077 65.7674C172.914 67.9008 168.818 71.933 164.914 75.9439C161.01 79.9335 157.063 84.0937 152.07 86.5685C145.307 89.918 139.568 88.2752 132.827 87.9339C126.661 87.6352 122.821 90.8354 121.434 97.2997C120.474 101.801 122.65 107.882 126.576 110.292C140.038 118.57 153.222 122.261 167.858 124.245C186.59 126.784 206.175 122.496 222.133 112.383C226.656 109.524 231.179 105.77 232.288 100.521C232.288 100.5 232.309 100.457 232.309 100.436C233.141 96.3824 230.816 92.2861 227.018 90.6007C211.871 83.9017 199.284 75.1759 187.848 66.6421Z" fill="#03A9F4"/>
<path d="M145.905 92.3287C140.699 92.3287 135.536 90.0033 130.522 87.1444C122.479 82.5575 90.115 61.2657 80.3438 54.8227C78.0823 57.5322 74.2634 61.479 69.7832 63.3138C65.559 65.0419 62.0601 64.6579 58.9666 64.3379C55.8731 64.0179 53.4196 63.7405 50.0915 65.4046C45.6325 67.6447 41.6643 70.7595 37.1628 72.9143C32.3625 75.2185 23.5087 74.9411 18.9858 73.2343C8.44653 69.2661 6.82511 63.6552 6.29175 61.4364C11.476 65.1059 18.2177 69.0955 25.7488 68.7754C36.9067 68.3061 40.9603 62.1191 46.9553 59.1109C52.1182 56.5294 56.3211 56.9775 59.7133 57.3402C62.4015 57.6175 64.5349 57.8522 67.1377 56.7855C71.2339 55.1214 75.3728 49.9584 76.6316 48.1023L78.573 45.2222L81.4745 47.1423C81.9012 47.4409 124.912 75.8372 134 81.0214C138.992 83.8803 145.329 87.1018 150.876 83.8803C157.212 80.2107 162.375 74.2797 168.135 69.7782C171.037 67.4954 174.152 65.3406 177.714 64.3379C181.277 63.3565 185.416 63.7618 188.19 66.194C176.712 66.8553 167.282 77.0532 160.135 85.0963C155.463 90.3659 150.684 92.3287 145.905 92.3287Z" fill="#004A7C"/>
<path d="M125.189 64.9996C128.517 53.2657 136.688 43.7291 142.022 35.75M108.761 53.8204C108.804 42.0437 120.538 25.4881 122.522 23.696" stroke="#9E9E9E" stroke-width="7.168" stroke-miterlimit="10" stroke-linecap="round"/>
<path d="M89.3895 44.6467C100.483 33.8942 115.204 24.1656 122.522 22.8429M108.761 53.8206C117.828 44.1774 129.605 37.1157 142.384 33.6595" stroke="#E0E0E0" stroke-width="7.168" stroke-miterlimit="10" stroke-linecap="round"/>
<path d="M143.601 72.744C146.737 63.6555 152.711 53.927 158.151 46.0546" stroke="#9E9E9E" stroke-width="7.168" stroke-miterlimit="10" stroke-linecap="round"/>
<path d="M124.165 64.9989C133.53 55.2875 145.491 48.4741 158.62 45.3712" stroke="#E0E0E0" stroke-width="7.168" stroke-miterlimit="10" stroke-linecap="round"/>
<path d="M31.7013 9.46596C31.4666 9.70064 31.1466 9.82865 30.8053 9.93532C28.6718 10.5967 27.2424 9.80732 25.0663 10.3193C22.2075 11.0021 19.1993 13.7969 18.4953 16.6557C17.7912 19.5145 18.2819 22.5227 19.114 25.3175C20.7141 30.6298 23.6369 35.5367 27.5411 39.4836C28.7785 40.721 30.1439 41.9371 30.7626 43.5798C31.3813 45.2226 30.8906 47.4414 29.2692 48.0601C28.6078 48.3161 27.8611 48.2734 27.1571 48.1241C25.8983 47.8681 24.7036 47.292 23.5729 46.6733C19.7967 44.6039 16.3405 41.9157 13.439 38.7369C11.4762 36.6034 9.74813 34.1926 8.68141 31.5045C6.24928 25.2748 8.25472 18.0638 12.3509 12.7728C15.3378 8.91127 18.3246 7.18317 23.5089 6.13778C25.1516 5.79643 28.2238 5.36974 31.104 5.94577C32.4054 6.20178 32.9174 8.29257 31.7013 9.46596Z" fill="#03A9F4"/>
<path d="M68.7377 35.7498C68.8017 35.9205 67.8417 35.3658 67.7777 35.5365C67.6283 35.8992 67.095 35.7498 66.775 35.5365C65.1962 34.4484 64.1721 32.763 63.2548 31.0989C62.2947 29.3281 61.4413 27.4294 61.3347 25.4239C61.0146 19.6636 67.287 18.7676 67.287 18.7676C66.2203 21.1997 66.2416 24.3572 66.2203 25.9786C66.1776 29.2428 67.543 32.7203 68.7377 35.7498Z" fill="#37474F"/>
<path d="M9.06517 128.107C11.6893 128.875 14.3135 129.494 16.9803 130.027C19.6257 130.582 22.2926 131.072 24.9594 131.456C30.3143 132.224 35.712 132.673 41.1309 133.035C46.5499 133.483 51.9902 133.867 57.4945 134.486C62.9561 135.147 68.7164 135.979 74.1994 138.369C84.2052 142.444 94.2325 146.455 104.473 149.761C114.671 153.175 125.018 156.162 135.472 158.381C145.905 160.727 156.486 162.263 167.068 162.711C172.359 162.946 177.629 162.882 182.877 162.391C188.19 161.858 193.481 161.197 198.75 160.301C209.247 158.466 219.573 155.458 229.109 150.764C233.909 148.481 238.539 145.772 242.721 142.444C244.811 140.801 246.795 138.988 248.63 137.025C250.486 135.083 252.214 132.993 253.494 130.624L253.921 130.816C251.574 135.83 247.798 139.948 243.745 143.596C239.648 147.244 235.061 150.295 230.283 152.919C220.661 158.146 210.164 161.581 199.497 163.842C188.83 166.061 177.906 167.469 166.962 167.106C156.038 166.808 145.179 165.25 134.491 162.946C113.156 158.231 92.5257 150.721 72.706 141.676C67.8204 139.35 62.4227 138.347 57.0678 137.515C51.6915 136.705 46.2725 136.15 40.8536 135.489C30.0583 134.166 19.1777 132.416 8.91583 128.555L9.06517 128.107Z" fill="#82AEC0"/>
</svg>
