<svg width="256" height="256" viewBox="0 0 256 256" fill="none" xmlns="http://www.w3.org/2000/svg">
<path d="M256 144.747V111.253C256 109.995 255.04 108.928 253.803 108.8L215.765 104.768C214.763 104.661 213.952 103.957 213.675 102.997C211.84 96.704 209.344 90.7093 206.251 85.0987C205.76 84.224 205.845 83.136 206.485 82.368L230.549 52.6293C231.339 51.648 231.275 50.2187 230.379 49.344L206.699 25.664C206.269 25.2337 205.696 24.9779 205.088 24.9464C204.482 24.9149 203.884 25.1098 203.413 25.4933L173.632 49.536C172.843 50.176 171.776 50.24 170.901 49.7707C165.222 46.6531 159.221 44.1638 153.003 42.3467C152.043 42.0693 151.339 41.2587 151.232 40.256L147.2 2.19733C147.072 0.960001 146.005 0 144.747 0H111.253C109.995 0 108.928 0.960001 108.8 2.19733L104.768 40.2347C104.661 41.2373 103.957 42.048 102.997 42.3253C96.704 44.16 90.7093 46.656 85.0987 49.7493C84.224 50.24 83.136 50.1547 82.368 49.5147L52.6293 25.472C52.1579 25.0884 51.5608 24.8935 50.9538 24.9251C50.3468 24.9566 49.7732 25.2123 49.344 25.6427L25.664 49.3227C25.2337 49.7519 24.9779 50.3255 24.9464 50.9325C24.9149 51.5395 25.1098 52.1365 25.4933 52.608L49.5573 82.3467C50.1973 83.136 50.2613 84.2027 49.792 85.0773C46.6744 90.7563 44.1851 96.7578 42.368 102.976C42.0907 103.936 41.28 104.64 40.2773 104.747L2.19733 108.8C0.960001 108.928 0 109.995 0 111.253V144.747C0 146.005 0.960001 147.072 2.19733 147.2L40.2347 151.232C41.2373 151.339 42.048 152.043 42.3253 153.003C44.16 159.296 46.656 165.291 49.7493 170.901C50.24 171.776 50.1547 172.864 49.5147 173.632L25.472 203.371C24.6827 204.352 24.7467 205.781 25.6427 206.656L49.3227 230.336C50.2187 231.232 51.6267 231.296 52.608 230.507L82.3467 206.443C83.136 205.803 84.2027 205.739 85.0773 206.208C90.7093 209.301 96.704 211.797 102.976 213.632C103.936 213.909 104.64 214.72 104.747 215.723L108.8 253.803C108.928 255.061 109.995 256 111.253 256H144.747C146.005 256 147.072 255.04 147.2 253.803L151.232 215.765C151.339 214.763 152.043 213.952 153.003 213.675C159.296 211.84 165.291 209.344 170.901 206.251C171.776 205.76 172.864 205.845 173.632 206.485L203.371 230.549C204.352 231.339 205.781 231.275 206.656 230.379L230.336 206.699C231.232 205.803 231.296 204.395 230.507 203.413L206.443 173.675C205.803 172.885 205.739 171.819 206.208 170.944C209.301 165.312 211.797 159.317 213.632 153.045C213.909 152.085 214.72 151.381 215.723 151.275L253.803 147.2C255.04 147.072 256 146.005 256 144.747ZM128 152.064C114.709 152.064 103.936 141.291 103.936 128C103.936 114.709 114.709 103.936 128 103.936C141.291 103.936 152.064 114.709 152.064 128C152.064 141.291 141.291 152.064 128 152.064Z" fill="#82AEC0"/>
<path d="M163.328 97.0239C171.157 105.941 175.659 117.867 174.912 130.837C173.525 154.645 153.941 173.909 130.112 174.955C119.979 175.403 110.528 172.629 102.677 167.595C102.08 167.211 101.44 168.021 101.952 168.533C106.864 173.557 112.823 177.437 119.404 179.896C125.986 182.355 133.029 183.334 140.032 182.763C163.029 180.949 181.76 162.496 183.872 139.52C185.515 121.685 177.344 105.664 164.181 96.1492C163.563 95.7225 162.859 96.4692 163.328 97.0239Z" fill="#2F7889"/>
<path d="M85.056 130.816C83.6266 102.762 101.76 82.1969 127.744 82.1969C129.131 82.1969 131.328 82.1969 133.035 84.1596C135.189 86.6769 135.381 89.7062 133.035 92.2022C131.307 94.0369 128.875 94.1649 127.637 94.3356C101.397 97.7276 95.2533 114.282 93.8666 130.112C93.8026 130.816 93.9946 135.125 90.2186 135.573C85.632 136.106 85.0773 131.498 85.056 130.816Z" fill="#B9E4EA"/>
<path d="M45.312 131.99C45.2906 84.9925 79.232 46.251 126.656 44.4164C128.107 44.3524 131.883 44.4164 134.229 46.5284C136.384 48.4697 137.173 51.883 135.915 54.6777C133.888 59.179 129.835 59.0937 128.747 59.1364C89.2586 60.5444 55.8293 92.6939 55.808 131.563C55.808 132.182 55.7013 132.801 55.488 133.355L55.2746 133.889C53.6533 138.113 47.7653 138.347 45.824 134.273C45.504 133.547 45.312 132.779 45.312 131.99Z" fill="#94D1E0"/>
</svg>
