<svg width="256" height="256" viewBox="0 0 256 256" fill="none" xmlns="http://www.w3.org/2000/svg">
<path d="M153.835 202.752C171.435 177.856 159.488 166.144 155.627 161.962C151.765 157.781 82.688 188.672 82.688 188.672C82.688 188.672 116.032 163.84 131.413 148.096C148.48 130.624 141.653 120.192 140.757 116.522C130.389 74.3891 33.728 143.146 33.728 143.146C33.728 143.146 41.92 137.066 52.1173 130.026C65.0453 121.109 80.1067 107.221 71.9573 89.5356C69.6747 84.565 36.1813 86.2076 0 102.741V256H108.48C126.827 235.541 147.84 211.242 153.835 202.752Z" fill="#BA8F63"/>
<path d="M117.44 225.621C117.44 225.621 133.333 211.136 126.528 210.88C115.264 210.453 103.296 199.552 104.085 191.701C105.216 180.565 136.256 192.064 139.563 187.861C144.533 181.568 149.184 174.997 153.451 168.213C153.941 167.445 154.432 166.635 154.56 165.717C154.837 163.797 152.853 161.899 151.616 160.704C140.779 150.08 131.264 148.715 108.501 166.144C92.1173 178.709 32.2347 228.523 0 255.424V256H86.7413L117.44 225.621ZM69.056 83.4348C68.8427 82.7308 67.904 81.9414 67.4347 81.3654C66.3893 80.1068 65.2373 78.9334 63.9787 77.8668C61.3973 75.691 60.5013 66.6244 46.8267 68.5444C40.512 69.419 20.0747 79.6801 0 90.3894V146.176C21.312 132.992 28.2453 128.811 33.2373 124.48C39.1893 119.317 16.7253 121.685 18.496 98.2401C19.0933 90.4321 59.8613 91.4988 67.52 85.6748C68.0747 85.2481 69.0347 84.5868 69.12 83.8188C69.12 83.6908 69.0987 83.5628 69.056 83.4348ZM129.536 109.269C128.875 108.245 128.171 107.243 127.445 106.261C125.909 104.235 124.139 102.379 122.155 100.8C118.869 98.1761 116.907 98.9654 113.365 96.7254C108.651 93.7174 95.616 102.549 65.6427 120.363C48.1067 130.773 22.592 147.499 0 162.645V232.213C42.4107 199.467 98.2187 156.565 102.699 152.256C106.987 148.117 79.0613 148.245 82.9013 126.613C83.456 123.477 110.037 137.301 111.424 134.421C114.069 128.939 117.312 123.733 121.109 118.997C122.581 117.163 124.203 115.349 126.315 114.347C127.488 113.792 128.832 113.451 129.664 112.491C130.517 111.488 130.155 110.251 129.536 109.269Z" fill="#E0BB95"/>
<path d="M81.4934 66.7313C87.6374 75.4567 85.7814 85.1205 70.5707 98.6885C59.456 108.608 52.0107 112.555 41.152 114.816C31.5094 116.822 24.9387 111.552 19.1147 100.971C14.464 92.5018 17.5787 87.8512 19.712 85.0352C26.1547 76.5233 42.3894 69.1847 51.1147 65.942C65.024 60.7793 77.12 60.502 81.4934 66.7313ZM140.459 124.416C133.077 131.243 121.515 140.672 111.403 143.488C106.667 144.811 96.96 145.728 87.296 134.059C77.7387 122.539 83.8614 115.094 86.1014 112.235C93.0987 103.296 104.896 96.7258 115.264 91.9472C128.107 86.0378 140.544 83.8405 147.157 89.4085C155.904 96.7472 154.517 111.446 140.459 124.416ZM160.491 149.483C171.2 156.63 164.779 173.142 158.699 181.227C152.149 189.952 143.296 200.107 135.68 203.499C130.325 205.888 121.685 208.107 109.931 198.294C100.224 190.166 103.424 178.987 106.709 173.483C111.893 164.8 121.365 158.443 132.117 152.043C144.021 144.982 154.176 145.259 160.491 149.483Z" fill="#F44336"/>
<path d="M158.699 181.226C163.264 175.125 168.043 164.266 165.547 156.202C161.131 161.493 134.912 192.618 122.88 197.397C117.696 199.466 112.213 200.021 112.213 200.021L112.192 200.042C122.795 207.808 130.667 205.717 135.68 203.498C143.296 200.128 152.149 189.952 158.699 181.226ZM152.576 102.741C143.467 109.738 110.549 134.314 99.968 136.725C95.36 137.77 92.736 138.133 91.008 137.877C98.9653 145.045 107.157 144.661 111.403 143.488C121.515 140.65 133.077 131.221 140.459 124.416C148.288 117.184 152.171 109.44 152.576 102.741ZM32.32 109.29C29.376 109.738 27.2213 109.994 25.6213 109.994C29.9307 114.304 34.9013 116.096 41.1733 114.794C52.032 112.533 59.4773 108.586 70.592 98.6662C78.3573 91.7329 82.624 85.8449 84.1387 80.5542C70.1867 89.6635 41.5573 107.861 32.32 109.29Z" fill="#C62828"/>
<path d="M29.9093 86.4853C34.9013 80.7466 46.1653 71.7866 60.3519 67.6693C66.7519 65.8133 68.6506 72.1707 64.3626 73.92C55.2533 77.6533 37.2906 87.6373 34.8586 89.024C29.8239 91.84 26.4319 90.4746 29.9093 86.4853ZM94.9333 115.093C102.763 106.069 109.504 101.291 123.008 94.464C125.973 92.9706 130.112 92.7146 131.84 93.76C135.317 95.8506 135.552 98.7306 131.243 100.928C112.235 110.656 107.328 114.816 99.2853 119.083C94.6346 121.557 92.3733 118.059 94.9333 115.093ZM129.109 162.923C138.261 154.944 144.128 152.619 146.005 154.048C149.355 156.587 146.795 159.744 143.552 162.24C140.309 164.736 123.093 178.539 120.491 180.544C117.888 182.549 114.091 183.445 115.648 179.285C116.949 175.808 122.027 169.088 129.109 162.923Z" fill="#FF7555"/>
<path d="M164.587 53.312C161.301 62.976 175.595 76.5867 196.544 83.7333C217.493 90.88 237.141 88.832 240.427 79.168C242.069 74.3253 255.104 0 255.104 0H192.256C182.72 18.3467 166.741 46.9547 164.587 53.312Z" fill="#546E7A"/>
<path d="M233.245 78.5816C235.275 72.6269 222.872 63.0098 205.542 57.1015C188.213 51.1931 172.518 51.231 170.487 57.186C168.457 63.141 180.86 72.7582 198.19 78.6669C215.52 84.5745 231.215 84.537 233.245 78.5816Z" fill="#202020"/>
<path d="M184.469 134.464C184.96 133.568 186.645 129.557 187.072 128.981C188.928 126.549 190.443 126.315 191.872 122.645C193.088 119.552 209.963 71.6376 209.963 71.6376C209.963 71.6376 211.093 66.4322 203.819 63.9576C196.565 61.4829 194.261 66.3042 194.261 66.3042C194.261 66.3042 178.347 111.275 176.597 116.395C175.125 120.747 176.683 121.941 175.659 124.693C175.488 125.184 173.675 128.427 173.291 129.024L184.469 134.464Z" fill="#546E7A"/>
<path d="M178.795 122.325C177.557 122.368 176.384 122.176 174.592 124.245C171.221 128.064 166.293 132.267 158.571 135.211C156.16 136.128 152.896 137.728 153.024 140.309C153.301 146.005 163.904 153.472 171.819 151.36C178.859 149.483 185.237 137.387 185.728 134.955C186.219 132.523 187.093 129.429 186.453 127.531C185.472 124.629 181.845 122.24 178.795 122.325Z" fill="#F44336"/>
<path d="M159.488 142.933C160.555 143.317 161.579 142.378 162.624 141.909C164.16 141.205 165.973 141.61 167.531 142.272C169.088 142.933 170.56 143.829 172.224 144.17C174.699 144.682 177.323 143.808 179.371 142.293C181.397 140.778 185.344 130.346 186.603 128.149C186.731 128.768 186.901 129.728 186.752 130.858C185.6 139.84 178.155 150.314 172.181 151.808C169.856 152.384 166.336 152.469 163.989 152C161.621 151.53 158.848 150.229 156.864 148.842C154.88 147.456 153.493 145.685 152.405 143.509C151.872 142.442 152.064 140.821 152.683 139.712C153.109 138.922 153.963 138.453 154.837 138.389C155.861 138.304 156.949 138.794 157.547 139.648C158.165 140.522 158.165 141.738 158.912 142.528C159.04 142.698 159.253 142.848 159.488 142.933Z" fill="#C62828"/>
<path d="M169.685 140.394C163.413 145.109 160.512 143.978 159.317 143.445C158.101 142.912 157.205 141.525 157.568 140.245C157.952 138.88 159.424 138.218 160.725 137.664C163.712 136.405 167.659 135.104 170.389 133.333C180.053 127.125 178.027 123.882 179.925 124.458C181.824 125.034 179.413 130.304 176.768 133.802C174.741 136.448 171.669 138.901 169.685 140.394Z" fill="#FF7555"/>
<path d="M178.709 47.0184C182.058 46.5918 187.946 46.8691 192.384 47.4878C193.941 47.7011 195.456 46.8904 196.096 45.4611C200.32 36.2664 208.938 16.2131 210.56 11.4984C212.138 6.86909 196.885 4.69309 193.408 10.4531C189.248 17.3651 177.258 42.0051 177.258 42.0051C175.402 44.9918 175.872 47.4024 178.709 47.0184ZM178.24 118.933C177.045 118.507 176.362 117.099 176.768 115.819C179.584 107.115 190.89 75.0931 192.704 71.0611C194.837 66.3678 200.618 67.4558 199.466 71.0611C198.485 74.1331 184.917 108.352 181.504 117.483C181.034 118.805 179.434 119.36 178.24 118.933Z" fill="#78909C"/>
</svg>
