<svg width="257" height="257" viewBox="0 0 257 257" fill="none" xmlns="http://www.w3.org/2000/svg">
<path d="M240.952 256.98H16.9473C8.11895 256.98 0.949951 249.811 0.949951 240.983V16.9773C0.949951 8.149 8.11895 0.97998 16.9473 0.97998H240.952C249.781 0.97998 256.95 8.149 256.95 16.9773V240.983C256.971 249.811 249.802 256.98 240.952 256.98Z" fill="url(#paint0_radial_23_273)"/>
<path d="M250.908 125.363H210.49V171.866H120.909V32.7192H53.8135V171.866H44.2832V97.1551H19.1172V187.885H39.3266V242.003H245.952V218.369H250.908V125.363Z" fill="#A47FCD"/>
<path d="M61.8119 46.1001H66.8536V62.2463H61.8119V46.1001ZM72.5548 46.1001H77.8092V62.2463H72.5548V46.1001ZM89.1689 46.1001H84.0209V62.2463L89.0413 62.2038L89.1689 46.1001Z" fill="#3F737B"/>
<path d="M100.167 46.1001L94.6365 46.1214L94.7854 62.2463H100.125L100.167 46.1001Z" fill="#A363B0"/>
<path d="M61.8119 46.1001H66.8536V62.2463H61.8119V46.1001ZM72.5548 46.1001H77.8092V62.2463H72.5548V46.1001ZM89.254 46.1001H84.0209V62.2463L89.1902 62.2038L89.254 46.1001Z" fill="#FDE064"/>
<path d="M100.167 71.6277L94.6365 71.649L94.7854 87.7742H100.125L100.167 71.6277Z" fill="#A463B0"/>
<path d="M61.8119 71.6277H66.8536V87.7742H61.8119V71.6277Z" fill="#FDE064"/>
<path d="M72.5548 71.6277H77.8092V87.7742H72.5548V71.6277ZM89.254 71.6277H84.0209V87.7742L89.1902 87.7316L89.254 71.6277ZM61.8119 97.1556H66.8536V113.302H61.8119V97.1556ZM72.5548 97.1556H77.8092V113.302H72.5548V97.1556ZM89.254 97.1556H84.0209V113.302L89.1902 113.259L89.254 97.1556Z" fill="#A463B0"/>
<path d="M106.379 46.1001L106.357 62.2463H111.803V46.1001H106.379Z" fill="#A363B0"/>
<path d="M217.403 165.379H223.53V173.76H217.403V165.379ZM229.635 165.379H235.762V173.76H229.635V165.379Z" fill="#A463B0"/>
<path d="M217.403 149.7H223.53V158.082H217.403V149.7Z" fill="#FDE064"/>
<path d="M229.635 149.7H235.762V158.082H229.635V149.7Z" fill="#A463B0"/>
<path d="M217.403 134.809H223.53V143.191H217.403V134.809ZM229.635 134.809H235.762V143.191H229.635V134.809Z" fill="#FDE064"/>
<path d="M237.506 97.7309C236.74 99.2839 237.506 188.567 237.506 188.567H203.746V137.512H192.875V121.195H183.239V107.346H165.88V121.897H154.839V137.15H143.437V211.499H132.715V128.534H137.714V112.707H132.715V79.9254H127.078L119.398 56.1845H104.273L96.6786 79.9254H90.7434V112.707H85.4677V128.534H90.7434V211.499H75.4694V136.937H29.4345V53.2063C29.4345 53.2063 1.03504 53.0148 0.949951 53.0999V240.984C0.949951 249.812 8.11895 256.981 16.9473 256.981H240.952C249.781 256.981 256.95 249.812 256.95 240.984V97.7309H237.506Z" fill="url(#paint1_radial_23_273)"/>
<path d="M5.01245 239.856H68.7678V244.855H5.01245V239.856ZM5.01245 222.093H68.7678V227.092H5.01245V222.093Z" fill="#A463B0"/>
<path d="M5.01245 203.692H68.7678V208.691H5.01245V203.692ZM5.01245 185.929H68.7678V190.928H5.01245V185.929ZM5.01245 165.4H68.7678V170.399H5.01245V165.4ZM5.01245 147.637H68.7678V152.636H5.01245V147.637Z" fill="#FDE064"/>
<path d="M5.01245 127.343H8.75651V135.214H5.01245V127.343Z" fill="#A463B0"/>
<path d="M17.7763 127.342H21.5203V135.213H17.7763V127.342ZM5.01245 111.536H8.75651V119.407H5.01245V111.536ZM17.7763 111.536H21.5203V119.407H17.7763V111.536ZM5.01245 95.7298H8.75651V103.601H5.01245V95.7298ZM17.7763 95.7298H21.5203V103.601H17.7763V95.7298ZM5.01245 79.9239H8.75651V87.7949H5.01245V79.9239ZM17.7763 79.9239H21.5203V87.7949H17.7763V79.9239ZM5.01245 64.0969H8.75651V71.968H5.01245V64.0969Z" fill="#FDE064"/>
<path d="M17.7772 64.0969H21.5213V71.968H17.7772V64.0969Z" fill="#A463B0"/>
<path d="M98.8059 129.873H103.635V139.999H98.8059V129.873ZM110.251 129.873H115.08V139.999H110.251V129.873ZM121.27 129.873H126.099V139.999H121.27V129.873ZM98.8059 149.019H103.635V159.145H98.8059V149.019ZM98.8059 200.478H103.635V210.604H98.8059V200.478Z" fill="#FDE064"/>
<path d="M110.251 200.478H115.08V210.604H110.251V200.478ZM121.27 200.478H126.099V210.604H121.27V200.478ZM110.251 149.019H115.08V159.145H110.251V149.019Z" fill="#A463B0"/>
<path d="M121.27 149.019H126.099V159.145H121.27V149.019Z" fill="#FDE064"/>
<path d="M98.8059 168.165H103.635V178.291H98.8059V168.165Z" fill="#A463B0"/>
<path d="M110.251 168.165H115.08V178.291H110.251V168.165ZM121.27 168.165H126.099V178.291H121.27V168.165Z" fill="#FDE064"/>
<path d="M107.762 107.43H117.675V92.7093C117.675 92.7093 118.037 87.1783 112.676 87.0507C107.635 86.9231 107.571 92.5817 107.571 92.5817C107.571 92.5817 107.89 107.43 107.762 107.43Z" fill="#A463B0"/>
<path d="M162.731 129.129H167.56V149.743H162.731V129.129ZM180.835 129.129H185.663V149.743H180.835V129.129ZM171.879 129.129H176.708V149.743H171.879V129.129ZM155.328 157.678H160.157V164.251H155.328V157.678ZM171.964 157.678H176.793V164.251H171.964V157.678ZM188.599 157.678H193.428V164.251H188.599V157.678Z" fill="#FDE064"/>
<path d="M155.328 178.951H160.157V185.524H155.328V178.951Z" fill="#A463B0"/>
<path d="M171.964 178.951H176.793V185.524H171.964V178.951ZM188.599 178.951H193.428V185.524H188.599V178.951ZM155.328 199.054H160.157V205.627H155.328V199.054ZM171.964 199.054H176.793V205.627H171.964V199.054ZM188.599 199.054H193.428V205.627H188.599V199.054Z" fill="#FDE064"/>
<path d="M155.328 220.327H160.157V226.901H155.328V220.327Z" fill="#A463B0"/>
<path d="M171.964 220.327H176.793V226.901H171.964V220.327Z" fill="#FDE064"/>
<path d="M188.599 220.327H193.428V226.901H188.599V220.327ZM155.328 240.473H160.157V247.046H155.328V240.473ZM171.964 240.473H176.793V247.046H171.964V240.473ZM188.599 240.473H193.428V247.046H188.599V240.473Z" fill="#A463B0"/>
<defs>
<radialGradient id="paint0_radial_23_273" cx="0" cy="0" r="1" gradientUnits="userSpaceOnUse" gradientTransform="translate(133.756 284.547) scale(286.933 286.933)">
<stop offset="0.408" stop-color="#F4704F"/>
<stop offset="0.463" stop-color="#EF6F55"/>
<stop offset="0.536" stop-color="#E16D66"/>
<stop offset="0.621" stop-color="#CA6982"/>
<stop offset="0.713" stop-color="#A964A9"/>
<stop offset="0.727" stop-color="#A463B0"/>
<stop offset="0.772" stop-color="#9361B0"/>
<stop offset="0.861" stop-color="#655CAF"/>
<stop offset="0.944" stop-color="#3657AE"/>
</radialGradient>
<radialGradient id="paint1_radial_23_273" cx="0" cy="0" r="1" gradientUnits="userSpaceOnUse" gradientTransform="translate(114.099 42.1634) scale(213.569 213.569)">
<stop offset="0.46" stop-color="#513076"/>
<stop offset="0.951" stop-color="#412769"/>
</radialGradient>
</defs>
</svg>
