<svg width="256" height="252" viewBox="0 0 256 252" fill="none" xmlns="http://www.w3.org/2000/svg">
<path d="M243.33 205.816L145.751 249.934C139.735 252.771 133.463 252.494 127.703 249.166L4.52395 186.616C1.00394 184.355 -0.0414328 181.048 0.171936 178.744C0.38527 176.44 0.918605 173.944 7.1053 172.152L16.236 168.781L139.799 236.131L227.608 200.248L243.33 205.816Z" fill="#01579B"/>
<path d="M144.578 242.872C142.138 244.017 139.46 244.563 136.766 244.466C134.073 244.37 131.442 243.634 129.09 242.317L8.83336 181.73C7.12668 180.791 6.61468 178.637 7.63868 176.973C10.284 172.599 15.148 158.775 7.12668 147.298L142.935 212.685L144.578 242.872Z" fill="#F5F5F5"/>
<path d="M238.124 200.824L144.577 242.872C141.484 244.216 135.319 246.605 128.215 241.827C133.825 242.232 137.772 239.907 139.799 236.131C141.783 232.461 141.185 226.445 138.775 223.053C137.303 221.005 133.356 217.741 131.628 215.907L232.812 176.333C241.773 172.642 250.178 178.168 251.522 184.888C253.015 192.482 243.33 198.69 238.124 200.824Z" fill="#94C6D6"/>
<path d="M242.797 173.048L146.221 216.141C140.141 218.552 133.335 218.232 127.511 215.288L4.11894 152.61C2.92427 152.013 1.1536 150.37 0.449595 148.13C-0.702435 144.397 0.748263 139.704 5.12161 138.21L138.839 206.37L230.403 167.181L242.797 173.048Z" fill="#01579B"/>
<path d="M250.072 179.299L239.555 175.48L217.88 176.739L146.242 208.717C140.162 211.128 133.357 210.808 127.533 207.864L4.11908 145.208C0.940398 143.586 1.62307 138.872 5.12175 138.21L94.0609 98.4236C96.5995 97.9542 99.2022 98.2316 101.57 99.2343L228.483 159.736C228.483 159.736 248.643 173.539 250.072 179.299Z" fill="#0091EA"/>
<path d="M216.663 177.357C216.663 177.357 230.018 172.13 240.514 172.6C251.01 173.069 254.658 180.429 254.658 180.429C252.674 171.405 243.351 166.797 243.351 166.797L104.684 96.9727C103.724 96.5673 100.183 95.7353 94.7428 97.9753C90.3481 99.7887 75.9906 106.509 75.9906 106.509L216.663 177.357Z" fill="#616161"/>
<path d="M255.255 182.137C254.253 178.148 251.778 173.881 247.213 171.812C241.197 169.103 232.621 169.807 227.138 172.665L216.663 177.316V184.697L229.911 178.809C242.797 173.071 248.514 181.668 249.005 183.695C251.053 191.951 247.085 196.73 235.373 202.106L216.343 210.682V218.106L238.231 208.356C247.917 204.474 258.967 197.178 255.255 182.137Z" fill="#424242"/>
<path d="M61.954 180.196L25.1112 129.273L30.8926 126.691L72.3434 183.652L61.954 180.196ZM109.208 203.662L102.637 198.457L216.664 175.182V178.916L200.685 184.974L109.208 203.662Z" fill="#01579B"/>
<path d="M23.105 86.0513L167.127 61.9871L230.039 131.257C233.218 134.606 231.49 140.153 226.967 141.07L78.2731 171.577L23.105 86.0513Z" fill="#9CCC65"/>
<path d="M226.967 135.095L79.2975 165.004L78.8281 172.044L226.967 141.666C231.149 140.791 232.898 136.012 230.615 132.642C229.805 133.836 228.567 134.775 226.967 135.095ZM234.925 167.372C236.482 169.847 235.074 173.111 232.215 173.687L96.2789 201.25C88.1082 202.935 80.0868 197.581 79.3615 189.26C78.7428 182.22 83.5001 175.842 90.4335 174.391L221.165 145.036L234.925 167.372Z" fill="#689F38"/>
<path d="M110.125 158.412L55.9805 80.9287L25.0897 89.0994C17.943 96.2034 20.6097 107.873 20.6097 107.873C20.6097 107.873 67.9059 183.777 75.3726 193.484C82.8393 203.191 93.7407 201.676 93.7407 201.676L112.151 197.964L110.231 163.617L110.125 158.412Z" fill="#616161"/>
<path d="M110.125 158.926L84.1195 164.302C77.0154 165.902 75.7354 172.579 75.7354 172.579L12.9512 82.6162C12.9512 82.6162 4.01247 93.4323 9.94316 102.627L75.3728 193.486C82.5194 203.662 93.7408 201.763 93.7408 201.763L112.152 198.051L110.253 164.387L110.125 158.926Z" fill="#424242"/>
<path d="M226.733 164.599C227.394 166.05 226.541 167.735 224.983 168.055L94.9988 194.722C86.8281 196.408 81.0467 190.989 81.3454 183.608C81.7294 174.285 86.9561 170.338 93.8681 168.909L224.493 142.221C224.493 142.221 220.055 147.213 223.447 156.557C224.599 159.778 225.837 162.637 226.733 164.599Z" fill="#B9E4EA"/>
<path d="M87.9806 166.093L32.2789 87.2871" stroke="#424242" stroke-width="4.43733" stroke-miterlimit="10"/>
<path d="M92.3534 132.492L20.7157 96.3955L17.8143 102.113L100.588 144.289L92.3534 132.492Z" fill="#424242"/>
<path d="M223.618 124.131L218.37 118.371L137.665 155.405L92.3531 132.984L100.076 144.035L130.092 159.373L152.449 155.939L223.618 124.131Z" fill="#689F38"/>
<path d="M243.309 109.88L145.751 153.998C139.735 156.835 133.463 156.558 127.703 153.23L4.52395 90.6804C1.00394 88.4191 -0.0414328 85.1124 0.171936 82.8084C0.38527 80.5044 0.918605 78.0084 7.1053 76.2163L12.8867 74.083L139.436 136.185L242.2 93.6671L243.309 109.88Z" fill="#C62828"/>
<path d="M144.557 146.936C142.117 148.08 139.44 148.627 136.746 148.531C134.052 148.434 131.421 147.697 129.069 146.381L8.81248 85.7944C7.10581 84.8557 6.59381 82.701 7.61781 81.037C10.2632 76.6637 15.1272 62.8394 7.10581 51.3621L139.885 118.904L144.557 146.936Z" fill="#F5F5F5"/>
<path d="M238.104 104.888L144.557 146.936C141.463 148.28 135.298 150.67 128.194 145.891C133.805 146.296 137.751 143.971 139.778 140.195C141.762 136.525 141.165 130.509 138.754 127.117C137.282 125.069 133.335 121.805 131.607 119.971L232.792 80.3973C241.752 76.7066 250.157 82.2319 251.501 88.952C252.994 96.5467 243.309 102.755 238.104 104.888Z" fill="#94C6D6"/>
<path d="M242.797 77.1105L146.221 120.204C140.141 122.615 133.335 122.295 127.511 119.351L4.09724 56.6734C2.81723 56.0334 0.897223 54.3907 0.278554 52.0654C-0.638757 48.6094 0.555889 44.0654 5.09991 42.2733L118.188 18.3159L242.797 77.1105Z" fill="#C62828"/>
<path d="M250.05 83.3624L239.533 79.5437L217.858 80.8023L146.221 112.781C140.141 115.192 133.335 114.872 127.511 111.928L4.09729 49.2506C0.918614 47.6293 2.04929 43.3413 5.09996 42.2533L94.0604 2.48779C96.5991 2.01846 99.2018 2.29579 101.57 3.29846L228.482 63.8C228.482 63.8 248.621 77.581 250.05 83.3624Z" fill="#F44336"/>
<path d="M216.664 81.3986C216.664 81.3986 227.778 77.4946 238.275 77.9639C248.771 78.4333 254.68 84.4706 254.68 84.4706C252.525 74.8279 243.373 70.8382 243.373 70.8382L104.706 1.01393C103.746 0.608598 100.205 -0.223405 94.7646 2.0166C90.3699 3.82994 76.0125 10.55 76.0125 10.55L216.664 81.3986Z" fill="#616161"/>
<path d="M229.357 76.8354L87.4688 5.26142L92.1621 3.14941L236.461 75.4701L229.357 76.8354Z" fill="#424242"/>
<path d="M255.235 86.1989C254.232 82.2095 252.547 78.3482 247.789 76.3429C241.709 73.7829 236.162 73.2495 227.117 76.7269L216.642 81.3775V88.7589L229.89 82.8709C236.61 79.7135 246.509 80.3962 248.984 87.7562C251.693 95.8203 247.064 100.791 235.352 106.167L216.322 114.743V122.167L238.21 112.418C247.917 108.535 258.968 101.239 255.235 86.1989Z" fill="#424242"/>
</svg>
