<svg width="257" height="238" viewBox="0 0 257 238" fill="none" xmlns="http://www.w3.org/2000/svg">
<path d="M24.6688 227.036C27.5688 229.28 35.9302 214.822 67.428 212.896C101.148 210.821 138.467 237.641 189.588 237.641C234.908 237.641 258.383 215.457 256.775 211.922C255.695 209.572 237.808 205.254 217.233 194.564C192.488 181.715 166.43 168.845 146.511 139.909C133.747 121.387 124.645 100.05 137.197 83.3271C149.729 66.6043 181.565 74.3307 181.565 74.3307L138.171 27.4014L55.5528 49.924L13.7462 154.726L18.255 208.091L24.6688 227.036Z" fill="url(#paint0_radial_23_493)"/>
<path d="M119.078 58.4766C119.078 58.4766 129.175 61.6941 142.701 68.743C165.202 80.4912 178.835 98.9707 192.742 100.114C207.178 101.278 214.566 92.9591 211.412 75.6014C208.47 59.408 184.571 40.3992 184.571 40.3992C184.571 40.3992 206.395 44.5058 206.395 31.9956C206.395 19.1466 194.626 12.9656 176.104 6.59409C163.763 2.36051 130.572 -7.03803 86.0768 9.8116C66.941 17.051 43.5717 30.4291 25.833 56.0634C2.63296 89.5934 -2.06632 133.199 2.33661 166.306C7.67091 206.292 24.3089 226.909 24.7111 227.079C25.1133 227.248 27.2935 180.065 45.9001 159.596C61.7549 142.153 77.9695 149.308 97.2323 148.355C119.945 147.234 130.085 123.78 112.748 105.893C97.8674 90.5248 73.2067 91.9007 73.2067 91.9007C73.2067 91.9007 81.3776 88.6408 96.8936 87.2437C114.717 85.6138 118.231 75.2627 119.501 71.389C122.316 62.8372 119.078 58.4766 119.078 58.4766Z" fill="#1B6DA4"/>
<path d="M74.3925 58.8791C73.2071 51.8937 93.7825 45.5857 115.331 48.9725C148.861 54.2433 175.406 84.8311 186.667 89.2975C203.263 95.9019 209.105 82.3333 200.786 67.6428C192.213 52.4652 169.521 39.5528 170.368 34.536C171.892 25.6243 195.134 39.193 196.553 29.2864C197.505 22.7243 180.147 13.2835 163.658 9.07106C150.385 5.6842 122.507 1.51412 83.9818 18.3003C33.8983 40.1667 12.2436 83.6669 8.66618 129.241C5.27932 172.466 21.7903 204.684 21.7903 204.684C21.7903 204.684 22.9122 172.424 39.0844 154.664C50.8961 141.709 66.0523 136.841 82.5 139.973C109.934 145.223 121.893 125.389 108.706 111.058C100.069 101.681 88.9986 98.7596 77.5465 98.3785C57.7545 97.7435 47.1071 104.369 46.5355 102.125C45.6888 98.7172 56.4209 90.8216 70.0319 85.1486C87.9402 77.6975 109.553 82.799 112.939 67.8121C114.591 60.509 110.463 56.5083 98.6511 55.6404C83.7278 54.5608 74.4771 59.3871 74.3925 58.8791Z" fill="white"/>
<defs>
<radialGradient id="paint0_radial_23_493" cx="0" cy="0" r="1" gradientUnits="userSpaceOnUse" gradientTransform="translate(120.329 -20.9355) scale(240.693 240.693)">
<stop offset="0.423" stop-color="#45D6F0"/>
<stop offset="0.518" stop-color="#41CDE9"/>
<stop offset="0.674" stop-color="#37B4D7"/>
<stop offset="0.87" stop-color="#278BBA"/>
<stop offset="1" stop-color="#1B6DA4"/>
</radialGradient>
</defs>
</svg>
