<svg width="256" height="257" viewBox="0 0 256 257" fill="none" xmlns="http://www.w3.org/2000/svg">
<path d="M0.942505 142.849L35.614 108.687L94.6448 98.2258L88.8097 129.12L9.00562 153.649L3.84944 151.421L0.942505 142.849Z" fill="#CA2C31"/>
<path d="M41.6194 117.451L3.97717 151.655L31.6677 165.151L73.7023 143.698V133.577L82.296 110.406L41.6194 117.451ZM130.696 177.691L112.512 185.584L95.3456 221.975C95.3456 221.975 110.453 255.437 111.132 255.437C111.811 255.437 120.405 256.116 120.405 256.116L150.96 221.953L158.684 163.602L130.696 177.691Z" fill="#A02422"/>
<path d="M112.83 204.617C112.83 204.617 122.951 202.558 130.165 199.121C137.38 195.684 146.292 190.549 146.292 190.549L143.024 219.045L111.09 255.393C111.09 255.393 109.838 253.844 104.533 242.301C100.311 233.092 98.8464 229.803 98.8464 229.803L112.83 204.617Z" fill="#CA2C31"/>
<path d="M59.9528 161.797C59.9528 161.797 47.7732 160.778 34.4266 177.647C22.247 193.052 16.5391 218.133 14.3323 224.583C12.1256 231.034 6.8421 232.349 8.60326 235.299C10.3644 238.248 17.982 238.078 27.3819 236.911C36.7819 235.744 44.845 232.795 44.845 232.795C44.845 232.795 44.4419 233.813 43.0839 236.02C42.5958 236.805 40.8983 237.93 41.0256 239.097C41.3227 241.877 65.1302 241.94 84.142 222.376C104.682 201.264 94.709 183.949 94.709 183.949L59.9528 161.797Z" fill="#F7D74D"/>
<path d="M63.623 171.622C63.623 171.622 50.4886 172.322 39.6245 189.191C28.7605 206.06 23.7104 225.602 24.7501 226.918C25.7686 228.233 46.0114 220.913 50.8705 222.377C54.2019 223.396 52.4831 226.769 53.3743 227.661C54.117 228.403 62.9016 229.655 77.1182 214.25C91.3559 198.845 87.9821 177.202 87.9821 177.202L63.623 171.622Z" fill="#FBF0B4"/>
<path d="M70.0729 148.6C70.0729 148.6 63.4738 154.477 61.1186 157.851C58.7633 161.225 58.7633 161.522 58.9118 162.541C59.0603 163.559 61.5005 174.741 71.6643 184.545C84.1411 196.576 95.281 198.188 96.8936 198.188C98.5062 198.188 109.222 186.157 109.222 186.157L70.0729 148.6Z" fill="#858585"/>
<path d="M99.2495 184.246C99.2495 184.246 109.944 191.27 127.874 185.243C152.381 177.01 170.354 158.593 192.612 135.337C214.086 112.887 232.101 85.0268 232.101 85.0268L219.475 42.7378L99.2495 184.246Z" fill="#437687"/>
<path d="M137.21 161.096L140.16 151.93L147.544 152.97C147.544 152.97 153.167 155.622 157.305 157.553C161.442 159.484 166.768 160.948 166.768 160.948L156.265 169.817C156.265 169.817 150.536 167.653 146.356 165.828C141.645 163.77 137.21 161.096 137.21 161.096Z" fill="#3F545F"/>
<path d="M171.86 24.8923C171.86 24.8923 151.448 36.7324 122.187 64.423C95.8119 89.3766 76.2691 111.953 71.5373 131.157C67.5906 147.24 69.6912 157.001 78.6671 167.547C88.1519 178.708 99.2705 184.246 99.2705 184.246C99.2705 184.246 107.631 184.373 142.515 157.532C186.034 124.027 220.897 67.9241 220.897 67.9241L171.86 24.8923Z" fill="#8DAFBF"/>
<path d="M214.001 79.4251C214.001 79.4251 196.24 71.8501 183.573 54.1748C170.99 36.6268 171.987 24.7655 171.987 24.7655C171.987 24.7655 182.512 16.5114 206.171 7.06901C222.085 0.724575 243.749 -2.52192 250.879 2.76158C258.008 8.04507 245.999 34.5474 245.999 34.5474L224.122 76.9L214.001 79.4251Z" fill="#D83F22"/>
<path d="M137.591 161.245C137.591 161.245 122.25 153.416 112.489 142.276C94.0291 121.248 90.2097 98.1619 90.2097 98.1619L99.4823 87.2766C99.4823 87.2766 101.795 111.806 121.592 133.003C134.493 146.817 147.967 153.14 147.967 153.14C147.967 153.14 145.273 155.41 142.387 157.617C140.541 159.039 137.591 161.245 137.591 161.245Z" fill="#6896A5"/>
<path d="M232.101 85.0273C232.101 85.0273 241.31 73.9299 250.031 48.9129C262.21 14.0291 251.601 3.46216 251.601 3.46216C251.601 3.46216 248.015 20.0553 235.56 43.1202C225.565 61.6018 213.471 79.1921 213.471 79.1921C213.471 79.1921 220.133 82.184 223.741 83.2237C228.281 84.5392 232.101 85.0273 232.101 85.0273Z" fill="#A02422"/>
<path d="M77.4145 138.457C80.1731 141.088 84.3532 138.329 87.0904 131.879C89.8488 125.428 89.8064 121.821 87.6845 120.293C85.0534 118.383 80.6399 122.564 78.709 126.277C76.587 130.393 75.3351 136.462 77.4145 138.457ZM173.196 33.3594C173.196 33.3594 157.049 44.9661 139.819 60.7529C124.011 75.2453 113.529 86.5765 112.086 89.2076C110.558 92.0297 110.537 96.0188 111.725 98.0559C112.914 100.093 115.545 101.154 117.943 99.3714C120.34 97.5678 137.421 78.6831 152.848 65.1876C166.958 52.8383 177.843 45.0085 177.843 45.0085C177.843 45.0085 182.257 37.2 181.535 35.4176C180.814 33.614 173.196 33.3594 173.196 33.3594Z" fill="#B3E1EE"/>
<path d="M173.197 33.3586C173.197 33.3586 185.122 24.2133 198.108 17.784C210.182 11.8002 222.192 6.81382 224.356 11.1425C226.414 15.2589 212.961 20.8607 201.121 28.4146C189.281 35.9685 177.887 44.9865 177.887 44.9865C177.887 44.9865 176.147 41.8037 175.022 38.8543C174.308 37.059 173.7 35.2241 173.197 33.3586Z" fill="#ED6A65"/>
<path d="M183.043 73.9302C171.224 63.0449 154.779 65.9731 146.674 75.6491C138.356 85.6219 138.971 100.857 148.796 110.024C157.729 118.341 174.343 120.23 184.358 108.559C193.27 98.2047 192.719 82.821 183.043 73.9302Z" fill="#E1E1E1"/>
<path d="M152.784 79.4897C145.761 86.3858 146.143 100.051 154.503 106.289C161.802 111.742 172.157 111.466 178.65 104.825C185.143 98.1835 185.143 86.11 179.053 79.8716C172.051 72.7211 160.826 71.5965 152.784 79.4897Z" fill="#3F545F"/>
<path d="M99.0371 153.797C99.0371 153.797 112.172 140.472 113.614 141.915C115.057 143.358 114.866 151.442 108.586 160.439C102.284 169.435 88.4277 185.456 77.4576 196.256C66.636 206.887 51.3796 219.045 49.9368 218.833C48.8122 218.663 44.2501 216.393 42.4253 214.186C40.6429 212 45.9688 201.667 48.1119 198.251C50.2763 194.834 99.0371 153.797 99.0371 153.797Z" fill="#A02524"/>
<path d="M37.9908 206.759C37.8211 209.815 42.4892 214.271 42.4892 214.271L113.615 141.936C113.615 141.936 110.284 138.18 100.48 144.27C90.5925 150.423 81.9352 157.807 69.1613 170.178C51.3587 187.45 38.1606 203.704 37.9908 206.759Z" fill="#CA2C31"/>
<path d="M33.3862 69.0493C31.0309 71.4046 30.9248 75.1816 33.5559 77.346C35.89 79.277 39.6882 78.025 41.1098 76.2851C42.5315 74.545 42.3618 70.768 40.4733 68.9008C38.5848 67.0123 34.8291 67.6276 33.3862 69.0493Z" fill="white"/>
<path opacity="0.5" d="M79.9826 66.2908C78.2002 68.2641 78.7731 71.1923 80.4282 72.2745C82.0833 73.3566 84.5659 73.2505 85.7753 71.7652C86.8575 70.4284 86.9848 67.7549 85.3297 66.0998C83.8869 64.6781 81.1284 65.0176 79.9826 66.2908Z" fill="white"/>
<path d="M110.814 15.874C110.814 15.874 113.402 8.48989 114.93 8.40501C116.479 8.32014 118.707 15.7892 118.707 15.7892C118.707 15.7892 126.367 15.874 126.876 16.9986C127.534 18.4415 121.975 23.2794 121.975 23.2794C121.975 23.2794 123.778 30.4938 122.929 31.3638C121.975 32.3186 115.376 28.5205 115.376 28.5205C115.376 28.5205 108.586 33.2523 107.121 31.9579C105.848 30.8333 108.501 23.1945 108.501 23.1945C108.501 23.1945 102.135 18.5476 102.475 17.2533C102.963 15.4284 110.814 15.874 110.814 15.874ZM198.787 192.924C201.354 194.346 204.58 193.539 205.768 190.802C206.85 188.362 204.855 185.455 203.052 184.67C201.248 183.885 198.087 184.925 196.941 186.983C195.816 189.02 197.238 192.075 198.787 192.924ZM235.241 130.35C233.777 128.079 230.615 127.337 228.557 129.161C226.562 130.944 227.05 133.745 228.175 135.166C229.3 136.588 232.313 137.119 234.137 135.952C235.962 134.784 236.132 131.708 235.241 130.35Z" fill="white"/>
</svg>
