<svg width="242" height="257" viewBox="0 0 242 257" fill="none" xmlns="http://www.w3.org/2000/svg">
<path d="M10.7678 211.005L13.6305 214.461C13.6305 214.461 29.7885 235.751 70.9681 249.152C105.532 260.391 146.605 258.78 176.822 248.262C218.701 233.673 234.202 206.318 234.202 206.318L10.7678 211.005Z" fill="#89847E"/>
<path d="M2.13736 182.844C2.13736 182.844 -0.746487 189.651 1.35278 197.836C3.40964 205.852 18.6346 237.298 121.202 238.125C214.206 238.889 242.111 203.964 241.836 191.114C241.645 182.59 229.176 160.367 163.569 156.763C97.9615 153.158 54.3222 160.622 54.3222 160.622L2.13736 182.844Z" fill="#CFC6BD"/>
<path d="M122.771 167.09C82.7365 166.603 24.3599 176.442 19.1859 191.115C14.9238 203.223 33.1386 215.14 70.5862 220.314C108.034 225.488 173.917 221.099 186.831 216.179C199.744 211.26 222.73 201.718 222.73 201.718L228.159 193.702C228.159 193.702 228.667 189.313 225.063 185.963C221.458 182.612 208.523 168.129 122.771 167.09Z" fill="#A2E4FD"/>
<path d="M232.781 189.568C235.347 189.292 235.559 195.144 230.003 200.467C224.448 205.789 192.259 228.839 122.326 229.093C52.3925 229.348 0.843826 210.984 1.01346 187.426C1.20431 162.32 89.0131 152.078 118.912 156.149C148.81 160.199 113.844 160.962 113.844 160.962C113.844 160.962 74.5303 160.899 42.2567 169.805C27.3285 173.919 14.9026 178.668 14.6481 186.281C14.3936 193.872 36.4466 217.197 120.036 218.448C203.625 219.7 230.512 189.822 232.781 189.568Z" fill="#E4DCD5"/>
<path d="M46.2221 178.308C44.9923 179.007 46.2221 181.043 44.7166 182.442C43.2111 183.863 36.1711 186.874 35.535 192.239C34.5171 200.721 50.6751 202.545 52.2019 201.633C53.7074 200.721 46.4554 194.762 47.8549 191.242C49.5089 187.108 54.4072 184.372 54.4072 181.552C54.4072 178.71 48.5335 177.014 46.2221 178.308ZM66.2182 174.894C66.2182 175.996 68.6356 176.908 68.6356 178.52C68.6356 180.746 58.4361 185.687 59.6447 194.572C60.7686 202.735 68.7416 206.701 72.7704 208.397C77.8171 210.518 90.0735 211.281 89.5221 208.694C89.1192 206.786 80.0224 205.874 74.8909 200.106C70.3531 195.038 70.2895 189.292 75.1029 184.669C81.3583 178.604 77.4354 174.173 73.2793 173.452C68.7628 172.71 66.2182 173.876 66.2182 174.894Z" fill="white"/>
<path d="M122.919 176.038C96.774 176.42 82.3548 182.484 82.5669 191.836C82.8001 202.226 101.757 207.464 123.662 207.591C147.241 207.739 161.024 200.424 161.512 192.451C162.021 184.478 148.62 175.656 122.919 176.038ZM168.446 175.593C168.107 175.932 166.135 178.583 170.63 183.651C174.129 187.595 175.232 191.602 174.193 197.243C173.153 202.883 176.737 207.739 184.689 207.739C192.641 207.739 194.146 205.195 194.146 204.516C194.146 203.816 188.357 201.717 187 194.486C185.389 185.962 182.165 180.321 177.31 177.31C172.284 174.193 169.188 174.829 168.446 175.593ZM189.418 182.145C189.396 183.311 196.797 186.874 197.263 191.708C197.73 196.543 195.652 199.66 197.03 200.466C198.408 201.272 210.029 198.854 209.944 190.203C209.816 180.194 189.524 177.777 189.418 182.145Z" fill="#4FC0FA"/>
<path d="M51.3535 113.441L57.3756 180.406L63.3977 179.812L61.2561 115.965L51.3535 113.441ZM180.999 117.513C180.999 121.584 180.808 173.599 180.808 173.599L187.212 174.766L190.711 111.872C190.711 111.894 180.999 113.823 180.999 117.513Z" fill="#A2E4FD"/>
<path d="M47.8548 112.659C47.8548 112.659 55.234 127.608 73.6609 138.465C92.109 149.343 106.019 146.714 106.465 162.914C106.783 174.556 104.132 176.697 101.609 179.412C99.1702 182.02 94.6112 184.077 94.6112 188.53C94.6112 193.004 99.0642 198.814 122.813 198.941C147.899 199.09 149.786 192.198 149.531 187.745C149.277 183.377 143.573 179.942 141.643 176.825C139.989 174.174 139.311 169.106 139.438 163.678C139.883 146.947 150.613 149.873 169.527 138.635C192.853 124.788 195.525 112.044 195.525 112.044L47.8548 112.659Z" fill="#89847E"/>
<path d="M51.4384 97.4315L71.9221 86.6595L112.296 81.8036L135.494 77.4353C135.494 77.4353 149.998 78.3685 160.134 80.0224C169.421 81.5492 177.882 84.327 177.882 84.327L178.858 88.5892L186.237 89.1617C186.237 89.1617 192.832 88.9708 197.878 94.993C203.243 101.397 202.14 109.158 189.736 117.11C177.458 124.976 124.531 127.203 124.531 127.203L63.9704 114.014L51.4384 97.4315Z" fill="#CFC6BD"/>
<path d="M59.899 106.064C59.899 106.064 55.8277 87.8277 123.365 87.4248C190.902 87.0219 189.926 105.873 189.926 105.873L173.811 119.465L124.892 125.869L68.0205 117.323L59.899 106.064Z" fill="#A2E4FD"/>
<path d="M64.3944 100.019C64.3944 100.019 62.4436 97.6445 60.9381 96.9024C59.4325 96.1602 56.1882 94.7395 56.1882 94.7395C56.1882 94.7395 57.5877 91.9405 60.1747 90.859C62.7617 89.7776 64.8185 89.5655 67.7236 90.647C70.6286 91.7284 71.9221 95.8209 71.9221 95.8209L64.3944 100.019ZM178.773 95.927C178.773 95.927 181.36 92.4494 183.077 91.3891C185.028 90.2017 187.721 89.2263 187.721 89.2263C187.721 89.2263 184.477 85.9819 179.748 86.4272C174.998 86.8513 171.118 92.7887 171.118 92.7887L178.773 95.927Z" fill="#A2E4FD"/>
<path d="M71.0527 91.1345C72.2402 91.2617 82.5669 87.2965 89.5008 86.1938C103.454 83.9885 112.762 84.1582 112.762 84.1582L113.208 78.3693C113.208 78.3693 101.545 77.4782 85.2599 80.6806C74.6787 82.7586 67.8508 85.9181 67.8508 85.9181L71.0527 91.1345ZM187.361 93.0005C185.919 94.3788 191.474 96.881 189.969 101.525C188.209 106.932 174.617 119.188 122.22 119.485C69.6744 119.782 60.4292 105.935 57.8634 101.949C55.0007 97.4747 60.4504 93.467 54.301 92.9793C49.0422 92.5552 41.9598 97.1567 42.5324 104.069C43.0837 110.728 55.1704 132.632 123.047 132.632C188.209 132.632 199.575 110.24 200.147 103.56C200.72 96.8174 190.605 89.9046 187.361 93.0005Z" fill="#E2DDD7"/>
<path d="M96.1168 95.7358C97.389 96.7749 90.2006 100.252 90.0946 104.303C90.0098 108.353 96.9225 111.767 95.9259 113.145C94.5052 115.117 75.6966 111.703 76.0783 104.684C76.566 95.9267 93.4874 93.5729 96.1168 95.7358Z" fill="#FFFFFD"/>
<path d="M97.1134 104.938C96.8802 109.009 103.644 113.144 123.768 113.229C144.676 113.314 149.044 109.031 148.599 104.387C148.196 100.273 138.166 98.5555 123.365 98.2798C110.112 98.0254 97.4315 99.4673 97.1134 104.938ZM152.585 97.8133C151.843 98.9796 158.204 101.333 158.098 105.426C158.013 109.518 153.348 112.741 154.387 113.696C155.426 114.65 171.224 113.038 171.139 105.044C171.033 97.0499 154.091 95.4172 152.585 97.8133Z" fill="#4FC0FA"/>
<path d="M111.66 105.787L111.575 89.1415C111.575 89.1415 105.68 83.4374 103.114 77.0546C100.549 70.672 100.252 65.7313 101.206 63.8228C102.16 61.9144 108.246 60.9602 108.246 60.9602L124.616 65.7101C124.616 65.7101 143.361 60.9602 144.315 61.7236C145.269 62.4869 146.033 70.0358 143.933 76.27C141.177 84.4552 135.748 88.9294 135.748 88.9294L135.833 106.72C135.833 106.72 132.886 109.689 123.471 109.774C112.529 109.88 111.66 105.787 111.66 105.787Z" fill="#89847E"/>
<path d="M122.898 53.7504C105.574 53.8352 101.206 63.8439 101.206 63.8439C101.206 63.8439 105.871 70.4173 123.471 70.6082C141.834 70.799 144.442 61.9354 144.442 61.9354C144.442 61.9354 139.056 53.6656 122.898 53.7504Z" fill="#A9A299"/>
<path d="M142.237 118.107C142.237 118.107 155.299 118.828 157.356 127.268C159.413 135.707 158.734 176.505 158.734 176.505L167.174 172.201C167.174 172.201 169.57 131.996 170.248 125.805C170.757 121.14 172.327 111.449 172.327 111.449L160.961 114.884L142.237 118.107ZM76.4599 115.372C76.4599 115.372 75.1028 116.983 74.4031 121.224C73.364 127.416 75.0816 142.747 75.7814 151.865C76.4599 160.983 77.499 173.727 77.499 173.727L84.2209 172.01C84.2209 172.01 84.7298 148.26 85.4295 139.482C86.1293 130.703 89.0343 123.811 94.2083 121.585C99.3822 119.358 105.235 117.62 105.235 117.62L78.8985 112.446L76.4599 115.372ZM123.45 61.851C129.472 61.851 129.641 57.5464 129.641 55.1291C129.641 52.7118 132.398 24.9972 150.464 24.4883C167.513 24.0005 170.63 65.8163 170.842 76.1642C171.033 84.9854 171.012 97.9627 171.012 97.9627L179.176 96.2876C179.176 96.2876 185.707 15.7519 152.012 13.6526C136.554 12.6772 129.472 25.5273 129.472 25.5273C129.472 25.5273 128.963 10.5567 128.602 6.25218C128.242 1.94762 124.807 0.738953 122.58 0.908591C120.333 1.07823 117.597 2.96545 117.237 6.25218C116.897 9.51771 117.067 25.3576 117.067 25.3576C117.067 25.3576 108.309 11.7654 96.5832 11.9351C83.8392 12.1047 69.5684 27.0752 65.6031 58.0553C61.6378 89.0356 64.9245 103.328 64.9245 103.328L72.9399 97.0297C72.9399 97.0297 72.4946 64.6076 76.2691 50.3156C80.0435 36.0236 86.7866 23.1524 95.9259 23.1524C105.065 23.1524 110.557 32.9489 114.332 42.7455C116.388 48.0891 116.707 54.0689 116.749 55.8289C116.813 59.0308 117.767 61.851 123.45 61.851Z" fill="#A2E4FD"/>
</svg>
