<svg width="257" height="247" viewBox="0 0 257 247" fill="none" xmlns="http://www.w3.org/2000/svg">
<path d="M252.877 118.997L222.825 109.311C203.603 102.968 192.342 87.4139 187.056 67.868L173.832 3.44955C173.487 2.17672 172.645 0.472412 170.057 0.472412C167.878 0.472412 166.626 2.17672 166.281 3.44955L153.057 67.8896C147.75 87.4354 136.51 102.99 117.288 109.333L87.2359 119.019C82.9859 120.4 82.9212 126.397 87.1496 127.843L117.417 138.263C136.575 144.627 147.75 160.16 153.057 179.619L166.303 243.326C166.648 244.598 167.36 246.885 170.078 246.885C172.947 246.885 173.508 244.598 173.854 243.326L187.1 179.619C192.407 160.138 203.582 144.605 222.739 138.263L253.007 127.843C257.192 126.376 257.127 120.378 252.877 118.997Z" fill="#FDD835"/>
<path d="M255.725 121.695C255.25 120.508 254.323 119.473 252.877 118.998L222.825 109.312C203.603 102.969 192.342 87.4144 187.057 67.8686L173.832 3.4501C173.638 2.7166 172.947 1.37905 172.149 0.990723L176.421 65.6465C179.592 95.1593 182.31 109.053 205.869 113.108C226.105 116.603 249.512 120.616 255.725 121.695Z" fill="#FFEE58"/>
<path d="M255.79 125.059L203.668 137.011C185.309 141.671 175.191 152.307 175.191 180.136L170.078 246.885C171.825 246.712 173.249 245.763 173.853 243.325L187.099 179.619C192.407 160.138 203.582 144.605 222.739 138.262L253.007 127.842C254.43 127.325 255.336 126.267 255.79 125.059Z" fill="#F4B400"/>
<path d="M80.7638 175.046C62.7929 169.113 61.1533 162.425 58.133 151.142L50.6039 124.736C50.1509 123.032 45.7067 123.032 45.2321 124.736L40.1192 149.136C37.0773 160.376 30.6053 169.307 19.5596 172.953L1.95566 180.59C-0.482144 181.388 -0.525291 184.84 1.91251 185.66L19.6459 191.938C30.6484 195.584 37.0773 204.515 40.1408 215.712L45.2537 239.054C45.7283 240.759 50.1509 240.759 50.6039 239.054L56.6013 215.82C59.6432 204.558 64.3031 195.605 79.2537 191.938L95.9084 185.66C98.3462 184.819 98.3246 181.367 95.8653 180.569L80.7638 175.046Z" fill="#FDD835"/>
<path d="M52.028 150.753C53.8617 167.71 54.7894 172.413 68.5317 175.929L97.1596 181.517C96.8576 181.107 96.4261 180.762 95.8437 180.589L80.7422 175.045C64.9721 169.652 60.6142 162.791 57.6586 149.07C54.7031 135.35 51.5533 126.397 51.5533 126.397C50.4531 123.441 48.8782 123.592 48.8782 123.592L52.028 150.753Z" fill="#FFEE58"/>
<path d="M52.5455 209.952C52.5455 193.966 61.2827 186.048 75.1761 186.048L96.7929 185.164C96.7929 185.164 95.5416 186.825 93.3627 187.343L79.2536 191.938C67.2802 196.749 61.8221 199.165 58.1114 215.539C58.1114 215.539 53.3221 234.589 52.416 236.595C51.1648 239.4 49.6762 239.982 49.6762 239.982L52.5455 209.952Z" fill="#F4B400"/>
<path d="M119.445 48.4737C120.653 48.0638 120.61 46.3379 119.38 45.9927L102.726 41.5055C101.013 41.041 99.4491 40.1413 98.1866 38.8939C96.9233 37.6464 96.0051 36.0935 95.5201 34.3862L88.9618 7.31146C88.6382 5.99547 86.7613 5.99547 86.4377 7.33303L80.2676 34.2999C79.8017 36.0543 78.8757 37.6527 77.5865 38.9305C76.2975 40.2085 74.691 41.1195 72.9326 41.5702L56.3857 45.8633C55.156 46.1869 55.0697 47.9128 56.2778 48.3443L73.7308 54.3848C76.8589 55.4635 79.2753 58.0092 80.2245 61.1805L86.4592 86.1842C86.7828 87.4786 88.6382 87.5002 88.9618 86.1842L95.4122 61.0942C95.8894 59.5284 96.7343 58.099 97.8742 56.9247C99.015 55.7503 100.419 54.8649 101.971 54.3417L119.445 48.4737Z" fill="#F4B400" stroke="#F4B400" stroke-width="2.15706" stroke-miterlimit="10"/>
</svg>
