<svg width="175" height="257" viewBox="0 0 175 257" fill="none" xmlns="http://www.w3.org/2000/svg">
<path d="M11.1183 137.788C-16.5555 187.372 14.5299 242.995 63.2663 253.971C95.6231 261.26 133.553 255.518 152.857 230.09C175.869 199.81 171.758 171.479 168.304 158.765C163.812 142.153 164.024 132.744 169.109 126.96C174.809 120.476 175.678 116.916 174.322 112.932C172.605 107.931 168.367 106.554 163.112 106.978C153.746 107.719 141.584 112.869 139.825 133.359C138.702 146.539 146.902 181.184 104.756 185.507C71.1065 188.94 56.0194 149.23 66.5084 129.312C73.8612 115.369 78.9679 109.521 107.405 78.075C125.162 58.4319 127.323 47.0954 127.323 40.4418C127.323 17.0907 107.087 -1.53499 83.1847 1.15611C65.0251 3.19028 50.4042 17.896 48.4547 36.0767C47.141 48.1973 51.3365 59.3431 58.8165 67.374C62.1645 70.955 62.3976 76.4433 59.1979 80.1516C56.2313 83.6055 52.7138 87.9706 47.8826 92.9713C32.5411 108.864 23.8534 114.966 11.1183 137.788ZM101.471 40.463C101.471 50.0408 94.9238 57.7962 86.8505 57.7962C78.7772 57.7962 72.2296 50.0408 72.2296 40.463C72.2296 30.8853 78.7772 23.1298 86.8505 23.1298C94.9238 23.1298 101.471 30.8853 101.471 40.463Z" fill="#FFCA28"/>
<path d="M11.1183 137.788C-16.5555 187.372 14.5299 242.995 63.2663 253.971C95.6231 261.26 133.553 255.518 152.857 230.09C175.869 199.81 171.758 171.479 168.304 158.765C163.812 142.153 164.024 132.744 169.109 126.96C174.809 120.476 175.678 116.916 174.322 112.932C172.605 107.931 168.367 106.554 163.112 106.978C153.746 107.719 141.584 112.869 139.825 133.359C138.702 146.539 146.902 181.184 104.756 185.507C71.1065 188.94 56.0194 149.23 66.5084 129.312C73.8612 115.369 78.9679 109.521 107.405 78.075C125.162 58.4319 127.323 47.0954 127.323 40.4418C127.323 17.0907 107.087 -1.53499 83.1847 1.15611C65.0251 3.19028 50.4042 17.896 48.4547 36.0767C47.141 48.1973 51.3365 59.3431 58.8165 67.374C62.1645 70.955 62.3976 76.4433 59.1979 80.1516C56.2313 83.6055 52.7138 87.9706 47.8826 92.9713C32.5411 108.864 23.8534 114.966 11.1183 137.788ZM99.3524 40.463C99.3524 50.0408 92.8048 57.7962 84.7315 57.7962C76.6582 57.7962 70.1106 50.0408 70.1106 40.463C70.1106 30.8853 76.6582 23.1298 84.7315 23.1298C92.8048 23.1298 99.3524 30.8853 99.3524 40.463Z" fill="#FFCA28"/>
<path d="M90.5164 205.044C68.0552 201.102 52.7562 180.951 50.0652 174.636C47.6283 168.915 41.1867 170.843 45.5306 188.6C48.37 200.234 56.0407 210.341 66.2117 216.656C81.6802 226.255 101.789 227.42 117.364 218.817C135.841 208.582 143.3 192.796 142.516 185.104C142.389 183.875 140.291 179.213 135.269 188.834C133.616 191.948 112.977 208.985 90.5164 205.044Z" fill="#FFF59D"/>
<path d="M117.385 203.709C141.647 191.673 143.533 171.861 139.761 146.391C139.634 161.902 136.392 182.265 104.735 185.507C71.1065 188.961 56.3372 149.4 66.5083 129.333C75.3868 111.767 96.7884 89.8567 96.7884 89.8567C96.7884 89.8567 71.0853 107.614 59.2614 128.909C48.0096 149.146 44.0896 176.099 61.1261 193.029C68.0763 199.916 76.7641 205.171 86.3207 207.481C96.9155 210.002 107.68 208.54 117.385 203.709Z" fill="#E2A610"/>
<path d="M163.388 112.486C167.096 115.177 162.731 118.885 159.807 120.03C151.861 123.102 148.491 131.048 147.517 128.018C146.627 125.221 147.686 120.771 152.941 115.347C155.42 112.783 160.739 110.558 163.388 112.486ZM82.1887 10.7967C85.0917 16.2848 78.65 17.0689 74.9418 18.8276C61.5923 25.1633 63.118 40.2504 60.0455 39.5512C56.973 38.8519 56.0406 33.8299 56.1677 31.3931C56.5703 22.9596 61.3168 16.3908 64.7072 13.8056C72.8652 7.55467 79.985 6.6647 82.1887 10.7967Z" fill="#FFF59D"/>
<path d="M79.5825 40.4628C79.5825 32.8557 83.7145 26.414 89.4781 24.0832C87.9948 23.4899 86.4056 23.1296 84.7528 23.1296C76.6795 23.1296 70.1319 30.8851 70.1319 40.4628C70.1319 50.0406 76.6795 57.796 84.7528 57.796C86.4056 57.796 87.9948 57.457 89.4781 56.8425C83.7145 54.5116 79.5825 48.07 79.5825 40.4628Z" fill="#E2A610"/>
</svg>
