<svg width="256" height="244" viewBox="0 0 256 244" fill="none" xmlns="http://www.w3.org/2000/svg">
<path d="M45.3083 63.2363H19.1771C15.7001 63.2363 12.8843 60.4205 12.8843 56.9435V41.5421C12.8843 38.065 15.7001 35.2493 19.1771 35.2493H45.3083C48.7853 35.2493 51.6011 38.065 51.6011 41.5421V56.9435C51.5944 58.6103 50.9292 60.207 49.7506 61.3856C48.5719 62.5643 46.9752 63.2295 45.3083 63.2363Z" fill="#90A4AE"/>
<path d="M26.1952 65.9018H17.6626V43.7172C17.6626 41.3708 19.5824 39.4509 21.9289 39.4509C24.2754 39.4509 26.1952 41.3708 26.1952 43.7172V65.9018Z" fill="#94D1E0"/>
<path d="M81.8281 55.8332H70.0744C67.7279 55.8332 65.8294 53.9347 65.8294 51.5883V39.8346C65.8294 37.4881 66.96 36.4642 70.0744 35.5896C73.1888 34.715 78.863 34.6083 81.8281 35.5896C84.2599 36.4002 86.073 37.4881 86.073 39.8346V51.5883C86.073 53.9347 84.1532 55.8332 81.8281 55.8332Z" fill="#546E7A"/>
<path d="M0 105.11H255.979V233.398H0V105.11Z" fill="#212121"/>
<path d="M0 230.495V236.319C0 240.543 3.43438 243.977 7.65803 243.977H248.342C252.566 243.977 256 240.543 256 236.319V230.495H0Z" fill="#B0BEC5"/>
<path d="M83.9181 65.9648H67.9409C62.736 65.9648 58.5123 61.7413 58.5123 56.5364V55.1497C58.5123 49.9448 62.736 45.7212 67.9409 45.7212H83.9181C89.123 45.7212 93.3467 49.9448 93.3467 55.1497V56.5364C93.3501 57.7754 93.1078 59.0028 92.6351 60.1481C92.1623 61.2935 91.4686 62.3341 90.5923 63.2103C89.716 64.0864 88.6751 64.7808 87.53 65.2531C86.3849 65.7258 85.1571 65.9682 83.9181 65.9648Z" fill="#90A4AE"/>
<path d="M251.136 52.3352H8.63928C3.86101 52.3352 0 56.1962 0 60.9745V107.307H255.979V57.1775C255.979 54.4897 253.803 52.3352 251.136 52.3352Z" fill="#B0BEC5"/>
<path d="M231.426 97.302H192.709C191.623 97.302 190.581 96.8702 189.813 96.1023C189.045 95.3343 188.613 94.2925 188.613 93.2063V66.2219C188.613 63.9607 190.448 62.1262 192.709 62.1262H231.426C233.687 62.1262 235.522 63.9607 235.522 66.2219V93.2276C235.522 95.4674 233.708 97.302 231.426 97.302Z" fill="#78909C"/>
<path d="M188.613 92.1824V66.6698C188.613 64.1527 190.64 62.1262 193.157 62.1262H231.106C233.239 62.1262 234.114 63.2995 234.114 63.2995L190.085 96.1927C190.085 96.1927 188.613 95.2968 188.613 92.1824Z" fill="#757575"/>
<path d="M197.189 68.5464H226.946V90.8805H197.189V68.5464Z" fill="#212121"/>
<path d="M14.0362 226.635H3.62636C1.6212 226.635 0 225.014 0 223.009V125.118C0 123.113 1.6212 121.492 3.62636 121.492H14.0362C16.0413 121.492 17.6625 123.113 17.6625 125.118V223.009C17.6625 225.014 16.02 226.635 14.0362 226.635ZM252.31 226.635H241.9C239.895 226.635 238.273 225.014 238.273 223.009V125.118C238.273 123.113 239.895 121.492 241.9 121.492H252.31C254.315 121.492 255.936 123.113 255.936 125.118V223.009C255.936 225.014 254.315 226.635 252.31 226.635Z" fill="#616161"/>
<path d="M8.61806 241.076C6.27159 241.076 4.35175 239.157 4.35175 236.81V231.605H12.8844V236.81C12.8844 237.942 12.4349 239.027 11.6348 239.827C10.8347 240.628 9.74957 241.076 8.61806 241.076ZM251.414 104.299H242.881V60.7824C242.881 58.436 244.801 56.5161 247.147 56.5161C249.494 56.5161 251.414 58.436 251.414 60.7824V104.299ZM15.2735 104.299H6.74088V60.7824C6.74088 58.436 8.66072 56.5161 11.0072 56.5161C13.3537 56.5161 15.2735 58.436 15.2735 60.7824V104.299ZM247.147 241.076C244.801 241.076 242.881 239.157 242.881 236.81V231.605H251.414V236.81C251.414 237.942 250.964 239.027 250.165 239.827C249.364 240.628 248.279 241.076 247.147 241.076Z" fill="#B9E4EA"/>
<path d="M145.886 237.791C184.516 237.791 215.832 206.475 215.832 167.844C215.832 129.214 184.516 97.8982 145.886 97.8982C107.256 97.8982 75.94 129.214 75.94 167.844C75.94 206.475 107.256 237.791 145.886 237.791Z" fill="#616161"/>
<path d="M145.886 228.576C179.427 228.576 206.617 201.386 206.617 167.845C206.617 134.304 179.427 107.114 145.886 107.114C112.345 107.114 85.1554 134.304 85.1554 167.845C85.1554 201.386 112.345 228.576 145.886 228.576Z" fill="#E0E0E0"/>
<path d="M145.887 211.213C169.838 211.213 189.254 191.797 189.254 167.846C189.254 143.895 169.838 124.479 145.887 124.479C121.936 124.479 102.52 143.895 102.52 167.846C102.52 191.797 121.936 211.213 145.887 211.213Z" fill="#2F7889"/>
<path d="M145.886 223.649C176.705 223.649 201.69 198.665 201.69 167.846C201.69 137.026 176.705 112.043 145.886 112.043C115.068 112.043 90.0831 137.026 90.0831 167.846C90.0831 198.665 115.068 223.649 145.886 223.649Z" fill="black"/>
<path d="M145.886 210.381C169.378 210.381 188.422 191.338 188.422 167.846C188.422 144.354 169.378 125.311 145.886 125.311C122.394 125.311 103.351 144.354 103.351 167.846C103.351 191.338 122.394 210.381 145.886 210.381Z" fill="#2F7889"/>
<path d="M135.818 132.158C122.358 135.208 114.316 148.306 114.316 157.969C114.316 165.798 119.5 163.835 121.163 160.998C125.451 153.724 130.635 147.666 139.573 145.127C143.156 144.104 147.337 141.864 146.911 137.683C146.313 131.731 140.404 131.113 135.818 132.158Z" fill="#94D1E0"/>
<path opacity="0.25" d="M145.887 186.831C156.371 186.831 164.872 178.331 164.872 167.846C164.872 157.36 156.371 148.861 145.887 148.861C135.402 148.861 126.901 157.36 126.901 167.846C126.901 178.331 135.402 186.831 145.887 186.831Z" fill="black"/>
<path d="M80.8254 79.1492C79.8654 78.9786 79.6521 77.6987 80.484 77.2294L108.194 63.2358C113.335 60.3134 113.783 58.8842 112.097 54.3406L95.7361 6.94184C95.3948 5.93926 96.5894 5.12866 97.4 5.81127L133.472 36.3581C140.234 41.8189 142.474 39.5365 144.329 36.3154L164.317 0.969003C164.432 0.776166 164.607 0.625566 164.815 0.539727C165.023 0.453889 165.252 0.437249 165.47 0.492285C165.688 0.547405 165.883 0.671215 166.024 0.845452C166.166 1.01969 166.248 1.23505 166.258 1.45963L166.408 36.9767C166.258 43.8241 169.181 42.5655 178.716 40.1124L209.625 31.4731C210.649 31.1745 211.396 32.4117 210.671 33.1797L176.668 68.5475C174.471 71.3632 174.706 72.2591 175.644 76.1628L182.534 96.1932C182.79 96.9398 182.15 97.7077 181.361 97.5584L158.387 90.8816C154.953 90.2843 153.267 90.2843 151.092 93.8254L134.858 120.255C134.325 120.895 132.896 121.599 132.448 120.298L123.83 89.6444C122.742 86.082 121.249 86.018 117.58 85.3354L80.8254 79.1492Z" fill="#FF8F00"/>
<path d="M102.541 75.1171L129.739 65.9658L109.111 24.8813L141.855 56.516L156.915 29.4463L155.145 59.3745L186.139 47.7488L162.291 70.7014L171.719 86.8921L150.388 80.4073L136.287 105.237L131.914 78.2528L102.541 75.1171Z" fill="#FFEE58"/>
</svg>
