<svg width="218" height="257" viewBox="0 0 218 257" fill="none" xmlns="http://www.w3.org/2000/svg">
<path d="M36.0212 120.503L30.4671 108.44L16.8786 55.6128L13.4232 47.3876L18.405 35.1347C18.405 35.1347 25.4642 36.131 30.8487 42.2151C37.3992 49.6347 48.0834 71.8299 48.0834 71.8299L45.8363 54.3197L58.0257 22.7121C58.0257 22.7121 63.3677 22.1398 64.788 23.6025C67.3107 26.1887 71.6141 44.335 73.1404 50.0799C74.6667 55.8248 76.7866 63.6684 79.4577 67.1026C82.1287 70.5368 85.3933 71.3212 85.3933 71.3212L94.954 34.3927L97.2435 0.898474C97.2435 0.898474 100.593 0.877276 105.278 1.85242C108.818 2.59439 111.192 3.80272 112.337 5.22305C113.482 6.64337 113.524 29.2202 113.524 29.2202C113.524 29.2202 133.727 12.0067 134.384 12.1975C135.783 12.5791 140.129 13.533 142.418 16.0345C144.708 18.5147 142.8 27.7151 141.083 33.8415C139.366 39.968 133.43 59.8738 133.43 59.8738L138.793 57.8387L139.98 58.9834L149.965 43.6566C149.965 43.6566 153.569 43.6354 156.494 45.0769C159.674 46.6457 161.582 50.5039 161.582 50.5039L187.233 13.3846C187.233 13.3846 189.183 15.1229 190.9 16.84C192.617 18.5571 193.826 19.7655 193.91 21.5038C193.995 23.2209 187.805 34.6471 184.943 40.392C182.081 46.1369 177.29 57.6267 177.29 57.6267L198.15 41.7063C198.15 41.7063 205.061 42.6815 205.273 44.9709C205.464 47.2604 201.796 51.5002 198.15 57.8175C194.504 64.1347 188.399 76.3877 186.279 80.5852C184.159 84.7825 187.042 84.9945 187.042 84.9945L212.035 69.2013C212.035 69.2013 217.42 70.3036 217.929 72.8051C218.501 75.6669 212.311 81.3695 208.283 85.9485C204.255 90.5486 195.649 101.636 191.261 110.264C186.872 118.892 183.926 124.276 183.926 124.276L145.874 162.031L44.628 155.905L36.0212 120.503Z" fill="url(#paint0_radial_23_831)"/>
<path d="M162.601 78.8246C160.057 79.4182 152.022 93.3247 144.518 114.481C140.003 127.2 137.014 141.107 137.183 147.763C137.353 154.42 147.401 152.385 147.401 152.385L151.662 138.563C151.662 138.563 156.432 122.346 162.071 110.241C168.664 96.0381 177.207 87.0074 176.571 84.8239C175.723 81.8985 166.183 77.9765 162.601 78.8246ZM187.849 42.6592C184.287 44.7367 176.253 58.1768 173.857 63.3069C171.462 68.437 171.377 78.0825 174.006 79.3334C177.249 80.8597 180.853 69.9633 186.322 60.9114C191.792 51.8595 198.257 41.6204 198.257 41.6204C198.257 41.6204 191.94 40.2637 187.849 42.6592ZM201.331 69.285C195.883 71.5957 185.729 82.4285 182.21 87.8766C175.723 97.946 170.953 109.203 169.236 113.803C167.54 118.403 166.162 124.72 171.462 121.816C176.762 118.912 183.566 105.26 192.279 92.9855C202.37 78.7399 212.079 69.0942 212.079 69.0942C212.079 69.0942 205.762 67.3983 201.331 69.285ZM178.457 8.52898C176.359 8.27459 170.614 23.5378 167.37 30.8726C164.127 38.2074 159.802 47.9165 159.802 47.9165C159.802 47.9165 157.301 67.2287 160.884 67.5679C164.466 67.907 171.483 44.3551 176.719 33.5649C181.828 23.0502 187.213 13.3199 187.213 13.3199C187.213 13.3199 182.549 9.03775 178.457 8.52898ZM140.723 46.7718C138.837 48.7645 139.897 59.0247 139.897 59.0247C139.897 59.0247 147.232 64.494 148.609 63.2857C149.987 62.0774 150.051 43.5495 150.051 43.5495C150.051 43.5495 143.797 43.5283 140.723 46.7718ZM125.566 60.7418C122.916 62.9677 124.718 73.3976 124.04 82.7464C123.022 96.7377 118.931 125.399 117.723 133.772C116.514 142.146 115.327 151.346 115.327 151.346L128.471 149.29C128.471 149.29 133.579 110.22 135.636 95.1902C137.692 80.1602 140.745 58.8551 138.71 57.6468C136.653 56.4809 128.81 58.0072 125.566 60.7418ZM123.976 10.9033C120.627 11.5392 113.547 29.2191 113.547 29.2191C113.547 29.2191 113.123 41.9808 113.123 48.1285C113.123 54.2762 111.935 61.611 113.97 61.611C116.006 61.611 119.949 49.8456 124.04 39.6065C128.131 29.3675 134.406 12.1964 134.406 12.1964C134.406 12.1964 128.725 10.0129 123.976 10.9033ZM85.458 4.43759C83.1473 6.87546 86.8147 13.1503 87.1539 30.3638C87.4931 47.5985 85.3732 71.2989 85.3732 71.2989C85.3732 71.2989 87.1963 71.1717 88.341 74.7119C89.3162 77.7009 90.9061 95.8685 92.9412 95.1902C94.9975 94.5118 97.5414 82.3861 99.5976 61.9078C101.654 41.4296 100.785 25.5729 100.106 19.086C99.428 12.5992 97.2234 0.85498 97.2234 0.85498C97.2234 0.85498 88.871 0.85498 85.458 4.43759ZM58.0267 22.711C58.0267 22.711 48.1692 23.4106 45.4558 28.7103C42.7211 34.01 43.5903 36.5751 44.099 41.684C44.6078 46.793 46.2189 56.9896 46.2189 56.9896C46.2189 56.9896 55.2709 68.2462 60.2101 65.5116C65.1495 62.7981 58.0267 22.711 58.0267 22.711ZM18.406 35.1336C18.406 35.1336 12.9367 34.116 9.69326 34.7944C6.44983 35.4728 6.61943 38.5466 8.16694 40.6029C9.69326 42.6592 16.7525 55.4209 16.7525 55.4209C16.7525 55.4209 18.8512 55.4633 21.5858 56.4808C24.3205 57.4984 29.0054 60.0423 28.8147 55.9509C28.4755 48.8069 18.406 35.1336 18.406 35.1336ZM33.8176 115.711C33.8176 115.711 23.5149 94.8722 15.8409 83.4248C8.16695 71.9772 0.132568 63.1161 0.132568 61.2506C0.132568 59.3639 5.43229 57.4984 8.48493 56.6504C11.5376 55.8025 16.8585 55.6117 16.8585 55.6117C16.8585 55.6117 29.4718 76.9378 34.6019 88.5549C39.7321 100.172 44.5018 113.697 43.3147 115.35C42.2335 116.834 34.5808 115.838 33.8176 115.711ZM40.7496 78.4855C39.9441 81.4745 43.8235 95.0418 46.2189 104.772C48.6144 114.502 51.5187 124.741 51.5187 124.741L59.7013 141.467L68.7533 138.224C68.7533 138.224 63.9835 129.002 61.2489 119.463C58.5142 109.881 54.9741 80.1602 51.3279 76.2806C48.784 73.546 41.2796 76.6198 40.7496 78.4855ZM69.0925 75.0723C66.9514 76.4714 70.2796 99.1332 71.9967 108.524C73.7138 117.915 77.2964 127.815 79.1619 132.415C81.0486 137.016 86.4967 148.633 86.4967 148.633C86.4967 148.633 92.1356 155.289 92.3052 154.611C92.4748 153.932 94.8703 145.559 94.8703 145.559C94.8703 145.559 87.3447 123.364 86.1363 113.803C84.9492 104.242 83.0625 75.2419 81.197 74.2243C79.3315 73.2068 72.5055 72.8676 69.0925 75.0723ZM107.144 75.581C104.579 77.9553 102.036 109.372 100.997 120.968C99.958 132.564 99.1101 149.629 99.1101 149.629L110.536 148.781C110.536 148.781 114.797 106.638 115.476 101.168C116.154 95.699 119.228 83.2552 117.701 78.2945C116.175 73.3764 109.349 73.546 107.144 75.581Z" fill="#FBDE93"/>
<path d="M30.4253 119.589C29.7046 121.222 51.9846 243.137 52.345 244.96C52.7053 246.783 51.9846 248.436 55.44 250.069C58.9164 251.701 64.3434 252.57 67.82 252.952C71.2966 253.312 95.2301 253.354 95.4209 250.45C95.6117 247.525 167.158 143.311 167.158 143.311C167.158 143.311 180.344 121.201 179.432 119.377C178.521 117.554 174.959 118.402 171.08 121.052C167.2 123.723 163.618 130.316 152.722 137.63C140.914 145.558 125.269 147.233 109.539 147.042C95.0393 146.851 77.8047 144.223 65.4669 135.086C54.6132 127.03 51.4122 121.222 41.7455 118.657C33.2236 116.388 30.4253 119.589 30.4253 119.589Z" fill="#FD703F"/>
<path d="M47.2783 127.561L67.5021 252.995C67.5021 252.995 91.6052 256.471 110.387 256.832C129.191 257.192 151.598 253.27 151.598 253.27L167.879 198.238L181.7 125.632C181.7 125.632 178.287 122.219 174.45 125.038C171.504 127.2 162.409 141.276 146.341 147.488C128.216 154.483 95.5482 154.992 75.1548 146.385C56.4574 138.521 50.7549 128.282 47.2783 127.561Z" fill="#FF2A23"/>
<path d="M163.321 249.412C159.208 251.871 149.626 253.525 149.626 253.525C149.626 253.525 159.123 207.353 164.402 183.25C169.68 159.147 177.291 118.382 177.291 118.382C177.291 118.382 180.343 117.894 183.481 118.276C187.042 118.721 189.162 119.76 189.883 120.883C191.049 122.706 184.032 156.752 177.163 189.992C170.889 220.518 165.504 248.119 163.321 249.412Z" fill="#DC0D25"/>
<defs>
<radialGradient id="paint0_radial_23_831" cx="0" cy="0" r="1" gradientUnits="userSpaceOnUse" gradientTransform="translate(110.487 -23.0817) scale(176.222 176.222)">
<stop offset="0.447" stop-color="#FCC216"/>
<stop offset="0.59" stop-color="#FABB16"/>
<stop offset="0.794" stop-color="#F3A814"/>
<stop offset="0.921" stop-color="#ED9913"/>
</radialGradient>
</defs>
</svg>
