<svg width="234" height="256" viewBox="0 0 234 256" fill="none" xmlns="http://www.w3.org/2000/svg">
<path d="M113.05 222.272C173.855 222.272 223.147 172.979 223.147 112.174C223.147 51.3684 173.855 2.07593 113.05 2.07593C52.2443 2.07593 2.95178 51.3684 2.95178 112.174C2.95178 172.979 52.2443 222.272 113.05 222.272Z" fill="#880E4F"/>
<path d="M92.1644 70.2128C91.9084 70.2128 91.6311 70.1488 91.3751 70.1275C86.8739 69.8715 85.6793 64.7516 86.4259 61.9357C91.0338 44.2936 88.7512 28.6142 81.1994 8.58284C79.6422 4.48697 85.85 3.42034 88.5592 4.50831C91.1618 5.55361 93.5724 9.30815 94.6177 12.1454C100.868 29.0622 102.617 46.8323 97.4549 65.8396C96.7723 68.3996 94.7243 70.2768 92.1644 70.2128Z" fill="#EC407A"/>
<path d="M105.945 86.5757C105.476 86.5757 105.007 86.4904 104.538 86.3411C103.875 86.1414 103.258 85.8129 102.722 85.3743C102.186 84.9357 101.741 84.3964 101.414 83.7863C101.088 83.1753 100.885 82.5072 100.816 81.8177C100.748 81.1291 100.816 80.4328 101.018 79.7706C106.948 60.1445 111.279 28.0602 97.5404 3.95434C96.0898 1.41576 99.7804 -0.24818 102.682 0.0291358C109.337 0.62645 113.22 10.5888 114.5 15.026C120.516 35.74 118.553 63.4297 111.108 82.8212C110.255 85.1038 108.249 86.6397 105.945 86.5757Z" fill="#EC407A"/>
<path d="M120.154 102.042C116.527 100.997 115.845 96.2181 116.677 93.4235C133.188 38.0868 116.57 4.0826 116.442 3.71995C115.418 0.989369 124.378 -2.74386 128.794 8.3278C129.433 9.92775 144.174 46.9399 127.556 97.9247C126.767 100.271 123.951 103.151 120.154 102.042ZM26.2048 184.535C24.6688 182.722 22.7489 179.842 25.1808 178.221C29.2127 175.512 43.0575 171.117 54.1292 156.099C55.8571 153.752 58.7797 152.664 61.3183 154.115C63.8569 155.544 64.9876 158.936 63.3022 161.304C49.8626 180.247 33.5005 185.367 32.8392 185.751C32.0286 186.221 27.7407 186.349 26.2048 184.535ZM35.1005 192.407C33.9912 189.634 41.0736 188.418 41.0736 188.418C44.2095 187.223 57.0731 184.813 67.3342 168.664C68.8915 166.211 72.006 165.251 74.5233 166.701C77.0619 168.152 77.9365 171.373 76.4859 173.89C69.5954 185.965 56.1344 195.01 46.9187 197.207C41.9909 198.38 36.1884 195.116 35.1005 192.407ZM52.3372 208.214C49.0733 206.487 48.1134 203.329 50.1826 202.647C62.4062 198.7 75.7606 188.503 82.2457 178.903C83.867 176.493 87.1522 175.853 89.5628 177.495C91.9734 179.117 92.592 182.402 90.9707 184.813C83.355 196.29 75.5899 202.092 62.9182 207.596C60.5076 208.641 55.3878 209.836 52.3372 208.214ZM67.9528 212.929C75.9526 209.26 89.2855 201.665 97.0079 188.716C98.5012 186.221 101.744 185.389 104.24 186.882C106.736 188.375 107.568 191.618 106.074 194.114C99.8451 204.567 91.1841 212.822 77.9792 217.473C71.558 219.755 65.3076 214.166 67.9528 212.929ZM18.8237 169.304C1.05357 148.355 -2.08233 121.007 2.48286 93.9142C3.52815 87.6851 5.81075 83.8025 8.07201 83.8238C10.9946 83.8665 13.8105 93.8929 12.9572 99.3327C9.11731 123.801 16.1997 147.8 31.5166 166.466C32.4339 167.597 31.1326 171.416 27.8687 172.845C24.6048 174.253 20.9569 171.821 18.8237 169.304Z" fill="#EC407A"/>
<path d="M32.3698 157.505C24.3274 149.954 17.6716 126.317 17.6503 115.075C17.6503 112.152 17.6716 107.95 20.5942 107.95C20.5942 107.95 27.122 108.952 28.2099 115.053C29.7672 123.843 34.6311 144.023 42.7375 154.242C44.5507 156.524 37.8523 162.647 32.3698 157.505Z" fill="#EC407A"/>
<path d="M120.089 226.347C110.809 226.816 96.5593 224.875 91.8874 218.475C90.1595 216.128 93.2527 213.91 96.0686 214.656C113.049 219.243 124.804 221.91 146.499 211.371C150.894 209.238 155.757 211.478 153.581 214.55C150.531 218.88 136.771 225.6 120.089 226.347Z" fill="#D81B60"/>
<path d="M102.682 207.212C101.04 204.801 105.925 200.769 108.826 201.239C113.412 201.964 116.591 202.774 119.791 202.902C123.076 203.03 127.108 201.836 128.345 201.836C131.268 201.836 138.265 204.716 136.473 207.02C130.927 214.145 107.866 214.785 102.682 207.212Z" fill="#D81B60"/>
<path d="M162.861 86.5534C160.194 86.8734 157.677 85.1028 157.101 82.4362C156.483 79.599 158.296 76.7831 161.133 76.1645C173.698 73.4339 190.081 64.0688 199.638 49.0293C201.921 45.4241 209.025 52.1865 205.206 57.9037C193.729 75.1618 178.69 83.1615 163.373 86.4681C163.202 86.4894 163.032 86.5321 162.861 86.5534Z" fill="#EC407A"/>
<path d="M159.213 105.647C157.844 105.81 156.465 105.431 155.372 104.589C154.279 103.748 153.559 102.512 153.368 101.145C152.963 98.2656 154.947 95.5776 157.848 95.1723C178.519 92.2071 201.111 76.442 208.705 60.6559C209.964 58.0319 218.689 65.7757 212.46 74.4154C201.345 89.7965 179.543 102.724 159.363 105.604C159.299 105.647 159.256 105.647 159.213 105.647Z" fill="#EC407A"/>
<path d="M161.112 122.415C159.427 122.607 157.763 122.756 156.163 122.82C153.262 122.948 150.787 120.687 150.659 117.764C150.531 114.842 152.793 112.367 155.715 112.282C176.856 111.386 207.596 97.1781 217.132 79.4934C218.519 76.9335 227.35 84.1866 219.841 93.7009C214.209 100.847 205.335 106.693 195.181 111.791C184.173 117.337 171.8 121.156 161.112 122.415ZM177.816 136.836C176.323 137.006 174.936 137.092 173.699 137.049C173.006 137.034 172.323 136.882 171.689 136.603C171.055 136.324 170.483 135.922 170.006 135.42C169.528 134.918 169.153 134.327 168.905 133.68C168.656 133.034 168.539 132.345 168.557 131.652C168.572 130.959 168.724 130.276 169.003 129.642C169.283 129.008 169.685 128.436 170.186 127.959C170.688 127.481 171.28 127.107 171.926 126.858C172.572 126.61 173.262 126.492 173.955 126.511C183.704 126.724 210.028 116.484 221.206 98.9274C222.785 96.4742 228.609 105.647 222.316 112.815C208.705 128.324 190.679 135.321 177.816 136.836ZM137.134 115.866C136.495 115.866 135.855 115.759 135.215 115.503C132.505 114.458 131.268 111.428 132.207 108.676C143.065 76.8268 146.862 39.2814 133.209 4.70116C132.143 1.99192 142.553 1.62926 145.305 9.71433C158.275 47.9851 154.371 78.9601 142.041 112.495C141.273 114.607 139.246 115.866 137.134 115.866Z" fill="#EC407A"/>
<path d="M176.941 55.0675C174.232 51.6756 163.864 43.4839 159.854 42.076C157.102 41.0947 156.142 31.623 159.064 31.623C168.664 31.6016 181.826 41.0947 185.752 50.1824C188.653 56.9021 182.488 62.0006 176.941 55.0675ZM190.338 46.5345C180.888 33.9056 173.293 25.6072 155.801 19.4634C151.769 18.0341 147.95 13.0849 150.403 11.5063C154.947 8.56238 163.416 12.1463 165.784 13.2769C175.043 17.6928 183.618 22.4286 190.829 30.8123C194.903 35.5482 199.682 45.4252 197.741 47.5798C194.797 50.8437 191.383 47.9211 190.338 46.5345ZM192.983 151.363C191.447 148.888 200.002 145.326 200.77 136.281C201.026 133.379 209.857 129.966 210.049 132.867C210.775 144.174 206.786 148.291 202.348 151.512C197.506 154.989 193.965 152.984 192.983 151.363ZM210.561 159.085C206.615 158.189 208.193 153.944 210.028 151.683C217.025 143.107 217.665 138.521 216.94 129.177C216.577 124.569 220.353 120.452 222.145 122.734C224.47 125.721 226.22 134.446 224.556 141.614C220.63 158.659 211.799 159.363 210.561 159.085ZM170.563 60.038C171.203 60.87 171.821 61.766 172.077 62.7686C172.355 63.7926 172.227 64.9659 171.544 65.7552C171.075 66.2885 170.435 66.6085 169.795 66.9072C168.579 67.4831 167.363 68.0591 166.04 68.2938C164.718 68.5284 163.288 68.3791 162.2 67.6111C160.835 66.6298 160.28 64.8806 159.918 63.2593C159.299 60.614 158.915 57.9261 158.723 55.2169C158.68 54.5769 158.659 53.8729 158.958 53.2969C160.771 49.8837 169.325 58.4808 170.563 60.038Z" fill="#D81B60"/>
<path d="M176.94 200.789C164.397 198.592 151.811 193.686 139.502 188.097C136.664 186.731 133.934 185.302 131.203 183.851C126.681 186.411 121.817 188.481 116.74 190.016C130.201 197.547 141.379 201.621 149.571 204.053C163.586 208.235 169.325 207.467 170.519 207.296C175.127 206.592 179.799 201.365 176.94 200.789Z" fill="#EC407A"/>
<path d="M19.442 68.8913C18.0554 66.3314 15.9861 59.9743 15.9861 59.9743C12.3169 59.5263 9.30899 64.2621 10.653 72.3045C11.4423 76.9335 32.3269 129.561 94.0634 175.32C102.17 181.335 109.743 186.135 116.719 190.039C116.719 190.039 121.625 193.282 128.324 189.826C133.998 186.903 131.182 183.853 131.182 183.853C81.3705 157.614 47.2598 119.983 19.442 68.8913Z" fill="#F06292"/>
<path d="M190.956 189.207C175.874 184.386 161.239 178.626 147.245 171.693C144.408 174.68 141.293 177.389 137.944 179.821C140.909 181.485 143.853 183.085 146.776 184.642C155.97 189.549 192.748 205.548 190.956 189.207Z" fill="#EC407A"/>
<path d="M147.224 171.693C97.306 146.969 54.3418 108.228 27.2067 42.8228C20.0603 44.4014 20.8069 52.7851 21.8309 55.5157C46.0861 120.047 95.2154 155.864 137.923 179.821C137.923 179.821 144.664 183.533 149.123 177.837C151.79 174.402 147.224 171.693 147.224 171.693Z" fill="#F06292"/>
<path d="M201.686 175.447C185.879 170.946 171.138 164.696 157.464 157.315C155.724 160.692 153.682 163.905 151.363 166.914C162.285 172.461 173.826 177.154 185.943 180.674C201.26 185.09 204.566 175.938 201.686 175.447Z" fill="#EC407A"/>
<path d="M40.3265 29.5115C38.5773 25.821 31.1962 31.4314 32.4761 37.2553C40.4332 66.225 77.1893 131.417 151.363 166.915C151.363 166.915 157.293 169.518 159.555 164.568C161.816 159.598 157.485 157.315 157.485 157.315C79.5573 115.866 49.9689 56.4973 40.3265 29.5115Z" fill="#F06292"/>
<path d="M212.246 162.114C194.412 155.544 178.477 148.44 164.013 140.44C163.906 141.272 163.778 142.104 163.586 142.872C162.84 146.093 161.837 149.187 160.642 152.152C173.25 158.616 186.818 164.141 201.452 168.727C213.142 171.991 214.977 163.159 212.246 162.114Z" fill="#EC407A"/>
<path d="M164.014 140.441C111.279 111.45 84.6349 78.3199 55.2598 21.1273C51.6759 15.3675 42.9508 20.6367 46.3427 26.7592C72.2406 82.9278 99.8877 117.785 160.643 152.174C160.643 152.174 165.294 153.987 167.086 148.568C168.216 145.155 167.15 142.147 164.014 140.441Z" fill="#F06292"/>
<path d="M128.815 255.999C122.906 255.999 116.911 255.85 110.917 255.508C73.9473 253.461 27.7835 240.746 13.8319 217.6C9.45875 210.369 -3.83149 188.332 23.2823 143.747C38.4925 118.745 75.0353 65.3281 65.0303 14.3005C65.0303 14.3005 63.6437 9.39396 68.0168 7.53802C74.4806 4.80744 75.5259 10.3539 75.5259 10.3539C88.3042 69.8933 50.1188 124.078 34.1406 150.339C13.4266 184.407 18.8451 201.281 24.7116 211.009C31.4954 222.23 60.2304 239.957 111.621 242.794C176.216 246.357 215.745 230.208 219.799 224.427C219.948 222.251 218.54 219.691 194.306 219.179C187.586 219.03 188.205 209.217 191.576 208.833C201.431 207.681 219.969 207.681 228.46 213.824C232.748 216.939 234.539 221.526 232.854 226.859C227.798 242.837 182.808 255.999 128.815 255.999Z" fill="#FF80AB"/>
</svg>
