<svg width="257" height="254" viewBox="0 0 257 254" fill="none" xmlns="http://www.w3.org/2000/svg">
<path d="M1.24612 180.534C-1.31809 193.376 13.3407 242.759 89.8184 252.631C129.115 257.696 167.707 243.742 198.263 220.343C228.82 196.945 247.561 166.794 253.992 139.25C263.886 96.8337 252.518 32.7924 168.39 29.0102C82.3609 25.1425 53.4493 115.082 35.4143 141.515C13.7039 173.376 3.57529 168.931 1.24612 180.534Z" fill="url(#paint0_radial_23_989)"/>
<path d="M82.147 67.0708C82.147 67.0708 111.144 81.8149 156.103 78.6951C192.494 76.1736 206.811 58.3098 206.811 58.3098C206.811 58.3098 222.816 62.7117 233.436 59.891C237.688 58.7585 238.607 56.4507 233.414 51.0659C225.572 42.9031 198.648 27.7956 158.945 30.3384C109.264 33.5651 82.147 67.0708 82.147 67.0708Z" fill="#DC0D27"/>
<path d="M48.2775 153.161C53.3205 161.558 68.257 150.725 78.7704 140.19C93.942 124.976 100.844 111.043 104.883 103.97C108.921 96.8974 114.392 81.6617 103.366 79.2043C91.8906 76.6615 88.493 90.8501 82.5953 101.299C76.6975 111.748 68.492 124.185 61.9105 132.284C54.923 140.895 45.2859 148.182 48.2775 153.161Z" fill="#FFEBC9"/>
<path d="M211.361 42.8164C209.908 49.1629 215.742 53.6075 219.78 56.7914C223.819 59.9753 232.922 61.1719 235.956 58.971C238.991 56.7914 235.615 50.3809 237.815 46.5132C239.995 42.6455 243.884 37.923 239.162 34.7178C235.209 32.0253 229.888 31.021 225.016 32.0253C220.144 33.0297 220.122 36.7478 218.114 37.7521C216.062 38.7778 211.853 40.6368 211.361 42.8164Z" fill="#6D4C41"/>
<path d="M206.618 44.7395C201.233 47.09 185.378 59.5906 148.368 62.4326C107.554 65.5737 59.6244 60.7231 51.6326 59.5906C43.6408 58.458 30.0077 57.9238 30.2 54.5049C30.4778 49.3764 35.7772 51.0218 46.4614 47.9447C59.3039 44.2266 72.4241 39.0982 82.4245 33.115C97.767 23.9052 129.008 0.869991 159.757 0.293043C193.434 -0.326643 204.268 10.2721 212.537 19.1187C220.807 27.9652 220.935 37.2391 218.648 40.9572C216.383 44.6754 213.178 41.8975 206.618 44.7395Z" fill="#518E30"/>
<path d="M100.46 42.6878C101.251 43.6707 116.166 44.2263 124.478 43.9485C143.453 43.3288 158.475 38.2859 177.173 36.1917C195.87 34.0976 212.174 36.1917 212.794 35.4652C213.927 34.1404 202.452 18.5414 164.907 22.751C151.082 24.3109 133.303 31.3411 121.038 36.2345C113.217 39.4184 99.7121 41.7476 100.46 42.6878Z" fill="#366918"/>
<defs>
<radialGradient id="paint0_radial_23_989" cx="0" cy="0" r="1" gradientUnits="userSpaceOnUse" gradientTransform="translate(153.804 -142.221) scale(393.1 393.101)">
<stop offset="0.532" stop-color="#F33A1F"/>
<stop offset="0.615" stop-color="#F86922"/>
<stop offset="0.696" stop-color="#FD9124"/>
<stop offset="0.739" stop-color="#FFA025"/>
<stop offset="0.793" stop-color="#FCA025"/>
<stop offset="0.839" stop-color="#F1A124"/>
<stop offset="0.883" stop-color="#DFA222"/>
<stop offset="0.925" stop-color="#C7A41F"/>
<stop offset="0.962" stop-color="#AAA61C"/>
</radialGradient>
</defs>
</svg>
