<svg width="256" height="256" viewBox="0 0 256 256" fill="none" xmlns="http://www.w3.org/2000/svg">
<path d="M238.933 0H17.0667C7.68 0 0 7.68 0 17.0667V238.933C0 248.32 7.68 256 17.0667 256H238.933C248.32 256 256 248.32 256 238.933V17.0667C256 7.68 248.32 0 238.933 0Z" fill="#427687"/>
<path d="M225.493 0H16C7.25333 0 0 7.25333 0 16V224.853C0 233.813 7.25333 240.853 16 240.853H225.28C234.24 240.853 241.28 233.6 241.28 224.853V16C241.707 7.25333 234.24 0 225.493 0Z" fill="#8CAFBF"/>
<path d="M185.6 163.413L134.4 214.613C130.987 218.453 125.014 218.453 121.6 214.613L70.4005 163.413C65.4938 157.867 69.5472 149.333 76.8005 149.333H106.667C109.014 149.333 110.934 147.413 110.934 145.067V46.9332C110.934 42.2399 114.774 38.3999 119.467 38.3999H136.534C141.227 38.3999 145.067 42.2399 145.067 46.9332V145.067C145.067 147.413 146.987 149.333 149.334 149.333H179.2C186.454 149.333 190.507 158.08 185.6 163.413Z" fill="#FAFAFA"/>
<path opacity="0.5" d="M76.1602 18.9874C76.1602 14.0807 72.7468 12.5874 53.1202 13.2274C36.6935 13.8674 28.5868 15.7873 23.6802 21.7607C18.7735 27.734 17.4935 39.894 17.2802 54.4007C17.2802 64.6407 17.2802 74.2407 22.6135 74.2407C29.8668 74.2407 29.8668 57.3873 35.8401 48.0007C47.3602 29.4407 76.1602 25.3874 76.1602 18.9874Z" fill="#B4E1ED"/>
</svg>
