<svg width="256" height="154" viewBox="0 0 256 154" fill="none" xmlns="http://www.w3.org/2000/svg">
<path d="M215.169 81.0829L221.597 21.0957L225.838 21.5501L219.412 81.5394L215.169 81.0829Z" fill="#504F4F"/>
<path d="M80.7253 123.392C106.458 123.392 127.317 102.533 127.317 76.8005C127.317 51.0691 106.458 30.2085 80.7253 30.2085C54.9933 30.2085 34.1333 51.0691 34.1333 76.8005C34.1333 102.533 54.9933 123.392 80.7253 123.392Z" fill="#504F4F"/>
<path d="M80.725 98.1335C92.507 98.1335 102.058 88.5821 102.058 76.8001C102.058 65.0182 92.507 55.4668 80.725 55.4668C68.9429 55.4668 59.3916 65.0182 59.3916 76.8001C59.3916 88.5821 68.9429 98.1335 80.725 98.1335Z" fill="url(#paint0_radial_23_1056)"/>
<path opacity="0.2" d="M80.725 115.2C101.933 115.2 119.125 98.0078 119.125 76.7999C119.125 55.592 101.933 38.3999 80.725 38.3999C59.5172 38.3999 42.325 55.592 42.325 76.7999C42.325 98.0078 59.5172 115.2 80.725 115.2Z" stroke="#EEEEEE" stroke-width="2.13" stroke-miterlimit="10"/>
<path opacity="0.2" d="M80.7248 107.991C97.9502 107.991 111.914 94.027 111.914 76.8016C111.914 59.5762 97.9502 45.6123 80.7248 45.6123C63.4993 45.6123 49.5354 59.5762 49.5354 76.8016C49.5354 94.027 63.4993 107.991 80.7248 107.991Z" stroke="#EEEEEE" stroke-width="2.13" stroke-miterlimit="10"/>
<path d="M183.126 113.386C203.332 113.386 219.713 97.0052 219.713 76.7991C219.713 56.593 203.332 40.2124 183.126 40.2124C162.92 40.2124 146.54 56.593 146.54 76.7991C146.54 97.0052 162.92 113.386 183.126 113.386Z" fill="#504F4F"/>
<path d="M183.125 98.1335C194.907 98.1335 204.458 88.5821 204.458 76.8001C204.458 65.0182 194.907 55.4668 183.125 55.4668C171.343 55.4668 161.792 65.0182 161.792 76.8001C161.792 88.5821 171.343 98.1335 183.125 98.1335Z" fill="url(#paint1_radial_23_1056)"/>
<path opacity="0.2" d="M183.124 105.666C199.065 105.666 211.988 92.7426 211.988 76.8015C211.988 60.8604 199.065 47.9375 183.124 47.9375C167.183 47.9375 154.26 60.8604 154.26 76.8015C154.26 92.7426 167.183 105.666 183.124 105.666Z" stroke="#EEEEEE" stroke-width="2.13" stroke-miterlimit="10"/>
<path d="M0 8.53333V145.067C0 149.781 3.81867 153.6 8.53333 153.6H247.467C252.181 153.6 256 149.781 256 145.067V8.53333C256 3.81867 252.181 0 247.467 0H8.53333C3.81867 0 0 3.81867 0 8.53333ZM76.8 106.667C76.8 109.013 74.88 110.933 72.5333 110.933H34.1333C29.4187 110.933 17.0667 95.6587 17.0667 76.8C17.0667 57.9413 29.4187 42.6667 34.1333 42.6667H72.5333C74.88 42.6667 76.8 44.5867 76.8 46.9333V106.667ZM221.867 110.933H183.467C181.12 110.933 179.2 109.013 179.2 106.667V46.9333C179.2 44.5867 181.12 42.6667 183.467 42.6667H221.867C226.581 42.6667 238.933 57.9413 238.933 76.8C238.933 95.6587 226.581 110.933 221.867 110.933Z" fill="#595858"/>
<path d="M16.7458 21.6543H238.613V25.9211H16.7458V21.6543ZM16.7458 30.1878H238.613V34.4545H16.7458V30.1878ZM17.0658 128.001H238.933V132.268H17.0658V128.001ZM17.0658 136.534H238.933V140.801H17.0658V136.534ZM17.0658 119.468H238.933V123.734H17.0658V119.468Z" fill="#787676"/>
<path opacity="0.2" d="M166.4 42.6666C168.747 42.6666 170.667 44.5866 170.667 46.9332V106.667C170.667 109.013 168.747 110.933 166.4 110.933H89.6C87.2533 110.933 85.3333 109.013 85.3333 106.667V46.9332C85.3333 44.5866 87.2533 42.6666 89.6 42.6666H166.4ZM166.4 38.3999H89.6C84.8853 38.3999 81.0667 42.2186 81.0667 46.9332V106.667C81.0667 111.381 84.8853 115.2 89.6 115.2H166.4C171.115 115.2 174.933 111.381 174.933 106.667V46.9332C174.933 42.2186 171.115 38.3999 166.4 38.3999Z" fill="#424242"/>
<path d="M170.667 46.9332C170.667 44.5865 168.747 42.6665 166.4 42.6665H89.6C87.2534 42.6665 85.3334 44.5865 85.3334 46.9332V59.7332H170.667V46.9332Z" fill="url(#paint2_radial_23_1056)"/>
<path d="M85.3334 59.7334V106.667C85.3334 109.013 87.2534 110.933 89.6 110.933H166.4C168.747 110.933 170.667 109.013 170.667 106.667V59.7334H85.3334Z" fill="url(#paint3_radial_23_1056)"/>
<path d="M155.733 81.0665H100.267C99.0933 81.0665 98.1333 80.1065 98.1333 78.9332V74.6665C98.1333 73.4932 99.0933 72.5332 100.267 72.5332H155.733C156.907 72.5332 157.867 73.4932 157.867 74.6665V78.9332C157.867 80.1065 156.907 81.0665 155.733 81.0665ZM155.733 98.1332H100.267C99.0933 98.1332 98.1333 97.1732 98.1333 95.9999V91.7332C98.1333 90.5599 99.0933 89.5999 100.267 89.5999H155.733C156.907 89.5999 157.867 90.5599 157.867 91.7332V95.9999C157.867 97.1732 156.907 98.1332 155.733 98.1332Z" fill="#BDBDBD"/>
<path d="M128 0H8.29867C3.712 0 0 3.712 0 8.29867V34.4533H10.0907L10.2187 17.3867H246.037L245.909 34.4533H256V8.27733C256 3.712 252.288 0 247.723 0H128Z" fill="#424242"/>
<defs>
<radialGradient id="paint0_radial_23_1056" cx="0" cy="0" r="1" gradientUnits="userSpaceOnUse" gradientTransform="translate(80.7165 52.9776) rotate(180) scale(45.6789)">
<stop stop-color="#EEEEEE"/>
<stop offset="1" stop-color="#BDBDBD"/>
</radialGradient>
<radialGradient id="paint1_radial_23_1056" cx="0" cy="0" r="1" gradientUnits="userSpaceOnUse" gradientTransform="translate(183.826 54.0443) rotate(180) scale(44.8128)">
<stop stop-color="#EEEEEE"/>
<stop offset="1" stop-color="#BDBDBD"/>
</radialGradient>
<radialGradient id="paint2_radial_23_1056" cx="0" cy="0" r="1" gradientUnits="userSpaceOnUse" gradientTransform="translate(126.933 43.7332) scale(46.6005 46.6005)">
<stop stop-color="#EF5350"/>
<stop offset="1" stop-color="#E53935"/>
</radialGradient>
<radialGradient id="paint3_radial_23_1056" cx="0" cy="0" r="1" gradientUnits="userSpaceOnUse" gradientTransform="translate(126.577 57.9559) scale(60.5952)">
<stop stop-color="#FAFAFA"/>
<stop offset="1" stop-color="#EEEEEE"/>
</radialGradient>
</defs>
</svg>
