<svg width="257" height="256" viewBox="0 0 257 256" fill="none" xmlns="http://www.w3.org/2000/svg">
<path d="M128.982 256C199.675 256 256.982 198.693 256.982 128C256.982 57.3076 199.675 0 128.982 0C58.29 0 0.982422 57.3076 0.982422 128C0.982422 198.693 58.29 256 128.982 256Z" fill="#F2A600"/>
<path d="M120.662 245.76C186.76 245.76 240.342 192.177 240.342 126.08C240.342 59.9825 186.76 6.3999 120.662 6.3999C54.565 6.3999 0.982422 59.9825 0.982422 126.08C0.982422 192.177 54.565 245.76 120.662 245.76Z" fill="#FFCC32"/>
<path d="M43.6498 54.8283C53.2498 39.6816 73.7298 27.095 95.0631 23.255C100.396 22.4016 105.73 21.975 110.21 23.6816C113.623 24.9616 116.396 28.1616 114.476 31.7883C112.983 34.775 108.93 36.055 105.73 37.1216C85.7173 43.7253 68.4611 56.7802 56.6631 74.2417C52.3965 80.6416 45.9965 98.3483 38.1031 93.8682C29.7831 88.9616 31.4898 73.6017 43.6498 54.8283Z" fill="#FFF170"/>
</svg>
