<svg width="257" height="256" viewBox="0 0 257 256" fill="none" xmlns="http://www.w3.org/2000/svg">
<path d="M127.953 244.354C67.1612 244.354 1.57544 206.223 1.57544 122.552C1.57544 38.8812 67.1612 0.75 127.953 0.75C161.726 0.75 192.885 11.8625 215.982 32.1266C241.039 54.3516 254.331 85.7282 254.331 122.552C254.331 159.376 241.039 190.535 215.982 212.76C192.885 233.024 161.509 244.354 127.953 244.354Z" fill="url(#paint0_radial_23_1245)"/>
<path d="M232.303 50.146C243.917 68.8848 249.974 91.1972 249.974 116.015C249.974 152.839 236.683 183.998 211.625 206.223C188.528 226.487 157.152 237.817 123.596 237.817C84.2447 237.817 42.9757 221.802 18.6152 187.833C42.0605 226.313 86.1622 244.354 127.954 244.354C161.51 244.354 192.886 233.024 215.983 212.76C241.04 190.535 254.332 159.376 254.332 122.552C254.332 94.7924 246.771 70.1268 232.303 50.146Z" fill="#EB8F00"/>
<path d="M127.953 244.354C67.1612 244.354 1.57544 206.223 1.57544 122.552C1.57544 38.8812 67.1612 0.75 127.953 0.75C161.726 0.75 192.885 11.8625 215.982 32.1266C241.039 54.3516 254.331 85.7282 254.331 122.552C254.331 159.376 241.039 190.535 215.982 212.76C192.885 233.024 161.509 244.354 127.953 244.354Z" fill="url(#paint1_linear_23_1245)"/>
<path d="M127.953 244.354C67.1612 244.354 1.57544 206.223 1.57544 122.552C1.57544 38.8812 67.1612 0.75 127.953 0.75C161.726 0.75 192.885 11.8625 215.982 32.1266C241.039 54.3516 254.331 85.7282 254.331 122.552C254.331 159.376 241.039 190.535 215.982 212.76C192.885 233.024 161.509 244.354 127.953 244.354Z" fill="url(#paint2_linear_23_1245)"/>
<path d="M232.303 50.146C243.917 68.8848 249.974 91.1972 249.974 116.015C249.974 152.839 236.683 183.998 211.625 206.223C188.528 226.487 157.152 237.817 123.596 237.817C84.2447 237.817 42.9757 221.802 18.6152 187.833C42.0605 226.313 86.1622 244.354 127.954 244.354C161.51 244.354 192.886 233.024 215.983 212.76C241.04 190.535 254.332 159.376 254.332 122.552C254.332 94.7924 246.771 70.1268 232.303 50.146Z" fill="#EB8F00"/>
<path d="M128.826 224.59C115.709 224.503 105.098 213.892 105.01 200.775V173.32C105.01 160.159 115.665 149.504 128.826 149.504C141.987 149.504 152.642 160.159 152.642 173.32V200.796C152.555 213.914 141.943 224.503 128.826 224.59Z" fill="#422B0D"/>
<path d="M83.699 76.6211C88.144 76.6211 92.5019 77.9067 96.2496 80.3035C108.539 88.0823 113.681 106.451 103.767 125.429C96.9251 138.503 86.6405 144.538 76.9007 144.538C72.4515 144.534 68.0967 143.256 64.3501 140.856C52.061 133.077 46.9187 114.709 56.8328 95.7303C63.6746 82.6567 73.9374 76.6211 83.699 76.6211Z" fill="white"/>
<path opacity="0.66" d="M248.536 144.56C245.551 142.381 245.921 139.963 237.641 143.297C234.22 144.691 230.298 152.535 230.298 152.535C230.298 152.535 224.393 140.725 212.714 156.435C191.491 184.936 182.209 183.629 169.724 196.702C161.684 205.069 154.733 213.044 157.413 228.885C158.916 237.731 163.122 240.15 163.122 240.15C163.122 240.15 165.693 240.15 190.925 227.076C216.157 214.003 238.186 195.504 250.301 165.87" fill="url(#paint3_linear_23_1245)"/>
<path d="M180.553 202.344C190.031 195.154 199.182 188.552 203.497 182.865C207.811 177.178 212.452 165.259 215.241 157.458C218.03 149.658 226.136 145.845 230.494 152.512C231.627 154.299 230.733 161.228 230.494 163.886C232.869 159.942 234.546 155.606 235.462 151.096C237.64 140.463 248.753 137.02 250.714 151.314C250.714 151.314 258.972 151.641 255.312 177.265C253.481 187.244 250.191 196.919 245.506 205.918C233.762 228.056 224.567 238.318 212.67 246.467C194.062 259.192 176.434 256.164 170.922 248.93C161.509 236.488 164.036 214.873 180.553 202.344Z" fill="url(#paint4_radial_23_1245)"/>
<path d="M230.407 152.514C230.407 156.763 226.31 171.558 224.763 175.35C219.425 189.404 209.685 195.94 212.409 198.163C215.133 200.385 220.34 195.657 227.857 177.812C230.167 171.733 231.518 165.348 231.823 158.855C231.801 156.654 231.322 154.497 230.407 152.514ZM244.744 141.75C247.511 142.949 251.63 150.837 245.463 172.931C241.65 189.622 228.969 202.608 232.019 204.068C235.614 206.486 243.829 192.868 249.647 173.999C251.172 168.29 252.131 162.45 252.458 156.567C252.545 153.604 251.542 142.557 244.744 141.75Z" fill="#ED6C30"/>
<path opacity="0.66" d="M7.95975 144.56C10.9449 142.381 10.5745 139.963 18.8544 143.297C22.2753 144.691 26.1974 152.535 26.1974 152.535C26.1974 152.535 32.1023 140.725 43.7813 156.435C65.0041 184.936 74.2863 183.629 86.7717 196.702C94.7901 205.069 101.741 213.044 99.0608 228.885C97.5792 237.731 93.3738 240.15 93.3738 240.15C93.3738 240.15 89.1903 240.15 69.1223 229.909C67.4009 229.037 67.5534 228.144 65.5706 227.098C40.3386 214.025 18.3097 195.525 6.19482 165.892" fill="url(#paint5_linear_23_1245)"/>
<path d="M75.9425 202.344C66.4642 195.154 57.3127 188.552 52.9984 182.865C48.6842 177.178 44.0429 165.259 41.2322 157.458C38.4214 149.658 30.3376 145.845 26.0887 152.512C24.9556 154.299 25.849 161.228 26.0887 163.886C23.6918 159.942 21.9705 155.606 21.0336 151.096C18.8546 140.463 7.74209 137.02 5.78106 151.314C5.78106 151.314 -2.47712 151.641 1.18352 177.265C3.01382 187.244 6.304 196.919 10.9887 205.918C22.7113 228.056 31.9282 238.318 43.8251 246.467C62.4113 259.192 80.0388 256.164 85.5733 248.93C94.9209 236.488 92.4587 214.873 75.9425 202.344Z" fill="url(#paint6_radial_23_1245)"/>
<path d="M26.0887 152.514C26.0887 156.763 30.1851 171.558 31.7321 175.35C37.0705 189.404 46.7885 195.94 44.0866 198.163C41.3848 200.385 36.1335 195.657 28.6162 177.812C26.3079 171.741 24.9767 165.343 24.6724 158.855C24.6724 156.654 25.1517 154.497 26.0887 152.514ZM11.7295 141.75C8.98409 142.949 4.86591 150.837 11.0323 172.887C14.8454 189.578 27.5268 202.564 24.4763 204.024C20.881 206.443 12.6665 192.825 6.84874 173.955C5.32349 168.246 4.36476 162.407 4.03792 156.524C3.95076 153.604 4.95307 142.557 11.7295 141.75Z" fill="#ED6C30"/>
<path d="M104.051 125.579C102.442 131.263 99.447 136.459 95.3349 140.701C90.8925 145.292 85.0381 148.261 78.7097 149.133C71.933 149.983 65.0694 148.218 59.5349 144.231C54.0876 140.265 49.9912 134.687 47.8341 128.303C47.3329 126.756 46.9189 125.165 46.6139 123.553C46.3306 121.962 46.1345 120.35 46.0256 118.737L45.873 116.231L45.982 113.835C46.0474 112.244 46.2217 110.675 46.5267 109.106C47.7251 103.092 50.1002 97.3619 53.4993 92.2632C56.7927 87.0616 61.2733 82.7151 66.5729 79.5818C71.7369 76.4659 77.8599 75.3329 83.8084 76.3788V77.0107C78.2957 77.1196 72.9353 78.9935 68.5557 82.3491C64.1978 85.6828 60.6026 89.9317 58.0097 94.7689C55.2927 99.5155 53.4479 104.711 52.5624 110.109C51.7344 115.512 52.1919 121.025 53.9133 126.211C55.5693 131.397 58.7723 135.972 63.1084 139.284C67.4444 142.662 72.87 144.34 78.361 143.991C83.8084 143.599 89.016 141.507 93.2213 138.021C97.4702 134.513 100.957 130.198 103.484 125.296L104.051 125.579Z" fill="#EB8F00"/>
<path d="M174.169 76.6211C183.93 76.6211 194.193 82.7221 201.035 95.7303C210.992 114.622 205.807 133.077 193.517 140.856C189.77 143.275 185.412 144.56 180.967 144.56C171.227 144.56 160.942 138.459 154.101 125.451C144.078 106.538 149.329 88.0823 161.618 80.3035C165.365 77.904 169.719 76.6263 174.169 76.6211Z" fill="white"/>
<path d="M174.169 76.2938C180.118 75.2479 186.24 76.381 191.404 79.4969C196.704 82.6302 201.184 86.9767 204.478 92.1782C207.899 97.3423 210.274 103.116 211.451 109.196C211.734 110.764 211.93 112.333 211.995 113.924V118.739C211.865 121.986 211.254 125.211 210.209 128.305C208.051 134.689 203.977 140.245 198.508 144.211C192.977 148.215 186.13 149.968 179.355 149.114C172.971 148.264 167.066 145.3 162.599 140.681C158.476 136.457 155.479 131.265 153.883 125.581L154.45 125.276C156.956 130.157 160.42 134.493 164.647 138.023C168.874 141.531 174.082 143.623 179.551 144.015C185.042 144.364 190.468 142.686 194.804 139.308C199.118 135.975 202.321 131.421 203.977 126.235C205.698 121.049 206.156 115.536 205.328 110.133C204.478 104.729 202.67 99.4994 199.968 94.7276C197.376 89.8842 193.78 85.6501 189.422 82.3077C185.042 78.9521 179.682 77.0782 174.169 76.9693V76.2938Z" fill="#EB8F00"/>
<defs>
<radialGradient id="paint0_radial_23_1245" cx="0" cy="0" r="1" gradientUnits="userSpaceOnUse" gradientTransform="translate(127.953 122.552) scale(124.112 124.112)">
<stop offset="0.5" stop-color="#FDE030"/>
<stop offset="0.92" stop-color="#F7C02B"/>
<stop offset="1" stop-color="#F4A223"/>
</radialGradient>
<linearGradient id="paint1_linear_23_1245" x1="127.953" y1="244.354" x2="127.953" y2="0.75" gradientUnits="userSpaceOnUse">
<stop offset="0.39" stop-color="#40C0E7" stop-opacity="0"/>
<stop offset="1" stop-color="#5F7AFF"/>
</linearGradient>
<linearGradient id="paint2_linear_23_1245" x1="127.953" y1="244.354" x2="127.953" y2="0.75" gradientUnits="userSpaceOnUse">
<stop offset="0.16" stop-color="#F4A223"/>
<stop offset="0.33" stop-color="#F7C02B"/>
<stop offset="0.81" stop-color="#FDE030" stop-opacity="0"/>
</linearGradient>
<linearGradient id="paint3_linear_23_1245" x1="203.564" y1="264.009" x2="203.564" y2="155.716" gradientUnits="userSpaceOnUse">
<stop stop-color="#ED6C30"/>
<stop offset="1" stop-color="#ED6C30" stop-opacity="0.2"/>
</linearGradient>
<radialGradient id="paint4_radial_23_1245" cx="0" cy="0" r="1" gradientUnits="userSpaceOnUse" gradientTransform="translate(188.747 190.93) rotate(141.52) scale(97.3946 89.7623)">
<stop offset="0.27" stop-color="#FFF176"/>
<stop offset="1" stop-color="#FFC400"/>
</radialGradient>
<linearGradient id="paint5_linear_23_1245" x1="52.9198" y1="264.009" x2="52.9198" y2="155.716" gradientUnits="userSpaceOnUse">
<stop stop-color="#ED6C30"/>
<stop offset="1" stop-color="#ED6C30" stop-opacity="0.2"/>
</linearGradient>
<radialGradient id="paint6_radial_23_1245" cx="0" cy="0" r="1" gradientUnits="userSpaceOnUse" gradientTransform="translate(67.6394 190.766) rotate(38.4802) scale(97.3946 89.7623)">
<stop offset="0.27" stop-color="#FFF176"/>
<stop offset="1" stop-color="#FFC400"/>
</radialGradient>
</defs>
</svg>
