<svg width="226" height="257" viewBox="0 0 226 257" fill="none" xmlns="http://www.w3.org/2000/svg">
<path d="M56.0543 125.008L55.2671 122.156C55.1182 121.646 54.6288 121.305 54.0969 121.39C46.4158 122.433 28.3516 125.029 26.7345 126.497C25.8196 127.327 25.5004 128.412 25.8196 129.476C26.1813 130.667 27.3303 131.625 28.6069 131.795C29.3729 131.923 30.3729 131.965 31.224 132.008C31.1389 132.433 31.1601 132.838 31.2665 133.242C31.5006 134.05 32.1176 134.625 32.9261 134.795C33.2878 134.88 33.6708 134.901 34.0964 134.901C40.4157 134.901 53.9479 127.157 55.5437 126.22C55.9905 125.965 56.182 125.476 56.0543 125.008Z" fill="#91674D"/>
<path d="M79.8833 84.4541L66.5851 109.582C66.5638 109.582 66.5638 109.604 66.5426 109.604L43.6909 121.753C39.7759 123.625 43.6696 133.732 47.6484 133.732C47.9888 133.732 48.3293 133.647 48.6697 133.498L74.7768 123.029L74.7555 122.987C76.3726 122.264 77.6705 121.072 78.5003 119.604L78.5641 119.646L93.7134 91.7947L79.8833 84.4541Z" fill="url(#paint0_linear_23_1350)"/>
<path d="M54.1394 122.115C51.4585 118.966 49.4371 119.136 46.6498 119.753C46.0115 119.902 45.3519 120.072 44.6285 120.263C42.5859 120.795 40.0327 121.455 35.9262 121.944C30.458 122.583 23.7982 122.327 23.7344 122.327C23.628 122.306 23.5216 122.327 23.4152 122.349C22.2237 122.647 21.3301 123.476 21.0109 124.54C20.713 125.54 20.9684 126.583 21.6918 127.349C23.7344 129.519 31.1814 129.923 35.6921 129.647C36.9688 129.562 39.2029 129.476 40.9901 129.413C41.2455 129.349 41.437 129.604 41.4795 129.711C41.5221 129.817 41.5859 130.03 41.4157 130.242C40.5859 131.2 39.522 132.072 38.2667 132.796C36.6709 133.711 35.9049 134.711 35.9687 135.838C36.0113 136.966 36.9049 137.923 38.5007 138.647C38.9688 138.86 39.5007 138.945 40.0965 138.945C43.82 138.945 49.5223 135.285 51.4585 133.391C53.8628 131.008 56.799 125.221 54.1394 122.115Z" fill="url(#paint1_linear_23_1350)"/>
<path d="M94.1815 76.1318L91.9048 74.9828C90.3737 74.1854 88.6733 73.7694 86.9473 73.77C82.9259 73.77 79.0534 75.9828 77.1172 79.8126L66.6702 100.43L88.5643 111.537L99.0114 90.9193C101.756 85.4936 99.5859 78.8764 94.1815 76.1318Z" fill="#ED6D23"/>
<path d="M158.823 169.134L127.652 123.048L104.63 139.857L141.652 186.922H141.674C143.695 189.688 146.674 191.326 149.823 191.752L149.801 191.879L206.845 199.028L210.314 180.411L158.823 169.134Z" fill="#91674D"/>
<path d="M194.183 176.86L190.439 196.945L206.822 198.988L210.29 180.371L194.183 176.86Z" fill="#BDBDBD"/>
<path d="M104.501 19.2793C98.7352 10.9174 86.3307 4.78961 76.3943 6.93859C65.2663 9.32163 59.6279 17.7048 58.5428 28.0242C58.1385 31.769 58.4364 35.4499 59.2024 38.0457C59.2875 38.3649 60.0322 40.599 60.096 41.3224C60.6492 44.0671 55.4363 47.0672 54.9682 50.1524C54.6065 52.4716 59.4577 53.6844 59.862 54.0887C61.8407 56.0462 59.3513 66.0038 72.5218 66.323C77.5858 66.4507 76.5858 66.1953 78.0964 66.6847C80.4582 67.4507 83.437 74.3445 83.437 74.3445C83.437 74.3445 82.3306 83.7279 90.884 80.6215C100.629 77.0679 102.82 68.2379 102.82 68.2379C102.82 68.2379 96.5224 60.4505 101.948 50.0035C106.267 41.6416 108.204 24.6624 104.501 19.2793Z" fill="#BA8D68"/>
<path d="M61.4791 59.4953C63.3089 59.5166 65.0749 58.9847 66.5643 57.7719C68.1813 56.4527 66.9685 55.1122 65.0749 56.0271C63.9472 56.5803 62.3089 56.8995 60.7981 56.708L61.4791 59.4953Z" fill="#5D4037"/>
<path d="M68.6073 46.1644C69.9308 46.0577 70.8712 44.319 70.7061 42.2809C70.5419 40.2429 69.3359 38.6772 68.0124 38.784C66.689 38.8907 65.7494 40.6294 65.9137 42.6675C66.0779 44.7055 67.2839 46.2712 68.6073 46.1644Z" fill="#49362E"/>
<path d="M66.1809 37.0885C63.8404 37.7694 63.2872 36.2162 64.0745 34.9608C64.649 34.0459 66.0745 33.2799 68.8193 33.8331C71.3938 34.3651 72.4577 35.8545 73.1598 36.7481C73.8407 37.663 73.7556 38.5566 73.1598 38.6418C72.3513 38.7694 69.0959 36.2587 66.1809 37.0885Z" fill="#613E31"/>
<path d="M111.948 19.3253C108.799 12.4315 102.991 10.5804 101.097 10.1549C100.097 7.64417 95.2246 -1.80283 79.3732 1.62279C75.522 2.45264 72.7773 4.45269 70.3304 6.19741C69.2878 6.96338 68.3091 7.66553 67.3729 8.17618C66.6069 8.58045 65.2665 8.98471 64.1175 8.66555C61.5004 7.94213 62.1174 4.00587 62.1174 4.00587C62.1174 4.00587 52.7767 6.32507 57.2875 15.2614C54.2023 16.8147 52.8831 20.2616 52.4788 23.4319C51.9256 27.7937 54.2235 31.7724 58.4577 33.432C58.4577 33.432 57.2875 26.5383 67.3091 26.4532C70.4155 26.4319 73.6922 26.751 76.5008 25.4531C77.5859 24.9637 78.5646 24.2191 79.6072 23.6234C79.8625 23.6021 79.9902 23.6021 79.9902 23.6021C83.8839 25.4532 79.3306 34.6236 83.7988 39.645C84.6925 40.645 85.352 40.2195 85.352 40.2195L86.9265 37.6663C88.1181 35.9003 89.2245 34.3682 90.8203 34.6448C95.5863 35.4533 95.1395 43.9004 89.65 46.0282C89.0968 46.2409 90.8628 55.5603 102.438 54.9858C108.416 54.6879 110.289 49.624 110.289 49.624C110.289 49.624 107.757 50.39 107.097 48.241C106.757 47.1346 107.714 45.5601 109.502 43.7941C114.651 38.7088 112.438 33.3044 111.565 31.6235C112.395 29.9851 114.417 24.7297 111.948 19.3253Z" fill="#543930"/>
<path d="M111.651 31.6207C111.736 31.4292 110.183 35.9612 102.502 35.6207C99.3527 35.7697 95.3526 43.5784 100.204 48.3657C104.502 52.5999 110.374 49.6211 110.374 49.6211C110.374 49.6211 109.566 49.8977 108.332 49.536C107.523 49.3019 107.204 48.2806 107.183 48.2381C106.842 47.1317 107.8 45.5572 109.587 43.7912C114.736 38.7059 112.523 33.2803 111.651 31.6207Z" fill="url(#paint2_radial_23_1350)"/>
<path d="M111.948 19.3252C110.289 15.6868 107.438 12.708 103.778 11.0697C103.246 10.8357 101.948 10.2824 101.076 10.1548C101.586 11.7718 101.608 13.5378 101.012 15.389C100.991 15.4528 100.31 18.1975 98.1182 20.4529C99.9267 22.7083 100.905 25.4956 101.842 28.219C102.65 30.6021 103.459 33.2404 102.501 35.5809C103.969 35.4107 106.31 35.7086 108.821 34.432C111.225 33.1979 112.374 30.3042 112.863 27.7297C113.395 24.9211 113.14 21.9636 111.948 19.3252Z" fill="url(#paint3_radial_23_1350)"/>
<path d="M100.991 15.4092C102.608 10.5793 99.7779 6.32385 95.6927 3.60038C90.9054 0.408814 84.7988 0.451369 79.3732 1.62161C75.522 2.45142 72.7773 4.45147 70.3304 6.19619C69.2878 6.96216 68.3091 7.66431 67.3729 8.17496C66.6069 8.57922 65.2665 8.98349 64.1175 8.66433C61.5004 7.94091 62.1174 4.00465 62.1174 4.00465C62.1174 4.00465 52.7767 6.32385 57.2875 15.2602C54.2023 16.8135 52.8831 20.2604 52.4788 23.4306C51.9256 27.7925 54.2235 31.7713 58.4577 33.4309C58.4577 33.4309 57.2875 26.5371 67.3091 26.452C70.4155 26.4307 73.6922 26.7499 76.5008 25.452C78.9902 24.303 79.7987 22.8774 82.6498 22.8987C85.735 22.92 89.8841 23.8987 93.0331 23.2392C99.4162 21.9412 100.969 15.4943 100.991 15.4092Z" fill="url(#paint4_radial_23_1350)"/>
<path d="M100.183 48.3454C98.013 46.2603 97.2896 42.6644 93.9703 40.8984C93.481 43.0261 92.0554 45.09 89.7149 46.0049C89.1617 46.2177 90.9277 55.5371 102.502 54.9626C108.481 54.6647 110.354 49.6008 110.354 49.6008C110.354 49.6008 104.545 52.537 100.183 48.3454Z" fill="url(#paint5_radial_23_1350)"/>
<path d="M104.843 124.241L77.9271 169.157C73.7959 176.05 72.0393 184.107 72.9269 192.093L78.7569 244.818L94.9487 244.861L96.7786 186.285L128.907 139.539L104.843 124.241Z" fill="url(#paint6_linear_23_1350)"/>
<path d="M76.4795 223.628L78.1178 241.565L94.9267 241.607L95.7566 223.67L76.4795 223.628Z" fill="#E0E0E0"/>
<path d="M129.673 121.199C128.097 119.045 126.035 117.294 123.653 116.088C121.272 114.883 118.64 114.258 115.971 114.263C112.503 114.263 109.013 115.327 105.992 117.518C98.4384 123.029 96.7787 133.646 102.29 141.2L121.375 166.009L147.482 146.944L129.673 121.199Z" fill="#646464"/>
<path d="M126.163 117.325C123.437 115.604 120.28 114.69 117.056 114.687C111.46 114.687 105.971 117.474 102.737 122.538L86.6299 149.368L113.907 166.709L131.376 140.73C136.397 132.836 134.057 122.346 126.163 117.325Z" fill="#7C7C7C"/>
<path d="M133.822 123.942C129.673 107.197 122.396 90.452 114.907 73.7069C112.396 67.3876 105.928 63.6216 99.5021 63.6216C97.6723 63.6216 95.8637 63.9195 94.1403 64.5578C83.5656 68.4728 78.1186 78.1964 81.4379 89.8775C86.3316 107.155 88.7572 117.41 90.5657 134.411C90.7998 136.602 92.7147 138.177 94.885 138.177C95.268 138.177 95.651 138.134 96.0552 138.028C107.098 135.091 119.545 132.006 130.779 129.027C132.992 128.432 134.375 126.176 133.822 123.942Z" fill="url(#paint7_radial_23_1350)"/>
<path d="M181.567 120.815C180.886 119.113 179.864 117.432 178.567 115.283C177.566 113.644 170.077 105.112 166.97 103.623C165.098 100.474 154.779 87.6438 150.162 81.9416C149.076 80.6011 147.63 79.6011 145.97 79.0479L115.586 69.4731C115.452 69.4304 115.311 69.4146 115.171 69.4269C115.031 69.4391 114.894 69.479 114.769 69.5443C114.645 69.6096 114.534 69.699 114.444 69.8073C114.355 69.9156 114.287 70.0407 114.246 70.1752L109.607 85.2395C109.527 85.5076 109.556 85.7961 109.687 86.0429C109.819 86.2898 110.042 86.4753 110.31 86.5587L138.076 95.1334C142.566 99.4526 153.353 109.857 154.843 111.304C155.587 113.793 155.417 116.942 155.289 119.73C155.14 122.751 155.013 125.134 155.991 126.453C156.928 127.709 157.992 127.772 158.545 127.709C160.013 127.517 161.077 126.134 161.545 124.985C162.162 123.496 162.141 121.964 162.119 120.836V120.198C163.438 121.091 163.928 124.56 164.311 127.368C164.821 130.985 165.247 134.113 167.439 134.496C167.545 134.517 167.651 134.517 167.758 134.517C168.205 134.517 168.609 134.347 168.949 134.028C170.034 133.007 170.119 130.326 170.034 128.389C170.183 129.049 170.226 129.709 170.268 130.368C170.396 132.007 170.566 134.219 172.886 134.305C173.588 134.326 174.056 134.07 174.439 133.581C175.098 132.773 175.226 131.39 175.141 129.985C175.694 131.092 176.354 131.73 177.396 131.39C177.779 131.262 178.332 130.943 178.694 130.134C179.035 129.39 179.162 128.368 179.12 127.304C179.247 127.432 179.375 127.538 179.545 127.602C179.801 127.709 180.184 127.73 180.439 127.645C180.864 127.496 181.439 127.155 181.822 126.304C182.481 124.964 182.354 122.857 181.567 120.815Z" fill="url(#paint8_linear_23_1350)"/>
<path d="M108.65 64.0064C107.65 63.7085 106.607 63.5596 105.607 63.5596C100.82 63.5596 96.437 66.6873 95.0327 71.5172L94.2667 74.1343C92.5858 79.9642 95.9476 86.0707 101.778 87.7516L124.204 94.2199L131.055 70.4533L108.65 64.0064Z" fill="#ED6D23"/>
<path d="M95.0966 239.798H78.2239L66.564 244.202C63.2874 245.479 61.1383 248.585 61.0957 252.053L61.0745 254.756C61.0745 255.926 62.032 256.883 63.2235 256.883L96.7563 256.841C98.118 256.841 99.2244 255.756 99.2244 254.394V248.436C99.2457 244.415 95.0966 239.798 95.0966 239.798Z" fill="#4568AD"/>
<path d="M223.462 179.39L217.611 178.305C217.164 178.22 216.739 178.198 216.292 178.198C212.547 178.198 208.292 180.794 208.292 180.794L205.185 197.39L207.377 209.646C208.015 213.093 210.675 215.795 214.1 216.454L216.739 216.965C216.866 216.986 217.015 217.008 217.143 217.008C218.143 217.008 219.058 216.284 219.249 215.242L225.399 182.262C225.654 180.922 224.782 179.645 223.462 179.39Z" fill="#325599"/>
<path d="M51.2454 165.627C51.2454 179.116 39.9685 190.074 26.0746 190.074C12.1806 190.074 0.925049 179.116 0.925049 165.627C0.925049 152.137 12.2019 141.179 26.0746 141.179C39.9898 141.179 51.2454 152.116 51.2454 165.627Z" fill="url(#paint9_radial_23_1350)"/>
<path d="M26.7343 190.052C26.5216 190.074 26.2875 190.074 26.0747 190.074C23.6066 190.074 21.2023 189.712 18.9682 189.074H18.9469C15.9043 184.861 10.2446 175.244 10.585 162.392C10.6063 161.413 10.6701 160.392 10.7765 159.371C10.8829 158.052 11.0957 156.732 11.351 155.371C11.4999 154.562 11.6914 153.754 11.9042 152.924L11.968 152.732C12.2021 151.754 12.5212 150.86 12.8829 150.051H12.9042C13.2021 149.307 13.5212 148.647 13.883 148.03H13.9042C15.6064 145.03 17.8405 143.158 19.5214 142.051C21.5002 141.519 23.5853 141.221 25.713 141.2C23.564 141.987 19.7554 143.839 17.1171 147.966C16.6703 148.626 16.266 149.371 15.9468 150.158H15.9256C15.6064 150.86 15.3298 151.647 15.0745 152.477C14.807 153.339 14.6077 154.222 14.4787 155.115C14.2659 156.456 14.117 157.732 14.0532 159.009C13.9893 160.03 13.9893 161.052 14.0532 162.052C14.5638 175.456 22.8406 185.861 26.7343 190.052Z" fill="url(#paint10_radial_23_1350)"/>
<path d="M38.7119 144.499C31.3925 144.392 25.3498 149.648 15.9666 150.137H15.9454C15.4773 150.158 15.0304 150.18 14.5411 150.18C13.924 150.18 13.4134 150.137 12.924 150.031H12.9027C10.5835 149.605 9.81754 148.201 9.5835 147.18C10.2218 146.626 10.9027 146.116 11.5835 145.648C11.5197 146.584 11.9027 147.648 13.9027 148.009H13.924C14.3708 148.073 14.8815 148.095 15.4985 148.095C16.0092 148.095 16.5624 148.031 17.1369 147.946C22.52 147.18 29.7967 143.477 32.0096 142.775C32.6479 142.584 33.3287 142.456 33.9458 142.414C35.6267 142.946 37.2225 143.626 38.7119 144.499Z" fill="url(#paint11_radial_23_1350)"/>
<path d="M45.8413 180.753C44.7136 182.157 43.4157 183.433 41.9689 184.604C40.0114 181.093 36.2241 175.455 29.1388 168.88C25.1387 165.156 19.7343 162.135 14.0746 162.029C13.4363 161.986 12.7767 162.007 12.1384 162.071C11.5852 162.114 11.0745 162.22 10.5851 162.39C4.94671 164.071 3.67009 171.561 3.43604 176.242C2.35091 174.072 1.56365 171.731 1.18066 169.263C2.5424 165.646 5.35098 160.646 10.7766 159.369C11.2235 159.263 11.6703 159.178 12.1597 159.135C12.798 159.071 13.4576 159.029 14.0746 159.007C21.479 158.858 26.926 162.497 32.1389 166.305C39.2241 171.412 43.7136 177.518 45.8413 180.753Z" fill="url(#paint12_radial_23_1350)"/>
<path d="M51.2452 165.305V165.624C51.2452 167.539 51.0325 169.369 50.5856 171.156C43.9046 164.964 30.3086 154.56 14.4997 155.092C13.4537 155.129 12.41 155.214 11.3719 155.347C6.58458 156.007 3.56323 157.836 1.7334 159.496C2.11639 158.028 2.64832 156.624 3.28663 155.283C5.30795 154.219 8.15908 153.155 11.989 152.709C12.3932 152.645 12.7975 152.624 13.2018 152.581L15.0954 152.453C32.6703 151.645 45.9898 160.943 51.2452 165.305Z" fill="url(#paint13_radial_23_1350)"/>
<defs>
<linearGradient id="paint0_linear_23_1350" x1="45.3483" y1="128.364" x2="77.1147" y2="104.019" gradientUnits="userSpaceOnUse">
<stop stop-color="#BA8D68"/>
<stop offset="1" stop-color="#A47B62"/>
</linearGradient>
<linearGradient id="paint1_linear_23_1350" x1="57.2841" y1="128.357" x2="27.5962" y2="130.238" gradientUnits="userSpaceOnUse">
<stop stop-color="#BA8D68"/>
<stop offset="1" stop-color="#A47B62"/>
</linearGradient>
<radialGradient id="paint2_radial_23_1350" cx="0" cy="0" r="1" gradientUnits="userSpaceOnUse" gradientTransform="translate(97.7391 43.3752) rotate(17.4511) scale(15.154 21.8225)">
<stop offset="0.45" stop-color="#6D4C41" stop-opacity="0"/>
<stop offset="1" stop-color="#6D4C41"/>
</radialGradient>
<radialGradient id="paint3_radial_23_1350" cx="0" cy="0" r="1" gradientUnits="userSpaceOnUse" gradientTransform="translate(98.7667 28.0327) rotate(-10.5334) scale(15.3592 19.3823)">
<stop offset="0.45" stop-color="#6D4C41" stop-opacity="0"/>
<stop offset="1" stop-color="#6D4C41"/>
</radialGradient>
<radialGradient id="paint4_radial_23_1350" cx="0" cy="0" r="1" gradientUnits="userSpaceOnUse" gradientTransform="translate(81.4039 23.581) rotate(-11.6302) scale(31.6145 23.7622)">
<stop offset="0.45" stop-color="#6D4C41" stop-opacity="0"/>
<stop offset="1" stop-color="#6D4C41"/>
</radialGradient>
<radialGradient id="paint5_radial_23_1350" cx="0" cy="0" r="1" gradientUnits="userSpaceOnUse" gradientTransform="translate(101.308 45.0584) rotate(11.4493) scale(17.0196 10.9417)">
<stop offset="0.45" stop-color="#6D4C41" stop-opacity="0"/>
<stop offset="1" stop-color="#6D4C41"/>
</radialGradient>
<linearGradient id="paint6_linear_23_1350" x1="101.953" y1="155.501" x2="90.2746" y2="223.984" gradientUnits="userSpaceOnUse">
<stop stop-color="#A47B62"/>
<stop offset="1" stop-color="#BA8D68"/>
</linearGradient>
<radialGradient id="paint7_radial_23_1350" cx="0" cy="0" r="1" gradientUnits="userSpaceOnUse" gradientTransform="translate(98.4936 91.8648) scale(32.4391 32.4391)">
<stop offset="0.367" stop-color="#F78C1F"/>
<stop offset="0.68" stop-color="#F37F21"/>
<stop offset="1" stop-color="#ED6D23"/>
</radialGradient>
<linearGradient id="paint8_linear_23_1350" x1="109.567" y1="101.963" x2="182.252" y2="101.963" gradientUnits="userSpaceOnUse">
<stop offset="0.007" stop-color="#A47B62"/>
<stop offset="1" stop-color="#BA8D68"/>
</linearGradient>
<radialGradient id="paint9_radial_23_1350" cx="0" cy="0" r="1" gradientUnits="userSpaceOnUse" gradientTransform="translate(17.1339 157.164) scale(27.1581 27.1581)">
<stop offset="0.017" stop-color="#FB8C00"/>
<stop offset="0.442" stop-color="#F47900"/>
<stop offset="0.838" stop-color="#D95A1E"/>
</radialGradient>
<radialGradient id="paint10_radial_23_1350" cx="0" cy="0" r="1" gradientUnits="userSpaceOnUse" gradientTransform="translate(12.2723 148.005) scale(45.85 45.85)">
<stop offset="0.017" stop-color="#FFA726"/>
<stop offset="0.494" stop-color="#FC950D"/>
<stop offset="0.838" stop-color="#FB8C00"/>
</radialGradient>
<radialGradient id="paint11_radial_23_1350" cx="0" cy="0" r="1" gradientUnits="userSpaceOnUse" gradientTransform="translate(12.2708 148.005) scale(45.85 45.8499)">
<stop offset="0.017" stop-color="#FFA726"/>
<stop offset="0.494" stop-color="#FC950D"/>
<stop offset="0.838" stop-color="#FB8C00"/>
</radialGradient>
<radialGradient id="paint12_radial_23_1350" cx="0" cy="0" r="1" gradientUnits="userSpaceOnUse" gradientTransform="translate(12.2724 148.003) scale(45.85 45.85)">
<stop offset="0.017" stop-color="#FFA726"/>
<stop offset="0.494" stop-color="#FC950D"/>
<stop offset="0.838" stop-color="#FB8C00"/>
</radialGradient>
<radialGradient id="paint13_radial_23_1350" cx="0" cy="0" r="1" gradientUnits="userSpaceOnUse" gradientTransform="translate(12.272 148.002) scale(45.85 45.85)">
<stop offset="0.017" stop-color="#FFA726"/>
<stop offset="0.494" stop-color="#FC950D"/>
<stop offset="0.838" stop-color="#FB8C00"/>
</radialGradient>
</defs>
</svg>
