<svg width="168" height="257" viewBox="0 0 168 257" fill="none" xmlns="http://www.w3.org/2000/svg">
<path d="M65.2459 95.2677L0.631939 63.2709C0.631939 63.2709 0.482023 60.2083 3.37328 58.6663C6.28595 57.1243 52.0746 38.3633 55.7583 38.3633C59.442 38.3633 81.0086 42.5181 96.7071 46.009C112.406 49.5 153.89 58.4093 154.082 61.1293C154.275 63.8492 111.635 107.454 111.635 107.454L65.2459 95.2677Z" fill="#C3FECE"/>
<path d="M124.184 75.3096C124.184 75.3096 97.0921 67.3426 70.7282 61.1531C58.4564 58.2619 22.3904 50.7018 22.3904 50.7018C22.3904 50.7018 26.224 49.0313 29.1152 47.8105C32.0496 46.5898 34.384 45.9473 34.384 45.9473C34.384 45.9473 57.8996 50.6375 75.3756 54.364C99.0196 59.397 132.108 69.2701 132.879 70.8335C133.672 72.3755 124.184 75.3096 124.184 75.3096Z" fill="white"/>
<path d="M71.7123 67.8103C65.9512 71.8153 71.6052 74.2354 82.2279 76.7199C93.8572 79.4398 102.724 83.4447 110.198 79.0971C116.944 75.1991 100.432 70.9586 92.8506 69.3309C87.0681 68.0888 76.167 64.7263 71.7123 67.8103Z" fill="#ACB1B2"/>
<path d="M92.8292 75.8665C92.7864 75.8665 93.022 28.9425 93.022 27.2077C93.022 25.473 91.0731 23.9096 93.2147 20.2259C95.3564 16.5422 100.968 16.9277 100.968 16.9277C100.968 16.9277 124.248 10.16 133.542 7.82561C142.837 5.49118 163.397 0.0727539 163.397 0.0727539L164.768 11.8305C164.768 11.8305 143.223 17.9129 132.557 20.6328C121.892 23.3527 107.35 27.8074 107.35 27.8074L105.208 29.7563L105.829 75.6095C105.829 75.6095 103.837 77.8368 99.3828 77.8368C95.0566 77.8153 92.8292 75.8665 92.8292 75.8665Z" fill="#FFD816"/>
<path d="M159.566 6.0877C159.737 9.74996 161.686 12.0201 163.999 12.0201C166.312 12.0201 167.897 9.06462 167.554 5.20962C167.19 1.37602 164.706 -0.380148 162.585 0.326603C160.465 1.03335 159.437 3.41061 159.566 6.0877ZM105.253 30.824C104.846 30.824 104.439 30.7169 104.075 30.4599L92.9597 23.0497C92.4886 22.7317 92.1622 22.2412 92.05 21.6841C91.9377 21.1271 92.0491 20.5483 92.3601 20.0728C92.516 19.8373 92.7164 19.635 92.9503 19.4773C93.1842 19.3197 93.4472 19.2098 93.7239 19.1541C94.0006 19.0984 94.2859 19.0978 94.5626 19.1527C94.8393 19.2074 95.1023 19.3163 95.337 19.4731L106.452 26.8833C107.437 27.5472 107.694 28.8751 107.052 29.8603C106.624 30.4813 105.938 30.824 105.253 30.824Z" fill="#FEB804"/>
<path d="M106.965 29.0268C106.323 29.0268 105.68 28.7269 105.252 28.1701C102.404 24.3793 99.1483 20.0746 98.57 19.4107C97.8418 18.7039 97.6919 17.5474 98.2702 16.6693C98.4261 16.4339 98.6266 16.2315 98.8604 16.0739C99.0943 15.9162 99.3573 15.8063 99.634 15.7506C99.9107 15.695 100.196 15.6944 100.473 15.7492C100.749 15.8039 101.012 15.9128 101.247 16.0697C101.633 16.3267 101.847 16.4766 108.679 25.5787C109.385 26.521 108.743 27.8703 107.801 28.577C107.415 28.8769 107.415 29.0268 106.965 29.0268Z" fill="#FEB804"/>
<path d="M104.352 32.622C104.244 32.622 104.137 32.622 104.009 32.6006L93.3005 30.9086C93.0238 30.865 92.7583 30.7673 92.5184 30.621C92.2794 30.4747 92.0712 30.2828 91.9059 30.0561C91.7414 29.8293 91.6223 29.5723 91.5563 29.2997C91.4912 29.027 91.4793 28.7442 91.5229 28.4671C91.5666 28.1901 91.6643 27.9243 91.8108 27.6852C91.9573 27.4459 92.1492 27.2377 92.3753 27.0727C92.6023 26.9076 92.8593 26.7888 93.1318 26.7231C93.405 26.6573 93.6877 26.6459 93.9644 26.6895L104.673 28.3815C105.829 28.5742 106.836 28.7884 106.643 29.9663C106.493 30.9943 105.401 32.622 104.352 32.622Z" fill="#FEB804"/>
<path d="M0.544922 63.0347C3.95018 63.0347 31.2781 70.2093 45.3703 72.8007C59.4625 75.3921 102.018 85.4581 103.452 85.7365C104.887 86.0149 104.609 104.433 104.609 104.433C104.609 104.433 124.741 208.519 124.162 213.423C123.584 218.306 110.37 255.978 110.37 255.978C110.37 255.978 102.596 257.134 82.7639 251.373C62.932 245.612 10.5894 231.242 7.41969 227.215C4.25001 223.189 6.26318 169.99 4.54985 137.222C2.79368 104.433 0.544922 63.0347 0.544922 63.0347Z" fill="#79DD8A"/>
<path d="M159.223 229.506C160.315 225.887 154.232 187.08 153.376 151.421C152.519 115.784 155.582 61.5563 154.104 61.128C152.626 60.721 103.453 85.7359 103.453 85.7359C103.453 85.7359 103.239 121.116 103.839 154.484C104.61 197.66 108.058 254.821 110.35 255.977C112.641 257.134 132.537 245.997 138.534 242.742C149.157 236.981 158.366 232.398 159.223 229.506Z" fill="#02AB46"/>
<path d="M124.034 102.119L124.141 75.2622L132.943 70.936L133.2 100.384L129.131 107.516L124.034 102.119Z" fill="#DBDFE1"/>
<path d="M46.0995 111.543C27.0816 109.508 13.9103 126.47 14.9383 148.572C16.1591 174.679 33.3566 193.911 51.9677 197.745C70.5788 201.578 88.6117 193.504 88.9972 164.956C89.4256 135.208 63.2758 113.363 46.0995 111.543Z" fill="#FEFEFD"/>
<path d="M58.7775 135.382C58.7775 135.382 54.9225 122.425 43.3361 125.873C31.7496 129.321 25.4745 154.529 45.1351 165.88C64.0246 176.781 81.415 156.777 75.3327 143.82C69.8072 131.998 58.7775 135.382 58.7775 135.382Z" fill="#EF5B44"/>
<path d="M54.3659 119.532C53.0594 120.003 52.0314 125.336 53.4021 130.433C54.4301 134.245 57.7069 139.471 59.6129 139.128C61.1335 138.85 62.29 132.853 60.8551 127.82C59.1846 122.016 55.8864 118.975 54.3659 119.532Z" fill="#B8CF17"/>
<path d="M54.0871 149.603C48.6473 147.954 42.5221 166.65 53.5303 178.301C65.6736 191.13 79.8514 179.822 79.4659 177.337C78.9091 173.889 69.4001 171.405 64.7098 165.622C60.0196 159.797 57.2568 150.566 54.0871 149.603Z" fill="#FD8F01"/>
<path d="M36.6965 146.432C36.6965 146.432 37.7887 138.251 30.2072 138.701C22.8829 139.151 24.6819 147.803 24.6819 147.803C24.6819 147.803 18.5782 148.531 19.6062 155.299C20.3772 160.418 25.7742 160.353 25.7742 160.353C25.7742 160.353 19.8418 162.688 22.5403 169.455C24.9389 175.473 30.4642 173.053 30.4642 173.053C30.4642 173.053 28.4299 178.922 33.2269 182.027C37.2747 184.64 40.8085 182.434 40.8085 182.434C40.8085 182.434 40.5943 187.445 46.1841 188.366C52.9517 189.48 55.8858 181.235 51.0671 177.422C47.4048 174.531 44.0852 176.78 44.0852 176.78C44.0852 176.78 44.7706 175.174 44.128 173.332C43.6997 172.133 43.0144 171.683 43.0144 171.683C43.0144 171.683 48.9468 171.126 47.9831 164.38C47.0193 157.612 41.0869 158.447 41.0869 158.447C41.0869 158.447 44.535 155.684 43.1643 150.716C41.8151 145.726 36.6965 146.432 36.6965 146.432Z" fill="#A281D0"/>
<path d="M130.137 109.596C125.211 109.596 104.202 88.7149 104.009 88.5007C103.825 88.2874 103.687 88.0398 103.599 87.7726C103.512 87.5044 103.479 87.2226 103.5 86.9424C103.522 86.6615 103.599 86.3882 103.727 86.1372C103.855 85.887 104.03 85.6634 104.244 85.481C105.144 84.71 106.472 84.817 107.264 85.6951C108.613 87.1943 124.676 102.1 129.302 104.97C132.3 100.494 142.045 80.8978 150.419 63.2077C150.933 62.1369 152.218 61.6872 153.267 62.1797C154.338 62.6937 154.788 63.9573 154.295 65.0282C133.65 108.654 131.615 109.232 130.523 109.532C130.394 109.596 130.266 109.596 130.137 109.596Z" fill="#2D802D"/>
</svg>
