<svg width="244" height="256" viewBox="0 0 244 256" fill="none" xmlns="http://www.w3.org/2000/svg">
<path d="M26.7893 28.7788H224.207V34.1974H26.7893V28.7788ZM26.7893 71.3385H224.207V76.7572H26.7893V71.3385ZM26.7893 113.173H224.207V118.592H26.7893V113.173ZM26.7893 154.41H224.207V159.829H26.7893V154.41ZM26.7893 195.647H224.207V201.066H26.7893V195.647Z" fill="#AD7146"/>
<path d="M26.7901 236.478H18.1075C15.7182 236.478 13.7769 234.516 13.7769 232.148V4.33064C13.7769 1.94132 15.7395 0 18.1075 0H26.7901C29.1794 0 31.1207 1.96265 31.1207 4.33064V232.127C31.1421 234.516 29.1794 236.478 26.7901 236.478ZM226.384 236.478H217.701C215.312 236.478 213.37 234.516 213.37 232.148V4.33064C213.37 1.94132 215.333 0 217.701 0H226.384C228.773 0 230.714 1.96265 230.714 4.33064V232.127C230.736 234.516 228.773 236.478 226.384 236.478Z" fill="#D99B61"/>
<path d="M13.7769 222.057V232.126C13.7769 234.516 15.7395 236.457 18.1075 236.457H26.7901C29.1794 236.457 31.1207 234.494 31.1207 232.126V222.057H13.7769ZM213.37 222.057V232.126C213.37 234.516 215.333 236.457 217.701 236.457H226.384C228.773 236.457 230.714 234.494 230.714 232.126V222.057H213.37Z" fill="#BF7C4E"/>
<path d="M239.417 256H5.09309C2.70377 256 0.762451 254.037 0.762451 251.669V234.304C0.762451 231.915 2.72511 229.974 5.09309 229.974H239.395C241.785 229.974 243.726 231.936 243.726 234.304V251.669C243.726 252.815 243.273 253.913 242.466 254.724C241.658 255.536 240.562 255.995 239.417 256Z" fill="#D99B61"/>
<path d="M26.7893 28.7788H224.207V34.1974H26.7893V28.7788ZM26.7893 71.3385H224.207V76.7572H26.7893V71.3385ZM26.7893 113.173H224.207V118.592H26.7893V113.173ZM26.7893 154.41H224.207V159.829H26.7893V154.41ZM26.7893 195.647H224.207V201.066H26.7893V195.647Z" fill="#AD7146"/>
<path d="M26.7901 236.478H18.1075C15.7182 236.478 13.7769 234.516 13.7769 232.148V4.33064C13.7769 1.94132 15.7395 0 18.1075 0H26.7901C29.1794 0 31.1207 1.96265 31.1207 4.33064V232.127C31.1421 234.516 29.1794 236.478 26.7901 236.478ZM226.384 236.478H217.701C215.312 236.478 213.37 234.516 213.37 232.148V4.33064C213.37 1.94132 215.333 0 217.701 0H226.384C228.773 0 230.714 1.96265 230.714 4.33064V232.127C230.736 234.516 228.773 236.478 226.384 236.478Z" fill="#D99B61"/>
<path d="M13.7769 222.057V232.126C13.7769 234.516 15.7395 236.457 18.1075 236.457H26.7901C29.1794 236.457 31.1207 234.494 31.1207 232.126V222.057H13.7769ZM213.37 222.057V232.126C213.37 234.516 215.333 236.457 217.701 236.457H226.384C228.773 236.457 230.714 234.494 230.714 232.126V222.057H213.37Z" fill="#BF7C4E"/>
<path d="M239.417 256H5.09309C2.70377 256 0.762451 254.037 0.762451 251.669V234.304C0.762451 231.915 2.72511 229.974 5.09309 229.974H239.395C241.785 229.974 243.726 231.936 243.726 234.304V251.669C243.726 252.815 243.273 253.913 242.466 254.724C241.658 255.536 240.562 255.995 239.417 256Z" fill="#D99B61"/>
<path d="M38.736 184.253C34.5547 184.253 31.1414 187.688 31.1414 191.848V204.861C31.1414 209.021 34.5547 212.455 38.736 212.455C42.9173 212.455 46.3306 209.021 46.3306 204.861V191.848C46.3306 187.666 42.896 184.253 38.736 184.253ZM56.0799 184.253C51.8986 184.253 48.4852 187.688 48.4852 191.848V204.861C48.4852 209.021 51.8986 212.455 56.0799 212.455C60.2612 212.455 63.6745 209.021 63.6745 204.861V191.848C63.6745 187.666 60.2612 184.253 56.0799 184.253ZM73.445 184.253C69.2638 184.253 65.8505 187.688 65.8505 191.848V204.861C65.8505 209.021 69.2638 212.455 73.445 212.455C77.6263 212.455 81.0396 209.021 81.0396 204.861V191.848C81.0396 187.666 77.605 184.253 73.445 184.253ZM95.1409 184.253C90.9596 184.253 87.5462 187.688 87.5462 191.848V204.861C87.5462 209.021 90.9596 212.455 95.1409 212.455C99.3222 212.455 102.735 209.021 102.735 204.861V191.848C102.735 187.666 99.3008 184.253 95.1409 184.253ZM112.485 184.253C108.303 184.253 104.89 187.688 104.89 191.848V204.861C104.89 209.021 108.303 212.455 112.485 212.455C116.666 212.455 120.079 209.021 120.079 204.861V191.848C120.079 187.666 116.666 184.253 112.485 184.253ZM129.85 184.253C125.669 184.253 122.255 187.688 122.255 191.848V204.861C122.255 209.021 125.669 212.455 129.85 212.455C134.031 212.455 137.445 209.021 137.445 204.861V191.848C137.445 187.666 134.01 184.253 129.85 184.253ZM154.788 184.253C150.607 184.253 147.194 187.688 147.194 191.848V204.861C147.194 209.021 150.607 212.455 154.788 212.455C158.97 212.455 162.383 209.021 162.383 204.861V191.848C162.383 187.666 158.97 184.253 154.788 184.253ZM171.066 184.253C166.884 184.253 163.471 187.688 163.471 191.848V204.861C163.471 209.021 166.884 212.455 171.066 212.455C175.247 212.455 178.66 209.021 178.66 204.861V191.848C178.66 187.666 175.226 184.253 171.066 184.253ZM187.343 184.253C183.162 184.253 179.748 187.688 179.748 191.848V204.861C179.748 209.021 183.162 212.455 187.343 212.455C191.524 212.455 194.938 209.021 194.938 204.861V191.848C194.938 187.666 191.503 184.253 187.343 184.253ZM203.62 184.253C199.439 184.253 196.026 187.688 196.026 191.848V204.861C196.026 209.021 199.439 212.455 203.62 212.455C207.801 212.455 211.215 209.021 211.215 204.861V191.848C211.193 187.666 207.78 184.253 203.62 184.253Z" fill="#1976D2"/>
<path d="M38.736 143.187C34.5547 143.187 31.1414 146.621 31.1414 150.781V163.794C31.1414 167.954 34.5547 171.389 38.736 171.389C42.9173 171.389 46.3306 167.954 46.3306 163.794V150.781C46.3306 146.6 42.896 143.187 38.736 143.187ZM56.0799 143.187C51.8986 143.187 48.4852 146.621 48.4852 150.781V163.794C48.4852 167.954 51.8986 171.389 56.0799 171.389C60.2612 171.389 63.6745 167.954 63.6745 163.794V150.781C63.6745 146.6 60.2612 143.187 56.0799 143.187ZM73.445 143.187C69.2638 143.187 65.8505 146.621 65.8505 150.781V163.794C65.8505 167.954 69.2638 171.389 73.445 171.389C77.6263 171.389 81.0396 167.954 81.0396 163.794V150.781C81.0396 146.6 77.605 143.187 73.445 143.187ZM90.7889 143.187C86.6076 143.187 83.1943 146.621 83.1943 150.781V163.794C83.1943 167.954 86.6076 171.389 90.7889 171.389C94.9702 171.389 98.3835 167.954 98.3835 163.794V150.781C98.3835 146.6 94.9702 143.187 90.7889 143.187ZM118.991 143.187C114.81 143.187 111.397 146.621 111.397 150.781V163.794C111.397 167.954 114.81 171.389 118.991 171.389C123.173 171.389 126.586 167.954 126.586 163.794V150.781C126.586 146.6 123.173 143.187 118.991 143.187ZM135.93 143.187C131.749 143.187 128.335 146.621 128.335 150.781V163.794C128.335 167.954 131.749 171.389 135.93 171.389C140.111 171.389 143.525 167.954 143.525 163.794V150.781C143.525 146.6 140.09 143.187 135.93 143.187ZM152.847 143.187C148.666 143.187 145.253 146.621 145.253 150.781V163.794C145.253 167.954 148.666 171.389 152.847 171.389C157.028 171.389 160.442 167.954 160.442 163.794V150.781C160.442 146.6 157.007 143.187 152.847 143.187ZM169.764 143.187C165.583 143.187 162.17 146.621 162.17 150.781V163.794C162.17 167.954 165.583 171.389 169.764 171.389C173.946 171.389 177.359 167.954 177.359 163.794V150.781C177.359 146.6 173.924 143.187 169.764 143.187ZM186.682 143.187C182.5 143.187 179.087 146.621 179.087 150.781V163.794C179.087 167.954 182.5 171.389 186.682 171.389C190.863 171.389 194.276 167.954 194.276 163.794V150.781C194.276 146.6 190.863 143.187 186.682 143.187ZM203.62 143.187C199.439 143.187 196.026 146.621 196.026 150.781V163.794C196.026 167.954 199.439 171.389 203.62 171.389C207.801 171.389 211.215 167.954 211.215 163.794V150.781C211.193 146.6 207.78 143.187 203.62 143.187Z" fill="#689F38"/>
<path d="M38.736 101.804C34.5547 101.804 31.1414 105.238 31.1414 109.398V122.412C31.1414 126.572 34.5547 130.006 38.736 130.006C42.9173 130.006 46.3306 126.572 46.3306 122.412V109.398C46.3306 105.196 42.896 101.804 38.736 101.804ZM56.0799 101.804C51.8986 101.804 48.4852 105.238 48.4852 109.398V122.412C48.4852 126.572 51.8986 130.006 56.0799 130.006C60.2612 130.006 63.6745 126.572 63.6745 122.412V109.398C63.6745 105.196 60.2612 101.804 56.0799 101.804ZM73.445 101.804C69.2638 101.804 65.8505 105.238 65.8505 109.398V122.412C65.8505 126.572 69.2638 130.006 73.445 130.006C77.6263 130.006 81.0396 126.572 81.0396 122.412V109.398C81.0396 105.196 77.605 101.804 73.445 101.804ZM90.7889 101.804C86.6076 101.804 83.1943 105.238 83.1943 109.398V122.412C83.1943 126.572 86.6076 130.006 90.7889 130.006C94.9702 130.006 98.3835 126.572 98.3835 122.412V109.398C98.3835 105.196 94.9702 101.804 90.7889 101.804ZM108.154 101.804C103.973 101.804 100.559 105.238 100.559 109.398V122.412C100.559 126.572 103.973 130.006 108.154 130.006C112.335 130.006 115.749 126.572 115.749 122.412V109.398C115.749 105.196 112.314 101.804 108.154 101.804ZM125.519 101.804C121.338 101.804 117.925 105.238 117.925 109.398V122.412C117.925 126.572 121.338 130.006 125.519 130.006C129.701 130.006 133.114 126.572 133.114 122.412V109.398C133.114 105.196 129.679 101.804 125.519 101.804ZM142.863 101.804C138.682 101.804 135.269 105.238 135.269 109.398V122.412C135.269 126.572 138.682 130.006 142.863 130.006C147.045 130.006 150.458 126.572 150.458 122.412V109.398C150.458 105.196 147.023 101.804 142.863 101.804ZM160.228 101.804C156.047 101.804 152.634 105.238 152.634 109.398V122.412C152.634 126.572 156.047 130.006 160.228 130.006C164.41 130.006 167.823 126.572 167.823 122.412V109.398C167.823 105.196 164.388 101.804 160.228 101.804ZM177.572 101.804C173.391 101.804 169.978 105.238 169.978 109.398V122.412C169.978 126.572 173.391 130.006 177.572 130.006C181.754 130.006 185.167 126.572 185.167 122.412V109.398C185.167 105.196 181.754 101.804 177.572 101.804ZM203.62 101.804C199.439 101.804 196.026 105.238 196.026 109.398V122.412C196.026 126.572 199.439 130.006 203.62 130.006C207.801 130.006 211.215 126.572 211.215 122.412V109.398C211.193 105.196 207.78 101.804 203.62 101.804Z" fill="#FFCA28"/>
<path d="M38.736 59.9453C34.5547 59.9453 31.1414 63.38 31.1414 67.5399V80.553C31.1414 84.713 34.5547 88.1476 38.736 88.1476C42.9173 88.1476 46.3306 84.713 46.3306 80.553V67.5399C46.3306 63.3373 42.896 59.9453 38.736 59.9453ZM55.9092 59.9453C51.7279 59.9453 48.3146 63.38 48.3146 67.5399V80.553C48.3146 84.713 51.7279 88.1476 55.9092 88.1476C60.0905 88.1476 63.5038 84.713 63.5038 80.553V67.5399C63.5038 63.3373 60.0692 59.9453 55.9092 59.9453ZM77.605 59.9453C73.4237 59.9453 70.0104 63.38 70.0104 67.5399V80.553C70.0104 84.713 73.4237 88.1476 77.605 88.1476C81.7863 88.1476 85.1996 84.713 85.1996 80.553V67.5399C85.1996 63.3373 81.7649 59.9453 77.605 59.9453ZM105.978 59.9453C101.797 59.9453 98.3835 63.38 98.3835 67.5399V80.553C98.3835 84.713 101.797 88.1476 105.978 88.1476C110.159 88.1476 113.573 84.713 113.573 80.553V67.5399C113.573 63.3373 110.159 59.9453 105.978 59.9453ZM122.618 59.9453C118.437 59.9453 115.023 63.38 115.023 67.5399V80.553C115.023 84.713 118.437 88.1476 122.618 88.1476C126.799 88.1476 130.213 84.713 130.213 80.553V67.5399C130.213 63.3373 126.778 59.9453 122.618 59.9453ZM139.258 59.9453C135.077 59.9453 131.663 63.38 131.663 67.5399V80.553C131.663 84.713 135.077 88.1476 139.258 88.1476C143.439 88.1476 146.853 84.713 146.853 80.553V67.5399C146.853 63.3373 143.418 59.9453 139.258 59.9453ZM155.876 59.9453C151.695 59.9453 148.282 63.38 148.282 67.5399V80.553C148.282 84.713 151.695 88.1476 155.876 88.1476C160.058 88.1476 163.471 84.713 163.471 80.553V67.5399C163.471 63.3373 160.058 59.9453 155.876 59.9453ZM172.516 59.9453C168.335 59.9453 164.922 63.38 164.922 67.5399V80.553C164.922 84.713 168.335 88.1476 172.516 88.1476C176.698 88.1476 180.111 84.713 180.111 80.553V67.5399C180.111 63.3373 176.676 59.9453 172.516 59.9453ZM189.156 59.9453C184.975 59.9453 181.562 63.38 181.562 67.5399V80.553C181.562 84.713 184.975 88.1476 189.156 88.1476C193.338 88.1476 196.751 84.713 196.751 80.553V67.5399C196.751 63.3373 193.316 59.9453 189.156 59.9453ZM205.775 59.9453C201.593 59.9453 198.18 63.38 198.18 67.5399V80.553C198.18 84.713 201.593 88.1476 205.775 88.1476C209.956 88.1476 213.369 84.713 213.369 80.553V67.5399C213.369 63.3373 209.956 59.9453 205.775 59.9453Z" fill="#F57C00"/>
<path d="M38.736 17.4082C34.5547 17.4082 31.1414 20.8428 31.1414 25.0028V38.0161C31.1414 42.176 34.5547 45.6107 38.736 45.6107C42.9173 45.6107 46.3306 42.176 46.3306 38.0161V25.0028C46.3306 20.8002 42.896 17.4082 38.736 17.4082ZM55.0132 17.4082C50.8319 17.4082 47.4186 20.8428 47.4186 25.0028V38.0161C47.4186 42.176 50.8319 45.6107 55.0132 45.6107C59.1945 45.6107 62.6078 42.176 62.6078 38.0161V25.0028C62.5865 20.8002 59.1732 17.4082 55.0132 17.4082ZM71.269 17.4082C67.0878 17.4082 63.6745 20.8428 63.6745 25.0028V38.0161C63.6745 42.176 67.0878 45.6107 71.269 45.6107C75.4503 45.6107 78.8636 42.176 78.8636 38.0161V25.0028C78.8636 20.8002 75.429 17.4082 71.269 17.4082ZM87.5462 17.4082C83.3649 17.4082 79.9516 20.8428 79.9516 25.0028V38.0161C79.9516 42.176 83.3649 45.6107 87.5462 45.6107C91.7275 45.6107 95.1409 42.176 95.1409 38.0161V25.0028C95.1409 20.8002 91.7062 17.4082 87.5462 17.4082ZM103.823 17.4082C99.6422 17.4082 96.2288 20.8428 96.2288 25.0028V38.0161C96.2288 42.176 99.6422 45.6107 103.823 45.6107C108.005 45.6107 111.418 42.176 111.418 38.0161V25.0028C111.418 20.8002 107.983 17.4082 103.823 17.4082ZM125.519 17.4082C121.338 17.4082 117.925 20.8428 117.925 25.0028V38.0161C117.925 42.176 121.338 45.6107 125.519 45.6107C129.701 45.6107 133.114 42.176 133.114 38.0161V25.0028C133.114 20.8002 129.679 17.4082 125.519 17.4082ZM142.863 17.4082C138.682 17.4082 135.269 20.8428 135.269 25.0028V38.0161C135.269 42.176 138.682 45.6107 142.863 45.6107C147.045 45.6107 150.458 42.176 150.458 38.0161V25.0028C150.458 20.8002 147.023 17.4082 142.863 17.4082ZM171.066 17.4082C166.884 17.4082 163.471 20.8428 163.471 25.0028V38.0161C163.471 42.176 166.884 45.6107 171.066 45.6107C175.247 45.6107 178.66 42.176 178.66 38.0161V25.0028C178.66 20.8002 175.226 17.4082 171.066 17.4082ZM188.431 17.4082C184.25 17.4082 180.836 20.8428 180.836 25.0028V38.0161C180.836 42.176 184.25 45.6107 188.431 45.6107C192.612 45.6107 196.026 42.176 196.026 38.0161V25.0028C196.026 20.8002 192.591 17.4082 188.431 17.4082ZM205.775 17.4082C201.593 17.4082 198.18 20.8428 198.18 25.0028V38.0161C198.18 42.176 201.593 45.6107 205.775 45.6107C209.956 45.6107 213.369 42.176 213.369 38.0161V25.0028C213.369 20.8002 209.956 17.4082 205.775 17.4082Z" fill="#D82521"/>
<path d="M33.6793 191.359C33.594 192.852 32.89 199.508 38.6286 199.508C44.3672 199.508 43.3006 193.065 43.2579 191.465C43.2152 190.228 43.1299 188.969 42.4686 187.881C41.8073 186.793 39.5673 185.236 36.9006 186.154C34.2126 187.071 33.7433 190.292 33.6793 191.359ZM51.1085 192.34C51.0232 193.833 51.4285 199.444 56.1432 198.911C61.8178 198.271 61.4338 193.087 61.3911 191.465C61.3485 190.228 61.0925 188.564 59.9831 187.263C59.1298 186.281 56.6978 184.959 54.0312 186.303C51.5139 187.583 51.1725 191.273 51.1085 192.34ZM68.1964 192.084C68.1111 193.577 68.5164 198.121 73.2313 198.655C78.5006 199.252 78.7779 193.769 78.4793 191.209C78.3299 189.993 77.0926 185.386 72.6553 185.919C68.1964 186.452 68.2604 191.017 68.1964 192.084ZM125.05 191.359C124.964 192.852 124.26 199.508 129.999 199.508C135.738 199.508 134.671 193.065 134.628 191.465C134.586 190.228 134.5 188.969 133.839 187.881C133.178 186.793 130.938 185.236 128.271 186.154C125.562 187.071 125.114 190.292 125.05 191.359ZM166.265 191.359C166.18 192.852 165.476 199.508 171.215 199.508C176.953 199.508 175.887 193.065 175.844 191.465C175.801 190.228 175.716 188.969 175.055 187.881C174.393 186.793 172.153 185.236 169.487 186.154C166.777 187.071 166.329 190.292 166.265 191.359ZM107.514 192.34C107.428 193.833 107.834 198.377 112.548 198.911C117.924 199.508 117.839 193.087 117.796 191.465C117.754 190.228 117.498 188.564 116.388 187.263C115.535 186.281 113.103 184.959 110.436 186.303C107.919 187.583 107.578 191.273 107.514 192.34ZM149.668 192.34C149.583 193.833 149.988 198.377 154.703 198.911C160.079 199.508 159.993 193.087 159.951 191.465C159.908 190.228 159.652 188.564 158.543 187.263C157.689 186.281 155.257 184.959 152.591 186.303C150.073 187.583 149.732 191.273 149.668 192.34Z" fill="#2196F3"/>
<path d="M85.6693 150.934C85.584 152.3 85.9893 156.502 90.7039 156.972C96.0799 157.526 95.9946 151.617 95.9519 150.124C95.9092 148.993 95.6532 147.457 94.5439 146.262C93.6906 145.345 91.2586 144.15 88.592 145.388C86.0747 146.561 85.7333 149.974 85.6693 150.934Z" fill="#8BC34A"/>
<path d="M89.9567 192.086C89.8713 193.579 90.2767 198.123 94.9913 198.657C100.261 199.254 100.538 193.771 100.239 191.211C100.09 189.995 98.8526 185.387 94.4153 185.921C89.978 186.454 90.0207 191.019 89.9567 192.086Z" fill="#2196F3"/>
<path d="M68.6236 150.035C68.197 152.126 68.453 157.63 73.5731 157.694C79.2691 157.758 78.4157 151.635 78.2024 150.142C77.5624 145.598 74.5118 144.296 71.8238 145.171C69.1356 146.003 68.8156 149.054 68.6236 150.035Z" fill="#8BC34A"/>
<path d="M68.6444 108.67C68.2177 110.761 68.4737 116.265 73.5939 116.329C79.2898 116.393 78.4365 110.27 78.2232 108.777C77.5832 104.233 74.5325 102.931 71.8445 103.806C69.1564 104.638 68.8364 107.689 68.6444 108.67ZM85.9884 108.67C85.5618 110.761 85.8178 116.265 90.9377 116.329C96.6337 116.393 95.7164 110.27 95.567 108.777C95.2257 105.107 93.5831 103.593 90.7884 103.55C86.6071 103.486 86.2018 107.689 85.9884 108.67Z" fill="#FFEB3B"/>
<path d="M51.0871 151.445C51.0018 152.939 51.3645 157.973 56.1218 157.995C61.4124 158.037 61.4124 152.192 61.3697 150.571C61.3271 149.355 61.0711 147.691 59.9617 146.389C59.1084 145.408 56.6764 144.085 54.0098 145.451C51.4925 146.709 51.1511 150.4 51.0871 151.445ZM33.5299 151.125C33.4446 152.619 33.8499 157.163 38.5645 157.696C43.8338 158.293 44.1112 152.811 43.8125 150.251C43.6632 149.035 42.4259 144.427 37.9885 144.96C33.5299 145.493 33.5939 150.059 33.5299 151.125Z" fill="#8BC34A"/>
<path d="M82.4044 25.4724C82.3191 26.8377 82.7244 31.0403 87.4391 31.5097C92.815 32.0643 92.7297 26.155 92.687 24.6617C92.6444 23.531 92.3884 21.9951 91.279 20.8004C90.4257 19.8831 87.9937 18.6884 85.3271 19.9257C82.8098 21.0991 82.4684 24.491 82.4044 25.4724ZM120.378 25.4724C120.292 26.8377 120.698 31.0403 125.412 31.5097C130.788 32.0643 130.703 26.155 130.66 24.6617C130.617 23.531 130.361 21.9951 129.252 20.8004C128.399 19.8831 125.967 18.6884 123.3 19.9257C120.783 21.0991 120.442 24.491 120.378 25.4724ZM148.9 25.4724C148.985 26.8377 148.58 31.0403 143.673 31.5097C138.084 32.0643 138.169 26.155 138.212 24.6617C138.255 23.531 138.532 21.9951 139.684 20.8004C140.559 19.8831 143.097 18.6884 145.871 19.9257C148.473 21.0991 148.836 24.491 148.9 25.4724ZM66.0417 24.5337C65.615 26.6244 65.871 32.1283 70.991 32.1923C76.6871 32.2563 75.8338 26.1337 75.6205 24.6404C74.9805 20.0964 71.9298 18.7951 69.2417 19.6697C66.5537 20.5231 66.2337 23.5737 66.0417 24.5337ZM49.7645 25.963C49.6791 27.4563 50.0418 32.491 54.7991 32.5123C60.0897 32.555 60.0897 26.7097 60.0471 25.0884C60.0044 23.8724 59.7484 22.2084 58.6391 20.9071C57.7858 19.9257 55.3538 18.6031 52.6871 19.9684C50.1698 21.2271 49.8285 24.9177 49.7645 25.963ZM183.801 24.043C183.118 26.0697 182.692 31.5737 187.769 32.171C193.422 32.8323 193.316 26.667 193.294 25.1524C193.209 20.5657 190.329 18.9657 187.577 19.5417C184.825 20.0964 184.121 23.083 183.801 24.043ZM165.647 25.963C165.561 27.4563 165.924 32.491 170.681 32.5123C175.972 32.555 175.972 26.7097 175.929 25.0884C175.886 23.8724 175.63 22.2084 174.521 20.9071C173.668 19.9257 171.236 18.6031 168.569 19.9684C166.073 21.2271 165.711 24.9177 165.647 25.963ZM201.145 26.3044C201.166 27.7977 201.913 32.7896 206.649 32.5337C211.918 32.235 211.492 26.3897 211.321 24.811C211.193 23.595 210.809 21.9524 209.593 20.7364C208.676 19.7977 206.158 18.6457 203.577 20.1604C201.209 21.5471 201.145 25.2377 201.145 26.3044ZM99.3643 26.5604C99.471 28.0537 100.516 33.003 105.231 32.491C110.479 31.9363 109.711 26.1124 109.455 24.5337C109.263 23.3177 108.772 21.6964 107.492 20.5444C106.532 19.6697 103.93 18.6457 101.455 20.2884C99.1297 21.8031 99.279 25.4937 99.3643 26.5604ZM33.5299 25.6217C33.4446 27.115 33.8499 31.659 38.5645 32.1923C43.8338 32.7896 44.1112 27.307 43.8125 24.747C43.6632 23.531 42.4259 18.9231 37.9885 19.4564C33.5299 19.9897 33.5939 24.555 33.5299 25.6217Z" fill="#F44336"/>
<path d="M50.5976 109.779C50.5123 111.272 50.8749 116.307 55.6323 116.328C60.9229 116.371 60.9229 110.526 60.8802 108.904C60.8375 107.688 60.5816 106.024 59.4722 104.723C58.6189 103.742 56.1869 102.419 53.5203 103.784C51.0243 105.043 50.6616 108.712 50.5976 109.779ZM155.493 108.67C155.066 110.76 155.322 116.264 160.442 116.328C166.138 116.392 165.285 110.27 165.072 108.776C164.432 104.232 161.381 102.931 158.693 103.806C156.005 104.638 155.685 107.688 155.493 108.67ZM137.445 109.779C137.36 111.272 137.722 116.307 142.48 116.328C147.77 116.371 147.77 110.526 147.728 108.904C147.685 107.688 147.429 106.024 146.32 104.723C145.466 103.742 143.034 102.419 140.368 103.784C137.872 105.043 137.509 108.712 137.445 109.779ZM172.453 109.779C172.367 111.272 172.73 116.307 177.487 116.328C182.778 116.371 182.778 110.526 182.735 108.904C182.693 107.688 182.437 106.024 181.327 104.723C180.474 103.742 178.042 102.419 175.375 103.784C172.858 105.043 172.517 108.712 172.453 109.779ZM103.035 110.184C103.099 111.678 103.931 116.286 108.667 116.307C113.573 116.328 113.381 110.078 113.189 108.499C113.04 107.283 112.613 105.64 111.376 104.446C110.437 103.528 107.899 102.419 105.36 103.998C102.992 105.448 103.013 109.139 103.035 110.184ZM33.6591 109.715C33.5737 111.208 33.9791 115.752 38.6937 116.286C43.963 116.883 44.2403 111.4 43.9417 108.84C43.7923 107.624 42.555 103.016 38.1177 103.55C33.6804 104.083 33.7231 108.648 33.6591 109.715ZM120.336 109.715C120.25 111.208 120.613 116.264 125.37 116.286C130.789 116.307 130.917 111.4 130.618 108.84C130.469 107.624 129.232 103.016 124.794 103.55C120.336 104.083 120.4 108.648 120.336 109.715ZM198.437 109.715C198.351 111.208 198.714 116.264 203.471 116.286C208.89 116.307 209.018 111.4 208.719 108.84C208.57 107.624 207.333 103.016 202.895 103.55C198.415 104.083 198.501 108.648 198.437 109.715Z" fill="#FFEB3B"/>
<path d="M117.817 66.2373C117.39 68.328 117.646 73.8319 122.766 73.8959C128.462 73.9599 127.609 67.8373 127.396 66.344C126.756 61.8 123.705 60.4987 121.017 61.3733C118.329 62.2053 118.009 65.256 117.817 66.2373ZM150.756 67.6666C150.67 69.16 151.033 74.1946 155.79 74.2159C161.081 74.2586 161.081 68.4133 161.038 66.792C160.995 65.576 160.739 63.912 159.63 62.6107C158.777 61.6293 156.345 60.3067 153.678 61.672C151.161 62.9307 150.82 66.6 150.756 67.6666ZM183.95 67.6666C183.865 69.16 184.227 74.1946 188.985 74.2159C194.275 74.2586 194.275 68.4133 194.233 66.792C194.19 65.576 193.934 63.912 192.825 62.6107C191.971 61.6293 189.539 60.3067 186.873 61.672C184.355 62.9307 184.014 66.6 183.95 67.6666ZM167.289 67.6666C167.203 69.16 167.566 74.1946 172.323 74.2159C177.614 74.2586 177.614 68.4133 177.571 66.792C177.529 65.576 177.273 63.912 176.163 62.6107C175.31 61.6293 172.878 60.3067 170.211 61.672C167.715 62.9307 167.353 66.6 167.289 67.6666ZM100.815 67.304C100.729 68.7973 101.092 73.8533 105.849 73.8746C111.268 73.8959 111.396 68.9893 111.097 66.4293C110.948 65.2133 109.711 60.6054 105.273 61.1387C100.836 61.672 100.879 66.2373 100.815 67.304ZM72.4201 67.4746C72.3347 68.968 72.6974 74.0239 77.4547 74.0453C82.8733 74.0666 83.0013 69.16 82.7027 66.6C82.5533 65.384 81.316 60.776 76.8787 61.3094C72.4201 61.8427 72.4841 66.408 72.4201 67.4746ZM134.073 67.304C133.988 68.7973 134.35 73.8533 139.108 73.8746C144.526 73.8959 144.654 68.9893 144.356 66.4293C144.206 65.2133 142.969 60.6054 138.532 61.1387C134.094 61.672 134.137 66.2373 134.073 67.304ZM200.611 67.304C200.526 68.7973 200.889 73.8533 205.646 73.8746C211.064 73.8959 211.193 68.9893 210.894 66.4293C210.745 65.2133 209.507 60.6054 205.07 61.1387C200.633 61.672 200.654 66.2373 200.611 67.304ZM33.5722 67.6666C33.4869 69.16 33.8496 74.1946 38.6069 74.2159C43.8975 74.2586 43.8975 68.4133 43.8548 66.792C43.8122 65.576 43.5562 63.912 42.4469 62.6107C41.5935 61.6293 39.1615 60.3067 36.4949 61.672C33.9776 62.9307 33.6362 66.6 33.5722 67.6666ZM50.8308 66.5786C50.4895 68.0506 50.0415 73.1066 54.7348 73.7679C60.0894 74.5359 61.0281 69.7146 61.1347 67.1333C61.1774 65.896 60.7294 61.1813 56.2281 61.096C51.7268 61.0107 51.0655 65.5333 50.8308 66.5786Z" fill="#FF9800"/>
<path d="M130.788 150.931C130.703 152.296 131.108 156.499 135.823 156.968C141.199 157.523 141.113 151.614 141.071 150.12C141.028 148.99 140.772 147.454 139.663 146.259C138.809 145.342 136.377 144.147 133.711 145.384C131.193 146.558 130.852 149.971 130.788 150.931ZM164.623 150.931C164.537 152.296 164.943 156.499 169.657 156.968C175.033 157.523 174.948 151.614 174.905 150.12C174.862 148.99 174.606 147.454 173.497 146.259C172.644 145.342 170.212 144.147 167.545 145.384C165.049 146.558 164.687 149.971 164.623 150.931ZM148.047 149.694C147.62 151.784 147.876 157.288 152.996 157.352C158.692 157.416 157.839 151.294 157.625 149.8C156.985 145.256 153.935 143.955 151.247 144.83C148.559 145.704 148.239 148.712 148.047 149.694ZM181.561 151.443C181.476 152.936 181.838 157.971 186.596 157.992C191.886 158.035 191.886 152.19 191.844 150.568C191.801 149.352 191.545 147.688 190.436 146.387C189.582 145.406 187.15 144.083 184.484 145.448C181.966 146.707 181.625 150.398 181.561 151.443ZM114.063 151.123C113.978 152.616 114.383 157.16 119.098 157.694C124.367 158.291 124.644 152.808 124.345 150.248C124.196 149.032 122.959 144.424 118.522 144.958C114.042 145.491 114.127 150.056 114.063 151.123ZM198.436 151.123C198.35 152.616 198.756 157.16 203.47 157.694C208.74 158.291 209.017 152.808 208.718 150.248C208.569 149.032 207.332 144.424 202.894 144.958C198.436 145.491 198.5 150.056 198.436 151.123Z" fill="#8BC34A"/>
<path d="M182.158 192.086C182.073 193.579 182.158 200.043 187.342 199.51C192.611 198.977 192.739 193.771 192.441 191.211C192.291 189.995 191.054 185.387 186.617 185.921C182.179 186.454 182.222 191.019 182.158 192.086ZM198.435 192.129C198.35 193.622 198.755 198.166 203.47 198.699C208.739 199.297 209.017 193.814 208.718 191.254C208.569 190.038 207.331 185.43 202.894 185.963C198.435 186.518 198.499 191.083 198.435 192.129Z" fill="#2196F3"/>
</svg>
