<svg width="257" height="239" viewBox="0 0 257 239" fill="none" xmlns="http://www.w3.org/2000/svg">
<path d="M158.198 23.7998C93.1581 -10.509 33.9535 13.9395 12.6143 47.3538C5.62902 58.2789 0.688231 78.1489 0.8799 93.9084C1.26324 126.343 19.2162 162.483 57.9547 198.943C105.617 243.794 154.258 239.875 169.719 236.106C189.184 231.357 202.239 227.31 200.237 209.165C199.982 206.78 197.937 202.457 194.849 200.562C184.946 194.556 164.267 191.425 154.535 176.965C140.394 155.903 157.985 154.838 174.83 163.846C192.869 173.494 203.176 179.521 221.278 177.86C234.546 176.646 253.841 168.638 256.46 146.255C258.803 126.002 229.243 61.2818 158.198 23.7998ZM184.755 133.861C179.771 141.442 167.462 138.844 159.39 131.689C151.319 124.533 150.275 112.607 155.514 107.922C160.839 103.172 170.848 104.259 178.919 111.414C186.97 118.591 188.652 127.898 184.755 133.861Z" fill="#AC5810"/>
<path d="M161.048 16.0683C96.0086 -18.2406 36.6551 8.295 15.3159 41.7093C-6.04458 75.1449 3.24072 137.054 60.7841 191.211C108.446 236.062 157.087 232.143 172.549 228.374C192.014 223.625 205.75 214.361 197.189 202.541C191.29 194.384 170.142 188.23 157.385 169.233C143.244 148.171 160.835 147.106 177.681 156.115C195.719 165.762 206.027 171.789 224.129 170.128C237.397 168.914 257.458 158.649 256.862 137.906C256.244 117.525 232.094 53.5715 161.048 16.0683ZM190.991 133.263C184.922 139.823 171.995 138.034 162.113 129.302C152.253 120.549 149.165 108.155 155.234 101.617C161.304 95.0572 174.231 96.8461 184.113 105.578C193.994 114.309 197.061 126.725 190.991 133.263Z" fill="#F2A259"/>
<path d="M94.8387 162.953C97.2878 156.691 114.708 149.834 130.723 161.228C135.217 164.422 140.839 172.557 140.264 182.78C138.39 216.173 83.5941 191.767 94.8387 162.953Z" fill="#EEEEEE"/>
<path d="M43.9615 106.322C49.5625 97.3774 63.171 96.3552 75.0758 104.086C85.6814 110.965 94.5408 127.895 81.4647 138.97C74.4582 144.911 62.3404 141.227 54.8653 135.498C45.793 128.577 37.9345 115.948 43.9615 106.322Z" fill="#2686C6"/>
<path d="M116.241 28.2725C117.966 21.1808 129.999 19.9669 138.517 23.1401C153.233 28.6346 159.899 43.2014 154.468 51.3154C146.525 63.1776 129.211 59.11 122.651 52.3164C111.513 40.8162 114.793 34.2143 116.241 28.2725Z" fill="#FFEE58"/>
<path d="M201.515 62.9868C213.313 68.3534 214.846 76.8508 212.589 83.0481C211.183 86.8814 208.308 92.1417 202.43 92.6102C192.485 93.4195 191.101 85.199 184.009 82.9416C178.046 81.0462 175.618 72.8896 177.961 67.4165C180.133 62.3692 186.479 56.1293 201.515 62.9868Z" fill="#7CB342"/>
<path d="M136.05 189.146C133.111 191.809 122.91 195.088 109.962 186.995C105.575 184.248 101.379 180.266 99.0154 174.303C97.1626 169.617 97.5672 165.103 98.3978 163.101C100.783 157.329 104.425 156.265 104.425 156.265C100.762 156.009 93.8403 160.865 92.6903 167.232C92.3282 169.234 89.7514 181.757 106.341 193.108C120.631 202.904 141.758 201.988 140.373 182.268C139.734 184.695 137.924 187.464 136.05 189.146Z" fill="#B0B0B0"/>
<path d="M87.6838 122.614C87.2792 130.217 78.3771 134.221 73.415 134.242C59.3806 134.263 46.773 125.446 45.8998 109.751C45.7507 106.94 47.135 102.872 47.135 102.872C45.2822 103.66 42.6627 107.664 42.109 109.921C38.8294 123.466 52.4805 139.247 66.8557 142.441C74.1391 144.06 83.318 141.568 86.6616 135.051C89.0468 130.409 88.5783 126.426 87.6838 122.614Z" fill="#01579B"/>
<path d="M136.792 52.3362C127.252 51.2501 121.97 45.0102 120.586 43.5833C116.795 39.6221 114.452 35.7674 115.815 30.0599C116.241 28.2284 117.285 25.8858 118.563 24.5654C117.008 25.0765 114.495 28.4201 113.707 30.2303C112.898 32.0405 109.959 38.8341 116.263 47.2037C120.16 52.4001 126.953 58.2566 137.005 59.6622C144.14 60.6631 149.251 58.1075 153.51 53.9547C156.407 51.1223 157.684 44.7333 155.959 41.4323C156.236 43.8388 151.828 54.0612 136.792 52.3362Z" fill="#DF7F14"/>
<path d="M215.273 78.1699C214.4 74.9542 211.908 71.6106 211.652 71.4402C212.739 73.5273 214.89 79.7885 210.375 85.8793C208.096 88.946 201.238 92.7155 193.146 86.1562C190.761 84.2182 188.844 82.3015 184.542 80.7255C173.617 76.7005 178.387 65.5838 182.178 62.1338C179.196 63.6884 176.492 66.4783 175.363 70.7374C173.787 76.6792 177.684 82.8978 183.605 85.8793C190.335 89.2655 192.507 95.8035 201.728 95.8035C202.197 95.8035 202.687 95.7822 203.219 95.7396C209.438 95.2072 212.057 92.8007 213.953 89.8618C216.274 86.1988 216.338 82.0459 215.273 78.1699Z" fill="#558B2F"/>
<path d="M48.4142 37.5781C53.2698 32.7864 61.7245 27.7178 74.0979 34.1706C81.5517 38.0466 90.2195 42.6041 86.3009 58.3636C83.8731 68.1387 69.6469 73.3138 57.7634 62.4312C53.0568 58.1293 35.1677 50.6542 48.4142 37.5781Z" fill="#F44336"/>
<path d="M89.1298 56.2562C89.2789 52.5293 87.3622 47.9932 86.702 46.4598C86.8085 48.6959 88.7465 54.3395 79.8658 61.8146C76.7779 64.4128 71.1768 66.3933 65.0647 63.9868C61.9341 62.7516 57.4405 57.5766 54.2247 56.2775C42.2773 51.4645 47.4311 38.6653 49.1135 36.9189C46.4089 38.8143 44.1089 41.8385 43.257 46.2469C42.1496 52.0182 43.1719 57.4702 51.0942 63.7101C73.5834 81.4501 80.4834 70.7592 82.9325 68.0333C86.0205 64.711 88.9595 60.3665 89.1298 56.2562Z" fill="#C62828"/>
<path d="M133.428 23.8854C130.297 22.4159 121.352 22.8418 119.627 30.2956C118.584 34.7679 121.864 39.3041 124.952 38.7717C128.466 38.1754 126.591 32.7022 128.7 31.1475C131.916 28.8049 137.815 25.9511 133.428 23.8854ZM67.4508 34.7466C64.3628 32.7021 54.5025 32.6809 51.5423 40.2411C49.7534 44.7773 52.5432 50.0376 55.8868 49.9524C59.6989 49.8672 57.8674 45.3736 61.0406 42.5199C65.0443 38.9208 71.774 37.6004 67.4508 34.7466ZM65.9814 102.981C63.0637 101.128 54.4173 100.404 50.8395 107.176C48.22 112.16 51.8191 117.654 54.9497 117.505C58.5063 117.335 57.3137 111.67 59.5924 110.392C63.0637 108.454 70.0703 105.579 65.9814 102.981ZM115.666 159.694C112.536 158.224 103.591 158.65 101.866 166.104C100.823 170.576 104.102 175.112 107.19 174.58C110.704 173.984 108.83 168.51 110.938 166.956C114.133 164.613 120.032 161.759 115.666 159.694ZM195.912 63.6887C193.101 61.6868 184.22 60.5155 181.196 67.5434C179.386 71.7599 181.792 76.8072 184.923 76.8285C188.479 76.8498 187.606 71.1423 189.97 69.9923C193.527 68.2673 199.852 66.4998 195.912 63.6887Z" fill="white"/>
</svg>
