<svg width="256" height="256" viewBox="0 0 256 256" fill="none" xmlns="http://www.w3.org/2000/svg">
<path d="M42.3588 213.37C28.4931 199.227 28.4931 176.658 42.3588 162.515L82.3346 122.539C86.6863 118.187 92.4032 114.924 98.3761 113.302C104.349 111.681 110.621 111.681 116.316 113.025C122.289 114.646 128.006 117.654 132.635 122.006L133.168 122.539C147.311 136.682 147.311 159.251 133.168 173.394L93.1925 213.37C79.0708 227.513 56.2245 227.513 42.3588 213.37ZM155.481 100.247C129.115 73.8811 85.8757 73.8811 59.4883 100.247L19.7897 140.223C-6.57639 166.589 -6.57639 209.829 19.7897 236.217C46.1559 262.604 89.3954 262.583 115.783 236.217L155.759 196.241C181.848 169.853 181.848 126.635 155.481 100.247Z" fill="#84B0C1"/>
<path d="M133.977 94.8911C141.144 91.286 147.992 93.8032 147.992 93.8032C133.187 82.8599 117.039 79.7455 103.131 80.6201C103.046 80.7267 102.982 80.8334 102.896 80.9614C96.7954 90.3261 95.4301 102.699 99.2272 113.108C104.944 111.701 110.874 111.743 116.293 113.044C118.511 113.642 120.196 114.218 123.524 115.775C123.545 115.754 122.372 100.736 133.977 94.8911ZM91.0998 116.18C91.3771 114.111 91.5051 112.021 91.6331 109.93C92.2303 100.928 93.7662 91.9686 96.1981 83.2866C96.3687 82.6679 96.5394 82.0066 96.71 81.3454C90.1185 82.3906 83.6549 84.3958 77.5754 87.3823C68.1039 99.6054 71.2184 115.434 82.3324 122.558C84.8709 120.02 87.8573 117.865 91.0998 116.18Z" fill="#2F7889"/>
<path d="M213.397 42.628C227.263 56.771 227.263 79.34 213.397 93.483L173.421 133.459C169.07 137.811 163.353 141.074 157.38 142.696C151.407 144.317 145.135 144.317 139.44 142.973C133.467 141.352 127.75 138.344 123.121 133.992L122.588 133.459C108.445 119.316 108.445 96.7467 122.588 82.6037L162.564 42.628C176.685 28.485 199.532 28.485 213.397 42.628ZM100.275 155.751C126.641 182.117 169.88 182.117 196.268 155.751L235.966 115.775C262.333 89.4086 262.333 46.1691 235.966 19.7816C209.6 -6.60584 166.361 -6.58451 139.973 19.7816L100.019 59.7575C73.9083 86.1448 73.9083 129.363 100.275 155.751Z" fill="#84B0C1"/>
<path d="M98.9716 75.5663C99.0569 75.5023 99.1422 75.4169 99.2276 75.3529C100.358 74.3717 101.617 73.4331 103.089 73.1771C104.561 72.9211 106.288 73.5824 106.8 74.9903C107.184 76.0356 106.843 77.1875 106.48 78.2327C100.87 95.1916 96.3691 116.715 101.83 134.271C102.363 135.978 102.875 138.175 101.446 139.242C100.614 139.882 99.3769 139.775 98.4596 139.284C88.4336 133.866 86.6844 119.19 86.2151 109.121C85.6605 96.4075 89.1803 84.163 98.9716 75.5663Z" fill="#A8E3F0"/>
<path d="M143.491 143.657C142.126 143.486 140.675 143.209 140.675 143.209C140.675 143.209 140.462 152.317 133.188 159.869C125.124 168.231 117.082 168.018 117.082 168.018C121.327 170.471 129.796 173.009 132.868 173.734L133.188 173.414C141.358 165.223 144.771 154.216 143.491 143.657ZM184.96 121.919L173.59 133.289C176.427 145.96 175.659 159.271 171.265 171.559C176.79 169.596 182.101 166.887 187.05 163.453C195.221 149.459 193.429 132.927 184.96 121.919Z" fill="#2F7889"/>
<path d="M161.774 140.821C160.43 137.429 157.806 133.995 154.521 134.315C152.473 134.507 149.295 136.427 149.508 142.293C149.658 146.836 151.385 151.274 148.911 157.225C145.285 165.928 146.116 168.275 146.991 169.662C147.951 171.176 149.722 171.859 151.364 171.837C155.694 171.816 159.278 167.848 161.241 163.497C164.419 156.542 164.611 147.946 161.774 140.821ZM96.4133 222.245C97.7785 221.114 101.32 217.338 102.962 219.727C102.365 226.298 97.3092 231.652 91.7629 235.236C84.9367 239.651 76.852 242.254 68.7245 242.019C61.9837 241.827 50.8058 239.097 46.8807 232.846C43.681 227.77 50.4432 226.895 54.1976 228.303C67.5726 233.401 82.6969 233.508 96.4133 222.245Z" fill="#A8E3F0"/>
</svg>
