<svg width="257" height="225" viewBox="0 0 257 225" fill="none" xmlns="http://www.w3.org/2000/svg">
<path d="M22.7635 78.0711C22.7635 78.0711 33.3884 75.3334 37.3863 75.4203C42.4271 75.529 48.185 76.9413 51.2486 78.7882C54.3123 80.6133 65.7194 77.919 65.7194 77.919C65.7194 77.919 72.3029 78.3753 69.9998 73.4866C68.8699 71.0748 56.7675 67.4245 49.5104 66.2947C40.0371 64.8172 27.0221 67.9677 27.0221 67.9677C27.0221 67.9677 26.1095 56.7561 23.5022 50.8462C22.0247 47.4565 16.9187 36.158 12.4862 31.5734C9.59639 28.575 5.46811 25.3375 1.92647 27.293C-2.50598 29.7483 2.38276 38.309 6.20685 44.5667C10.031 50.8245 15.7236 57.4949 17.6791 62.9268C19.0915 66.7509 22.7635 78.0711 22.7635 78.0711Z" fill="#6B7E37"/>
<path d="M37.3644 52.4551C37.3644 52.4551 42.1011 40.983 42.8616 35.4859C43.6221 29.9887 43.9262 20.0374 41.949 14.6923C40.6453 11.1942 38.1249 8.7172 35.0613 10.1078C33.2362 10.9334 29.1948 15.5397 30.4767 24.4916C31.6935 33.0524 32.6278 39.788 32.6278 46.3715C32.6278 50.8037 31.8673 56.6268 31.8673 56.6268L37.3644 52.4551ZM33.3231 61.1027C33.3231 61.1027 39.6024 59.886 46.9247 60.0381C54.247 60.1902 68.9567 63.4059 77.6695 63.1017C86.3823 62.7975 87.7729 58.6692 85.3177 55.4535C82.8624 52.2378 76.3007 47.0451 63.5899 48.2618C53.9645 49.1961 38.8202 54.3019 38.8202 54.3019L33.3231 61.1027Z" fill="#6B7E37"/>
<path d="M44.6431 124.111C44.6431 124.111 44.491 126.415 42.9701 127.631C41.3405 128.935 39.2981 129.304 39.2981 129.304C39.2981 129.304 26.9132 118.288 22.6328 105.447C18.3742 92.6496 19.9603 80.96 20.1776 78.5265C20.6339 73.6377 23.3933 67.3584 25.9789 63.2301C29.564 57.5591 36.0823 50.6931 39.2763 47.6292C42.4921 44.5656 47.3808 39.0685 51.0528 35.0923C54.0513 31.8548 62.6338 22.7726 65.7408 20.4043C71.5422 15.9718 80.1247 10.3008 83.7967 15.3634C87.4687 20.4043 79.8205 28.8129 73.6932 32.9412C67.566 37.0695 59.1573 42.2625 55.1811 44.1093C52.9866 45.1305 45.4036 50.0845 41.5795 54.213C37.7554 58.3413 31.3239 65.229 29.0425 71.7909C26.7394 78.3744 26.131 84.6755 26.8915 93.6708C27.6519 102.688 33.0187 112.161 34.6918 114.616C37.7988 119.223 44.6431 124.111 44.6431 124.111Z" fill="#6B7E37"/>
<path d="M101.375 102.383C101.375 102.383 96.1817 86.3263 103.2 64.9027C110.457 42.8052 121.712 29.4208 130.121 22.381C144.396 10.4307 154.13 8.45349 157.954 11.8213C161.539 14.9718 161.474 19.6216 160.257 24.9666C159.54 28.1172 154.912 34.918 154.912 34.918C154.912 34.918 157.78 34.8528 160.257 38.1337C164.081 43.1746 162.082 55.1034 162.082 55.1034L144.657 97.1685L120.799 112.009L101.375 102.383Z" fill="#B0B0B0"/>
<path d="M117.542 105.709C117.542 105.709 103.832 99.5817 98.7912 91.8466C89.0136 76.8544 74.8472 73.5952 65.9605 73.7039C44.1457 73.9211 35.9761 88.5874 35.9761 88.5874L36.9973 105.513C36.9973 105.513 46.3837 117.746 46.7748 119.593C47.1659 121.44 43.8198 134.172 52.2719 157.921C59.0728 176.998 82.8647 196.879 112.023 200.551C141.182 204.223 151.785 201.159 151.785 201.159C151.785 201.159 164.735 224.517 166.973 224.299C169.211 224.104 173.709 219.106 177.88 217.26C184.399 214.392 197.262 208.547 205.214 198.595C218.664 181.778 216.274 171.197 219.381 164.743C222.031 159.246 224.574 155.357 224.182 153.315C223.791 151.272 212.558 149.947 205.822 149.643C200.912 149.425 195.111 149.034 190.526 148.426C186.593 147.904 181.748 145.275 181.748 145.275L195.198 134.064L197.653 115.704L211.32 103.254L212.341 90.6081L231.092 77.767L242.303 62.0577V48.9992L250.864 34.9196C250.864 34.9196 255.557 25.5766 254.123 24.3381C252.689 23.0996 249.952 21.5135 244.954 24.7075C243.129 25.8808 247.974 18.6237 250.604 14.5606C253.971 9.36766 254.775 3.76187 252.755 1.71946C250.712 -0.322957 248.474 -0.431596 237.61 2.47993C223.465 6.26058 204.584 12.4747 178.054 36.1363C151.525 59.798 117.542 105.709 117.542 105.709Z" fill="#E0E0E0"/>
<path d="M252.689 23.426C252.689 23.426 251.407 33.5295 245.454 40.0044C238.849 47.1746 227.398 55.4526 222.509 58.06C217.621 60.6673 204.932 66.4686 202.933 67.2291C200.934 67.9896 197.892 69.6843 198.804 71.8137C199.717 73.9647 201.868 74.2689 204.932 72.8783C207.995 71.5095 221.901 64.2524 225.117 62.4707C228.789 60.4283 237.871 54.9311 238.566 57.5819C239.392 60.6456 233.286 68.6414 225.986 75.942C217.425 84.5027 205.518 90.9342 201.694 92.6072C197.87 94.2802 192.069 96.5834 190.222 97.3439C188.397 98.1043 184.247 99.7991 185.181 102.537C186.093 105.296 191.612 103.362 193.524 102.776C197.957 101.407 208.734 95.2145 209.19 96.7355C209.646 98.2564 208.582 102.081 204.758 106.513C200.934 110.945 189.157 117.073 185.029 119.354C180.901 121.636 179.227 122.266 177.989 122.722C176.772 123.178 173.557 124.243 174.165 127.154C174.773 130.066 178.054 128.98 179.749 128.371C180.901 127.958 192.525 122.092 193.742 121.636C194.958 121.179 195.415 125.764 193.742 129.349C192.221 132.63 187.31 137.236 182.421 141.212C178.576 144.341 173.557 147.188 172.318 147.796C171.101 148.404 167.277 150.403 168.038 152.38C168.798 154.379 171.71 154.532 175.534 152.685C179.358 150.86 198.913 137.128 200.912 126.372C201.977 120.636 201.216 117.507 201.216 117.507C201.216 117.507 211.776 107.882 213.753 102.819C215.752 97.7784 215.426 93.1938 215.426 93.1938C215.426 93.1938 228.615 82.6993 235.437 74.8338C241.586 67.7506 245.454 59.1898 246.171 55.2136C246.801 51.7372 246.323 48.3913 246.323 48.3913C246.323 48.3913 253.515 37.9837 255.34 31.8782C257.382 25.2946 252.689 23.426 252.689 23.426ZM250.495 0.372817C250.495 0.372817 251.103 4.8053 248.974 9.84615C245.563 17.8637 237.784 23.9041 231.548 27.7499C224.812 31.8782 216.404 35.5502 215.035 36.3107C213.666 37.0711 211.298 38.8311 212.276 41.1994C213.34 43.8068 216.404 42.7204 218.251 41.8078C220.076 40.8952 240.587 29.2708 244.563 25.2946C247.257 22.6004 254.036 16.4297 255.579 9.99825C258.339 -1.73478 250.495 0.372817 250.495 0.372817Z" fill="#B0B0B0"/>
<path d="M66.2633 98.559C66.2633 102.057 63.9818 105.077 60.5488 105.077C57.1158 105.077 54.2912 102.014 53.8132 98.559C53.3135 94.887 55.986 92.0841 59.419 91.932C63.9167 91.7364 66.2633 95.0825 66.2633 98.559Z" fill="#2D2D2D"/>
<path d="M37.4084 86.6318C37.4084 86.6318 10.1834 96.4094 10.379 98.4518C10.5093 99.6685 22.1989 104.166 22.1989 104.166L21.7426 102.167L29.0432 103.449L30.3686 106.296L39.1466 108.229C39.1466 108.229 39.8636 100.777 39.2553 95.084C38.6903 89.9345 37.4084 86.6318 37.4084 86.6318Z" fill="#FFC300"/>
</svg>
