<svg width="257" height="233" viewBox="0 0 257 233" fill="none" xmlns="http://www.w3.org/2000/svg">
<path d="M180.161 55.0262C180.161 55.0262 248.36 43.2448 252.323 48.4209C256.286 53.5968 257.282 69.19 255.16 78.0045C253.016 86.8406 245.089 100.463 221.916 106.874C202.446 112.245 195.906 112.266 185.835 118.265C177.8 123.051 166.127 157.486 164.286 162.381C162.446 167.275 149.04 186.464 120.994 182.5C93.5973 178.602 76.7913 152.895 82.5954 127.599C88.3996 102.304 180.161 55.0262 180.161 55.0262Z" fill="#A92813"/>
<path d="M130.457 118.134C130.457 118.134 92.3398 119.043 80.45 106.547C68.5602 94.051 56.064 66.3081 52.7072 44.0444C49.3503 21.7808 38.3701 8.6782 33.194 5.32134C28.018 1.96447 22.6686 1.05487 22.0622 4.41173C21.4558 7.7686 30.8767 18.987 32.5876 24.2281C36.8541 37.3307 34.4935 67.8241 38.0669 81.858C41.727 96.2167 44.629 101.133 52.7072 110.51C58.7279 117.506 68.257 124.241 68.257 124.241C68.257 124.241 31.3748 133.077 21.001 122.097C10.6272 111.117 11.8617 101.978 12.7713 97.4078C13.6809 92.8382 21.001 80.342 18.8786 79.1075C16.7346 77.8947 3.32876 88.2468 1.50955 101.978C-0.309652 115.708 4.2167 127.143 11.8834 135.525C21.8673 146.418 40.7741 148.259 51.7543 147.349C62.7345 146.44 73.7796 142.845 73.7796 142.845C73.7796 142.845 73.4764 187.653 52.1224 187.35C35.9662 187.112 34.1253 181.871 32.6093 179.12C31.0933 176.37 29.5123 174.096 30.3136 182.845C30.8551 188.628 37.6338 206.474 58.9011 201.904C76.9199 198.027 88.0734 181.459 91.7551 176.37C95.805 170.804 105.161 158.07 105.161 158.07C105.161 158.07 101.544 182.824 102.324 200.345C102.649 207.665 104.555 224.839 117.982 230.621C131.388 236.404 148.54 229.17 151.594 217.584C154.648 205.997 148.475 199.522 147.544 198.612C146.613 197.702 142.368 211.715 142.368 211.715C142.368 211.715 131.388 219.035 127.121 213.859C122.855 208.683 128.031 168.422 128.637 159.889C129.244 151.356 138.08 159.586 141.134 163.852C144.187 168.119 149.147 178.709 156.683 186.116C169.115 198.352 182.607 203.658 201.774 202.185C221.742 200.648 234.216 192.808 240.908 182.759C247.622 172.688 249.073 162.704 246.929 160.885C244.785 159.066 230.166 176.673 227.113 179.099C224.059 181.546 193.566 179.099 189.299 179.099C185.033 179.099 184.123 171.475 184.123 171.475C184.123 171.475 201.492 166.906 207.599 162.336C213.707 157.766 230.469 148.151 231.682 120.863C232.614 99.8118 231.682 43.3081 233.826 34.1687C235.97 25.0294 244.092 17.2978 242.251 14.2441C240.41 11.1904 232.289 16.2799 231.076 17.1895C229.863 18.0991 217.042 24.2064 216.739 35.1866C216.436 46.1668 212.776 124.523 206.668 130.912C200.561 137.322 180.745 150.121 169.786 148.605C158.806 147.111 130.457 118.134 130.457 118.134Z" fill="#FFA8A8"/>
<path d="M246.018 160.52C242.358 160.216 239.305 165.089 235.645 167.84C231.985 170.59 224.664 177.585 205.454 176.979C186.244 176.373 173.445 155.322 173.445 155.322C173.445 155.322 179.552 155.928 186.548 154.109C193.565 152.29 204.696 146.334 211.692 133.686C220.03 118.656 218.167 81.5574 218.254 65.0763C218.362 42.3145 225.769 30.2081 228.628 26.3532C233.5 19.7477 241.232 15.9794 241.535 13.857C241.839 11.7129 231.876 12.9474 226.18 16.3042C219.856 20.0293 216.738 24.2308 216.738 24.2308C216.738 24.2308 202.098 22.7148 194.171 22.7148C186.244 22.7148 171.019 23.8842 157.744 26.9812C141.436 30.7929 129.243 40.0838 125.886 40.7119C125.886 40.7119 115.057 29.9483 97.2334 42.2279C78.6299 55.0274 92.0573 82.1638 92.0573 82.1638C92.0573 82.1638 91.1477 86.0838 86.2749 87.3399C79.2579 89.1591 68.7541 82.3155 64.9424 70.1224C61.7372 59.8353 62.4952 45.5848 59.4631 29.1253C56.4095 12.6658 47.5733 5.34567 39.6468 1.68561C31.7203 -1.97446 21.6497 1.38241 23.1873 3.50481C24.7033 5.64888 36.2899 9.61214 43.3069 22.4115C50.3238 35.211 46.9669 65.098 54.5903 86.4303C62.2136 107.763 76.2476 114.78 76.2476 114.78C76.2476 114.78 68.3209 118.44 64.0545 119.349C59.788 120.259 48.2014 122.403 37.5244 120.194C26.4143 117.898 18.9209 109.755 17.7081 100.767C16.6685 93.1224 21.6713 79.7382 18.9209 79.1102C16.1704 78.4821 6.33804 92.516 6.03484 104.103C5.73164 115.689 14.6544 129.095 28.0602 135.506C41.466 141.916 69.5337 136.112 69.5337 136.112C69.5337 136.112 67.2381 139.62 66.9349 146.334C66.6317 153.048 62.6684 168.056 55.4999 172.409C50.5837 175.398 46.2089 176.373 44.6713 172.409C43.1553 168.446 50.9302 166.93 50.627 162.967C50.3238 159.004 43.9133 158.007 37.8276 161.754C33.7127 164.266 26.8474 173.341 31.1139 183.086C35.3803 192.832 45.9707 196.276 57.6439 193.157C75.0563 188.501 95.1543 156.275 101.543 150.774C107.954 145.295 112.22 146.811 112.22 146.811C112.22 146.811 109.167 175.16 109.773 194.37C110.379 213.58 122.659 226.119 136.303 223.954C151.55 221.506 152.459 209.01 150.034 202.296C147.89 196.427 139.811 194.218 137.537 195.886C134.57 198.073 136.541 201.668 137.689 202.665C140.44 205.025 138.144 210.526 133.877 209.292C129.611 208.079 133.574 193.742 135.393 186.725C137.213 179.708 141.501 163.248 146.374 162.036C151.246 160.823 156.206 169.377 160.711 174.532C168.421 183.368 180.982 190.233 198.892 190.536C222.564 190.948 237.226 176.351 240.582 172.691C243.874 169.053 249.657 160.823 246.018 160.52ZM191.117 96.8041C198.134 91.9312 204.133 89.7005 204.133 89.7005C204.133 89.7005 204.328 114.693 194.777 127.601C186.873 138.278 179.228 135.83 179.228 135.83C179.228 135.83 187.089 131.542 187.76 123.334C188.67 112.051 176.78 109.928 176.78 109.928C176.78 109.928 185.01 101.049 191.117 96.8041Z" fill="#FF615E"/>
<path d="M232.181 81.7103C232.181 81.7103 257.282 74.2385 254.834 55.9382C252.387 37.6378 233.892 33.5879 233.892 33.5879C233.892 33.5879 231.25 43.1387 231.661 55.635C231.856 61.1143 232.181 81.7103 232.181 81.7103Z" fill="#FF615E"/>
<path d="M178.989 128.641C176.195 133.102 171.431 134.034 167.965 131.868C164.5 129.702 163.959 125.349 166.753 120.888C169.546 116.426 175.264 114.412 178.751 116.578C182.238 118.744 181.783 124.18 178.989 128.641ZM130.91 102.436C134.808 102.197 133.509 98.3208 132.729 93.1447C131.971 87.9687 129.156 74.3463 137.147 66.1599C143.861 59.2945 152.221 59.3812 158.48 63.4094C163.201 66.4631 165.345 67.6759 167.164 65.4019C168.377 63.8859 166.558 60.9838 163.504 58.3849C159.627 55.093 146.287 48.3142 133.769 58.6881C121.944 68.4988 123.85 87.4922 125.387 94.0543C126.947 100.616 128.463 102.587 130.91 102.436ZM92.6417 40.994C84.7152 49.2238 83.0909 55.8077 83.9572 66.9179C84.7152 76.8369 88.2236 84.4386 92.0353 82.9225C95.2189 81.6448 93.8545 75.754 92.7933 72.7003C91.7321 69.6467 89.8912 55.0064 97.6662 47.0797C105.441 39.1532 114.277 40.2144 118.241 41.124C122.204 42.0336 123.871 42.9432 125.864 40.6692C127.856 38.3952 123.72 34.7134 119.757 33.8038C115.793 32.8942 103.124 30.1221 92.6417 40.994Z" fill="#A52914"/>
<path d="M167.034 89.7861C167.034 96.11 162.291 102.456 156.054 102.131C149.946 101.828 147.066 95.9368 147.066 89.6345C147.066 83.3323 150.726 78.1995 157.137 77.7447C164.435 77.225 167.034 83.4622 167.034 89.7861Z" fill="#2C2B2D"/>
<path d="M229.496 68.4489C229.915 65.8396 228.235 63.3993 225.742 62.999C223.251 62.5997 220.891 64.3912 220.473 67.0004C220.054 69.6106 221.734 72.0509 224.226 72.4511C226.718 72.8505 229.078 71.059 229.496 68.4489Z" fill="#FCD4B0"/>
<path d="M232.954 38.8885C233.862 36.4701 232.892 33.8683 230.788 33.0772C228.683 32.2862 226.24 33.6054 225.33 36.0238C224.422 38.4422 225.391 41.044 227.496 41.8351C229.601 42.6261 232.044 41.3069 232.954 38.8885Z" fill="#FCD4B0"/>
<path d="M224.968 107.459C228.054 107.459 230.555 104.87 230.555 101.677C230.555 98.483 228.054 95.8945 224.968 95.8945C221.882 95.8945 219.38 98.483 219.38 101.677C219.38 104.87 221.882 107.459 224.968 107.459Z" fill="#FCD4B0"/>
<path d="M224.862 138.157C226.21 135.118 224.981 131.624 222.116 130.353C219.252 129.083 215.836 130.517 214.488 133.556C213.14 136.595 214.369 140.09 217.234 141.36C220.098 142.631 223.513 141.197 224.862 138.157Z" fill="#FCD4B0"/>
<path d="M229.27 192.728C231.593 191.739 232.758 189.252 231.872 187.172C230.988 185.092 228.387 184.207 226.066 185.194C223.743 186.182 222.578 188.67 223.462 190.75C224.348 192.83 226.948 193.715 229.27 192.728Z" fill="#FCD4B0"/>
<path d="M200.755 200.864C203.613 200.864 205.931 198.682 205.931 195.992C205.931 193.3 203.613 191.119 200.755 191.119C197.896 191.119 195.579 193.3 195.579 195.992C195.579 198.682 197.896 200.864 200.755 200.864Z" fill="#FCD4B0"/>
<path d="M172.947 195.862C175.697 195.862 177.928 193.545 177.928 190.686C177.928 187.827 175.697 185.51 172.947 185.51C170.196 185.51 167.966 187.827 167.966 190.686C167.966 193.545 170.196 195.862 172.947 195.862Z" fill="#FCD4B0"/>
<path d="M121.318 231.859C124.296 231.859 126.711 229.493 126.711 226.575C126.711 223.656 124.296 221.291 121.318 221.291C118.34 221.291 115.925 223.656 115.925 226.575C115.925 229.493 118.34 231.859 121.318 231.859Z" fill="#FCD4B0"/>
<path d="M105.805 201.177C107.881 201.036 109.411 198.667 109.223 195.887C109.034 193.107 107.197 190.967 105.121 191.108C103.044 191.249 101.514 193.618 101.703 196.398C101.892 199.179 103.729 201.318 105.805 201.177Z" fill="#FCD4B0"/>
<path d="M80.7919 190.702C83.059 188.607 83.3821 185.272 81.5153 183.251C79.6484 181.231 76.2976 181.291 74.0312 183.385C71.7648 185.479 71.4409 188.815 73.3079 190.836C75.1749 192.856 78.5257 192.796 80.7919 190.702Z" fill="#FCD4B0"/>
<path d="M50.7799 204.44C53.8658 204.44 56.3675 202.161 56.3675 199.351C56.3675 196.54 53.8658 194.261 50.7799 194.261C47.694 194.261 45.1924 196.54 45.1924 199.351C45.1924 202.161 47.694 204.44 50.7799 204.44Z" fill="#FCD4B0"/>
<path d="M45.0852 147.916C47.8361 147.916 50.0663 145.918 50.0663 143.455C50.0663 140.99 47.8361 138.993 45.0852 138.993C42.3341 138.993 40.104 140.99 40.104 143.455C40.104 145.918 42.3341 147.916 45.0852 147.916Z" fill="#FCD4B0"/>
<path d="M23.7914 138.548C25.0832 136.311 24.241 133.406 21.9104 132.061C19.5797 130.714 16.6432 131.438 15.3514 133.675C14.0595 135.912 14.9017 138.817 17.2324 140.163C19.5631 141.508 22.4996 140.785 23.7914 138.548Z" fill="#FCD4B0"/>
<path d="M6.04517 121.596C8.12201 120.798 9.05474 118.196 8.12851 115.785C7.20227 113.373 4.76774 112.064 2.69091 112.862C0.614067 113.66 -0.318666 116.261 0.607569 118.673C1.5338 121.085 3.96825 122.394 6.04517 121.596Z" fill="#FCD4B0"/>
<path d="M44.0016 81.4037C46.645 81.4037 48.7878 79.173 48.7878 76.4226C48.7878 73.6712 46.645 71.4414 44.0016 71.4414C41.3582 71.4414 39.2153 73.6712 39.2153 76.4226C39.2153 79.173 41.3582 81.4037 44.0016 81.4037Z" fill="#FCD4B0"/>
<path d="M41.3386 52.7744C43.9222 52.7744 46.0166 50.5929 46.0166 47.9017C46.0166 45.2105 43.9222 43.0288 41.3386 43.0288C38.7551 43.0288 36.6606 45.2105 36.6606 47.9017C36.6606 50.5929 38.7551 52.7744 41.3386 52.7744Z" fill="#FCD4B0"/>
<path d="M39.0894 26.7801C41.2305 25.9497 42.2264 23.369 41.3138 21.0161C40.4012 18.6631 37.9256 17.4289 35.7846 18.2593C33.6435 19.0897 32.6476 21.6704 33.5603 24.0233C34.4728 26.3763 36.9484 27.6106 39.0894 26.7801Z" fill="#FCD4B0"/>
</svg>
