<svg width="257" height="226" viewBox="0 0 257 226" fill="none" xmlns="http://www.w3.org/2000/svg">
<path d="M141.958 8.4831L254.639 203.663C255.758 205.944 256.283 208.469 256.167 211.006C256.049 213.543 255.293 216.009 253.968 218.176C252.645 220.344 250.794 222.141 248.59 223.403C246.386 224.665 243.899 225.351 241.359 225.394H15.997C7.82763 225.515 1.10699 218.955 0.986264 210.786C0.946021 208.291 1.54967 205.876 2.71672 203.663L115.398 8.4831C116.578 5.95631 118.455 3.81858 120.806 2.32073C123.158 0.823039 125.89 0.0273438 128.678 0.0273438C131.468 0.0273438 134.198 0.823039 136.549 2.32073C138.903 3.81858 140.778 5.95631 141.958 8.4831Z" fill="#CC3333"/>
<path d="M128.438 27.7951L231.058 205.67C232.101 207.739 232.6 210.039 232.505 212.352C232.41 214.667 231.725 216.919 230.516 218.894C229.307 220.869 227.612 222.503 225.595 223.64C223.576 224.776 221.302 225.38 218.985 225.389H13.7446C11.967 225.402 10.2048 225.061 8.55933 224.39C6.91403 223.717 5.41778 222.725 4.15721 221.473C2.89663 220.219 1.89633 218.728 1.21429 217.088C0.532089 215.446 0.181493 213.685 0.18262 211.908C0.18262 209.735 0.705778 207.602 1.67162 205.67L104.292 27.7951C104.991 26.2062 105.997 24.772 107.252 23.5727C108.508 22.3751 109.987 21.4366 111.606 20.812C113.226 20.1875 114.953 19.8881 116.688 19.9331C118.424 19.9782 120.133 20.3662 121.717 21.0744C124.695 22.3622 127.11 24.7768 128.438 27.7951Z" fill="#F44336"/>
<path d="M112.819 47.2722C108.714 51.8599 37.2022 171.946 37.2022 171.946C37.2022 171.946 31.0852 181.161 38.2083 186.755C45.3716 192.389 52.0117 186.755 55.0702 182.168C58.1287 177.58 123.041 69.7681 125.576 64.6573C126.684 61.7855 127.032 58.6787 126.587 55.6331C126.143 52.5875 124.921 49.7077 123.041 47.2722C119.459 43.6905 115.395 43.6905 112.819 47.2722Z" fill="#FF8A80"/>
</svg>
