<svg width="257" height="226" viewBox="0 0 257 226" fill="none" xmlns="http://www.w3.org/2000/svg">
<path d="M228.062 9.48414C227.446 9.20792 228.976 6.70069 205.603 6.06326C203.564 5.99951 196.828 9.59038 189.136 9.69662C181.169 9.80286 176.175 6.48821 173.498 3.91723C172.308 2.76985 170.417 3.06732 169.567 4.46967C168.059 6.99816 165.19 10.2703 159.921 12.1614C153.823 14.3499 148.32 11.9701 145.217 10.0366C143.921 9.22917 142.179 9.80286 141.605 11.2265C140.245 14.6049 137.164 19.8318 130.514 22.339C124.458 24.6338 119.593 22.7215 116.597 20.7667C116.253 20.5428 115.86 20.4074 115.452 20.3723C115.044 20.3372 114.632 20.4035 114.257 20.5654C113.88 20.7274 113.55 20.9799 113.294 21.3004C113.039 21.6209 112.867 21.9997 112.793 22.4028C111.965 26.8436 109.967 33.4091 105.123 36.0226C99.3434 39.1248 93.7978 37.1275 90.2919 35.0452C88.6771 34.0678 86.5948 35.0877 86.446 36.9787C86.1061 42.057 84.7037 49.9611 79.6893 54.4021C74.2711 59.2041 66.0907 57.908 61.5649 56.6756C59.9713 56.2506 58.4415 57.4405 58.4203 59.0978C58.3778 63.1137 57.7191 69.6367 54.3194 73.2701C49.7511 78.1358 42.3145 79.3894 42.3145 79.3894L148.723 183.418C151.209 180.762 165.551 161.278 204.137 154.479C207.813 153.82 224.365 151.674 225.959 150.612C228.126 149.146 226.001 134.91 226.108 131.425L226.936 101.253C227.467 81.578 228.02 61.9025 228.551 42.2269C228.742 35.3852 228.934 28.5221 229.104 21.6804C229.167 19.2156 229.55 16.5596 229.316 14.0949C229.061 10.9927 229.443 10.1003 228.062 9.48414Z" fill="#FCE8B2"/>
<path d="M59.3772 57.1433C58.8247 57.5895 58.4423 58.2907 58.421 59.0981C58.3785 63.1139 57.7198 69.637 54.3202 73.2704C54.1927 73.3979 54.0652 73.5041 53.959 73.6316L156.947 175.026L59.3772 57.1433ZM87.9555 34.8969C87.1481 35.2369 86.5319 35.9806 86.4469 36.9792C86.1069 42.0574 84.7046 49.9616 79.6901 54.4024L79.3714 54.6573C104.699 87.5489 165.574 167.462 165.574 167.462L87.9555 34.8969ZM112.794 22.4032C111.965 26.844 109.968 33.4096 105.124 36.023C104.954 36.108 104.805 36.1505 104.635 36.2355C120.592 66.6411 157.202 135.505 172.713 164.636L173.988 163.998L114.09 20.6609C113.453 21.0009 112.943 21.6171 112.794 22.4032ZM141.606 11.2269C140.289 14.5416 137.272 19.5985 130.918 22.1695C142.371 53.9349 170.461 129.024 182.211 160.407C182.678 160.237 183.167 160.067 183.634 159.876L143.858 9.69708C142.902 9.71833 141.989 10.2708 141.606 11.2269ZM169.568 4.47013C168.06 6.99862 165.191 10.2708 159.922 12.1618C159.603 12.2681 159.284 12.3318 158.965 12.4168L189.371 157.964C190.306 157.688 191.262 157.39 192.239 157.135L171.055 3.32275C170.439 3.49274 169.908 3.8752 169.568 4.47013ZM204.436 6.25495C201.61 6.97737 195.724 9.61209 189.137 9.69708C188.33 9.71833 187.565 9.65459 186.8 9.61209C189.244 46.0095 194.322 121.694 197.233 155.86C197.764 155.733 198.316 155.627 198.869 155.499C199.124 147.128 199.23 136.291 199.23 136.291L204.436 6.25495Z" fill="#FFBD66"/>
<path d="M159.56 176.195C158.582 176.195 157.626 175.791 156.946 175.005L57.8041 59.9058C56.5718 58.4609 56.7205 56.2937 58.1653 55.0613C59.6102 53.8289 61.7775 53.9777 63.0098 55.4225L162.173 170.522C162.602 171.021 162.879 171.632 162.97 172.284C163.062 172.935 162.964 173.6 162.689 174.197C162.414 174.796 161.973 175.302 161.418 175.656C160.863 176.009 160.218 176.196 159.56 176.195ZM167.889 170.713C166.72 170.713 165.594 170.118 164.957 169.056L84.3852 36.4269C83.9143 35.6487 83.7707 34.7156 83.9857 33.8317C84.2007 32.9479 84.7566 32.185 85.5325 31.7099C86.3111 31.2392 87.2434 31.0955 88.1273 31.3105C89.0112 31.5255 89.7744 32.0816 90.2495 32.8573L170.821 165.486C171.137 166.007 171.309 166.603 171.319 167.212C171.329 167.821 171.178 168.423 170.88 168.954C170.581 169.486 170.147 169.929 169.622 170.238C169.097 170.547 168.498 170.711 167.889 170.713ZM173.095 164.551L111.455 22.6796C110.711 20.9373 111.497 18.9188 113.24 18.1539C114.982 17.4102 117 18.1964 117.765 19.9387L179.405 161.81C179.405 161.81 180.298 164.657 177.472 166.017C174.561 167.441 173.095 164.551 173.095 164.551ZM185.27 163.361C183.761 163.361 182.38 162.362 181.955 160.854L140.309 11.8645C139.799 10.0372 140.862 8.14617 142.689 7.63622C144.516 7.12628 146.407 8.18866 146.917 10.016L188.563 159.005C188.706 159.514 188.729 160.05 188.632 160.569C188.533 161.089 188.316 161.579 187.998 162C187.678 162.423 187.266 162.765 186.793 163.001C186.32 163.237 185.798 163.36 185.27 163.361ZM193.195 160.981C191.516 160.981 190.029 159.728 189.795 158.007L168.548 4.66154C168.293 2.77049 169.61 1.04942 171.48 0.794446C173.35 0.518225 175.092 1.85683 175.347 3.72664L196.595 157.072C196.85 158.942 195.532 160.684 193.662 160.939C193.514 160.96 193.365 160.981 193.195 160.981Z" fill="#6D4C41"/>
<path d="M197.949 154.459C197.886 157.285 200.053 159.644 202.879 159.793L235.558 161.046C237.896 161.108 240.224 160.71 242.408 159.872C244.593 159.034 246.59 157.774 248.287 156.163C249.984 154.554 251.347 152.624 252.299 150.488C253.25 148.35 253.771 146.047 253.831 143.708L256.933 24.8483C256.995 22.5097 256.596 20.182 255.759 17.9978C254.921 15.8137 253.66 13.8161 252.05 12.1191C250.44 10.4221 248.511 9.05905 246.374 8.10783C244.237 7.15652 241.933 6.63578 239.595 6.57518L207.49 5.36406C206.758 5.32548 206.025 5.43375 205.336 5.68252C204.647 5.93129 204.014 6.31545 203.476 6.81248C202.938 7.30951 202.503 7.9092 202.201 8.57638C201.897 9.24356 201.731 9.96462 201.71 10.6972L197.949 154.459ZM135.12 201.608L114.403 223.005C113.55 223.888 112.531 224.593 111.405 225.082C110.279 225.57 109.067 225.831 107.839 225.852C106.611 225.871 105.392 225.649 104.251 225.197C103.11 224.744 102.068 224.072 101.187 223.217L3.78741 128.898C2.90469 128.045 2.19893 127.026 1.71048 125.9C1.22198 124.774 0.960395 123.562 0.94066 122.334C0.920925 121.107 1.14343 119.888 1.59541 118.746C2.04747 117.605 2.72009 116.564 3.57493 115.682L24.2915 94.2857C25.1447 93.4035 26.1637 92.6972 27.29 92.2093C28.4164 91.7206 29.6279 91.4589 30.8554 91.4393C32.083 91.4198 33.3023 91.6416 34.4438 92.0938C35.5853 92.5459 36.6263 93.219 37.5076 94.0732L134.886 188.392C138.604 191.983 138.711 197.89 135.12 201.608Z" fill="#CF381A"/>
<path d="M13.8379 117.233C13.0599 118.034 12.4475 118.982 12.036 120.021C11.6245 121.059 11.4218 122.168 11.4396 123.286C11.4573 124.403 11.6951 125.505 12.1395 126.53C12.5839 127.555 13.226 128.482 14.0291 129.259C14.9622 130.158 16.0892 130.831 17.3234 131.225C18.5576 131.619 19.8658 131.724 21.1471 131.533C20.8709 134.061 21.6783 136.675 23.6544 138.566C24.5874 139.465 25.7145 140.137 26.9486 140.532C28.1828 140.925 29.4911 141.03 30.7724 140.839C30.4962 143.368 31.3036 145.981 33.2796 147.872C34.2126 148.771 35.3397 149.444 36.5739 149.838C37.808 150.232 39.1163 150.337 40.3976 150.146C40.1214 152.674 40.9288 155.288 42.9048 157.179C43.8379 158.078 44.9649 158.75 46.1991 159.145C47.4333 159.538 48.7415 159.643 50.0229 159.452C49.7466 161.981 50.554 164.594 52.5301 166.485C54.5061 168.376 57.1196 169.12 59.6481 168.759C59.3719 171.287 60.1793 173.901 62.1553 175.792C63.0884 176.691 64.2154 177.363 65.4496 177.758C66.6837 178.151 67.992 178.257 69.2733 178.065C68.9971 180.594 69.8045 183.207 71.7806 185.098C73.7566 186.989 76.3701 187.733 78.8986 187.372C78.6224 189.9 79.4298 192.514 81.4059 194.405C83.3819 196.296 85.9954 197.04 88.5239 196.678C88.2476 199.207 89.0551 201.82 91.0311 203.711C93.0071 205.602 95.6206 206.346 98.1491 205.985C97.8729 208.513 98.6803 211.127 100.656 213.018C101.458 213.796 102.405 214.408 103.444 214.82C104.483 215.231 105.592 215.434 106.709 215.416C107.826 215.398 108.929 215.16 109.954 214.716C110.979 214.271 111.906 213.63 112.683 212.827L133.505 191.324L34.7882 95.709L13.8379 117.233Z" fill="#822322"/>
<path d="M15.5645 115.449C14.7865 116.25 14.1741 117.198 13.7626 118.236C13.3511 119.275 13.1484 120.384 13.1661 121.501C13.1839 122.619 13.4218 123.721 13.8661 124.746C14.3104 125.771 14.9526 126.698 15.7557 127.475C16.6887 128.373 17.8159 129.047 19.05 129.44C20.2842 129.834 21.5924 129.94 22.8737 129.749C22.5975 132.277 23.4049 134.89 25.3809 136.782C26.314 137.68 27.4411 138.353 28.6753 138.747C29.9094 139.141 31.2176 139.246 32.4989 139.055C32.2227 141.584 33.0301 144.197 35.0062 146.088C35.9392 146.986 37.0664 147.66 38.3005 148.053C39.5347 148.447 40.8428 148.553 42.1242 148.362C41.848 150.89 42.6554 153.504 44.6314 155.395C45.5644 156.293 46.6916 156.966 47.9257 157.36C49.1599 157.754 50.4681 157.859 51.7494 157.668C51.4732 160.197 52.2806 162.81 54.2566 164.701C55.1897 165.599 56.3168 166.273 57.551 166.666C58.7851 167.06 60.0933 167.166 61.3746 166.975C61.0984 169.503 61.9059 172.117 63.882 174.008C65.858 175.899 68.4714 176.642 70.9999 176.281C70.7237 178.81 71.5311 181.423 73.5071 183.314C74.4401 184.212 75.5673 184.886 76.8015 185.279C78.0354 185.673 79.3434 185.779 80.6251 185.588C80.3489 188.116 81.1563 190.73 83.1323 192.621C85.1084 194.512 87.7219 195.255 90.2503 194.894C89.9741 197.423 90.7815 200.036 92.7576 201.927C93.6908 202.826 94.8178 203.499 96.0518 203.892C97.2859 204.287 98.5939 204.392 99.8756 204.201C99.5994 206.729 100.407 209.343 102.383 211.234C103.184 212.011 104.132 212.624 105.171 213.035C106.209 213.447 107.318 213.65 108.436 213.632C109.553 213.614 110.655 213.376 111.68 212.932C112.705 212.487 113.632 211.846 114.409 211.042L135.232 189.54L36.5148 93.9248L15.5645 115.449Z" fill="#FFF3E0"/>
<path d="M21.3818 109.287L120.078 204.881L135.079 189.54L36.3615 93.9248L21.3818 109.287Z" fill="#FFCC80"/>
<path d="M44.0737 110.731L28.9666 126.327C28.3079 127.007 27.203 127.029 26.5231 126.37L24.1221 124.033C23.7948 123.713 23.6068 123.277 23.5989 122.82C23.5909 122.363 23.7636 121.921 24.0796 121.589L39.1868 105.993C39.8454 105.313 40.9503 105.292 41.6303 105.951L44.0313 108.288C44.7112 108.947 44.7324 110.052 44.0737 110.731ZM50.6393 117.106L35.5322 132.702C34.8735 133.382 33.7686 133.403 33.0887 132.744L30.6877 130.407C30.3604 130.087 30.1724 129.651 30.1645 129.194C30.1565 128.737 30.3292 128.295 30.6452 127.963L45.7523 112.368C46.411 111.688 47.5159 111.666 48.1958 112.325L50.5968 114.662C51.2767 115.321 51.298 116.405 50.6393 117.106ZM63.7704 129.833L48.6633 145.429C48.0046 146.109 46.8997 146.13 46.2198 145.472L43.8188 143.134C43.4915 142.815 43.3035 142.379 43.2956 141.921C43.2876 141.464 43.4603 141.022 43.7763 140.691L58.8834 125.095C59.5421 124.415 60.647 124.394 61.3269 125.052L63.7279 127.39C63.8946 127.545 64.0282 127.733 64.1208 127.941C64.2135 128.15 64.2633 128.375 64.2673 128.603C64.2712 128.83 64.2293 129.057 64.144 129.269C64.0585 129.48 63.9316 129.672 63.7704 129.833ZM70.3572 136.186L55.2501 151.782C54.5914 152.462 53.4865 152.483 52.8066 151.825L50.4056 149.487C50.0783 149.168 49.8903 148.732 49.8824 148.275C49.8744 147.817 50.0471 147.375 50.3631 147.044L65.4702 131.448C66.1289 130.768 67.2338 130.747 67.9137 131.406L70.3147 133.743C70.9947 134.423 71.0159 135.506 70.3572 136.186ZM76.9228 142.561L61.8156 158.156C61.1569 158.836 60.0521 158.858 59.3721 158.199L56.9711 155.862C56.6438 155.542 56.4558 155.106 56.4479 154.649C56.4399 154.192 56.6126 153.75 56.9286 153.418L72.0358 137.822C72.6945 137.142 73.7994 137.121 74.4793 137.78L76.8803 140.117C77.5602 140.776 77.5815 141.881 76.9228 142.561ZM90.054 155.288L74.968 170.884C74.3093 171.564 73.2044 171.585 72.5245 170.926L70.1235 168.589C69.7962 168.27 69.6082 167.834 69.6003 167.376C69.5923 166.919 69.765 166.477 70.081 166.146L85.1882 150.55C85.8469 149.87 86.9518 149.849 87.6317 150.507L90.0327 152.845C90.7127 153.503 90.7339 154.608 90.054 155.288ZM96.6408 161.641L81.5336 177.237C80.8749 177.917 79.7701 177.938 79.0901 177.279L76.6891 174.942C76.3618 174.623 76.1738 174.187 76.1659 173.729C76.1579 173.272 76.3306 172.83 76.6466 172.499L91.7538 156.903C92.4125 156.223 93.5174 156.202 94.1973 156.86L96.5983 159.198C97.2782 159.878 97.2995 160.961 96.6408 161.641ZM109.772 174.39L94.6647 189.986C94.0061 190.666 92.9012 190.687 92.2213 190.028L89.8203 187.691C89.493 187.371 89.3052 186.935 89.2967 186.478C89.2891 186.021 89.4616 185.579 89.7778 185.247L104.885 169.652C105.544 168.972 106.648 168.95 107.328 169.609L109.729 171.946C109.896 172.102 110.029 172.29 110.122 172.498C110.215 172.706 110.265 172.931 110.268 173.159C110.273 173.387 110.231 173.614 110.145 173.825C110.06 174.036 109.933 174.228 109.772 174.39ZM116.359 180.743L101.252 196.339C100.593 197.019 99.488 197.04 98.8081 196.381L96.4071 194.044C96.0798 193.724 95.892 193.288 95.8835 192.831C95.8759 192.374 96.0484 191.932 96.3646 191.6L111.472 176.005C112.13 175.325 113.235 175.303 113.915 175.962L116.316 178.299C116.996 178.958 117.017 180.063 116.359 180.743ZM122.924 187.117L107.817 202.713C107.158 203.393 106.054 203.414 105.374 202.756L102.973 200.418C102.645 200.099 102.458 199.663 102.449 199.205C102.441 198.748 102.614 198.306 102.93 197.975L118.037 182.379C118.696 181.699 119.801 181.678 120.481 182.336L122.882 184.674C123.562 185.332 123.583 186.416 122.924 187.117Z" fill="#6D4238"/>
<path d="M151.186 185.01L133.657 203.113C132.481 204.327 130.872 205.025 129.183 205.053C127.494 205.08 125.862 204.437 124.648 203.262L22.9984 104.779C21.7847 103.603 21.0873 101.994 21.0595 100.305C21.0315 98.616 21.6754 96.985 22.8496 95.7697L40.379 77.6666C41.5544 76.4529 43.1635 75.756 44.8528 75.7279C46.542 75.6999 48.1733 76.3441 49.3881 77.5178L151.059 175.98C151.66 176.565 152.141 177.262 152.474 178.032C152.806 178.802 152.983 179.63 152.995 180.469C153.007 181.307 152.853 182.14 152.543 182.919C152.232 183.699 151.772 184.409 151.186 185.01Z" fill="#CF381A"/>
<path d="M141.651 181.422L129.922 193.533C128.746 194.747 127.138 195.444 125.448 195.472C123.759 195.5 122.127 194.856 120.913 193.682L28.4427 104.123C27.2291 102.947 26.5317 101.339 26.5038 99.6489C26.4759 97.9593 27.1198 96.3283 28.294 95.1138L40.0227 83.0026C41.1981 81.7889 42.8072 81.0911 44.4965 81.0631C46.1858 81.0359 47.817 81.6793 49.0318 82.8538L141.481 172.413C142.09 172.989 142.578 173.681 142.917 174.449C143.256 175.216 143.439 176.043 143.454 176.882C143.47 177.721 143.319 178.554 143.01 179.333C142.699 180.112 142.238 180.823 141.651 181.422ZM229.361 153.354L214.913 153.035C211.445 152.956 208.151 151.504 205.753 148.998C203.355 146.493 202.049 143.138 202.122 139.67L204.757 20.4703C204.927 13.246 210.897 7.53037 218.121 7.67911L232.57 7.99782C239.794 8.16781 245.51 14.1384 245.361 21.3627L242.726 140.563C242.647 144.03 241.196 147.325 238.69 149.722C236.184 152.121 232.829 153.427 229.361 153.354Z" fill="#FF5722"/>
<path d="M214.314 68.2338C216.872 68.2338 218.946 66.16 218.946 63.6017C218.946 61.0435 216.872 58.9697 214.314 58.9697C211.755 58.9697 209.682 61.0435 209.682 63.6017C209.682 66.16 211.755 68.2338 214.314 68.2338Z" fill="#6D4238"/>
<path d="M213.824 88.0375C216.383 88.0375 218.456 85.9637 218.456 83.4054C218.456 80.8472 216.383 78.7734 213.824 78.7734C211.266 78.7734 209.192 80.8472 209.192 83.4054C209.192 85.9637 211.266 88.0375 213.824 88.0375Z" fill="#6D4238"/>
<path d="M213.335 107.841C215.893 107.841 217.967 105.767 217.967 103.209C217.967 100.65 215.893 98.5767 213.335 98.5767C210.777 98.5767 208.703 100.65 208.703 103.209C208.703 105.767 210.777 107.841 213.335 107.841Z" fill="#6D4238"/>
<path d="M212.845 127.624C215.403 127.624 217.477 125.55 217.477 122.992C217.477 120.434 215.403 118.36 212.845 118.36C210.287 118.36 208.213 120.434 208.213 122.992C208.213 125.55 210.287 127.624 212.845 127.624Z" fill="#6D4238"/>
<path d="M235.985 48.1976C238.543 48.1976 240.617 46.1238 240.617 43.5656C240.617 41.0074 238.543 38.9336 235.985 38.9336C233.427 38.9336 231.353 41.0074 231.353 43.5656C231.353 46.1238 233.427 48.1976 235.985 48.1976Z" fill="#6D4238"/>
<path d="M235.495 68.0013C238.054 68.0013 240.127 65.9275 240.127 63.3693C240.127 60.8111 238.054 58.7373 235.495 58.7373C232.937 58.7373 230.863 60.8111 230.863 63.3693C230.863 65.9275 232.937 68.0013 235.495 68.0013Z" fill="#6D4238"/>
<path d="M235.006 87.784C237.564 87.784 239.638 85.7103 239.638 83.152C239.638 80.5938 237.564 78.52 235.006 78.52C232.447 78.52 230.374 80.5938 230.374 83.152C230.374 85.7103 232.447 87.784 235.006 87.784Z" fill="#6D4238"/>
<path d="M234.5 107.583C237.058 107.583 239.132 105.51 239.132 102.951C239.132 100.393 237.058 98.3193 234.5 98.3193C231.941 98.3193 229.868 100.393 229.868 102.951C229.868 105.51 231.941 107.583 234.5 107.583Z" fill="#6D4238"/>
<path d="M225.154 58.2285C227.712 58.2285 229.786 56.1547 229.786 53.5964C229.786 51.0382 227.712 48.9644 225.154 48.9644C222.596 48.9644 220.522 51.0382 220.522 53.5964C220.522 56.1547 222.596 58.2285 225.154 58.2285Z" fill="#6D4238"/>
<path d="M224.664 78.0067C227.222 78.0067 229.296 75.9329 229.296 73.3747C229.296 70.8165 227.222 68.7427 224.664 68.7427C222.106 68.7427 220.032 70.8165 220.032 73.3747C220.032 75.9329 222.106 78.0067 224.664 78.0067Z" fill="#6D4238"/>
<path d="M224.174 97.8104C226.733 97.8104 228.807 95.7366 228.807 93.1784C228.807 90.6202 226.733 88.5464 224.174 88.5464C221.616 88.5464 219.542 90.6202 219.542 93.1784C219.542 95.7366 221.616 97.8104 224.174 97.8104Z" fill="#6D4238"/>
<path d="M223.685 117.614C226.243 117.614 228.317 115.54 228.317 112.982C228.317 110.424 226.243 108.35 223.685 108.35C221.127 108.35 219.053 110.424 219.053 112.982C219.053 115.54 221.127 117.614 223.685 117.614Z" fill="#6D4238"/>
</svg>
