<svg width="257" height="257" viewBox="0 0 257 257" fill="none" xmlns="http://www.w3.org/2000/svg">
<path d="M255.19 256.044C170.085 256.044 85.0734 256.044 0.0618381 256.044C0.0550593 256.021 0.0423394 255.998 0.0423394 255.976C0.0414992 170.669 0.0415039 85.3621 0.0415039 0.0441895C85.3704 0.0441895 170.7 0.0441895 256.041 0.0441895C256.041 85.3608 256.041 170.688 256.041 256.044C255.797 256.044 255.541 256.044 255.19 256.044ZM211.171 167.338C210.763 166.872 210.377 166.384 209.943 165.943C205.136 161.055 199.083 160.036 192.638 160.618C187.048 161.123 182.261 163.583 178.122 167.338C177.898 167.54 177.654 167.72 177.332 167.982C177.332 167.459 177.353 167.078 177.329 166.699C177.208 164.842 176.336 163.434 174.684 162.587C173.065 161.758 171.409 161.837 169.882 162.813C168.184 163.898 167.604 165.566 167.606 167.526C167.618 182.209 167.613 196.892 167.613 211.575C167.613 212.491 167.594 213.408 167.617 214.323C167.673 216.68 168.923 218.547 170.821 219.145C174.15 220.193 177.327 217.884 177.331 214.373C177.345 204.298 177.342 194.224 177.332 184.149C177.33 181.312 178.047 178.711 179.857 176.496C184.073 171.334 189.534 169.154 196.139 169.907C199.357 170.274 201.956 171.767 203.739 174.524C205.412 177.111 205.986 180.032 206.009 183.04C206.072 191.34 206.047 199.642 206.056 207.944C206.059 210.218 206.021 212.494 206.065 214.768C206.135 218.325 209.958 220.527 213.089 218.837C215.08 217.762 215.788 216.005 215.785 213.835C215.773 204.41 215.801 194.986 215.765 185.561C215.756 183.323 215.681 181.071 215.421 178.851C214.939 174.733 213.796 170.82 211.171 167.338ZM149.887 162.076C149.302 162.118 148.693 162.069 148.137 162.217C145.817 162.834 144.54 164.677 144.538 167.354C144.532 176.956 144.552 186.559 144.52 196.161C144.514 197.749 144.431 199.361 144.151 200.919C143.411 205.032 141.206 208.113 137.248 209.674C133.392 211.195 129.422 211.247 125.43 210.164C122.402 209.342 120.08 207.604 118.564 204.844C117.477 202.865 116.948 200.707 116.909 198.476C116.829 193.957 116.856 189.436 116.851 184.915C116.845 179.066 116.859 173.215 116.845 167.365C116.839 164.484 114.925 162.222 112.422 162.075C109.32 161.894 107.134 164.006 107.131 167.239C107.12 177.107 107.107 186.975 107.137 196.843C107.149 200.371 107.527 203.851 108.871 207.172C111.418 213.472 116.173 217.275 122.553 219.126C126.568 220.291 130.704 220.361 134.848 219.874C138.05 219.497 141.111 218.623 143.899 217.003C150.484 213.176 153.834 207.226 154.047 199.796C154.358 188.903 154.231 177.996 154.243 167.095C154.246 164.359 152.637 162.544 149.887 162.076Z" fill="#ECDC5A"/>
<path d="M211.206 167.391C213.796 170.819 214.939 174.733 215.421 178.85C215.681 181.071 215.756 183.323 215.765 185.561C215.801 194.986 215.773 204.41 215.785 213.834C215.788 216.005 215.081 217.762 213.089 218.837C209.958 220.527 206.135 218.325 206.066 214.768C206.021 212.494 206.059 210.218 206.056 207.943C206.047 199.642 206.072 191.34 206.009 183.039C205.986 180.032 205.413 177.111 203.739 174.523C201.956 171.766 199.357 170.273 196.139 169.907C189.534 169.155 184.073 171.334 179.856 176.495C178.047 178.711 177.329 181.312 177.332 184.15C177.342 194.224 177.345 204.298 177.331 214.372C177.327 217.884 174.151 220.193 170.821 219.145C168.923 218.547 167.674 216.68 167.617 214.323C167.595 213.407 167.613 212.491 167.613 211.575C167.613 196.892 167.619 182.209 167.606 167.525C167.605 165.565 168.184 163.898 169.882 162.813C171.41 161.837 173.065 161.758 174.684 162.587C176.336 163.434 177.208 164.841 177.329 166.699C177.353 167.077 177.332 167.459 177.332 167.982C177.654 167.72 177.898 167.54 178.122 167.337C182.26 163.583 187.049 161.123 192.638 160.618C199.083 160.036 205.136 161.055 209.943 165.943C210.377 166.384 210.763 166.872 211.206 167.391Z" fill="#111827"/>
<path d="M149.966 162.08C152.637 162.544 154.246 164.359 154.242 167.095C154.231 177.996 154.358 188.903 154.047 199.796C153.834 207.226 150.484 213.176 143.899 217.003C141.111 218.623 138.05 219.497 134.848 219.874C130.704 220.362 126.568 220.291 122.553 219.126C116.173 217.275 111.418 213.472 108.871 207.172C107.527 203.851 107.149 200.372 107.137 196.843C107.107 186.975 107.12 177.107 107.131 167.239C107.134 164.006 109.32 161.894 112.422 162.076C114.925 162.222 116.839 164.485 116.845 167.365C116.859 173.215 116.844 179.065 116.851 184.915C116.856 189.436 116.829 193.957 116.909 198.476C116.948 200.707 117.477 202.866 118.564 204.844C120.08 207.605 122.402 209.342 125.43 210.164C129.422 211.248 133.392 211.195 137.248 209.674C141.206 208.114 143.411 205.032 144.151 200.919C144.431 199.361 144.514 197.749 144.519 196.161C144.552 186.559 144.532 176.957 144.538 167.355C144.54 164.677 145.817 162.834 148.137 162.217C148.693 162.069 149.302 162.118 149.966 162.08Z" fill="#111827"/>
</svg>
