<svg width="248" height="257" viewBox="0 0 248 257" fill="none" xmlns="http://www.w3.org/2000/svg">
<path d="M58.2257 120.013C57.3305 119.117 2.82876 107.117 2.82876 107.117C2.82876 107.117 -0.347138 112.211 0.569395 115.217C1.08095 116.901 12.9746 130.734 25.2092 143.459C34.8648 153.519 45.8419 163.75 47.4405 169.591C49.8917 178.585 50.1474 193.015 50.1474 193.015L14.6158 214.714C14.6158 214.714 18.964 236.839 47.1421 235.965C73.4658 235.155 74.83 207.275 83.1854 207.126C84.5921 207.104 86.5318 206.614 90.0061 210.344C98.6172 219.595 114.731 237.457 120.124 242.871C127.328 250.075 132.444 257.279 135.151 256.981C137.858 256.683 160.686 236.263 167.293 229.954C173.901 223.645 179.912 216.142 179.912 209.833C179.912 203.524 170.597 198.728 170.597 198.728L119.229 204.739L58.2257 120.013ZM209.305 38.6329C210.2 38.6329 233.028 27.2295 233.028 27.2295C233.028 27.2295 244.751 50.9529 229.724 64.4664C214.697 77.9799 211.393 70.328 204.189 78.2783C198.69 84.353 201.482 96.9073 201.482 96.9073L246.136 139.835C246.136 139.835 248.63 144.375 246.84 147.679C245.561 150.024 230.534 166.841 218.896 178.926C213.653 184.362 206.342 186.195 202.377 185.236C192.466 182.827 190.974 175.026 189.162 161.214C187.35 147.402 175.457 147.615 171.13 148.297C162.007 149.747 156.06 155.075 156.06 155.075C156.06 155.075 102.347 90.3424 102.944 88.5306C103.541 86.7189 105.651 73.2054 99.3419 67.5143C93.0328 61.802 80.4358 58.9032 75.6186 55.5994C70.8227 52.2956 70.1833 46.0078 71.0572 39.9118C71.9311 33.8157 110.767 33.8797 110.767 33.8797C110.767 33.8797 177.737 70.8181 178.057 69.3261C178.356 67.7488 209.305 38.6329 209.305 38.6329Z" fill="#B0B0AF"/>
<path d="M176.264 45.8146C177.884 39.8891 176.03 25.3312 187.348 15.6969C198.666 6.06265 216.272 7.25627 226.865 17.3808C237.459 27.5053 239.164 46.5393 226.631 59.0724C214.098 71.6054 208.322 64.6142 201.33 71.371C194.339 78.1278 195.554 83.6696 199.881 87.7621C204.229 91.8545 247.37 136.935 246.155 139.813C244.94 142.69 215.547 175.962 210.73 178.371C205.913 180.78 197.472 180.545 195.788 172.595C194.105 164.644 197.003 148.744 184.939 144.63C172.896 140.537 167.589 143.905 155.781 156.438C143.972 168.971 138.665 182.698 148.299 189.689C157.934 196.68 169.998 193.782 174.815 201.988C179.632 210.194 172.406 217.654 159.639 229.462C146.871 241.271 136.981 250.905 135.297 249.711C133.613 248.496 96.9734 209.704 93.3712 205.611C89.7477 201.519 82.7565 197.895 76.021 204.162C69.2642 210.428 68.0706 230.912 39.6367 230.912C11.2029 230.912 7.79251 200.069 17.917 187.302C28.0415 174.534 50.4433 173.319 50.9335 164.644C51.1467 160.658 38.8481 149.916 27.807 138.385C14.8264 124.807 2.76223 110.42 2.25068 108.736C1.29151 105.603 29.2351 78.1278 34.5425 74.2698C39.8499 70.4118 45.8606 72.8204 48.7594 75.9536C51.6582 79.087 52.3829 88.7212 54.7915 94.2631C57.2 99.8049 68.5182 123.912 95.7585 96.4372C122.743 69.1969 97.2079 57.3885 88.5328 54.98C79.8577 52.5714 73.6124 51.7827 71.1825 42.9371C69.2642 35.9459 79.8577 27.761 90.9413 17.1463C102.025 6.53157 108.526 0.989746 111.425 0.989746C114.324 0.989746 153.116 42.6813 158.189 47.4985C163.262 52.3156 166.374 53.5305 169.998 52.5501C173.6 51.6122 175.54 48.479 176.264 45.8146Z" fill="url(#paint0_radial_23_1773)"/>
<defs>
<radialGradient id="paint0_radial_23_1773" cx="0" cy="0" r="1" gradientUnits="userSpaceOnUse" gradientTransform="translate(120.957 -67.7716) scale(254.124 254.124)">
<stop offset="0.508" stop-color="#B7D118"/>
<stop offset="0.572" stop-color="#B2D019"/>
<stop offset="0.643" stop-color="#A5CD1D"/>
<stop offset="0.717" stop-color="#8FC922"/>
<stop offset="0.793" stop-color="#70C22A"/>
<stop offset="0.871" stop-color="#48BA34"/>
<stop offset="0.949" stop-color="#18B040"/>
<stop offset="0.981" stop-color="#02AB46"/>
</radialGradient>
</defs>
</svg>
