<svg width="256" height="256" viewBox="0 0 256 256" fill="none" xmlns="http://www.w3.org/2000/svg">
<path d="M128 256C198.693 256 256 198.693 256 128C256 57.3076 198.693 0 128 0C57.3076 0 0 57.3076 0 128C0 198.693 57.3076 256 128 256Z" fill="#455A64"/>
<path d="M64.8139 136.554C102.083 114.324 160.793 118.89 190.723 134.164C204.569 141.226 211.331 148.863 228.526 157.972C243.118 165.716 245.187 159.466 246.083 156.479C249.049 146.026 248.494 139.391 248.494 127.978C248.515 61.439 194.563 3.7749 128.003 3.7749C61.4432 3.7749 7.49121 61.4389 7.49121 127.999C7.49121 137.194 7.49121 140.458 9.43254 149.055C15.1072 168.106 46.3605 147.562 64.8139 136.554Z" fill="black"/>
<path d="M213.442 223.06L184.279 188.436L166.509 187.433L190.615 239.636C190.615 239.636 193.794 237.652 202.221 232.19C210.669 226.75 213.442 223.06 213.442 223.06Z" fill="#82AEC0"/>
<path d="M172.269 183.871L204.119 230.911C204.119 230.911 198.509 234.985 196.717 235.967C194.925 236.969 190.573 239.679 190.573 239.679L166.509 187.455L172.269 183.871Z" fill="#263238"/>
<path d="M42.583 223.06L71.7457 188.436L89.5164 187.433L65.4097 239.636C65.4097 239.636 62.231 237.652 53.8043 232.19C45.3563 226.75 42.583 223.06 42.583 223.06Z" fill="#82AEC0"/>
<path d="M83.7511 183.871L51.9004 230.911C51.9004 230.911 57.5111 234.985 59.3031 235.967C61.0951 236.969 65.4471 239.679 65.4471 239.679L89.5111 187.433L83.7511 183.871Z" fill="#263238"/>
<path d="M60.1162 188.992C60.2442 193.792 60.7135 199.018 61.8015 204.074C62.1429 205.674 63.0602 207.338 64.5962 207.338H68.7562C70.3136 207.338 71.8709 206.528 74.4309 211.861C75.1349 213.354 76.0735 214.272 77.0121 214.741V214.805C112.084 227.178 159.956 221.76 177.385 215.018C178.815 215.53 181.097 214.848 182.505 211.861C185.065 206.506 186.644 207.338 188.18 207.338H192.34C193.876 207.338 194.793 205.674 195.135 204.074C196.223 199.018 196.692 193.77 196.82 188.992H60.1162Z" fill="black"/>
<path d="M199.726 190.295H56.2804C55.0413 190.295 53.8529 189.803 52.9767 188.927C52.1006 188.051 51.6084 186.863 51.6084 185.624V162.583H204.355V185.624C204.376 188.205 202.286 190.295 199.726 190.295Z" fill="#82AEC0"/>
<path d="M204.419 166.933H51.6084V173.333H106.392V184.341H148.142V173.333H204.419V166.933Z" fill="#37474F"/>
<path d="M203.006 167.596H52.9903C51.1769 167.596 49.6836 166.188 49.6836 164.439V83.0524C49.6836 52.9296 61.1823 25.5376 117.801 25.5376H139.753C189.502 25.5376 206.292 52.9296 206.292 83.0524V164.439C206.292 166.188 204.82 167.596 203.006 167.596Z" fill="#F44336"/>
<path d="M49.75 79.8311C49.75 90.8604 59.8833 93.2498 59.8833 93.2498L99.0088 93.1431L117.249 93.1218H121.366L129.43 93.1004L146.859 93.0578L196.246 92.9511C196.246 92.9511 206.251 89.7724 206.251 79.8311C206.251 69.8899 203.393 24.8979 139.777 25.5166H117.803C49.7713 24.6633 49.75 68.8019 49.75 79.8311Z" fill="#82AEC0"/>
<path d="M143.058 161.066H112.935C110.983 161.066 109.111 160.29 107.731 158.91C106.351 157.529 105.575 155.658 105.575 153.706V74.6018C105.575 70.5484 108.861 67.2417 112.935 67.2417H143.079C147.133 67.2417 150.439 70.5271 150.439 74.6018V153.706C150.434 155.66 149.654 157.532 148.27 158.912C146.887 160.292 145.012 161.067 143.058 161.066Z" fill="#F44336" stroke="#9B1313" stroke-width="4.26667" stroke-miterlimit="10"/>
<path d="M95.6591 40.854C98.4538 40.854 99.5204 42.4967 99.5204 44.5447V123.948C99.5204 125.996 97.7924 127.638 95.6591 127.638H63.9365C61.8032 127.638 60.0752 125.996 60.0752 123.948V83.2222C60.0752 45.27 88.8538 40.854 95.6591 40.854ZM138.859 73.7287H117.142C114.006 73.7287 111.467 76.2673 111.467 79.4035V122.198C111.467 125.334 114.006 127.873 117.142 127.873H138.838C141.974 127.873 144.512 125.334 144.512 122.198V79.4035C144.512 76.2673 141.974 73.7287 138.859 73.7287Z" fill="#BAE2FD"/>
<path d="M95.6591 40.854C98.4538 40.854 99.5204 42.4967 99.5204 44.5447V123.948C99.5204 125.996 97.7924 127.638 95.6591 127.638H63.9365C61.8032 127.638 60.0752 125.996 60.0752 123.948V83.2222C60.0752 45.27 88.8538 40.854 95.6591 40.854ZM138.859 73.7287H117.142C114.006 73.7287 111.467 76.2673 111.467 79.4035V122.198C111.467 125.334 114.006 127.873 117.142 127.873H138.838C141.974 127.873 144.512 125.334 144.512 122.198V79.4035C144.512 76.2673 141.974 73.7287 138.859 73.7287Z" fill="#37474F"/>
<path d="M144.317 57.9609H111.677C108.391 57.9609 105.725 55.2943 105.725 52.0089V45.8436C105.725 42.5583 108.391 39.8916 111.677 39.8916H144.317C147.602 39.8916 150.269 42.5583 150.269 45.8436V52.0089C150.269 55.3156 147.602 57.9609 144.317 57.9609Z" fill="black"/>
<path d="M110.783 44.6919H117.183V53.1826H110.783V44.6919ZM138.815 44.6919H145.215V53.1826H138.815V44.6919ZM120.597 44.6919H124.821V53.1826H120.597V44.6919ZM132.714 44.6919H135.679V53.1826H132.714V44.6919Z" fill="#FFEB3B"/>
<path d="M93.3739 47.1665C95.6779 47.1665 96.5526 48.5318 96.5526 50.2172V118.889C96.5526 120.574 95.1233 121.94 93.3739 121.94H67.9873C66.2379 121.94 64.8086 120.574 64.8086 118.889V83.5396C64.8086 52.2652 87.7633 47.1665 93.3739 47.1665ZM137.15 78.7822H119.443C117.097 78.7822 115.177 80.7022 115.177 83.0489V118.42C115.177 120.766 117.097 122.686 119.443 122.686H137.15C139.497 122.686 141.417 120.766 141.417 118.42V83.0489C141.417 80.7022 139.497 78.7822 137.15 78.7822Z" fill="#BAE2FD"/>
<path d="M69.7624 156.778C75.3471 156.778 79.8745 152.251 79.8745 146.666C79.8745 141.081 75.3471 136.554 69.7624 136.554C64.1777 136.554 59.6504 141.081 59.6504 146.666C59.6504 152.251 64.1777 156.778 69.7624 156.778Z" fill="#FFFF8D"/>
<path d="M186.303 156.778C191.888 156.778 196.415 152.251 196.415 146.666C196.415 141.081 191.888 136.554 186.303 136.554C180.718 136.554 176.191 141.081 176.191 146.666C176.191 152.251 180.718 156.778 186.303 156.778Z" fill="#FFFF8D"/>
<path d="M161.661 40.854C158.866 40.854 157.8 42.4967 157.8 44.5447V123.948C157.8 125.996 159.528 127.638 161.661 127.638H193.384C195.517 127.638 197.245 125.996 197.245 123.948V83.2222C197.266 45.27 168.488 40.854 161.661 40.854Z" fill="#37474F"/>
<path d="M163.971 47.1665C161.667 47.1665 160.792 48.5318 160.792 50.2172V118.889C160.792 120.574 162.221 121.94 163.971 121.94H189.357C191.107 121.94 192.536 120.574 192.536 118.889V83.5396C192.536 52.2652 169.581 47.1665 163.971 47.1665Z" fill="#BAE2FD"/>
<path d="M64.917 79.8095L96.5542 111.447V96.3855L67.413 67.2443C67.413 67.2443 66.325 69.8683 65.5997 73.4309C65.0237 76.1616 64.917 79.8095 64.917 79.8095ZM160.768 79.7028L192.533 111.447V96.3855L160.789 64.6416L160.768 79.7028ZM115.178 82.7535L141.418 108.994V93.9322L125.674 78.7855H119.125C116.949 78.7855 115.178 80.5562 115.178 82.7535Z" fill="white"/>
<path d="M88.2956 210.985L91.1543 205.737C91.7943 204.564 93.0316 203.817 94.3756 203.817H158.44C159.805 203.817 161.064 204.585 161.682 205.78L164.477 211.134C164.618 211.41 164.686 211.717 164.675 212.027C164.664 212.337 164.574 212.638 164.414 212.903C164.253 213.168 164.028 213.388 163.759 213.541C163.49 213.694 163.187 213.776 162.877 213.78L89.8743 213.652C89.5619 213.651 89.2547 213.57 88.9834 213.414C88.712 213.259 88.4859 213.036 88.3263 212.768C88.1676 212.499 88.0806 212.192 88.0754 211.88C88.0703 211.568 88.1454 211.26 88.2956 210.985Z" fill="#424242"/>
<path d="M177.257 239.38L78.8255 238.292C76.8628 238.27 75.6255 236.457 76.5215 234.964L80.2121 228.841C81.0015 227.54 82.5375 226.729 84.2228 226.729H172.116C173.929 226.729 175.572 227.668 176.276 229.118L179.711 236.201C180.457 237.737 179.156 239.401 177.257 239.38Z" fill="#82AEC0"/>
</svg>
