<svg width="201" height="257" viewBox="0 0 201 257" fill="none" xmlns="http://www.w3.org/2000/svg">
<path d="M34.8456 233.592L16.8086 243.189V200.002L39.3442 223.995L34.8456 233.592Z" fill="#633D35"/>
<path d="M169.157 33.7041C169.157 40.1734 170.25 79.7394 170.25 79.7394C170.25 79.7394 170.806 83.9809 173.998 85.0519C176.098 85.7589 180.682 84.2593 186.273 79.8893C187.023 79.3109 188.03 79.2252 188.844 79.6965C190.986 80.9818 195.591 83.4882 198.483 91.0929C201.675 99.4902 201.075 106.559 200.583 109.558C200.411 110.565 199.94 111.486 199.362 112.215C194.156 118.641 168.107 152.016 168.107 173.224C168.107 173.224 168.536 204.178 168.536 222.386C168.536 238.988 140.495 252.848 103.221 256.061L82.4207 250.342L58.4284 254.647C50.8023 253.469 43.6903 251.841 37.3067 249.827L21.3047 204.799L16.8062 243.187C16.8062 243.187 4.78859 230.869 4.78859 222.386C4.78859 204.028 0.290039 33.8112 0.290039 33.8112L169.157 33.7041Z" fill="#AD7156"/>
<path d="M55.6416 67.188C54.9347 79.0983 53.6923 90.9016 52.3641 102.684L50.3719 120.314C49.7507 126.183 48.9367 131.988 49.108 137.622C49.108 143.406 49.3865 149.319 49.6864 155.209L50.479 172.947C50.9931 184.793 51.443 196.639 51.3573 208.571C48.7867 196.917 46.9659 185.157 45.4878 173.354C44.0311 161.529 42.8957 149.747 42.6815 137.644C42.6387 131.41 43.5384 125.412 44.3524 119.521C45.295 113.63 46.2375 107.76 47.4157 101.934C49.7078 90.259 52.3213 78.6698 55.6416 67.188ZM27.7934 127.169C28.3718 128.668 28.436 130.296 28.6074 131.86C28.7145 133.445 28.8216 135.03 28.8645 136.615C28.9501 139.786 28.993 142.956 28.9501 146.127C28.9073 152.468 28.6717 158.787 28.3289 165.106C28.0076 171.426 27.5792 177.724 27.065 184.022C26.6152 190.32 25.9511 196.618 25.3299 202.916L25.2656 202.144L28.3075 213.305L31.1994 224.509C33.0631 232.006 34.8411 239.504 36.362 247.108C33.5344 239.911 30.9638 232.606 28.4789 225.301L24.8372 214.312L21.3669 203.323L21.2598 202.98L21.3026 202.573C21.8381 196.296 22.288 189.998 22.8878 183.7C23.4234 177.424 24.0232 171.126 24.6444 164.849L26.5509 146.02L27.4721 136.594C27.622 135.03 27.7505 133.445 27.8576 131.881C27.9005 130.317 28.1147 128.732 27.7934 127.169ZM80.2766 196.789V250.343L97.4139 254.627C97.4139 254.627 86.7031 222.495 80.2766 196.789Z" fill="#CE8963"/>
<path d="M144.543 160.373C156.711 132.632 199.554 102.685 199.554 102.685L200.818 101.764C201.053 105.534 200.861 108.276 200.518 109.775C200.368 110.439 199.875 111.532 199.532 111.939C195.42 116.994 168.107 151.398 168.107 173.205C168.107 173.205 168.535 204.159 168.535 222.368C168.535 230.529 159.538 241.754 140.259 248.181L148.827 186.058L129.548 205.337C129.548 205.359 135.996 179.888 144.543 160.373ZM170.249 78.3496C170.806 87.0254 176.847 85.0546 176.847 85.0546C169.906 88.3107 159.838 90.1316 154.011 86.2542C147.585 81.9699 144.543 59.7129 144.543 59.7129L148.827 46.8599L169.049 35.0137L170.249 78.3496Z" fill="#965B44"/>
<path d="M80.2353 0.115234C37.2849 1.10063 3.16016 16.0958 3.16016 34.4542C3.16016 53.4552 39.6841 68.836 84.7339 68.836C129.784 68.836 166.308 53.4338 166.308 34.4542C166.308 16.1815 132.504 1.22916 89.8108 0.136657" fill="#FFCC80"/>
<path d="M80.2381 0.117319C64.8788 1.33835 49.5623 3.759 35.2741 9.02874C28.1621 11.6208 21.2214 14.834 15.4162 19.3111C12.5671 21.5604 9.9322 24.0882 8.19705 27.0015C6.39763 29.872 5.66929 33.0853 6.18341 36.17C6.69753 39.2333 8.43268 42.1466 10.8105 44.6316C13.1883 47.1165 16.0588 49.3229 19.1864 51.1652C25.4629 54.8711 32.5107 57.506 39.7083 59.4982C54.168 63.4826 69.3345 65.1535 84.4582 65.1321C99.5605 65.1749 114.748 63.5683 129.23 59.6267C136.427 57.6559 143.518 55.0639 149.816 51.4222C152.965 49.6014 155.899 47.4806 158.299 44.9957C160.719 42.5537 162.583 39.6832 163.183 36.6199C163.89 33.5566 163.161 30.3433 161.533 27.43C159.863 24.5166 157.313 21.9246 154.486 19.6539C148.766 15.0911 141.825 11.8564 134.735 9.22153C120.489 3.88753 105.173 1.42404 89.8136 0.138741C93.6695 0.074476 97.5254 0.0958976 101.403 0.224428C105.259 0.417223 109.136 0.738548 112.97 1.1884C120.661 2.13096 128.351 3.52337 135.87 5.75122C143.346 8.06476 150.758 11.0424 157.399 15.7337C160.719 18.0901 163.804 20.9606 166.118 24.6451C168.41 28.3082 169.716 33.0639 168.881 37.6267C168.153 42.2109 165.668 46.1311 162.84 49.2372C159.97 52.3862 156.628 54.8497 153.158 56.9919C146.217 61.2334 138.719 64.1253 131.136 66.396C115.884 70.766 100.139 72.4797 84.4368 72.544C68.7561 72.4155 52.9898 70.6803 37.759 66.2246C30.1757 63.9325 22.6995 60.9763 15.7803 56.692C12.3314 54.5284 9.03249 51.9792 6.18341 48.7874C3.39859 45.617 1.04221 41.5683 0.4424 36.984C0.163918 34.7133 0.313872 32.3784 0.892257 30.1719C1.44922 27.9655 2.47746 25.9733 3.65565 24.1524C6.03346 20.5108 9.20387 17.7474 12.5242 15.4124C19.2292 10.8282 26.6197 7.87197 34.1173 5.60127C41.6363 3.41626 49.3267 2.04527 57.0385 1.12414C60.8944 0.695705 64.7503 0.374379 68.6276 0.203005C72.5049 0.0316321 76.3822 0.0316322 80.2381 0.117319Z" fill="#CE8963"/>
<path d="M1.89648 28.7801C1.89648 43.8395 32.5937 56.0499 70.4886 56.0499C108.384 56.0499 139.081 43.8395 139.081 28.7801C139.081 13.7206 125.692 -3.65232 70.4886 1.48884C32.7651 5.02342 1.89648 13.6992 1.89648 28.7801Z" fill="url(#paint0_radial_23_1867)"/>
<path opacity="0.66" d="M21.5394 30.8584C21.518 33.836 23.2746 36.5137 25.3739 38.5916C27.5375 40.6481 30.1081 42.2547 32.7858 43.6043C38.1626 46.2606 43.968 47.9743 49.8161 49.3025C61.5552 51.766 73.5942 52.6443 85.5474 52.4943C97.5007 52.3444 109.497 51.1447 121.043 48.3171C126.784 46.8604 132.461 44.9967 137.645 42.319C140.216 40.9909 142.636 39.3628 144.628 37.4777C146.556 35.5498 147.992 33.2362 147.927 30.8798C147.906 28.5449 146.449 26.2956 144.478 24.4319C142.465 22.5896 140.044 21.0473 137.452 19.7834C132.268 17.2342 126.591 15.5205 120.85 14.1923C115.088 12.8642 109.218 11.9859 103.327 11.3861C97.4365 10.7435 91.4813 10.4436 85.5474 10.4007C73.6584 10.315 61.7051 10.9148 49.9875 13.1641C44.1608 14.3637 38.3554 15.9061 32.9572 18.4338C30.2794 19.7191 27.7088 21.2615 25.5024 23.2537C23.3817 25.2459 21.5822 27.8594 21.5394 30.8584ZM21.0681 30.8584C21.0253 27.688 22.8461 24.8818 24.9883 22.7396C27.1947 20.5974 29.7225 18.8409 32.4216 17.4056C37.777 14.4708 43.5395 12.3929 49.4091 10.7435C61.1482 7.48736 73.3585 5.88074 85.5474 5.75221C91.6526 5.73079 97.7578 5.98785 103.842 6.58765C109.925 7.2303 115.966 8.25854 121.943 9.71522C127.898 11.2362 133.789 13.1641 139.38 16.0775C142.165 17.5341 144.843 19.2907 147.242 21.5828C148.399 22.761 149.491 24.0892 150.327 25.6315C151.162 27.1739 151.698 28.9947 151.676 30.8584C151.655 32.7221 151.098 34.5215 150.241 36.0425C149.384 37.5634 148.292 38.8701 147.113 40.0055C144.714 42.2333 142.015 43.9256 139.209 45.2966C133.618 48.06 127.727 49.8594 121.772 51.2304C109.861 53.9081 97.6935 54.8935 85.5689 54.8078C73.4656 54.5936 61.3195 53.2869 49.6019 50.245C43.7538 48.7241 37.9698 46.7961 32.593 44.0113C29.8939 42.6403 27.3447 40.948 25.1168 38.8701C22.9532 36.7708 21.0895 34.0288 21.0681 30.8584Z" fill="#7F441C"/>
<path opacity="0.82" d="M35.9541 28.4559C35.9541 36.4034 56.6474 42.8513 82.1606 42.8513C107.674 42.8513 128.367 36.4034 128.367 28.4559C128.367 20.5085 107.674 14.0605 82.1606 14.0605C56.6474 14.0605 35.9541 20.5085 35.9541 28.4559ZM43.8372 28.4559C43.8372 22.5007 60.1605 17.6594 80.3183 17.6594C100.476 17.6594 116.799 22.5007 116.799 28.4559C116.799 34.4111 100.476 39.2524 80.3183 39.2524C60.1605 39.2524 43.8372 34.4111 43.8372 28.4559Z" fill="#B5772C"/>
<path opacity="0.74" d="M86.5161 32.0544C96.5603 32.0544 104.703 29.9061 104.703 27.256C104.703 24.6059 96.5603 22.4575 86.5161 22.4575C76.4719 22.4575 68.3291 24.6059 68.3291 27.256C68.3291 29.9061 76.4719 32.0544 86.5161 32.0544Z" fill="url(#paint1_linear_23_1867)"/>
<defs>
<radialGradient id="paint0_radial_23_1867" cx="0" cy="0" r="1" gradientUnits="userSpaceOnUse" gradientTransform="translate(83.7272 21.8606) rotate(180) scale(54.7132 43.6851)">
<stop offset="0.056" stop-color="#FFA726"/>
<stop offset="0.135" stop-color="#FFA726"/>
<stop offset="1" stop-color="#FFA726" stop-opacity="0.1"/>
</radialGradient>
<linearGradient id="paint1_linear_23_1867" x1="104.703" y1="27.2538" x2="68.3103" y2="27.2538" gradientUnits="userSpaceOnUse">
<stop stop-color="#8A5140"/>
<stop offset="1" stop-color="#8A5140"/>
</linearGradient>
</defs>
</svg>
