<svg width="121" height="256" viewBox="0 0 121 256" fill="none" xmlns="http://www.w3.org/2000/svg">
<path d="M16.8252 61.1566L18.527 194.855L107.382 194.28L105.681 56.2852L16.8252 61.1566Z" fill="white"/>
<path d="M15.6808 71.8334L37.2512 59.3677L87.114 60.5802L15.4043 109.72L15.6808 71.8334Z" fill="#D80D1A"/>
<path d="M16.8242 134.567L106.807 73.1533L106.233 114.294L16.5264 176.857L16.8242 134.567Z" fill="#1D86FA"/>
<path d="M31.1016 194.28L106.534 140.864L105.385 180.282L77.0928 200.576L31.1016 194.28Z" fill="#D80D1A"/>
<path d="M11.1084 60.5844L12.8315 196.856L21.1065 193.708L19.4047 57.436L11.1084 60.5844ZM101.963 58.2869L102.814 194.282L111.047 193.346L109.962 58.0104L101.963 58.2869Z" fill="#A1D2D6"/>
<path d="M10.0847 61.9437C11.4462 63.4541 107.875 62.2841 109.555 61.4332C111.236 60.5823 119.787 53.4985 119.128 42.1815C118.468 31.0134 110.746 27.4822 110.746 27.4822C110.746 27.4822 109.257 16.2928 96.3874 7.72001C87.2615 1.63607 75.434 -0.129573 60.5857 -0.00193736C44.2059 0.146987 28.8258 1.1468 19.0405 10.9322C9.638 20.3346 9.2551 29.5031 9.2551 29.5031C9.2551 29.5031 0.937537 32.0558 0.937537 44.564C0.916264 56.9021 10.0847 61.9437 10.0847 61.9437ZM11.5951 192.493C10.1911 193.663 9.91455 200.938 9.91455 200.938C9.91455 200.938 2.02244 205.193 3.14988 214.446C4.17096 222.721 11.0845 225.934 11.0845 225.934C11.0845 225.934 14.318 239.931 25.1031 247.547C36.5903 255.651 47.9073 255.992 64.117 255.992C81.6881 255.992 93.6645 254.63 103.131 245.696C113.98 235.421 114.788 224.764 114.788 224.764C114.788 224.764 121.042 221.041 120.872 212.596C120.702 204.151 113.788 200.938 113.788 200.938C113.788 200.938 112.342 194.195 111.087 192.493C110.449 191.621 85.2193 191.855 60.4155 191.983C36.4839 192.089 12.68 191.578 11.5951 192.493Z" fill="#C8C8C8"/>
<path d="M55.8611 247.717C55.691 251.1 73.5812 251.015 86.7701 248.058C101.81 244.675 106.703 231.848 105.852 230.827C105.001 229.806 89.8121 230.146 88.9612 230.997C88.1103 231.848 84.2387 239.783 77.6442 242.484C71.0497 245.186 55.9888 245.143 55.8611 247.717ZM3.67969 216.681L120.572 216.149C120.572 216.149 120.189 218.617 118.594 221.02C117.041 223.339 114.807 224.743 114.807 224.743L11.1675 225.956C11.1675 225.956 8.06183 224.275 6.72166 222.616C3.76478 218.957 3.67969 216.681 3.67969 216.681Z" fill="#858585"/>
<path d="M3.17417 210.872L120.471 209.361C120.471 209.361 120.088 206.277 118.003 203.958C116.259 202.001 113.791 200.916 113.791 200.916L8.40721 201.937C8.40721 201.937 6.27995 203.511 5.02487 205.32C3.51452 207.511 3.17417 210.872 3.17417 210.872ZM1.34473 40.1811C1.34473 40.1811 24.7871 35.5863 59.0785 35.0757C93.3698 34.5652 118.067 36.5861 118.067 36.5861C118.067 36.5861 116.855 32.5443 114.983 30.5234C113.111 28.5025 110.771 27.4814 110.771 27.4814C110.771 27.4814 78.6279 26.3114 59.1848 26.1413C35.7 25.9498 9.25811 29.5023 9.25811 29.5023C9.25811 29.5023 6.42886 30.3107 4.51433 32.7996C1.79145 36.3095 1.34473 40.1811 1.34473 40.1811Z" fill="#E1E0E0"/>
<path d="M0.962891 46.7759C0.962891 46.7759 19.2147 43.2021 59.9091 42.6916C100.603 42.181 119.111 45.1379 119.111 45.1379C119.111 45.1379 119.281 47.6055 118.472 49.9668C117.579 52.6046 116.175 54.3489 116.175 54.3489C116.175 54.3489 81.1816 52.0089 59.9091 52.1791C38.6366 52.3493 3.91978 55.7104 3.91978 55.7104C3.91978 55.7104 2.45197 53.1789 1.94143 51.6686C1.45217 50.0944 0.962891 46.7759 0.962891 46.7759Z" fill="#858585"/>
<path d="M53.7181 32.9275C53.7181 34.7356 41.7417 35.7993 29.0207 36.5651C21.8944 36.9905 9.32227 40.5005 9.32227 35.7993C9.32227 31.098 13.8747 30.2046 29.3185 29.8855C44.7624 29.5664 53.7181 30.5024 53.7181 32.9275ZM54.6329 4.91154C55.037 6.06026 48.5702 8.25133 43.5711 13.5482C40.0399 17.2922 38.8699 20.8234 36.4448 21.7381C34.0198 22.6528 21.001 23.8654 20.8308 21.1425C20.6181 17.356 23.3409 11.3571 29.7653 7.80461C39.9335 2.16739 53.867 2.78429 54.6329 4.91154Z" fill="white"/>
</svg>
