<svg width="240" height="256" viewBox="0 0 240 256" fill="none" xmlns="http://www.w3.org/2000/svg">
<path fill-rule="evenodd" clip-rule="evenodd" d="M163.756 34.8535L120.188 110.271L76.9202 34.8535H7.51172L120.188 230.459L233.164 34.8535H163.756Z" fill="#34495E"/>
<path d="M5.10742 0H234.065L119.286 198.911L5.10742 0Z" fill="#563D7C"/>
<path fill-rule="evenodd" clip-rule="evenodd" d="M89.8398 26.1406H129.502C137.014 26.1406 142.722 27.643 147.23 30.9481C151.737 34.5538 153.84 39.3613 153.84 46.2721C153.84 50.4787 152.938 54.0843 150.835 56.7885C148.732 59.7932 146.028 62.197 142.122 63.6993V63.9998C147.23 64.9012 151.136 67.3049 153.539 71.211C156.244 74.8167 157.445 79.3237 157.445 85.0326C157.445 88.3378 156.845 91.3425 155.643 94.0467C154.741 96.751 152.938 99.1547 150.535 101.258C147.83 103.061 144.826 104.864 140.92 106.066C137.314 107.267 132.507 107.868 127.399 107.868H89.8398V26.1406ZM104.262 60.3941H127.399C131.004 60.3941 133.708 59.1923 136.112 57.3895C138.516 55.2862 139.417 52.5819 139.417 48.9763C139.417 44.7697 138.516 41.765 136.413 40.2627C134.309 38.4599 131.305 37.5585 127.399 37.5585H104.262V60.3941ZM104.262 96.15H129.502C133.708 96.15 137.314 94.9481 139.417 92.8449C141.821 90.4411 143.323 87.1359 143.323 83.2298C143.323 79.0233 142.122 76.0186 139.417 73.9153C137.014 71.5115 133.708 70.6101 129.502 70.6101H104.262V96.15Z" fill="white"/>
<path fill-rule="evenodd" clip-rule="evenodd" d="M191.399 48.6758L119.587 173.07L47.7746 48.6758H0L119.587 256L239.174 48.6758H191.399Z" fill="#41B883"/>
</svg>
