<svg width="256" height="171" viewBox="0 0 256 171" fill="none" xmlns="http://www.w3.org/2000/svg">
<path d="M143.36 170.667H238.08C241.103 170.667 243.995 169.605 246.613 168.107C249.231 166.608 251.93 164.728 253.44 162.133C254.95 159.538 256.002 156.595 256 153.599C255.998 150.603 254.953 147.661 253.44 145.068L189.44 34.9867C187.93 32.3925 186.084 30.5111 183.467 29.0133C180.849 27.5156 177.103 26.4533 174.08 26.4533C171.057 26.4533 168.164 27.5156 165.547 29.0133C162.929 30.5111 161.084 32.3925 159.573 34.9867L143.36 63.1467L110.933 8.53132C109.421 5.93736 107.578 3.20419 104.96 1.70667C102.342 0.209141 99.4492 0 96.4267 0C93.4042 0 90.5114 0.209141 87.8933 1.70667C85.2756 3.20419 82.5785 5.93736 81.0667 8.53132L1.70667 145.068C0.193694 147.661 0.00132166 150.603 6.4922e-06 153.599C-0.00130867 156.595 0.195971 159.538 1.70667 162.133C3.21737 164.727 5.9157 166.608 8.53334 168.107C11.1509 169.605 14.044 170.667 17.0667 170.667H76.8C100.469 170.667 117.696 160.049 129.707 139.947L158.72 89.6L174.08 63.1467L221.013 143.36H158.72L143.36 170.667ZM75.9467 143.36H34.1333L96.4267 35.84L128 89.6L107.086 126.059C99.1096 139.102 90.0164 143.36 75.9467 143.36Z" fill="#00DC82"/>
</svg>
