<svg width="225" height="256" viewBox="0 0 225 256" fill="none" xmlns="http://www.w3.org/2000/svg">
<path d="M52.8098 0H78.1298L79.1098 2.46L66.6498 30.82C66.5231 31.1133 66.2998 31.2433 65.9798 31.21L25.9898 27.4C25.9411 27.3974 25.8942 27.3807 25.8549 27.3518C25.8156 27.323 25.7856 27.2832 25.7686 27.2375C25.7516 27.1918 25.7484 27.1422 25.7592 27.0946C25.7701 27.0471 25.7946 27.0038 25.8298 26.97L52.8098 0Z" fill="#4B5563"/>
<path d="M78.1299 0H146.39L144.69 4.46L111.39 84.87C111.297 85.09 111.207 85.09 111.12 84.87L79.1099 2.46L78.1299 0Z" fill="#10B981"/>
<path d="M146.39 0H170.14L197.13 27.01C197.162 27.0396 197.184 27.0778 197.194 27.1198C197.204 27.1618 197.201 27.2058 197.186 27.2463C197.171 27.2868 197.145 27.3221 197.11 27.3476C197.075 27.3732 197.034 27.3879 196.99 27.39L156.98 31.2C156.614 31.2333 156.354 31.0833 156.2 30.75L144.69 4.46L146.39 0Z" fill="#4B5563"/>
<path d="M67.9395 101.05L30.5195 33.78L69.9695 36.74C70.3495 36.7667 70.6129 36.6067 70.7595 36.26L77.9295 19.22C78.1695 18.6467 78.4029 18.65 78.6295 19.23C87.8362 43.0367 97.0995 66.97 106.42 91.03C107.126 92.8433 107.483 94.7133 107.49 96.64C107.516 101.42 107.52 106.173 107.5 110.9C107.498 110.976 107.482 111.051 107.45 111.121C107.419 111.19 107.374 111.253 107.318 111.304C107.262 111.356 107.196 111.395 107.124 111.42C107.052 111.445 106.976 111.455 106.9 111.45C104.02 111.25 101.183 111.28 98.3895 111.54C96.8829 111.687 95.4795 111.527 94.1795 111.06C85.0062 107.767 76.2595 104.43 67.9395 101.05Z" fill="#4B5563"/>
<path d="M193.64 33.73L154.79 101.82C146.91 105.027 138.777 108.1 130.39 111.04C129.037 111.513 127.573 111.687 126 111.56C122.72 111.28 119.373 111.247 115.96 111.46C115.883 111.465 115.805 111.455 115.732 111.429C115.659 111.403 115.592 111.362 115.535 111.308C115.478 111.255 115.432 111.19 115.4 111.118C115.368 111.047 115.351 110.969 115.35 110.89C115.31 105.717 115.313 100.49 115.36 95.21C115.373 93.3967 115.727 91.6467 116.42 89.96C125.96 66.88 135.523 43.7267 145.11 20.5C145.125 20.4656 145.149 20.4363 145.18 20.4157C145.211 20.395 145.248 20.384 145.285 20.384C145.322 20.384 145.359 20.395 145.39 20.4157C145.421 20.4363 145.445 20.4656 145.46 20.5L152.15 36.39C152.2 36.5073 152.284 36.6061 152.392 36.6724C152.5 36.7388 152.625 36.7694 152.75 36.76L193.64 33.73Z" fill="#4B5563"/>
<path d="M30.5201 33.78L67.9401 101.05L12.2301 80.3001C11.9101 80.1801 11.7101 79.9534 11.6301 79.6201L0.140135 31.7701C0.127358 31.7149 0.127787 31.6574 0.141387 31.6024C0.154987 31.5474 0.181374 31.4964 0.218403 31.4536C0.255432 31.4107 0.302057 31.3771 0.354486 31.3557C0.406916 31.3342 0.46367 31.3254 0.520135 31.33L30.5201 33.78Z" fill="#10B981"/>
<path d="M154.79 101.82L193.64 33.73L224.18 31.36C224.58 31.3267 224.733 31.5067 224.64 31.9L213.21 79.53C213.117 79.91 212.887 80.17 212.52 80.31L154.79 101.82Z" fill="#10B981"/>
<path d="M57.2105 117.16L73.2605 113.59C73.9205 113.443 74.0571 113.647 73.6705 114.2L60.8905 132.45C60.6695 132.762 60.5507 133.136 60.5505 133.52L60.5605 192.95C60.5612 192.991 60.5499 193.031 60.5281 193.066C60.5063 193.1 60.475 193.128 60.4378 193.145C60.4007 193.161 60.3594 193.167 60.319 193.161C60.2786 193.155 60.2409 193.137 60.2105 193.11L14.0405 154.65C13.9434 154.568 13.8653 154.466 13.8118 154.35C13.7582 154.234 13.7305 154.108 13.7305 153.98V88.51C13.7305 88.1767 13.8871 88.0633 14.2005 88.17C20.4605 90.39 26.6805 92.6433 32.8605 94.93C34.4138 95.51 35.7771 96.3867 36.9505 97.56C43.4038 104.013 49.8538 110.457 56.3005 116.89C56.4163 117.009 56.5608 117.097 56.7202 117.144C56.8795 117.191 57.0484 117.197 57.2105 117.16Z" fill="#10B981"/>
<path d="M166.46 116.89C172.953 110.55 179.387 104.137 185.76 97.65C186.9 96.4834 188.223 95.6167 189.73 95.05C196.017 92.6767 202.337 90.3867 208.69 88.18C209.003 88.0734 209.16 88.1867 209.16 88.52V153.79C209.16 154.177 209.013 154.493 208.72 154.74L162.77 193.01C162.423 193.303 162.25 193.22 162.25 192.76V133.26C162.25 132.993 162.17 132.731 162.02 132.51L149.02 113.95C148.747 113.563 148.84 113.42 149.3 113.52L165.59 117.14C165.923 117.22 166.213 117.137 166.46 116.89Z" fill="#10B981"/>
<path d="M144.14 118.44L111.75 173.6C111.718 173.656 111.671 173.703 111.615 173.735C111.559 173.767 111.495 173.784 111.43 173.784C111.365 173.784 111.302 173.767 111.246 173.735C111.189 173.703 111.143 173.656 111.11 173.6L78.7002 118.41L81.6702 113.44C81.8502 113.14 82.0969 113.07 82.4102 113.23C85.1569 114.617 87.9235 115.947 90.7102 117.22C92.2102 117.913 93.8069 118.257 95.5002 118.25C107.467 118.25 119.427 118.25 131.38 118.25C131.7 118.25 131.997 118.167 132.27 118L139.88 113.31C140.043 113.211 140.238 113.178 140.424 113.219C140.611 113.26 140.774 113.371 140.88 113.53L144.14 118.44Z" fill="#4B5563"/>
<path d="M78.7 118.41L111.11 173.6C111.142 173.656 111.189 173.703 111.245 173.735C111.301 173.767 111.365 173.784 111.43 173.784C111.495 173.784 111.558 173.767 111.615 173.735C111.671 173.703 111.717 173.656 111.75 173.6L144.14 118.44L156 136.23C156.253 136.61 156.38 137.03 156.38 137.49V224.22C156.38 224.56 156.283 224.873 156.09 225.16C151.38 232.26 147.01 239.94 140.93 246.01C137.59 249.337 134.26 252.667 130.94 256H91.9C86.24 250.33 80.08 245 75.58 238.35C72.62 233.977 69.69 229.577 66.79 225.15C66.5966 224.863 66.5 224.547 66.5 224.2L66.46 137.27C66.4598 136.97 66.5467 136.678 66.71 136.43L78.7 118.41Z" fill="#10B981"/>
<path d="M59.9805 229.92L35.3305 205.28C35.2667 205.216 35.2307 205.13 35.2305 205.04V180.57C35.2303 180.505 35.2488 180.441 35.2837 180.387C35.3185 180.332 35.3684 180.288 35.4273 180.261C35.4862 180.234 35.5517 180.224 35.6161 180.232C35.6804 180.241 35.741 180.268 35.7905 180.31L60.4305 201.16C60.4682 201.192 60.4985 201.232 60.5192 201.277C60.5399 201.322 60.5506 201.371 60.5505 201.42L60.5605 229.68C60.5603 229.747 60.5403 229.813 60.5029 229.868C60.4655 229.924 60.4125 229.968 60.3505 229.993C60.2884 230.019 60.2202 230.026 60.1544 230.013C60.0885 230 60.028 229.967 59.9805 229.92Z" fill="#10B981"/>
<path d="M162.37 201.21L187.08 180.31C187.13 180.266 187.192 180.237 187.258 180.228C187.325 180.218 187.392 180.227 187.453 180.254C187.514 180.282 187.566 180.326 187.603 180.382C187.639 180.438 187.659 180.503 187.66 180.57V205.04C187.661 205.086 187.652 205.132 187.635 205.175C187.618 205.218 187.592 205.257 187.56 205.29L162.85 229.99C162.802 230.039 162.74 230.073 162.672 230.088C162.604 230.102 162.534 230.096 162.47 230.07C162.406 230.044 162.351 230 162.312 229.943C162.272 229.886 162.251 229.819 162.25 229.75V201.47C162.251 201.421 162.262 201.372 162.282 201.327C162.303 201.282 162.333 201.242 162.37 201.21Z" fill="#10B981"/>
</svg>
