<svg width="257" height="223" viewBox="0 0 257 223" fill="none" xmlns="http://www.w3.org/2000/svg">
<path d="M193.275 20.4248L190.859 24.2608C171.333 55.1521 151.815 86.0488 132.304 116.951C131.94 117.529 131.584 118.042 131.236 118.489C130.446 119.508 128.887 120.058 127.567 119.88C126.354 119.718 125.355 119.015 124.57 117.772C104.876 86.6243 85.194 55.4869 65.5256 24.3601L63.109 20.549C63.0901 20.5206 63.0647 20.4999 63.0327 20.4869L62.9813 20.4638C63.0309 20.426 63.0375 20.3775 63.0008 20.3183C60.1229 15.7963 57.2545 11.2701 54.3955 6.73977C54.062 6.21221 53.8816 5.56933 53.8544 4.81113C53.771 2.52231 55.547 0.708994 57.8518 0.712543C72.7499 0.729103 87.0919 0.728511 100.878 0.710768C102.392 0.708994 103.724 1.48435 104.54 2.77603C112.403 15.2102 120.252 27.626 128.088 40.0234C128.132 40.0944 128.177 40.0944 128.221 40.0234C135.788 28.0755 143.332 16.1334 150.854 4.19723C151.649 2.93631 152.171 2.18105 152.421 1.93147C153.407 0.944973 154.461 0.70722 155.916 0.708994C170.187 0.729103 184.37 0.729103 198.463 0.708994C199.915 0.70722 201.324 1.51452 201.968 2.84345C202.671 4.29244 202.576 5.72251 201.68 7.13365C198.863 11.5682 196.061 15.9985 193.275 20.4248ZM128.111 47.4115C128.084 47.395 128.051 47.3548 128.01 47.2909C119.044 33.1203 110.087 18.9557 101.139 4.79693C101.116 4.75996 101.083 4.7295 101.045 4.7084C101.007 4.6873 100.964 4.67625 100.921 4.67628H57.9246C57.9103 4.6763 57.8963 4.68015 57.884 4.68741C57.8717 4.69468 57.8616 4.70511 57.8548 4.71761C57.8479 4.73011 57.8445 4.74422 57.8449 4.75848C57.8453 4.77275 57.8495 4.78664 57.8572 4.79871L128.097 115.913C128.101 115.919 128.106 115.924 128.112 115.928C128.118 115.932 128.124 115.935 128.131 115.936C128.138 115.938 128.146 115.938 128.153 115.936C128.16 115.934 128.166 115.931 128.172 115.927C128.227 115.884 128.274 115.834 128.312 115.774C175.054 41.8226 198.432 4.83715 198.447 4.81822C198.458 4.80548 198.464 4.79003 198.466 4.77369C198.468 4.75735 198.466 4.74079 198.459 4.72592C198.452 4.71105 198.44 4.69849 198.426 4.6897C198.413 4.68092 198.396 4.67626 198.38 4.67628C180.04 4.67628 165.706 4.67687 155.379 4.67805C155.341 4.67806 155.304 4.6875 155.271 4.70549C155.238 4.72348 155.211 4.74944 155.191 4.78096L128.268 47.3761C128.227 47.4399 128.175 47.4518 128.111 47.4115Z" fill="#9E09C5"/>
<path d="M62.9807 20.4641L63.0321 20.4872C63.0641 20.5002 63.0895 20.5209 63.1084 20.5493L65.525 24.3604L4.67967 24.3586C4.66692 24.3588 4.65444 24.3623 4.64354 24.369C4.63264 24.3756 4.62373 24.385 4.61774 24.3963C4.61175 24.4075 4.6089 24.4202 4.60949 24.4329C4.61009 24.4457 4.6141 24.458 4.62112 24.4686C45.9358 89.0133 87.2427 153.548 128.542 218.073C128.569 218.114 128.604 218.149 128.647 218.177C128.655 218.183 128.666 218.185 128.675 218.183C128.685 218.181 128.694 218.175 128.7 218.167L252.646 24.5148C252.71 24.4142 252.682 24.364 252.562 24.364C232.029 24.364 211.495 24.361 190.959 24.3551C190.907 24.3551 190.874 24.3237 190.858 24.2611L193.275 20.4251C212.789 20.4215 232.309 20.4203 251.833 20.4215C252.92 20.4215 253.661 20.496 254.056 20.6451C255.505 21.1916 256.354 22.2449 256.602 23.8051C256.769 24.8608 256.492 25.826 255.923 26.7167C214.732 91.0449 173.547 155.394 132.366 219.763C131.189 221.602 129.591 222.57 127.424 221.921C126.337 221.594 125.591 220.764 124.986 219.818C83.6504 155.242 42.4168 90.8225 1.28547 26.5605C0.627216 25.5314 0.455111 24.0819 0.889809 23.0031C1.58533 21.2797 2.87168 20.418 4.74886 20.418C24.441 20.4215 43.7806 20.4262 62.7678 20.4322C62.8399 20.4322 62.9109 20.4428 62.9807 20.4641Z" fill="#2AC799"/>
</svg>
