<svg width="256" height="114" viewBox="0 0 256 114" fill="none" xmlns="http://www.w3.org/2000/svg">
<path d="M31.6762 56.852L59.3457 84.2863V93.4291V102.572L48.1177 113.704L0 65.9949V56.852V47.7091L48.1177 0L59.3457 11.132V20.2749V29.4177L31.6762 56.852Z" fill="#34495E"/>
<path d="M224.634 56.852L197.237 84.2863V93.4291V102.572L208.354 113.704L256 65.9949V56.852V47.7091L208.354 0L197.237 11.132V20.2749V29.4177L224.634 56.852Z" fill="#34495E"/>
<path d="M138.689 13.7143L128 29.2863L117.311 13.7143H81.7143V23.7143V32L128 99.4286L174.286 32V23.7143V13.7143H138.689Z" fill="#34495E"/>
<path d="M22.455 47.7091L59.3457 84.2863L48.1177 95.4183L0 47.7091L48.1177 0L59.3457 11.132L22.455 47.7091Z" fill="#41B883"/>
<path d="M233.765 47.7091L197.237 84.2863L208.354 95.4183L256 47.7091L208.354 0L197.237 11.132L233.765 47.7091Z" fill="#41B883"/>
<path d="M138.689 13.7143L128 29.2863L117.311 13.7143H81.7143L128 81.1429L174.286 13.7143H138.689Z" fill="#41B883"/>
</svg>
