<svg width="221" height="256" viewBox="0 0 221 256" fill="none" xmlns="http://www.w3.org/2000/svg">
<path d="M65.8991 158.822C48.783 73.8454 65.0002 18.083 65.0002 18.083C65.0002 18.083 60.6617 52.0276 94.7653 106.74C94.3308 174.567 107.628 209.948 107.628 209.948L110.361 207.929L107.628 210.319C107.628 210.319 87.4071 193.746 65.8991 158.822Z" fill="url(#paint0_linear_259_106)"/>
<path d="M146.511 146.791C154.692 155.068 162.325 160.795 167.842 163.519C167.809 163.502 167.777 163.486 167.744 163.469C167.744 163.469 173.938 165.7 175.031 164.213C182.582 156.186 184.428 141.228 179.395 113.114C150.611 96.6104 146.977 70.8831 146.977 70.8831C146.977 70.8831 141.793 106.601 146.511 146.791Z" fill="url(#paint1_linear_259_106)"/>
<path d="M64.9995 18.083C64.9995 18.083 41.3173 99.5141 81.3948 215.525C82.4876 218.872 81.3948 222.59 78.4801 224.821L36.2165 254.567C32.2087 257.542 26.3793 255.683 24.5576 250.849C13.263 219.987 -17.7059 117.734 13.6274 5.81259C15.0847 1.35063 19.8212 -1.25218 24.1932 0.606972L64.9995 18.083Z" fill="url(#paint2_linear_259_106)"/>
<path d="M145.884 181.689L107.628 209.948C107.628 209.948 87.2247 155.66 97.7905 52.6632C98.5194 46.7141 104.713 43.7394 109.814 46.7141L146.977 70.883C146.977 70.883 139.69 121.08 150.256 169.418C151.349 174.252 149.527 179.086 145.884 181.689Z" fill="url(#paint3_linear_259_106)"/>
<path d="M216.565 118.849L181.224 95.424C179.038 93.9366 175.759 96.1675 176.488 98.7703C184.868 136.325 183.775 154.917 175.03 164.213C173.937 165.7 167.744 163.469 167.744 163.469C173.573 166.443 175.03 164.956 175.03 164.956C180.86 160.494 202.72 144.505 216.565 134.838C222.031 130.748 222.031 122.567 216.565 118.849Z" fill="url(#paint4_linear_259_106)"/>
<defs>
<linearGradient id="paint0_linear_259_106" x1="105.66" y1="68.7887" x2="128.354" y2="144.765" gradientUnits="userSpaceOnUse">
<stop stop-color="#131057"/>
<stop offset="1" stop-color="#4F48AD"/>
</linearGradient>
<linearGradient id="paint1_linear_259_106" x1="105.66" y1="68.7887" x2="128.354" y2="144.765" gradientUnits="userSpaceOnUse">
<stop stop-color="#131057"/>
<stop offset="1" stop-color="#4F48AD"/>
</linearGradient>
<linearGradient id="paint2_linear_259_106" x1="66.8635" y1="176.619" x2="22.6217" y2="73.758" gradientUnits="userSpaceOnUse">
<stop stop-color="#EE6D93"/>
<stop offset="1" stop-color="#F7C6B8"/>
</linearGradient>
<linearGradient id="paint3_linear_259_106" x1="119.588" y1="207.354" x2="112.728" y2="45.5226" gradientUnits="userSpaceOnUse">
<stop stop-color="#3CAC96"/>
<stop offset="1" stop-color="#5FCEB8"/>
</linearGradient>
<linearGradient id="paint4_linear_259_106" x1="195.355" y1="81.8147" x2="168.849" y2="140.746" gradientUnits="userSpaceOnUse">
<stop stop-color="#80C3FF"/>
<stop offset="0.455382" stop-color="#349BF7"/>
<stop offset="1" stop-color="#714DD6"/>
</linearGradient>
</defs>
</svg>
