<svg width="256" height="140" viewBox="0 0 256 140" fill="none" xmlns="http://www.w3.org/2000/svg">
<path d="M61.4737 139.342L80 107.342L98.5263 139.342H128L80 56.3105L32 139.342H61.4737Z" fill="#36495E"/>
<path d="M80 56.3105V107.342L98.5263 139.342H128L80 56.3105Z" fill="url(#paint0_linear_259_90)"/>
<path d="M194.526 139.342L176 107.342L157.474 139.342H128L176 56.3105L224 139.342H194.526Z" fill="#36495E"/>
<path d="M176 56.3105V107.342L157.474 139.342H128L176 56.3105Z" fill="url(#paint1_linear_259_90)"/>
<path d="M176 0.900024L128 83.9316L80 0.900024L0 139.342H32L80 56.3105L128 139.342L176 56.3105L224 139.342H256L176 0.900024Z" fill="url(#paint2_linear_259_90)"/>
<defs>
<linearGradient id="paint0_linear_259_90" x1="104.02" y1="139.416" x2="104.02" y2="56.2622" gradientUnits="userSpaceOnUse">
<stop stop-color="#36495E"/>
<stop offset="1" stop-color="#0A1C33"/>
</linearGradient>
<linearGradient id="paint1_linear_259_90" x1="152.029" y1="139.416" x2="152.029" y2="56.2622" gradientUnits="userSpaceOnUse">
<stop stop-color="#36495E"/>
<stop offset="1" stop-color="#0A1C33"/>
</linearGradient>
<linearGradient id="paint2_linear_259_90" x1="128.024" y1="139.416" x2="128.024" y2="0.826084" gradientUnits="userSpaceOnUse">
<stop offset="0.2" stop-color="#41B782"/>
<stop offset="1" stop-color="#86D169"/>
</linearGradient>
</defs>
</svg>
