<svg width="257" height="208" viewBox="0 0 257 208" fill="none" xmlns="http://www.w3.org/2000/svg">
<path d="M128.03 65.8983C146.156 65.8983 160.849 51.2046 160.849 33.079C160.849 14.9535 146.156 0.259766 128.03 0.259766C109.905 0.259766 95.2109 14.9535 95.2109 33.079C95.2109 51.2046 109.905 65.8983 128.03 65.8983Z" fill="#35495E"/>
<path d="M142.529 130.581C144.987 129.844 147.557 128.862 150.24 127.635C151.629 127 152.977 126.268 154.283 125.44C160.112 121.744 165.695 117.564 170.289 112.691C178.747 103.714 183.889 91.8309 187.071 80.0064C188.391 75.0999 189.451 70.0661 190.249 64.9051C190.406 63.893 190.548 62.862 190.676 61.8122C192.437 47.2531 203.882 35.5959 218.344 33.4531C234.949 30.9944 250.737 41.3809 254.97 57.6255C259.539 75.1526 249.009 93.078 231.482 97.6536C229.16 98.2618 226.739 98.6178 224.379 99.2331C220.4 100.269 216.942 101.385 214.006 102.581C201.643 107.614 191.455 115.497 183.443 126.227C180.679 129.93 178.189 133.843 175.973 137.967C172.349 144.709 169.208 151.902 166.55 159.546C164.047 166.752 162.039 173.435 160.527 179.596C159.98 181.821 159.605 183.263 159.4 183.921C156.095 194.551 147.493 203.033 136.659 205.904C130.921 207.425 125.263 207.448 119.686 205.972C108.552 203.023 99.7708 194.515 96.513 183.467C96.513 183.465 96.1271 181.941 95.3555 178.896C92.6799 168.351 89.257 157.823 84.8864 147.792C81.0368 138.962 76.2538 130.438 70.1175 123.066C61.796 113.068 51.4653 105.876 39.1252 101.491C36.6343 100.605 34.06 99.8224 31.4025 99.1435C29.0192 98.5353 25.5822 98.0473 22.857 97.1586C16.566 95.1045 11.3719 91.5323 7.27485 86.442C-0.440816 76.8593 -2.12398 63.7335 2.88307 52.5454C7.74396 41.6827 18.0598 34.2782 29.9268 33.2291C46.7489 31.7393 61.921 43.1843 65.0845 59.7825C65.4405 61.6496 65.6055 63.6345 65.912 65.5557C67.8639 77.8164 71.2797 90.1053 77.2132 100.824C80.9206 107.524 85.6259 113.214 91.3291 117.894C95.0514 120.949 99.3772 124.094 103.165 126.248C105.82 127.759 108.863 129.076 112.296 130.199C122.33 133.484 132.408 133.611 142.529 130.581Z" fill="#4FC08D"/>
</svg>
