<svg width="256" height="230" viewBox="0 0 256 230" fill="none" xmlns="http://www.w3.org/2000/svg">
<path d="M115.709 223.464C115.793 224.539 115.844 225.37 115.862 225.96C115.453 226.198 115.013 226.377 114.554 226.492C114.106 226.605 113.53 226.66 112.819 226.66C111.905 226.66 111.128 226.503 110.491 226.19C109.849 225.873 109.51 225.25 109.47 224.317C109.328 221.657 109.237 219.274 109.197 217.16C109.153 215.05 109.095 213.275 109.011 211.832H108.829C108.585 212.787 108.235 213.979 107.78 215.411C107.324 216.843 106.759 218.683 106.089 220.935C105.786 221.201 105.385 221.409 104.886 221.562C104.391 221.711 103.808 221.788 103.137 221.788C102.263 221.788 101.545 221.682 100.976 221.471C100.408 221.256 100.032 220.877 99.8502 220.327C99.1797 218.195 98.6185 216.468 98.1739 215.138C97.7257 213.808 97.3832 212.645 97.139 211.65H96.9568C96.8949 213.093 96.8438 214.401 96.8038 215.579C96.7637 216.756 96.7382 217.903 96.7272 219.018C96.7163 220.134 96.6908 221.267 96.6507 222.415C96.6106 223.559 96.5596 224.834 96.5013 226.234C96.1733 226.358 95.7579 226.456 95.2514 226.54C94.7449 226.62 94.2347 226.66 93.7282 226.66C92.6532 226.66 91.8151 226.489 91.2175 226.143C90.6199 225.796 90.321 225.181 90.321 224.284C90.321 223.533 90.3538 222.433 90.4267 220.983C90.496 219.532 90.5871 217.929 90.7 216.172C90.8093 214.416 90.9296 212.616 91.0499 210.768C91.1701 208.921 91.2831 207.215 91.3851 205.652C91.5673 205.328 91.99 204.982 92.6496 204.617C93.3091 204.253 94.2347 204.071 95.4336 204.071C96.7309 204.071 97.7476 204.275 98.48 204.679C99.2088 205.084 99.7372 205.736 100.062 206.629C100.284 207.215 100.524 207.89 100.776 208.651C101.031 209.413 101.29 210.196 101.552 210.994C102.043 212.494 102.511 214.002 102.955 215.517H103.137C103.724 213.469 104.314 211.49 104.901 209.58C105.491 207.675 106.03 206.068 106.515 204.77C106.883 204.588 107.35 204.424 107.918 204.282C108.483 204.14 109.124 204.071 109.835 204.071C111.034 204.071 112.007 204.249 112.757 204.603C113.508 204.96 113.945 205.47 114.066 206.14C114.168 206.629 114.273 207.372 114.386 208.378C114.496 209.384 114.616 210.521 114.736 211.789C114.86 213.057 114.98 214.394 115.1 215.808C115.224 217.218 115.334 218.578 115.436 219.886C115.538 221.194 115.629 222.389 115.709 223.464ZM255.042 215.014C254.401 214.336 253.533 213.993 252.436 213.993C251.343 213.993 250.48 214.336 249.849 215.014C249.222 215.695 248.905 216.544 248.905 217.557C248.905 218.592 249.222 219.448 249.849 220.13C250.48 220.811 251.343 221.15 252.436 221.15C253.533 221.15 254.401 220.811 255.042 220.13C255.68 219.448 256 218.592 256 217.557C256 216.544 255.68 215.695 255.042 215.014ZM179.99 55.194L186.177 55.9775C186.421 55.9776 186.655 56.0742 186.828 56.2463C187 56.4184 187.098 56.6519 187.099 56.8958L187.919 63.0104C187.919 63.517 188.327 63.9287 188.834 63.9287H188.841C189.085 63.9278 189.318 63.8302 189.49 63.6574C189.663 63.4846 189.759 63.2507 189.759 63.0068L190.543 56.8885C190.543 56.3783 190.951 55.9665 191.461 55.9629L197.645 55.1466C197.765 55.1462 197.885 55.1219 197.996 55.0753C198.107 55.0287 198.208 54.9607 198.293 54.8751C198.378 54.7895 198.445 54.688 198.491 54.5764C198.537 54.4648 198.56 54.3453 198.56 54.2247V54.0862C198.56 53.5797 198.148 53.1679 197.638 53.1679L191.45 52.3845C190.944 52.3845 190.528 51.9763 190.528 51.4662L189.708 45.3515C189.708 45.1001 189.603 44.8668 189.439 44.7029C189.353 44.6172 189.252 44.5493 189.14 44.503C189.028 44.4567 188.908 44.433 188.787 44.4332C188.666 44.4335 188.547 44.4577 188.435 44.5044C188.324 44.5511 188.222 44.6194 188.137 44.7054C187.965 44.878 187.869 45.1115 187.868 45.3551L187.085 51.4771C187.085 51.721 186.988 51.9549 186.816 52.1277C186.644 52.3005 186.41 52.3981 186.166 52.399L179.982 53.2189C179.476 53.2189 179.064 53.6307 179.064 54.1409V54.2757C179.068 54.7859 179.479 55.194 179.99 55.194ZM226.079 70.1345V70.2438C226.079 70.34 226.099 70.4353 226.136 70.524C226.173 70.6127 226.228 70.6931 226.296 70.7606C226.365 70.8285 226.446 70.8822 226.535 70.9186C226.624 70.955 226.719 70.9734 226.815 70.9726L231.742 71.5994C232.147 71.5958 232.475 71.9237 232.475 72.3282L233.127 77.1966C233.127 77.4007 233.211 77.5829 233.342 77.7141C233.477 77.8453 233.659 77.9291 233.863 77.9291C233.959 77.9289 234.054 77.9095 234.143 77.8723C234.232 77.835 234.312 77.7805 234.38 77.7119C234.447 77.6436 234.501 77.5626 234.537 77.4736C234.574 77.3845 234.592 77.2892 234.592 77.193L235.218 72.3209C235.218 72.2247 235.236 72.1293 235.272 72.0403C235.309 71.9512 235.362 71.8702 235.43 71.802C235.498 71.7336 235.578 71.6792 235.667 71.6419C235.756 71.6046 235.851 71.5852 235.947 71.5848L240.87 70.9362C241.275 70.9326 241.603 70.6046 241.603 70.2001L241.599 70.0908C241.599 69.6863 241.271 69.3583 240.867 69.362L235.94 68.7352C235.844 68.7357 235.748 68.7172 235.659 68.6808C235.57 68.6445 235.489 68.5909 235.421 68.5233C235.353 68.4556 235.298 68.3751 235.261 68.2864C235.224 68.1977 235.204 68.1026 235.204 68.0064L234.555 63.138C234.555 62.9339 234.471 62.7517 234.337 62.6205C234.205 62.4893 234.023 62.4055 233.819 62.4055C233.674 62.4064 233.533 62.4502 233.413 62.5312C233.293 62.6123 233.2 62.727 233.145 62.861C233.108 62.9503 233.09 63.0454 233.09 63.1416L232.464 68.0137C232.464 68.4182 232.139 68.7461 231.735 68.7498L226.812 69.3984C226.407 69.4021 226.079 69.73 226.079 70.1345ZM193.276 22.2921L205.727 23.87C206.751 23.87 207.582 24.6935 207.582 25.7175L209.229 38.0234C209.231 38.5131 209.427 38.982 209.774 39.3276C210.121 39.6732 210.591 39.8672 211.08 39.8672H211.088C212.108 39.8672 212.935 39.0327 212.935 38.0124L214.513 25.6993C214.512 25.4561 214.559 25.2151 214.651 24.9901C214.743 24.7651 214.879 24.5606 215.05 24.3881C215.396 24.0398 215.866 23.843 216.357 23.8408L228.801 22.1937C229.822 22.1937 230.649 21.3592 230.645 20.3389V20.0656C230.642 19.0416 229.811 18.2144 228.79 18.2181L216.339 16.6402C216.096 16.6412 215.854 16.5941 215.629 16.5017C215.405 16.4093 215.2 16.2733 215.028 16.1017C214.855 15.93 214.719 15.726 214.625 15.5014C214.532 15.2768 214.484 15.0359 214.484 14.7927L212.837 2.49047C212.835 2.00032 212.64 1.53073 212.293 1.18449C211.946 0.838237 211.476 0.64352 210.986 0.642944H210.978C209.958 0.646588 209.131 1.47743 209.131 2.49775L207.553 14.8109C207.554 15.1775 207.447 15.5362 207.244 15.8417C207.041 16.1471 206.753 16.3854 206.414 16.5265C206.19 16.6202 205.949 16.6688 205.705 16.6694L193.265 18.3165C192.244 18.3201 191.417 19.151 191.421 20.1713V20.4482C191.425 21.4685 192.255 22.2957 193.276 22.2921ZM236.913 212.474L234.993 211.832C234.344 211.65 233.863 211.443 233.546 211.209C233.232 210.976 233.076 210.677 233.076 210.309C233.076 209.843 233.334 209.46 233.852 209.154C234.369 208.852 235.175 208.699 236.272 208.699C237.328 208.699 238.305 208.826 239.209 209.078C240.112 209.333 240.838 209.631 241.388 209.978C241.796 209.649 242.151 209.258 242.437 208.819C242.732 208.374 242.878 207.835 242.878 207.205C242.878 206.578 242.696 206.024 242.332 205.547C241.964 205.069 241.457 204.679 240.808 204.373C240.16 204.071 239.384 203.841 238.48 203.688C237.576 203.539 236.607 203.462 235.572 203.462C232.69 203.462 230.452 204.085 228.86 205.332C227.264 206.581 226.469 208.239 226.469 210.309C226.469 211.388 226.648 212.295 227.001 213.035C227.355 213.778 227.85 214.416 228.477 214.955C229.107 215.491 229.862 215.95 230.747 216.326C231.629 216.701 232.598 217.069 233.655 217.437L235.208 217.954C235.918 218.195 236.465 218.454 236.851 218.731C237.237 219.004 237.43 219.383 237.43 219.871C237.43 220.359 237.186 220.8 236.698 221.194C236.21 221.591 235.368 221.788 234.173 221.788C233.014 221.788 231.939 221.591 230.944 221.194C229.949 220.8 229.118 220.338 228.448 219.809C227.96 220.075 227.508 220.454 227.092 220.953C226.677 221.449 226.469 222.054 226.469 222.765C226.469 223.453 226.673 224.058 227.078 224.576C227.482 225.093 228.04 225.53 228.754 225.884C229.461 226.237 230.299 226.507 231.265 226.689C232.227 226.875 233.269 226.966 234.384 226.966C235.947 226.966 237.332 226.791 238.542 226.449C239.748 226.102 240.757 225.621 241.57 225.002C242.383 224.382 242.995 223.643 243.41 222.779C243.826 221.915 244.037 220.979 244.037 219.962C244.037 218.013 243.421 216.46 242.193 215.305C240.965 214.146 239.205 213.203 236.913 212.474ZM165.151 220.509C164.524 220.837 163.865 221.136 163.172 221.409C162.484 221.682 161.642 221.821 160.647 221.821C158.719 221.821 157.211 221.267 156.125 220.159C155.039 219.055 154.496 217.415 154.496 215.243C154.496 213.152 154.995 211.53 155.99 210.371C156.985 209.216 158.424 208.637 160.312 208.637C161.267 208.637 162.097 208.779 162.808 209.063C163.519 209.347 164.2 209.701 164.849 210.127C165.253 209.865 165.614 209.5 165.931 209.034C166.244 208.567 166.401 208.017 166.401 207.387C166.401 206.232 165.785 205.288 164.561 204.555C163.333 203.827 161.602 203.462 159.368 203.462C157.787 203.462 156.3 203.721 154.908 204.238C153.519 204.756 152.306 205.51 151.271 206.505C150.236 207.5 149.416 208.728 148.819 210.189C148.221 211.65 147.922 213.337 147.922 215.243C147.922 217.295 148.225 219.055 148.833 220.527C149.442 221.996 150.283 223.205 151.362 224.149C152.437 225.093 153.691 225.796 155.123 226.263C156.551 226.733 158.1 226.966 159.765 226.966C160.902 226.966 161.868 226.868 162.673 226.675C163.475 226.481 164.098 226.285 164.543 226.081C165.253 225.778 165.756 225.392 166.051 224.925C166.346 224.459 166.492 223.942 166.492 223.373C166.492 222.743 166.376 222.189 166.142 221.711C165.909 221.238 165.577 220.837 165.151 220.509ZM141.771 220.968C142.259 222.714 142.686 224.255 143.05 225.596C142.766 225.92 142.329 226.19 141.742 226.401C141.152 226.616 140.463 226.722 139.672 226.722C138.473 226.722 137.642 226.522 137.172 226.128C136.706 225.731 136.371 225.108 136.17 224.255L135.5 221.759H128.893C128.649 222.63 128.438 223.442 128.252 224.193C128.07 224.944 127.887 225.654 127.705 226.325C127.381 226.449 127.024 226.547 126.641 226.631C126.255 226.711 125.799 226.751 125.271 226.751C124.032 226.751 123.114 226.54 122.516 226.113C121.915 225.687 121.616 225.097 121.616 224.346C121.616 224 121.667 223.657 121.769 223.311C121.871 222.965 121.98 222.571 122.104 222.123C122.265 221.453 122.498 220.629 122.804 219.642C123.11 218.658 123.442 217.597 123.81 216.46C124.174 215.323 124.564 214.168 124.979 212.991C125.398 211.814 125.788 210.696 126.153 209.642C126.517 208.586 126.852 207.638 127.159 206.796C127.461 205.951 127.694 205.31 127.858 204.861C128.285 204.617 128.911 204.388 129.746 204.176C130.577 203.965 131.418 203.856 132.271 203.856C133.492 203.856 134.57 204.031 135.514 204.373C136.458 204.719 137.063 205.288 137.325 206.079C137.774 207.318 138.251 208.779 138.757 210.462C139.264 212.149 139.77 213.884 140.281 215.67C140.787 217.455 141.283 219.223 141.771 220.968ZM134.436 216.825C134.089 215.425 133.743 214.114 133.401 212.886C133.055 211.658 132.737 210.553 132.457 209.58H132.242C131.896 210.575 131.52 211.679 131.116 212.9C130.708 214.117 130.303 215.425 129.899 216.825H134.436ZM219.633 210.16C220.234 211.621 220.533 213.305 220.533 215.214C220.533 217.102 220.238 218.782 219.648 220.25C219.061 221.722 218.248 222.958 217.213 223.949C216.178 224.944 214.954 225.698 213.544 226.204C212.134 226.711 210.596 226.966 208.934 226.966C207.287 226.966 205.757 226.711 204.335 226.204C202.914 225.698 201.697 224.94 200.68 223.934C199.667 222.932 198.866 221.697 198.275 220.236C197.689 218.774 197.393 217.102 197.393 215.214C197.393 213.305 197.692 211.621 198.294 210.16C198.891 208.699 199.707 207.474 200.742 206.49C201.777 205.506 202.994 204.756 204.397 204.238C205.797 203.721 207.309 203.462 208.934 203.462C210.578 203.462 212.097 203.721 213.5 204.238C214.899 204.756 216.124 205.506 217.166 206.49C218.212 207.474 219.035 208.699 219.633 210.16ZM213.956 215.214C213.956 213.02 213.504 211.377 212.6 210.28C211.696 209.183 210.476 208.637 208.934 208.637C207.451 208.637 206.252 209.176 205.341 210.251C204.426 211.326 203.971 212.98 203.971 215.214C203.971 217.426 204.423 219.08 205.323 220.177C206.227 221.27 207.44 221.821 208.963 221.821C210.486 221.821 211.696 221.27 212.6 220.177C213.504 219.08 213.956 217.426 213.956 215.214ZM191.002 222.856C191.287 223.263 191.561 223.679 191.822 224.102C191.578 224.955 191.137 225.603 190.499 226.051C189.858 226.496 189.132 226.722 188.32 226.722C187.795 226.722 187.332 226.66 186.935 226.54C186.542 226.416 186.195 226.245 185.9 226.022C185.605 225.796 185.339 225.53 185.095 225.213C184.851 224.9 184.628 224.561 184.424 224.193L181.32 219.201H179.37V226.325C179.108 226.387 178.696 226.456 178.138 226.54C177.581 226.62 177.005 226.66 176.418 226.66C175.118 226.66 174.221 226.438 173.722 225.989C173.226 225.545 172.978 224.754 172.978 223.617V206.294C172.978 205.783 173.121 205.39 173.405 205.106C173.689 204.821 174.072 204.599 174.56 204.435C175.373 204.151 176.327 203.939 177.421 203.797C178.517 203.655 179.694 203.582 180.955 203.582C184.304 203.582 186.829 204.297 188.535 205.729C190.24 207.161 191.093 209.063 191.093 211.439C191.093 212.838 190.732 214.081 190.011 215.167C189.289 216.253 188.342 217.142 187.165 217.831C187.609 218.479 188.072 219.095 188.549 219.674C189.027 220.25 189.471 220.811 189.89 221.347C190.306 221.886 190.674 222.389 191.002 222.856ZM184.639 211.53C184.639 210.597 184.337 209.89 183.739 209.413C183.142 208.935 182.191 208.699 180.893 208.699C180.609 208.699 180.339 208.713 180.088 208.742C179.833 208.775 179.574 208.808 179.308 208.852V214.329H181.137C182.15 214.329 182.989 214.092 183.648 213.614C184.308 213.137 184.639 212.441 184.639 211.53ZM90.7875 194.895C88.0399 195.398 84.0023 196.243 82.8544 196.998C47.7698 223.195 11.6502 230.971 10.8922 229.83C10.5387 229.295 16.8903 226.66 23.7811 223.993C17.1199 226.11 10.6517 227.542 9.17587 225.76C5.89261 221.806 16.6352 219.153 17.0105 218.155C17.3895 217.156 9.47833 219.598 7.62716 218.833C5.77235 218.071 3.38916 208.884 2.64214 206.844C1.89511 204.799 8.16648 203.524 8.96088 203.167C2.47451 203.484 2.97739 202.179 2.97739 202.179C2.97739 202.179 1.55257 201.083 1.25376 195.955C0.958595 190.828 12.9256 189.629 13.3957 187.873C13.8657 186.117 0.317247 188.146 0.00750439 185.923C-0.305882 183.697 9.75163 184.09 11.355 183.453C12.9547 182.815 12.4774 182.4 6.18413 182.33C-0.109105 182.261 0.0475885 179.255 2.18299 178.803C8.51995 177.371 29.2727 178.639 50.0436 180.133C70.8146 181.623 75.0453 189.4 77.8621 190.041C80.6753 190.679 86.5385 189.414 86.5385 189.414L89.5631 188.74L89.5594 188.733C89.5813 188.729 89.6542 188.718 89.7817 188.693L90.0186 188.642L90.1826 188.605V188.609C90.2263 188.598 90.27 188.591 90.3174 188.58C97.9589 187.046 146.84 177.156 188.269 164.562C229.931 151.899 244.186 128.53 243.735 112.361C243.571 106.444 241.282 102.716 239.209 102.206C236.603 101.575 234.464 101.805 232.671 102.92C231.261 103.798 230.233 105.114 229.516 106.378C229.49 106.422 229.468 106.462 229.446 106.506C229.424 106.564 229.41 106.622 229.392 106.68C229.257 107.107 229.118 107.548 228.969 108.011C228.426 109.69 227.774 111.607 227.012 113.753C225.955 116.738 224.687 119.948 223.208 123.37C221.732 126.799 220.092 130.061 218.303 133.154C216.51 136.244 214.59 138.912 212.534 141.16C210.472 143.405 208.311 144.819 206.052 145.409C204.033 145.93 201.897 145.97 199.645 145.511C197.393 145.056 195.309 144.141 193.407 142.76C191.578 141.441 190.014 139.67 188.724 137.443H188.721C188.134 138.868 187.529 140.246 186.906 141.579C185.55 144.473 184.126 146.947 182.632 149.006C181.134 151.065 179.702 152.271 178.328 152.628C176.794 153.025 175.362 152.817 174.028 151.998C172.691 151.181 171.521 150.066 170.515 148.66C169.498 147.239 168.68 145.685 168.085 144.043C167.472 142.37 167.112 140.84 167.01 139.448C166.04 141.951 165.104 144.301 164.193 146.495C163.278 148.689 162.436 150.62 161.649 152.282C160.866 153.947 160.141 155.281 159.474 156.287C158.807 157.296 158.227 157.861 157.75 157.985C156.132 158.407 154.653 158.189 153.319 157.329C151.982 156.469 150.808 155.295 149.795 153.805C148.786 152.322 147.966 150.7 147.346 148.944C146.727 147.191 146.37 145.657 146.275 144.349C146.209 143.445 146.348 141.659 146.687 138.988C147.029 136.314 147.529 133.271 148.185 129.849C148.844 126.424 149.609 122.809 150.484 118.994C151.358 115.186 152.299 111.647 153.293 108.389C154.288 105.128 155.309 102.406 156.344 100.22C157.375 98.0332 158.381 96.8124 159.346 96.561C160.396 96.2877 161.35 96.4152 162.21 96.94C163.07 97.4647 163.857 98.0988 164.568 98.8276C165.45 99.6803 166.222 100.69 166.882 101.848C165.833 103.291 164.809 105.514 163.792 108.528C162.775 111.549 161.802 114.883 160.877 118.538C159.936 122.256 159.095 125.999 158.355 129.762C157.601 133.584 157.014 137.072 156.584 140.227C156.15 143.383 155.91 145.945 155.848 147.92C155.786 149.891 155.994 150.817 156.478 150.689C156.963 150.565 157.619 149.687 158.446 148.051C159.273 146.422 160.17 144.356 161.143 141.853C162.112 139.345 163.14 136.496 164.222 133.3C165.308 130.097 166.39 126.857 167.469 123.574C168.544 120.295 169.568 117.088 170.533 113.965C171.499 110.835 172.352 108.098 173.084 105.733C173.809 103.295 174.516 101.112 175.201 99.1847L175.19 99.0608C176.018 96.8452 176.816 95.0341 177.574 93.6275C178.335 92.2246 179.122 91.412 179.928 91.197C180.973 90.931 181.928 91.0549 182.788 91.5796C183.652 92.1043 184.439 92.7348 185.15 93.4672C186.031 94.3235 186.804 95.3257 187.463 96.4881C186.418 97.9311 185.386 100.158 184.37 103.168C183.357 106.185 182.384 109.523 181.454 113.181C180.525 116.84 179.691 120.579 178.94 124.401C178.186 128.22 177.595 131.711 177.165 134.863C176.735 138.019 176.488 140.584 176.426 142.56C176.364 144.531 176.575 145.457 177.06 145.333C177.789 145.139 178.583 144.247 179.458 142.643C180.325 141.04 181.21 139.061 182.11 136.704C183.007 134.342 183.947 131.726 184.935 128.84C185.368 127.568 185.784 126.311 186.181 125.068C186.25 123.68 186.392 122.208 186.622 120.652C187.066 117.656 187.708 114.595 188.546 111.458C189.391 108.324 190.422 105.245 191.64 102.213C192.86 99.1883 194.161 96.4517 195.553 94.0065C196.931 91.565 198.392 89.5171 199.915 87.87C201.442 86.2229 202.889 85.2208 204.266 84.8637C208.624 83.7304 211.922 83.8907 214.163 85.3447C216.408 86.8059 217.862 88.9705 218.522 91.842C219.181 94.7135 219.214 97.9931 218.616 101.692C218.022 105.387 217.068 108.932 215.748 112.31C214.429 115.703 212.855 118.651 211.022 121.173C209.186 123.691 207.425 125.17 205.731 125.611C203.873 126.096 202.287 126.074 200.976 125.538C199.66 125.003 198.567 124.35 197.692 123.581C197.459 126.059 197.375 128.373 197.452 130.52C197.525 132.67 197.802 134.495 198.279 135.993C198.76 137.491 199.434 138.609 200.312 139.338C201.183 140.074 202.346 140.246 203.803 139.87C205.334 139.466 206.861 138.402 208.38 136.678C209.9 134.944 211.372 132.834 212.793 130.337C214.218 127.841 215.563 125.112 216.827 122.16C218.095 119.205 219.239 116.301 220.267 113.451C220.901 111.698 221.48 110.004 222.013 108.371V108.368C222.155 107.941 222.286 107.519 222.417 107.103C222.541 106.757 222.683 106.378 222.854 105.977C222.876 105.919 222.902 105.861 222.927 105.802C223.762 103.773 225.219 101.091 227.613 98.9915C227.643 98.9624 227.672 98.9369 227.704 98.9114C228.207 98.4777 228.758 98.0623 229.352 97.6906C232.595 95.6536 236.403 95.1507 240.677 96.1893C246.063 97.5011 249.693 103.783 249.926 112.187C250.09 118.039 248.698 129.78 237.521 142.647C227.008 154.749 211.044 164.114 190.073 170.487C150.87 182.407 106.803 191.553 93.5023 194.254C93.4585 194.265 93.4112 194.272 93.3674 194.283C91.9609 194.571 91.1045 194.808 90.8567 194.877C90.8349 194.888 90.8093 194.891 90.7875 194.895ZM198.151 119.711C199.073 119.97 199.926 119.832 200.71 119.296C201.741 118.775 202.768 117.653 203.8 115.925C204.82 114.202 205.789 112.219 206.697 109.986C207.604 107.745 208.377 105.38 209.018 102.88C209.659 100.376 210.155 98.1243 210.505 96.1164C210.854 94.1086 210.96 92.476 210.825 91.2188C210.694 89.958 210.268 89.4223 209.539 89.6155C208.49 89.8888 207.396 90.9856 206.267 92.906C205.126 94.8264 204.026 97.2023 202.954 100.019C201.883 102.843 200.939 105.981 200.119 109.446C199.303 112.908 198.647 116.333 198.151 119.711ZM11.6174 194.301C11.5299 194.017 11.0052 193.926 10.4404 194.093C9.87553 194.265 9.48926 194.633 9.57672 194.921C9.66053 195.205 10.1889 195.3 10.7537 195.128C11.3186 194.957 11.7048 194.585 11.6174 194.301ZM21.93 193.616C22.0138 193.904 27.6146 192.461 34.4363 190.391C41.2579 188.328 46.7166 186.423 46.6292 186.138C46.5417 185.851 40.9445 187.294 34.1229 189.36C27.3013 191.426 21.8425 193.332 21.93 193.616ZM21.008 201.37C21.07 201.571 23.3147 201.064 26.0295 200.241C28.7406 199.417 30.8943 198.594 30.8323 198.397C30.774 198.197 28.522 198.703 25.8109 199.527C23.0997 200.35 20.9497 201.174 21.008 201.37ZM31.3826 203.808C31.204 203.218 28.6423 203.477 25.6578 204.38C22.6733 205.284 20.4031 206.494 20.578 207.081C20.7566 207.664 23.3183 207.412 26.3028 206.509C29.2836 205.601 31.5611 204.395 31.3826 203.808ZM41.9575 211.373C41.8956 211.173 39.4286 211.749 36.4441 212.649C33.4633 213.556 31.0947 214.449 31.153 214.646C31.2149 214.846 33.6783 214.27 36.6628 213.37C39.6472 212.467 42.0158 211.57 41.9575 211.373ZM51.4721 199.024C51.3482 198.732 47.89 199.931 43.7431 201.698C39.5998 203.462 36.3384 205.127 36.4623 205.415C36.5862 205.707 40.0444 204.508 44.1913 202.741C48.3346 200.977 51.596 199.312 51.4721 199.024ZM67.3855 194.13C67.2179 193.576 66.1939 193.397 65.0971 193.729C64.0002 194.061 63.2459 194.778 63.4136 195.336C63.5812 195.89 64.6088 196.068 65.7056 195.737C66.7989 195.405 67.5532 194.687 67.3855 194.13ZM10.761 67.9189C10.761 67.9189 8.16283 36.0119 23.1179 33.1003C34.6768 30.841 57.4738 42.3816 69.0582 49.6369C69.2185 49.7353 69.3679 49.83 69.5246 49.932C72.6912 51.9362 74.506 52.461 75.7996 54.4725C76.4592 55.6313 77.9386 60.19 76.6887 65.933C75.9381 69.3875 74.1817 73.2757 70.6688 77.1092C67.7864 80.2503 64.8602 82.4732 62.1892 84.0401C57.6378 86.7112 53.8298 87.491 52.2701 87.7096C51.9385 87.6441 51.6069 87.5639 51.2862 87.4655L51.5158 87.7935C51.5158 87.7935 51.7782 87.7789 52.2701 87.7096C54.7699 88.2162 57.6487 87.9028 60.6295 86.8642C64.9222 85.3592 69.4298 82.3274 73.2779 78.0348C77.6398 73.1627 80.289 67.6384 80.9923 62.7408C81.641 58.2878 80.6862 54.3559 77.9569 51.9107C75.9016 50.0705 73.9084 48.9117 70.8073 49.1267C82.2823 40.3446 91.8734 37.0759 96.3956 41.1281C99.6352 44.0324 99.2635 50.3547 96.0385 58.2623C95.419 59.7782 94.6939 61.3524 93.8703 62.974C94.6064 62.9631 95.3279 62.9813 96.0312 63.0287C99.023 63.2364 101.694 63.9214 104.034 65.0839C106.377 66.2427 108.319 67.8206 109.849 69.8138C111.38 71.8108 112.448 74.132 113.052 76.7849C113.508 78.8547 113.475 82.3529 112.961 87.276C112.44 92.1954 111.69 97.7562 110.702 103.947C109.711 110.139 108.603 116.519 107.382 123.082C106.165 129.649 105.083 135.654 104.143 141.106C103.203 146.557 102.496 151.01 102.029 154.461C101.559 157.915 101.628 159.563 102.233 159.406C103.644 159.038 105.473 157.34 107.718 154.304C109.962 151.276 112.349 147.348 114.878 142.523C117.403 137.706 119.954 132.119 122.523 125.775C125.096 119.431 127.37 112.832 129.334 105.966C131.305 99.1045 132.803 92.1262 133.831 85.0386C134.858 77.9546 135.143 71.1913 134.676 64.7559C134.312 59.7454 133.587 56.1123 132.497 53.8421C131.411 51.5755 130.271 50.0231 129.083 49.1887C127.887 48.3542 126.823 47.8258 125.883 47.5999C124.943 47.3776 124.436 46.7544 124.364 45.7305C124.305 44.9179 125.333 44.2291 127.446 43.6789C129.163 43.2307 131.313 43.1687 133.904 43.4821C136.494 43.7991 139.067 44.896 141.618 46.78C144.165 48.6712 146.435 51.5937 148.418 55.5511C150.396 59.5158 151.639 64.9673 152.142 71.9164C152.572 77.8453 151.985 84.3207 150.389 91.3464C148.789 98.3757 146.636 105.496 143.921 112.708C141.206 119.923 138.091 126.927 134.581 133.723C131.065 140.523 127.599 146.579 124.185 151.892C120.767 157.209 117.589 161.574 114.652 164.992C111.715 168.41 109.438 170.334 107.831 170.753C106.719 171.041 105.229 171.012 103.356 170.67C101.483 170.323 99.5477 169.525 97.5581 168.275C95.5648 167.022 93.7209 165.265 92.0155 163.003C90.3101 160.743 89.0711 157.835 88.3059 154.29C87.8577 152.424 87.7666 149.742 88.029 146.24C88.2877 142.734 88.7468 138.792 89.41 134.401C90.0623 130.017 90.8567 125.36 91.7859 120.429C92.7115 115.506 93.6517 110.733 94.6028 106.112C95.5502 101.491 96.443 97.1477 97.2811 93.0737C98.1156 89.0069 98.746 85.6654 99.176 83.0562C99.8975 78.913 99.7408 75.6734 98.7023 73.3413C97.6601 71.0127 96.1296 70.109 94.1145 70.6337C91.0899 71.4172 88.1492 73.7202 85.2959 77.5392C82.4354 81.3545 79.9501 85.6945 77.8366 90.5666C75.7231 95.4386 74.127 100.333 73.0484 105.245C71.9624 110.16 71.7329 114.096 72.3596 117.059C70.0238 117.456 67.9176 117.43 66.0373 116.986C64.3719 116.694 62.7795 116.013 61.2672 114.949C59.7513 113.885 58.7018 112.132 58.1151 109.679C57.6815 107.949 57.7143 105.744 58.2172 103.062C56.4936 104.224 54.8064 105.252 53.1775 106.137C45.6489 110.233 39.3776 111.308 36.1271 108.4C31.1202 103.915 34.7351 91.2626 44.1695 77.244L43.1892 75.8301C43.1892 75.8301 31.2004 62.9886 30.3914 61.1556C29.5788 59.3263 29.6152 58.4773 29.6152 58.4773C29.6152 58.4773 28.0556 58.3096 27.8916 57.2237C27.7823 56.5059 28.5001 55.2122 28.5001 55.2122C28.5001 55.2122 27.6985 53.7291 26.3757 53.9915C25.0456 54.2538 23.3803 53.9368 23.4386 52.84C23.5042 51.7504 16.1724 57.8469 10.761 67.9189ZM17.8559 41.2702C20.3448 39.9766 22.4547 38.9417 25.8546 39.4409C43.1382 43.023 65.5854 61.1848 66.3944 62.0703C67.207 62.9521 70.7526 66.3702 71.6381 65.5576C72.52 64.7486 72.9937 61.5966 72.7568 59.0712C72.5127 56.5459 72.2248 56.4148 69.5793 54.4397C63.6577 48.8279 33.1244 37.2873 27.7859 36.6896C22.4438 36.0847 17.8559 41.2702 17.8559 41.2702Z" fill="url(#paint0_linear_183_7)"/>
<defs>
<linearGradient id="paint0_linear_183_7" x1="6.7413" y1="53.5127" x2="263.818" y2="205.446" gradientUnits="userSpaceOnUse">
<stop stop-color="#BE4BDB"/>
<stop offset="0.825" stop-color="#7950F2"/>
</linearGradient>
</defs>
</svg>
