<svg width="238" height="257" viewBox="0 0 238 257" fill="none" xmlns="http://www.w3.org/2000/svg">
<path d="M188.787 0.0499878V137.379C188.787 175.76 157.675 206.872 119.294 206.872C80.9122 206.872 49.8002 175.76 49.8002 137.379V0.0499878H98.9633V137.379C98.9633 140.048 99.4891 142.692 100.511 145.159C101.533 147.625 103.03 149.866 104.918 151.754C106.806 153.642 109.047 155.14 111.514 156.161C113.98 157.183 116.624 157.709 119.294 157.709C121.964 157.709 124.607 157.183 127.074 156.161C129.54 155.14 131.782 153.642 133.669 151.754C135.557 149.866 137.055 147.625 138.077 145.159C139.098 142.692 139.624 140.048 139.624 137.379V0.0499878H188.787Z" fill="#35495E"/>
<path d="M237.947 0.0499878V137.379C237.947 202.911 184.826 256.05 119.294 256.05C53.7616 256.05 0.639999 202.911 0.639999 137.379V0.0499878H49.8002V137.379C49.8002 175.76 80.9151 206.872 119.294 206.872C157.672 206.872 188.787 175.76 188.787 137.379V0.0499878H237.947Z" fill="#41B883"/>
</svg>
