<svg width="257" height="256" viewBox="0 0 257 256" fill="none" xmlns="http://www.w3.org/2000/svg">
<path d="M102.593 51.2068L64.1562 127.95L0.206454 0.0872177C0.201535 0.0782312 0.199045 0.0681199 0.199228 0.0578778C0.199411 0.0476358 0.202263 0.0376162 0.207501 0.0288113C0.212738 0.0200065 0.22018 0.0127214 0.229094 0.0076688C0.238009 0.00261616 0.248087 -2.77816e-05 0.258334 2.2013e-07H76.7868C76.9126 2.2013e-07 77.003 0.0557903 77.058 0.167367L102.593 51.2068Z" fill="#35495E"/>
<path d="M192.208 127.962L153.771 51.2563L179.349 0.15558C179.4 0.0518606 179.484 0 179.599 0H256.087C256.195 0 256.225 0.0487156 256.177 0.146149L192.208 127.962Z" fill="#35495E"/>
<path d="M102.592 51.207L128.118 102.166C128.126 102.182 128.138 102.195 128.153 102.205C128.169 102.214 128.186 102.219 128.204 102.219C128.222 102.219 128.239 102.214 128.254 102.205C128.269 102.195 128.282 102.182 128.29 102.166L153.77 51.2565L192.207 127.962L256.189 255.871C256.196 255.885 256.2 255.9 256.199 255.915C256.199 255.93 256.194 255.944 256.186 255.957C256.179 255.97 256.168 255.98 256.154 255.988C256.141 255.995 256.127 255.999 256.112 255.999C205.124 255.999 179.627 255.999 179.621 255.999C179.494 256.01 179.403 255.959 179.35 255.845C179.296 255.731 162.267 221.71 128.262 153.783C128.256 153.772 128.247 153.762 128.237 153.755C128.227 153.748 128.216 153.743 128.205 153.741C128.193 153.739 128.183 153.741 128.174 153.745C128.164 153.75 128.157 153.757 128.153 153.767L76.9965 255.937C76.9873 255.956 76.9734 255.971 76.9563 255.982C76.9392 255.993 76.9197 255.999 76.8999 255.999H0.331305C0.312704 255.999 0.29441 255.994 0.278176 255.985C0.261942 255.976 0.248314 255.963 0.238605 255.947C0.228896 255.931 0.223431 255.913 0.222733 255.894C0.222035 255.876 0.22613 255.857 0.234622 255.841L64.1561 127.95L102.592 51.207Z" fill="#4FC08D"/>
</svg>
