<svg width="256" height="230" viewBox="0 0 256 230" fill="none" xmlns="http://www.w3.org/2000/svg">
<path d="M256 112.377V116.052C254.855 124.342 250.986 131.165 244.395 136.52C232.698 146.044 216.747 152.472 202.365 156.659C202.024 156.758 201.902 156.978 202.001 157.319C207.098 175.489 212.173 203.843 198.474 220.136C178.597 243.79 142.859 214.617 127.807 200.008C127.534 199.735 127.26 199.739 126.987 200.02C113.209 214.014 89.6341 233.823 68.0277 226.871C41.2672 218.258 48.8107 176.422 53.3618 157.012C53.3753 156.955 53.3775 156.896 53.3682 156.838C53.359 156.781 53.3384 156.726 53.3078 156.676C53.2771 156.626 53.237 156.583 53.1896 156.549C53.1423 156.515 53.0886 156.49 53.0318 156.477C32.4836 151.744 3.24267 139.661 0 115.563V112.206C0.341333 110.977 0.618193 109.722 0.830578 108.44C4.10738 88.62 37.0005 76.6278 53.339 71.5078C53.7031 71.394 53.8359 71.1551 53.7372 70.791C48.7879 52.5752 43.9865 24.8589 57.7422 8.70246C77.221 -14.1669 112.139 13.6518 127.09 27.9878C127.59 28.4581 128.076 28.4467 128.546 27.9537C140.561 15.3698 158.959 0.794907 176.731 0.066729C214.756 -1.48065 206.814 48.9798 202.035 70.8365C201.952 71.2158 202.1 71.4547 202.479 71.5533C222.822 76.5937 252.791 88.1649 256 112.377ZM114.267 29.8424C103.299 19.4317 71.0428 -3.79034 62.2933 22.9247C61.3376 25.8526 60.7915 28.606 60.6549 31.185C60.1164 41.7056 61.1631 52.7345 63.7952 64.2715C64.1934 66.0237 65.6384 67.81 67.4133 67.4914C89.3042 63.6078 111.362 61.6205 133.586 61.5295C139.116 61.5067 140.39 58.4347 136.863 54.1794C129.346 45.1076 121.814 36.9952 114.267 29.8424ZM183.546 95.0939C189.474 80.1435 194.014 64.4877 196.119 48.5247C198.155 33.0509 196.05 4.51544 171.873 11.9338C160.256 15.495 148.173 24.9044 139.344 33.0964C137.25 35.042 136.533 36.817 138.479 39.1608C152.974 56.5764 165.824 75.1335 177.027 94.8322C178.263 97.0016 179.981 97.5705 182.181 96.5389C182.802 96.2468 183.29 95.7306 183.546 95.0939ZM102.593 76.0248C95.9602 86.6971 89.9072 97.9042 83.6722 108.827C81.8176 112.081 81.1122 114.516 82.9554 117.724C89.5242 129.17 96.1574 140.578 102.855 151.949C104.023 153.928 105.863 154.918 108.373 154.918C122.027 154.926 135.335 154.922 148.298 154.907C149.325 154.907 150.333 154.637 151.22 154.123C152.107 153.61 152.842 152.871 153.35 151.983C159.539 141.159 165.755 130.327 171.998 119.488C173.898 116.188 174.945 113.355 173.09 110.124C166.628 98.8751 160.146 87.6377 153.646 76.4116C152.227 73.9692 150.221 72.7442 147.627 72.7366C134.542 72.7063 121.458 72.729 108.373 72.8049C105.84 72.82 103.913 73.8933 102.593 76.0248ZM57.5488 142.972C65.354 121.877 74.8544 101.625 86.4256 82.3281C89.1335 77.8111 86.8921 74.9211 81.7948 75.6948C62.0658 78.6758 40.6983 83.6479 23.5292 94.2406C14.2222 99.9977 4.1984 111.694 12.5042 122.776C20.8327 133.892 39.003 141.151 52.3492 145.281C54.9433 146.085 56.6765 145.315 57.5488 142.972ZM198.565 85.821C190.692 106.972 181.168 127.35 169.574 146.726C166.855 151.277 169.074 154.167 174.217 153.371C186.027 151.535 197.651 148.88 209.089 145.406C221.377 141.663 245.362 131.366 246.545 116.188C247.854 99.3037 216.201 87.9259 203.947 83.7958C201.208 82.878 199.415 83.5531 198.565 85.821ZM80.2133 218.008C93.1499 215.801 107.497 204.332 116.964 195.639C119.012 193.762 119.194 191.725 117.464 189.643C103.083 172.448 90.3813 154.091 79.36 134.575C77.0958 130.57 73.4094 131.457 71.8393 135.519C65.4905 151.949 59.8926 170.494 59.2213 188.198C58.7435 200.839 62.5323 221.023 80.2133 218.008ZM149.732 203.422C161.508 213.241 188.132 228.259 195.254 203.968C198.554 192.693 196.426 176.24 193.707 164.032C192.978 160.755 191.625 160.05 188.257 160.528C183.713 161.172 179.173 161.832 174.638 162.507C157.381 165.063 140.034 166.232 122.596 166.012C118.249 165.955 117.601 169.8 119.979 172.827C128.838 184.068 138.756 194.266 149.732 203.422Z" fill="#002C4B"/>
<path d="M62.2932 22.9248C71.0427 -3.79026 103.299 19.4318 114.267 29.8424C121.814 36.9953 129.346 45.1076 136.863 54.1795C140.39 58.4348 139.116 61.5068 133.586 61.5296C111.362 61.6206 89.304 63.6079 67.4132 67.4915C65.6383 67.8101 64.1933 66.0238 63.7951 64.2716C61.163 52.7345 60.1162 41.7057 60.6548 31.185C60.7913 28.6061 61.3375 25.8526 62.2932 22.9248Z" fill="#FF4154"/>
<path d="M196.119 48.5249C194.014 64.488 189.474 80.1438 183.546 95.0942C183.29 95.7309 182.802 96.2471 182.181 96.5392C179.981 97.5707 178.263 97.0019 177.027 94.8325C165.824 75.1338 152.974 56.5766 138.479 39.161C136.533 36.8172 137.25 35.0423 139.344 33.0967C148.173 24.9047 160.256 15.4952 171.873 11.934C196.051 4.51569 198.155 33.0512 196.119 48.5249Z" fill="#FF4154"/>
<path d="M83.6721 108.827C89.9071 97.9048 95.9601 86.6977 102.593 76.0253C103.913 73.8939 105.84 72.8206 108.373 72.8054C121.458 72.7295 134.542 72.7068 147.627 72.7371C150.221 72.7447 152.227 73.9697 153.645 76.4121C160.146 87.6382 166.628 98.8757 173.09 110.125C174.945 113.356 173.898 116.189 171.998 119.488C165.755 130.328 159.539 141.159 153.35 151.983C152.842 152.872 152.107 153.61 151.22 154.124C150.333 154.637 149.325 154.908 148.298 154.907C135.335 154.923 122.027 154.926 108.373 154.919C105.863 154.919 104.023 153.929 102.855 151.949C96.1573 140.579 89.5241 129.171 82.9553 117.725C81.1121 114.516 81.8175 112.081 83.6721 108.827ZM163.362 110.466C161.231 106.59 157.013 99.1943 150.71 88.2792C148.059 83.6939 147.217 81.3501 141.949 81.3273C132.46 81.2894 122.975 81.2667 113.493 81.2591C110.755 81.2591 108.809 82.2565 107.656 84.2514C102.802 92.6027 97.9892 100.981 93.2181 109.385C91.6252 112.184 90.9994 114.516 92.5695 117.247C97.2951 125.469 102.028 133.688 106.769 141.903C108.68 145.225 110 146.351 113.778 146.351C123.032 146.374 132.289 146.374 141.551 146.351C145.226 146.351 147.024 145.805 148.81 142.699C153.027 135.326 157.252 127.969 161.485 120.626C163.749 116.701 165.456 114.266 163.362 110.466Z" fill="#FFD94C"/>
<path d="M86.4259 82.3281C74.8547 101.625 65.3542 121.877 57.5491 142.972C56.6768 145.315 54.9436 146.085 52.3494 145.281C39.0033 141.151 20.833 133.892 12.5044 122.776C4.19866 111.694 14.2225 99.9978 23.5295 94.2406C40.6986 83.6479 62.066 78.6759 81.7951 75.6949C86.8924 74.9212 89.1338 77.8111 86.4259 82.3281Z" fill="#FF4154"/>
<path d="M163.362 110.465C165.455 114.265 163.748 116.7 161.484 120.625C157.252 127.968 153.027 135.325 148.809 142.698C147.023 145.804 145.225 146.351 141.55 146.351C132.289 146.373 123.031 146.373 113.777 146.351C110 146.351 108.68 145.224 106.768 141.902C102.028 133.687 97.2945 125.469 92.569 117.246C90.9988 114.516 91.6246 112.183 93.2175 109.384C97.9886 100.98 102.801 92.6019 107.656 84.2507C108.809 82.2557 110.754 81.2583 113.493 81.2583C122.974 81.2659 132.459 81.2886 141.949 81.3266C147.216 81.3493 148.058 83.6931 150.709 88.2784C157.013 99.1935 161.23 106.589 163.362 110.465ZM104.891 107.154C102.604 111.193 100.829 113.492 103.526 118.202C106.302 123.056 109.101 127.903 111.923 132.743C113.698 135.803 115.416 137.385 118.897 137.396C125.428 137.427 131.746 137.396 137.853 137.305C138.92 137.292 139.968 137.005 140.896 136.471C141.824 135.937 142.601 135.175 143.155 134.256C146.287 129.015 149.492 123.489 152.769 117.679C154.225 115.084 154.221 112.513 152.757 109.964C149.655 104.549 146.503 99.1631 143.302 93.808C141.967 91.5855 139.995 90.4591 137.386 90.4288C131.401 90.3529 125.42 90.3378 119.443 90.3833C116.246 90.3947 114.198 91.1001 112.628 93.7739C110.011 98.2112 107.432 102.671 104.891 107.154Z" fill="#002C4B"/>
<path d="M169.573 146.727C181.167 127.35 190.691 106.973 198.564 85.8213C199.414 83.5533 201.207 82.8782 203.946 83.796C216.2 87.9262 247.853 99.304 246.544 116.189C245.361 131.367 221.376 141.663 209.088 145.407C197.65 148.881 186.026 151.536 174.216 153.371C169.073 154.168 166.854 151.278 169.573 146.727Z" fill="#FF4154"/>
<path d="M104.892 107.154C107.433 102.672 110.012 98.2114 112.629 93.7741C114.199 91.1003 116.247 90.3949 119.444 90.3835C125.421 90.338 131.402 90.3532 137.387 90.429C139.996 90.4594 141.968 91.5858 143.303 93.8082C146.504 99.1634 149.656 104.549 152.758 109.965C154.222 112.513 154.226 115.085 152.77 117.679C149.493 123.489 146.288 129.015 143.155 134.256C142.602 135.175 141.824 135.938 140.896 136.471C139.969 137.005 138.921 137.292 137.853 137.305C131.747 137.396 125.429 137.427 118.898 137.396C115.416 137.385 113.698 135.804 111.923 132.743C109.102 127.904 106.303 123.057 103.526 118.202C100.83 113.492 102.605 111.193 104.892 107.154ZM137.501 126.007C140.14 122.389 145.363 115.369 142.598 110.26C140.846 107.041 137.91 100.123 133.848 99.5654C130.731 99.133 121.094 98.3366 118.67 101.511C116.235 104.697 110.615 112.445 113.254 117.315C115.189 120.876 118.192 127.816 122.584 128.18C125.52 128.431 135.145 129.25 137.501 126.007Z" fill="#FFD94C"/>
<path d="M142.597 110.261C145.362 115.369 140.14 122.389 137.5 126.008C135.145 129.25 125.519 128.431 122.584 128.181C118.192 127.817 115.188 120.876 113.254 117.315C110.614 112.445 116.235 104.697 118.67 101.511C121.093 98.3368 130.73 99.1332 133.848 99.5656C137.91 100.123 140.845 107.041 142.597 110.261ZM133.848 113.822C133.848 112.271 133.232 110.783 132.135 109.687C131.038 108.59 129.551 107.974 127.999 107.974C126.448 107.974 124.961 108.59 123.864 109.687C122.767 110.783 122.151 112.271 122.151 113.822C122.151 115.373 122.767 116.86 123.864 117.957C124.961 119.054 126.448 119.67 127.999 119.67C129.551 119.67 131.038 119.054 132.135 117.957C133.232 116.86 133.848 115.373 133.848 113.822Z" fill="#002C4B"/>
<path d="M127.999 119.67C131.228 119.67 133.847 117.052 133.847 113.822C133.847 110.592 131.228 107.974 127.999 107.974C124.769 107.974 122.15 110.592 122.15 113.822C122.15 117.052 124.769 119.67 127.999 119.67Z" fill="#FFD94C"/>
<path d="M116.962 195.64C107.496 204.332 93.1488 215.801 80.2122 218.008C62.5312 221.023 58.7424 200.839 59.2202 188.198C59.8915 170.495 65.4894 151.949 71.8382 135.519C73.4083 131.457 77.0947 130.57 79.3589 134.575C90.3802 154.092 103.082 172.448 117.463 189.643C119.193 191.726 119.01 193.762 116.962 195.64Z" fill="#FF4154"/>
<path d="M195.254 203.968C188.131 228.259 161.507 213.241 149.731 203.422C138.755 194.266 128.838 184.068 119.978 172.827C117.6 169.8 118.249 165.955 122.595 166.012C140.034 166.232 157.381 165.063 174.637 162.507C179.173 161.832 183.713 161.172 188.256 160.528C191.624 160.05 192.978 160.755 193.706 164.032C196.426 176.24 198.553 192.693 195.254 203.968Z" fill="#FF4154"/>
</svg>
