<svg width="222" height="265" viewBox="0 0 222 265" fill="none" xmlns="http://www.w3.org/2000/svg">
<path d="M203.276 38.8831C179.762 5.01525 132.951 -4.90782 99.2991 16.4484L39.9764 54.4149C23.7975 64.5536 12.5801 81.164 9.34432 99.9315C6.53997 115.679 8.91288 131.858 16.463 145.88C11.2858 153.646 7.83429 162.274 6.32425 171.334C2.87275 190.533 7.40285 210.38 18.6202 226.127C42.3493 259.995 88.9446 269.918 122.597 248.562L181.919 210.811C198.098 200.672 209.316 184.062 212.551 165.294C215.356 149.547 212.983 133.368 205.433 119.346C210.61 111.58 214.062 102.952 215.572 93.8914C219.239 74.4767 214.709 54.6306 203.276 38.8831Z" fill="#FF4154" stroke="#002B3B" stroke-width="10.4361"/>
<path d="M93.4749 229.363C74.2759 234.325 54.214 226.774 42.9967 210.596C36.0937 201.104 33.505 189.239 35.4465 177.591C35.8779 175.649 36.3094 173.923 36.7408 171.982L37.8194 168.53L40.8395 170.688C47.9582 175.865 55.7241 179.748 64.1371 182.336L66.2943 182.984L66.0786 185.141C65.8629 188.161 66.7257 191.397 68.4515 193.985C71.903 198.947 77.9431 201.32 83.7675 199.81C85.0618 199.378 86.3561 198.947 87.4347 198.3L146.542 160.549C149.562 158.607 151.503 155.803 152.15 152.351C152.798 148.9 151.935 145.233 149.993 142.428C146.542 137.467 140.502 135.31 134.677 136.82C133.383 137.251 132.089 137.683 131.01 138.33L108.359 152.783C104.692 155.156 100.594 156.882 96.2792 157.96C77.0802 162.922 57.0184 155.371 45.801 139.193C39.1137 129.701 36.3094 117.836 38.4666 106.188C40.408 94.9702 47.311 84.8314 57.0184 78.7913L116.341 41.0405C120.008 38.6676 124.107 36.9418 128.421 35.6475C147.62 30.686 167.682 38.2361 178.9 54.4151C185.803 63.9067 188.391 75.7712 186.45 87.42C186.018 89.3615 185.587 91.0873 184.94 93.0287L183.861 96.4802L180.841 94.3231C173.722 89.1458 165.956 85.2629 157.543 82.6742L155.386 82.0271L155.602 79.8699C155.818 76.8498 154.955 73.614 153.229 71.0254C149.777 66.0639 143.737 63.9067 137.913 65.4167C136.619 65.8482 135.324 66.2796 134.246 66.9268L75.1388 104.678C72.1187 106.619 70.1772 109.423 69.5301 112.875C68.8829 116.326 69.7458 119.994 71.6873 122.798C75.1388 127.759 81.1789 129.917 87.0033 128.407C88.2976 127.975 89.5919 127.544 90.6705 126.897L113.321 112.443C116.988 110.071 121.087 108.345 125.401 107.05C144.6 102.089 164.662 109.639 175.879 125.818C182.782 135.31 185.371 147.174 183.43 158.823C181.488 170.04 174.585 180.179 164.878 186.219L105.555 223.97C101.888 226.343 97.7893 228.069 93.4749 229.363Z" fill="white"/>
<path d="M93.4749 229.363C74.2759 234.325 54.214 226.774 42.9967 210.596C36.0937 201.104 33.505 189.239 35.4465 177.591C35.8779 175.649 36.3094 173.923 36.7408 171.982L37.8194 168.53L40.8395 170.688C47.9582 175.865 55.7241 179.748 64.1371 182.336L66.2943 182.984L66.0786 185.141C65.8629 188.161 66.7257 191.397 68.4515 193.985C71.903 198.947 77.9431 201.32 83.7675 199.81C85.0618 199.378 86.3561 198.947 87.4347 198.3L146.542 160.549C149.562 158.607 151.503 155.803 152.15 152.351C152.798 148.9 151.935 145.233 149.993 142.428C146.542 137.467 140.502 135.31 134.677 136.82C133.383 137.251 132.089 137.683 131.01 138.33L108.359 152.783C104.692 155.156 100.594 156.882 96.2792 157.96C77.0802 162.922 57.0184 155.371 45.801 139.193C39.1137 129.701 36.3094 117.836 38.4666 106.188C40.408 94.9702 47.311 84.8314 57.0184 78.7913L116.341 41.0405C120.008 38.6676 124.107 36.9418 128.421 35.6475C147.62 30.686 167.682 38.2361 178.9 54.4151C185.803 63.9067 188.391 75.7712 186.45 87.42C186.018 89.3615 185.587 91.0873 184.94 93.0287L183.861 96.4802L180.841 94.3231C173.722 89.1458 165.956 85.2629 157.543 82.6742L155.386 82.0271L155.602 79.8699C155.818 76.8498 154.955 73.614 153.229 71.0254C149.777 66.0639 143.737 63.9067 137.913 65.4167C136.619 65.8482 135.324 66.2796 134.246 66.9268L75.1388 104.678C72.1187 106.619 70.1772 109.423 69.5301 112.875C68.8829 116.326 69.7458 119.994 71.6873 122.798C75.1388 127.759 81.1789 129.917 87.0033 128.407C88.2976 127.975 89.5919 127.544 90.6705 126.897L113.321 112.443C116.988 110.071 121.087 108.345 125.401 107.05C144.6 102.089 164.662 109.639 175.879 125.818C182.782 135.31 185.371 147.174 183.43 158.823C181.488 170.04 174.585 180.179 164.878 186.219L105.555 223.97C101.888 226.343 97.7893 228.069 93.4749 229.363Z" fill="#002B3B" stroke="#FFD94C" stroke-width="9.39301"/>
</svg>
