<svg width="256" height="219" viewBox="0 0 256 219" fill="none" xmlns="http://www.w3.org/2000/svg">
<path d="M0 0.662419V0.0154047L102.439 0.0308092C102.58 0.0309719 102.718 0.0674833 102.84 0.136779C102.963 0.206075 103.065 0.305793 103.137 0.426208L127.59 42.1277C127.614 42.1685 127.643 42.2033 127.677 42.2304C127.955 42.4495 128.18 42.4102 128.355 42.1123C136.448 28.2033 144.544 14.3336 152.644 0.503234C152.733 0.350033 152.861 0.222916 153.015 0.134601C153.169 0.0462865 153.344 -0.000129634 153.522 2.71931e-07L255.827 0.0308092C255.857 0.0305758 255.887 0.0382567 255.914 0.05305C255.94 0.0678433 255.962 0.08921 255.977 0.114915C255.992 0.140619 256 0.169719 256 0.199185C256 0.22865 255.991 0.257399 255.976 0.282428L128.17 218.264C128.145 218.307 128.11 218.342 128.067 218.367C128.024 218.391 127.976 218.404 127.926 218.404C127.877 218.404 127.828 218.391 127.786 218.367C127.743 218.342 127.707 218.307 127.682 218.264L0 0.662419ZM128.073 66.288C128.057 66.3124 128.036 66.3326 128.011 66.3465C127.986 66.3605 127.958 66.3678 127.929 66.3678C127.9 66.3678 127.872 66.3605 127.847 66.3465C127.822 66.3326 127.8 66.3124 127.785 66.288L96.0044 12.0622C95.989 12.0366 95.9672 12.0155 95.941 12.0011C95.9149 11.9866 95.8854 11.9794 95.8555 11.98L20.9971 11.9697C20.9668 11.9691 20.9369 11.9766 20.9104 11.9914C20.884 12.0063 20.862 12.0279 20.8468 12.0541C20.8316 12.0804 20.8237 12.1102 20.824 12.1405C20.8242 12.1708 20.8326 12.2005 20.8482 12.2265L127.79 194.684C127.805 194.709 127.827 194.729 127.852 194.743C127.877 194.757 127.905 194.764 127.934 194.764C127.963 194.764 127.991 194.757 128.016 194.743C128.041 194.729 128.063 194.709 128.078 194.684L235.03 12.2265C235.046 12.2005 235.054 12.1708 235.054 12.1405C235.055 12.1102 235.047 12.0804 235.031 12.0541C235.016 12.0279 234.994 12.0063 234.968 11.9914C234.941 11.9766 234.911 11.9691 234.881 11.9697L159.997 11.9749C159.967 11.9742 159.938 11.9815 159.912 11.9959C159.885 12.0104 159.864 12.0314 159.848 12.057L128.073 66.288Z" fill="#002C4B"/>
<path d="M128.073 66.2881L159.848 12.0571C159.864 12.0315 159.886 12.0104 159.912 11.9959C159.938 11.9815 159.967 11.9743 159.997 11.9749L234.881 11.9698C234.912 11.9691 234.942 11.9766 234.968 11.9914C234.995 12.0063 235.017 12.0279 235.032 12.0542C235.047 12.0804 235.055 12.1102 235.055 12.1405C235.054 12.1708 235.046 12.2005 235.03 12.2265L128.078 194.684C128.063 194.709 128.042 194.729 128.016 194.743C127.991 194.757 127.963 194.764 127.934 194.764C127.905 194.764 127.877 194.757 127.852 194.743C127.827 194.729 127.806 194.709 127.79 194.684L20.8485 12.2265C20.8328 12.2005 20.8245 12.1708 20.8242 12.1405C20.824 12.1102 20.8319 12.0804 20.8471 12.0542C20.8623 12.0279 20.8843 12.0063 20.9107 11.9914C20.9371 11.9766 20.9671 11.9691 20.9974 11.9698L95.8558 11.98C95.8856 11.9794 95.9151 11.9867 95.9413 12.0011C95.9674 12.0155 95.9893 12.0366 96.0047 12.0622L127.785 66.2881C127.801 66.3125 127.822 66.3326 127.847 66.3466C127.872 66.3605 127.9 66.3678 127.929 66.3678C127.958 66.3678 127.986 66.3605 128.011 66.3466C128.036 66.3326 128.058 66.3125 128.073 66.2881ZM168.65 26.6457C168.62 26.6461 168.59 26.6543 168.564 26.6696C168.538 26.6849 168.516 26.7068 168.501 26.733L128.078 95.7015C128.062 95.727 128.041 95.748 128.014 95.7627C127.988 95.7773 127.959 95.7849 127.929 95.7849C127.899 95.7849 127.87 95.7773 127.844 95.7627C127.818 95.748 127.796 95.727 127.78 95.7015L87.3522 26.733C87.337 26.7068 87.3154 26.6849 87.2892 26.6696C87.2631 26.6543 87.2335 26.6461 87.2033 26.6457H46.8368C46.8064 26.6461 46.7765 26.6544 46.7503 26.6699C46.7241 26.6854 46.7024 26.7075 46.6873 26.7339C46.6723 26.7604 46.6644 26.7904 46.6645 26.8208C46.6646 26.8513 46.6727 26.8812 46.6879 26.9076L127.78 165.261C127.796 165.286 127.818 165.307 127.844 165.322C127.87 165.336 127.899 165.344 127.929 165.344C127.959 165.344 127.988 165.336 128.014 165.322C128.041 165.307 128.062 165.286 128.078 165.261L209.181 26.9076C209.196 26.8812 209.204 26.8513 209.204 26.8208C209.204 26.7904 209.196 26.7604 209.181 26.7339C209.166 26.7075 209.144 26.6854 209.118 26.6699C209.092 26.6544 209.062 26.6461 209.032 26.6457H168.65Z" fill="#FF4154"/>
<path d="M168.649 26.6455H209.031C209.062 26.6459 209.092 26.6543 209.118 26.6697C209.144 26.6852 209.166 26.7073 209.181 26.7338C209.196 26.7603 209.204 26.7902 209.204 26.8207C209.203 26.8511 209.195 26.881 209.18 26.9074L128.078 165.26C128.062 165.286 128.04 165.307 128.014 165.322C127.988 165.336 127.959 165.344 127.929 165.344C127.899 165.344 127.869 165.336 127.843 165.322C127.817 165.307 127.795 165.286 127.78 165.26L46.6875 26.9074C46.6722 26.881 46.6642 26.8511 46.6641 26.8207C46.664 26.7902 46.6718 26.7603 46.6869 26.7338C46.7019 26.7073 46.7237 26.6852 46.7499 26.6697C46.7761 26.6543 46.8059 26.6459 46.8364 26.6455H87.2028C87.2331 26.6459 87.2627 26.6542 87.2888 26.6695C87.3149 26.6848 87.3366 26.7066 87.3517 26.7328L127.78 95.7013C127.795 95.7268 127.817 95.7479 127.843 95.7625C127.869 95.7771 127.899 95.7848 127.929 95.7848C127.959 95.7848 127.988 95.7771 128.014 95.7625C128.04 95.7479 128.062 95.7268 128.078 95.7013L168.501 26.7328C168.516 26.7066 168.537 26.6848 168.563 26.6695C168.59 26.6542 168.619 26.6459 168.649 26.6455ZM175.643 38.5998C175.613 38.5992 175.584 38.6065 175.558 38.6209C175.532 38.6353 175.51 38.6564 175.494 38.682L128.072 119.61C128.057 119.634 128.036 119.655 128.011 119.669C127.986 119.682 127.957 119.69 127.929 119.69C127.9 119.69 127.872 119.682 127.846 119.669C127.821 119.655 127.8 119.634 127.785 119.61L80.363 38.6923C80.3476 38.6667 80.3257 38.6456 80.2995 38.6312C80.2734 38.6167 80.2439 38.6095 80.214 38.6101L67.854 38.605C67.8237 38.6043 67.7938 38.6118 67.7674 38.6266C67.7409 38.6415 67.719 38.6632 67.7037 38.6894C67.6885 38.7156 67.6806 38.7454 67.6809 38.7757C67.6811 38.8061 67.6895 38.8358 67.7051 38.8617L127.785 141.372C127.8 141.397 127.821 141.417 127.846 141.431C127.872 141.445 127.9 141.452 127.929 141.452C127.957 141.452 127.986 141.445 128.011 141.431C128.036 141.417 128.057 141.397 128.072 141.372L188.157 38.8669C188.173 38.8409 188.181 38.8112 188.182 38.7809C188.182 38.7506 188.174 38.7207 188.159 38.6945C188.144 38.6683 188.122 38.6466 188.095 38.6318C188.069 38.6169 188.039 38.6095 188.008 38.6101L175.643 38.5998Z" fill="#002C4B"/>
<path d="M175.644 38.6001L188.009 38.6104C188.04 38.6097 188.069 38.6172 188.096 38.6321C188.122 38.6469 188.144 38.6686 188.16 38.6948C188.175 38.721 188.183 38.7509 188.182 38.7812C188.182 38.8115 188.174 38.8412 188.158 38.8672L128.073 141.373C128.058 141.397 128.037 141.417 128.012 141.431C127.987 141.445 127.958 141.452 127.929 141.452C127.901 141.452 127.872 141.445 127.847 141.431C127.822 141.417 127.801 141.397 127.786 141.373L67.7059 38.862C67.6903 38.836 67.6819 38.8063 67.6816 38.776C67.6814 38.7457 67.6893 38.7159 67.7045 38.6897C67.7197 38.6634 67.7417 38.6418 67.7681 38.6269C67.7946 38.6121 67.8245 38.6046 67.8548 38.6053L80.2148 38.6104C80.2447 38.6098 80.2742 38.617 80.3003 38.6315C80.3265 38.6459 80.3483 38.667 80.3637 38.6926L127.786 119.61C127.801 119.635 127.822 119.655 127.847 119.669C127.872 119.683 127.901 119.69 127.929 119.69C127.958 119.69 127.987 119.683 128.012 119.669C128.037 119.655 128.058 119.635 128.073 119.61L175.495 38.6823C175.511 38.6567 175.532 38.6356 175.559 38.6212C175.585 38.6068 175.614 38.5995 175.644 38.6001Z" fill="#FFD94C"/>
</svg>
