<svg width="248" height="256" viewBox="0 0 248 256" fill="none" xmlns="http://www.w3.org/2000/svg">
<path d="M238.898 85.9589C233.506 72.9856 222.569 58.9782 214.005 54.5503C220.112 66.377 224.351 79.0782 226.571 92.2022V92.3207L226.594 92.452C236.16 119.824 234.776 149.833 222.733 176.209C208.511 206.724 174.099 238.001 120.214 236.465C62.007 234.816 10.7158 191.609 1.14279 135.035C-0.602141 126.112 1.14279 121.588 2.02005 114.336C0.823419 119.969 0.155629 125.701 0.0253906 131.459V132.099C0.0802306 163.151 11.7743 193.054 32.7991 215.905C53.8239 238.756 82.6516 252.895 113.592 255.53C144.531 258.165 175.335 249.105 199.922 230.139C224.508 211.173 241.091 183.678 246.396 153.083C246.604 151.482 246.774 149.897 246.96 148.28C249.516 127.155 246.749 105.726 238.911 85.9429L238.898 85.9589Z" fill="url(#paint0_radial_0_1)"/>
<path d="M238.898 85.9589C233.506 72.9856 222.569 58.9782 214.005 54.5503C220.112 66.377 224.351 79.0782 226.571 92.2022V92.3207L226.594 92.452C236.16 119.824 234.776 149.833 222.733 176.209C208.511 206.724 174.099 238.001 120.214 236.465C62.007 234.816 10.7158 191.609 1.14279 135.035C-0.602141 126.112 1.14279 121.588 2.02005 114.336C0.823419 119.969 0.155629 125.701 0.0253906 131.459V132.099C0.0802306 163.151 11.7743 193.054 32.7991 215.905C53.8239 238.756 82.6516 252.895 113.592 255.53C144.531 258.165 175.335 249.105 199.922 230.139C224.508 211.173 241.091 183.678 246.396 153.083C246.604 151.482 246.774 149.897 246.96 148.28C249.516 127.155 246.749 105.726 238.911 85.9429L238.898 85.9589Z" fill="url(#paint1_radial_0_1)"/>
<path d="M178.578 100.527C178.847 100.716 179.097 100.905 179.35 101.094C176.233 95.5662 172.353 90.5058 167.824 86.0614C129.243 47.4809 157.716 2.43303 162.515 0.12781L162.563 0.057373C131.395 18.307 120.813 52.0849 119.853 68.9899C121.3 68.8907 122.734 68.769 124.213 68.769C135.272 68.7904 146.127 71.7395 155.676 77.3164C165.225 82.8933 173.127 90.8993 178.578 100.521V100.527Z" fill="url(#paint2_linear_0_1)"/>
<path d="M120.138 76.9231L112.604 84.3988L124.893 89.3848L134.034 78.0402L120.138 76.9231Z" fill="#0E56D7"/>
<path d="M124.895 89.3829L148.686 88.659L134.037 78.0383L124.895 89.3829Z" fill="#1053D1"/>
<path d="M146.917 77.96L134.037 78.0386L148.685 88.6591L162.231 87.7747L146.917 77.96Z" fill="#0B4FBF"/>
<path d="M162.228 87.7703L154.531 77.1516L165.183 83.5366L162.228 87.7703Z" fill="#0B48B0"/>
<path d="M172.423 94.2756L162.231 87.7728L165.186 83.5391L172.423 94.2756Z" fill="#0C45A7"/>
<path d="M162.23 87.7754L160.524 95.051L169.845 98.7804L162.23 87.7754Z" fill="#0F46AF"/>
<path d="M162.231 87.7754L172.423 94.2782L169.847 98.7804L162.231 87.7754Z" fill="#0C47AD"/>
<path d="M148.682 88.66L162.226 87.7754L160.521 95.0546L148.682 88.66Z" fill="#0E4FC3"/>
<path d="M148.686 88.6594L137.982 98.3561L151.757 105.104L148.686 88.6594Z" fill="#174DCA"/>
<path d="M124.895 89.3834L148.686 88.6594L137.981 98.3561L124.895 89.3834Z" fill="#1650D4"/>
<path d="M160.524 95.0552L167.001 107.628L169.85 98.7864L160.524 95.0552Z" fill="#1246B2"/>
<path d="M166.999 107.627L169.847 98.7856L176.636 114.936L166.999 107.627Z" fill="#133EA1"/>
<path d="M169.85 98.7856L180.193 106.366L176.637 114.936L169.85 98.7856Z" fill="#103D98"/>
<path d="M172.425 94.2813L174.422 93.2822L180.192 106.366L172.425 94.2813Z" fill="#0B3785"/>
<path d="M180.194 106.366L182.499 108.528L174.424 93.2822L180.194 106.366Z" fill="#0B3685"/>
<path d="M180.193 106.366L172.427 94.2808L169.85 98.7852L180.193 106.366ZM165.187 83.5391L172.427 94.2808L174.424 93.2981L165.187 83.5391Z" fill="#0C3B91"/>
<path d="M184.804 125.229L182.5 108.528L185.325 117.904L184.768 125.229H184.804Z" fill="#0B3279"/>
<path d="M180.193 106.366L184.803 125.23L182.499 108.528L180.193 106.366Z" fill="#0F388D"/>
<path d="M176.638 114.937L184.805 125.23L180.195 106.366L176.638 114.937Z" fill="#0D3481"/>
<path d="M184.766 125.229L185.322 117.903L185.882 136.688L184.801 125.229H184.766Z" fill="#0B2E71"/>
<path d="M183.434 140.076L185.883 136.689L184.802 125.23L183.434 140.076Z" fill="#0E2F77"/>
<path d="M183.907 148.703L181.949 149.645L185.883 136.69L183.907 148.703Z" fill="#0E2969"/>
<path d="M181.949 149.645L185.883 136.69L183.435 140.077L181.949 149.645Z" fill="#0C2A69"/>
<path d="M183.435 140.076L184.804 125.23L180.609 130.179L183.435 140.076Z" fill="#123180"/>
<path d="M181.948 149.645L183.433 140.077L175.344 153.681L181.948 149.645Z" fill="#112B70"/>
<path d="M176.638 114.935L184.805 125.228L180.61 130.178L176.638 114.935Z" fill="#12378C"/>
<path d="M183.433 140.071L180.609 130.179L176.344 142.36L183.433 140.071Z" fill="#122E7B"/>
<path d="M174.943 166.26L181.951 149.644L175.396 161.755L174.943 166.26Z" fill="#11296C"/>
<path d="M175.393 161.749L181.944 149.644L175.344 153.678L175.393 161.749Z" fill="#142A72"/>
<path d="M181.948 149.644L174.942 166.251L183.907 148.691L181.948 149.644ZM168.602 173.828L174.942 166.261L175.394 161.756L168.602 173.828ZM160.418 180.809L168.602 173.828L159.959 177.805L160.418 180.809Z" fill="#112768"/>
<path d="M112.693 185.669L104.437 187.692L104.688 181.923L112.693 185.669Z" fill="#1C226A"/>
<path d="M66.7676 107.15L69.0464 106.304L63.2871 119.389L66.7676 107.15Z" fill="#182B7A"/>
<path d="M63.2871 119.389L67.6484 118.576L69.0464 106.304L63.2871 119.389Z" fill="#1F308D"/>
<path d="M63.5491 135.104L63.2871 119.389L67.6484 118.576L63.5491 135.104Z" fill="#1E2B7F"/>
<path d="M160.527 95.0547L151.758 105.105L167.003 107.627L160.527 95.0547ZM84.0156 84.7486L95.2068 77.0862L85.2172 82.059L84.0156 84.7486Z" fill="#1346B5"/>
<path d="M85.2148 82.053L100.571 73.0605L95.2045 77.0867L85.2148 82.053Z" fill="#1244AC"/>
<path d="M95.2021 77.0867L109.222 70.3972L100.569 73.0605L95.2021 77.0867Z" fill="#0E4AB6"/>
<path d="M148.684 88.6605L151.755 105.105L160.523 95.0551L148.684 88.6605ZM103.734 76.3069L116.799 71.0654L109.217 70.384L103.734 76.3069Z" fill="#0E4BBA"/>
<path d="M119.829 68.4834L109.228 70.395L116.805 71.0758L119.829 68.4834Z" fill="#0A4EBC"/>
<path d="M129.86 70.9493L116.803 71.077L119.828 68.4834" fill="#0C54CC"/>
<path d="M154.53 77.1443L146.917 77.9534L162.231 87.7813L154.53 77.1443ZM129.866 70.9495L146.868 73.1903L136.653 69.554L129.866 70.9495Z" fill="#0B4BB4"/>
<path d="M154.526 77.1503L146.868 73.1917L155.376 76.5315L154.526 77.1503Z" fill="#0C3889"/>
<path d="M65.956 150.62L70.995 154.758L63.5625 135.102L65.956 150.62ZM135.333 189.713L139.754 179.301L123.647 183.629L135.333 189.713ZM139.754 179.301L153.217 183.039L154.032 172.621L139.754 179.301Z" fill="#202575"/>
<path d="M159.958 177.804L154.032 172.621L168.351 163.102L159.958 177.804Z" fill="#1B2773"/>
<path d="M168.352 163.103L159.959 177.805L168.602 173.828L175.394 161.756L168.352 163.103Z" fill="#15276D"/>
<path d="M155.38 76.5331L154.53 77.1523L165.188 83.5403L155.38 76.5331ZM146.917 77.9614L154.53 77.1523L146.868 73.1917L146.917 77.9614Z" fill="#0C409D"/>
<path d="M119.832 68.4834L129.864 70.9502L136.651 69.5546L119.832 68.4834ZM146.868 73.1909L129.864 70.9502L146.917 77.9606L146.868 73.1909Z" fill="#0B4CB7"/>
<path d="M129.866 70.9507L134.037 78.0398L146.917 77.9611L129.866 70.9507Z" fill="#0B55CE"/>
<path d="M129.868 70.9507L134.039 78.0398L120.145 76.9227L129.868 70.9507Z" fill="#0A52C5"/>
<path d="M116.803 71.0784L120.136 76.9227L129.86 70.9507L116.803 71.0784Z" fill="#0951C4"/>
<path d="M103.742 76.3068L116.807 71.0784L120.14 76.9227L103.742 76.3068Z" fill="#0B50C4"/>
<path d="M95.2021 77.0865L103.742 76.3069L109.222 70.4102L95.2021 77.0865ZM103.742 76.3069L112.605 84.3983L120.136 76.9227L103.742 76.3069Z" fill="#0F4DBF"/>
<path d="M103.743 76.3076L89.3135 89.847L95.2038 77.0872L103.743 76.3076Z" fill="#1546B6"/>
<path d="M89.3135 89.847L98.5205 91.3769L103.743 76.3076L89.3135 89.847Z" fill="#1549BD"/>
<path d="M98.5195 91.3769L103.742 76.3076L112.605 84.3992L98.5195 91.3769Z" fill="#144BC3"/>
<path d="M75.6162 92.7668L76.1762 98.2114L84.0113 84.7473L75.6162 92.7668Z" fill="#173794"/>
<path d="M69.0469 106.303L75.6183 92.7676L76.1781 98.2121L69.0469 106.303Z" fill="#192F84"/>
<path d="M76.1768 98.2114L84.012 84.7473L89.313 89.8446L76.1768 98.2114Z" fill="#1A389B"/>
<path d="M75.7001 109.882L76.1746 98.2124L69.0469 106.3L75.7001 109.882Z" fill="#1D3089"/>
<path d="M75.7031 109.882L76.1777 98.2124L85.4294 105.727L75.7031 109.882Z" fill="#1E389F"/>
<path d="M85.433 105.73L89.313 89.8452L76.1768 98.2119L85.433 105.73Z" fill="#1C40AF"/>
<path d="M85.4336 105.73L89.3136 89.8452L98.5206 91.3751L85.4336 105.73Z" fill="#1E41B7"/>
<path d="M67.6455 118.57L69.0429 106.304L75.696 109.887L67.6455 118.57Z" fill="#192C7D"/>
<path d="M135.33 189.713L147.71 187.79L153.213 183.04L135.33 189.713ZM62.6426 137.953L63.5562 135.097L63.2943 119.372L62.6426 137.953ZM67.6555 118.57L63.5562 135.097L70.9885 154.753L67.351 131.984L67.6555 118.57Z" fill="#162467"/>
<path d="M70.9824 154.754L77.1121 155.616L72.8184 145.59L70.9824 154.754Z" fill="#1A236A"/>
<path d="M159.955 177.805L153.213 183.046L147.708 187.796L160.419 180.816L159.955 177.805ZM123.882 191.527L133.492 191.797L147.708 187.79L135.329 189.713L123.882 191.527ZM76.7012 166.166L83.1449 167.404L77.1105 155.611L76.7012 166.166Z" fill="#132668"/>
<path d="M104.686 181.923L93.7739 173.516L89.239 177.883L104.435 187.694L104.686 181.923ZM65.9529 150.621L73.274 165.035L70.9821 154.758L65.9529 150.621ZM62.6328 137.96L65.9529 150.621L63.5463 135.103L62.6328 137.96ZM123.645 183.629L104.686 181.923L112.695 185.67L104.435 187.694L94.4909 184.596L105.485 189.381L123.883 191.54L135.344 189.725L123.645 183.629ZM77.1114 155.62L70.992 154.758L76.7152 166.165L77.1114 155.62ZM67.3509 131.984L70.992 154.758L72.8288 145.585L67.3509 131.984ZM83.1457 167.404L76.7021 166.165L73.2839 165.035L78.444 171.996L85.585 178.548L94.4909 184.596L89.2521 177.897L83.1457 167.404Z" fill="#1B2268"/>
<path d="M67.6455 118.576L76.2992 131.972L75.7 109.888L67.6455 118.576Z" fill="#212A81"/>
<path d="M67.3516 131.984L72.8163 145.589L76.3 131.971L67.3516 131.984Z" fill="#21267A"/>
<path d="M72.8213 145.589L76.3049 131.971L80.6302 142.732L72.8213 145.589Z" fill="#262781"/>
<path d="M77.1084 155.621L93.7022 165.91L80.6218 142.733L77.1084 155.621Z" fill="#272379"/>
<path d="M73.2881 165.036L76.7162 166.166L70.9961 154.759L73.2881 165.036ZM109.94 170.954L104.701 181.923L123.658 183.63L109.94 170.954ZM77.1157 155.621L83.1501 167.414L89.2433 177.897L93.7781 173.53L93.7094 165.923L77.1157 155.621Z" fill="#1E226D"/>
<path d="M154.031 172.622L153.216 183.039L159.957 177.798L154.031 172.622ZM125.018 171.125L123.64 183.629L139.752 179.301L139.179 165.245L125.018 171.125Z" fill="#222475"/>
<path d="M67.3516 131.984H76.3L67.6463 118.589L67.3516 131.984ZM139.178 165.246L139.751 179.302L154.03 172.622L139.178 165.246Z" fill="#23277D"/>
<path d="M139.176 165.245L148.367 156.918L154.028 172.622L139.176 165.245Z" fill="#1E2776"/>
<path d="M154.03 172.622L160.977 151.568L148.369 156.918L154.03 172.622Z" fill="#222B86"/>
<path d="M168.351 163.103L154.032 172.622L160.98 151.568L168.351 163.103Z" fill="#192974"/>
<path d="M175.345 153.681L160.98 151.568L168.35 163.103L175.394 161.756L175.345 153.681Z" fill="#172A75"/>
<path d="M176.343 142.367L160.98 151.569L175.345 153.681L183.435 140.074L176.343 142.367Z" fill="#172D7D"/>
<path d="M69.0475 106.301L75.6188 92.7646L66.7783 107.146L69.0475 106.301ZM170.614 123.057L176.343 142.363L180.599 130.176L170.614 123.057Z" fill="#18338A"/>
<path d="M180.609 130.178L176.638 114.935L170.613 123.059L180.609 130.178Z" fill="#153791"/>
<path d="M160.98 151.567L176.343 142.365L161.456 135.735L160.98 151.567Z" fill="#1B318B"/>
<path d="M160.978 151.568L147.057 137.494L148.37 156.918L160.978 151.568Z" fill="#242D8D"/>
<path d="M139.178 165.245L128.488 155.774L148.369 156.918L139.178 165.245Z" fill="#2A2B8F"/>
<path d="M77.1171 155.621L80.6302 142.733L72.8213 145.59L77.1171 155.621ZM128.492 155.769L125.022 171.126L139.176 165.246L128.492 155.769Z" fill="#27267F"/>
<path d="M106.366 158.916L96.0792 153.68L93.7119 165.909L109.931 170.954L125.029 171.125L106.366 158.916Z" fill="#2D2381"/>
<path d="M125.027 171.126L128.492 155.774L106.364 158.916L125.027 171.126Z" fill="#2F2485"/>
<path d="M76.3024 131.972L80.7389 117.793L75.7031 109.888L76.3024 131.972Z" fill="#233196"/>
<path d="M85.4336 105.731L104.915 100.051L94.6243 121.086L85.4336 105.731Z" fill="#293CB7"/>
<path d="M160.978 151.567L147.057 137.493L161.453 135.735L160.978 151.567Z" fill="#25339C"/>
<path d="M176.342 142.365L170.611 123.06L161.454 135.735L176.342 142.365Z" fill="#19348F"/>
<path d="M148.374 156.918L132.452 141.514L147.061 137.494L148.374 156.918Z" fill="#2A309A"/>
<path d="M128.488 155.774L148.369 156.917L132.446 141.514L128.488 155.774Z" fill="#302B96"/>
<path d="M128.493 155.774L117.605 146.902L132.451 141.514L128.493 155.774Z" fill="#3630A7"/>
<path d="M84.0113 84.7491L85.213 82.053L75.6162 92.7685L84.0113 84.7491ZM167 107.628L170.602 123.061L176.626 114.937L167 107.628Z" fill="#173DA2"/>
<path d="M85.4364 105.73L94.6271 121.085L80.7412 117.792L85.4364 105.73Z" fill="#2A36A8"/>
<path d="M80.7412 117.792L94.6271 121.085L85.2367 135.883L80.7412 117.792Z" fill="#312E9F"/>
<path d="M104.914 100.05L112.605 84.3977L98.5195 91.3754L104.914 100.05Z" fill="#184DCD"/>
<path d="M76.3018 131.971L85.2294 135.881L80.6249 142.727L76.3018 131.971Z" fill="#272986"/>
<path d="M85.2356 135.882L80.6289 142.732L93.7093 165.909L96.0765 153.68L85.2356 135.882Z" fill="#2C2584"/>
<path d="M96.0743 153.68L97.5215 132.146L85.2334 135.882L96.0743 153.68Z" fill="#32268B"/>
<path d="M96.0771 153.68L117.605 146.902L97.5243 132.146L96.0771 153.68Z" fill="#372999"/>
<path d="M117.603 146.903L115.504 130.255L97.5225 132.148L117.603 146.903Z" fill="#392DA5"/>
<path d="M115.503 130.255L130.69 124.574L132.448 141.514L115.503 130.255Z" fill="#3338BC"/>
<path d="M106.364 158.915L128.492 155.774L117.604 146.902L106.364 158.915Z" fill="#362896"/>
<path d="M106.365 158.915L96.0771 153.68L117.605 146.902L106.365 158.915Z" fill="#35268F"/>
<path d="M104.916 100.05L118.101 101.446L112.606 84.3977L104.916 100.05Z" fill="#2648D3"/>
<path d="M124.893 89.3836L112.604 84.3977L118.099 101.446L124.893 89.3836Z" fill="#1057DC"/>
<path d="M124.897 89.384L137.984 98.3568L118.104 101.446L124.897 89.384Z" fill="#1653DA"/>
<path d="M118.104 101.446L137.604 111.795L130.692 124.574L118.104 101.446Z" fill="#2B46D5"/>
<path d="M137.604 111.795L137.984 98.3572L118.104 101.447L137.604 111.795Z" fill="#244AD7"/>
<path d="M137.6 111.795L137.979 98.3572L151.754 105.105L137.6 111.795Z" fill="#2547CF"/>
<path d="M118.101 101.446L130.691 124.574L108.612 113.508L118.101 101.446Z" fill="#333CC5"/>
<path d="M115.505 130.255L130.691 124.575L108.612 113.509L115.505 130.255Z" fill="#3833B6"/>
<path d="M130.689 124.573L150.162 121.012L137.603 111.794L130.689 124.573Z" fill="#2A41C6"/>
<path d="M151.754 105.105L150.16 121.013L137.6 111.794L151.754 105.105Z" fill="#2045C1"/>
<path d="M151.757 105.105L160.948 117.596L150.162 121.013L151.757 105.105Z" fill="#1B43B7"/>
<path d="M167 107.627L151.756 105.105L160.946 117.596L167 107.627Z" fill="#1742AF"/>
<path d="M89.3318 89.8459L95.2254 77.0698L84.0342 84.7323L89.3318 89.8459ZM167.019 107.627L160.965 117.596L170.63 123.06L167.019 107.627Z" fill="#1740A9"/>
<path d="M161.457 135.735L170.614 123.06L160.949 117.595L161.457 135.735Z" fill="#1B3CA4"/>
<path d="M161.455 135.735L160.948 117.595L150.162 121.012L161.455 135.735Z" fill="#1F3DAD"/>
<path d="M85.4336 105.731L104.915 100.051L98.5206 91.376L85.4336 105.731ZM130.69 124.575L147.06 137.494L150.164 121.013L130.69 124.575Z" fill="#2543C3"/>
<path d="M132.448 141.514L147.058 137.494L130.689 124.574L132.448 141.514Z" fill="#2E37B2"/>
<path d="M104.916 100.051L108.612 113.509L118.101 101.447L104.916 100.051Z" fill="#2D40C7"/>
<path d="M104.919 100.051L94.6279 121.086L108.615 113.509L104.919 100.051Z" fill="#3537B8"/>
<path d="M108.612 113.509L97.5225 132.148L115.504 130.255L108.612 113.509Z" fill="#3931B0"/>
<path d="M115.508 130.255L117.607 146.903L132.452 141.514L115.508 130.255ZM97.5197 132.148L108.609 113.509L94.6221 121.086L97.5197 132.148Z" fill="#3735B8"/>
<path d="M85.2334 135.882L94.6239 121.085L97.5215 132.147L85.2334 135.882Z" fill="#342892"/>
<path d="M94.4902 184.595L104.433 187.707L89.2383 177.896L94.4902 184.595ZM93.7732 173.529L104.686 181.935L109.924 170.967L93.7044 165.922L93.7732 173.529ZM123.644 183.642L125.022 171.138L109.924 170.967L123.644 183.642ZM139.749 179.301L135.329 189.712L153.213 183.039L139.749 179.301Z" fill="#232372"/>
<path d="M76.3018 131.971L80.7383 117.792L85.2337 135.883L76.3018 131.971Z" fill="#2A2F96"/>
<path d="M80.7396 117.792L85.4348 105.73L75.707 109.903L80.7396 117.792ZM150.153 121.012L147.049 137.493L161.455 135.735L150.153 121.012Z" fill="#2636A5"/>
<path d="M186.16 136.705V136.678L185.59 117.895V117.829L182.768 108.457V108.437L174.694 93.1906L165.389 83.3497H165.369L155.566 76.349H155.527L147.014 73.0075H146.956L136.74 69.3712H136.671L119.851 68.3H119.779L109.17 70.2165H109.13L100.484 72.8765H100.428L85.0724 81.8132L75.479 92.5222L66.6386 106.901V106.936L63.1548 119.175V119.222L62.5 137.792V137.881L65.8168 150.533V150.575L73.1347 164.989V165.012L78.1966 172.147V172.163L85.3343 178.716H85.3539L94.2696 184.749H94.2893L105.284 189.533H105.352L123.75 191.691H123.777L133.383 191.96H133.459L147.675 187.95H147.725L160.428 180.973L160.451 180.957H160.467L168.653 173.978L174.993 166.408L175.015 166.375L183.979 148.816V148.747L185.944 136.741V136.711L186.16 136.705ZM85.7502 178.329L83.9002 176.631L88.0584 179.892L85.7502 178.329ZM112.736 185.382L106.237 182.342L121.626 183.728L112.736 185.382ZM115.104 130.018L98.0448 131.814L108.565 114.124L115.104 130.018ZM109.151 114.088L129.995 124.534L115.656 129.887L109.151 114.088ZM115.26 130.559L117.244 146.284L98.2544 132.338L115.26 130.559ZM116.996 146.801L96.3683 153.294L97.7534 132.655L116.996 146.801ZM115.85 130.821L131.831 141.438L117.83 146.523L115.85 130.821ZM116.106 130.323L130.446 124.957L132.107 140.957L116.106 130.323ZM138.138 111.844L151.428 105.567L149.928 120.502L138.138 111.844ZM149.473 120.855L131.203 124.198L137.692 112.197L149.473 120.855ZM130.683 123.991L118.797 102.124L137.233 111.906L130.683 123.991ZM130.027 123.928L109.045 113.413L118.063 101.947L130.027 123.928ZM97.629 131.437L94.954 121.223L107.864 114.232L97.629 131.437ZM95.8609 152.79L85.6584 136.047L97.2165 132.531L95.8609 152.79ZM116.681 147.486L106.309 158.572L96.8136 153.743L116.681 147.486ZM132.041 141.959L128.341 155.293L118.141 146.998L132.041 141.959ZM131.039 125.2L146.46 137.369L132.709 141.16L131.039 125.2ZM131.346 124.734L149.817 121.36L146.87 136.99L131.346 124.734ZM150.484 120.623L151.964 105.852L160.496 117.449L150.484 120.623ZM160.683 117.97L161.155 134.884L150.625 121.16L160.683 117.97ZM137.899 111.349L138.253 98.7957L151.123 105.102L137.899 111.349ZM137.342 111.349L118.974 101.6L137.699 98.6908L137.342 111.349ZM108.738 112.912L105.297 100.378L117.579 101.688L108.738 112.912ZM108.29 113.38L95.2552 120.426L104.842 100.833L108.29 113.38ZM97.187 131.961L85.8746 135.401L94.5217 121.769L97.187 131.961ZM95.1406 152.675L81.0091 142.664L85.223 136.403L95.1406 152.675ZM96.28 154.096L105.775 158.926L94.0994 165.379L96.28 154.096ZM117.631 147.283L127.827 155.591L107.108 158.539L117.631 147.283ZM132.594 142.041L147.655 156.599L128.865 155.522L132.594 142.041ZM132.993 141.654L146.804 137.855L148.045 156.219L132.993 141.654ZM150.32 121.671L160.939 135.512L147.403 137.15L150.32 121.671ZM161.24 118.068L170.202 123.149L161.689 134.906L161.24 118.068ZM161.336 117.485L166.901 108.342L170.202 122.507L161.336 117.485ZM160.926 117.085L152.387 105.482L166.554 107.824L160.926 117.085ZM138.474 98.2748L148.504 89.1907L151.382 104.604L138.474 98.2748ZM118.627 101.073L124.992 89.7738L137.25 98.1798L118.627 101.073ZM105.34 99.8145L112.543 85.1383L117.697 101.125L105.34 99.8145ZM94.6002 120.502L85.8582 105.898L104.387 100.492L94.6002 120.502ZM85.3474 135.188L81.1171 118.169L94.1812 121.266L85.3474 135.188ZM80.6882 142.14L76.8115 132.508L84.817 136.014L80.6882 142.14ZM95.766 153.801L93.5853 165.114L81.4708 143.676L95.766 153.801ZM106.194 159.322L109.511 170.532L94.4104 165.835L106.194 159.322ZM128.131 156.102L124.841 170.673L107.131 159.083L128.131 156.102ZM147.692 157.153L139.178 164.868L129.275 156.095L147.692 157.153ZM147.384 138.215L160.48 151.469L148.605 156.508L147.384 138.215ZM147.652 137.698L161.165 136.059L160.706 150.913L147.652 137.698ZM170.506 123.68L175.902 141.864L161.875 135.621L170.506 123.68ZM167.445 108.309L176.249 114.989L170.745 122.412L167.445 108.309ZM152.292 104.912L160.477 95.546L166.511 107.261L152.292 104.912ZM151.921 104.49L149.064 89.1808L160.085 95.1332L151.921 104.49ZM137.958 98.0029L125.751 89.6362L147.938 88.9614L137.958 98.0029ZM118.171 100.754L113.054 84.8796L124.497 89.5215L118.171 100.754ZM104.865 99.5164L98.9424 91.4773L111.996 85.0073L104.865 99.5164ZM104.457 99.8964L86.3035 105.19L98.4966 91.8147L104.457 99.8964ZM94.047 120.663L81.1138 117.596L85.4882 106.363L94.047 120.663ZM84.8269 135.404L76.6414 131.817L80.7112 118.821L84.8269 135.404ZM80.2626 142.569L73.2197 145.147L76.3598 132.862L80.2626 142.569ZM92.9305 165.101L77.4369 155.493L80.7112 143.456L92.9305 165.101ZM108.71 170.866L94.0502 173.192L93.9881 166.286L108.71 170.866ZM106.843 159.561L124.078 170.836L110.134 170.68L106.843 159.561ZM128.658 156.285L138.661 165.15L125.414 170.653L128.658 156.285ZM148.265 157.406L153.552 172.069L139.683 165.189L148.265 157.406ZM148.736 157.078L160.523 152.072L154.021 171.777L148.736 157.078ZM161.735 136.164L175.758 142.408L161.29 151.076L161.735 136.164ZM171.122 123.762L180.289 130.291L176.361 141.471L171.122 123.762ZM171.02 123.005L176.531 115.575L180.162 129.518L171.02 123.005ZM167.341 107.529L169.875 99.5852L175.968 114.091L167.341 107.529ZM166.957 106.91L161.109 95.5886L169.504 98.9464L166.957 106.91ZM149.679 88.8926L161.889 88.0932L160.35 94.645L149.679 88.8926ZM125.505 89.1055L134.1 78.4358L147.878 88.424L125.505 89.1055ZM124.998 88.85L120.572 77.2499L133.504 78.2917L124.998 88.85ZM124.422 88.9024L113.116 84.3161L120.048 77.4366L124.422 88.9024ZM99.0199 90.845L103.883 76.8109L112.136 84.3456L99.0199 90.845ZM85.9793 104.758L89.5384 90.1767L97.9891 91.5821L85.9793 104.758ZM80.6948 117.207L76.1306 110.035L84.9512 106.268L80.6948 117.207ZM80.4525 117.862L76.5496 130.31L76.0258 110.897L80.4525 117.862ZM75.9569 132.275L72.7745 144.724L67.7813 132.275H75.9569ZM67.6536 131.732L67.9188 119.516L75.8063 131.722L67.6536 131.732ZM80.2331 143.198L77.0539 154.785L73.1903 145.753L80.2331 143.198ZM92.924 165.762L83.3207 167.122L77.8331 156.403L92.924 165.762ZM93.4478 166.247L93.51 173.055L84.0147 167.587L93.4478 166.247ZM109.462 171.332L104.587 181.493L94.4562 173.69L109.462 171.332ZM110.031 171.433L122.86 183.285L105.111 181.686L110.031 171.433ZM110.66 171.259L124.74 171.42L123.456 183.072L110.66 171.259ZM138.933 165.69L139.47 178.853L125.673 171.164L138.933 165.69ZM139.493 165.74L153.408 172.651L140.029 178.908L139.493 165.74ZM161.077 152.25L167.985 163.06L154.561 171.983L161.077 152.25ZM161.558 151.967L174.858 153.932L168.364 162.614L161.558 151.967ZM161.804 151.443L176.033 142.926L175.107 153.408L161.804 151.443ZM180.597 131.132L183.109 139.929L176.805 141.966L180.597 131.132ZM177.238 116.129L184.441 125.21L180.742 129.58L177.238 116.129ZM170.494 99.5885L179.854 106.448L176.635 114.202L170.494 99.5885ZM160.847 94.8744L162.356 88.4371L169.095 98.1733L160.847 94.8744ZM148.919 88.3684L147.282 78.5406L161.361 87.5625L148.919 88.3684ZM148.301 88.0408L134.876 78.3146L146.664 78.2393L148.301 88.0408ZM121.01 76.7126L129.768 71.3335L133.531 77.7216L121.01 76.7126ZM112.598 84.0245L104.489 76.6209L119.488 77.1843L112.598 84.0245ZM98.3329 91.0645L89.9116 89.6624L103.109 77.2794L98.3329 91.0645ZM85.2688 105.239L76.6512 98.2388L88.8803 90.4486L85.2688 105.239ZM84.9021 105.659L75.9996 109.459L76.4318 98.776L84.9021 105.659ZM75.9962 130.989L67.9974 118.608L75.4429 110.576L75.9962 130.989ZM72.5289 145.612L71.0129 153.186L68.017 134.379L72.5289 145.612ZM72.9152 146.516L76.6642 155.272L71.3207 154.526L72.9152 146.516ZM82.6397 167.02L76.9883 165.923L77.3485 156.678L82.6397 167.02ZM93.3168 173.572L89.3026 177.434L83.91 168.161L93.3168 173.572ZM93.7949 173.88L103.437 181.32L89.7872 177.749L93.7949 173.88ZM125.253 171.567L139.005 179.207L123.944 183.253L125.253 171.567ZM153.716 173.071L152.964 182.679L140.55 179.23L153.716 173.071ZM167.527 163.98L159.885 177.389L154.485 172.651L167.527 163.98ZM175.057 154.513L175.096 161.523L168.984 162.693L175.057 154.513ZM176.589 142.572L182.811 140.56L175.725 152.491L176.589 142.572ZM180.903 130.241L184.432 126.078L183.298 138.569L180.903 130.241ZM176.943 114.89L180.113 107.254L184.219 124.056L176.943 114.89ZM170.202 98.7072L172.428 94.8188L179.137 105.255L170.202 98.7072ZM169.815 98.265L163.228 88.7648L172.042 94.3863L169.815 98.265ZM147.717 78.1541L154.385 77.4431L161.129 86.7501L147.717 78.1541ZM134.179 77.7609L130.508 71.5202L145.518 77.6921L134.179 77.7609ZM120.225 76.5357L117.277 71.3532L128.862 71.2352L120.225 76.5357ZM119.635 76.6242L105.045 76.0771L116.671 71.4285L119.635 76.6242ZM90.1671 88.6665L95.4058 77.3481L102.983 76.657L90.1671 88.6665ZM89.2274 89.3741L84.4536 84.7878L94.5315 77.8886L89.2274 89.3741ZM88.8705 89.8L76.9949 97.3641L84.0901 85.194L88.8705 89.8ZM75.4462 109.433L69.4871 106.226L75.8718 98.9825L75.4462 109.433ZM75.2596 109.96L68.017 117.767L69.2743 106.743L75.2596 109.96ZM67.0642 131.853L64.0029 134.356L67.2999 121.072L67.0642 131.853ZM67.1395 132.508L70.2632 152.118L63.8621 135.195L67.1395 132.508ZM76.8115 155.862L76.4547 165.077L71.4648 155.113L76.8115 155.862ZM82.9573 167.656L88.0519 176.406L77.594 166.63L82.9573 167.656ZM104.391 182.136L104.171 187.197L90.8383 178.591L104.391 182.136ZM104.937 182.352L111.859 185.589L104.721 187.334L104.937 182.352ZM123.368 183.963L123.584 191.062L113.528 185.798L123.368 183.963ZM139.263 179.705L135.184 189.313L124.399 183.701L139.263 179.705ZM139.919 179.62L152.325 183.065L135.849 189.215L139.919 179.62ZM154.273 173.183L159.528 177.769L153.539 182.434L154.273 173.183ZM168.535 163.338L174.593 162.178L161.312 175.99L168.535 163.338ZM175.67 160.658L175.627 153.822L181.216 150.405L175.67 160.658ZM176.161 152.845L182.938 141.452L181.691 149.474L176.161 152.845ZM184.812 128.21L185.603 136.596L183.81 139.077L184.812 128.21ZM180.679 107.209L182.228 108.663L183.781 119.899L180.679 107.209ZM172.821 94.3928L174.278 93.659L178.495 103.221L172.821 94.3928ZM162.615 87.6968L165.176 84.031L171.443 93.3315L162.615 87.6968ZM162.216 87.2972L155.544 78.0853L164.782 83.6248L162.216 87.2972ZM147.184 77.6528L147.141 73.6496L153.572 76.9714L147.184 77.6528ZM146.628 77.5447L131.93 71.5039L146.585 73.4334L146.628 77.5447ZM117.556 70.793L119.897 68.7849L127.654 70.6947L117.556 70.793ZM104.786 75.589L109.334 70.6751L115.628 71.2418L104.786 75.589ZM103.611 76.0411L96.7351 76.6668L108.047 71.2746L103.611 76.0411ZM84.6664 83.9622L85.426 82.2556L91.7485 79.1139L84.6664 83.9622ZM76.3663 97.3347L75.9046 92.8696L82.7805 86.3176L76.3663 97.3347ZM75.8882 98.1208L70.1846 104.591L75.4397 93.7802L75.8882 98.1208ZM67.3917 118.34L63.7507 119.018L68.5606 108.093L67.3917 118.34ZM67.2704 118.93L63.7901 132.966L63.5675 119.618L67.2704 118.93ZM70.3385 153.88L66.1999 150.473L64.2157 137.698L70.3385 153.88ZM76.1404 165.674L73.498 164.806L71.7299 156.882L76.1404 165.674ZM87.4396 176.576L78.6713 171.819L77.2601 167.076L87.4396 176.576ZM89.044 178.083L92.8454 182.931L81.2219 173.821L89.044 178.083ZM90.465 178.997L102.557 186.804L94.6428 184.328L90.465 178.997ZM112.647 185.949L122.045 190.863L105.71 187.642L112.647 185.949ZM123.927 184.078L134.444 189.552L124.14 191.19L123.927 184.078ZM151.85 183.823L147.594 187.511L137.984 189.002L151.85 183.823ZM159.741 178.299L160.098 180.592L154.577 182.3L159.741 178.299ZM174.065 163.505L168.401 173.615L161.175 176.94L174.065 163.505ZM175.65 161.821L179.452 154.794L175.388 164.435L175.65 161.821ZM183.685 140.167L185.12 138.182L182.827 145.776L183.685 140.167ZM185.067 125.19L185.047 125.042L185.191 123.162L185.335 128.033L185.067 125.19ZM184.684 122.422L183.249 112.011L185.028 117.907L184.684 122.422ZM180.427 106.186L177.808 100.24L181.475 107.169L180.427 106.186ZM172.523 93.908L167.284 86.1407L173.964 93.184L172.523 93.908ZM155.032 77.145L155.383 76.8928L159.396 79.7658L155.032 77.145ZM154.501 76.8404L151.781 75.435L154.807 76.6242L154.501 76.8404ZM131.53 70.888L136.632 69.8398L144.306 72.5719L131.53 70.888ZM129.867 70.6653L122.922 68.9552L134.565 69.6956L129.867 70.6653ZM116.711 70.793L111.296 70.3049L118.875 68.9355L116.711 70.793ZM97.5995 75.6348L100.697 73.3122L105.693 71.7726L97.5995 75.6348ZM95.0554 76.8469L92.3673 78.1836L96.4993 75.7658L95.0554 76.8469ZM83.779 84.5847L80.59 87.6313L84.2341 83.5626L83.779 84.5847ZM68.8422 106.085L67.4243 106.609L72.9349 97.6557L68.8422 106.085ZM66.9954 107.359L68.5246 106.792L64.6577 115.581L66.9954 107.359ZM63.1875 130.17L63.2661 135.06L62.9846 135.952L63.1875 130.17ZM63.4528 136.312L64.8476 145.304L62.9256 137.966L63.4528 136.312ZM70.7314 154.912L72.5224 162.939L66.8023 151.679L70.7314 154.912ZM76.4776 166.378L77.7217 170.565L74.0187 165.569L76.4776 166.378ZM104.256 187.924L104.773 188.753L99.3383 186.387L104.256 187.924ZM105.651 189.103L104.996 188.087L116.819 190.417L105.651 189.103ZM134.614 190.086L133.37 191.494L126.88 191.314L134.614 190.086ZM135.475 189.952L143.212 188.75L134.326 191.253L135.475 189.952ZM153.353 183.266L157.89 181.864L149.902 186.277L153.353 183.266ZM160.621 180.255L160.265 177.962L166.895 174.912L160.621 180.255ZM174.983 163.03L174.671 166.125L170.31 171.332L174.983 163.03ZM182.163 149.829L183.282 149.288L178.151 159.371L182.163 149.829ZM183.653 148.492L182.395 149.101L184.923 140.78L183.653 148.492Z" fill="url(#paint3_radial_0_1)"/>
<path d="M186.16 136.705V136.678L185.59 117.895V117.829L182.768 108.457V108.437L174.694 93.1906L165.389 83.3497H165.369L155.566 76.349H155.527L147.014 73.0075H146.956L136.74 69.3712H136.671L119.851 68.3H119.779L109.17 70.2165H109.13L100.484 72.8765H100.428L85.0724 81.8132L75.479 92.5222L66.6386 106.901V106.936L63.1548 119.175V119.222L62.5 137.792V137.881L65.8168 150.533V150.575L73.1347 164.989V165.012L78.1966 172.147V172.163L85.3343 178.716H85.3539L94.2696 184.749H94.2893L105.284 189.533H105.352L123.75 191.691H123.777L133.383 191.96H133.459L147.675 187.95H147.725L160.428 180.973L160.451 180.957H160.467L168.653 173.978L174.993 166.408L175.015 166.375L183.979 148.816V148.747L185.944 136.741V136.711L186.16 136.705ZM85.7502 178.329L83.9002 176.631L88.0584 179.892L85.7502 178.329ZM112.736 185.382L106.237 182.342L121.626 183.728L112.736 185.382ZM115.104 130.018L98.0448 131.814L108.565 114.124L115.104 130.018ZM109.151 114.088L129.995 124.534L115.656 129.887L109.151 114.088ZM115.26 130.559L117.244 146.284L98.2544 132.338L115.26 130.559ZM116.996 146.801L96.3683 153.294L97.7534 132.655L116.996 146.801ZM115.85 130.821L131.831 141.438L117.83 146.523L115.85 130.821ZM116.106 130.323L130.446 124.957L132.107 140.957L116.106 130.323ZM138.138 111.844L151.428 105.567L149.928 120.502L138.138 111.844ZM149.473 120.855L131.203 124.198L137.692 112.197L149.473 120.855ZM130.683 123.991L118.797 102.124L137.233 111.906L130.683 123.991ZM130.027 123.928L109.045 113.413L118.063 101.947L130.027 123.928ZM97.629 131.437L94.954 121.223L107.864 114.232L97.629 131.437ZM95.8609 152.79L85.6584 136.047L97.2165 132.531L95.8609 152.79ZM116.681 147.486L106.309 158.572L96.8136 153.743L116.681 147.486ZM132.041 141.959L128.341 155.293L118.141 146.998L132.041 141.959ZM131.039 125.2L146.46 137.369L132.709 141.16L131.039 125.2ZM131.346 124.734L149.817 121.36L146.87 136.99L131.346 124.734ZM150.484 120.623L151.964 105.852L160.496 117.449L150.484 120.623ZM160.683 117.97L161.155 134.884L150.625 121.16L160.683 117.97ZM137.899 111.349L138.253 98.7957L151.123 105.102L137.899 111.349ZM137.342 111.349L118.974 101.6L137.699 98.6908L137.342 111.349ZM108.738 112.912L105.297 100.378L117.579 101.688L108.738 112.912ZM108.29 113.38L95.2552 120.426L104.842 100.833L108.29 113.38ZM97.187 131.961L85.8746 135.401L94.5217 121.769L97.187 131.961ZM95.1406 152.675L81.0091 142.664L85.223 136.403L95.1406 152.675ZM96.28 154.096L105.775 158.926L94.0994 165.379L96.28 154.096ZM117.631 147.283L127.827 155.591L107.108 158.539L117.631 147.283ZM132.594 142.041L147.655 156.599L128.865 155.522L132.594 142.041ZM132.993 141.654L146.804 137.855L148.045 156.219L132.993 141.654ZM150.32 121.671L160.939 135.512L147.403 137.15L150.32 121.671ZM161.24 118.068L170.202 123.149L161.689 134.906L161.24 118.068ZM161.336 117.485L166.901 108.342L170.202 122.507L161.336 117.485ZM160.926 117.085L152.387 105.482L166.554 107.824L160.926 117.085ZM138.474 98.2748L148.504 89.1907L151.382 104.604L138.474 98.2748ZM118.627 101.073L124.992 89.7738L137.25 98.1798L118.627 101.073ZM105.34 99.8145L112.543 85.1383L117.697 101.125L105.34 99.8145ZM94.6002 120.502L85.8582 105.898L104.387 100.492L94.6002 120.502ZM85.3474 135.188L81.1171 118.169L94.1812 121.266L85.3474 135.188ZM80.6882 142.14L76.8115 132.508L84.817 136.014L80.6882 142.14ZM95.766 153.801L93.5853 165.114L81.4708 143.676L95.766 153.801ZM106.194 159.322L109.511 170.532L94.4104 165.835L106.194 159.322ZM128.131 156.102L124.841 170.673L107.131 159.083L128.131 156.102ZM147.692 157.153L139.178 164.868L129.275 156.095L147.692 157.153ZM147.384 138.215L160.48 151.469L148.605 156.508L147.384 138.215ZM147.652 137.698L161.165 136.059L160.706 150.913L147.652 137.698ZM170.506 123.68L175.902 141.864L161.875 135.621L170.506 123.68ZM167.445 108.309L176.249 114.989L170.745 122.412L167.445 108.309ZM152.292 104.912L160.477 95.546L166.511 107.261L152.292 104.912ZM151.921 104.49L149.064 89.1808L160.085 95.1332L151.921 104.49ZM137.958 98.0029L125.751 89.6362L147.938 88.9614L137.958 98.0029ZM118.171 100.754L113.054 84.8796L124.497 89.5215L118.171 100.754ZM104.865 99.5164L98.9424 91.4773L111.996 85.0073L104.865 99.5164ZM104.457 99.8964L86.3035 105.19L98.4966 91.8147L104.457 99.8964ZM94.047 120.663L81.1138 117.596L85.4882 106.363L94.047 120.663ZM84.8269 135.404L76.6414 131.817L80.7112 118.821L84.8269 135.404ZM80.2626 142.569L73.2197 145.147L76.3598 132.862L80.2626 142.569ZM92.9305 165.101L77.4369 155.493L80.7112 143.456L92.9305 165.101ZM108.71 170.866L94.0502 173.192L93.9881 166.286L108.71 170.866ZM106.843 159.561L124.078 170.836L110.134 170.68L106.843 159.561ZM128.658 156.285L138.661 165.15L125.414 170.653L128.658 156.285ZM148.265 157.406L153.552 172.069L139.683 165.189L148.265 157.406ZM148.736 157.078L160.523 152.072L154.021 171.777L148.736 157.078ZM161.735 136.164L175.758 142.408L161.29 151.076L161.735 136.164ZM171.122 123.762L180.289 130.291L176.361 141.471L171.122 123.762ZM171.02 123.005L176.531 115.575L180.162 129.518L171.02 123.005ZM167.341 107.529L169.875 99.5852L175.968 114.091L167.341 107.529ZM166.957 106.91L161.109 95.5886L169.504 98.9464L166.957 106.91ZM149.679 88.8926L161.889 88.0932L160.35 94.645L149.679 88.8926ZM125.505 89.1055L134.1 78.4358L147.878 88.424L125.505 89.1055ZM124.998 88.85L120.572 77.2499L133.504 78.2917L124.998 88.85ZM124.422 88.9024L113.116 84.3161L120.048 77.4366L124.422 88.9024ZM99.0199 90.845L103.883 76.8109L112.136 84.3456L99.0199 90.845ZM85.9793 104.758L89.5384 90.1767L97.9891 91.5821L85.9793 104.758ZM80.6948 117.207L76.1306 110.035L84.9512 106.268L80.6948 117.207ZM80.4525 117.862L76.5496 130.31L76.0258 110.897L80.4525 117.862ZM75.9569 132.275L72.7745 144.724L67.7813 132.275H75.9569ZM67.6536 131.732L67.9188 119.516L75.8063 131.722L67.6536 131.732ZM80.2331 143.198L77.0539 154.785L73.1903 145.753L80.2331 143.198ZM92.924 165.762L83.3207 167.122L77.8331 156.403L92.924 165.762ZM93.4478 166.247L93.51 173.055L84.0147 167.587L93.4478 166.247ZM109.462 171.332L104.587 181.493L94.4562 173.69L109.462 171.332ZM110.031 171.433L122.86 183.285L105.111 181.686L110.031 171.433ZM110.66 171.259L124.74 171.42L123.456 183.072L110.66 171.259ZM138.933 165.69L139.47 178.853L125.673 171.164L138.933 165.69ZM139.493 165.74L153.408 172.651L140.029 178.908L139.493 165.74ZM161.077 152.25L167.985 163.06L154.561 171.983L161.077 152.25ZM161.558 151.967L174.858 153.932L168.364 162.614L161.558 151.967ZM161.804 151.443L176.033 142.926L175.107 153.408L161.804 151.443ZM180.597 131.132L183.109 139.929L176.805 141.966L180.597 131.132ZM177.238 116.129L184.441 125.21L180.742 129.58L177.238 116.129ZM170.494 99.5885L179.854 106.448L176.635 114.202L170.494 99.5885ZM160.847 94.8744L162.356 88.4371L169.095 98.1733L160.847 94.8744ZM148.919 88.3684L147.282 78.5406L161.361 87.5625L148.919 88.3684ZM148.301 88.0408L134.876 78.3146L146.664 78.2393L148.301 88.0408ZM121.01 76.7126L129.768 71.3335L133.531 77.7216L121.01 76.7126ZM112.598 84.0245L104.489 76.6209L119.488 77.1843L112.598 84.0245ZM98.3329 91.0645L89.9116 89.6624L103.109 77.2794L98.3329 91.0645ZM85.2688 105.239L76.6512 98.2388L88.8803 90.4486L85.2688 105.239ZM84.9021 105.659L75.9996 109.459L76.4318 98.776L84.9021 105.659ZM75.9962 130.989L67.9974 118.608L75.4429 110.576L75.9962 130.989ZM72.5289 145.612L71.0129 153.186L68.017 134.379L72.5289 145.612ZM72.9152 146.516L76.6642 155.272L71.3207 154.526L72.9152 146.516ZM82.6397 167.02L76.9883 165.923L77.3485 156.678L82.6397 167.02ZM93.3168 173.572L89.3026 177.434L83.91 168.161L93.3168 173.572ZM93.7949 173.88L103.437 181.32L89.7872 177.749L93.7949 173.88ZM125.253 171.567L139.005 179.207L123.944 183.253L125.253 171.567ZM153.716 173.071L152.964 182.679L140.55 179.23L153.716 173.071ZM167.527 163.98L159.885 177.389L154.485 172.651L167.527 163.98ZM175.057 154.513L175.096 161.523L168.984 162.693L175.057 154.513ZM176.589 142.572L182.811 140.56L175.725 152.491L176.589 142.572ZM180.903 130.241L184.432 126.078L183.298 138.569L180.903 130.241ZM176.943 114.89L180.113 107.254L184.219 124.056L176.943 114.89ZM170.202 98.7072L172.428 94.8188L179.137 105.255L170.202 98.7072ZM169.815 98.265L163.228 88.7648L172.042 94.3863L169.815 98.265ZM147.717 78.1541L154.385 77.4431L161.129 86.7501L147.717 78.1541ZM134.179 77.7609L130.508 71.5202L145.518 77.6921L134.179 77.7609ZM120.225 76.5357L117.277 71.3532L128.862 71.2352L120.225 76.5357ZM119.635 76.6242L105.045 76.0771L116.671 71.4285L119.635 76.6242ZM90.1671 88.6665L95.4058 77.3481L102.983 76.657L90.1671 88.6665ZM89.2274 89.3741L84.4536 84.7878L94.5315 77.8886L89.2274 89.3741ZM88.8705 89.8L76.9949 97.3641L84.0901 85.194L88.8705 89.8ZM75.4462 109.433L69.4871 106.226L75.8718 98.9825L75.4462 109.433ZM75.2596 109.96L68.017 117.767L69.2743 106.743L75.2596 109.96ZM67.0642 131.853L64.0029 134.356L67.2999 121.072L67.0642 131.853ZM67.1395 132.508L70.2632 152.118L63.8621 135.195L67.1395 132.508ZM76.8115 155.862L76.4547 165.077L71.4648 155.113L76.8115 155.862ZM82.9573 167.656L88.0519 176.406L77.594 166.63L82.9573 167.656ZM104.391 182.136L104.171 187.197L90.8383 178.591L104.391 182.136ZM104.937 182.352L111.859 185.589L104.721 187.334L104.937 182.352ZM123.368 183.963L123.584 191.062L113.528 185.798L123.368 183.963ZM139.263 179.705L135.184 189.313L124.399 183.701L139.263 179.705ZM139.919 179.62L152.325 183.065L135.849 189.215L139.919 179.62ZM154.273 173.183L159.528 177.769L153.539 182.434L154.273 173.183ZM168.535 163.338L174.593 162.178L161.312 175.99L168.535 163.338ZM175.67 160.658L175.627 153.822L181.216 150.405L175.67 160.658ZM176.161 152.845L182.938 141.452L181.691 149.474L176.161 152.845ZM184.812 128.21L185.603 136.596L183.81 139.077L184.812 128.21ZM180.679 107.209L182.228 108.663L183.781 119.899L180.679 107.209ZM172.821 94.3928L174.278 93.659L178.495 103.221L172.821 94.3928ZM162.615 87.6968L165.176 84.031L171.443 93.3315L162.615 87.6968ZM162.216 87.2972L155.544 78.0853L164.782 83.6248L162.216 87.2972ZM147.184 77.6528L147.141 73.6496L153.572 76.9714L147.184 77.6528ZM146.628 77.5447L131.93 71.5039L146.585 73.4334L146.628 77.5447ZM117.556 70.793L119.897 68.7849L127.654 70.6947L117.556 70.793ZM104.786 75.589L109.334 70.6751L115.628 71.2418L104.786 75.589ZM103.611 76.0411L96.7351 76.6668L108.047 71.2746L103.611 76.0411ZM84.6664 83.9622L85.426 82.2556L91.7485 79.1139L84.6664 83.9622ZM76.3663 97.3347L75.9046 92.8696L82.7805 86.3176L76.3663 97.3347ZM75.8882 98.1208L70.1846 104.591L75.4397 93.7802L75.8882 98.1208ZM67.3917 118.34L63.7507 119.018L68.5606 108.093L67.3917 118.34ZM67.2704 118.93L63.7901 132.966L63.5675 119.618L67.2704 118.93ZM70.3385 153.88L66.1999 150.473L64.2157 137.698L70.3385 153.88ZM76.1404 165.674L73.498 164.806L71.7299 156.882L76.1404 165.674ZM87.4396 176.576L78.6713 171.819L77.2601 167.076L87.4396 176.576ZM89.044 178.083L92.8454 182.931L81.2219 173.821L89.044 178.083ZM90.465 178.997L102.557 186.804L94.6428 184.328L90.465 178.997ZM112.647 185.949L122.045 190.863L105.71 187.642L112.647 185.949ZM123.927 184.078L134.444 189.552L124.14 191.19L123.927 184.078ZM151.85 183.823L147.594 187.511L137.984 189.002L151.85 183.823ZM159.741 178.299L160.098 180.592L154.577 182.3L159.741 178.299ZM174.065 163.505L168.401 173.615L161.175 176.94L174.065 163.505ZM175.65 161.821L179.452 154.794L175.388 164.435L175.65 161.821ZM183.685 140.167L185.12 138.182L182.827 145.776L183.685 140.167ZM185.067 125.19L185.047 125.042L185.191 123.162L185.335 128.033L185.067 125.19ZM184.684 122.422L183.249 112.011L185.028 117.907L184.684 122.422ZM180.427 106.186L177.808 100.24L181.475 107.169L180.427 106.186ZM172.523 93.908L167.284 86.1407L173.964 93.184L172.523 93.908ZM155.032 77.145L155.383 76.8928L159.396 79.7658L155.032 77.145ZM154.501 76.8404L151.781 75.435L154.807 76.6242L154.501 76.8404ZM131.53 70.888L136.632 69.8398L144.306 72.5719L131.53 70.888ZM129.867 70.6653L122.922 68.9552L134.565 69.6956L129.867 70.6653ZM116.711 70.793L111.296 70.3049L118.875 68.9355L116.711 70.793ZM97.5995 75.6348L100.697 73.3122L105.693 71.7726L97.5995 75.6348ZM95.0554 76.8469L92.3673 78.1836L96.4993 75.7658L95.0554 76.8469ZM83.779 84.5847L80.59 87.6313L84.2341 83.5626L83.779 84.5847ZM68.8422 106.085L67.4243 106.609L72.9349 97.6557L68.8422 106.085ZM66.9954 107.359L68.5246 106.792L64.6577 115.581L66.9954 107.359ZM63.1875 130.17L63.2661 135.06L62.9846 135.952L63.1875 130.17ZM63.4528 136.312L64.8476 145.304L62.9256 137.966L63.4528 136.312ZM70.7314 154.912L72.5224 162.939L66.8023 151.679L70.7314 154.912ZM76.4776 166.378L77.7217 170.565L74.0187 165.569L76.4776 166.378ZM104.256 187.924L104.773 188.753L99.3383 186.387L104.256 187.924ZM105.651 189.103L104.996 188.087L116.819 190.417L105.651 189.103ZM134.614 190.086L133.37 191.494L126.88 191.314L134.614 190.086ZM135.475 189.952L143.212 188.75L134.326 191.253L135.475 189.952ZM153.353 183.266L157.89 181.864L149.902 186.277L153.353 183.266ZM160.621 180.255L160.265 177.962L166.895 174.912L160.621 180.255ZM174.983 163.03L174.671 166.125L170.31 171.332L174.983 163.03ZM182.163 149.829L183.282 149.288L178.151 159.371L182.163 149.829ZM183.653 148.492L182.395 149.101L184.923 140.78L183.653 148.492Z" fill="url(#paint4_radial_0_1)"/>
<path d="M79.9034 78.0507C80.9087 78.691 81.738 79.2481 82.4648 79.7508C79.6376 69.8541 79.5171 59.3802 82.1158 49.4211C70.6693 54.9658 60.4985 62.8264 52.2471 72.5054C52.8523 72.4893 70.8522 72.166 79.9034 78.0507Z" fill="url(#paint5_radial_0_1)"/>
<path d="M1.12146 135.041C10.6977 191.615 61.9857 234.838 120.193 236.471C174.077 237.995 208.496 206.715 222.711 176.215C234.755 149.84 236.139 119.83 226.572 92.4583V92.3398C226.572 92.247 226.553 92.1925 226.572 92.2214L226.595 92.4295C230.997 121.172 216.378 149.004 193.521 167.862L193.451 168.022C148.915 204.297 106.301 189.902 97.6879 184.03C97.0859 183.742 96.484 183.442 95.8821 183.131C69.9195 170.721 59.1906 147.08 61.4959 126.781C55.3329 126.872 49.2759 125.174 44.0586 121.892C38.8413 118.61 34.6877 113.886 32.1011 108.291C38.9168 104.116 46.6882 101.756 54.6747 101.435C62.6612 101.114 70.5968 102.844 77.7253 106.46C92.4188 113.129 109.138 113.787 124.31 108.291C124.262 107.283 102.667 98.6856 94.246 90.3932C89.7476 85.9588 87.6121 83.8233 85.7199 82.2193C84.6973 81.3531 83.6285 80.5429 82.5182 79.7924C81.7818 79.2897 80.9526 78.7454 79.9568 78.0923C70.9056 72.2075 52.9057 72.5309 52.3102 72.5469H52.2526C47.3347 66.3132 47.6805 45.7583 47.9623 41.4648C46.5074 42.0495 45.1187 42.7868 43.8193 43.6644C39.4779 46.7628 35.4193 50.2396 31.6912 54.0539C27.4277 58.3491 23.5314 62.9939 20.0435 67.9397C12.0665 79.2469 6.40809 92.0188 3.39467 105.525C3.33383 105.778 -1.07491 125.052 1.09905 135.048L1.12146 135.041Z" fill="url(#paint6_radial_0_1)"/>
<path d="M167.821 86.055C172.351 90.5044 176.232 95.5702 179.347 101.103C180.029 101.619 180.666 102.131 181.208 102.627C209.341 128.561 194.6 165.221 193.502 167.814C216.356 148.985 230.962 121.133 226.576 92.3816C212.539 57.387 188.732 43.2675 169.329 12.5632C168.346 11.0104 167.363 9.45437 166.406 7.81187C165.859 6.87377 165.42 6.02853 165.039 5.25051C164.233 3.68986 163.612 2.0405 163.188 0.335908C163.189 0.257245 163.161 0.18113 163.109 0.122078C163.057 0.0630273 162.985 0.0251722 162.907 0.0157342C162.83 -0.00524474 162.749 -0.00524474 162.673 0.0157342C162.657 0.0157342 162.631 0.0445503 162.612 0.0509533C162.593 0.0573563 162.551 0.0861723 162.522 0.0989783C157.723 2.37539 129.257 47.4521 167.837 86.0006L167.821 86.055Z" fill="url(#paint7_linear_0_1)"/>
<path d="M181.203 102.64C180.662 102.144 180.025 101.632 179.343 101.116C179.09 100.927 178.84 100.738 178.571 100.549C169.843 94.5034 159.18 91.9145 148.651 93.2845C193.283 115.601 181.309 192.441 119.455 189.56C113.948 189.333 108.505 188.283 103.309 186.445C102.094 185.99 100.88 185.493 99.6648 184.953C98.964 184.632 98.2628 184.312 97.5713 183.954L97.6577 184.008C106.283 189.896 148.885 204.281 193.421 168L193.491 167.84C194.602 165.246 209.343 128.587 181.197 102.653L181.203 102.64Z" fill="url(#paint8_radial_0_1)"/>
<path d="M68.3444 143.302C68.3444 143.302 74.0722 121.956 109.358 121.956C113.171 121.956 124.086 111.31 124.281 108.224C109.11 113.719 92.39 113.062 77.6965 106.393C70.568 102.777 62.6325 101.047 54.646 101.368C46.6595 101.688 38.8881 104.049 32.0723 108.224C34.659 113.818 38.8126 118.543 44.0299 121.825C49.2471 125.106 55.3042 126.805 61.4671 126.714C59.1683 147.003 69.894 170.641 95.8534 183.064C96.4329 183.342 96.9772 183.643 97.5727 183.909C82.419 176.081 69.9068 161.276 68.3444 143.311V143.302Z" fill="url(#paint9_radial_0_1)"/>
<path d="M238.899 85.9681C233.507 72.9948 222.57 58.9874 214.005 54.5595C220.113 66.3862 224.352 79.0873 226.572 92.2114L226.594 92.4195C212.565 57.457 188.782 43.3375 169.348 12.6332C168.365 11.0804 167.382 9.52437 166.425 7.88182C165.877 6.94373 165.439 6.09848 165.058 5.32047C164.252 3.75981 163.631 2.11046 163.207 0.405852C163.208 0.327192 163.179 0.251077 163.127 0.192025C163.075 0.132973 163.004 0.0951183 162.925 0.0856813C162.849 0.0647013 162.768 0.0647013 162.692 0.0856813C162.676 0.0856813 162.65 0.114496 162.631 0.1209C162.612 0.127303 162.57 0.156118 162.541 0.168925L162.589 0.0856813C131.421 18.3354 120.839 52.1133 119.879 69.0183C121.326 68.9191 122.76 68.7974 124.239 68.7974C135.297 68.8188 146.153 71.7679 155.702 77.3448C165.251 82.9217 173.153 90.9276 178.604 100.549C169.876 94.5028 159.213 91.914 148.684 93.284C193.316 115.6 181.342 192.441 119.488 189.559C113.981 189.333 108.538 188.283 103.342 186.444C102.127 185.989 100.913 185.492 99.6978 184.952C98.9969 184.632 98.2958 184.312 97.6042 183.953L97.6906 184.008C97.0887 183.719 96.4868 183.419 95.8849 183.108C96.4644 183.386 97.0087 183.687 97.6042 183.953C82.4505 176.122 69.9383 161.317 68.3759 143.356C68.3759 143.356 74.1037 122.01 109.39 122.01C113.203 122.01 124.118 111.364 124.313 108.278C124.265 107.269 102.669 98.6725 94.2488 90.3801C89.7504 85.9457 87.6149 83.8102 85.7227 82.2061C84.7001 81.3399 83.6313 80.5298 82.521 79.7792C79.6938 69.8825 79.5733 59.4087 82.172 49.4495C70.7255 54.9942 60.5547 62.8548 52.3034 72.5338H52.2457C47.3279 66.3001 47.6737 45.7452 47.9554 41.4517C46.5006 42.0364 45.1118 42.7737 43.8124 43.6513C39.471 46.7497 35.4125 50.2264 31.6844 54.0408C27.436 58.348 23.5559 63.0036 20.0847 67.9586C12.1077 79.2657 6.44928 92.0376 3.43586 105.543L3.26937 106.363C3.03564 107.455 1.98869 113 1.83821 114.191C0.880578 119.915 0.269015 125.692 0.00683594 131.49V132.13C0.0616759 163.182 11.7557 193.085 32.7805 215.936C53.8054 238.787 82.6331 252.926 113.573 255.561C144.513 258.197 175.317 249.137 199.903 230.171C224.49 211.204 241.072 183.71 246.378 153.114C246.586 151.513 246.756 149.929 246.941 148.312C249.497 127.187 246.73 105.758 238.892 85.9745L238.899 85.9681Z" fill="url(#paint10_linear_0_1)"/>
<defs>
<radialGradient id="paint0_radial_0_1" cx="0" cy="0" r="1" gradientUnits="userSpaceOnUse" gradientTransform="translate(212.716 28.494) scale(258.369 258.563)">
<stop stop-color="#80EBFF"/>
<stop offset="0.082" stop-color="#4DE5FF"/>
<stop offset="0.161" stop-color="#23E1FF"/>
<stop offset="0.222" stop-color="#09DEFF"/>
<stop offset="0.259" stop-color="#00DDFF"/>
<stop offset="0.26" stop-color="#00DCFF"/>
<stop offset="0.38" stop-color="#00B3F5"/>
<stop offset="0.473" stop-color="#0099EF"/>
<stop offset="0.53" stop-color="#0090ED"/>
<stop offset="0.86" stop-color="#0060DF"/>
</radialGradient>
<radialGradient id="paint1_radial_0_1" cx="0" cy="0" r="1" gradientUnits="userSpaceOnUse" gradientTransform="translate(118.307 134.201) scale(258.369 258.563)">
<stop offset="0.3" stop-color="#321C64" stop-opacity="0.8"/>
<stop offset="0.371" stop-color="#212F83" stop-opacity="0.511"/>
<stop offset="0.475" stop-color="#0A47AC" stop-opacity="0.141"/>
<stop offset="0.53" stop-color="#0250BB" stop-opacity="0"/>
</radialGradient>
<linearGradient id="paint2_linear_0_1" x1="129.653" y1="-0.211595" x2="171.247" y2="124.84" gradientUnits="userSpaceOnUse">
<stop stop-color="#AAF2FF"/>
<stop offset="0.035" stop-color="#9EF1FF"/>
<stop offset="0.098" stop-color="#7EEDFF"/>
<stop offset="0.183" stop-color="#4BE6FF"/>
<stop offset="0.284" stop-color="#04DEFF"/>
<stop offset="0.29" stop-color="#00DDFF"/>
<stop offset="0.74" stop-color="#0090ED"/>
<stop offset="1" stop-color="#0250BB"/>
</linearGradient>
<radialGradient id="paint3_radial_0_1" cx="0" cy="0" r="1" gradientUnits="userSpaceOnUse" gradientTransform="translate(124.258 130.14) scale(61.9742 62.0069)">
<stop stop-color="#00DDFF" stop-opacity="0.4"/>
<stop offset="1" stop-color="#7542E5" stop-opacity="0.15"/>
</radialGradient>
<radialGradient id="paint4_radial_0_1" cx="0" cy="0" r="1" gradientUnits="userSpaceOnUse" gradientTransform="translate(123.319 133.422) scale(62.9728 63.006)">
<stop offset="0.915" stop-color="#7542E5" stop-opacity="0"/>
<stop offset="0.929" stop-color="#6A51E7" stop-opacity="0.037"/>
<stop offset="0.953" stop-color="#4C78EE" stop-opacity="0.139"/>
<stop offset="0.984" stop-color="#1DB7F9" stop-opacity="0.302"/>
<stop offset="1" stop-color="#00DDFF" stop-opacity="0.4"/>
</radialGradient>
<radialGradient id="paint5_radial_0_1" cx="0" cy="0" r="1" gradientUnits="userSpaceOnUse" gradientTransform="translate(115.004 17.8939) scale(88.5073 88.6195)">
<stop stop-color="#00DDFF"/>
<stop offset="0.156" stop-color="#00D6FD"/>
<stop offset="0.382" stop-color="#00C3F9"/>
<stop offset="0.648" stop-color="#00A4F2"/>
<stop offset="0.792" stop-color="#0090ED"/>
</radialGradient>
<radialGradient id="paint6_radial_0_1" cx="0" cy="0" r="1" gradientUnits="userSpaceOnUse" gradientTransform="translate(184.559 -38.243) scale(377.611 377.954)">
<stop stop-color="#80EBFF"/>
<stop offset="0.008" stop-color="#76E7FE"/>
<stop offset="0.035" stop-color="#57D9FB"/>
<stop offset="0.067" stop-color="#3BCDF9"/>
<stop offset="0.103" stop-color="#25C3F7"/>
<stop offset="0.144" stop-color="#14BCF6"/>
<stop offset="0.196" stop-color="#09B7F5"/>
<stop offset="0.268" stop-color="#02B4F4"/>
<stop offset="0.469" stop-color="#00B3F4"/>
<stop offset="0.687" stop-color="#0080E7"/>
<stop offset="0.844" stop-color="#0060DF"/>
<stop offset="0.995" stop-color="#592ACB"/>
</radialGradient>
<linearGradient id="paint7_linear_0_1" x1="157.87" y1="-17.1311" x2="227.347" y2="191.689" gradientUnits="userSpaceOnUse">
<stop stop-color="#AAF2FF"/>
<stop offset="0.035" stop-color="#9EF1FF"/>
<stop offset="0.098" stop-color="#7EEDFF"/>
<stop offset="0.183" stop-color="#4BE6FF"/>
<stop offset="0.284" stop-color="#04DEFF"/>
<stop offset="0.29" stop-color="#00DDFF"/>
<stop offset="0.609" stop-color="#0090ED"/>
<stop offset="0.894" stop-color="#0250BB"/>
</linearGradient>
<radialGradient id="paint8_radial_0_1" cx="0" cy="0" r="1" gradientUnits="userSpaceOnUse" gradientTransform="translate(112.916 50.7158) scale(235.758 236.055)">
<stop offset="0.181" stop-color="#AAF2FF"/>
<stop offset="0.427" stop-color="#00DDFF"/>
<stop offset="0.448" stop-color="#00D2FC"/>
<stop offset="0.613" stop-color="#0080E7"/>
<stop offset="0.689" stop-color="#0060DF"/>
</radialGradient>
<radialGradient id="paint9_radial_0_1" cx="0" cy="0" r="1" gradientUnits="userSpaceOnUse" gradientTransform="translate(175.148 64.5114) scale(258.021 258.311)">
<stop offset="0.286" stop-color="#80EBFF"/>
<stop offset="1" stop-color="#00B3F4"/>
</radialGradient>
<linearGradient id="paint10_linear_0_1" x1="219.895" y1="38.6172" x2="44.6678" y2="213.747" gradientUnits="userSpaceOnUse">
<stop offset="0.239" stop-color="#80EBFF" stop-opacity="0.5"/>
<stop offset="0.261" stop-color="#76EAFF" stop-opacity="0.459"/>
<stop offset="0.359" stop-color="#4CE5FF" stop-opacity="0.295"/>
<stop offset="0.455" stop-color="#2BE2FF" stop-opacity="0.167"/>
<stop offset="0.546" stop-color="#13DFFF" stop-opacity="0.075"/>
<stop offset="0.631" stop-color="#05DEFF" stop-opacity="0.019"/>
<stop offset="0.704" stop-color="#00DDFF" stop-opacity="0"/>
</linearGradient>
</defs>
</svg>
