<svg width="248" height="256" viewBox="0 0 248 256" fill="none" xmlns="http://www.w3.org/2000/svg">
<path d="M238.898 85.9589C233.506 72.9856 222.569 58.9782 214.005 54.5503C220.112 66.377 224.351 79.0781 226.572 92.2022L226.594 92.4103C212.564 57.4478 188.782 43.3283 169.348 12.624C168.365 11.0712 167.382 9.51521 166.424 7.87266C165.877 6.93457 165.438 6.08932 165.057 5.31131C164.251 3.75065 163.63 2.1013 163.207 0.396697C163.207 0.318037 163.179 0.241922 163.127 0.18287C163.075 0.123818 163.003 0.085963 162.925 0.076526C162.849 0.055546 162.768 0.055546 162.691 0.076526C162.675 0.076526 162.65 0.105341 162.63 0.111745C162.611 0.118148 162.57 0.146963 162.541 0.15977L162.589 0.076526C131.42 18.3262 120.839 52.1041 119.878 69.0091C107.427 69.8628 95.5213 74.4497 85.7158 82.1713C84.6932 81.3051 83.6244 80.495 82.5141 79.7444C79.687 69.8477 79.5665 59.3738 82.1652 49.4147C70.7186 54.9594 60.5478 62.82 52.2965 72.499H52.2389C47.3211 66.2653 47.6669 45.7104 47.9486 41.4169C46.4937 42.0016 45.105 42.7389 43.8056 43.6164C39.4642 46.7149 35.4057 50.1916 31.6776 54.006C27.4292 58.3132 23.549 62.9688 20.0778 67.9237V67.943V67.9205C12.1009 79.2277 6.44245 92.0028 3.42902 105.509L3.26253 106.329C3.02881 107.42 2.18676 112.889 2.04269 114.077C2.04269 114.169 2.02348 114.256 2.01387 114.349C0.927688 119.994 0.254613 125.712 0 131.455V132.096C0.05484 163.148 11.7489 193.051 32.7737 215.902C53.7985 238.753 82.6262 252.892 113.566 255.527C144.506 258.162 175.31 249.102 199.896 230.136C224.483 211.17 241.065 183.675 246.371 153.08C246.579 151.479 246.749 149.894 246.934 148.277C249.49 127.152 246.723 105.723 238.885 85.9397L238.898 85.9589ZM95.878 183.099C96.4575 183.377 97.0018 183.678 97.5973 183.944L97.6838 183.999C97.0819 183.71 96.48 183.41 95.878 183.099ZM226.597 92.4456V92.3271L226.62 92.4584L226.597 92.4456Z" fill="url(#paint0_linear_0_1)"/>
<path d="M238.898 85.9589C233.506 72.9856 222.569 58.9782 214.005 54.5503C220.112 66.377 224.351 79.0782 226.571 92.2022V92.3207L226.594 92.452C236.16 119.824 234.776 149.833 222.733 176.209C208.511 206.724 174.099 238.001 120.214 236.465C62.007 234.816 10.7158 191.609 1.14279 135.035C-0.602141 126.112 1.14279 121.588 2.02005 114.336C0.823419 119.969 0.155629 125.701 0.0253906 131.459V132.099C0.0802306 163.151 11.7743 193.054 32.7991 215.905C53.8239 238.756 82.6516 252.895 113.592 255.53C144.531 258.165 175.335 249.105 199.922 230.139C224.508 211.173 241.091 183.678 246.396 153.083C246.604 151.482 246.774 149.897 246.96 148.28C249.516 127.155 246.749 105.726 238.911 85.9429L238.898 85.9589Z" fill="url(#paint1_radial_0_1)"/>
<path d="M238.898 85.9589C233.506 72.9856 222.569 58.9782 214.005 54.5503C220.112 66.377 224.351 79.0782 226.571 92.2022V92.3207L226.594 92.452C236.16 119.824 234.776 149.833 222.733 176.209C208.511 206.724 174.099 238.001 120.214 236.465C62.007 234.816 10.7158 191.609 1.14279 135.035C-0.602141 126.112 1.14279 121.588 2.02005 114.336C0.823419 119.969 0.155629 125.701 0.0253906 131.459V132.099C0.0802306 163.151 11.7743 193.054 32.7991 215.905C53.8239 238.756 82.6516 252.895 113.592 255.53C144.531 258.165 175.335 249.105 199.922 230.139C224.508 211.173 241.091 183.678 246.396 153.083C246.604 151.482 246.774 149.897 246.96 148.28C249.516 127.155 246.749 105.726 238.911 85.9429L238.898 85.9589Z" fill="url(#paint2_radial_0_1)"/>
<path d="M178.578 100.527C178.847 100.716 179.097 100.905 179.35 101.094C176.233 95.5662 172.353 90.5058 167.824 86.0614C129.243 47.4809 157.716 2.43303 162.515 0.12781L162.563 0.057373C131.395 18.307 120.813 52.0849 119.853 68.9899C121.3 68.8907 122.734 68.769 124.213 68.769C135.272 68.7904 146.127 71.7395 155.676 77.3164C165.225 82.8933 173.127 90.8993 178.578 100.521V100.527Z" fill="url(#paint3_radial_0_1)"/>
<path d="M124.276 108.243C124.071 111.33 113.166 121.975 109.353 121.975C74.07 121.975 68.3389 143.321 68.3389 143.321C69.9014 161.295 82.4264 176.106 97.5672 183.918C98.2588 184.277 98.96 184.6 99.6609 184.917C100.876 185.455 102.09 185.953 103.305 186.409C108.501 188.248 113.944 189.298 119.451 189.525C181.308 192.425 193.282 115.565 148.647 93.2493C159.176 91.8793 169.839 94.4682 178.567 100.514C173.116 90.8929 165.214 82.887 155.665 77.3101C146.116 71.7331 135.26 68.7841 124.202 68.7627C122.729 68.7627 121.289 68.8843 119.842 68.9836C107.39 69.8372 95.4848 74.4241 85.6793 82.1458C87.5715 83.7466 89.7071 85.8853 94.2055 90.3197C102.626 98.6153 124.221 107.209 124.27 108.218L124.276 108.243Z" fill="url(#paint4_radial_0_1)"/>
<path d="M124.276 108.243C124.071 111.33 113.166 121.975 109.353 121.975C74.07 121.975 68.3389 143.321 68.3389 143.321C69.9014 161.295 82.4264 176.106 97.5672 183.918C98.2588 184.277 98.96 184.6 99.6609 184.917C100.876 185.455 102.09 185.953 103.305 186.409C108.501 188.248 113.944 189.298 119.451 189.525C181.308 192.425 193.282 115.565 148.647 93.2493C159.176 91.8793 169.839 94.4682 178.567 100.514C173.116 90.8929 165.214 82.887 155.665 77.3101C146.116 71.7331 135.26 68.7841 124.202 68.7627C122.729 68.7627 121.289 68.8843 119.842 68.9836C107.39 69.8372 95.4848 74.4241 85.6793 82.1458C87.5715 83.7466 89.7071 85.8853 94.2055 90.3197C102.626 98.6153 124.221 107.209 124.27 108.218L124.276 108.243Z" fill="url(#paint5_radial_0_1)"/>
<path d="M79.9034 78.0507C80.9087 78.691 81.738 79.2481 82.4648 79.7508C79.6376 69.8541 79.5171 59.3802 82.1158 49.4211C70.6693 54.9658 60.4985 62.8264 52.2471 72.5054C52.8523 72.4893 70.8522 72.166 79.9034 78.0507Z" fill="url(#paint6_radial_0_1)"/>
<path d="M1.12146 135.041C10.6977 191.615 61.9857 234.838 120.193 236.471C174.077 237.995 208.496 206.715 222.711 176.215C234.755 149.84 236.139 119.83 226.572 92.4583V92.3398C226.572 92.247 226.553 92.1925 226.572 92.2214L226.595 92.4295C230.997 121.172 216.378 149.004 193.521 167.862L193.451 168.022C148.915 204.297 106.301 189.902 97.6879 184.03C97.0859 183.742 96.484 183.442 95.8821 183.131C69.9195 170.721 59.1906 147.08 61.4959 126.781C55.3329 126.872 49.2759 125.174 44.0586 121.892C38.8413 118.61 34.6877 113.886 32.1011 108.291C38.9168 104.116 46.6882 101.756 54.6747 101.435C62.6612 101.114 70.5968 102.844 77.7253 106.46C92.4188 113.129 109.138 113.787 124.31 108.291C124.262 107.283 102.667 98.6856 94.246 90.3932C89.7476 85.9588 87.6121 83.8233 85.7199 82.2193C84.6973 81.3531 83.6285 80.5429 82.5182 79.7924C81.7818 79.2897 80.9526 78.7454 79.9568 78.0923C70.9056 72.2075 52.9057 72.5309 52.3102 72.5469H52.2526C47.3347 66.3132 47.6805 45.7583 47.9623 41.4648C46.5074 42.0495 45.1187 42.7868 43.8193 43.6644C39.4779 46.7628 35.4193 50.2396 31.6912 54.0539C27.4277 58.3491 23.5314 62.9939 20.0435 67.9397C12.0665 79.2469 6.40809 92.0188 3.39467 105.525C3.33383 105.778 -1.07491 125.052 1.09905 135.048L1.12146 135.041Z" fill="url(#paint7_radial_0_1)"/>
<path d="M167.821 86.055C172.351 90.5044 176.232 95.5702 179.347 101.103C180.029 101.619 180.666 102.131 181.208 102.627C209.341 128.561 194.6 165.221 193.502 167.814C216.356 148.985 230.962 121.133 226.576 92.3816C212.539 57.387 188.732 43.2675 169.329 12.5632C168.346 11.0104 167.363 9.45437 166.406 7.81187C165.859 6.87377 165.42 6.02853 165.039 5.25051C164.233 3.68986 163.612 2.0405 163.188 0.335908C163.189 0.257245 163.161 0.18113 163.109 0.122078C163.057 0.0630273 162.985 0.0251722 162.907 0.0157342C162.83 -0.00524475 162.749 -0.00524475 162.673 0.0157342C162.657 0.0157342 162.631 0.0445503 162.612 0.0509533C162.593 0.0573563 162.551 0.0861723 162.522 0.0989783C157.723 2.37539 129.257 47.4521 167.837 86.0006L167.821 86.055Z" fill="url(#paint8_radial_0_1)"/>
<path d="M181.203 102.64C180.662 102.144 180.025 101.632 179.343 101.116C179.09 100.927 178.84 100.738 178.571 100.549C169.843 94.5034 159.18 91.9145 148.651 93.2845C193.283 115.601 181.309 192.441 119.455 189.56C113.948 189.333 108.505 188.283 103.309 186.445C102.094 185.99 100.88 185.493 99.6648 184.953C98.964 184.632 98.2628 184.312 97.5713 183.954L97.6577 184.008C106.283 189.896 148.885 204.281 193.421 168L193.491 167.84C194.602 165.246 209.343 128.587 181.197 102.653L181.203 102.64Z" fill="url(#paint9_radial_0_1)"/>
<path d="M68.3444 143.302C68.3444 143.302 74.0722 121.956 109.358 121.956C113.171 121.956 124.086 111.31 124.281 108.224C109.11 113.719 92.39 113.062 77.6965 106.393C70.568 102.777 62.6325 101.047 54.646 101.368C46.6595 101.688 38.8881 104.049 32.0723 108.224C34.659 113.818 38.8126 118.543 44.0299 121.825C49.2471 125.106 55.3042 126.805 61.4671 126.714C59.1683 147.003 69.894 170.641 95.8534 183.064C96.4329 183.342 96.9772 183.643 97.5727 183.909C82.419 176.081 69.9068 161.276 68.3444 143.311V143.302Z" fill="url(#paint10_radial_0_1)"/>
<path d="M238.899 85.9589C233.507 72.9856 222.57 58.9782 214.005 54.5503C220.113 66.377 224.352 79.0781 226.572 92.2022L226.594 92.4103C212.565 57.4478 188.782 43.3283 169.348 12.624C168.365 11.0712 167.382 9.51521 166.425 7.87266C165.877 6.93457 165.439 6.08932 165.058 5.31131C164.252 3.75065 163.631 2.1013 163.207 0.396697C163.208 0.318037 163.179 0.241922 163.127 0.18287C163.075 0.123818 163.004 0.085963 162.925 0.076526C162.849 0.055546 162.768 0.055546 162.692 0.076526C162.676 0.076526 162.65 0.105341 162.631 0.111745C162.612 0.118148 162.57 0.146963 162.541 0.15977L162.589 0.076526C131.421 18.3262 120.839 52.1041 119.879 69.0091C121.326 68.9099 122.76 68.7882 124.239 68.7882C135.297 68.8096 146.153 71.7587 155.702 77.3356C165.251 82.9125 173.153 90.9184 178.604 100.54C169.876 94.4936 159.213 91.9048 148.684 93.2748C193.316 115.591 181.342 192.432 119.488 189.55C113.981 189.324 108.538 188.274 103.342 186.435C102.127 185.98 100.913 185.483 99.6978 184.943C98.9969 184.623 98.2958 184.303 97.6042 183.944L97.6906 183.999C97.0887 183.71 96.4868 183.41 95.8849 183.099C96.4644 183.377 97.0087 183.678 97.6042 183.944C82.4505 176.113 69.9383 161.308 68.3759 143.347C68.3759 143.347 74.1037 122.001 109.39 122.001C113.203 122.001 124.118 111.355 124.313 108.269C124.265 107.26 102.669 98.6633 94.2488 90.3709C89.7504 85.9365 87.6149 83.801 85.7227 82.1969C84.7001 81.3307 83.6313 80.5206 82.521 79.77C79.6938 69.8733 79.5733 59.3995 82.172 49.4403C70.7255 54.985 60.5547 62.8456 52.3034 72.5246H52.2457C47.3279 66.2909 47.6737 45.736 47.9554 41.4425C46.5006 42.0272 45.1118 42.7645 43.8124 43.6421C39.471 46.7405 35.4125 50.2172 31.6844 54.0316C27.436 58.3388 23.5559 62.9944 20.0847 67.9494C12.1077 79.2565 6.44928 92.0284 3.43586 105.534L3.26937 106.354C3.03564 107.446 1.98869 112.991 1.83821 114.182C0.880578 119.906 0.269015 125.683 0.00683594 131.481V132.121C0.0616759 163.173 11.7557 193.076 32.7805 215.927C53.8054 238.778 82.6331 252.917 113.573 255.552C144.513 258.188 175.317 249.128 199.903 230.162C224.49 211.195 241.072 183.701 246.378 153.105C246.586 151.504 246.756 149.92 246.941 148.303C249.497 127.178 246.73 105.749 238.892 85.9653L238.899 85.9589Z" fill="url(#paint11_linear_0_1)"/>
<defs>
<linearGradient id="paint0_linear_0_1" x1="235.322" y1="65.7902" x2="20.6734" y2="201.056" gradientUnits="userSpaceOnUse">
<stop stop-color="#3FE1B0"/>
<stop offset="0.406" stop-color="#00B3F4"/>
<stop offset="0.421" stop-color="#03B0F4"/>
<stop offset="0.818" stop-color="#5561E9"/>
<stop offset="1" stop-color="#7542E5"/>
</linearGradient>
<radialGradient id="paint1_radial_0_1" cx="0" cy="0" r="1" gradientUnits="userSpaceOnUse" gradientTransform="translate(212.969 28.4976) scale(258.674 258.534)">
<stop offset="0.108" stop-color="#3FE1B0"/>
<stop offset="0.122" stop-color="#3BDCB3"/>
<stop offset="0.254" stop-color="#1BB3D3"/>
<stop offset="0.358" stop-color="#0799E6"/>
<stop offset="0.42" stop-color="#0090ED"/>
<stop offset="0.487" stop-color="#2482F1"/>
<stop offset="0.64" stop-color="#7165FB"/>
<stop offset="0.71" stop-color="#9059FF"/>
<stop offset="0.795" stop-color="#7D49ED"/>
<stop offset="0.86" stop-color="#7542E5"/>
</radialGradient>
<radialGradient id="paint2_radial_0_1" cx="0" cy="0" r="1" gradientUnits="userSpaceOnUse" gradientTransform="translate(118.447 134.193) scale(258.674 258.534)">
<stop offset="0.3" stop-color="#45278D"/>
<stop offset="0.341" stop-color="#562896" stop-opacity="0.787"/>
<stop offset="0.43" stop-color="#782AA9" stop-opacity="0.364"/>
<stop offset="0.495" stop-color="#8D2BB5" stop-opacity="0.1"/>
<stop offset="0.53" stop-color="#952BB9" stop-opacity="0"/>
</radialGradient>
<radialGradient id="paint3_radial_0_1" cx="0" cy="0" r="1" gradientUnits="userSpaceOnUse" gradientTransform="translate(149.603 -30.2521) scale(187.387 187.421)">
<stop offset="0.132" stop-color="#3FE1B0"/>
<stop offset="0.289" stop-color="#28D0C8"/>
<stop offset="0.526" stop-color="#00B3F4"/>
</radialGradient>
<radialGradient id="paint4_radial_0_1" cx="0" cy="0" r="1" gradientUnits="userSpaceOnUse" gradientTransform="translate(89.7838 201.795) scale(123.172 123.186)">
<stop offset="0.287" stop-color="#0060DF"/>
<stop offset="0.417" stop-color="#2357E1"/>
<stop offset="0.604" stop-color="#4F4CE3"/>
<stop offset="0.748" stop-color="#6B45E4"/>
<stop offset="0.833" stop-color="#7542E5"/>
</radialGradient>
<radialGradient id="paint5_radial_0_1" cx="0" cy="0" r="1" gradientUnits="userSpaceOnUse" gradientTransform="translate(121.849 103.904) rotate(-13.593) scale(65.3057 76.4641)">
<stop offset="0.206" stop-color="#45278D" stop-opacity="0"/>
<stop offset="0.251" stop-color="#44268A" stop-opacity="0.055"/>
<stop offset="0.725" stop-color="#371F6F" stop-opacity="0.591"/>
<stop offset="0.956" stop-color="#321C64" stop-opacity="0.8"/>
</radialGradient>
<radialGradient id="paint6_radial_0_1" cx="0" cy="0" r="1" gradientUnits="userSpaceOnUse" gradientTransform="translate(115.136 17.8973) scale(88.6107 88.6102)">
<stop stop-color="#00DDFF"/>
<stop offset="0.235" stop-color="#00D6FD"/>
<stop offset="0.572" stop-color="#00C3F8"/>
<stop offset="0.792" stop-color="#00B3F4"/>
</radialGradient>
<radialGradient id="paint7_radial_0_1" cx="0" cy="0" r="1" gradientUnits="userSpaceOnUse" gradientTransform="translate(184.775 -38.2852) scale(378.056 378.009)">
<stop offset="0.126" stop-color="#3FE1B0"/>
<stop offset="0.429" stop-color="#00DDFF"/>
<stop offset="0.479" stop-color="#1EC1FF"/>
<stop offset="0.624" stop-color="#7077FF"/>
<stop offset="0.69" stop-color="#9059FF"/>
<stop offset="0.904" stop-color="#B833E1"/>
</radialGradient>
<radialGradient id="paint8_radial_0_1" cx="0" cy="0" r="1" gradientUnits="userSpaceOnUse" gradientTransform="translate(149.023 3.71605) rotate(83.9777) scale(277.13 181.827)">
<stop stop-color="#54FFBD"/>
<stop offset="0.095" stop-color="#4CF3B8"/>
<stop offset="0.197" stop-color="#3FE1B0"/>
<stop offset="0.257" stop-color="#33D8BD"/>
<stop offset="0.369" stop-color="#12C0E1"/>
<stop offset="0.423" stop-color="#00B3F4"/>
<stop offset="0.737" stop-color="#0060DF"/>
</radialGradient>
<radialGradient id="paint9_radial_0_1" cx="0" cy="0" r="1" gradientUnits="userSpaceOnUse" gradientTransform="translate(113.06 50.7156) scale(236.014 236.06)">
<stop offset="0.137" stop-color="#3FE1B0"/>
<stop offset="0.435" stop-color="#00DDFF"/>
<stop offset="0.484" stop-color="#1EC1FF"/>
<stop offset="0.622" stop-color="#7077FF"/>
<stop offset="0.685" stop-color="#9059FF"/>
</radialGradient>
<radialGradient id="paint10_radial_0_1" cx="0" cy="0" r="1" gradientUnits="userSpaceOnUse" gradientTransform="translate(175.352 64.5075) scale(258.323 258.333)">
<stop offset="0.094" stop-color="#54FFBD"/>
<stop offset="0.242" stop-color="#41F7CC"/>
<stop offset="0.543" stop-color="#0FE3F3"/>
<stop offset="0.626" stop-color="#00DDFF"/>
</radialGradient>
<linearGradient id="paint11_linear_0_1" x1="219.994" y1="38.6496" x2="44.776" y2="213.917" gradientUnits="userSpaceOnUse">
<stop offset="0.167" stop-color="#54FFBD" stop-opacity="0.8"/>
<stop offset="0.236" stop-color="#43F8CA" stop-opacity="0.639"/>
<stop offset="0.361" stop-color="#27EDE1" stop-opacity="0.368"/>
<stop offset="0.466" stop-color="#12E4F1" stop-opacity="0.169"/>
<stop offset="0.545" stop-color="#05DFFB" stop-opacity="0.046"/>
<stop offset="0.589" stop-color="#00DDFF" stop-opacity="0"/>
</linearGradient>
</defs>
</svg>
